%TF.GenerationSoftware,KiCad,Pcbnew,9.0.4*%
%TF.CreationDate,2025-09-15T13:43:50+09:00*%
%TF.ProjectId,CAN_Isolation_mini,43414e5f-4973-46f6-9c61-74696f6e5f6d,Ver.1.0*%
%TF.SameCoordinates,Original*%
%TF.FileFunction,Paste,Top*%
%TF.FilePolarity,Positive*%
%FSLAX46Y46*%
G04 Gerber Fmt 4.6, Leading zero omitted, Abs format (unit mm)*
G04 Created by KiCad (PCBNEW 9.0.4) date 2025-09-15 13:43:50*
%MOMM*%
%LPD*%
G01*
G04 APERTURE LIST*
G04 Aperture macros list*
%AMRoundRect*
0 Rectangle with rounded corners*
0 $1 Rounding radius*
0 $2 $3 $4 $5 $6 $7 $8 $9 X,Y pos of 4 corners*
0 Add a 4 corners polygon primitive as box body*
4,1,4,$2,$3,$4,$5,$6,$7,$8,$9,$2,$3,0*
0 Add four circle primitives for the rounded corners*
1,1,$1+$1,$2,$3*
1,1,$1+$1,$4,$5*
1,1,$1+$1,$6,$7*
1,1,$1+$1,$8,$9*
0 Add four rect primitives between the rounded corners*
20,1,$1+$1,$2,$3,$4,$5,0*
20,1,$1+$1,$4,$5,$6,$7,0*
20,1,$1+$1,$6,$7,$8,$9,0*
20,1,$1+$1,$8,$9,$2,$3,0*%
G04 Aperture macros list end*
%ADD10C,0.010000*%
%ADD11RoundRect,0.225000X-0.225000X-0.250000X0.225000X-0.250000X0.225000X0.250000X-0.225000X0.250000X0*%
%ADD12RoundRect,0.200000X-0.200000X-0.275000X0.200000X-0.275000X0.200000X0.275000X-0.200000X0.275000X0*%
%ADD13R,2.253927X0.622132*%
%ADD14R,0.690000X0.320000*%
%ADD15RoundRect,0.250000X-0.325000X-1.100000X0.325000X-1.100000X0.325000X1.100000X-0.325000X1.100000X0*%
%ADD16R,1.016000X0.558800*%
%ADD17RoundRect,0.075000X0.225000X-0.540000X0.225000X0.540000X-0.225000X0.540000X-0.225000X-0.540000X0*%
%ADD18R,0.393700X0.812800*%
%ADD19R,1.397000X0.558800*%
%ADD20RoundRect,0.225000X0.225000X0.250000X-0.225000X0.250000X-0.225000X-0.250000X0.225000X-0.250000X0*%
%ADD21RoundRect,0.250000X0.325000X1.100000X-0.325000X1.100000X-0.325000X-1.100000X0.325000X-1.100000X0*%
%ADD22R,0.400000X1.900000*%
%ADD23RoundRect,0.250000X-1.100000X0.325000X-1.100000X-0.325000X1.100000X-0.325000X1.100000X0.325000X0*%
%ADD24RoundRect,0.075000X-0.225000X0.540000X-0.225000X-0.540000X0.225000X-0.540000X0.225000X0.540000X0*%
G04 APERTURE END LIST*
D10*
%TO.C,U5*%
X103973095Y-95300905D02*
X103341095Y-95300905D01*
X103341095Y-94288905D01*
X103973095Y-94288905D01*
X103973095Y-95300905D01*
G36*
X103973095Y-95300905D02*
G01*
X103341095Y-95300905D01*
X103341095Y-94288905D01*
X103973095Y-94288905D01*
X103973095Y-95300905D01*
G37*
%TD*%
D11*
%TO.C,C7*%
X129882095Y-100294905D03*
X131432095Y-100294905D03*
%TD*%
D12*
%TO.C,R9*%
X95332095Y-89294905D03*
X96982095Y-89294905D03*
%TD*%
D13*
%TO.C,U2*%
X130457618Y-118699905D03*
X130457618Y-117429905D03*
X130457618Y-116159905D03*
X130457618Y-114889905D03*
X119856572Y-114889905D03*
X119856572Y-116159905D03*
X119856572Y-117429905D03*
X119856572Y-118699905D03*
%TD*%
D11*
%TO.C,C10*%
X91382095Y-111794905D03*
X92932095Y-111794905D03*
%TD*%
D14*
%TO.C,U5*%
X104677095Y-95444905D03*
X104677095Y-94794905D03*
X104677095Y-94144905D03*
X102637095Y-94144905D03*
X102637095Y-94794905D03*
X102637095Y-95444905D03*
%TD*%
D15*
%TO.C,C2*%
X102182095Y-99794905D03*
X105132095Y-99794905D03*
%TD*%
D11*
%TO.C,C5*%
X129882095Y-120294905D03*
X131432095Y-120294905D03*
%TD*%
D16*
%TO.C,U6*%
X99300095Y-83744906D03*
X99300095Y-81844904D03*
X97014095Y-82794905D03*
%TD*%
D11*
%TO.C,C11*%
X99382095Y-111794905D03*
X100932095Y-111794905D03*
%TD*%
D17*
%TO.C,D1*%
X91207095Y-108854905D03*
X93107095Y-108854905D03*
X92157095Y-106734905D03*
%TD*%
D18*
%TO.C,LED2*%
X91760345Y-85794905D03*
X90553845Y-85794905D03*
%TD*%
D15*
%TO.C,C8*%
X102525000Y-84500000D03*
X105475000Y-84500000D03*
%TD*%
D12*
%TO.C,R5*%
X129832095Y-92794905D03*
X131482095Y-92794905D03*
%TD*%
%TO.C,R3*%
X129832095Y-95794905D03*
X131482095Y-95794905D03*
%TD*%
D19*
%TO.C,U1*%
X127002795Y-101984905D03*
X127002795Y-103254905D03*
X127002795Y-104524905D03*
X127002795Y-105794905D03*
X127002795Y-107064905D03*
X127002795Y-108334905D03*
X127002795Y-109604905D03*
X132311395Y-109604905D03*
X132311395Y-108334905D03*
X132311395Y-107064905D03*
X132311395Y-105794905D03*
X132311395Y-104524905D03*
X132311395Y-103254905D03*
X132311395Y-101984905D03*
%TD*%
D18*
%TO.C,LED1*%
X91760345Y-89294905D03*
X90553845Y-89294905D03*
%TD*%
D12*
%TO.C,R2*%
X129832095Y-97294905D03*
X131482095Y-97294905D03*
%TD*%
D15*
%TO.C,C1*%
X102182095Y-90294905D03*
X105132095Y-90294905D03*
%TD*%
D20*
%TO.C,C6*%
X121932095Y-112294905D03*
X120382095Y-112294905D03*
%TD*%
%TO.C,C12*%
X100932095Y-113794905D03*
X99382095Y-113794905D03*
%TD*%
D21*
%TO.C,C3*%
X128132095Y-93294905D03*
X125182095Y-93294905D03*
%TD*%
D22*
%TO.C,Y1*%
X131857095Y-112794905D03*
X130657095Y-112794905D03*
X129457095Y-112794905D03*
%TD*%
D23*
%TO.C,C4*%
X120657095Y-97819905D03*
X120657095Y-100769905D03*
%TD*%
D21*
%TO.C,C9*%
X124975000Y-84500000D03*
X122025000Y-84500000D03*
%TD*%
D24*
%TO.C,D2*%
X100607095Y-107234905D03*
X98707095Y-107234905D03*
X99657095Y-109354905D03*
%TD*%
D12*
%TO.C,R10*%
X95332095Y-85794905D03*
X96982095Y-85794905D03*
%TD*%
%TO.C,R6*%
X129832095Y-91294905D03*
X131482095Y-91294905D03*
%TD*%
%TO.C,R1*%
X129832095Y-98794905D03*
X131482095Y-98794905D03*
%TD*%
%TO.C,R7*%
X129832095Y-88294905D03*
X131482095Y-88294905D03*
%TD*%
%TO.C,R8*%
X129832095Y-89794905D03*
X131482095Y-89794905D03*
%TD*%
%TO.C,R4*%
X129832095Y-94294905D03*
X131482095Y-94294905D03*
%TD*%
M02*
