M48
; DRILL file {KiCad 9.0.4} date 2025-09-15T13:43:53+0900
; FORMAT={-:-/ absolute / metric / decimal}
; #@! TF.CreationDate,2025-09-15T13:43:53+09:00
; #@! TF.GenerationSoftware,Kicad,Pcbnew,9.0.4
; #@! TF.FileFunction,MixedPlating,1,4
FMAT,2
METRIC
; #@! TA.AperFunction,Plated,PTH,ViaDrill
T1C0.300
; #@! TA.AperFunction,Plated,PTH,ComponentDrill
T2C0.800
; #@! TA.AperFunction,Plated,PTH,ComponentDrill
T3C0.889
; #@! TA.AperFunction,Plated,PTH,ComponentDrill
T4C1.000
; #@! TA.AperFunction,NonPlated,NPTH,ComponentDrill
T5C3.200
%
G90
G05
T1
X92.657Y-110.295
X92.657Y-113.295
X93.657Y-84.295
X93.657Y-106.295
X93.657Y-107.295
X93.657Y-110.295
X93.657Y-113.295
X93.657Y-114.295
X94.657Y-106.295
X94.657Y-107.295
X94.657Y-108.295
X94.657Y-109.295
X94.657Y-110.295
X94.657Y-111.295
X94.657Y-112.295
X94.657Y-113.295
X94.657Y-114.295
X94.657Y-115.295
X95.657Y-100.295
X95.657Y-101.295
X95.657Y-102.295
X95.657Y-103.295
X95.657Y-106.295
X95.657Y-107.295
X95.657Y-108.295
X95.657Y-109.295
X95.657Y-110.295
X95.657Y-111.295
X95.657Y-112.295
X95.657Y-113.295
X95.657Y-114.295
X95.657Y-115.295
X95.657Y-116.295
X96.657Y-100.295
X96.657Y-101.295
X96.657Y-102.295
X96.657Y-103.295
X96.657Y-106.295
X96.657Y-107.295
X96.657Y-108.295
X96.657Y-109.295
X96.657Y-110.295
X96.657Y-111.295
X96.657Y-112.295
X96.657Y-113.295
X96.657Y-114.295
X96.657Y-115.295
X96.657Y-116.295
X96.657Y-117.295
X97.657Y-102.295
X97.657Y-103.295
X97.657Y-106.295
X97.657Y-107.295
X97.657Y-108.295
X97.657Y-109.295
X97.657Y-110.295
X97.657Y-111.295
X97.657Y-112.295
X97.657Y-113.295
X97.657Y-114.295
X97.657Y-115.295
X97.657Y-116.295
X97.657Y-117.295
X98.157Y-79.295
X98.657Y-109.295
X98.657Y-110.295
X98.657Y-113.295
X98.657Y-114.295
X98.657Y-115.295
X98.657Y-116.295
X98.657Y-117.295
X99.157Y-100.295
X99.157Y-101.295
X99.157Y-102.295
X99.157Y-103.295
X99.657Y-113.295
X99.657Y-114.295
X99.657Y-115.295
X99.657Y-116.295
X99.657Y-117.295
X99.657Y-118.295
X99.657Y-119.295
X99.657Y-120.295
X100.157Y-100.295
X100.157Y-101.295
X100.157Y-102.295
X100.157Y-103.295
X100.5Y-77.5
X100.657Y-115.295
X100.657Y-116.295
X100.657Y-117.295
X100.657Y-118.295
X100.657Y-119.295
X100.657Y-120.295
X102.157Y-109.295
X102.157Y-110.295
X103.157Y-109.295
X103.157Y-110.295
X103.5Y-74.5
X103.5Y-75.5
X103.5Y-76.5
X103.5Y-77.5
X103.5Y-78.5
X103.5Y-79.5
X103.5Y-80.5
X103.5Y-81.5
X104.0Y-83.5
X104.0Y-84.5
X104.0Y-85.5
X104.157Y-109.295
X104.157Y-110.295
X104.5Y-74.5
X104.5Y-75.5
X104.5Y-76.5
X104.5Y-77.5
X104.5Y-78.5
X104.5Y-79.5
X104.5Y-80.5
X104.5Y-81.5
X104.5Y-82.5
X105.157Y-109.295
X105.157Y-110.295
X106.157Y-109.295
X106.157Y-110.295
X106.657Y-90.295
X106.657Y-91.295
X106.657Y-92.295
X106.657Y-93.295
X106.657Y-94.295
X106.657Y-95.295
X106.657Y-96.295
X106.657Y-97.295
X106.657Y-98.295
X106.657Y-99.295
X106.657Y-100.295
X106.657Y-101.295
X106.657Y-102.295
X106.657Y-103.295
X107.0Y-74.5
X107.0Y-76.5
X107.0Y-77.5
X107.0Y-78.5
X107.0Y-79.5
X107.0Y-80.5
X107.0Y-81.5
X107.0Y-82.5
X107.0Y-83.5
X107.0Y-84.5
X107.0Y-85.5
X107.157Y-109.295
X107.157Y-110.295
X107.657Y-90.295
X107.657Y-91.295
X107.657Y-92.295
X107.657Y-93.295
X107.657Y-94.295
X107.657Y-95.295
X107.657Y-96.295
X107.657Y-97.295
X107.657Y-98.295
X107.657Y-99.295
X107.657Y-100.295
X107.657Y-101.295
X107.657Y-102.295
X107.657Y-103.295
X108.0Y-77.5
X108.0Y-78.5
X108.0Y-79.5
X108.0Y-80.5
X108.0Y-81.5
X108.0Y-82.5
X108.0Y-83.5
X108.0Y-84.5
X108.0Y-85.5
X108.157Y-109.295
X108.157Y-110.295
X108.657Y-92.295
X108.657Y-93.295
X108.657Y-94.295
X108.657Y-95.295
X108.657Y-96.295
X108.657Y-97.295
X108.657Y-98.295
X108.657Y-99.295
X108.657Y-100.295
X108.657Y-101.295
X108.657Y-102.295
X108.657Y-103.295
X109.0Y-76.5
X109.0Y-77.5
X109.0Y-78.5
X109.0Y-79.5
X109.0Y-80.5
X109.0Y-81.5
X109.0Y-82.5
X109.0Y-83.5
X109.0Y-84.5
X109.0Y-85.5
X109.157Y-109.295
X109.157Y-110.295
X109.657Y-92.295
X109.657Y-93.295
X109.657Y-94.295
X109.657Y-95.295
X109.657Y-96.295
X109.657Y-97.295
X109.657Y-98.295
X109.657Y-99.295
X109.657Y-100.295
X109.657Y-101.295
X109.657Y-102.295
X109.657Y-103.295
X110.0Y-76.5
X110.0Y-77.5
X110.0Y-78.5
X110.0Y-79.5
X110.0Y-80.5
X110.0Y-81.5
X110.0Y-82.5
X110.0Y-83.5
X110.0Y-84.5
X110.0Y-85.5
X110.157Y-109.295
X110.157Y-110.295
X110.157Y-111.295
X110.657Y-92.295
X110.657Y-93.295
X110.657Y-94.271
X110.657Y-95.295
X110.657Y-96.295
X110.657Y-97.295
X110.657Y-98.295
X110.657Y-99.295
X110.657Y-100.295
X110.657Y-101.295
X110.657Y-102.295
X110.657Y-103.295
X111.0Y-77.5
X111.0Y-78.5
X111.0Y-79.5
X111.0Y-80.5
X111.0Y-81.5
X111.0Y-82.5
X111.0Y-83.5
X111.0Y-84.5
X111.0Y-85.5
X111.157Y-109.295
X111.157Y-110.295
X111.157Y-111.295
X111.157Y-112.295
X111.657Y-92.295
X111.657Y-93.295
X111.657Y-94.295
X111.657Y-95.295
X111.657Y-96.295
X111.657Y-97.295
X111.657Y-98.295
X111.657Y-99.295
X111.657Y-100.295
X111.657Y-101.295
X111.657Y-102.295
X111.657Y-103.295
X112.157Y-109.295
X112.157Y-110.295
X112.157Y-111.295
X112.157Y-112.295
X113.157Y-109.295
X113.157Y-110.295
X113.157Y-111.295
X113.157Y-112.295
X113.157Y-113.295
X113.157Y-114.295
X114.157Y-109.295
X114.157Y-110.295
X114.157Y-111.295
X114.157Y-112.295
X114.157Y-113.295
X114.157Y-114.295
X115.157Y-106.295
X115.157Y-107.295
X115.157Y-108.295
X115.157Y-109.295
X115.157Y-110.295
X115.157Y-111.295
X115.157Y-112.295
X115.157Y-113.295
X115.157Y-114.295
X116.157Y-106.295
X116.157Y-107.295
X116.157Y-108.295
X116.157Y-109.295
X116.157Y-110.295
X116.157Y-111.295
X116.157Y-112.295
X116.157Y-113.295
X116.157Y-114.295
X117.157Y-106.295
X117.157Y-107.295
X117.157Y-108.295
X117.157Y-109.295
X117.157Y-110.295
X117.157Y-111.295
X117.157Y-112.295
X117.157Y-113.295
X117.157Y-114.295
X118.157Y-87.795
X118.157Y-88.795
X118.157Y-89.795
X118.157Y-90.795
X118.157Y-91.795
X118.157Y-92.795
X118.157Y-102.295
X118.157Y-103.295
X118.157Y-104.295
X118.157Y-105.295
X118.157Y-106.295
X118.157Y-107.295
X118.157Y-108.295
X118.157Y-109.295
X118.157Y-110.295
X118.157Y-111.295
X118.157Y-112.295
X118.157Y-113.295
X118.157Y-114.295
X119.157Y-87.795
X119.157Y-88.795
X119.157Y-89.795
X119.157Y-90.795
X119.157Y-91.795
X119.157Y-92.795
X119.157Y-93.795
X119.157Y-102.295
X119.157Y-103.295
X119.157Y-104.295
X119.157Y-105.295
X119.157Y-106.295
X119.157Y-107.295
X119.157Y-108.295
X119.157Y-109.295
X119.157Y-110.295
X119.157Y-111.295
X119.157Y-112.295
X119.157Y-113.295
X120.157Y-87.795
X120.157Y-88.795
X120.157Y-89.795
X120.157Y-90.795
X120.157Y-91.795
X120.157Y-92.795
X120.157Y-93.795
X120.157Y-102.295
X120.157Y-103.295
X120.157Y-104.295
X120.157Y-105.295
X120.157Y-106.295
X120.157Y-107.295
X120.157Y-108.295
X120.157Y-109.295
X120.157Y-110.295
X120.157Y-111.295
X120.5Y-73.5
X120.5Y-77.0
X120.5Y-78.0
X121.157Y-87.795
X121.157Y-88.795
X121.157Y-91.795
X121.157Y-92.795
X121.157Y-93.795
X121.157Y-106.295
X121.157Y-107.295
X121.157Y-108.295
X121.157Y-109.295
X121.157Y-110.295
X121.157Y-111.295
X121.5Y-73.5
X121.5Y-74.5
X121.5Y-77.0
X121.5Y-78.0
X121.5Y-79.0
X122.157Y-87.795
X122.157Y-88.795
X122.157Y-91.795
X122.157Y-92.795
X122.157Y-93.795
X122.157Y-106.295
X122.157Y-107.295
X122.157Y-108.295
X122.157Y-109.295
X122.157Y-110.295
X122.157Y-111.295
X122.5Y-73.5
X122.5Y-74.5
X122.5Y-77.0
X122.5Y-78.0
X122.5Y-79.0
X123.157Y-87.795
X123.157Y-88.795
X123.157Y-89.795
X123.157Y-90.795
X123.157Y-91.795
X123.157Y-92.795
X123.157Y-93.795
X123.5Y-73.5
X123.5Y-77.0
X123.5Y-78.0
X123.5Y-79.0
X124.5Y-73.5
X124.5Y-74.5
X124.5Y-77.0
X124.5Y-78.0
X124.5Y-79.0
X124.5Y-80.0
X125.5Y-73.5
X125.5Y-74.5
X125.5Y-75.5
X125.5Y-77.0
X125.5Y-78.0
X125.5Y-79.0
X125.5Y-80.0
X125.5Y-88.5
X126.657Y-110.795
X126.657Y-111.795
X126.657Y-112.795
X126.657Y-113.795
X126.657Y-114.795
X126.657Y-115.795
X126.657Y-116.795
X126.657Y-117.795
X127.657Y-100.295
X127.657Y-110.795
X127.657Y-111.795
X127.657Y-112.795
X127.657Y-113.795
X127.657Y-114.795
X127.657Y-115.795
X127.657Y-116.795
X127.657Y-117.795
X128.157Y-99.795
X128.157Y-100.795
X128.657Y-100.295
X128.657Y-102.295
X128.657Y-103.295
X128.657Y-115.795
X128.657Y-116.795
X128.657Y-117.795
X129.157Y-101.295
X130.0Y-77.0
X130.157Y-101.295
X130.157Y-104.795
X130.157Y-106.295
X131.0Y-77.0
X132.0Y-77.0
X132.0Y-122.0
X132.657Y-88.295
X132.657Y-89.795
X132.657Y-91.295
X132.657Y-92.795
X132.657Y-94.295
X132.657Y-95.795
X132.657Y-97.295
X132.657Y-98.795
X132.657Y-116.295
X132.657Y-117.295
X133.0Y-77.0
X133.0Y-120.0
X133.0Y-121.0
X133.0Y-122.0
X133.657Y-103.295
X133.657Y-104.795
X133.657Y-106.295
X133.657Y-107.795
X133.657Y-108.795
X133.657Y-110.295
X134.0Y-77.0
X134.0Y-120.0
X134.0Y-121.0
X134.0Y-122.0
X135.0Y-77.0
X136.0Y-77.0
X137.0Y-77.0
X138.0Y-77.0
T2
X103.037Y-114.295
X103.037Y-119.295
X110.657Y-114.295
X110.657Y-119.295
T3
X105.61Y-75.5
X108.15Y-75.5
X108.68Y-90.271
X108.68Y-104.771
X110.69Y-75.5
X111.22Y-90.271
X111.22Y-104.771
X115.77Y-75.5
X116.3Y-90.271
X116.3Y-104.771
X118.31Y-75.5
X120.85Y-75.5
X121.38Y-90.271
X121.38Y-104.771
X123.39Y-75.5
T4
X97.857Y-93.545
X97.857Y-96.045
X97.857Y-98.545
X97.857Y-101.045
X137.19Y-79.34
X137.19Y-81.88
X137.19Y-84.42
X137.19Y-86.96
X137.19Y-89.5
X137.19Y-92.04
X137.19Y-94.58
X137.19Y-97.12
X137.19Y-99.66
X137.19Y-102.2
X137.19Y-104.74
X137.19Y-107.28
X137.19Y-109.82
X137.19Y-112.36
X137.19Y-114.9
X137.19Y-117.44
X139.73Y-79.34
X139.73Y-81.88
X139.73Y-84.42
X139.73Y-86.96
X139.73Y-89.5
X139.73Y-92.04
X139.73Y-94.58
X139.73Y-97.12
X139.73Y-99.66
X139.73Y-102.2
X139.73Y-104.74
X139.73Y-107.28
X139.73Y-109.82
X139.73Y-112.36
X139.73Y-114.9
X139.73Y-117.44
X142.27Y-79.34
X142.27Y-81.88
X142.27Y-84.42
X142.27Y-86.96
X142.27Y-89.5
X142.27Y-92.04
X142.27Y-94.58
X142.27Y-97.12
X142.27Y-99.66
X142.27Y-102.2
X142.27Y-104.74
X142.27Y-107.28
X142.27Y-109.82
X142.27Y-112.36
X142.27Y-114.9
X142.27Y-117.44
X144.81Y-79.34
X144.81Y-81.88
X144.81Y-84.42
X144.81Y-86.96
X144.81Y-89.5
X144.81Y-92.04
X144.81Y-94.58
X144.81Y-97.12
X144.81Y-99.66
X144.81Y-102.2
X144.81Y-104.74
X144.81Y-107.28
X144.81Y-109.82
X144.81Y-112.36
X144.81Y-114.9
X144.81Y-117.44
T5
X93.657Y-72.795
X93.657Y-122.795
X143.657Y-72.795
X143.657Y-122.795
M30
