%TF.GenerationSoftware,KiCad,Pcbnew,9.0.4*%
%TF.CreationDate,2025-09-15T13:13:42+09:00*%
%TF.ProjectId,CAN_Isolation_mini,43414e5f-4973-46f6-9c61-74696f6e5f6d,Ver.1.0*%
%TF.SameCoordinates,Original*%
%TF.FileFunction,Drillmap*%
%TF.FilePolarity,Positive*%
%FSLAX45Y45*%
G04 Gerber Fmt 4.5, Leading zero omitted, Abs format (unit mm)*
G04 Created by KiCad (PCBNEW 9.0.4) date 2025-09-15 13:13:42*
%MOMM*%
%LPD*%
G01*
G04 APERTURE LIST*
%ADD10C,0.050000*%
%ADD11C,0.200000*%
%ADD12C,0.100000*%
%ADD13C,0.320000*%
G04 APERTURE END LIST*
D10*
X8865710Y-6779490D02*
X14865709Y-6779490D01*
X14865709Y-12779490D01*
X8865710Y-12779490D01*
X8865710Y-6779490D01*
D11*
D12*
X9250710Y-11014491D02*
X9280710Y-11044491D01*
X9280710Y-11014491D02*
X9250710Y-11044491D01*
X9250710Y-11314490D02*
X9280710Y-11344490D01*
X9280710Y-11314490D02*
X9250710Y-11344490D01*
X9350710Y-8414491D02*
X9380710Y-8444491D01*
X9380710Y-8414491D02*
X9350710Y-8444491D01*
X9350710Y-10614491D02*
X9380710Y-10644491D01*
X9380710Y-10614491D02*
X9350710Y-10644491D01*
X9350710Y-10714491D02*
X9380710Y-10744491D01*
X9380710Y-10714491D02*
X9350710Y-10744491D01*
X9350710Y-11014491D02*
X9380710Y-11044491D01*
X9380710Y-11014491D02*
X9350710Y-11044491D01*
X9350710Y-11314490D02*
X9380710Y-11344490D01*
X9380710Y-11314490D02*
X9350710Y-11344490D01*
X9350710Y-11414490D02*
X9380710Y-11444490D01*
X9380710Y-11414490D02*
X9350710Y-11444490D01*
X9450710Y-10614491D02*
X9480710Y-10644491D01*
X9480710Y-10614491D02*
X9450710Y-10644491D01*
X9450710Y-10714491D02*
X9480710Y-10744491D01*
X9480710Y-10714491D02*
X9450710Y-10744491D01*
X9450710Y-10814491D02*
X9480710Y-10844491D01*
X9480710Y-10814491D02*
X9450710Y-10844491D01*
X9450710Y-10914491D02*
X9480710Y-10944491D01*
X9480710Y-10914491D02*
X9450710Y-10944491D01*
X9450710Y-11014491D02*
X9480710Y-11044491D01*
X9480710Y-11014491D02*
X9450710Y-11044491D01*
X9450710Y-11114491D02*
X9480710Y-11144491D01*
X9480710Y-11114491D02*
X9450710Y-11144491D01*
X9450710Y-11214490D02*
X9480710Y-11244490D01*
X9480710Y-11214490D02*
X9450710Y-11244490D01*
X9450710Y-11314490D02*
X9480710Y-11344490D01*
X9480710Y-11314490D02*
X9450710Y-11344490D01*
X9450710Y-11414490D02*
X9480710Y-11444490D01*
X9480710Y-11414490D02*
X9450710Y-11444490D01*
X9450710Y-11514490D02*
X9480710Y-11544490D01*
X9480710Y-11514490D02*
X9450710Y-11544490D01*
X9550710Y-10014491D02*
X9580710Y-10044491D01*
X9580710Y-10014491D02*
X9550710Y-10044491D01*
X9550710Y-10114491D02*
X9580710Y-10144491D01*
X9580710Y-10114491D02*
X9550710Y-10144491D01*
X9550710Y-10214491D02*
X9580710Y-10244491D01*
X9580710Y-10214491D02*
X9550710Y-10244491D01*
X9550710Y-10314491D02*
X9580710Y-10344491D01*
X9580710Y-10314491D02*
X9550710Y-10344491D01*
X9550710Y-10614491D02*
X9580710Y-10644491D01*
X9580710Y-10614491D02*
X9550710Y-10644491D01*
X9550710Y-10714491D02*
X9580710Y-10744491D01*
X9580710Y-10714491D02*
X9550710Y-10744491D01*
X9550710Y-10814491D02*
X9580710Y-10844491D01*
X9580710Y-10814491D02*
X9550710Y-10844491D01*
X9550710Y-10914491D02*
X9580710Y-10944491D01*
X9580710Y-10914491D02*
X9550710Y-10944491D01*
X9550710Y-11014491D02*
X9580710Y-11044491D01*
X9580710Y-11014491D02*
X9550710Y-11044491D01*
X9550710Y-11114491D02*
X9580710Y-11144491D01*
X9580710Y-11114491D02*
X9550710Y-11144491D01*
X9550710Y-11214490D02*
X9580710Y-11244490D01*
X9580710Y-11214490D02*
X9550710Y-11244490D01*
X9550710Y-11314490D02*
X9580710Y-11344490D01*
X9580710Y-11314490D02*
X9550710Y-11344490D01*
X9550710Y-11414490D02*
X9580710Y-11444490D01*
X9580710Y-11414490D02*
X9550710Y-11444490D01*
X9550710Y-11514490D02*
X9580710Y-11544490D01*
X9580710Y-11514490D02*
X9550710Y-11544490D01*
X9550710Y-11614490D02*
X9580710Y-11644490D01*
X9580710Y-11614490D02*
X9550710Y-11644490D01*
X9650710Y-10014491D02*
X9680710Y-10044491D01*
X9680710Y-10014491D02*
X9650710Y-10044491D01*
X9650710Y-10114491D02*
X9680710Y-10144491D01*
X9680710Y-10114491D02*
X9650710Y-10144491D01*
X9650710Y-10214491D02*
X9680710Y-10244491D01*
X9680710Y-10214491D02*
X9650710Y-10244491D01*
X9650710Y-10314491D02*
X9680710Y-10344491D01*
X9680710Y-10314491D02*
X9650710Y-10344491D01*
X9650710Y-10614491D02*
X9680710Y-10644491D01*
X9680710Y-10614491D02*
X9650710Y-10644491D01*
X9650710Y-10714491D02*
X9680710Y-10744491D01*
X9680710Y-10714491D02*
X9650710Y-10744491D01*
X9650710Y-10814491D02*
X9680710Y-10844491D01*
X9680710Y-10814491D02*
X9650710Y-10844491D01*
X9650710Y-10914491D02*
X9680710Y-10944491D01*
X9680710Y-10914491D02*
X9650710Y-10944491D01*
X9650710Y-11014491D02*
X9680710Y-11044491D01*
X9680710Y-11014491D02*
X9650710Y-11044491D01*
X9650710Y-11114491D02*
X9680710Y-11144491D01*
X9680710Y-11114491D02*
X9650710Y-11144491D01*
X9650710Y-11214490D02*
X9680710Y-11244490D01*
X9680710Y-11214490D02*
X9650710Y-11244490D01*
X9650710Y-11314490D02*
X9680710Y-11344490D01*
X9680710Y-11314490D02*
X9650710Y-11344490D01*
X9650710Y-11414490D02*
X9680710Y-11444490D01*
X9680710Y-11414490D02*
X9650710Y-11444490D01*
X9650710Y-11514490D02*
X9680710Y-11544490D01*
X9680710Y-11514490D02*
X9650710Y-11544490D01*
X9650710Y-11614490D02*
X9680710Y-11644490D01*
X9680710Y-11614490D02*
X9650710Y-11644490D01*
X9650710Y-11714490D02*
X9680710Y-11744490D01*
X9680710Y-11714490D02*
X9650710Y-11744490D01*
X9750710Y-10214491D02*
X9780710Y-10244491D01*
X9780710Y-10214491D02*
X9750710Y-10244491D01*
X9750710Y-10314491D02*
X9780710Y-10344491D01*
X9780710Y-10314491D02*
X9750710Y-10344491D01*
X9750710Y-10614491D02*
X9780710Y-10644491D01*
X9780710Y-10614491D02*
X9750710Y-10644491D01*
X9750710Y-10714491D02*
X9780710Y-10744491D01*
X9780710Y-10714491D02*
X9750710Y-10744491D01*
X9750710Y-10814491D02*
X9780710Y-10844491D01*
X9780710Y-10814491D02*
X9750710Y-10844491D01*
X9750710Y-10914491D02*
X9780710Y-10944491D01*
X9780710Y-10914491D02*
X9750710Y-10944491D01*
X9750710Y-11014491D02*
X9780710Y-11044491D01*
X9780710Y-11014491D02*
X9750710Y-11044491D01*
X9750710Y-11114491D02*
X9780710Y-11144491D01*
X9780710Y-11114491D02*
X9750710Y-11144491D01*
X9750710Y-11214490D02*
X9780710Y-11244490D01*
X9780710Y-11214490D02*
X9750710Y-11244490D01*
X9750710Y-11314490D02*
X9780710Y-11344490D01*
X9780710Y-11314490D02*
X9750710Y-11344490D01*
X9750710Y-11414490D02*
X9780710Y-11444490D01*
X9780710Y-11414490D02*
X9750710Y-11444490D01*
X9750710Y-11514490D02*
X9780710Y-11544490D01*
X9780710Y-11514490D02*
X9750710Y-11544490D01*
X9750710Y-11614490D02*
X9780710Y-11644490D01*
X9780710Y-11614490D02*
X9750710Y-11644490D01*
X9750710Y-11714490D02*
X9780710Y-11744490D01*
X9780710Y-11714490D02*
X9750710Y-11744490D01*
X9800710Y-7914490D02*
X9830710Y-7944490D01*
X9830710Y-7914490D02*
X9800710Y-7944490D01*
X9850710Y-10914491D02*
X9880710Y-10944491D01*
X9880710Y-10914491D02*
X9850710Y-10944491D01*
X9850710Y-11014491D02*
X9880710Y-11044491D01*
X9880710Y-11014491D02*
X9850710Y-11044491D01*
X9850710Y-11314490D02*
X9880710Y-11344490D01*
X9880710Y-11314490D02*
X9850710Y-11344490D01*
X9850710Y-11414490D02*
X9880710Y-11444490D01*
X9880710Y-11414490D02*
X9850710Y-11444490D01*
X9850710Y-11514490D02*
X9880710Y-11544490D01*
X9880710Y-11514490D02*
X9850710Y-11544490D01*
X9850710Y-11614490D02*
X9880710Y-11644490D01*
X9880710Y-11614490D02*
X9850710Y-11644490D01*
X9850710Y-11714490D02*
X9880710Y-11744490D01*
X9880710Y-11714490D02*
X9850710Y-11744490D01*
X9900710Y-10014491D02*
X9930710Y-10044491D01*
X9930710Y-10014491D02*
X9900710Y-10044491D01*
X9900710Y-10114491D02*
X9930710Y-10144491D01*
X9930710Y-10114491D02*
X9900710Y-10144491D01*
X9900710Y-10214491D02*
X9930710Y-10244491D01*
X9930710Y-10214491D02*
X9900710Y-10244491D01*
X9900710Y-10314491D02*
X9930710Y-10344491D01*
X9930710Y-10314491D02*
X9900710Y-10344491D01*
X9950710Y-11314490D02*
X9980710Y-11344490D01*
X9980710Y-11314490D02*
X9950710Y-11344490D01*
X9950710Y-11414490D02*
X9980710Y-11444490D01*
X9980710Y-11414490D02*
X9950710Y-11444490D01*
X9950710Y-11514490D02*
X9980710Y-11544490D01*
X9980710Y-11514490D02*
X9950710Y-11544490D01*
X9950710Y-11614490D02*
X9980710Y-11644490D01*
X9980710Y-11614490D02*
X9950710Y-11644490D01*
X9950710Y-11714490D02*
X9980710Y-11744490D01*
X9980710Y-11714490D02*
X9950710Y-11744490D01*
X9950710Y-11814490D02*
X9980710Y-11844490D01*
X9980710Y-11814490D02*
X9950710Y-11844490D01*
X9950710Y-11914490D02*
X9980710Y-11944490D01*
X9980710Y-11914490D02*
X9950710Y-11944490D01*
X9950710Y-12014490D02*
X9980710Y-12044490D01*
X9980710Y-12014490D02*
X9950710Y-12044490D01*
X10000710Y-10014491D02*
X10030710Y-10044491D01*
X10030710Y-10014491D02*
X10000710Y-10044491D01*
X10000710Y-10114491D02*
X10030710Y-10144491D01*
X10030710Y-10114491D02*
X10000710Y-10144491D01*
X10000710Y-10214491D02*
X10030710Y-10244491D01*
X10030710Y-10214491D02*
X10000710Y-10244491D01*
X10000710Y-10314491D02*
X10030710Y-10344491D01*
X10030710Y-10314491D02*
X10000710Y-10344491D01*
X10035000Y-7735000D02*
X10065000Y-7765000D01*
X10065000Y-7735000D02*
X10035000Y-7765000D01*
X10050710Y-11514490D02*
X10080710Y-11544490D01*
X10080710Y-11514490D02*
X10050710Y-11544490D01*
X10050710Y-11614490D02*
X10080710Y-11644490D01*
X10080710Y-11614490D02*
X10050710Y-11644490D01*
X10050710Y-11714490D02*
X10080710Y-11744490D01*
X10080710Y-11714490D02*
X10050710Y-11744490D01*
X10050710Y-11814490D02*
X10080710Y-11844490D01*
X10080710Y-11814490D02*
X10050710Y-11844490D01*
X10050710Y-11914490D02*
X10080710Y-11944490D01*
X10080710Y-11914490D02*
X10050710Y-11944490D01*
X10050710Y-12014490D02*
X10080710Y-12044490D01*
X10080710Y-12014490D02*
X10050710Y-12044490D01*
X10200710Y-10914491D02*
X10230710Y-10944491D01*
X10230710Y-10914491D02*
X10200710Y-10944491D01*
X10200710Y-11014491D02*
X10230710Y-11044491D01*
X10230710Y-11014491D02*
X10200710Y-11044491D01*
X10300710Y-10914491D02*
X10330710Y-10944491D01*
X10330710Y-10914491D02*
X10300710Y-10944491D01*
X10300710Y-11014491D02*
X10330710Y-11044491D01*
X10330710Y-11014491D02*
X10300710Y-11044491D01*
X10335000Y-7435000D02*
X10365000Y-7465000D01*
X10365000Y-7435000D02*
X10335000Y-7465000D01*
X10335000Y-7535000D02*
X10365000Y-7565000D01*
X10365000Y-7535000D02*
X10335000Y-7565000D01*
X10335000Y-7635000D02*
X10365000Y-7665000D01*
X10365000Y-7635000D02*
X10335000Y-7665000D01*
X10335000Y-7735000D02*
X10365000Y-7765000D01*
X10365000Y-7735000D02*
X10335000Y-7765000D01*
X10335000Y-7835000D02*
X10365000Y-7865000D01*
X10365000Y-7835000D02*
X10335000Y-7865000D01*
X10335000Y-7935000D02*
X10365000Y-7965000D01*
X10365000Y-7935000D02*
X10335000Y-7965000D01*
X10335000Y-8035000D02*
X10365000Y-8065000D01*
X10365000Y-8035000D02*
X10335000Y-8065000D01*
X10335000Y-8135000D02*
X10365000Y-8165000D01*
X10365000Y-8135000D02*
X10335000Y-8165000D01*
X10385000Y-8335000D02*
X10415000Y-8365000D01*
X10415000Y-8335000D02*
X10385000Y-8365000D01*
X10385000Y-8435000D02*
X10415000Y-8465000D01*
X10415000Y-8435000D02*
X10385000Y-8465000D01*
X10385000Y-8535000D02*
X10415000Y-8565000D01*
X10415000Y-8535000D02*
X10385000Y-8565000D01*
X10400710Y-10914491D02*
X10430710Y-10944491D01*
X10430710Y-10914491D02*
X10400710Y-10944491D01*
X10400710Y-11014491D02*
X10430710Y-11044491D01*
X10430710Y-11014491D02*
X10400710Y-11044491D01*
X10435000Y-7435000D02*
X10465000Y-7465000D01*
X10465000Y-7435000D02*
X10435000Y-7465000D01*
X10435000Y-7535000D02*
X10465000Y-7565000D01*
X10465000Y-7535000D02*
X10435000Y-7565000D01*
X10435000Y-7635000D02*
X10465000Y-7665000D01*
X10465000Y-7635000D02*
X10435000Y-7665000D01*
X10435000Y-7735000D02*
X10465000Y-7765000D01*
X10465000Y-7735000D02*
X10435000Y-7765000D01*
X10435000Y-7835000D02*
X10465000Y-7865000D01*
X10465000Y-7835000D02*
X10435000Y-7865000D01*
X10435000Y-7935000D02*
X10465000Y-7965000D01*
X10465000Y-7935000D02*
X10435000Y-7965000D01*
X10435000Y-8035000D02*
X10465000Y-8065000D01*
X10465000Y-8035000D02*
X10435000Y-8065000D01*
X10435000Y-8135000D02*
X10465000Y-8165000D01*
X10465000Y-8135000D02*
X10435000Y-8165000D01*
X10435000Y-8235000D02*
X10465000Y-8265000D01*
X10465000Y-8235000D02*
X10435000Y-8265000D01*
X10500710Y-10914491D02*
X10530710Y-10944491D01*
X10530710Y-10914491D02*
X10500710Y-10944491D01*
X10500710Y-11014491D02*
X10530710Y-11044491D01*
X10530710Y-11014491D02*
X10500710Y-11044491D01*
X10600710Y-10914491D02*
X10630710Y-10944491D01*
X10630710Y-10914491D02*
X10600710Y-10944491D01*
X10600710Y-11014491D02*
X10630710Y-11044491D01*
X10630710Y-11014491D02*
X10600710Y-11044491D01*
X10650710Y-9014491D02*
X10680710Y-9044491D01*
X10680710Y-9014491D02*
X10650710Y-9044491D01*
X10650710Y-9114491D02*
X10680710Y-9144491D01*
X10680710Y-9114491D02*
X10650710Y-9144491D01*
X10650710Y-9214491D02*
X10680710Y-9244491D01*
X10680710Y-9214491D02*
X10650710Y-9244491D01*
X10650710Y-9314491D02*
X10680710Y-9344491D01*
X10680710Y-9314491D02*
X10650710Y-9344491D01*
X10650710Y-9414491D02*
X10680710Y-9444491D01*
X10680710Y-9414491D02*
X10650710Y-9444491D01*
X10650710Y-9514491D02*
X10680710Y-9544491D01*
X10680710Y-9514491D02*
X10650710Y-9544491D01*
X10650710Y-9614491D02*
X10680710Y-9644491D01*
X10680710Y-9614491D02*
X10650710Y-9644491D01*
X10650710Y-9714491D02*
X10680710Y-9744491D01*
X10680710Y-9714491D02*
X10650710Y-9744491D01*
X10650710Y-9814491D02*
X10680710Y-9844491D01*
X10680710Y-9814491D02*
X10650710Y-9844491D01*
X10650710Y-9914491D02*
X10680710Y-9944491D01*
X10680710Y-9914491D02*
X10650710Y-9944491D01*
X10650710Y-10014491D02*
X10680710Y-10044491D01*
X10680710Y-10014491D02*
X10650710Y-10044491D01*
X10650710Y-10114491D02*
X10680710Y-10144491D01*
X10680710Y-10114491D02*
X10650710Y-10144491D01*
X10650710Y-10214491D02*
X10680710Y-10244491D01*
X10680710Y-10214491D02*
X10650710Y-10244491D01*
X10650710Y-10314491D02*
X10680710Y-10344491D01*
X10680710Y-10314491D02*
X10650710Y-10344491D01*
X10685000Y-7435000D02*
X10715000Y-7465000D01*
X10715000Y-7435000D02*
X10685000Y-7465000D01*
X10685000Y-7635000D02*
X10715000Y-7665000D01*
X10715000Y-7635000D02*
X10685000Y-7665000D01*
X10685000Y-7735000D02*
X10715000Y-7765000D01*
X10715000Y-7735000D02*
X10685000Y-7765000D01*
X10685000Y-7835000D02*
X10715000Y-7865000D01*
X10715000Y-7835000D02*
X10685000Y-7865000D01*
X10685000Y-7935000D02*
X10715000Y-7965000D01*
X10715000Y-7935000D02*
X10685000Y-7965000D01*
X10685000Y-8035000D02*
X10715000Y-8065000D01*
X10715000Y-8035000D02*
X10685000Y-8065000D01*
X10685000Y-8135000D02*
X10715000Y-8165000D01*
X10715000Y-8135000D02*
X10685000Y-8165000D01*
X10685000Y-8235000D02*
X10715000Y-8265000D01*
X10715000Y-8235000D02*
X10685000Y-8265000D01*
X10685000Y-8335000D02*
X10715000Y-8365000D01*
X10715000Y-8335000D02*
X10685000Y-8365000D01*
X10685000Y-8435000D02*
X10715000Y-8465000D01*
X10715000Y-8435000D02*
X10685000Y-8465000D01*
X10685000Y-8535000D02*
X10715000Y-8565000D01*
X10715000Y-8535000D02*
X10685000Y-8565000D01*
X10700710Y-10914491D02*
X10730710Y-10944491D01*
X10730710Y-10914491D02*
X10700710Y-10944491D01*
X10700710Y-11014491D02*
X10730710Y-11044491D01*
X10730710Y-11014491D02*
X10700710Y-11044491D01*
X10750710Y-9014491D02*
X10780710Y-9044491D01*
X10780710Y-9014491D02*
X10750710Y-9044491D01*
X10750710Y-9114491D02*
X10780710Y-9144491D01*
X10780710Y-9114491D02*
X10750710Y-9144491D01*
X10750710Y-9214491D02*
X10780710Y-9244491D01*
X10780710Y-9214491D02*
X10750710Y-9244491D01*
X10750710Y-9314491D02*
X10780710Y-9344491D01*
X10780710Y-9314491D02*
X10750710Y-9344491D01*
X10750710Y-9414491D02*
X10780710Y-9444491D01*
X10780710Y-9414491D02*
X10750710Y-9444491D01*
X10750710Y-9514491D02*
X10780710Y-9544491D01*
X10780710Y-9514491D02*
X10750710Y-9544491D01*
X10750710Y-9614491D02*
X10780710Y-9644491D01*
X10780710Y-9614491D02*
X10750710Y-9644491D01*
X10750710Y-9714491D02*
X10780710Y-9744491D01*
X10780710Y-9714491D02*
X10750710Y-9744491D01*
X10750710Y-9814491D02*
X10780710Y-9844491D01*
X10780710Y-9814491D02*
X10750710Y-9844491D01*
X10750710Y-9914491D02*
X10780710Y-9944491D01*
X10780710Y-9914491D02*
X10750710Y-9944491D01*
X10750710Y-10014491D02*
X10780710Y-10044491D01*
X10780710Y-10014491D02*
X10750710Y-10044491D01*
X10750710Y-10114491D02*
X10780710Y-10144491D01*
X10780710Y-10114491D02*
X10750710Y-10144491D01*
X10750710Y-10214491D02*
X10780710Y-10244491D01*
X10780710Y-10214491D02*
X10750710Y-10244491D01*
X10750710Y-10314491D02*
X10780710Y-10344491D01*
X10780710Y-10314491D02*
X10750710Y-10344491D01*
X10785000Y-7735000D02*
X10815000Y-7765000D01*
X10815000Y-7735000D02*
X10785000Y-7765000D01*
X10785000Y-7835000D02*
X10815000Y-7865000D01*
X10815000Y-7835000D02*
X10785000Y-7865000D01*
X10785000Y-7935000D02*
X10815000Y-7965000D01*
X10815000Y-7935000D02*
X10785000Y-7965000D01*
X10785000Y-8035000D02*
X10815000Y-8065000D01*
X10815000Y-8035000D02*
X10785000Y-8065000D01*
X10785000Y-8135000D02*
X10815000Y-8165000D01*
X10815000Y-8135000D02*
X10785000Y-8165000D01*
X10785000Y-8235000D02*
X10815000Y-8265000D01*
X10815000Y-8235000D02*
X10785000Y-8265000D01*
X10785000Y-8335000D02*
X10815000Y-8365000D01*
X10815000Y-8335000D02*
X10785000Y-8365000D01*
X10785000Y-8435000D02*
X10815000Y-8465000D01*
X10815000Y-8435000D02*
X10785000Y-8465000D01*
X10785000Y-8535000D02*
X10815000Y-8565000D01*
X10815000Y-8535000D02*
X10785000Y-8565000D01*
X10800710Y-10914491D02*
X10830710Y-10944491D01*
X10830710Y-10914491D02*
X10800710Y-10944491D01*
X10800710Y-11014491D02*
X10830710Y-11044491D01*
X10830710Y-11014491D02*
X10800710Y-11044491D01*
X10850710Y-9214491D02*
X10880710Y-9244491D01*
X10880710Y-9214491D02*
X10850710Y-9244491D01*
X10850710Y-9314491D02*
X10880710Y-9344491D01*
X10880710Y-9314491D02*
X10850710Y-9344491D01*
X10850710Y-9414491D02*
X10880710Y-9444491D01*
X10880710Y-9414491D02*
X10850710Y-9444491D01*
X10850710Y-9514491D02*
X10880710Y-9544491D01*
X10880710Y-9514491D02*
X10850710Y-9544491D01*
X10850710Y-9614491D02*
X10880710Y-9644491D01*
X10880710Y-9614491D02*
X10850710Y-9644491D01*
X10850710Y-9714491D02*
X10880710Y-9744491D01*
X10880710Y-9714491D02*
X10850710Y-9744491D01*
X10850710Y-9814491D02*
X10880710Y-9844491D01*
X10880710Y-9814491D02*
X10850710Y-9844491D01*
X10850710Y-9914491D02*
X10880710Y-9944491D01*
X10880710Y-9914491D02*
X10850710Y-9944491D01*
X10850710Y-10014491D02*
X10880710Y-10044491D01*
X10880710Y-10014491D02*
X10850710Y-10044491D01*
X10850710Y-10114491D02*
X10880710Y-10144491D01*
X10880710Y-10114491D02*
X10850710Y-10144491D01*
X10850710Y-10214491D02*
X10880710Y-10244491D01*
X10880710Y-10214491D02*
X10850710Y-10244491D01*
X10850710Y-10314491D02*
X10880710Y-10344491D01*
X10880710Y-10314491D02*
X10850710Y-10344491D01*
X10885000Y-7635000D02*
X10915000Y-7665000D01*
X10915000Y-7635000D02*
X10885000Y-7665000D01*
X10885000Y-7735000D02*
X10915000Y-7765000D01*
X10915000Y-7735000D02*
X10885000Y-7765000D01*
X10885000Y-7835000D02*
X10915000Y-7865000D01*
X10915000Y-7835000D02*
X10885000Y-7865000D01*
X10885000Y-7935000D02*
X10915000Y-7965000D01*
X10915000Y-7935000D02*
X10885000Y-7965000D01*
X10885000Y-8035000D02*
X10915000Y-8065000D01*
X10915000Y-8035000D02*
X10885000Y-8065000D01*
X10885000Y-8135000D02*
X10915000Y-8165000D01*
X10915000Y-8135000D02*
X10885000Y-8165000D01*
X10885000Y-8235000D02*
X10915000Y-8265000D01*
X10915000Y-8235000D02*
X10885000Y-8265000D01*
X10885000Y-8335000D02*
X10915000Y-8365000D01*
X10915000Y-8335000D02*
X10885000Y-8365000D01*
X10885000Y-8435000D02*
X10915000Y-8465000D01*
X10915000Y-8435000D02*
X10885000Y-8465000D01*
X10885000Y-8535000D02*
X10915000Y-8565000D01*
X10915000Y-8535000D02*
X10885000Y-8565000D01*
X10900710Y-10914491D02*
X10930710Y-10944491D01*
X10930710Y-10914491D02*
X10900710Y-10944491D01*
X10900710Y-11014491D02*
X10930710Y-11044491D01*
X10930710Y-11014491D02*
X10900710Y-11044491D01*
X10950710Y-9214491D02*
X10980710Y-9244491D01*
X10980710Y-9214491D02*
X10950710Y-9244491D01*
X10950710Y-9314491D02*
X10980710Y-9344491D01*
X10980710Y-9314491D02*
X10950710Y-9344491D01*
X10950710Y-9414491D02*
X10980710Y-9444491D01*
X10980710Y-9414491D02*
X10950710Y-9444491D01*
X10950710Y-9514491D02*
X10980710Y-9544491D01*
X10980710Y-9514491D02*
X10950710Y-9544491D01*
X10950710Y-9614491D02*
X10980710Y-9644491D01*
X10980710Y-9614491D02*
X10950710Y-9644491D01*
X10950710Y-9714491D02*
X10980710Y-9744491D01*
X10980710Y-9714491D02*
X10950710Y-9744491D01*
X10950710Y-9814491D02*
X10980710Y-9844491D01*
X10980710Y-9814491D02*
X10950710Y-9844491D01*
X10950710Y-9914491D02*
X10980710Y-9944491D01*
X10980710Y-9914491D02*
X10950710Y-9944491D01*
X10950710Y-10014491D02*
X10980710Y-10044491D01*
X10980710Y-10014491D02*
X10950710Y-10044491D01*
X10950710Y-10114491D02*
X10980710Y-10144491D01*
X10980710Y-10114491D02*
X10950710Y-10144491D01*
X10950710Y-10214491D02*
X10980710Y-10244491D01*
X10980710Y-10214491D02*
X10950710Y-10244491D01*
X10950710Y-10314491D02*
X10980710Y-10344491D01*
X10980710Y-10314491D02*
X10950710Y-10344491D01*
X10985000Y-7635000D02*
X11015000Y-7665000D01*
X11015000Y-7635000D02*
X10985000Y-7665000D01*
X10985000Y-7735000D02*
X11015000Y-7765000D01*
X11015000Y-7735000D02*
X10985000Y-7765000D01*
X10985000Y-7835000D02*
X11015000Y-7865000D01*
X11015000Y-7835000D02*
X10985000Y-7865000D01*
X10985000Y-7935000D02*
X11015000Y-7965000D01*
X11015000Y-7935000D02*
X10985000Y-7965000D01*
X10985000Y-8035000D02*
X11015000Y-8065000D01*
X11015000Y-8035000D02*
X10985000Y-8065000D01*
X10985000Y-8135000D02*
X11015000Y-8165000D01*
X11015000Y-8135000D02*
X10985000Y-8165000D01*
X10985000Y-8235000D02*
X11015000Y-8265000D01*
X11015000Y-8235000D02*
X10985000Y-8265000D01*
X10985000Y-8335000D02*
X11015000Y-8365000D01*
X11015000Y-8335000D02*
X10985000Y-8365000D01*
X10985000Y-8435000D02*
X11015000Y-8465000D01*
X11015000Y-8435000D02*
X10985000Y-8465000D01*
X10985000Y-8535000D02*
X11015000Y-8565000D01*
X11015000Y-8535000D02*
X10985000Y-8565000D01*
X11000710Y-10914491D02*
X11030710Y-10944491D01*
X11030710Y-10914491D02*
X11000710Y-10944491D01*
X11000710Y-11014491D02*
X11030710Y-11044491D01*
X11030710Y-11014491D02*
X11000710Y-11044491D01*
X11000710Y-11114491D02*
X11030710Y-11144491D01*
X11030710Y-11114491D02*
X11000710Y-11144491D01*
X11050710Y-9214491D02*
X11080710Y-9244491D01*
X11080710Y-9214491D02*
X11050710Y-9244491D01*
X11050710Y-9314491D02*
X11080710Y-9344491D01*
X11080710Y-9314491D02*
X11050710Y-9344491D01*
X11050710Y-9412091D02*
X11080710Y-9442091D01*
X11080710Y-9412091D02*
X11050710Y-9442091D01*
X11050710Y-9514491D02*
X11080710Y-9544491D01*
X11080710Y-9514491D02*
X11050710Y-9544491D01*
X11050710Y-9614491D02*
X11080710Y-9644491D01*
X11080710Y-9614491D02*
X11050710Y-9644491D01*
X11050710Y-9714491D02*
X11080710Y-9744491D01*
X11080710Y-9714491D02*
X11050710Y-9744491D01*
X11050710Y-9814491D02*
X11080710Y-9844491D01*
X11080710Y-9814491D02*
X11050710Y-9844491D01*
X11050710Y-9914491D02*
X11080710Y-9944491D01*
X11080710Y-9914491D02*
X11050710Y-9944491D01*
X11050710Y-10014491D02*
X11080710Y-10044491D01*
X11080710Y-10014491D02*
X11050710Y-10044491D01*
X11050710Y-10114491D02*
X11080710Y-10144491D01*
X11080710Y-10114491D02*
X11050710Y-10144491D01*
X11050710Y-10214491D02*
X11080710Y-10244491D01*
X11080710Y-10214491D02*
X11050710Y-10244491D01*
X11050710Y-10314491D02*
X11080710Y-10344491D01*
X11080710Y-10314491D02*
X11050710Y-10344491D01*
X11085000Y-7735000D02*
X11115000Y-7765000D01*
X11115000Y-7735000D02*
X11085000Y-7765000D01*
X11085000Y-7835000D02*
X11115000Y-7865000D01*
X11115000Y-7835000D02*
X11085000Y-7865000D01*
X11085000Y-7935000D02*
X11115000Y-7965000D01*
X11115000Y-7935000D02*
X11085000Y-7965000D01*
X11085000Y-8035000D02*
X11115000Y-8065000D01*
X11115000Y-8035000D02*
X11085000Y-8065000D01*
X11085000Y-8135000D02*
X11115000Y-8165000D01*
X11115000Y-8135000D02*
X11085000Y-8165000D01*
X11085000Y-8235000D02*
X11115000Y-8265000D01*
X11115000Y-8235000D02*
X11085000Y-8265000D01*
X11085000Y-8335000D02*
X11115000Y-8365000D01*
X11115000Y-8335000D02*
X11085000Y-8365000D01*
X11085000Y-8435000D02*
X11115000Y-8465000D01*
X11115000Y-8435000D02*
X11085000Y-8465000D01*
X11085000Y-8535000D02*
X11115000Y-8565000D01*
X11115000Y-8535000D02*
X11085000Y-8565000D01*
X11100710Y-10914491D02*
X11130710Y-10944491D01*
X11130710Y-10914491D02*
X11100710Y-10944491D01*
X11100710Y-11014491D02*
X11130710Y-11044491D01*
X11130710Y-11014491D02*
X11100710Y-11044491D01*
X11100710Y-11114491D02*
X11130710Y-11144491D01*
X11130710Y-11114491D02*
X11100710Y-11144491D01*
X11100710Y-11214490D02*
X11130710Y-11244490D01*
X11130710Y-11214490D02*
X11100710Y-11244490D01*
X11150710Y-9214491D02*
X11180710Y-9244491D01*
X11180710Y-9214491D02*
X11150710Y-9244491D01*
X11150710Y-9314491D02*
X11180710Y-9344491D01*
X11180710Y-9314491D02*
X11150710Y-9344491D01*
X11150710Y-9414491D02*
X11180710Y-9444491D01*
X11180710Y-9414491D02*
X11150710Y-9444491D01*
X11150710Y-9514491D02*
X11180710Y-9544491D01*
X11180710Y-9514491D02*
X11150710Y-9544491D01*
X11150710Y-9614491D02*
X11180710Y-9644491D01*
X11180710Y-9614491D02*
X11150710Y-9644491D01*
X11150710Y-9714491D02*
X11180710Y-9744491D01*
X11180710Y-9714491D02*
X11150710Y-9744491D01*
X11150710Y-9814491D02*
X11180710Y-9844491D01*
X11180710Y-9814491D02*
X11150710Y-9844491D01*
X11150710Y-9914491D02*
X11180710Y-9944491D01*
X11180710Y-9914491D02*
X11150710Y-9944491D01*
X11150710Y-10014491D02*
X11180710Y-10044491D01*
X11180710Y-10014491D02*
X11150710Y-10044491D01*
X11150710Y-10114491D02*
X11180710Y-10144491D01*
X11180710Y-10114491D02*
X11150710Y-10144491D01*
X11150710Y-10214491D02*
X11180710Y-10244491D01*
X11180710Y-10214491D02*
X11150710Y-10244491D01*
X11150710Y-10314491D02*
X11180710Y-10344491D01*
X11180710Y-10314491D02*
X11150710Y-10344491D01*
X11200709Y-10914491D02*
X11230709Y-10944491D01*
X11230709Y-10914491D02*
X11200709Y-10944491D01*
X11200709Y-11014491D02*
X11230709Y-11044491D01*
X11230709Y-11014491D02*
X11200709Y-11044491D01*
X11200709Y-11114491D02*
X11230709Y-11144491D01*
X11230709Y-11114491D02*
X11200709Y-11144491D01*
X11200709Y-11214490D02*
X11230709Y-11244490D01*
X11230709Y-11214490D02*
X11200709Y-11244490D01*
X11300709Y-10914491D02*
X11330709Y-10944491D01*
X11330709Y-10914491D02*
X11300709Y-10944491D01*
X11300709Y-11014491D02*
X11330709Y-11044491D01*
X11330709Y-11014491D02*
X11300709Y-11044491D01*
X11300709Y-11114491D02*
X11330709Y-11144491D01*
X11330709Y-11114491D02*
X11300709Y-11144491D01*
X11300709Y-11214490D02*
X11330709Y-11244490D01*
X11330709Y-11214490D02*
X11300709Y-11244490D01*
X11300709Y-11314490D02*
X11330709Y-11344490D01*
X11330709Y-11314490D02*
X11300709Y-11344490D01*
X11300709Y-11414490D02*
X11330709Y-11444490D01*
X11330709Y-11414490D02*
X11300709Y-11444490D01*
X11400709Y-10914491D02*
X11430709Y-10944491D01*
X11430709Y-10914491D02*
X11400709Y-10944491D01*
X11400709Y-11014491D02*
X11430709Y-11044491D01*
X11430709Y-11014491D02*
X11400709Y-11044491D01*
X11400709Y-11114491D02*
X11430709Y-11144491D01*
X11430709Y-11114491D02*
X11400709Y-11144491D01*
X11400709Y-11214490D02*
X11430709Y-11244490D01*
X11430709Y-11214490D02*
X11400709Y-11244490D01*
X11400709Y-11314490D02*
X11430709Y-11344490D01*
X11430709Y-11314490D02*
X11400709Y-11344490D01*
X11400709Y-11414490D02*
X11430709Y-11444490D01*
X11430709Y-11414490D02*
X11400709Y-11444490D01*
X11500709Y-10614491D02*
X11530709Y-10644491D01*
X11530709Y-10614491D02*
X11500709Y-10644491D01*
X11500709Y-10714491D02*
X11530709Y-10744491D01*
X11530709Y-10714491D02*
X11500709Y-10744491D01*
X11500709Y-10814491D02*
X11530709Y-10844491D01*
X11530709Y-10814491D02*
X11500709Y-10844491D01*
X11500709Y-10914491D02*
X11530709Y-10944491D01*
X11530709Y-10914491D02*
X11500709Y-10944491D01*
X11500709Y-11014491D02*
X11530709Y-11044491D01*
X11530709Y-11014491D02*
X11500709Y-11044491D01*
X11500709Y-11114491D02*
X11530709Y-11144491D01*
X11530709Y-11114491D02*
X11500709Y-11144491D01*
X11500709Y-11214490D02*
X11530709Y-11244490D01*
X11530709Y-11214490D02*
X11500709Y-11244490D01*
X11500709Y-11314490D02*
X11530709Y-11344490D01*
X11530709Y-11314490D02*
X11500709Y-11344490D01*
X11500709Y-11414490D02*
X11530709Y-11444490D01*
X11530709Y-11414490D02*
X11500709Y-11444490D01*
X11600709Y-10614491D02*
X11630709Y-10644491D01*
X11630709Y-10614491D02*
X11600709Y-10644491D01*
X11600709Y-10714491D02*
X11630709Y-10744491D01*
X11630709Y-10714491D02*
X11600709Y-10744491D01*
X11600709Y-10814491D02*
X11630709Y-10844491D01*
X11630709Y-10814491D02*
X11600709Y-10844491D01*
X11600709Y-10914491D02*
X11630709Y-10944491D01*
X11630709Y-10914491D02*
X11600709Y-10944491D01*
X11600709Y-11014491D02*
X11630709Y-11044491D01*
X11630709Y-11014491D02*
X11600709Y-11044491D01*
X11600709Y-11114491D02*
X11630709Y-11144491D01*
X11630709Y-11114491D02*
X11600709Y-11144491D01*
X11600709Y-11214490D02*
X11630709Y-11244490D01*
X11630709Y-11214490D02*
X11600709Y-11244490D01*
X11600709Y-11314490D02*
X11630709Y-11344490D01*
X11630709Y-11314490D02*
X11600709Y-11344490D01*
X11600709Y-11414490D02*
X11630709Y-11444490D01*
X11630709Y-11414490D02*
X11600709Y-11444490D01*
X11700709Y-10614491D02*
X11730709Y-10644491D01*
X11730709Y-10614491D02*
X11700709Y-10644491D01*
X11700709Y-10714491D02*
X11730709Y-10744491D01*
X11730709Y-10714491D02*
X11700709Y-10744491D01*
X11700709Y-10814491D02*
X11730709Y-10844491D01*
X11730709Y-10814491D02*
X11700709Y-10844491D01*
X11700709Y-10914491D02*
X11730709Y-10944491D01*
X11730709Y-10914491D02*
X11700709Y-10944491D01*
X11700709Y-11014491D02*
X11730709Y-11044491D01*
X11730709Y-11014491D02*
X11700709Y-11044491D01*
X11700709Y-11114491D02*
X11730709Y-11144491D01*
X11730709Y-11114491D02*
X11700709Y-11144491D01*
X11700709Y-11214490D02*
X11730709Y-11244490D01*
X11730709Y-11214490D02*
X11700709Y-11244490D01*
X11700709Y-11314490D02*
X11730709Y-11344490D01*
X11730709Y-11314490D02*
X11700709Y-11344490D01*
X11700709Y-11414490D02*
X11730709Y-11444490D01*
X11730709Y-11414490D02*
X11700709Y-11444490D01*
X11800709Y-8764491D02*
X11830709Y-8794491D01*
X11830709Y-8764491D02*
X11800709Y-8794491D01*
X11800709Y-8864491D02*
X11830709Y-8894491D01*
X11830709Y-8864491D02*
X11800709Y-8894491D01*
X11800709Y-8964491D02*
X11830709Y-8994491D01*
X11830709Y-8964491D02*
X11800709Y-8994491D01*
X11800709Y-9064491D02*
X11830709Y-9094491D01*
X11830709Y-9064491D02*
X11800709Y-9094491D01*
X11800709Y-9164491D02*
X11830709Y-9194491D01*
X11830709Y-9164491D02*
X11800709Y-9194491D01*
X11800709Y-9264491D02*
X11830709Y-9294491D01*
X11830709Y-9264491D02*
X11800709Y-9294491D01*
X11800709Y-10214491D02*
X11830709Y-10244491D01*
X11830709Y-10214491D02*
X11800709Y-10244491D01*
X11800709Y-10314491D02*
X11830709Y-10344491D01*
X11830709Y-10314491D02*
X11800709Y-10344491D01*
X11800709Y-10414491D02*
X11830709Y-10444491D01*
X11830709Y-10414491D02*
X11800709Y-10444491D01*
X11800709Y-10514491D02*
X11830709Y-10544491D01*
X11830709Y-10514491D02*
X11800709Y-10544491D01*
X11800709Y-10614491D02*
X11830709Y-10644491D01*
X11830709Y-10614491D02*
X11800709Y-10644491D01*
X11800709Y-10714491D02*
X11830709Y-10744491D01*
X11830709Y-10714491D02*
X11800709Y-10744491D01*
X11800709Y-10814491D02*
X11830709Y-10844491D01*
X11830709Y-10814491D02*
X11800709Y-10844491D01*
X11800709Y-10914491D02*
X11830709Y-10944491D01*
X11830709Y-10914491D02*
X11800709Y-10944491D01*
X11800709Y-11014491D02*
X11830709Y-11044491D01*
X11830709Y-11014491D02*
X11800709Y-11044491D01*
X11800709Y-11114491D02*
X11830709Y-11144491D01*
X11830709Y-11114491D02*
X11800709Y-11144491D01*
X11800709Y-11214490D02*
X11830709Y-11244490D01*
X11830709Y-11214490D02*
X11800709Y-11244490D01*
X11800709Y-11314490D02*
X11830709Y-11344490D01*
X11830709Y-11314490D02*
X11800709Y-11344490D01*
X11800709Y-11414490D02*
X11830709Y-11444490D01*
X11830709Y-11414490D02*
X11800709Y-11444490D01*
X11900709Y-8764491D02*
X11930709Y-8794491D01*
X11930709Y-8764491D02*
X11900709Y-8794491D01*
X11900709Y-8864491D02*
X11930709Y-8894491D01*
X11930709Y-8864491D02*
X11900709Y-8894491D01*
X11900709Y-8964491D02*
X11930709Y-8994491D01*
X11930709Y-8964491D02*
X11900709Y-8994491D01*
X11900709Y-9064491D02*
X11930709Y-9094491D01*
X11930709Y-9064491D02*
X11900709Y-9094491D01*
X11900709Y-9164491D02*
X11930709Y-9194491D01*
X11930709Y-9164491D02*
X11900709Y-9194491D01*
X11900709Y-9264491D02*
X11930709Y-9294491D01*
X11930709Y-9264491D02*
X11900709Y-9294491D01*
X11900709Y-9364491D02*
X11930709Y-9394491D01*
X11930709Y-9364491D02*
X11900709Y-9394491D01*
X11900709Y-10214491D02*
X11930709Y-10244491D01*
X11930709Y-10214491D02*
X11900709Y-10244491D01*
X11900709Y-10314491D02*
X11930709Y-10344491D01*
X11930709Y-10314491D02*
X11900709Y-10344491D01*
X11900709Y-10414491D02*
X11930709Y-10444491D01*
X11930709Y-10414491D02*
X11900709Y-10444491D01*
X11900709Y-10514491D02*
X11930709Y-10544491D01*
X11930709Y-10514491D02*
X11900709Y-10544491D01*
X11900709Y-10614491D02*
X11930709Y-10644491D01*
X11930709Y-10614491D02*
X11900709Y-10644491D01*
X11900709Y-10714491D02*
X11930709Y-10744491D01*
X11930709Y-10714491D02*
X11900709Y-10744491D01*
X11900709Y-10814491D02*
X11930709Y-10844491D01*
X11930709Y-10814491D02*
X11900709Y-10844491D01*
X11900709Y-10914491D02*
X11930709Y-10944491D01*
X11930709Y-10914491D02*
X11900709Y-10944491D01*
X11900709Y-11014491D02*
X11930709Y-11044491D01*
X11930709Y-11014491D02*
X11900709Y-11044491D01*
X11900709Y-11114491D02*
X11930709Y-11144491D01*
X11930709Y-11114491D02*
X11900709Y-11144491D01*
X11900709Y-11214490D02*
X11930709Y-11244490D01*
X11930709Y-11214490D02*
X11900709Y-11244490D01*
X11900709Y-11314490D02*
X11930709Y-11344490D01*
X11930709Y-11314490D02*
X11900709Y-11344490D01*
X12000709Y-8764491D02*
X12030709Y-8794491D01*
X12030709Y-8764491D02*
X12000709Y-8794491D01*
X12000709Y-8864491D02*
X12030709Y-8894491D01*
X12030709Y-8864491D02*
X12000709Y-8894491D01*
X12000709Y-8964491D02*
X12030709Y-8994491D01*
X12030709Y-8964491D02*
X12000709Y-8994491D01*
X12000709Y-9064491D02*
X12030709Y-9094491D01*
X12030709Y-9064491D02*
X12000709Y-9094491D01*
X12000709Y-9164491D02*
X12030709Y-9194491D01*
X12030709Y-9164491D02*
X12000709Y-9194491D01*
X12000709Y-9264491D02*
X12030709Y-9294491D01*
X12030709Y-9264491D02*
X12000709Y-9294491D01*
X12000709Y-9364491D02*
X12030709Y-9394491D01*
X12030709Y-9364491D02*
X12000709Y-9394491D01*
X12000709Y-10214491D02*
X12030709Y-10244491D01*
X12030709Y-10214491D02*
X12000709Y-10244491D01*
X12000709Y-10314491D02*
X12030709Y-10344491D01*
X12030709Y-10314491D02*
X12000709Y-10344491D01*
X12000709Y-10414491D02*
X12030709Y-10444491D01*
X12030709Y-10414491D02*
X12000709Y-10444491D01*
X12000709Y-10514491D02*
X12030709Y-10544491D01*
X12030709Y-10514491D02*
X12000709Y-10544491D01*
X12000709Y-10614491D02*
X12030709Y-10644491D01*
X12030709Y-10614491D02*
X12000709Y-10644491D01*
X12000709Y-10714491D02*
X12030709Y-10744491D01*
X12030709Y-10714491D02*
X12000709Y-10744491D01*
X12000709Y-10814491D02*
X12030709Y-10844491D01*
X12030709Y-10814491D02*
X12000709Y-10844491D01*
X12000709Y-10914491D02*
X12030709Y-10944491D01*
X12030709Y-10914491D02*
X12000709Y-10944491D01*
X12000709Y-11014491D02*
X12030709Y-11044491D01*
X12030709Y-11014491D02*
X12000709Y-11044491D01*
X12000709Y-11114491D02*
X12030709Y-11144491D01*
X12030709Y-11114491D02*
X12000709Y-11144491D01*
X12035000Y-7335000D02*
X12065000Y-7365000D01*
X12065000Y-7335000D02*
X12035000Y-7365000D01*
X12035000Y-7685000D02*
X12065000Y-7715000D01*
X12065000Y-7685000D02*
X12035000Y-7715000D01*
X12035000Y-7785000D02*
X12065000Y-7815000D01*
X12065000Y-7785000D02*
X12035000Y-7815000D01*
X12100709Y-8764491D02*
X12130709Y-8794491D01*
X12130709Y-8764491D02*
X12100709Y-8794491D01*
X12100709Y-8864491D02*
X12130709Y-8894491D01*
X12130709Y-8864491D02*
X12100709Y-8894491D01*
X12100709Y-9164491D02*
X12130709Y-9194491D01*
X12130709Y-9164491D02*
X12100709Y-9194491D01*
X12100709Y-9264491D02*
X12130709Y-9294491D01*
X12130709Y-9264491D02*
X12100709Y-9294491D01*
X12100709Y-9364491D02*
X12130709Y-9394491D01*
X12130709Y-9364491D02*
X12100709Y-9394491D01*
X12100709Y-10614491D02*
X12130709Y-10644491D01*
X12130709Y-10614491D02*
X12100709Y-10644491D01*
X12100709Y-10714491D02*
X12130709Y-10744491D01*
X12130709Y-10714491D02*
X12100709Y-10744491D01*
X12100709Y-10814491D02*
X12130709Y-10844491D01*
X12130709Y-10814491D02*
X12100709Y-10844491D01*
X12100709Y-10914491D02*
X12130709Y-10944491D01*
X12130709Y-10914491D02*
X12100709Y-10944491D01*
X12100709Y-11014491D02*
X12130709Y-11044491D01*
X12130709Y-11014491D02*
X12100709Y-11044491D01*
X12100709Y-11114491D02*
X12130709Y-11144491D01*
X12130709Y-11114491D02*
X12100709Y-11144491D01*
X12135000Y-7335000D02*
X12165000Y-7365000D01*
X12165000Y-7335000D02*
X12135000Y-7365000D01*
X12135000Y-7435000D02*
X12165000Y-7465000D01*
X12165000Y-7435000D02*
X12135000Y-7465000D01*
X12135000Y-7685000D02*
X12165000Y-7715000D01*
X12165000Y-7685000D02*
X12135000Y-7715000D01*
X12135000Y-7785000D02*
X12165000Y-7815000D01*
X12165000Y-7785000D02*
X12135000Y-7815000D01*
X12135000Y-7885000D02*
X12165000Y-7915000D01*
X12165000Y-7885000D02*
X12135000Y-7915000D01*
X12200709Y-8764491D02*
X12230709Y-8794491D01*
X12230709Y-8764491D02*
X12200709Y-8794491D01*
X12200709Y-8864491D02*
X12230709Y-8894491D01*
X12230709Y-8864491D02*
X12200709Y-8894491D01*
X12200709Y-9164491D02*
X12230709Y-9194491D01*
X12230709Y-9164491D02*
X12200709Y-9194491D01*
X12200709Y-9264491D02*
X12230709Y-9294491D01*
X12230709Y-9264491D02*
X12200709Y-9294491D01*
X12200709Y-9364491D02*
X12230709Y-9394491D01*
X12230709Y-9364491D02*
X12200709Y-9394491D01*
X12200709Y-10614491D02*
X12230709Y-10644491D01*
X12230709Y-10614491D02*
X12200709Y-10644491D01*
X12200709Y-10714491D02*
X12230709Y-10744491D01*
X12230709Y-10714491D02*
X12200709Y-10744491D01*
X12200709Y-10814491D02*
X12230709Y-10844491D01*
X12230709Y-10814491D02*
X12200709Y-10844491D01*
X12200709Y-10914491D02*
X12230709Y-10944491D01*
X12230709Y-10914491D02*
X12200709Y-10944491D01*
X12200709Y-11014491D02*
X12230709Y-11044491D01*
X12230709Y-11014491D02*
X12200709Y-11044491D01*
X12200709Y-11114491D02*
X12230709Y-11144491D01*
X12230709Y-11114491D02*
X12200709Y-11144491D01*
X12235000Y-7335000D02*
X12265000Y-7365000D01*
X12265000Y-7335000D02*
X12235000Y-7365000D01*
X12235000Y-7435000D02*
X12265000Y-7465000D01*
X12265000Y-7435000D02*
X12235000Y-7465000D01*
X12235000Y-7685000D02*
X12265000Y-7715000D01*
X12265000Y-7685000D02*
X12235000Y-7715000D01*
X12235000Y-7785000D02*
X12265000Y-7815000D01*
X12265000Y-7785000D02*
X12235000Y-7815000D01*
X12235000Y-7885000D02*
X12265000Y-7915000D01*
X12265000Y-7885000D02*
X12235000Y-7915000D01*
X12300709Y-8764491D02*
X12330709Y-8794491D01*
X12330709Y-8764491D02*
X12300709Y-8794491D01*
X12300709Y-8864491D02*
X12330709Y-8894491D01*
X12330709Y-8864491D02*
X12300709Y-8894491D01*
X12300709Y-8964491D02*
X12330709Y-8994491D01*
X12330709Y-8964491D02*
X12300709Y-8994491D01*
X12300709Y-9064491D02*
X12330709Y-9094491D01*
X12330709Y-9064491D02*
X12300709Y-9094491D01*
X12300709Y-9164491D02*
X12330709Y-9194491D01*
X12330709Y-9164491D02*
X12300709Y-9194491D01*
X12300709Y-9264491D02*
X12330709Y-9294491D01*
X12330709Y-9264491D02*
X12300709Y-9294491D01*
X12300709Y-9364491D02*
X12330709Y-9394491D01*
X12330709Y-9364491D02*
X12300709Y-9394491D01*
X12335000Y-7335000D02*
X12365000Y-7365000D01*
X12365000Y-7335000D02*
X12335000Y-7365000D01*
X12335000Y-7685000D02*
X12365000Y-7715000D01*
X12365000Y-7685000D02*
X12335000Y-7715000D01*
X12335000Y-7785000D02*
X12365000Y-7815000D01*
X12365000Y-7785000D02*
X12335000Y-7815000D01*
X12335000Y-7885000D02*
X12365000Y-7915000D01*
X12365000Y-7885000D02*
X12335000Y-7915000D01*
X12435000Y-7335000D02*
X12465000Y-7365000D01*
X12465000Y-7335000D02*
X12435000Y-7365000D01*
X12435000Y-7435000D02*
X12465000Y-7465000D01*
X12465000Y-7435000D02*
X12435000Y-7465000D01*
X12435000Y-7685000D02*
X12465000Y-7715000D01*
X12465000Y-7685000D02*
X12435000Y-7715000D01*
X12435000Y-7785000D02*
X12465000Y-7815000D01*
X12465000Y-7785000D02*
X12435000Y-7815000D01*
X12435000Y-7885000D02*
X12465000Y-7915000D01*
X12465000Y-7885000D02*
X12435000Y-7915000D01*
X12435000Y-7985000D02*
X12465000Y-8015000D01*
X12465000Y-7985000D02*
X12435000Y-8015000D01*
X12535000Y-7335000D02*
X12565000Y-7365000D01*
X12565000Y-7335000D02*
X12535000Y-7365000D01*
X12535000Y-7435000D02*
X12565000Y-7465000D01*
X12565000Y-7435000D02*
X12535000Y-7465000D01*
X12535000Y-7535000D02*
X12565000Y-7565000D01*
X12565000Y-7535000D02*
X12535000Y-7565000D01*
X12535000Y-7685000D02*
X12565000Y-7715000D01*
X12565000Y-7685000D02*
X12535000Y-7715000D01*
X12535000Y-7785000D02*
X12565000Y-7815000D01*
X12565000Y-7785000D02*
X12535000Y-7815000D01*
X12535000Y-7885000D02*
X12565000Y-7915000D01*
X12565000Y-7885000D02*
X12535000Y-7915000D01*
X12535000Y-7985000D02*
X12565000Y-8015000D01*
X12565000Y-7985000D02*
X12535000Y-8015000D01*
X12535000Y-8835000D02*
X12565000Y-8865000D01*
X12565000Y-8835000D02*
X12535000Y-8865000D01*
X12650709Y-11064491D02*
X12680709Y-11094491D01*
X12680709Y-11064491D02*
X12650709Y-11094491D01*
X12650709Y-11164491D02*
X12680709Y-11194490D01*
X12680709Y-11164491D02*
X12650709Y-11194490D01*
X12650709Y-11264490D02*
X12680709Y-11294490D01*
X12680709Y-11264490D02*
X12650709Y-11294490D01*
X12650709Y-11364490D02*
X12680709Y-11394490D01*
X12680709Y-11364490D02*
X12650709Y-11394490D01*
X12650709Y-11464490D02*
X12680709Y-11494490D01*
X12680709Y-11464490D02*
X12650709Y-11494490D01*
X12650709Y-11564490D02*
X12680709Y-11594490D01*
X12680709Y-11564490D02*
X12650709Y-11594490D01*
X12650709Y-11664490D02*
X12680709Y-11694490D01*
X12680709Y-11664490D02*
X12650709Y-11694490D01*
X12650709Y-11764490D02*
X12680709Y-11794490D01*
X12680709Y-11764490D02*
X12650709Y-11794490D01*
X12750709Y-10014491D02*
X12780709Y-10044491D01*
X12780709Y-10014491D02*
X12750709Y-10044491D01*
X12750709Y-11064491D02*
X12780709Y-11094491D01*
X12780709Y-11064491D02*
X12750709Y-11094491D01*
X12750709Y-11164491D02*
X12780709Y-11194490D01*
X12780709Y-11164491D02*
X12750709Y-11194490D01*
X12750709Y-11264490D02*
X12780709Y-11294490D01*
X12780709Y-11264490D02*
X12750709Y-11294490D01*
X12750709Y-11364490D02*
X12780709Y-11394490D01*
X12780709Y-11364490D02*
X12750709Y-11394490D01*
X12750709Y-11464490D02*
X12780709Y-11494490D01*
X12780709Y-11464490D02*
X12750709Y-11494490D01*
X12750709Y-11564490D02*
X12780709Y-11594490D01*
X12780709Y-11564490D02*
X12750709Y-11594490D01*
X12750709Y-11664490D02*
X12780709Y-11694490D01*
X12780709Y-11664490D02*
X12750709Y-11694490D01*
X12750709Y-11764490D02*
X12780709Y-11794490D01*
X12780709Y-11764490D02*
X12750709Y-11794490D01*
X12800709Y-9964491D02*
X12830709Y-9994491D01*
X12830709Y-9964491D02*
X12800709Y-9994491D01*
X12800709Y-10064491D02*
X12830709Y-10094491D01*
X12830709Y-10064491D02*
X12800709Y-10094491D01*
X12850709Y-10014491D02*
X12880709Y-10044491D01*
X12880709Y-10014491D02*
X12850709Y-10044491D01*
X12850709Y-10214491D02*
X12880709Y-10244491D01*
X12880709Y-10214491D02*
X12850709Y-10244491D01*
X12850709Y-10314491D02*
X12880709Y-10344491D01*
X12880709Y-10314491D02*
X12850709Y-10344491D01*
X12850709Y-11564490D02*
X12880709Y-11594490D01*
X12880709Y-11564490D02*
X12850709Y-11594490D01*
X12850709Y-11664490D02*
X12880709Y-11694490D01*
X12880709Y-11664490D02*
X12850709Y-11694490D01*
X12850709Y-11764490D02*
X12880709Y-11794490D01*
X12880709Y-11764490D02*
X12850709Y-11794490D01*
X12900709Y-10114491D02*
X12930709Y-10144491D01*
X12930709Y-10114491D02*
X12900709Y-10144491D01*
X12985000Y-7685000D02*
X13015000Y-7715000D01*
X13015000Y-7685000D02*
X12985000Y-7715000D01*
X13000709Y-10114491D02*
X13030709Y-10144491D01*
X13030709Y-10114491D02*
X13000709Y-10144491D01*
X13000709Y-10464491D02*
X13030709Y-10494491D01*
X13030709Y-10464491D02*
X13000709Y-10494491D01*
X13000709Y-10614491D02*
X13030709Y-10644491D01*
X13030709Y-10614491D02*
X13000709Y-10644491D01*
X13085000Y-7685000D02*
X13115000Y-7715000D01*
X13115000Y-7685000D02*
X13085000Y-7715000D01*
X13185000Y-7685000D02*
X13215000Y-7715000D01*
X13215000Y-7685000D02*
X13185000Y-7715000D01*
X13185000Y-12185000D02*
X13215000Y-12215000D01*
X13215000Y-12185000D02*
X13185000Y-12215000D01*
X13250709Y-8814491D02*
X13280709Y-8844491D01*
X13280709Y-8814491D02*
X13250709Y-8844491D01*
X13250709Y-8964491D02*
X13280709Y-8994491D01*
X13280709Y-8964491D02*
X13250709Y-8994491D01*
X13250709Y-9114491D02*
X13280709Y-9144491D01*
X13280709Y-9114491D02*
X13250709Y-9144491D01*
X13250709Y-9264491D02*
X13280709Y-9294491D01*
X13280709Y-9264491D02*
X13250709Y-9294491D01*
X13250709Y-9414491D02*
X13280709Y-9444491D01*
X13280709Y-9414491D02*
X13250709Y-9444491D01*
X13250709Y-9564491D02*
X13280709Y-9594491D01*
X13280709Y-9564491D02*
X13250709Y-9594491D01*
X13250709Y-9714491D02*
X13280709Y-9744491D01*
X13280709Y-9714491D02*
X13250709Y-9744491D01*
X13250709Y-9864491D02*
X13280709Y-9894491D01*
X13280709Y-9864491D02*
X13250709Y-9894491D01*
X13250709Y-11614490D02*
X13280709Y-11644490D01*
X13280709Y-11614490D02*
X13250709Y-11644490D01*
X13250709Y-11714490D02*
X13280709Y-11744490D01*
X13280709Y-11714490D02*
X13250709Y-11744490D01*
X13285000Y-7685000D02*
X13315000Y-7715000D01*
X13315000Y-7685000D02*
X13285000Y-7715000D01*
X13285000Y-11985000D02*
X13315000Y-12015000D01*
X13315000Y-11985000D02*
X13285000Y-12015000D01*
X13285000Y-12085000D02*
X13315000Y-12115000D01*
X13315000Y-12085000D02*
X13285000Y-12115000D01*
X13285000Y-12185000D02*
X13315000Y-12215000D01*
X13315000Y-12185000D02*
X13285000Y-12215000D01*
X13350709Y-10314491D02*
X13380709Y-10344491D01*
X13380709Y-10314491D02*
X13350709Y-10344491D01*
X13350709Y-10464491D02*
X13380709Y-10494491D01*
X13380709Y-10464491D02*
X13350709Y-10494491D01*
X13350709Y-10614491D02*
X13380709Y-10644491D01*
X13380709Y-10614491D02*
X13350709Y-10644491D01*
X13350709Y-10764491D02*
X13380709Y-10794491D01*
X13380709Y-10764491D02*
X13350709Y-10794491D01*
X13350709Y-10864491D02*
X13380709Y-10894491D01*
X13380709Y-10864491D02*
X13350709Y-10894491D01*
X13350709Y-11014491D02*
X13380709Y-11044491D01*
X13380709Y-11014491D02*
X13350709Y-11044491D01*
X13385000Y-7685000D02*
X13415000Y-7715000D01*
X13415000Y-7685000D02*
X13385000Y-7715000D01*
X13385000Y-11985000D02*
X13415000Y-12015000D01*
X13415000Y-11985000D02*
X13385000Y-12015000D01*
X13385000Y-12085000D02*
X13415000Y-12115000D01*
X13415000Y-12085000D02*
X13385000Y-12115000D01*
X13385000Y-12185000D02*
X13415000Y-12215000D01*
X13415000Y-12185000D02*
X13385000Y-12215000D01*
X13485000Y-7685000D02*
X13515000Y-7715000D01*
X13515000Y-7685000D02*
X13485000Y-7715000D01*
X13585000Y-7685000D02*
X13615000Y-7715000D01*
X13615000Y-7685000D02*
X13585000Y-7715000D01*
X13685000Y-7685000D02*
X13715000Y-7715000D01*
X13715000Y-7685000D02*
X13685000Y-7715000D01*
X13785000Y-7685000D02*
X13815000Y-7715000D01*
X13815000Y-7685000D02*
X13785000Y-7715000D01*
X10343710Y-11429490D02*
G75*
G02*
X10263710Y-11429490I-40000J0D01*
G01*
X10263710Y-11429490D02*
G75*
G02*
X10343710Y-11429490I40000J0D01*
G01*
X10343710Y-11929490D02*
G75*
G02*
X10263710Y-11929490I-40000J0D01*
G01*
X10263710Y-11929490D02*
G75*
G02*
X10343710Y-11929490I40000J0D01*
G01*
X11105710Y-11429490D02*
G75*
G02*
X11025710Y-11429490I-40000J0D01*
G01*
X11025710Y-11429490D02*
G75*
G02*
X11105710Y-11429490I40000J0D01*
G01*
X11105710Y-11929490D02*
G75*
G02*
X11025710Y-11929490I-40000J0D01*
G01*
X11025710Y-11929490D02*
G75*
G02*
X11105710Y-11929490I40000J0D01*
G01*
X10561000Y-7505550D02*
X10561000Y-7594450D01*
X10516550Y-7550000D02*
X10605450Y-7550000D01*
X10815000Y-7505550D02*
X10815000Y-7594450D01*
X10770550Y-7550000D02*
X10859450Y-7550000D01*
X10868010Y-8982641D02*
X10868010Y-9071541D01*
X10823560Y-9027091D02*
X10912460Y-9027091D01*
X10868010Y-10432641D02*
X10868010Y-10521541D01*
X10823560Y-10477091D02*
X10912460Y-10477091D01*
X11069000Y-7505550D02*
X11069000Y-7594450D01*
X11024550Y-7550000D02*
X11113450Y-7550000D01*
X11122010Y-8982641D02*
X11122010Y-9071541D01*
X11077560Y-9027091D02*
X11166460Y-9027091D01*
X11122010Y-10432641D02*
X11122010Y-10521541D01*
X11077560Y-10477091D02*
X11166460Y-10477091D01*
X11577000Y-7505550D02*
X11577000Y-7594450D01*
X11532550Y-7550000D02*
X11621450Y-7550000D01*
X11630009Y-8982641D02*
X11630009Y-9071541D01*
X11585559Y-9027091D02*
X11674459Y-9027091D01*
X11630009Y-10432641D02*
X11630009Y-10521541D01*
X11585559Y-10477091D02*
X11674459Y-10477091D01*
X11831000Y-7505550D02*
X11831000Y-7594450D01*
X11786550Y-7550000D02*
X11875450Y-7550000D01*
X12085000Y-7505550D02*
X12085000Y-7594450D01*
X12040550Y-7550000D02*
X12129450Y-7550000D01*
X12138009Y-8982641D02*
X12138009Y-9071541D01*
X12093559Y-9027091D02*
X12182459Y-9027091D01*
X12138009Y-10432641D02*
X12138009Y-10521541D01*
X12093559Y-10477091D02*
X12182459Y-10477091D01*
X12339000Y-7505550D02*
X12339000Y-7594450D01*
X12294550Y-7550000D02*
X12383450Y-7550000D01*
X9821065Y-9389846D02*
X9821065Y-9319135D01*
X9750354Y-9319135D01*
X9750354Y-9389846D01*
X9821065Y-9389846D01*
X9821065Y-9639846D02*
X9821065Y-9569135D01*
X9750354Y-9569135D01*
X9750354Y-9639846D01*
X9821065Y-9639846D01*
X9821065Y-9889846D02*
X9821065Y-9819135D01*
X9750354Y-9819135D01*
X9750354Y-9889846D01*
X9821065Y-9889846D01*
X9821065Y-10139846D02*
X9821065Y-10069135D01*
X9750354Y-10069135D01*
X9750354Y-10139846D01*
X9821065Y-10139846D01*
X13754356Y-7969356D02*
X13754356Y-7898644D01*
X13683644Y-7898644D01*
X13683644Y-7969356D01*
X13754356Y-7969356D01*
X13754356Y-8223356D02*
X13754356Y-8152644D01*
X13683644Y-8152644D01*
X13683644Y-8223356D01*
X13754356Y-8223356D01*
X13754356Y-8477356D02*
X13754356Y-8406644D01*
X13683644Y-8406644D01*
X13683644Y-8477356D01*
X13754356Y-8477356D01*
X13754356Y-8731356D02*
X13754356Y-8660644D01*
X13683644Y-8660644D01*
X13683644Y-8731356D01*
X13754356Y-8731356D01*
X13754356Y-8985356D02*
X13754356Y-8914644D01*
X13683644Y-8914644D01*
X13683644Y-8985356D01*
X13754356Y-8985356D01*
X13754356Y-9239356D02*
X13754356Y-9168644D01*
X13683644Y-9168644D01*
X13683644Y-9239356D01*
X13754356Y-9239356D01*
X13754356Y-9493356D02*
X13754356Y-9422644D01*
X13683644Y-9422644D01*
X13683644Y-9493356D01*
X13754356Y-9493356D01*
X13754356Y-9747356D02*
X13754356Y-9676644D01*
X13683644Y-9676644D01*
X13683644Y-9747356D01*
X13754356Y-9747356D01*
X13754356Y-10001356D02*
X13754356Y-9930644D01*
X13683644Y-9930644D01*
X13683644Y-10001356D01*
X13754356Y-10001356D01*
X13754356Y-10255356D02*
X13754356Y-10184644D01*
X13683644Y-10184644D01*
X13683644Y-10255356D01*
X13754356Y-10255356D01*
X13754356Y-10509356D02*
X13754356Y-10438644D01*
X13683644Y-10438644D01*
X13683644Y-10509356D01*
X13754356Y-10509356D01*
X13754356Y-10763356D02*
X13754356Y-10692644D01*
X13683644Y-10692644D01*
X13683644Y-10763356D01*
X13754356Y-10763356D01*
X13754356Y-11017356D02*
X13754356Y-10946644D01*
X13683644Y-10946644D01*
X13683644Y-11017356D01*
X13754356Y-11017356D01*
X13754356Y-11271356D02*
X13754356Y-11200644D01*
X13683644Y-11200644D01*
X13683644Y-11271356D01*
X13754356Y-11271356D01*
X13754356Y-11525356D02*
X13754356Y-11454644D01*
X13683644Y-11454644D01*
X13683644Y-11525356D01*
X13754356Y-11525356D01*
X13754356Y-11779356D02*
X13754356Y-11708644D01*
X13683644Y-11708644D01*
X13683644Y-11779356D01*
X13754356Y-11779356D01*
X14008356Y-7969356D02*
X14008356Y-7898644D01*
X13937644Y-7898644D01*
X13937644Y-7969356D01*
X14008356Y-7969356D01*
X14008356Y-8223356D02*
X14008356Y-8152644D01*
X13937644Y-8152644D01*
X13937644Y-8223356D01*
X14008356Y-8223356D01*
X14008356Y-8477356D02*
X14008356Y-8406644D01*
X13937644Y-8406644D01*
X13937644Y-8477356D01*
X14008356Y-8477356D01*
X14008356Y-8731356D02*
X14008356Y-8660644D01*
X13937644Y-8660644D01*
X13937644Y-8731356D01*
X14008356Y-8731356D01*
X14008356Y-8985356D02*
X14008356Y-8914644D01*
X13937644Y-8914644D01*
X13937644Y-8985356D01*
X14008356Y-8985356D01*
X14008356Y-9239356D02*
X14008356Y-9168644D01*
X13937644Y-9168644D01*
X13937644Y-9239356D01*
X14008356Y-9239356D01*
X14008356Y-9493356D02*
X14008356Y-9422644D01*
X13937644Y-9422644D01*
X13937644Y-9493356D01*
X14008356Y-9493356D01*
X14008356Y-9747356D02*
X14008356Y-9676644D01*
X13937644Y-9676644D01*
X13937644Y-9747356D01*
X14008356Y-9747356D01*
X14008356Y-10001356D02*
X14008356Y-9930644D01*
X13937644Y-9930644D01*
X13937644Y-10001356D01*
X14008356Y-10001356D01*
X14008356Y-10255356D02*
X14008356Y-10184644D01*
X13937644Y-10184644D01*
X13937644Y-10255356D01*
X14008356Y-10255356D01*
X14008356Y-10509356D02*
X14008356Y-10438644D01*
X13937644Y-10438644D01*
X13937644Y-10509356D01*
X14008356Y-10509356D01*
X14008356Y-10763356D02*
X14008356Y-10692644D01*
X13937644Y-10692644D01*
X13937644Y-10763356D01*
X14008356Y-10763356D01*
X14008356Y-11017356D02*
X14008356Y-10946644D01*
X13937644Y-10946644D01*
X13937644Y-11017356D01*
X14008356Y-11017356D01*
X14008356Y-11271356D02*
X14008356Y-11200644D01*
X13937644Y-11200644D01*
X13937644Y-11271356D01*
X14008356Y-11271356D01*
X14008356Y-11525356D02*
X14008356Y-11454644D01*
X13937644Y-11454644D01*
X13937644Y-11525356D01*
X14008356Y-11525356D01*
X14008356Y-11779356D02*
X14008356Y-11708644D01*
X13937644Y-11708644D01*
X13937644Y-11779356D01*
X14008356Y-11779356D01*
X14262356Y-7969356D02*
X14262356Y-7898644D01*
X14191644Y-7898644D01*
X14191644Y-7969356D01*
X14262356Y-7969356D01*
X14262356Y-8223356D02*
X14262356Y-8152644D01*
X14191644Y-8152644D01*
X14191644Y-8223356D01*
X14262356Y-8223356D01*
X14262356Y-8477356D02*
X14262356Y-8406644D01*
X14191644Y-8406644D01*
X14191644Y-8477356D01*
X14262356Y-8477356D01*
X14262356Y-8731356D02*
X14262356Y-8660644D01*
X14191644Y-8660644D01*
X14191644Y-8731356D01*
X14262356Y-8731356D01*
X14262356Y-8985356D02*
X14262356Y-8914644D01*
X14191644Y-8914644D01*
X14191644Y-8985356D01*
X14262356Y-8985356D01*
X14262356Y-9239356D02*
X14262356Y-9168644D01*
X14191644Y-9168644D01*
X14191644Y-9239356D01*
X14262356Y-9239356D01*
X14262356Y-9493356D02*
X14262356Y-9422644D01*
X14191644Y-9422644D01*
X14191644Y-9493356D01*
X14262356Y-9493356D01*
X14262356Y-9747356D02*
X14262356Y-9676644D01*
X14191644Y-9676644D01*
X14191644Y-9747356D01*
X14262356Y-9747356D01*
X14262356Y-10001356D02*
X14262356Y-9930644D01*
X14191644Y-9930644D01*
X14191644Y-10001356D01*
X14262356Y-10001356D01*
X14262356Y-10255356D02*
X14262356Y-10184644D01*
X14191644Y-10184644D01*
X14191644Y-10255356D01*
X14262356Y-10255356D01*
X14262356Y-10509356D02*
X14262356Y-10438644D01*
X14191644Y-10438644D01*
X14191644Y-10509356D01*
X14262356Y-10509356D01*
X14262356Y-10763356D02*
X14262356Y-10692644D01*
X14191644Y-10692644D01*
X14191644Y-10763356D01*
X14262356Y-10763356D01*
X14262356Y-11017356D02*
X14262356Y-10946644D01*
X14191644Y-10946644D01*
X14191644Y-11017356D01*
X14262356Y-11017356D01*
X14262356Y-11271356D02*
X14262356Y-11200644D01*
X14191644Y-11200644D01*
X14191644Y-11271356D01*
X14262356Y-11271356D01*
X14262356Y-11525356D02*
X14262356Y-11454644D01*
X14191644Y-11454644D01*
X14191644Y-11525356D01*
X14262356Y-11525356D01*
X14262356Y-11779356D02*
X14262356Y-11708644D01*
X14191644Y-11708644D01*
X14191644Y-11779356D01*
X14262356Y-11779356D01*
X14516356Y-7969356D02*
X14516356Y-7898644D01*
X14445644Y-7898644D01*
X14445644Y-7969356D01*
X14516356Y-7969356D01*
X14516356Y-8223356D02*
X14516356Y-8152644D01*
X14445644Y-8152644D01*
X14445644Y-8223356D01*
X14516356Y-8223356D01*
X14516356Y-8477356D02*
X14516356Y-8406644D01*
X14445644Y-8406644D01*
X14445644Y-8477356D01*
X14516356Y-8477356D01*
X14516356Y-8731356D02*
X14516356Y-8660644D01*
X14445644Y-8660644D01*
X14445644Y-8731356D01*
X14516356Y-8731356D01*
X14516356Y-8985356D02*
X14516356Y-8914644D01*
X14445644Y-8914644D01*
X14445644Y-8985356D01*
X14516356Y-8985356D01*
X14516356Y-9239356D02*
X14516356Y-9168644D01*
X14445644Y-9168644D01*
X14445644Y-9239356D01*
X14516356Y-9239356D01*
X14516356Y-9493356D02*
X14516356Y-9422644D01*
X14445644Y-9422644D01*
X14445644Y-9493356D01*
X14516356Y-9493356D01*
X14516356Y-9747356D02*
X14516356Y-9676644D01*
X14445644Y-9676644D01*
X14445644Y-9747356D01*
X14516356Y-9747356D01*
X14516356Y-10001356D02*
X14516356Y-9930644D01*
X14445644Y-9930644D01*
X14445644Y-10001356D01*
X14516356Y-10001356D01*
X14516356Y-10255356D02*
X14516356Y-10184644D01*
X14445644Y-10184644D01*
X14445644Y-10255356D01*
X14516356Y-10255356D01*
X14516356Y-10509356D02*
X14516356Y-10438644D01*
X14445644Y-10438644D01*
X14445644Y-10509356D01*
X14516356Y-10509356D01*
X14516356Y-10763356D02*
X14516356Y-10692644D01*
X14445644Y-10692644D01*
X14445644Y-10763356D01*
X14516356Y-10763356D01*
X14516356Y-11017356D02*
X14516356Y-10946644D01*
X14445644Y-10946644D01*
X14445644Y-11017356D01*
X14516356Y-11017356D01*
X14516356Y-11271356D02*
X14516356Y-11200644D01*
X14445644Y-11200644D01*
X14445644Y-11271356D01*
X14516356Y-11271356D01*
X14516356Y-11525356D02*
X14516356Y-11454644D01*
X14445644Y-11454644D01*
X14445644Y-11525356D01*
X14516356Y-11525356D01*
X14516356Y-11779356D02*
X14516356Y-11708644D01*
X14445644Y-11708644D01*
X14445644Y-11779356D01*
X14516356Y-11779356D01*
D13*
X9365710Y-7439490D02*
X9525710Y-7279490D01*
X9365710Y-7119490D01*
X9205710Y-7279490D01*
X9365710Y-7439490D01*
X9365710Y-12439490D02*
X9525710Y-12279490D01*
X9365710Y-12119490D01*
X9205710Y-12279490D01*
X9365710Y-12439490D01*
X14365709Y-7439490D02*
X14525709Y-7279490D01*
X14365709Y-7119490D01*
X14205709Y-7279490D01*
X14365709Y-7439490D01*
X14365709Y-12439490D02*
X14525709Y-12279490D01*
X14365709Y-12119490D01*
X14205709Y-12279490D01*
X14365709Y-12439490D01*
D11*
X9123986Y-13093474D02*
X9123986Y-12893474D01*
X9123986Y-12893474D02*
X9171605Y-12893474D01*
X9171605Y-12893474D02*
X9200177Y-12902998D01*
X9200177Y-12902998D02*
X9219224Y-12922046D01*
X9219224Y-12922046D02*
X9228748Y-12941093D01*
X9228748Y-12941093D02*
X9238272Y-12979188D01*
X9238272Y-12979188D02*
X9238272Y-13007760D01*
X9238272Y-13007760D02*
X9228748Y-13045855D01*
X9228748Y-13045855D02*
X9219224Y-13064903D01*
X9219224Y-13064903D02*
X9200177Y-13083950D01*
X9200177Y-13083950D02*
X9171605Y-13093474D01*
X9171605Y-13093474D02*
X9123986Y-13093474D01*
X9323986Y-13093474D02*
X9323986Y-12960141D01*
X9323986Y-12998236D02*
X9333510Y-12979188D01*
X9333510Y-12979188D02*
X9343034Y-12969665D01*
X9343034Y-12969665D02*
X9362082Y-12960141D01*
X9362082Y-12960141D02*
X9381129Y-12960141D01*
X9447796Y-13093474D02*
X9447796Y-12960141D01*
X9447796Y-12893474D02*
X9438272Y-12902998D01*
X9438272Y-12902998D02*
X9447796Y-12912522D01*
X9447796Y-12912522D02*
X9457320Y-12902998D01*
X9457320Y-12902998D02*
X9447796Y-12893474D01*
X9447796Y-12893474D02*
X9447796Y-12912522D01*
X9571605Y-13093474D02*
X9552558Y-13083950D01*
X9552558Y-13083950D02*
X9543034Y-13064903D01*
X9543034Y-13064903D02*
X9543034Y-12893474D01*
X9676367Y-13093474D02*
X9657320Y-13083950D01*
X9657320Y-13083950D02*
X9647796Y-13064903D01*
X9647796Y-13064903D02*
X9647796Y-12893474D01*
X9904939Y-13093474D02*
X9904939Y-12893474D01*
X9904939Y-12893474D02*
X9971605Y-13036331D01*
X9971605Y-13036331D02*
X10038272Y-12893474D01*
X10038272Y-12893474D02*
X10038272Y-13093474D01*
X10219224Y-13093474D02*
X10219224Y-12988712D01*
X10219224Y-12988712D02*
X10209701Y-12969665D01*
X10209701Y-12969665D02*
X10190653Y-12960141D01*
X10190653Y-12960141D02*
X10152558Y-12960141D01*
X10152558Y-12960141D02*
X10133510Y-12969665D01*
X10219224Y-13083950D02*
X10200177Y-13093474D01*
X10200177Y-13093474D02*
X10152558Y-13093474D01*
X10152558Y-13093474D02*
X10133510Y-13083950D01*
X10133510Y-13083950D02*
X10123986Y-13064903D01*
X10123986Y-13064903D02*
X10123986Y-13045855D01*
X10123986Y-13045855D02*
X10133510Y-13026808D01*
X10133510Y-13026808D02*
X10152558Y-13017284D01*
X10152558Y-13017284D02*
X10200177Y-13017284D01*
X10200177Y-13017284D02*
X10219224Y-13007760D01*
X10314463Y-12960141D02*
X10314463Y-13160141D01*
X10314463Y-12969665D02*
X10333510Y-12960141D01*
X10333510Y-12960141D02*
X10371605Y-12960141D01*
X10371605Y-12960141D02*
X10390653Y-12969665D01*
X10390653Y-12969665D02*
X10400177Y-12979188D01*
X10400177Y-12979188D02*
X10409701Y-12998236D01*
X10409701Y-12998236D02*
X10409701Y-13055379D01*
X10409701Y-13055379D02*
X10400177Y-13074427D01*
X10400177Y-13074427D02*
X10390653Y-13083950D01*
X10390653Y-13083950D02*
X10371605Y-13093474D01*
X10371605Y-13093474D02*
X10333510Y-13093474D01*
X10333510Y-13093474D02*
X10314463Y-13083950D01*
X10495415Y-13074427D02*
X10504939Y-13083950D01*
X10504939Y-13083950D02*
X10495415Y-13093474D01*
X10495415Y-13093474D02*
X10485891Y-13083950D01*
X10485891Y-13083950D02*
X10495415Y-13074427D01*
X10495415Y-13074427D02*
X10495415Y-13093474D01*
X10495415Y-12969665D02*
X10504939Y-12979188D01*
X10504939Y-12979188D02*
X10495415Y-12988712D01*
X10495415Y-12988712D02*
X10485891Y-12979188D01*
X10485891Y-12979188D02*
X10495415Y-12969665D01*
X10495415Y-12969665D02*
X10495415Y-12988712D01*
D12*
X8833210Y-13406990D02*
X8863210Y-13436990D01*
X8863210Y-13406990D02*
X8833210Y-13436990D01*
D11*
X9162082Y-13313474D02*
X9181129Y-13313474D01*
X9181129Y-13313474D02*
X9200177Y-13322998D01*
X9200177Y-13322998D02*
X9209701Y-13332522D01*
X9209701Y-13332522D02*
X9219224Y-13351569D01*
X9219224Y-13351569D02*
X9228748Y-13389665D01*
X9228748Y-13389665D02*
X9228748Y-13437284D01*
X9228748Y-13437284D02*
X9219224Y-13475379D01*
X9219224Y-13475379D02*
X9209701Y-13494427D01*
X9209701Y-13494427D02*
X9200177Y-13503950D01*
X9200177Y-13503950D02*
X9181129Y-13513474D01*
X9181129Y-13513474D02*
X9162082Y-13513474D01*
X9162082Y-13513474D02*
X9143034Y-13503950D01*
X9143034Y-13503950D02*
X9133510Y-13494427D01*
X9133510Y-13494427D02*
X9123986Y-13475379D01*
X9123986Y-13475379D02*
X9114463Y-13437284D01*
X9114463Y-13437284D02*
X9114463Y-13389665D01*
X9114463Y-13389665D02*
X9123986Y-13351569D01*
X9123986Y-13351569D02*
X9133510Y-13332522D01*
X9133510Y-13332522D02*
X9143034Y-13322998D01*
X9143034Y-13322998D02*
X9162082Y-13313474D01*
X9314463Y-13494427D02*
X9323986Y-13503950D01*
X9323986Y-13503950D02*
X9314463Y-13513474D01*
X9314463Y-13513474D02*
X9304939Y-13503950D01*
X9304939Y-13503950D02*
X9314463Y-13494427D01*
X9314463Y-13494427D02*
X9314463Y-13513474D01*
X9390653Y-13313474D02*
X9514463Y-13313474D01*
X9514463Y-13313474D02*
X9447796Y-13389665D01*
X9447796Y-13389665D02*
X9476367Y-13389665D01*
X9476367Y-13389665D02*
X9495415Y-13399188D01*
X9495415Y-13399188D02*
X9504939Y-13408712D01*
X9504939Y-13408712D02*
X9514463Y-13427760D01*
X9514463Y-13427760D02*
X9514463Y-13475379D01*
X9514463Y-13475379D02*
X9504939Y-13494427D01*
X9504939Y-13494427D02*
X9495415Y-13503950D01*
X9495415Y-13503950D02*
X9476367Y-13513474D01*
X9476367Y-13513474D02*
X9419224Y-13513474D01*
X9419224Y-13513474D02*
X9400177Y-13503950D01*
X9400177Y-13503950D02*
X9390653Y-13494427D01*
X9638272Y-13313474D02*
X9657320Y-13313474D01*
X9657320Y-13313474D02*
X9676367Y-13322998D01*
X9676367Y-13322998D02*
X9685891Y-13332522D01*
X9685891Y-13332522D02*
X9695415Y-13351569D01*
X9695415Y-13351569D02*
X9704939Y-13389665D01*
X9704939Y-13389665D02*
X9704939Y-13437284D01*
X9704939Y-13437284D02*
X9695415Y-13475379D01*
X9695415Y-13475379D02*
X9685891Y-13494427D01*
X9685891Y-13494427D02*
X9676367Y-13503950D01*
X9676367Y-13503950D02*
X9657320Y-13513474D01*
X9657320Y-13513474D02*
X9638272Y-13513474D01*
X9638272Y-13513474D02*
X9619224Y-13503950D01*
X9619224Y-13503950D02*
X9609701Y-13494427D01*
X9609701Y-13494427D02*
X9600177Y-13475379D01*
X9600177Y-13475379D02*
X9590653Y-13437284D01*
X9590653Y-13437284D02*
X9590653Y-13389665D01*
X9590653Y-13389665D02*
X9600177Y-13351569D01*
X9600177Y-13351569D02*
X9609701Y-13332522D01*
X9609701Y-13332522D02*
X9619224Y-13322998D01*
X9619224Y-13322998D02*
X9638272Y-13313474D01*
X9828748Y-13313474D02*
X9847796Y-13313474D01*
X9847796Y-13313474D02*
X9866844Y-13322998D01*
X9866844Y-13322998D02*
X9876367Y-13332522D01*
X9876367Y-13332522D02*
X9885891Y-13351569D01*
X9885891Y-13351569D02*
X9895415Y-13389665D01*
X9895415Y-13389665D02*
X9895415Y-13437284D01*
X9895415Y-13437284D02*
X9885891Y-13475379D01*
X9885891Y-13475379D02*
X9876367Y-13494427D01*
X9876367Y-13494427D02*
X9866844Y-13503950D01*
X9866844Y-13503950D02*
X9847796Y-13513474D01*
X9847796Y-13513474D02*
X9828748Y-13513474D01*
X9828748Y-13513474D02*
X9809701Y-13503950D01*
X9809701Y-13503950D02*
X9800177Y-13494427D01*
X9800177Y-13494427D02*
X9790653Y-13475379D01*
X9790653Y-13475379D02*
X9781129Y-13437284D01*
X9781129Y-13437284D02*
X9781129Y-13389665D01*
X9781129Y-13389665D02*
X9790653Y-13351569D01*
X9790653Y-13351569D02*
X9800177Y-13332522D01*
X9800177Y-13332522D02*
X9809701Y-13322998D01*
X9809701Y-13322998D02*
X9828748Y-13313474D01*
X9981129Y-13513474D02*
X9981129Y-13380141D01*
X9981129Y-13399188D02*
X9990653Y-13389665D01*
X9990653Y-13389665D02*
X10009701Y-13380141D01*
X10009701Y-13380141D02*
X10038272Y-13380141D01*
X10038272Y-13380141D02*
X10057320Y-13389665D01*
X10057320Y-13389665D02*
X10066844Y-13408712D01*
X10066844Y-13408712D02*
X10066844Y-13513474D01*
X10066844Y-13408712D02*
X10076367Y-13389665D01*
X10076367Y-13389665D02*
X10095415Y-13380141D01*
X10095415Y-13380141D02*
X10123986Y-13380141D01*
X10123986Y-13380141D02*
X10143034Y-13389665D01*
X10143034Y-13389665D02*
X10152558Y-13408712D01*
X10152558Y-13408712D02*
X10152558Y-13513474D01*
X10247796Y-13513474D02*
X10247796Y-13380141D01*
X10247796Y-13399188D02*
X10257320Y-13389665D01*
X10257320Y-13389665D02*
X10276367Y-13380141D01*
X10276367Y-13380141D02*
X10304939Y-13380141D01*
X10304939Y-13380141D02*
X10323986Y-13389665D01*
X10323986Y-13389665D02*
X10333510Y-13408712D01*
X10333510Y-13408712D02*
X10333510Y-13513474D01*
X10333510Y-13408712D02*
X10343034Y-13389665D01*
X10343034Y-13389665D02*
X10362082Y-13380141D01*
X10362082Y-13380141D02*
X10390653Y-13380141D01*
X10390653Y-13380141D02*
X10409701Y-13389665D01*
X10409701Y-13389665D02*
X10419225Y-13408712D01*
X10419225Y-13408712D02*
X10419225Y-13513474D01*
X10809701Y-13303950D02*
X10638272Y-13561093D01*
X11066844Y-13313474D02*
X11085891Y-13313474D01*
X11085891Y-13313474D02*
X11104939Y-13322998D01*
X11104939Y-13322998D02*
X11114463Y-13332522D01*
X11114463Y-13332522D02*
X11123987Y-13351569D01*
X11123987Y-13351569D02*
X11133510Y-13389665D01*
X11133510Y-13389665D02*
X11133510Y-13437284D01*
X11133510Y-13437284D02*
X11123987Y-13475379D01*
X11123987Y-13475379D02*
X11114463Y-13494427D01*
X11114463Y-13494427D02*
X11104939Y-13503950D01*
X11104939Y-13503950D02*
X11085891Y-13513474D01*
X11085891Y-13513474D02*
X11066844Y-13513474D01*
X11066844Y-13513474D02*
X11047796Y-13503950D01*
X11047796Y-13503950D02*
X11038272Y-13494427D01*
X11038272Y-13494427D02*
X11028748Y-13475379D01*
X11028748Y-13475379D02*
X11019225Y-13437284D01*
X11019225Y-13437284D02*
X11019225Y-13389665D01*
X11019225Y-13389665D02*
X11028748Y-13351569D01*
X11028748Y-13351569D02*
X11038272Y-13332522D01*
X11038272Y-13332522D02*
X11047796Y-13322998D01*
X11047796Y-13322998D02*
X11066844Y-13313474D01*
X11219225Y-13494427D02*
X11228748Y-13503950D01*
X11228748Y-13503950D02*
X11219225Y-13513474D01*
X11219225Y-13513474D02*
X11209701Y-13503950D01*
X11209701Y-13503950D02*
X11219225Y-13494427D01*
X11219225Y-13494427D02*
X11219225Y-13513474D01*
X11352558Y-13313474D02*
X11371606Y-13313474D01*
X11371606Y-13313474D02*
X11390653Y-13322998D01*
X11390653Y-13322998D02*
X11400177Y-13332522D01*
X11400177Y-13332522D02*
X11409701Y-13351569D01*
X11409701Y-13351569D02*
X11419225Y-13389665D01*
X11419225Y-13389665D02*
X11419225Y-13437284D01*
X11419225Y-13437284D02*
X11409701Y-13475379D01*
X11409701Y-13475379D02*
X11400177Y-13494427D01*
X11400177Y-13494427D02*
X11390653Y-13503950D01*
X11390653Y-13503950D02*
X11371606Y-13513474D01*
X11371606Y-13513474D02*
X11352558Y-13513474D01*
X11352558Y-13513474D02*
X11333510Y-13503950D01*
X11333510Y-13503950D02*
X11323986Y-13494427D01*
X11323986Y-13494427D02*
X11314463Y-13475379D01*
X11314463Y-13475379D02*
X11304939Y-13437284D01*
X11304939Y-13437284D02*
X11304939Y-13389665D01*
X11304939Y-13389665D02*
X11314463Y-13351569D01*
X11314463Y-13351569D02*
X11323986Y-13332522D01*
X11323986Y-13332522D02*
X11333510Y-13322998D01*
X11333510Y-13322998D02*
X11352558Y-13313474D01*
X11609701Y-13513474D02*
X11495415Y-13513474D01*
X11552558Y-13513474D02*
X11552558Y-13313474D01*
X11552558Y-13313474D02*
X11533510Y-13342046D01*
X11533510Y-13342046D02*
X11514463Y-13361093D01*
X11514463Y-13361093D02*
X11495415Y-13370617D01*
X11800177Y-13513474D02*
X11685891Y-13513474D01*
X11743034Y-13513474D02*
X11743034Y-13313474D01*
X11743034Y-13313474D02*
X11723986Y-13342046D01*
X11723986Y-13342046D02*
X11704939Y-13361093D01*
X11704939Y-13361093D02*
X11685891Y-13370617D01*
X11914463Y-13399188D02*
X11895415Y-13389665D01*
X11895415Y-13389665D02*
X11885891Y-13380141D01*
X11885891Y-13380141D02*
X11876367Y-13361093D01*
X11876367Y-13361093D02*
X11876367Y-13351569D01*
X11876367Y-13351569D02*
X11885891Y-13332522D01*
X11885891Y-13332522D02*
X11895415Y-13322998D01*
X11895415Y-13322998D02*
X11914463Y-13313474D01*
X11914463Y-13313474D02*
X11952558Y-13313474D01*
X11952558Y-13313474D02*
X11971606Y-13322998D01*
X11971606Y-13322998D02*
X11981129Y-13332522D01*
X11981129Y-13332522D02*
X11990653Y-13351569D01*
X11990653Y-13351569D02*
X11990653Y-13361093D01*
X11990653Y-13361093D02*
X11981129Y-13380141D01*
X11981129Y-13380141D02*
X11971606Y-13389665D01*
X11971606Y-13389665D02*
X11952558Y-13399188D01*
X11952558Y-13399188D02*
X11914463Y-13399188D01*
X11914463Y-13399188D02*
X11895415Y-13408712D01*
X11895415Y-13408712D02*
X11885891Y-13418236D01*
X11885891Y-13418236D02*
X11876367Y-13437284D01*
X11876367Y-13437284D02*
X11876367Y-13475379D01*
X11876367Y-13475379D02*
X11885891Y-13494427D01*
X11885891Y-13494427D02*
X11895415Y-13503950D01*
X11895415Y-13503950D02*
X11914463Y-13513474D01*
X11914463Y-13513474D02*
X11952558Y-13513474D01*
X11952558Y-13513474D02*
X11971606Y-13503950D01*
X11971606Y-13503950D02*
X11981129Y-13494427D01*
X11981129Y-13494427D02*
X11990653Y-13475379D01*
X11990653Y-13475379D02*
X11990653Y-13437284D01*
X11990653Y-13437284D02*
X11981129Y-13418236D01*
X11981129Y-13418236D02*
X11971606Y-13408712D01*
X11971606Y-13408712D02*
X11952558Y-13399188D01*
X12066844Y-13313474D02*
X12066844Y-13351569D01*
X12143034Y-13313474D02*
X12143034Y-13351569D01*
X12438272Y-13589665D02*
X12428748Y-13580141D01*
X12428748Y-13580141D02*
X12409701Y-13551569D01*
X12409701Y-13551569D02*
X12400177Y-13532522D01*
X12400177Y-13532522D02*
X12390653Y-13503950D01*
X12390653Y-13503950D02*
X12381129Y-13456331D01*
X12381129Y-13456331D02*
X12381129Y-13418236D01*
X12381129Y-13418236D02*
X12390653Y-13370617D01*
X12390653Y-13370617D02*
X12400177Y-13342046D01*
X12400177Y-13342046D02*
X12409701Y-13322998D01*
X12409701Y-13322998D02*
X12428748Y-13294427D01*
X12428748Y-13294427D02*
X12438272Y-13284903D01*
X12600177Y-13380141D02*
X12600177Y-13513474D01*
X12552558Y-13303950D02*
X12504939Y-13446808D01*
X12504939Y-13446808D02*
X12628748Y-13446808D01*
X12733510Y-13399188D02*
X12714463Y-13389665D01*
X12714463Y-13389665D02*
X12704939Y-13380141D01*
X12704939Y-13380141D02*
X12695415Y-13361093D01*
X12695415Y-13361093D02*
X12695415Y-13351569D01*
X12695415Y-13351569D02*
X12704939Y-13332522D01*
X12704939Y-13332522D02*
X12714463Y-13322998D01*
X12714463Y-13322998D02*
X12733510Y-13313474D01*
X12733510Y-13313474D02*
X12771606Y-13313474D01*
X12771606Y-13313474D02*
X12790653Y-13322998D01*
X12790653Y-13322998D02*
X12800177Y-13332522D01*
X12800177Y-13332522D02*
X12809701Y-13351569D01*
X12809701Y-13351569D02*
X12809701Y-13361093D01*
X12809701Y-13361093D02*
X12800177Y-13380141D01*
X12800177Y-13380141D02*
X12790653Y-13389665D01*
X12790653Y-13389665D02*
X12771606Y-13399188D01*
X12771606Y-13399188D02*
X12733510Y-13399188D01*
X12733510Y-13399188D02*
X12714463Y-13408712D01*
X12714463Y-13408712D02*
X12704939Y-13418236D01*
X12704939Y-13418236D02*
X12695415Y-13437284D01*
X12695415Y-13437284D02*
X12695415Y-13475379D01*
X12695415Y-13475379D02*
X12704939Y-13494427D01*
X12704939Y-13494427D02*
X12714463Y-13503950D01*
X12714463Y-13503950D02*
X12733510Y-13513474D01*
X12733510Y-13513474D02*
X12771606Y-13513474D01*
X12771606Y-13513474D02*
X12790653Y-13503950D01*
X12790653Y-13503950D02*
X12800177Y-13494427D01*
X12800177Y-13494427D02*
X12809701Y-13475379D01*
X12809701Y-13475379D02*
X12809701Y-13437284D01*
X12809701Y-13437284D02*
X12800177Y-13418236D01*
X12800177Y-13418236D02*
X12790653Y-13408712D01*
X12790653Y-13408712D02*
X12771606Y-13399188D01*
X13000177Y-13513474D02*
X12885891Y-13513474D01*
X12943034Y-13513474D02*
X12943034Y-13313474D01*
X12943034Y-13313474D02*
X12923987Y-13342046D01*
X12923987Y-13342046D02*
X12904939Y-13361093D01*
X12904939Y-13361093D02*
X12885891Y-13370617D01*
X13238272Y-13513474D02*
X13238272Y-13313474D01*
X13323987Y-13513474D02*
X13323987Y-13408712D01*
X13323987Y-13408712D02*
X13314463Y-13389665D01*
X13314463Y-13389665D02*
X13295415Y-13380141D01*
X13295415Y-13380141D02*
X13266844Y-13380141D01*
X13266844Y-13380141D02*
X13247796Y-13389665D01*
X13247796Y-13389665D02*
X13238272Y-13399188D01*
X13447796Y-13513474D02*
X13428749Y-13503950D01*
X13428749Y-13503950D02*
X13419225Y-13494427D01*
X13419225Y-13494427D02*
X13409701Y-13475379D01*
X13409701Y-13475379D02*
X13409701Y-13418236D01*
X13409701Y-13418236D02*
X13419225Y-13399188D01*
X13419225Y-13399188D02*
X13428749Y-13389665D01*
X13428749Y-13389665D02*
X13447796Y-13380141D01*
X13447796Y-13380141D02*
X13476368Y-13380141D01*
X13476368Y-13380141D02*
X13495415Y-13389665D01*
X13495415Y-13389665D02*
X13504939Y-13399188D01*
X13504939Y-13399188D02*
X13514463Y-13418236D01*
X13514463Y-13418236D02*
X13514463Y-13475379D01*
X13514463Y-13475379D02*
X13504939Y-13494427D01*
X13504939Y-13494427D02*
X13495415Y-13503950D01*
X13495415Y-13503950D02*
X13476368Y-13513474D01*
X13476368Y-13513474D02*
X13447796Y-13513474D01*
X13628749Y-13513474D02*
X13609701Y-13503950D01*
X13609701Y-13503950D02*
X13600177Y-13484903D01*
X13600177Y-13484903D02*
X13600177Y-13313474D01*
X13781130Y-13503950D02*
X13762082Y-13513474D01*
X13762082Y-13513474D02*
X13723987Y-13513474D01*
X13723987Y-13513474D02*
X13704939Y-13503950D01*
X13704939Y-13503950D02*
X13695415Y-13484903D01*
X13695415Y-13484903D02*
X13695415Y-13408712D01*
X13695415Y-13408712D02*
X13704939Y-13389665D01*
X13704939Y-13389665D02*
X13723987Y-13380141D01*
X13723987Y-13380141D02*
X13762082Y-13380141D01*
X13762082Y-13380141D02*
X13781130Y-13389665D01*
X13781130Y-13389665D02*
X13790653Y-13408712D01*
X13790653Y-13408712D02*
X13790653Y-13427760D01*
X13790653Y-13427760D02*
X13695415Y-13446808D01*
X13866844Y-13503950D02*
X13885891Y-13513474D01*
X13885891Y-13513474D02*
X13923987Y-13513474D01*
X13923987Y-13513474D02*
X13943034Y-13503950D01*
X13943034Y-13503950D02*
X13952558Y-13484903D01*
X13952558Y-13484903D02*
X13952558Y-13475379D01*
X13952558Y-13475379D02*
X13943034Y-13456331D01*
X13943034Y-13456331D02*
X13923987Y-13446808D01*
X13923987Y-13446808D02*
X13895415Y-13446808D01*
X13895415Y-13446808D02*
X13876368Y-13437284D01*
X13876368Y-13437284D02*
X13866844Y-13418236D01*
X13866844Y-13418236D02*
X13866844Y-13408712D01*
X13866844Y-13408712D02*
X13876368Y-13389665D01*
X13876368Y-13389665D02*
X13895415Y-13380141D01*
X13895415Y-13380141D02*
X13923987Y-13380141D01*
X13923987Y-13380141D02*
X13943034Y-13389665D01*
X14019225Y-13589665D02*
X14028749Y-13580141D01*
X14028749Y-13580141D02*
X14047796Y-13551569D01*
X14047796Y-13551569D02*
X14057320Y-13532522D01*
X14057320Y-13532522D02*
X14066844Y-13503950D01*
X14066844Y-13503950D02*
X14076368Y-13456331D01*
X14076368Y-13456331D02*
X14076368Y-13418236D01*
X14076368Y-13418236D02*
X14066844Y-13370617D01*
X14066844Y-13370617D02*
X14057320Y-13342046D01*
X14057320Y-13342046D02*
X14047796Y-13322998D01*
X14047796Y-13322998D02*
X14028749Y-13294427D01*
X14028749Y-13294427D02*
X14019225Y-13284903D01*
D12*
X8863210Y-13685990D02*
G75*
G02*
X8783210Y-13685990I-40000J0D01*
G01*
X8783210Y-13685990D02*
G75*
G02*
X8863210Y-13685990I40000J0D01*
G01*
D11*
X9162082Y-13577474D02*
X9181129Y-13577474D01*
X9181129Y-13577474D02*
X9200177Y-13586998D01*
X9200177Y-13586998D02*
X9209701Y-13596522D01*
X9209701Y-13596522D02*
X9219224Y-13615569D01*
X9219224Y-13615569D02*
X9228748Y-13653665D01*
X9228748Y-13653665D02*
X9228748Y-13701284D01*
X9228748Y-13701284D02*
X9219224Y-13739379D01*
X9219224Y-13739379D02*
X9209701Y-13758427D01*
X9209701Y-13758427D02*
X9200177Y-13767950D01*
X9200177Y-13767950D02*
X9181129Y-13777474D01*
X9181129Y-13777474D02*
X9162082Y-13777474D01*
X9162082Y-13777474D02*
X9143034Y-13767950D01*
X9143034Y-13767950D02*
X9133510Y-13758427D01*
X9133510Y-13758427D02*
X9123986Y-13739379D01*
X9123986Y-13739379D02*
X9114463Y-13701284D01*
X9114463Y-13701284D02*
X9114463Y-13653665D01*
X9114463Y-13653665D02*
X9123986Y-13615569D01*
X9123986Y-13615569D02*
X9133510Y-13596522D01*
X9133510Y-13596522D02*
X9143034Y-13586998D01*
X9143034Y-13586998D02*
X9162082Y-13577474D01*
X9314463Y-13758427D02*
X9323986Y-13767950D01*
X9323986Y-13767950D02*
X9314463Y-13777474D01*
X9314463Y-13777474D02*
X9304939Y-13767950D01*
X9304939Y-13767950D02*
X9314463Y-13758427D01*
X9314463Y-13758427D02*
X9314463Y-13777474D01*
X9438272Y-13663188D02*
X9419224Y-13653665D01*
X9419224Y-13653665D02*
X9409701Y-13644141D01*
X9409701Y-13644141D02*
X9400177Y-13625093D01*
X9400177Y-13625093D02*
X9400177Y-13615569D01*
X9400177Y-13615569D02*
X9409701Y-13596522D01*
X9409701Y-13596522D02*
X9419224Y-13586998D01*
X9419224Y-13586998D02*
X9438272Y-13577474D01*
X9438272Y-13577474D02*
X9476367Y-13577474D01*
X9476367Y-13577474D02*
X9495415Y-13586998D01*
X9495415Y-13586998D02*
X9504939Y-13596522D01*
X9504939Y-13596522D02*
X9514463Y-13615569D01*
X9514463Y-13615569D02*
X9514463Y-13625093D01*
X9514463Y-13625093D02*
X9504939Y-13644141D01*
X9504939Y-13644141D02*
X9495415Y-13653665D01*
X9495415Y-13653665D02*
X9476367Y-13663188D01*
X9476367Y-13663188D02*
X9438272Y-13663188D01*
X9438272Y-13663188D02*
X9419224Y-13672712D01*
X9419224Y-13672712D02*
X9409701Y-13682236D01*
X9409701Y-13682236D02*
X9400177Y-13701284D01*
X9400177Y-13701284D02*
X9400177Y-13739379D01*
X9400177Y-13739379D02*
X9409701Y-13758427D01*
X9409701Y-13758427D02*
X9419224Y-13767950D01*
X9419224Y-13767950D02*
X9438272Y-13777474D01*
X9438272Y-13777474D02*
X9476367Y-13777474D01*
X9476367Y-13777474D02*
X9495415Y-13767950D01*
X9495415Y-13767950D02*
X9504939Y-13758427D01*
X9504939Y-13758427D02*
X9514463Y-13739379D01*
X9514463Y-13739379D02*
X9514463Y-13701284D01*
X9514463Y-13701284D02*
X9504939Y-13682236D01*
X9504939Y-13682236D02*
X9495415Y-13672712D01*
X9495415Y-13672712D02*
X9476367Y-13663188D01*
X9638272Y-13577474D02*
X9657320Y-13577474D01*
X9657320Y-13577474D02*
X9676367Y-13586998D01*
X9676367Y-13586998D02*
X9685891Y-13596522D01*
X9685891Y-13596522D02*
X9695415Y-13615569D01*
X9695415Y-13615569D02*
X9704939Y-13653665D01*
X9704939Y-13653665D02*
X9704939Y-13701284D01*
X9704939Y-13701284D02*
X9695415Y-13739379D01*
X9695415Y-13739379D02*
X9685891Y-13758427D01*
X9685891Y-13758427D02*
X9676367Y-13767950D01*
X9676367Y-13767950D02*
X9657320Y-13777474D01*
X9657320Y-13777474D02*
X9638272Y-13777474D01*
X9638272Y-13777474D02*
X9619224Y-13767950D01*
X9619224Y-13767950D02*
X9609701Y-13758427D01*
X9609701Y-13758427D02*
X9600177Y-13739379D01*
X9600177Y-13739379D02*
X9590653Y-13701284D01*
X9590653Y-13701284D02*
X9590653Y-13653665D01*
X9590653Y-13653665D02*
X9600177Y-13615569D01*
X9600177Y-13615569D02*
X9609701Y-13596522D01*
X9609701Y-13596522D02*
X9619224Y-13586998D01*
X9619224Y-13586998D02*
X9638272Y-13577474D01*
X9828748Y-13577474D02*
X9847796Y-13577474D01*
X9847796Y-13577474D02*
X9866844Y-13586998D01*
X9866844Y-13586998D02*
X9876367Y-13596522D01*
X9876367Y-13596522D02*
X9885891Y-13615569D01*
X9885891Y-13615569D02*
X9895415Y-13653665D01*
X9895415Y-13653665D02*
X9895415Y-13701284D01*
X9895415Y-13701284D02*
X9885891Y-13739379D01*
X9885891Y-13739379D02*
X9876367Y-13758427D01*
X9876367Y-13758427D02*
X9866844Y-13767950D01*
X9866844Y-13767950D02*
X9847796Y-13777474D01*
X9847796Y-13777474D02*
X9828748Y-13777474D01*
X9828748Y-13777474D02*
X9809701Y-13767950D01*
X9809701Y-13767950D02*
X9800177Y-13758427D01*
X9800177Y-13758427D02*
X9790653Y-13739379D01*
X9790653Y-13739379D02*
X9781129Y-13701284D01*
X9781129Y-13701284D02*
X9781129Y-13653665D01*
X9781129Y-13653665D02*
X9790653Y-13615569D01*
X9790653Y-13615569D02*
X9800177Y-13596522D01*
X9800177Y-13596522D02*
X9809701Y-13586998D01*
X9809701Y-13586998D02*
X9828748Y-13577474D01*
X9981129Y-13777474D02*
X9981129Y-13644141D01*
X9981129Y-13663188D02*
X9990653Y-13653665D01*
X9990653Y-13653665D02*
X10009701Y-13644141D01*
X10009701Y-13644141D02*
X10038272Y-13644141D01*
X10038272Y-13644141D02*
X10057320Y-13653665D01*
X10057320Y-13653665D02*
X10066844Y-13672712D01*
X10066844Y-13672712D02*
X10066844Y-13777474D01*
X10066844Y-13672712D02*
X10076367Y-13653665D01*
X10076367Y-13653665D02*
X10095415Y-13644141D01*
X10095415Y-13644141D02*
X10123986Y-13644141D01*
X10123986Y-13644141D02*
X10143034Y-13653665D01*
X10143034Y-13653665D02*
X10152558Y-13672712D01*
X10152558Y-13672712D02*
X10152558Y-13777474D01*
X10247796Y-13777474D02*
X10247796Y-13644141D01*
X10247796Y-13663188D02*
X10257320Y-13653665D01*
X10257320Y-13653665D02*
X10276367Y-13644141D01*
X10276367Y-13644141D02*
X10304939Y-13644141D01*
X10304939Y-13644141D02*
X10323986Y-13653665D01*
X10323986Y-13653665D02*
X10333510Y-13672712D01*
X10333510Y-13672712D02*
X10333510Y-13777474D01*
X10333510Y-13672712D02*
X10343034Y-13653665D01*
X10343034Y-13653665D02*
X10362082Y-13644141D01*
X10362082Y-13644141D02*
X10390653Y-13644141D01*
X10390653Y-13644141D02*
X10409701Y-13653665D01*
X10409701Y-13653665D02*
X10419225Y-13672712D01*
X10419225Y-13672712D02*
X10419225Y-13777474D01*
X10809701Y-13567950D02*
X10638272Y-13825093D01*
X11066844Y-13577474D02*
X11085891Y-13577474D01*
X11085891Y-13577474D02*
X11104939Y-13586998D01*
X11104939Y-13586998D02*
X11114463Y-13596522D01*
X11114463Y-13596522D02*
X11123987Y-13615569D01*
X11123987Y-13615569D02*
X11133510Y-13653665D01*
X11133510Y-13653665D02*
X11133510Y-13701284D01*
X11133510Y-13701284D02*
X11123987Y-13739379D01*
X11123987Y-13739379D02*
X11114463Y-13758427D01*
X11114463Y-13758427D02*
X11104939Y-13767950D01*
X11104939Y-13767950D02*
X11085891Y-13777474D01*
X11085891Y-13777474D02*
X11066844Y-13777474D01*
X11066844Y-13777474D02*
X11047796Y-13767950D01*
X11047796Y-13767950D02*
X11038272Y-13758427D01*
X11038272Y-13758427D02*
X11028748Y-13739379D01*
X11028748Y-13739379D02*
X11019225Y-13701284D01*
X11019225Y-13701284D02*
X11019225Y-13653665D01*
X11019225Y-13653665D02*
X11028748Y-13615569D01*
X11028748Y-13615569D02*
X11038272Y-13596522D01*
X11038272Y-13596522D02*
X11047796Y-13586998D01*
X11047796Y-13586998D02*
X11066844Y-13577474D01*
X11219225Y-13758427D02*
X11228748Y-13767950D01*
X11228748Y-13767950D02*
X11219225Y-13777474D01*
X11219225Y-13777474D02*
X11209701Y-13767950D01*
X11209701Y-13767950D02*
X11219225Y-13758427D01*
X11219225Y-13758427D02*
X11219225Y-13777474D01*
X11352558Y-13577474D02*
X11371606Y-13577474D01*
X11371606Y-13577474D02*
X11390653Y-13586998D01*
X11390653Y-13586998D02*
X11400177Y-13596522D01*
X11400177Y-13596522D02*
X11409701Y-13615569D01*
X11409701Y-13615569D02*
X11419225Y-13653665D01*
X11419225Y-13653665D02*
X11419225Y-13701284D01*
X11419225Y-13701284D02*
X11409701Y-13739379D01*
X11409701Y-13739379D02*
X11400177Y-13758427D01*
X11400177Y-13758427D02*
X11390653Y-13767950D01*
X11390653Y-13767950D02*
X11371606Y-13777474D01*
X11371606Y-13777474D02*
X11352558Y-13777474D01*
X11352558Y-13777474D02*
X11333510Y-13767950D01*
X11333510Y-13767950D02*
X11323986Y-13758427D01*
X11323986Y-13758427D02*
X11314463Y-13739379D01*
X11314463Y-13739379D02*
X11304939Y-13701284D01*
X11304939Y-13701284D02*
X11304939Y-13653665D01*
X11304939Y-13653665D02*
X11314463Y-13615569D01*
X11314463Y-13615569D02*
X11323986Y-13596522D01*
X11323986Y-13596522D02*
X11333510Y-13586998D01*
X11333510Y-13586998D02*
X11352558Y-13577474D01*
X11485891Y-13577474D02*
X11609701Y-13577474D01*
X11609701Y-13577474D02*
X11543034Y-13653665D01*
X11543034Y-13653665D02*
X11571606Y-13653665D01*
X11571606Y-13653665D02*
X11590653Y-13663188D01*
X11590653Y-13663188D02*
X11600177Y-13672712D01*
X11600177Y-13672712D02*
X11609701Y-13691760D01*
X11609701Y-13691760D02*
X11609701Y-13739379D01*
X11609701Y-13739379D02*
X11600177Y-13758427D01*
X11600177Y-13758427D02*
X11590653Y-13767950D01*
X11590653Y-13767950D02*
X11571606Y-13777474D01*
X11571606Y-13777474D02*
X11514463Y-13777474D01*
X11514463Y-13777474D02*
X11495415Y-13767950D01*
X11495415Y-13767950D02*
X11485891Y-13758427D01*
X11800177Y-13777474D02*
X11685891Y-13777474D01*
X11743034Y-13777474D02*
X11743034Y-13577474D01*
X11743034Y-13577474D02*
X11723986Y-13606046D01*
X11723986Y-13606046D02*
X11704939Y-13625093D01*
X11704939Y-13625093D02*
X11685891Y-13634617D01*
X11981129Y-13577474D02*
X11885891Y-13577474D01*
X11885891Y-13577474D02*
X11876367Y-13672712D01*
X11876367Y-13672712D02*
X11885891Y-13663188D01*
X11885891Y-13663188D02*
X11904939Y-13653665D01*
X11904939Y-13653665D02*
X11952558Y-13653665D01*
X11952558Y-13653665D02*
X11971606Y-13663188D01*
X11971606Y-13663188D02*
X11981129Y-13672712D01*
X11981129Y-13672712D02*
X11990653Y-13691760D01*
X11990653Y-13691760D02*
X11990653Y-13739379D01*
X11990653Y-13739379D02*
X11981129Y-13758427D01*
X11981129Y-13758427D02*
X11971606Y-13767950D01*
X11971606Y-13767950D02*
X11952558Y-13777474D01*
X11952558Y-13777474D02*
X11904939Y-13777474D01*
X11904939Y-13777474D02*
X11885891Y-13767950D01*
X11885891Y-13767950D02*
X11876367Y-13758427D01*
X12066844Y-13577474D02*
X12066844Y-13615569D01*
X12143034Y-13577474D02*
X12143034Y-13615569D01*
X12438272Y-13853665D02*
X12428748Y-13844141D01*
X12428748Y-13844141D02*
X12409701Y-13815569D01*
X12409701Y-13815569D02*
X12400177Y-13796522D01*
X12400177Y-13796522D02*
X12390653Y-13767950D01*
X12390653Y-13767950D02*
X12381129Y-13720331D01*
X12381129Y-13720331D02*
X12381129Y-13682236D01*
X12381129Y-13682236D02*
X12390653Y-13634617D01*
X12390653Y-13634617D02*
X12400177Y-13606046D01*
X12400177Y-13606046D02*
X12409701Y-13586998D01*
X12409701Y-13586998D02*
X12428748Y-13558427D01*
X12428748Y-13558427D02*
X12438272Y-13548903D01*
X12600177Y-13644141D02*
X12600177Y-13777474D01*
X12552558Y-13567950D02*
X12504939Y-13710808D01*
X12504939Y-13710808D02*
X12628748Y-13710808D01*
X12857320Y-13777474D02*
X12857320Y-13577474D01*
X12943034Y-13777474D02*
X12943034Y-13672712D01*
X12943034Y-13672712D02*
X12933510Y-13653665D01*
X12933510Y-13653665D02*
X12914463Y-13644141D01*
X12914463Y-13644141D02*
X12885891Y-13644141D01*
X12885891Y-13644141D02*
X12866844Y-13653665D01*
X12866844Y-13653665D02*
X12857320Y-13663188D01*
X13066844Y-13777474D02*
X13047796Y-13767950D01*
X13047796Y-13767950D02*
X13038272Y-13758427D01*
X13038272Y-13758427D02*
X13028749Y-13739379D01*
X13028749Y-13739379D02*
X13028749Y-13682236D01*
X13028749Y-13682236D02*
X13038272Y-13663188D01*
X13038272Y-13663188D02*
X13047796Y-13653665D01*
X13047796Y-13653665D02*
X13066844Y-13644141D01*
X13066844Y-13644141D02*
X13095415Y-13644141D01*
X13095415Y-13644141D02*
X13114463Y-13653665D01*
X13114463Y-13653665D02*
X13123987Y-13663188D01*
X13123987Y-13663188D02*
X13133510Y-13682236D01*
X13133510Y-13682236D02*
X13133510Y-13739379D01*
X13133510Y-13739379D02*
X13123987Y-13758427D01*
X13123987Y-13758427D02*
X13114463Y-13767950D01*
X13114463Y-13767950D02*
X13095415Y-13777474D01*
X13095415Y-13777474D02*
X13066844Y-13777474D01*
X13247796Y-13777474D02*
X13228749Y-13767950D01*
X13228749Y-13767950D02*
X13219225Y-13748903D01*
X13219225Y-13748903D02*
X13219225Y-13577474D01*
X13400177Y-13767950D02*
X13381130Y-13777474D01*
X13381130Y-13777474D02*
X13343034Y-13777474D01*
X13343034Y-13777474D02*
X13323987Y-13767950D01*
X13323987Y-13767950D02*
X13314463Y-13748903D01*
X13314463Y-13748903D02*
X13314463Y-13672712D01*
X13314463Y-13672712D02*
X13323987Y-13653665D01*
X13323987Y-13653665D02*
X13343034Y-13644141D01*
X13343034Y-13644141D02*
X13381130Y-13644141D01*
X13381130Y-13644141D02*
X13400177Y-13653665D01*
X13400177Y-13653665D02*
X13409701Y-13672712D01*
X13409701Y-13672712D02*
X13409701Y-13691760D01*
X13409701Y-13691760D02*
X13314463Y-13710808D01*
X13485891Y-13767950D02*
X13504939Y-13777474D01*
X13504939Y-13777474D02*
X13543034Y-13777474D01*
X13543034Y-13777474D02*
X13562082Y-13767950D01*
X13562082Y-13767950D02*
X13571606Y-13748903D01*
X13571606Y-13748903D02*
X13571606Y-13739379D01*
X13571606Y-13739379D02*
X13562082Y-13720331D01*
X13562082Y-13720331D02*
X13543034Y-13710808D01*
X13543034Y-13710808D02*
X13514463Y-13710808D01*
X13514463Y-13710808D02*
X13495415Y-13701284D01*
X13495415Y-13701284D02*
X13485891Y-13682236D01*
X13485891Y-13682236D02*
X13485891Y-13672712D01*
X13485891Y-13672712D02*
X13495415Y-13653665D01*
X13495415Y-13653665D02*
X13514463Y-13644141D01*
X13514463Y-13644141D02*
X13543034Y-13644141D01*
X13543034Y-13644141D02*
X13562082Y-13653665D01*
X13638272Y-13853665D02*
X13647796Y-13844141D01*
X13647796Y-13844141D02*
X13666844Y-13815569D01*
X13666844Y-13815569D02*
X13676368Y-13796522D01*
X13676368Y-13796522D02*
X13685891Y-13767950D01*
X13685891Y-13767950D02*
X13695415Y-13720331D01*
X13695415Y-13720331D02*
X13695415Y-13682236D01*
X13695415Y-13682236D02*
X13685891Y-13634617D01*
X13685891Y-13634617D02*
X13676368Y-13606046D01*
X13676368Y-13606046D02*
X13666844Y-13586998D01*
X13666844Y-13586998D02*
X13647796Y-13558427D01*
X13647796Y-13558427D02*
X13638272Y-13548903D01*
D12*
X8818760Y-13905540D02*
X8818760Y-13994440D01*
X8774310Y-13949990D02*
X8863210Y-13949990D01*
D11*
X9162082Y-13841474D02*
X9181129Y-13841474D01*
X9181129Y-13841474D02*
X9200177Y-13850998D01*
X9200177Y-13850998D02*
X9209701Y-13860522D01*
X9209701Y-13860522D02*
X9219224Y-13879569D01*
X9219224Y-13879569D02*
X9228748Y-13917665D01*
X9228748Y-13917665D02*
X9228748Y-13965284D01*
X9228748Y-13965284D02*
X9219224Y-14003379D01*
X9219224Y-14003379D02*
X9209701Y-14022427D01*
X9209701Y-14022427D02*
X9200177Y-14031950D01*
X9200177Y-14031950D02*
X9181129Y-14041474D01*
X9181129Y-14041474D02*
X9162082Y-14041474D01*
X9162082Y-14041474D02*
X9143034Y-14031950D01*
X9143034Y-14031950D02*
X9133510Y-14022427D01*
X9133510Y-14022427D02*
X9123986Y-14003379D01*
X9123986Y-14003379D02*
X9114463Y-13965284D01*
X9114463Y-13965284D02*
X9114463Y-13917665D01*
X9114463Y-13917665D02*
X9123986Y-13879569D01*
X9123986Y-13879569D02*
X9133510Y-13860522D01*
X9133510Y-13860522D02*
X9143034Y-13850998D01*
X9143034Y-13850998D02*
X9162082Y-13841474D01*
X9314463Y-14022427D02*
X9323986Y-14031950D01*
X9323986Y-14031950D02*
X9314463Y-14041474D01*
X9314463Y-14041474D02*
X9304939Y-14031950D01*
X9304939Y-14031950D02*
X9314463Y-14022427D01*
X9314463Y-14022427D02*
X9314463Y-14041474D01*
X9438272Y-13927188D02*
X9419224Y-13917665D01*
X9419224Y-13917665D02*
X9409701Y-13908141D01*
X9409701Y-13908141D02*
X9400177Y-13889093D01*
X9400177Y-13889093D02*
X9400177Y-13879569D01*
X9400177Y-13879569D02*
X9409701Y-13860522D01*
X9409701Y-13860522D02*
X9419224Y-13850998D01*
X9419224Y-13850998D02*
X9438272Y-13841474D01*
X9438272Y-13841474D02*
X9476367Y-13841474D01*
X9476367Y-13841474D02*
X9495415Y-13850998D01*
X9495415Y-13850998D02*
X9504939Y-13860522D01*
X9504939Y-13860522D02*
X9514463Y-13879569D01*
X9514463Y-13879569D02*
X9514463Y-13889093D01*
X9514463Y-13889093D02*
X9504939Y-13908141D01*
X9504939Y-13908141D02*
X9495415Y-13917665D01*
X9495415Y-13917665D02*
X9476367Y-13927188D01*
X9476367Y-13927188D02*
X9438272Y-13927188D01*
X9438272Y-13927188D02*
X9419224Y-13936712D01*
X9419224Y-13936712D02*
X9409701Y-13946236D01*
X9409701Y-13946236D02*
X9400177Y-13965284D01*
X9400177Y-13965284D02*
X9400177Y-14003379D01*
X9400177Y-14003379D02*
X9409701Y-14022427D01*
X9409701Y-14022427D02*
X9419224Y-14031950D01*
X9419224Y-14031950D02*
X9438272Y-14041474D01*
X9438272Y-14041474D02*
X9476367Y-14041474D01*
X9476367Y-14041474D02*
X9495415Y-14031950D01*
X9495415Y-14031950D02*
X9504939Y-14022427D01*
X9504939Y-14022427D02*
X9514463Y-14003379D01*
X9514463Y-14003379D02*
X9514463Y-13965284D01*
X9514463Y-13965284D02*
X9504939Y-13946236D01*
X9504939Y-13946236D02*
X9495415Y-13936712D01*
X9495415Y-13936712D02*
X9476367Y-13927188D01*
X9628748Y-13927188D02*
X9609701Y-13917665D01*
X9609701Y-13917665D02*
X9600177Y-13908141D01*
X9600177Y-13908141D02*
X9590653Y-13889093D01*
X9590653Y-13889093D02*
X9590653Y-13879569D01*
X9590653Y-13879569D02*
X9600177Y-13860522D01*
X9600177Y-13860522D02*
X9609701Y-13850998D01*
X9609701Y-13850998D02*
X9628748Y-13841474D01*
X9628748Y-13841474D02*
X9666844Y-13841474D01*
X9666844Y-13841474D02*
X9685891Y-13850998D01*
X9685891Y-13850998D02*
X9695415Y-13860522D01*
X9695415Y-13860522D02*
X9704939Y-13879569D01*
X9704939Y-13879569D02*
X9704939Y-13889093D01*
X9704939Y-13889093D02*
X9695415Y-13908141D01*
X9695415Y-13908141D02*
X9685891Y-13917665D01*
X9685891Y-13917665D02*
X9666844Y-13927188D01*
X9666844Y-13927188D02*
X9628748Y-13927188D01*
X9628748Y-13927188D02*
X9609701Y-13936712D01*
X9609701Y-13936712D02*
X9600177Y-13946236D01*
X9600177Y-13946236D02*
X9590653Y-13965284D01*
X9590653Y-13965284D02*
X9590653Y-14003379D01*
X9590653Y-14003379D02*
X9600177Y-14022427D01*
X9600177Y-14022427D02*
X9609701Y-14031950D01*
X9609701Y-14031950D02*
X9628748Y-14041474D01*
X9628748Y-14041474D02*
X9666844Y-14041474D01*
X9666844Y-14041474D02*
X9685891Y-14031950D01*
X9685891Y-14031950D02*
X9695415Y-14022427D01*
X9695415Y-14022427D02*
X9704939Y-14003379D01*
X9704939Y-14003379D02*
X9704939Y-13965284D01*
X9704939Y-13965284D02*
X9695415Y-13946236D01*
X9695415Y-13946236D02*
X9685891Y-13936712D01*
X9685891Y-13936712D02*
X9666844Y-13927188D01*
X9800177Y-14041474D02*
X9838272Y-14041474D01*
X9838272Y-14041474D02*
X9857320Y-14031950D01*
X9857320Y-14031950D02*
X9866844Y-14022427D01*
X9866844Y-14022427D02*
X9885891Y-13993855D01*
X9885891Y-13993855D02*
X9895415Y-13955760D01*
X9895415Y-13955760D02*
X9895415Y-13879569D01*
X9895415Y-13879569D02*
X9885891Y-13860522D01*
X9885891Y-13860522D02*
X9876367Y-13850998D01*
X9876367Y-13850998D02*
X9857320Y-13841474D01*
X9857320Y-13841474D02*
X9819224Y-13841474D01*
X9819224Y-13841474D02*
X9800177Y-13850998D01*
X9800177Y-13850998D02*
X9790653Y-13860522D01*
X9790653Y-13860522D02*
X9781129Y-13879569D01*
X9781129Y-13879569D02*
X9781129Y-13927188D01*
X9781129Y-13927188D02*
X9790653Y-13946236D01*
X9790653Y-13946236D02*
X9800177Y-13955760D01*
X9800177Y-13955760D02*
X9819224Y-13965284D01*
X9819224Y-13965284D02*
X9857320Y-13965284D01*
X9857320Y-13965284D02*
X9876367Y-13955760D01*
X9876367Y-13955760D02*
X9885891Y-13946236D01*
X9885891Y-13946236D02*
X9895415Y-13927188D01*
X9981129Y-14041474D02*
X9981129Y-13908141D01*
X9981129Y-13927188D02*
X9990653Y-13917665D01*
X9990653Y-13917665D02*
X10009701Y-13908141D01*
X10009701Y-13908141D02*
X10038272Y-13908141D01*
X10038272Y-13908141D02*
X10057320Y-13917665D01*
X10057320Y-13917665D02*
X10066844Y-13936712D01*
X10066844Y-13936712D02*
X10066844Y-14041474D01*
X10066844Y-13936712D02*
X10076367Y-13917665D01*
X10076367Y-13917665D02*
X10095415Y-13908141D01*
X10095415Y-13908141D02*
X10123986Y-13908141D01*
X10123986Y-13908141D02*
X10143034Y-13917665D01*
X10143034Y-13917665D02*
X10152558Y-13936712D01*
X10152558Y-13936712D02*
X10152558Y-14041474D01*
X10247796Y-14041474D02*
X10247796Y-13908141D01*
X10247796Y-13927188D02*
X10257320Y-13917665D01*
X10257320Y-13917665D02*
X10276367Y-13908141D01*
X10276367Y-13908141D02*
X10304939Y-13908141D01*
X10304939Y-13908141D02*
X10323986Y-13917665D01*
X10323986Y-13917665D02*
X10333510Y-13936712D01*
X10333510Y-13936712D02*
X10333510Y-14041474D01*
X10333510Y-13936712D02*
X10343034Y-13917665D01*
X10343034Y-13917665D02*
X10362082Y-13908141D01*
X10362082Y-13908141D02*
X10390653Y-13908141D01*
X10390653Y-13908141D02*
X10409701Y-13917665D01*
X10409701Y-13917665D02*
X10419225Y-13936712D01*
X10419225Y-13936712D02*
X10419225Y-14041474D01*
X10809701Y-13831950D02*
X10638272Y-14089093D01*
X11066844Y-13841474D02*
X11085891Y-13841474D01*
X11085891Y-13841474D02*
X11104939Y-13850998D01*
X11104939Y-13850998D02*
X11114463Y-13860522D01*
X11114463Y-13860522D02*
X11123987Y-13879569D01*
X11123987Y-13879569D02*
X11133510Y-13917665D01*
X11133510Y-13917665D02*
X11133510Y-13965284D01*
X11133510Y-13965284D02*
X11123987Y-14003379D01*
X11123987Y-14003379D02*
X11114463Y-14022427D01*
X11114463Y-14022427D02*
X11104939Y-14031950D01*
X11104939Y-14031950D02*
X11085891Y-14041474D01*
X11085891Y-14041474D02*
X11066844Y-14041474D01*
X11066844Y-14041474D02*
X11047796Y-14031950D01*
X11047796Y-14031950D02*
X11038272Y-14022427D01*
X11038272Y-14022427D02*
X11028748Y-14003379D01*
X11028748Y-14003379D02*
X11019225Y-13965284D01*
X11019225Y-13965284D02*
X11019225Y-13917665D01*
X11019225Y-13917665D02*
X11028748Y-13879569D01*
X11028748Y-13879569D02*
X11038272Y-13860522D01*
X11038272Y-13860522D02*
X11047796Y-13850998D01*
X11047796Y-13850998D02*
X11066844Y-13841474D01*
X11219225Y-14022427D02*
X11228748Y-14031950D01*
X11228748Y-14031950D02*
X11219225Y-14041474D01*
X11219225Y-14041474D02*
X11209701Y-14031950D01*
X11209701Y-14031950D02*
X11219225Y-14022427D01*
X11219225Y-14022427D02*
X11219225Y-14041474D01*
X11352558Y-13841474D02*
X11371606Y-13841474D01*
X11371606Y-13841474D02*
X11390653Y-13850998D01*
X11390653Y-13850998D02*
X11400177Y-13860522D01*
X11400177Y-13860522D02*
X11409701Y-13879569D01*
X11409701Y-13879569D02*
X11419225Y-13917665D01*
X11419225Y-13917665D02*
X11419225Y-13965284D01*
X11419225Y-13965284D02*
X11409701Y-14003379D01*
X11409701Y-14003379D02*
X11400177Y-14022427D01*
X11400177Y-14022427D02*
X11390653Y-14031950D01*
X11390653Y-14031950D02*
X11371606Y-14041474D01*
X11371606Y-14041474D02*
X11352558Y-14041474D01*
X11352558Y-14041474D02*
X11333510Y-14031950D01*
X11333510Y-14031950D02*
X11323986Y-14022427D01*
X11323986Y-14022427D02*
X11314463Y-14003379D01*
X11314463Y-14003379D02*
X11304939Y-13965284D01*
X11304939Y-13965284D02*
X11304939Y-13917665D01*
X11304939Y-13917665D02*
X11314463Y-13879569D01*
X11314463Y-13879569D02*
X11323986Y-13860522D01*
X11323986Y-13860522D02*
X11333510Y-13850998D01*
X11333510Y-13850998D02*
X11352558Y-13841474D01*
X11485891Y-13841474D02*
X11609701Y-13841474D01*
X11609701Y-13841474D02*
X11543034Y-13917665D01*
X11543034Y-13917665D02*
X11571606Y-13917665D01*
X11571606Y-13917665D02*
X11590653Y-13927188D01*
X11590653Y-13927188D02*
X11600177Y-13936712D01*
X11600177Y-13936712D02*
X11609701Y-13955760D01*
X11609701Y-13955760D02*
X11609701Y-14003379D01*
X11609701Y-14003379D02*
X11600177Y-14022427D01*
X11600177Y-14022427D02*
X11590653Y-14031950D01*
X11590653Y-14031950D02*
X11571606Y-14041474D01*
X11571606Y-14041474D02*
X11514463Y-14041474D01*
X11514463Y-14041474D02*
X11495415Y-14031950D01*
X11495415Y-14031950D02*
X11485891Y-14022427D01*
X11790653Y-13841474D02*
X11695415Y-13841474D01*
X11695415Y-13841474D02*
X11685891Y-13936712D01*
X11685891Y-13936712D02*
X11695415Y-13927188D01*
X11695415Y-13927188D02*
X11714463Y-13917665D01*
X11714463Y-13917665D02*
X11762082Y-13917665D01*
X11762082Y-13917665D02*
X11781129Y-13927188D01*
X11781129Y-13927188D02*
X11790653Y-13936712D01*
X11790653Y-13936712D02*
X11800177Y-13955760D01*
X11800177Y-13955760D02*
X11800177Y-14003379D01*
X11800177Y-14003379D02*
X11790653Y-14022427D01*
X11790653Y-14022427D02*
X11781129Y-14031950D01*
X11781129Y-14031950D02*
X11762082Y-14041474D01*
X11762082Y-14041474D02*
X11714463Y-14041474D01*
X11714463Y-14041474D02*
X11695415Y-14031950D01*
X11695415Y-14031950D02*
X11685891Y-14022427D01*
X11923986Y-13841474D02*
X11943034Y-13841474D01*
X11943034Y-13841474D02*
X11962082Y-13850998D01*
X11962082Y-13850998D02*
X11971606Y-13860522D01*
X11971606Y-13860522D02*
X11981129Y-13879569D01*
X11981129Y-13879569D02*
X11990653Y-13917665D01*
X11990653Y-13917665D02*
X11990653Y-13965284D01*
X11990653Y-13965284D02*
X11981129Y-14003379D01*
X11981129Y-14003379D02*
X11971606Y-14022427D01*
X11971606Y-14022427D02*
X11962082Y-14031950D01*
X11962082Y-14031950D02*
X11943034Y-14041474D01*
X11943034Y-14041474D02*
X11923986Y-14041474D01*
X11923986Y-14041474D02*
X11904939Y-14031950D01*
X11904939Y-14031950D02*
X11895415Y-14022427D01*
X11895415Y-14022427D02*
X11885891Y-14003379D01*
X11885891Y-14003379D02*
X11876367Y-13965284D01*
X11876367Y-13965284D02*
X11876367Y-13917665D01*
X11876367Y-13917665D02*
X11885891Y-13879569D01*
X11885891Y-13879569D02*
X11895415Y-13860522D01*
X11895415Y-13860522D02*
X11904939Y-13850998D01*
X11904939Y-13850998D02*
X11923986Y-13841474D01*
X12066844Y-13841474D02*
X12066844Y-13879569D01*
X12143034Y-13841474D02*
X12143034Y-13879569D01*
X12438272Y-14117665D02*
X12428748Y-14108141D01*
X12428748Y-14108141D02*
X12409701Y-14079569D01*
X12409701Y-14079569D02*
X12400177Y-14060522D01*
X12400177Y-14060522D02*
X12390653Y-14031950D01*
X12390653Y-14031950D02*
X12381129Y-13984331D01*
X12381129Y-13984331D02*
X12381129Y-13946236D01*
X12381129Y-13946236D02*
X12390653Y-13898617D01*
X12390653Y-13898617D02*
X12400177Y-13870046D01*
X12400177Y-13870046D02*
X12409701Y-13850998D01*
X12409701Y-13850998D02*
X12428748Y-13822427D01*
X12428748Y-13822427D02*
X12438272Y-13812903D01*
X12619225Y-14041474D02*
X12504939Y-14041474D01*
X12562082Y-14041474D02*
X12562082Y-13841474D01*
X12562082Y-13841474D02*
X12543034Y-13870046D01*
X12543034Y-13870046D02*
X12523987Y-13889093D01*
X12523987Y-13889093D02*
X12504939Y-13898617D01*
X12800177Y-13841474D02*
X12704939Y-13841474D01*
X12704939Y-13841474D02*
X12695415Y-13936712D01*
X12695415Y-13936712D02*
X12704939Y-13927188D01*
X12704939Y-13927188D02*
X12723987Y-13917665D01*
X12723987Y-13917665D02*
X12771606Y-13917665D01*
X12771606Y-13917665D02*
X12790653Y-13927188D01*
X12790653Y-13927188D02*
X12800177Y-13936712D01*
X12800177Y-13936712D02*
X12809701Y-13955760D01*
X12809701Y-13955760D02*
X12809701Y-14003379D01*
X12809701Y-14003379D02*
X12800177Y-14022427D01*
X12800177Y-14022427D02*
X12790653Y-14031950D01*
X12790653Y-14031950D02*
X12771606Y-14041474D01*
X12771606Y-14041474D02*
X12723987Y-14041474D01*
X12723987Y-14041474D02*
X12704939Y-14031950D01*
X12704939Y-14031950D02*
X12695415Y-14022427D01*
X13047796Y-14041474D02*
X13047796Y-13841474D01*
X13133510Y-14041474D02*
X13133510Y-13936712D01*
X13133510Y-13936712D02*
X13123987Y-13917665D01*
X13123987Y-13917665D02*
X13104939Y-13908141D01*
X13104939Y-13908141D02*
X13076368Y-13908141D01*
X13076368Y-13908141D02*
X13057320Y-13917665D01*
X13057320Y-13917665D02*
X13047796Y-13927188D01*
X13257320Y-14041474D02*
X13238272Y-14031950D01*
X13238272Y-14031950D02*
X13228749Y-14022427D01*
X13228749Y-14022427D02*
X13219225Y-14003379D01*
X13219225Y-14003379D02*
X13219225Y-13946236D01*
X13219225Y-13946236D02*
X13228749Y-13927188D01*
X13228749Y-13927188D02*
X13238272Y-13917665D01*
X13238272Y-13917665D02*
X13257320Y-13908141D01*
X13257320Y-13908141D02*
X13285891Y-13908141D01*
X13285891Y-13908141D02*
X13304939Y-13917665D01*
X13304939Y-13917665D02*
X13314463Y-13927188D01*
X13314463Y-13927188D02*
X13323987Y-13946236D01*
X13323987Y-13946236D02*
X13323987Y-14003379D01*
X13323987Y-14003379D02*
X13314463Y-14022427D01*
X13314463Y-14022427D02*
X13304939Y-14031950D01*
X13304939Y-14031950D02*
X13285891Y-14041474D01*
X13285891Y-14041474D02*
X13257320Y-14041474D01*
X13438272Y-14041474D02*
X13419225Y-14031950D01*
X13419225Y-14031950D02*
X13409701Y-14012903D01*
X13409701Y-14012903D02*
X13409701Y-13841474D01*
X13590653Y-14031950D02*
X13571606Y-14041474D01*
X13571606Y-14041474D02*
X13533510Y-14041474D01*
X13533510Y-14041474D02*
X13514463Y-14031950D01*
X13514463Y-14031950D02*
X13504939Y-14012903D01*
X13504939Y-14012903D02*
X13504939Y-13936712D01*
X13504939Y-13936712D02*
X13514463Y-13917665D01*
X13514463Y-13917665D02*
X13533510Y-13908141D01*
X13533510Y-13908141D02*
X13571606Y-13908141D01*
X13571606Y-13908141D02*
X13590653Y-13917665D01*
X13590653Y-13917665D02*
X13600177Y-13936712D01*
X13600177Y-13936712D02*
X13600177Y-13955760D01*
X13600177Y-13955760D02*
X13504939Y-13974808D01*
X13676368Y-14031950D02*
X13695415Y-14041474D01*
X13695415Y-14041474D02*
X13733510Y-14041474D01*
X13733510Y-14041474D02*
X13752558Y-14031950D01*
X13752558Y-14031950D02*
X13762082Y-14012903D01*
X13762082Y-14012903D02*
X13762082Y-14003379D01*
X13762082Y-14003379D02*
X13752558Y-13984331D01*
X13752558Y-13984331D02*
X13733510Y-13974808D01*
X13733510Y-13974808D02*
X13704939Y-13974808D01*
X13704939Y-13974808D02*
X13685891Y-13965284D01*
X13685891Y-13965284D02*
X13676368Y-13946236D01*
X13676368Y-13946236D02*
X13676368Y-13936712D01*
X13676368Y-13936712D02*
X13685891Y-13917665D01*
X13685891Y-13917665D02*
X13704939Y-13908141D01*
X13704939Y-13908141D02*
X13733510Y-13908141D01*
X13733510Y-13908141D02*
X13752558Y-13917665D01*
X13828749Y-14117665D02*
X13838272Y-14108141D01*
X13838272Y-14108141D02*
X13857320Y-14079569D01*
X13857320Y-14079569D02*
X13866844Y-14060522D01*
X13866844Y-14060522D02*
X13876368Y-14031950D01*
X13876368Y-14031950D02*
X13885891Y-13984331D01*
X13885891Y-13984331D02*
X13885891Y-13946236D01*
X13885891Y-13946236D02*
X13876368Y-13898617D01*
X13876368Y-13898617D02*
X13866844Y-13870046D01*
X13866844Y-13870046D02*
X13857320Y-13850998D01*
X13857320Y-13850998D02*
X13838272Y-13822427D01*
X13838272Y-13822427D02*
X13828749Y-13812903D01*
D12*
X8848565Y-14249346D02*
X8848565Y-14178635D01*
X8777854Y-14178635D01*
X8777854Y-14249346D01*
X8848565Y-14249346D01*
D11*
X9228748Y-14305474D02*
X9114463Y-14305474D01*
X9171605Y-14305474D02*
X9171605Y-14105474D01*
X9171605Y-14105474D02*
X9152558Y-14134046D01*
X9152558Y-14134046D02*
X9133510Y-14153093D01*
X9133510Y-14153093D02*
X9114463Y-14162617D01*
X9314463Y-14286427D02*
X9323986Y-14295950D01*
X9323986Y-14295950D02*
X9314463Y-14305474D01*
X9314463Y-14305474D02*
X9304939Y-14295950D01*
X9304939Y-14295950D02*
X9314463Y-14286427D01*
X9314463Y-14286427D02*
X9314463Y-14305474D01*
X9447796Y-14105474D02*
X9466844Y-14105474D01*
X9466844Y-14105474D02*
X9485891Y-14114998D01*
X9485891Y-14114998D02*
X9495415Y-14124522D01*
X9495415Y-14124522D02*
X9504939Y-14143569D01*
X9504939Y-14143569D02*
X9514463Y-14181665D01*
X9514463Y-14181665D02*
X9514463Y-14229284D01*
X9514463Y-14229284D02*
X9504939Y-14267379D01*
X9504939Y-14267379D02*
X9495415Y-14286427D01*
X9495415Y-14286427D02*
X9485891Y-14295950D01*
X9485891Y-14295950D02*
X9466844Y-14305474D01*
X9466844Y-14305474D02*
X9447796Y-14305474D01*
X9447796Y-14305474D02*
X9428748Y-14295950D01*
X9428748Y-14295950D02*
X9419224Y-14286427D01*
X9419224Y-14286427D02*
X9409701Y-14267379D01*
X9409701Y-14267379D02*
X9400177Y-14229284D01*
X9400177Y-14229284D02*
X9400177Y-14181665D01*
X9400177Y-14181665D02*
X9409701Y-14143569D01*
X9409701Y-14143569D02*
X9419224Y-14124522D01*
X9419224Y-14124522D02*
X9428748Y-14114998D01*
X9428748Y-14114998D02*
X9447796Y-14105474D01*
X9638272Y-14105474D02*
X9657320Y-14105474D01*
X9657320Y-14105474D02*
X9676367Y-14114998D01*
X9676367Y-14114998D02*
X9685891Y-14124522D01*
X9685891Y-14124522D02*
X9695415Y-14143569D01*
X9695415Y-14143569D02*
X9704939Y-14181665D01*
X9704939Y-14181665D02*
X9704939Y-14229284D01*
X9704939Y-14229284D02*
X9695415Y-14267379D01*
X9695415Y-14267379D02*
X9685891Y-14286427D01*
X9685891Y-14286427D02*
X9676367Y-14295950D01*
X9676367Y-14295950D02*
X9657320Y-14305474D01*
X9657320Y-14305474D02*
X9638272Y-14305474D01*
X9638272Y-14305474D02*
X9619224Y-14295950D01*
X9619224Y-14295950D02*
X9609701Y-14286427D01*
X9609701Y-14286427D02*
X9600177Y-14267379D01*
X9600177Y-14267379D02*
X9590653Y-14229284D01*
X9590653Y-14229284D02*
X9590653Y-14181665D01*
X9590653Y-14181665D02*
X9600177Y-14143569D01*
X9600177Y-14143569D02*
X9609701Y-14124522D01*
X9609701Y-14124522D02*
X9619224Y-14114998D01*
X9619224Y-14114998D02*
X9638272Y-14105474D01*
X9828748Y-14105474D02*
X9847796Y-14105474D01*
X9847796Y-14105474D02*
X9866844Y-14114998D01*
X9866844Y-14114998D02*
X9876367Y-14124522D01*
X9876367Y-14124522D02*
X9885891Y-14143569D01*
X9885891Y-14143569D02*
X9895415Y-14181665D01*
X9895415Y-14181665D02*
X9895415Y-14229284D01*
X9895415Y-14229284D02*
X9885891Y-14267379D01*
X9885891Y-14267379D02*
X9876367Y-14286427D01*
X9876367Y-14286427D02*
X9866844Y-14295950D01*
X9866844Y-14295950D02*
X9847796Y-14305474D01*
X9847796Y-14305474D02*
X9828748Y-14305474D01*
X9828748Y-14305474D02*
X9809701Y-14295950D01*
X9809701Y-14295950D02*
X9800177Y-14286427D01*
X9800177Y-14286427D02*
X9790653Y-14267379D01*
X9790653Y-14267379D02*
X9781129Y-14229284D01*
X9781129Y-14229284D02*
X9781129Y-14181665D01*
X9781129Y-14181665D02*
X9790653Y-14143569D01*
X9790653Y-14143569D02*
X9800177Y-14124522D01*
X9800177Y-14124522D02*
X9809701Y-14114998D01*
X9809701Y-14114998D02*
X9828748Y-14105474D01*
X9981129Y-14305474D02*
X9981129Y-14172141D01*
X9981129Y-14191188D02*
X9990653Y-14181665D01*
X9990653Y-14181665D02*
X10009701Y-14172141D01*
X10009701Y-14172141D02*
X10038272Y-14172141D01*
X10038272Y-14172141D02*
X10057320Y-14181665D01*
X10057320Y-14181665D02*
X10066844Y-14200712D01*
X10066844Y-14200712D02*
X10066844Y-14305474D01*
X10066844Y-14200712D02*
X10076367Y-14181665D01*
X10076367Y-14181665D02*
X10095415Y-14172141D01*
X10095415Y-14172141D02*
X10123986Y-14172141D01*
X10123986Y-14172141D02*
X10143034Y-14181665D01*
X10143034Y-14181665D02*
X10152558Y-14200712D01*
X10152558Y-14200712D02*
X10152558Y-14305474D01*
X10247796Y-14305474D02*
X10247796Y-14172141D01*
X10247796Y-14191188D02*
X10257320Y-14181665D01*
X10257320Y-14181665D02*
X10276367Y-14172141D01*
X10276367Y-14172141D02*
X10304939Y-14172141D01*
X10304939Y-14172141D02*
X10323986Y-14181665D01*
X10323986Y-14181665D02*
X10333510Y-14200712D01*
X10333510Y-14200712D02*
X10333510Y-14305474D01*
X10333510Y-14200712D02*
X10343034Y-14181665D01*
X10343034Y-14181665D02*
X10362082Y-14172141D01*
X10362082Y-14172141D02*
X10390653Y-14172141D01*
X10390653Y-14172141D02*
X10409701Y-14181665D01*
X10409701Y-14181665D02*
X10419225Y-14200712D01*
X10419225Y-14200712D02*
X10419225Y-14305474D01*
X10809701Y-14095950D02*
X10638272Y-14353093D01*
X11066844Y-14105474D02*
X11085891Y-14105474D01*
X11085891Y-14105474D02*
X11104939Y-14114998D01*
X11104939Y-14114998D02*
X11114463Y-14124522D01*
X11114463Y-14124522D02*
X11123987Y-14143569D01*
X11123987Y-14143569D02*
X11133510Y-14181665D01*
X11133510Y-14181665D02*
X11133510Y-14229284D01*
X11133510Y-14229284D02*
X11123987Y-14267379D01*
X11123987Y-14267379D02*
X11114463Y-14286427D01*
X11114463Y-14286427D02*
X11104939Y-14295950D01*
X11104939Y-14295950D02*
X11085891Y-14305474D01*
X11085891Y-14305474D02*
X11066844Y-14305474D01*
X11066844Y-14305474D02*
X11047796Y-14295950D01*
X11047796Y-14295950D02*
X11038272Y-14286427D01*
X11038272Y-14286427D02*
X11028748Y-14267379D01*
X11028748Y-14267379D02*
X11019225Y-14229284D01*
X11019225Y-14229284D02*
X11019225Y-14181665D01*
X11019225Y-14181665D02*
X11028748Y-14143569D01*
X11028748Y-14143569D02*
X11038272Y-14124522D01*
X11038272Y-14124522D02*
X11047796Y-14114998D01*
X11047796Y-14114998D02*
X11066844Y-14105474D01*
X11219225Y-14286427D02*
X11228748Y-14295950D01*
X11228748Y-14295950D02*
X11219225Y-14305474D01*
X11219225Y-14305474D02*
X11209701Y-14295950D01*
X11209701Y-14295950D02*
X11219225Y-14286427D01*
X11219225Y-14286427D02*
X11219225Y-14305474D01*
X11352558Y-14105474D02*
X11371606Y-14105474D01*
X11371606Y-14105474D02*
X11390653Y-14114998D01*
X11390653Y-14114998D02*
X11400177Y-14124522D01*
X11400177Y-14124522D02*
X11409701Y-14143569D01*
X11409701Y-14143569D02*
X11419225Y-14181665D01*
X11419225Y-14181665D02*
X11419225Y-14229284D01*
X11419225Y-14229284D02*
X11409701Y-14267379D01*
X11409701Y-14267379D02*
X11400177Y-14286427D01*
X11400177Y-14286427D02*
X11390653Y-14295950D01*
X11390653Y-14295950D02*
X11371606Y-14305474D01*
X11371606Y-14305474D02*
X11352558Y-14305474D01*
X11352558Y-14305474D02*
X11333510Y-14295950D01*
X11333510Y-14295950D02*
X11323986Y-14286427D01*
X11323986Y-14286427D02*
X11314463Y-14267379D01*
X11314463Y-14267379D02*
X11304939Y-14229284D01*
X11304939Y-14229284D02*
X11304939Y-14181665D01*
X11304939Y-14181665D02*
X11314463Y-14143569D01*
X11314463Y-14143569D02*
X11323986Y-14124522D01*
X11323986Y-14124522D02*
X11333510Y-14114998D01*
X11333510Y-14114998D02*
X11352558Y-14105474D01*
X11485891Y-14105474D02*
X11609701Y-14105474D01*
X11609701Y-14105474D02*
X11543034Y-14181665D01*
X11543034Y-14181665D02*
X11571606Y-14181665D01*
X11571606Y-14181665D02*
X11590653Y-14191188D01*
X11590653Y-14191188D02*
X11600177Y-14200712D01*
X11600177Y-14200712D02*
X11609701Y-14219760D01*
X11609701Y-14219760D02*
X11609701Y-14267379D01*
X11609701Y-14267379D02*
X11600177Y-14286427D01*
X11600177Y-14286427D02*
X11590653Y-14295950D01*
X11590653Y-14295950D02*
X11571606Y-14305474D01*
X11571606Y-14305474D02*
X11514463Y-14305474D01*
X11514463Y-14305474D02*
X11495415Y-14295950D01*
X11495415Y-14295950D02*
X11485891Y-14286427D01*
X11704939Y-14305474D02*
X11743034Y-14305474D01*
X11743034Y-14305474D02*
X11762082Y-14295950D01*
X11762082Y-14295950D02*
X11771606Y-14286427D01*
X11771606Y-14286427D02*
X11790653Y-14257855D01*
X11790653Y-14257855D02*
X11800177Y-14219760D01*
X11800177Y-14219760D02*
X11800177Y-14143569D01*
X11800177Y-14143569D02*
X11790653Y-14124522D01*
X11790653Y-14124522D02*
X11781129Y-14114998D01*
X11781129Y-14114998D02*
X11762082Y-14105474D01*
X11762082Y-14105474D02*
X11723986Y-14105474D01*
X11723986Y-14105474D02*
X11704939Y-14114998D01*
X11704939Y-14114998D02*
X11695415Y-14124522D01*
X11695415Y-14124522D02*
X11685891Y-14143569D01*
X11685891Y-14143569D02*
X11685891Y-14191188D01*
X11685891Y-14191188D02*
X11695415Y-14210236D01*
X11695415Y-14210236D02*
X11704939Y-14219760D01*
X11704939Y-14219760D02*
X11723986Y-14229284D01*
X11723986Y-14229284D02*
X11762082Y-14229284D01*
X11762082Y-14229284D02*
X11781129Y-14219760D01*
X11781129Y-14219760D02*
X11790653Y-14210236D01*
X11790653Y-14210236D02*
X11800177Y-14191188D01*
X11971606Y-14172141D02*
X11971606Y-14305474D01*
X11923986Y-14095950D02*
X11876367Y-14238808D01*
X11876367Y-14238808D02*
X12000177Y-14238808D01*
X12066844Y-14105474D02*
X12066844Y-14143569D01*
X12143034Y-14105474D02*
X12143034Y-14143569D01*
X12438272Y-14381665D02*
X12428748Y-14372141D01*
X12428748Y-14372141D02*
X12409701Y-14343569D01*
X12409701Y-14343569D02*
X12400177Y-14324522D01*
X12400177Y-14324522D02*
X12390653Y-14295950D01*
X12390653Y-14295950D02*
X12381129Y-14248331D01*
X12381129Y-14248331D02*
X12381129Y-14210236D01*
X12381129Y-14210236D02*
X12390653Y-14162617D01*
X12390653Y-14162617D02*
X12400177Y-14134046D01*
X12400177Y-14134046D02*
X12409701Y-14114998D01*
X12409701Y-14114998D02*
X12428748Y-14086427D01*
X12428748Y-14086427D02*
X12438272Y-14076903D01*
X12600177Y-14105474D02*
X12562082Y-14105474D01*
X12562082Y-14105474D02*
X12543034Y-14114998D01*
X12543034Y-14114998D02*
X12533510Y-14124522D01*
X12533510Y-14124522D02*
X12514463Y-14153093D01*
X12514463Y-14153093D02*
X12504939Y-14191188D01*
X12504939Y-14191188D02*
X12504939Y-14267379D01*
X12504939Y-14267379D02*
X12514463Y-14286427D01*
X12514463Y-14286427D02*
X12523987Y-14295950D01*
X12523987Y-14295950D02*
X12543034Y-14305474D01*
X12543034Y-14305474D02*
X12581129Y-14305474D01*
X12581129Y-14305474D02*
X12600177Y-14295950D01*
X12600177Y-14295950D02*
X12609701Y-14286427D01*
X12609701Y-14286427D02*
X12619225Y-14267379D01*
X12619225Y-14267379D02*
X12619225Y-14219760D01*
X12619225Y-14219760D02*
X12609701Y-14200712D01*
X12609701Y-14200712D02*
X12600177Y-14191188D01*
X12600177Y-14191188D02*
X12581129Y-14181665D01*
X12581129Y-14181665D02*
X12543034Y-14181665D01*
X12543034Y-14181665D02*
X12523987Y-14191188D01*
X12523987Y-14191188D02*
X12514463Y-14200712D01*
X12514463Y-14200712D02*
X12504939Y-14219760D01*
X12733510Y-14191188D02*
X12714463Y-14181665D01*
X12714463Y-14181665D02*
X12704939Y-14172141D01*
X12704939Y-14172141D02*
X12695415Y-14153093D01*
X12695415Y-14153093D02*
X12695415Y-14143569D01*
X12695415Y-14143569D02*
X12704939Y-14124522D01*
X12704939Y-14124522D02*
X12714463Y-14114998D01*
X12714463Y-14114998D02*
X12733510Y-14105474D01*
X12733510Y-14105474D02*
X12771606Y-14105474D01*
X12771606Y-14105474D02*
X12790653Y-14114998D01*
X12790653Y-14114998D02*
X12800177Y-14124522D01*
X12800177Y-14124522D02*
X12809701Y-14143569D01*
X12809701Y-14143569D02*
X12809701Y-14153093D01*
X12809701Y-14153093D02*
X12800177Y-14172141D01*
X12800177Y-14172141D02*
X12790653Y-14181665D01*
X12790653Y-14181665D02*
X12771606Y-14191188D01*
X12771606Y-14191188D02*
X12733510Y-14191188D01*
X12733510Y-14191188D02*
X12714463Y-14200712D01*
X12714463Y-14200712D02*
X12704939Y-14210236D01*
X12704939Y-14210236D02*
X12695415Y-14229284D01*
X12695415Y-14229284D02*
X12695415Y-14267379D01*
X12695415Y-14267379D02*
X12704939Y-14286427D01*
X12704939Y-14286427D02*
X12714463Y-14295950D01*
X12714463Y-14295950D02*
X12733510Y-14305474D01*
X12733510Y-14305474D02*
X12771606Y-14305474D01*
X12771606Y-14305474D02*
X12790653Y-14295950D01*
X12790653Y-14295950D02*
X12800177Y-14286427D01*
X12800177Y-14286427D02*
X12809701Y-14267379D01*
X12809701Y-14267379D02*
X12809701Y-14229284D01*
X12809701Y-14229284D02*
X12800177Y-14210236D01*
X12800177Y-14210236D02*
X12790653Y-14200712D01*
X12790653Y-14200712D02*
X12771606Y-14191188D01*
X13047796Y-14305474D02*
X13047796Y-14105474D01*
X13133510Y-14305474D02*
X13133510Y-14200712D01*
X13133510Y-14200712D02*
X13123987Y-14181665D01*
X13123987Y-14181665D02*
X13104939Y-14172141D01*
X13104939Y-14172141D02*
X13076368Y-14172141D01*
X13076368Y-14172141D02*
X13057320Y-14181665D01*
X13057320Y-14181665D02*
X13047796Y-14191188D01*
X13257320Y-14305474D02*
X13238272Y-14295950D01*
X13238272Y-14295950D02*
X13228749Y-14286427D01*
X13228749Y-14286427D02*
X13219225Y-14267379D01*
X13219225Y-14267379D02*
X13219225Y-14210236D01*
X13219225Y-14210236D02*
X13228749Y-14191188D01*
X13228749Y-14191188D02*
X13238272Y-14181665D01*
X13238272Y-14181665D02*
X13257320Y-14172141D01*
X13257320Y-14172141D02*
X13285891Y-14172141D01*
X13285891Y-14172141D02*
X13304939Y-14181665D01*
X13304939Y-14181665D02*
X13314463Y-14191188D01*
X13314463Y-14191188D02*
X13323987Y-14210236D01*
X13323987Y-14210236D02*
X13323987Y-14267379D01*
X13323987Y-14267379D02*
X13314463Y-14286427D01*
X13314463Y-14286427D02*
X13304939Y-14295950D01*
X13304939Y-14295950D02*
X13285891Y-14305474D01*
X13285891Y-14305474D02*
X13257320Y-14305474D01*
X13438272Y-14305474D02*
X13419225Y-14295950D01*
X13419225Y-14295950D02*
X13409701Y-14276903D01*
X13409701Y-14276903D02*
X13409701Y-14105474D01*
X13590653Y-14295950D02*
X13571606Y-14305474D01*
X13571606Y-14305474D02*
X13533510Y-14305474D01*
X13533510Y-14305474D02*
X13514463Y-14295950D01*
X13514463Y-14295950D02*
X13504939Y-14276903D01*
X13504939Y-14276903D02*
X13504939Y-14200712D01*
X13504939Y-14200712D02*
X13514463Y-14181665D01*
X13514463Y-14181665D02*
X13533510Y-14172141D01*
X13533510Y-14172141D02*
X13571606Y-14172141D01*
X13571606Y-14172141D02*
X13590653Y-14181665D01*
X13590653Y-14181665D02*
X13600177Y-14200712D01*
X13600177Y-14200712D02*
X13600177Y-14219760D01*
X13600177Y-14219760D02*
X13504939Y-14238808D01*
X13676368Y-14295950D02*
X13695415Y-14305474D01*
X13695415Y-14305474D02*
X13733510Y-14305474D01*
X13733510Y-14305474D02*
X13752558Y-14295950D01*
X13752558Y-14295950D02*
X13762082Y-14276903D01*
X13762082Y-14276903D02*
X13762082Y-14267379D01*
X13762082Y-14267379D02*
X13752558Y-14248331D01*
X13752558Y-14248331D02*
X13733510Y-14238808D01*
X13733510Y-14238808D02*
X13704939Y-14238808D01*
X13704939Y-14238808D02*
X13685891Y-14229284D01*
X13685891Y-14229284D02*
X13676368Y-14210236D01*
X13676368Y-14210236D02*
X13676368Y-14200712D01*
X13676368Y-14200712D02*
X13685891Y-14181665D01*
X13685891Y-14181665D02*
X13704939Y-14172141D01*
X13704939Y-14172141D02*
X13733510Y-14172141D01*
X13733510Y-14172141D02*
X13752558Y-14181665D01*
X13828749Y-14381665D02*
X13838272Y-14372141D01*
X13838272Y-14372141D02*
X13857320Y-14343569D01*
X13857320Y-14343569D02*
X13866844Y-14324522D01*
X13866844Y-14324522D02*
X13876368Y-14295950D01*
X13876368Y-14295950D02*
X13885891Y-14248331D01*
X13885891Y-14248331D02*
X13885891Y-14210236D01*
X13885891Y-14210236D02*
X13876368Y-14162617D01*
X13876368Y-14162617D02*
X13866844Y-14134046D01*
X13866844Y-14134046D02*
X13857320Y-14114998D01*
X13857320Y-14114998D02*
X13838272Y-14086427D01*
X13838272Y-14086427D02*
X13828749Y-14076903D01*
X8763210Y-14577990D02*
X8863210Y-14477990D01*
X8763210Y-14377990D01*
X8663210Y-14477990D01*
X8763210Y-14577990D01*
X9104939Y-14369474D02*
X9228748Y-14369474D01*
X9228748Y-14369474D02*
X9162082Y-14445665D01*
X9162082Y-14445665D02*
X9190653Y-14445665D01*
X9190653Y-14445665D02*
X9209701Y-14455188D01*
X9209701Y-14455188D02*
X9219224Y-14464712D01*
X9219224Y-14464712D02*
X9228748Y-14483760D01*
X9228748Y-14483760D02*
X9228748Y-14531379D01*
X9228748Y-14531379D02*
X9219224Y-14550427D01*
X9219224Y-14550427D02*
X9209701Y-14559950D01*
X9209701Y-14559950D02*
X9190653Y-14569474D01*
X9190653Y-14569474D02*
X9133510Y-14569474D01*
X9133510Y-14569474D02*
X9114463Y-14559950D01*
X9114463Y-14559950D02*
X9104939Y-14550427D01*
X9314463Y-14550427D02*
X9323986Y-14559950D01*
X9323986Y-14559950D02*
X9314463Y-14569474D01*
X9314463Y-14569474D02*
X9304939Y-14559950D01*
X9304939Y-14559950D02*
X9314463Y-14550427D01*
X9314463Y-14550427D02*
X9314463Y-14569474D01*
X9400177Y-14388522D02*
X9409701Y-14378998D01*
X9409701Y-14378998D02*
X9428748Y-14369474D01*
X9428748Y-14369474D02*
X9476367Y-14369474D01*
X9476367Y-14369474D02*
X9495415Y-14378998D01*
X9495415Y-14378998D02*
X9504939Y-14388522D01*
X9504939Y-14388522D02*
X9514463Y-14407569D01*
X9514463Y-14407569D02*
X9514463Y-14426617D01*
X9514463Y-14426617D02*
X9504939Y-14455188D01*
X9504939Y-14455188D02*
X9390653Y-14569474D01*
X9390653Y-14569474D02*
X9514463Y-14569474D01*
X9638272Y-14369474D02*
X9657320Y-14369474D01*
X9657320Y-14369474D02*
X9676367Y-14378998D01*
X9676367Y-14378998D02*
X9685891Y-14388522D01*
X9685891Y-14388522D02*
X9695415Y-14407569D01*
X9695415Y-14407569D02*
X9704939Y-14445665D01*
X9704939Y-14445665D02*
X9704939Y-14493284D01*
X9704939Y-14493284D02*
X9695415Y-14531379D01*
X9695415Y-14531379D02*
X9685891Y-14550427D01*
X9685891Y-14550427D02*
X9676367Y-14559950D01*
X9676367Y-14559950D02*
X9657320Y-14569474D01*
X9657320Y-14569474D02*
X9638272Y-14569474D01*
X9638272Y-14569474D02*
X9619224Y-14559950D01*
X9619224Y-14559950D02*
X9609701Y-14550427D01*
X9609701Y-14550427D02*
X9600177Y-14531379D01*
X9600177Y-14531379D02*
X9590653Y-14493284D01*
X9590653Y-14493284D02*
X9590653Y-14445665D01*
X9590653Y-14445665D02*
X9600177Y-14407569D01*
X9600177Y-14407569D02*
X9609701Y-14388522D01*
X9609701Y-14388522D02*
X9619224Y-14378998D01*
X9619224Y-14378998D02*
X9638272Y-14369474D01*
X9828748Y-14369474D02*
X9847796Y-14369474D01*
X9847796Y-14369474D02*
X9866844Y-14378998D01*
X9866844Y-14378998D02*
X9876367Y-14388522D01*
X9876367Y-14388522D02*
X9885891Y-14407569D01*
X9885891Y-14407569D02*
X9895415Y-14445665D01*
X9895415Y-14445665D02*
X9895415Y-14493284D01*
X9895415Y-14493284D02*
X9885891Y-14531379D01*
X9885891Y-14531379D02*
X9876367Y-14550427D01*
X9876367Y-14550427D02*
X9866844Y-14559950D01*
X9866844Y-14559950D02*
X9847796Y-14569474D01*
X9847796Y-14569474D02*
X9828748Y-14569474D01*
X9828748Y-14569474D02*
X9809701Y-14559950D01*
X9809701Y-14559950D02*
X9800177Y-14550427D01*
X9800177Y-14550427D02*
X9790653Y-14531379D01*
X9790653Y-14531379D02*
X9781129Y-14493284D01*
X9781129Y-14493284D02*
X9781129Y-14445665D01*
X9781129Y-14445665D02*
X9790653Y-14407569D01*
X9790653Y-14407569D02*
X9800177Y-14388522D01*
X9800177Y-14388522D02*
X9809701Y-14378998D01*
X9809701Y-14378998D02*
X9828748Y-14369474D01*
X9981129Y-14569474D02*
X9981129Y-14436141D01*
X9981129Y-14455188D02*
X9990653Y-14445665D01*
X9990653Y-14445665D02*
X10009701Y-14436141D01*
X10009701Y-14436141D02*
X10038272Y-14436141D01*
X10038272Y-14436141D02*
X10057320Y-14445665D01*
X10057320Y-14445665D02*
X10066844Y-14464712D01*
X10066844Y-14464712D02*
X10066844Y-14569474D01*
X10066844Y-14464712D02*
X10076367Y-14445665D01*
X10076367Y-14445665D02*
X10095415Y-14436141D01*
X10095415Y-14436141D02*
X10123986Y-14436141D01*
X10123986Y-14436141D02*
X10143034Y-14445665D01*
X10143034Y-14445665D02*
X10152558Y-14464712D01*
X10152558Y-14464712D02*
X10152558Y-14569474D01*
X10247796Y-14569474D02*
X10247796Y-14436141D01*
X10247796Y-14455188D02*
X10257320Y-14445665D01*
X10257320Y-14445665D02*
X10276367Y-14436141D01*
X10276367Y-14436141D02*
X10304939Y-14436141D01*
X10304939Y-14436141D02*
X10323986Y-14445665D01*
X10323986Y-14445665D02*
X10333510Y-14464712D01*
X10333510Y-14464712D02*
X10333510Y-14569474D01*
X10333510Y-14464712D02*
X10343034Y-14445665D01*
X10343034Y-14445665D02*
X10362082Y-14436141D01*
X10362082Y-14436141D02*
X10390653Y-14436141D01*
X10390653Y-14436141D02*
X10409701Y-14445665D01*
X10409701Y-14445665D02*
X10419225Y-14464712D01*
X10419225Y-14464712D02*
X10419225Y-14569474D01*
X10809701Y-14359950D02*
X10638272Y-14617093D01*
X11066844Y-14369474D02*
X11085891Y-14369474D01*
X11085891Y-14369474D02*
X11104939Y-14378998D01*
X11104939Y-14378998D02*
X11114463Y-14388522D01*
X11114463Y-14388522D02*
X11123987Y-14407569D01*
X11123987Y-14407569D02*
X11133510Y-14445665D01*
X11133510Y-14445665D02*
X11133510Y-14493284D01*
X11133510Y-14493284D02*
X11123987Y-14531379D01*
X11123987Y-14531379D02*
X11114463Y-14550427D01*
X11114463Y-14550427D02*
X11104939Y-14559950D01*
X11104939Y-14559950D02*
X11085891Y-14569474D01*
X11085891Y-14569474D02*
X11066844Y-14569474D01*
X11066844Y-14569474D02*
X11047796Y-14559950D01*
X11047796Y-14559950D02*
X11038272Y-14550427D01*
X11038272Y-14550427D02*
X11028748Y-14531379D01*
X11028748Y-14531379D02*
X11019225Y-14493284D01*
X11019225Y-14493284D02*
X11019225Y-14445665D01*
X11019225Y-14445665D02*
X11028748Y-14407569D01*
X11028748Y-14407569D02*
X11038272Y-14388522D01*
X11038272Y-14388522D02*
X11047796Y-14378998D01*
X11047796Y-14378998D02*
X11066844Y-14369474D01*
X11219225Y-14550427D02*
X11228748Y-14559950D01*
X11228748Y-14559950D02*
X11219225Y-14569474D01*
X11219225Y-14569474D02*
X11209701Y-14559950D01*
X11209701Y-14559950D02*
X11219225Y-14550427D01*
X11219225Y-14550427D02*
X11219225Y-14569474D01*
X11419225Y-14569474D02*
X11304939Y-14569474D01*
X11362082Y-14569474D02*
X11362082Y-14369474D01*
X11362082Y-14369474D02*
X11343034Y-14398046D01*
X11343034Y-14398046D02*
X11323986Y-14417093D01*
X11323986Y-14417093D02*
X11304939Y-14426617D01*
X11495415Y-14388522D02*
X11504939Y-14378998D01*
X11504939Y-14378998D02*
X11523986Y-14369474D01*
X11523986Y-14369474D02*
X11571606Y-14369474D01*
X11571606Y-14369474D02*
X11590653Y-14378998D01*
X11590653Y-14378998D02*
X11600177Y-14388522D01*
X11600177Y-14388522D02*
X11609701Y-14407569D01*
X11609701Y-14407569D02*
X11609701Y-14426617D01*
X11609701Y-14426617D02*
X11600177Y-14455188D01*
X11600177Y-14455188D02*
X11485891Y-14569474D01*
X11485891Y-14569474D02*
X11609701Y-14569474D01*
X11781129Y-14369474D02*
X11743034Y-14369474D01*
X11743034Y-14369474D02*
X11723986Y-14378998D01*
X11723986Y-14378998D02*
X11714463Y-14388522D01*
X11714463Y-14388522D02*
X11695415Y-14417093D01*
X11695415Y-14417093D02*
X11685891Y-14455188D01*
X11685891Y-14455188D02*
X11685891Y-14531379D01*
X11685891Y-14531379D02*
X11695415Y-14550427D01*
X11695415Y-14550427D02*
X11704939Y-14559950D01*
X11704939Y-14559950D02*
X11723986Y-14569474D01*
X11723986Y-14569474D02*
X11762082Y-14569474D01*
X11762082Y-14569474D02*
X11781129Y-14559950D01*
X11781129Y-14559950D02*
X11790653Y-14550427D01*
X11790653Y-14550427D02*
X11800177Y-14531379D01*
X11800177Y-14531379D02*
X11800177Y-14483760D01*
X11800177Y-14483760D02*
X11790653Y-14464712D01*
X11790653Y-14464712D02*
X11781129Y-14455188D01*
X11781129Y-14455188D02*
X11762082Y-14445665D01*
X11762082Y-14445665D02*
X11723986Y-14445665D01*
X11723986Y-14445665D02*
X11704939Y-14455188D01*
X11704939Y-14455188D02*
X11695415Y-14464712D01*
X11695415Y-14464712D02*
X11685891Y-14483760D01*
X11923986Y-14369474D02*
X11943034Y-14369474D01*
X11943034Y-14369474D02*
X11962082Y-14378998D01*
X11962082Y-14378998D02*
X11971606Y-14388522D01*
X11971606Y-14388522D02*
X11981129Y-14407569D01*
X11981129Y-14407569D02*
X11990653Y-14445665D01*
X11990653Y-14445665D02*
X11990653Y-14493284D01*
X11990653Y-14493284D02*
X11981129Y-14531379D01*
X11981129Y-14531379D02*
X11971606Y-14550427D01*
X11971606Y-14550427D02*
X11962082Y-14559950D01*
X11962082Y-14559950D02*
X11943034Y-14569474D01*
X11943034Y-14569474D02*
X11923986Y-14569474D01*
X11923986Y-14569474D02*
X11904939Y-14559950D01*
X11904939Y-14559950D02*
X11895415Y-14550427D01*
X11895415Y-14550427D02*
X11885891Y-14531379D01*
X11885891Y-14531379D02*
X11876367Y-14493284D01*
X11876367Y-14493284D02*
X11876367Y-14445665D01*
X11876367Y-14445665D02*
X11885891Y-14407569D01*
X11885891Y-14407569D02*
X11895415Y-14388522D01*
X11895415Y-14388522D02*
X11904939Y-14378998D01*
X11904939Y-14378998D02*
X11923986Y-14369474D01*
X12066844Y-14369474D02*
X12066844Y-14407569D01*
X12143034Y-14369474D02*
X12143034Y-14407569D01*
X12438272Y-14645665D02*
X12428748Y-14636141D01*
X12428748Y-14636141D02*
X12409701Y-14607569D01*
X12409701Y-14607569D02*
X12400177Y-14588522D01*
X12400177Y-14588522D02*
X12390653Y-14559950D01*
X12390653Y-14559950D02*
X12381129Y-14512331D01*
X12381129Y-14512331D02*
X12381129Y-14474236D01*
X12381129Y-14474236D02*
X12390653Y-14426617D01*
X12390653Y-14426617D02*
X12400177Y-14398046D01*
X12400177Y-14398046D02*
X12409701Y-14378998D01*
X12409701Y-14378998D02*
X12428748Y-14350427D01*
X12428748Y-14350427D02*
X12438272Y-14340903D01*
X12600177Y-14436141D02*
X12600177Y-14569474D01*
X12552558Y-14359950D02*
X12504939Y-14502808D01*
X12504939Y-14502808D02*
X12628748Y-14502808D01*
X12857320Y-14569474D02*
X12857320Y-14369474D01*
X12943034Y-14569474D02*
X12943034Y-14464712D01*
X12943034Y-14464712D02*
X12933510Y-14445665D01*
X12933510Y-14445665D02*
X12914463Y-14436141D01*
X12914463Y-14436141D02*
X12885891Y-14436141D01*
X12885891Y-14436141D02*
X12866844Y-14445665D01*
X12866844Y-14445665D02*
X12857320Y-14455188D01*
X13066844Y-14569474D02*
X13047796Y-14559950D01*
X13047796Y-14559950D02*
X13038272Y-14550427D01*
X13038272Y-14550427D02*
X13028749Y-14531379D01*
X13028749Y-14531379D02*
X13028749Y-14474236D01*
X13028749Y-14474236D02*
X13038272Y-14455188D01*
X13038272Y-14455188D02*
X13047796Y-14445665D01*
X13047796Y-14445665D02*
X13066844Y-14436141D01*
X13066844Y-14436141D02*
X13095415Y-14436141D01*
X13095415Y-14436141D02*
X13114463Y-14445665D01*
X13114463Y-14445665D02*
X13123987Y-14455188D01*
X13123987Y-14455188D02*
X13133510Y-14474236D01*
X13133510Y-14474236D02*
X13133510Y-14531379D01*
X13133510Y-14531379D02*
X13123987Y-14550427D01*
X13123987Y-14550427D02*
X13114463Y-14559950D01*
X13114463Y-14559950D02*
X13095415Y-14569474D01*
X13095415Y-14569474D02*
X13066844Y-14569474D01*
X13247796Y-14569474D02*
X13228749Y-14559950D01*
X13228749Y-14559950D02*
X13219225Y-14540903D01*
X13219225Y-14540903D02*
X13219225Y-14369474D01*
X13400177Y-14559950D02*
X13381130Y-14569474D01*
X13381130Y-14569474D02*
X13343034Y-14569474D01*
X13343034Y-14569474D02*
X13323987Y-14559950D01*
X13323987Y-14559950D02*
X13314463Y-14540903D01*
X13314463Y-14540903D02*
X13314463Y-14464712D01*
X13314463Y-14464712D02*
X13323987Y-14445665D01*
X13323987Y-14445665D02*
X13343034Y-14436141D01*
X13343034Y-14436141D02*
X13381130Y-14436141D01*
X13381130Y-14436141D02*
X13400177Y-14445665D01*
X13400177Y-14445665D02*
X13409701Y-14464712D01*
X13409701Y-14464712D02*
X13409701Y-14483760D01*
X13409701Y-14483760D02*
X13314463Y-14502808D01*
X13485891Y-14559950D02*
X13504939Y-14569474D01*
X13504939Y-14569474D02*
X13543034Y-14569474D01*
X13543034Y-14569474D02*
X13562082Y-14559950D01*
X13562082Y-14559950D02*
X13571606Y-14540903D01*
X13571606Y-14540903D02*
X13571606Y-14531379D01*
X13571606Y-14531379D02*
X13562082Y-14512331D01*
X13562082Y-14512331D02*
X13543034Y-14502808D01*
X13543034Y-14502808D02*
X13514463Y-14502808D01*
X13514463Y-14502808D02*
X13495415Y-14493284D01*
X13495415Y-14493284D02*
X13485891Y-14474236D01*
X13485891Y-14474236D02*
X13485891Y-14464712D01*
X13485891Y-14464712D02*
X13495415Y-14445665D01*
X13495415Y-14445665D02*
X13514463Y-14436141D01*
X13514463Y-14436141D02*
X13543034Y-14436141D01*
X13543034Y-14436141D02*
X13562082Y-14445665D01*
X13638272Y-14645665D02*
X13647796Y-14636141D01*
X13647796Y-14636141D02*
X13666844Y-14607569D01*
X13666844Y-14607569D02*
X13676368Y-14588522D01*
X13676368Y-14588522D02*
X13685891Y-14559950D01*
X13685891Y-14559950D02*
X13695415Y-14512331D01*
X13695415Y-14512331D02*
X13695415Y-14474236D01*
X13695415Y-14474236D02*
X13685891Y-14426617D01*
X13685891Y-14426617D02*
X13676368Y-14398046D01*
X13676368Y-14398046D02*
X13666844Y-14378998D01*
X13666844Y-14378998D02*
X13647796Y-14350427D01*
X13647796Y-14350427D02*
X13638272Y-14340903D01*
X14000177Y-14645665D02*
X13990653Y-14636141D01*
X13990653Y-14636141D02*
X13971606Y-14607569D01*
X13971606Y-14607569D02*
X13962082Y-14588522D01*
X13962082Y-14588522D02*
X13952558Y-14559950D01*
X13952558Y-14559950D02*
X13943034Y-14512331D01*
X13943034Y-14512331D02*
X13943034Y-14474236D01*
X13943034Y-14474236D02*
X13952558Y-14426617D01*
X13952558Y-14426617D02*
X13962082Y-14398046D01*
X13962082Y-14398046D02*
X13971606Y-14378998D01*
X13971606Y-14378998D02*
X13990653Y-14350427D01*
X13990653Y-14350427D02*
X14000177Y-14340903D01*
X14076368Y-14436141D02*
X14076368Y-14569474D01*
X14076368Y-14455188D02*
X14085891Y-14445665D01*
X14085891Y-14445665D02*
X14104939Y-14436141D01*
X14104939Y-14436141D02*
X14133511Y-14436141D01*
X14133511Y-14436141D02*
X14152558Y-14445665D01*
X14152558Y-14445665D02*
X14162082Y-14464712D01*
X14162082Y-14464712D02*
X14162082Y-14569474D01*
X14285891Y-14569474D02*
X14266844Y-14559950D01*
X14266844Y-14559950D02*
X14257320Y-14550427D01*
X14257320Y-14550427D02*
X14247796Y-14531379D01*
X14247796Y-14531379D02*
X14247796Y-14474236D01*
X14247796Y-14474236D02*
X14257320Y-14455188D01*
X14257320Y-14455188D02*
X14266844Y-14445665D01*
X14266844Y-14445665D02*
X14285891Y-14436141D01*
X14285891Y-14436141D02*
X14314463Y-14436141D01*
X14314463Y-14436141D02*
X14333511Y-14445665D01*
X14333511Y-14445665D02*
X14343034Y-14455188D01*
X14343034Y-14455188D02*
X14352558Y-14474236D01*
X14352558Y-14474236D02*
X14352558Y-14531379D01*
X14352558Y-14531379D02*
X14343034Y-14550427D01*
X14343034Y-14550427D02*
X14333511Y-14559950D01*
X14333511Y-14559950D02*
X14314463Y-14569474D01*
X14314463Y-14569474D02*
X14285891Y-14569474D01*
X14409701Y-14436141D02*
X14485891Y-14436141D01*
X14438272Y-14369474D02*
X14438272Y-14540903D01*
X14438272Y-14540903D02*
X14447796Y-14559950D01*
X14447796Y-14559950D02*
X14466844Y-14569474D01*
X14466844Y-14569474D02*
X14485891Y-14569474D01*
X14704939Y-14436141D02*
X14704939Y-14636141D01*
X14704939Y-14445665D02*
X14723987Y-14436141D01*
X14723987Y-14436141D02*
X14762082Y-14436141D01*
X14762082Y-14436141D02*
X14781130Y-14445665D01*
X14781130Y-14445665D02*
X14790653Y-14455188D01*
X14790653Y-14455188D02*
X14800177Y-14474236D01*
X14800177Y-14474236D02*
X14800177Y-14531379D01*
X14800177Y-14531379D02*
X14790653Y-14550427D01*
X14790653Y-14550427D02*
X14781130Y-14559950D01*
X14781130Y-14559950D02*
X14762082Y-14569474D01*
X14762082Y-14569474D02*
X14723987Y-14569474D01*
X14723987Y-14569474D02*
X14704939Y-14559950D01*
X14914463Y-14569474D02*
X14895415Y-14559950D01*
X14895415Y-14559950D02*
X14885892Y-14540903D01*
X14885892Y-14540903D02*
X14885892Y-14369474D01*
X15076368Y-14569474D02*
X15076368Y-14464712D01*
X15076368Y-14464712D02*
X15066844Y-14445665D01*
X15066844Y-14445665D02*
X15047796Y-14436141D01*
X15047796Y-14436141D02*
X15009701Y-14436141D01*
X15009701Y-14436141D02*
X14990653Y-14445665D01*
X15076368Y-14559950D02*
X15057320Y-14569474D01*
X15057320Y-14569474D02*
X15009701Y-14569474D01*
X15009701Y-14569474D02*
X14990653Y-14559950D01*
X14990653Y-14559950D02*
X14981130Y-14540903D01*
X14981130Y-14540903D02*
X14981130Y-14521855D01*
X14981130Y-14521855D02*
X14990653Y-14502808D01*
X14990653Y-14502808D02*
X15009701Y-14493284D01*
X15009701Y-14493284D02*
X15057320Y-14493284D01*
X15057320Y-14493284D02*
X15076368Y-14483760D01*
X15143034Y-14436141D02*
X15219225Y-14436141D01*
X15171606Y-14369474D02*
X15171606Y-14540903D01*
X15171606Y-14540903D02*
X15181130Y-14559950D01*
X15181130Y-14559950D02*
X15200177Y-14569474D01*
X15200177Y-14569474D02*
X15219225Y-14569474D01*
X15362082Y-14559950D02*
X15343034Y-14569474D01*
X15343034Y-14569474D02*
X15304939Y-14569474D01*
X15304939Y-14569474D02*
X15285892Y-14559950D01*
X15285892Y-14559950D02*
X15276368Y-14540903D01*
X15276368Y-14540903D02*
X15276368Y-14464712D01*
X15276368Y-14464712D02*
X15285892Y-14445665D01*
X15285892Y-14445665D02*
X15304939Y-14436141D01*
X15304939Y-14436141D02*
X15343034Y-14436141D01*
X15343034Y-14436141D02*
X15362082Y-14445665D01*
X15362082Y-14445665D02*
X15371606Y-14464712D01*
X15371606Y-14464712D02*
X15371606Y-14483760D01*
X15371606Y-14483760D02*
X15276368Y-14502808D01*
X15543034Y-14569474D02*
X15543034Y-14369474D01*
X15543034Y-14559950D02*
X15523987Y-14569474D01*
X15523987Y-14569474D02*
X15485892Y-14569474D01*
X15485892Y-14569474D02*
X15466844Y-14559950D01*
X15466844Y-14559950D02*
X15457320Y-14550427D01*
X15457320Y-14550427D02*
X15447796Y-14531379D01*
X15447796Y-14531379D02*
X15447796Y-14474236D01*
X15447796Y-14474236D02*
X15457320Y-14455188D01*
X15457320Y-14455188D02*
X15466844Y-14445665D01*
X15466844Y-14445665D02*
X15485892Y-14436141D01*
X15485892Y-14436141D02*
X15523987Y-14436141D01*
X15523987Y-14436141D02*
X15543034Y-14445665D01*
X15619225Y-14645665D02*
X15628749Y-14636141D01*
X15628749Y-14636141D02*
X15647796Y-14607569D01*
X15647796Y-14607569D02*
X15657320Y-14588522D01*
X15657320Y-14588522D02*
X15666844Y-14559950D01*
X15666844Y-14559950D02*
X15676368Y-14512331D01*
X15676368Y-14512331D02*
X15676368Y-14474236D01*
X15676368Y-14474236D02*
X15666844Y-14426617D01*
X15666844Y-14426617D02*
X15657320Y-14398046D01*
X15657320Y-14398046D02*
X15647796Y-14378998D01*
X15647796Y-14378998D02*
X15628749Y-14350427D01*
X15628749Y-14350427D02*
X15619225Y-14340903D01*
M02*
