M48
; DRILL file {KiCad 9.0.4} date 2025-09-08T19:19:19+0900
; FORMAT={-:-/ absolute / metric / decimal}
; #@! TF.CreationDate,2025-09-08T19:19:19+09:00
; #@! TF.GenerationSoftware,Kicad,Pcbnew,9.0.4
; #@! TF.FileFunction,Plated,1,2,PTH
FMAT,2
METRIC
; #@! TA.AperFunction,Plated,PTH,ViaDrill
T1C0.300
; #@! TA.AperFunction,Plated,PTH,ComponentDrill
T2C1.000
%
G90
G05
T1
X124.06Y-82.0
X124.06Y-83.0
X124.06Y-84.0
X124.86Y-82.0
X124.86Y-84.0
X125.36Y-85.5
X125.36Y-86.5
X125.36Y-87.5
X125.36Y-88.5
X125.36Y-89.5
X125.36Y-90.5
X125.36Y-91.5
X125.36Y-92.5
X125.36Y-93.5
X125.36Y-94.5
X125.36Y-95.5
X125.36Y-96.5
X125.36Y-97.5
X125.36Y-98.5
X125.36Y-99.5
X125.36Y-100.5
X125.36Y-101.5
X125.36Y-102.5
X125.36Y-103.5
X125.36Y-104.5
X125.36Y-105.5
X125.36Y-106.5
X125.36Y-107.5
X125.36Y-108.5
X125.36Y-109.5
X125.36Y-110.5
X125.36Y-111.5
X125.36Y-112.5
X127.36Y-110.0
X129.36Y-87.5
X129.36Y-90.5
X129.36Y-91.5
X129.36Y-92.5
X129.86Y-103.0
X129.86Y-115.5
X130.36Y-112.299
X130.86Y-97.5
X131.36Y-95.0
X131.36Y-107.0
X131.86Y-108.5
X132.36Y-87.5
X132.36Y-107.0
X132.86Y-95.0
X133.36Y-87.5
X133.36Y-88.5
X133.36Y-96.5
X133.36Y-98.0
X133.36Y-103.5
X133.86Y-108.5
X134.36Y-87.5
X134.36Y-88.5
X134.36Y-95.0
X135.86Y-95.0
X135.86Y-100.0
X135.86Y-101.5
X135.86Y-103.5
X135.86Y-105.0
X135.86Y-108.5
X136.36Y-94.0
X139.86Y-97.0
X139.86Y-98.0
X139.86Y-107.5
X139.86Y-108.5
X140.457Y-98.903
X140.86Y-97.0
X141.86Y-87.5
X142.36Y-92.0
X142.36Y-96.0
X142.36Y-98.0
X143.36Y-92.0
X143.36Y-96.0
X143.36Y-100.5
X143.36Y-104.0
X143.86Y-99.5
X143.86Y-101.5
X143.86Y-105.0
X144.5Y-100.5
X144.829Y-105.0
X144.86Y-87.5
X144.86Y-89.0
X144.86Y-90.0
X144.86Y-91.0
X144.86Y-92.0
X144.86Y-93.0
X145.36Y-99.5
X145.36Y-100.5
X145.36Y-101.5
X145.36Y-112.0
X145.86Y-89.0
X145.86Y-95.5
X145.86Y-106.0
X146.36Y-96.5
X146.36Y-104.0
X146.36Y-109.0
X146.86Y-89.0
X146.86Y-95.5
X146.86Y-97.5
X147.36Y-88.0
X147.36Y-96.5
X147.36Y-104.0
X147.86Y-89.0
X147.86Y-95.5
X147.86Y-97.5
X147.86Y-98.5
X147.86Y-99.5
X148.36Y-87.0
X148.36Y-88.0
X148.86Y-89.0
X148.86Y-95.5
X148.86Y-96.5
X148.86Y-97.5
X149.36Y-86.0
X149.36Y-87.0
X149.36Y-88.0
X149.36Y-101.5
X149.36Y-109.0
X149.36Y-110.0
X149.86Y-89.0
X149.86Y-102.799
X150.36Y-86.0
X150.36Y-87.0
X150.36Y-88.0
X150.36Y-101.5
X150.36Y-108.0
X150.36Y-109.0
X150.36Y-110.0
X150.86Y-89.0
X151.36Y-86.0
X151.36Y-87.0
X151.36Y-88.0
X151.36Y-90.0
X151.36Y-91.0
X151.36Y-92.0
X151.36Y-93.0
X151.36Y-94.0
X151.36Y-95.0
X151.36Y-96.0
X151.36Y-101.5
X151.36Y-108.0
X151.36Y-109.0
X151.36Y-110.0
X152.36Y-101.5
X153.36Y-92.0
X153.36Y-94.0
X153.36Y-95.0
X153.36Y-96.0
X153.36Y-97.0
X153.36Y-98.0
X153.36Y-99.5
X153.36Y-101.5
X153.36Y-102.5
X153.36Y-103.5
X153.36Y-108.0
X153.36Y-112.0
X154.36Y-99.5
X154.36Y-101.5
X154.36Y-102.5
X154.36Y-103.5
X154.715Y-106.895
X154.86Y-94.0
X154.86Y-95.0
X154.86Y-96.0
X154.86Y-105.0
X154.86Y-108.5
X155.36Y-99.5
X155.36Y-101.5
X155.86Y-95.0
X155.86Y-96.0
X156.36Y-84.0
X156.36Y-99.0
X156.36Y-102.0
X156.86Y-95.0
X156.86Y-96.0
X157.36Y-81.5
X157.36Y-99.0
X157.36Y-102.0
X157.36Y-112.5
X157.86Y-80.0
X157.86Y-95.0
X157.86Y-96.0
X157.86Y-110.624
X158.36Y-99.0
X158.36Y-102.0
X158.36Y-106.0
X158.36Y-107.5
X158.86Y-80.0
X158.86Y-81.0
X158.86Y-82.0
X158.86Y-83.0
X158.86Y-84.0
X158.86Y-85.0
X158.86Y-86.0
X158.86Y-87.0
X158.86Y-88.0
X158.86Y-89.0
X158.86Y-90.0
X158.86Y-91.0
X158.86Y-92.0
X158.86Y-93.0
X158.86Y-94.0
X158.86Y-95.0
X158.86Y-96.0
X159.36Y-99.0
X159.36Y-102.0
T2
X131.5Y-81.5
X131.5Y-114.5
X134.04Y-81.5
X134.04Y-114.5
X136.58Y-81.5
X136.58Y-114.5
X139.12Y-81.5
X139.12Y-114.5
X141.66Y-81.5
X141.66Y-114.5
X144.2Y-81.5
X144.2Y-114.5
X146.74Y-81.5
X146.74Y-114.5
X149.28Y-81.5
X149.28Y-114.5
X151.82Y-81.5
X151.82Y-114.5
X154.36Y-81.5
X154.36Y-114.5
M30
