%TF.GenerationSoftware,KiCad,Pcbnew,9.0.4*%
%TF.CreationDate,2025-09-08T19:19:13+09:00*%
%TF.ProjectId,GPS_FrontEnd,4750535f-4672-46f6-9e74-456e642e6b69,Rev.1.0*%
%TF.SameCoordinates,Original*%
%TF.FileFunction,Paste,Top*%
%TF.FilePolarity,Positive*%
%FSLAX46Y46*%
G04 Gerber Fmt 4.6, Leading zero omitted, Abs format (unit mm)*
G04 Created by KiCad (PCBNEW 9.0.4) date 2025-09-08 19:19:13*
%MOMM*%
%LPD*%
G01*
G04 APERTURE LIST*
G04 Aperture macros list*
%AMRoundRect*
0 Rectangle with rounded corners*
0 $1 Rounding radius*
0 $2 $3 $4 $5 $6 $7 $8 $9 X,Y pos of 4 corners*
0 Add a 4 corners polygon primitive as box body*
4,1,4,$2,$3,$4,$5,$6,$7,$8,$9,$2,$3,0*
0 Add four circle primitives for the rounded corners*
1,1,$1+$1,$2,$3*
1,1,$1+$1,$4,$5*
1,1,$1+$1,$6,$7*
1,1,$1+$1,$8,$9*
0 Add four rect primitives between the rounded corners*
20,1,$1+$1,$2,$3,$4,$5,0*
20,1,$1+$1,$4,$5,$6,$7,0*
20,1,$1+$1,$6,$7,$8,$9,0*
20,1,$1+$1,$8,$9,$2,$3,0*%
%AMFreePoly0*
4,1,15,0.300000,0.230000,0.303536,0.228536,0.305000,0.225000,0.305000,-1.475000,0.303536,-1.478536,0.300000,-1.480000,-0.300000,-1.480000,-0.303536,-1.478536,-0.305000,-1.475000,-0.305000,0.225000,-0.303536,0.228536,-0.300000,0.230000,-0.300000,0.325000,0.300000,0.325000,0.300000,0.230000,0.300000,0.230000,$1*%
G04 Aperture macros list end*
%ADD10C,0.010000*%
%ADD11RoundRect,0.200000X-0.200000X-0.275000X0.200000X-0.275000X0.200000X0.275000X-0.200000X0.275000X0*%
%ADD12R,0.250000X0.325000*%
%ADD13RoundRect,0.225000X-0.225000X-0.250000X0.225000X-0.250000X0.225000X0.250000X-0.225000X0.250000X0*%
%ADD14RoundRect,0.225000X0.250000X-0.225000X0.250000X0.225000X-0.250000X0.225000X-0.250000X-0.225000X0*%
%ADD15RoundRect,0.165000X-0.585000X0.165000X-0.585000X-0.165000X0.585000X-0.165000X0.585000X0.165000X0*%
%ADD16RoundRect,0.200000X0.200000X0.275000X-0.200000X0.275000X-0.200000X-0.275000X0.200000X-0.275000X0*%
%ADD17R,0.393700X0.812800*%
%ADD18RoundRect,0.033750X-0.101250X0.461250X-0.101250X-0.461250X0.101250X-0.461250X0.101250X0.461250X0*%
%ADD19RoundRect,0.033750X-0.461250X0.101250X-0.461250X-0.101250X0.461250X-0.101250X0.461250X0.101250X0*%
%ADD20RoundRect,0.225000X0.225000X0.250000X-0.225000X0.250000X-0.225000X-0.250000X0.225000X-0.250000X0*%
%ADD21RoundRect,0.304347X1.295653X-0.395653X1.295653X0.395653X-1.295653X0.395653X-1.295653X-0.395653X0*%
%ADD22RoundRect,0.100000X-0.100000X0.495000X-0.100000X-0.495000X0.100000X-0.495000X0.100000X0.495000X0*%
%ADD23R,1.000000X0.599999*%
%ADD24R,0.558800X1.016000*%
%ADD25R,1.000000X0.900000*%
%ADD26RoundRect,0.200000X0.275000X-0.200000X0.275000X0.200000X-0.275000X0.200000X-0.275000X-0.200000X0*%
%ADD27R,0.600000X0.800000*%
%ADD28FreePoly0,180.000000*%
%ADD29R,0.600000X0.650000*%
%ADD30RoundRect,0.225000X-0.250000X0.225000X-0.250000X-0.225000X0.250000X-0.225000X0.250000X0.225000X0*%
%ADD31R,3.600000X1.270000*%
%ADD32R,4.200000X1.350000*%
%ADD33RoundRect,0.165000X0.165000X0.585000X-0.165000X0.585000X-0.165000X-0.585000X0.165000X-0.585000X0*%
%ADD34R,3.800000X1.000000*%
%ADD35R,1.000000X3.800000*%
%ADD36RoundRect,0.218750X-0.218750X-0.256250X0.218750X-0.256250X0.218750X0.256250X-0.218750X0.256250X0*%
%ADD37RoundRect,0.250000X1.100000X-0.325000X1.100000X0.325000X-1.100000X0.325000X-1.100000X-0.325000X0*%
%ADD38RoundRect,0.218750X0.218750X0.256250X-0.218750X0.256250X-0.218750X-0.256250X0.218750X-0.256250X0*%
G04 APERTURE END LIST*
D10*
%TO.C,U1*%
X145530000Y-101530000D02*
X143470000Y-101530000D01*
X143470000Y-99470000D01*
X145530000Y-99470000D01*
X145530000Y-101530000D01*
G36*
X145530000Y-101530000D02*
G01*
X143470000Y-101530000D01*
X143470000Y-99470000D01*
X145530000Y-99470000D01*
X145530000Y-101530000D01*
G37*
%TO.C,J4*%
X129260000Y-85495000D02*
X126855000Y-85495000D01*
X126855000Y-87900000D01*
X125855000Y-87900000D01*
X125855000Y-84495000D01*
X129260000Y-84495000D01*
X129260000Y-85495000D01*
G36*
X129260000Y-85495000D02*
G01*
X126855000Y-85495000D01*
X126855000Y-87900000D01*
X125855000Y-87900000D01*
X125855000Y-84495000D01*
X129260000Y-84495000D01*
X129260000Y-85495000D01*
G37*
X126855000Y-110505000D02*
X129260000Y-110505000D01*
X129260000Y-111505000D01*
X125855000Y-111505000D01*
X125855000Y-108100000D01*
X126855000Y-108100000D01*
X126855000Y-110505000D01*
G36*
X126855000Y-110505000D02*
G01*
X129260000Y-110505000D01*
X129260000Y-111505000D01*
X125855000Y-111505000D01*
X125855000Y-108100000D01*
X126855000Y-108100000D01*
X126855000Y-110505000D01*
G37*
X152865000Y-87900000D02*
X151865000Y-87900000D01*
X151865000Y-85495000D01*
X149460000Y-85495000D01*
X149460000Y-84495000D01*
X152865000Y-84495000D01*
X152865000Y-87900000D01*
G36*
X152865000Y-87900000D02*
G01*
X151865000Y-87900000D01*
X151865000Y-85495000D01*
X149460000Y-85495000D01*
X149460000Y-84495000D01*
X152865000Y-84495000D01*
X152865000Y-87900000D01*
G37*
X152865000Y-111505000D02*
X149460000Y-111505000D01*
X149460000Y-110505000D01*
X151865000Y-110505000D01*
X151865000Y-108100000D01*
X152865000Y-108100000D01*
X152865000Y-111505000D01*
G36*
X152865000Y-111505000D02*
G01*
X149460000Y-111505000D01*
X149460000Y-110505000D01*
X151865000Y-110505000D01*
X151865000Y-108100000D01*
X152865000Y-108100000D01*
X152865000Y-111505000D01*
G37*
%TD*%
D11*
%TO.C,R2*%
X155535000Y-93000000D03*
X157185000Y-93000000D03*
%TD*%
D12*
%TO.C,U2*%
X140360000Y-94500000D03*
X139860001Y-94212500D03*
X139360002Y-94212500D03*
X139360002Y-94787500D03*
X139860001Y-94787500D03*
%TD*%
D13*
%TO.C,C17*%
X137085000Y-103500000D03*
X138635000Y-103500000D03*
%TD*%
D14*
%TO.C,C10*%
X132360000Y-104275000D03*
X132360000Y-102725000D03*
%TD*%
%TO.C,C15*%
X141860000Y-94775000D03*
X141860000Y-93225000D03*
%TD*%
D13*
%TO.C,C13*%
X137085000Y-100000000D03*
X138635000Y-100000000D03*
%TD*%
D11*
%TO.C,R6*%
X155535000Y-85000000D03*
X157185000Y-85000000D03*
%TD*%
D14*
%TO.C,C16*%
X143360000Y-94775000D03*
X143360000Y-93225000D03*
%TD*%
D15*
%TO.C,C6*%
X134860000Y-106960000D03*
X134860000Y-108040000D03*
%TD*%
D16*
%TO.C,R5*%
X157185000Y-107500000D03*
X155535000Y-107500000D03*
%TD*%
D17*
%TO.C,LED1*%
X157756750Y-114000000D03*
X158963250Y-114000000D03*
%TD*%
D18*
%TO.C,U1*%
X146000000Y-98140000D03*
X145500000Y-98140000D03*
X145000000Y-98140000D03*
X144500000Y-98140000D03*
X144000000Y-98140000D03*
X143500000Y-98140000D03*
X143000000Y-98140000D03*
D19*
X142140000Y-99000000D03*
X142140000Y-99500000D03*
X142140000Y-100000000D03*
X142140000Y-100500000D03*
X142140000Y-101000000D03*
X142140000Y-101500000D03*
X142140000Y-102000000D03*
D18*
X143000000Y-102860000D03*
X143500000Y-102860000D03*
X144000000Y-102860000D03*
X144500000Y-102860000D03*
X145000000Y-102860000D03*
X145500000Y-102860000D03*
X146000000Y-102860000D03*
D19*
X146860000Y-102000000D03*
X146860000Y-101500000D03*
X146860000Y-101000000D03*
X146860000Y-100500000D03*
X146860000Y-100000000D03*
X146860000Y-99500000D03*
X146860000Y-99000000D03*
%TD*%
D20*
%TO.C,C1*%
X150635000Y-100500000D03*
X149085000Y-100500000D03*
%TD*%
D21*
%TO.C,C3*%
X147360000Y-93750000D03*
X147360000Y-91250000D03*
%TD*%
D22*
%TO.C,U3*%
X144010000Y-87540000D03*
X143360000Y-87540000D03*
X142710000Y-87540000D03*
X142710000Y-89460000D03*
X144010000Y-89460000D03*
%TD*%
D13*
%TO.C,C4*%
X125085000Y-83000000D03*
X126635000Y-83000000D03*
%TD*%
D11*
%TO.C,R3*%
X155535000Y-91000000D03*
X157185000Y-91000000D03*
%TD*%
D14*
%TO.C,C27*%
X140860000Y-88775000D03*
X140860000Y-87225000D03*
%TD*%
D22*
%TO.C,U4*%
X131510000Y-87540000D03*
X130860000Y-87540000D03*
X130210000Y-87540000D03*
X130210000Y-89460000D03*
X131510000Y-89460000D03*
%TD*%
D23*
%TO.C,U5*%
X130110000Y-106049999D03*
X130110000Y-107000000D03*
X130110000Y-107949998D03*
X132860000Y-107949998D03*
X132860000Y-106049999D03*
%TD*%
D24*
%TO.C,U6*%
X156959998Y-111500000D03*
X158860000Y-111500000D03*
X157909999Y-109214000D03*
%TD*%
D14*
%TO.C,C25*%
X139360000Y-88775000D03*
X139360000Y-87225000D03*
%TD*%
D11*
%TO.C,R4*%
X155535000Y-89000000D03*
X157185000Y-89000000D03*
%TD*%
D25*
%TO.C,Y1*%
X137047500Y-108112500D03*
X138672500Y-108112500D03*
X138672500Y-106887500D03*
X137047500Y-106887500D03*
%TD*%
D11*
%TO.C,R7*%
X155535000Y-106000000D03*
X157185000Y-106000000D03*
%TD*%
D14*
%TO.C,C29*%
X130360000Y-93000000D03*
X130360000Y-91450000D03*
%TD*%
%TO.C,C28*%
X131860000Y-93000000D03*
X131860000Y-91450000D03*
%TD*%
D11*
%TO.C,R8*%
X155535000Y-86500000D03*
X157185000Y-86500000D03*
%TD*%
D14*
%TO.C,C2*%
X150360000Y-94275000D03*
X150360000Y-92725000D03*
%TD*%
D13*
%TO.C,C14*%
X137085000Y-101500000D03*
X138635000Y-101500000D03*
%TD*%
D26*
%TO.C,R9*%
X155360000Y-111325000D03*
X155360000Y-109675000D03*
%TD*%
D20*
%TO.C,C23*%
X128635000Y-113000000D03*
X127085000Y-113000000D03*
%TD*%
D27*
%TO.C,FL1*%
X128860000Y-81000000D03*
D28*
X127860000Y-81625000D03*
D29*
X127860000Y-80375000D03*
D27*
X126860000Y-81000000D03*
%TD*%
D13*
%TO.C,C18*%
X137085000Y-105000000D03*
X138635000Y-105000000D03*
%TD*%
D30*
%TO.C,C22*%
X145360000Y-106725000D03*
X145360000Y-108275000D03*
%TD*%
D31*
%TO.C,J1*%
X157922500Y-100500000D03*
D32*
X157722500Y-103325000D03*
X157722500Y-97675000D03*
%TD*%
D33*
%TO.C,C8*%
X132400000Y-96500000D03*
X131320000Y-96500000D03*
%TD*%
D14*
%TO.C,C24*%
X137860000Y-88775000D03*
X137860000Y-87225000D03*
%TD*%
D30*
%TO.C,C21*%
X146860000Y-106725000D03*
X146860000Y-108275000D03*
%TD*%
D26*
%TO.C,R1*%
X132360000Y-100325000D03*
X132360000Y-98675000D03*
%TD*%
D34*
%TO.C,J4*%
X133360000Y-111005000D03*
X139360000Y-111005000D03*
X145360000Y-111005000D03*
D35*
X152365000Y-104000000D03*
X152365000Y-98000000D03*
X152365000Y-92000000D03*
D34*
X145360000Y-84995000D03*
X139360000Y-84995000D03*
X133360000Y-84995000D03*
D35*
X126355000Y-92000000D03*
X126355000Y-98000000D03*
X126355000Y-104000000D03*
%TD*%
D14*
%TO.C,C7*%
X130860000Y-100275000D03*
X130860000Y-98725000D03*
%TD*%
D13*
%TO.C,C11*%
X134585000Y-96500000D03*
X136135000Y-96500000D03*
%TD*%
%TO.C,C20*%
X148810000Y-106000000D03*
X150360000Y-106000000D03*
%TD*%
D36*
%TO.C,L2*%
X127072500Y-115000000D03*
X128647500Y-115000000D03*
%TD*%
D14*
%TO.C,C9*%
X130860000Y-104275000D03*
X130860000Y-102725000D03*
%TD*%
D13*
%TO.C,C19*%
X148810000Y-104490000D03*
X150360000Y-104490000D03*
%TD*%
D37*
%TO.C,C5*%
X141860000Y-107975000D03*
X141860000Y-105025000D03*
%TD*%
D13*
%TO.C,C12*%
X134585000Y-98000000D03*
X136135000Y-98000000D03*
%TD*%
D38*
%TO.C,L1*%
X150647500Y-98500000D03*
X149072500Y-98500000D03*
%TD*%
D14*
%TO.C,C26*%
X133360000Y-93000000D03*
X133360000Y-91450000D03*
%TD*%
M02*
