M48
; DRILL file {KiCad 9.0.4} date 2025-09-18T03:32:40+0900
; FORMAT={-:-/ absolute / metric / decimal}
; #@! TF.CreationDate,2025-09-18T03:32:40+09:00
; #@! TF.GenerationSoftware,Kicad,Pcbnew,9.0.4
; #@! TF.FileFunction,MixedPlating,1,4
FMAT,2
METRIC
; #@! TA.AperFunction,Plated,PTH,ViaDrill
T1C0.300
; #@! TA.AperFunction,Plated,PTH,ComponentDrill
T2C0.600
; #@! TA.AperFunction,Plated,PTH,ComponentDrill
T3C0.800
; #@! TA.AperFunction,Plated,PTH,ComponentDrill
T4C0.889
; #@! TA.AperFunction,Plated,PTH,ComponentDrill
T5C1.000
; #@! TA.AperFunction,Plated,PTH,ComponentDrill
T6C2.700
; #@! TA.AperFunction,NonPlated,NPTH,ComponentDrill
T7C3.200
%
G90
G05
T1
X91.186Y-80.264
X91.186Y-81.026
X91.186Y-81.788
X91.186Y-82.55
X91.821Y-80.264
X91.821Y-81.026
X91.821Y-81.788
X91.821Y-82.55
X92.456Y-80.264
X92.456Y-81.026
X92.456Y-81.788
X92.456Y-82.55
X92.657Y-110.295
X92.657Y-113.295
X93.091Y-80.264
X93.091Y-81.026
X93.091Y-81.788
X93.091Y-82.55
X93.657Y-106.295
X93.657Y-107.295
X93.657Y-110.295
X93.657Y-113.295
X93.657Y-114.295
X94.615Y-90.297
X94.657Y-106.295
X94.657Y-107.295
X94.657Y-108.295
X94.657Y-109.295
X94.657Y-110.295
X94.657Y-111.295
X94.657Y-112.295
X94.657Y-113.295
X94.657Y-114.295
X94.657Y-115.295
X94.996Y-79.502
X95.25Y-91.059
X95.631Y-90.297
X95.657Y-100.295
X95.657Y-101.295
X95.657Y-102.295
X95.657Y-103.295
X95.657Y-106.295
X95.657Y-107.295
X95.657Y-108.295
X95.657Y-109.295
X95.657Y-110.295
X95.657Y-111.295
X95.657Y-112.295
X95.657Y-113.295
X95.657Y-114.295
X95.657Y-115.295
X95.657Y-116.295
X96.266Y-91.059
X96.266Y-91.948
X96.647Y-90.297
X96.657Y-100.295
X96.657Y-101.295
X96.657Y-102.295
X96.657Y-103.295
X96.657Y-106.295
X96.657Y-107.295
X96.657Y-108.295
X96.657Y-109.295
X96.657Y-110.295
X96.657Y-111.295
X96.657Y-112.295
X96.657Y-113.295
X96.657Y-114.295
X96.657Y-115.295
X96.657Y-116.295
X96.657Y-117.295
X97.028Y-84.455
X97.282Y-91.059
X97.282Y-91.948
X97.657Y-102.295
X97.657Y-103.295
X97.657Y-106.295
X97.657Y-107.295
X97.657Y-108.295
X97.657Y-109.295
X97.657Y-110.295
X97.657Y-111.295
X97.657Y-112.295
X97.657Y-113.295
X97.657Y-114.295
X97.657Y-115.295
X97.657Y-116.295
X97.657Y-117.295
X98.171Y-88.138
X98.298Y-91.948
X98.552Y-80.137
X98.552Y-80.899
X98.552Y-81.661
X98.552Y-82.423
X98.6Y-106.3
X98.6Y-107.3
X98.6Y-108.3
X98.6Y-109.3
X98.657Y-113.295
X98.657Y-114.295
X98.657Y-115.295
X98.657Y-116.295
X99.157Y-100.295
X99.157Y-101.295
X99.157Y-102.295
X99.157Y-103.295
X99.187Y-80.137
X99.187Y-80.899
X99.187Y-81.661
X99.187Y-82.423
X99.6Y-107.3
X99.6Y-108.3
X99.6Y-109.3
X99.657Y-114.295
X99.657Y-116.295
X99.657Y-118.295
X99.657Y-119.295
X99.657Y-120.295
X99.822Y-80.137
X99.822Y-80.899
X99.822Y-81.661
X99.822Y-82.423
X100.157Y-100.295
X100.157Y-101.295
X100.157Y-102.295
X100.157Y-103.295
X100.457Y-80.137
X100.457Y-80.899
X100.457Y-81.661
X100.457Y-82.423
X100.657Y-119.295
X100.657Y-120.295
X102.157Y-112.809
X102.157Y-113.809
X103.157Y-112.809
X103.157Y-113.809
X103.498Y-80.741
X103.498Y-81.741
X103.498Y-82.741
X103.498Y-83.741
X103.498Y-84.741
X103.498Y-85.741
X103.498Y-86.741
X103.498Y-87.741
X104.157Y-112.809
X104.157Y-113.809
X104.498Y-80.741
X104.498Y-81.741
X104.498Y-82.741
X104.498Y-83.741
X104.498Y-84.741
X104.498Y-85.741
X104.498Y-86.741
X104.498Y-87.741
X104.498Y-88.741
X105.157Y-112.809
X105.157Y-113.809
X106.157Y-112.809
X106.157Y-113.809
X106.657Y-94.809
X106.657Y-95.809
X106.657Y-96.809
X106.657Y-97.809
X106.657Y-98.809
X106.657Y-99.809
X106.657Y-100.809
X106.657Y-101.809
X106.657Y-102.809
X106.657Y-103.809
X106.657Y-104.809
X106.657Y-105.809
X106.657Y-106.809
X106.998Y-80.741
X106.998Y-82.741
X106.998Y-83.741
X106.998Y-84.741
X106.998Y-85.741
X106.998Y-86.741
X106.998Y-87.741
X106.998Y-88.741
X107.0Y-89.7
X107.0Y-90.6
X107.0Y-91.5
X107.157Y-112.809
X107.157Y-113.809
X107.657Y-94.809
X107.657Y-95.809
X107.657Y-96.809
X107.657Y-97.809
X107.657Y-98.809
X107.657Y-99.809
X107.657Y-100.809
X107.657Y-101.809
X107.657Y-102.809
X107.657Y-103.809
X107.657Y-104.809
X107.657Y-105.809
X107.657Y-106.809
X107.998Y-83.741
X107.998Y-84.741
X107.998Y-85.741
X107.998Y-86.741
X107.998Y-87.741
X107.998Y-88.741
X108.0Y-75.1
X108.0Y-76.1
X108.0Y-77.1
X108.0Y-78.0
X108.0Y-89.7
X108.0Y-90.6
X108.0Y-91.5
X108.157Y-112.809
X108.157Y-113.809
X108.657Y-95.809
X108.657Y-96.809
X108.657Y-97.809
X108.657Y-98.809
X108.657Y-99.809
X108.657Y-100.809
X108.657Y-101.809
X108.657Y-102.809
X108.657Y-103.809
X108.657Y-104.809
X108.657Y-105.809
X108.657Y-106.809
X108.998Y-82.741
X108.998Y-83.741
X108.998Y-84.741
X108.998Y-85.741
X108.998Y-86.741
X108.998Y-87.741
X108.998Y-88.741
X109.0Y-89.7
X109.0Y-90.6
X109.0Y-91.5
X109.157Y-112.809
X109.157Y-113.809
X109.2Y-77.1
X109.2Y-78.0
X109.2Y-78.9
X109.201Y-76.1
X109.657Y-95.809
X109.657Y-96.809
X109.657Y-97.809
X109.657Y-98.809
X109.657Y-99.809
X109.657Y-100.809
X109.657Y-101.809
X109.657Y-102.809
X109.657Y-103.809
X109.657Y-104.809
X109.657Y-105.809
X109.657Y-106.809
X109.998Y-82.741
X109.998Y-83.741
X109.998Y-84.741
X109.998Y-85.741
X109.998Y-86.741
X109.998Y-87.741
X109.998Y-88.741
X110.0Y-89.7
X110.0Y-90.6
X110.0Y-91.5
X110.157Y-112.809
X110.157Y-113.809
X110.157Y-114.809
X110.657Y-95.809
X110.657Y-96.809
X110.657Y-97.785
X110.657Y-98.809
X110.657Y-99.809
X110.657Y-100.809
X110.657Y-101.809
X110.657Y-102.809
X110.657Y-103.809
X110.657Y-104.809
X110.657Y-105.809
X110.657Y-106.809
X110.998Y-83.741
X110.998Y-84.741
X110.998Y-85.741
X110.998Y-86.741
X110.998Y-87.741
X110.998Y-88.741
X111.0Y-89.7
X111.0Y-90.6
X111.0Y-91.5
X111.157Y-112.809
X111.157Y-113.809
X111.157Y-114.809
X111.157Y-115.809
X111.657Y-95.809
X111.657Y-96.809
X111.657Y-97.809
X111.657Y-98.809
X111.657Y-99.809
X111.657Y-100.809
X111.657Y-101.809
X111.657Y-102.809
X111.657Y-103.809
X111.657Y-104.809
X111.657Y-105.809
X111.657Y-106.809
X112.157Y-112.809
X112.157Y-113.809
X112.157Y-114.809
X112.157Y-115.809
X113.157Y-112.809
X113.157Y-113.809
X113.157Y-114.809
X113.157Y-115.809
X113.157Y-116.809
X113.157Y-117.809
X114.157Y-112.809
X114.157Y-113.809
X114.157Y-114.809
X114.157Y-115.809
X114.157Y-116.809
X114.157Y-117.809
X115.157Y-109.809
X115.157Y-110.809
X115.157Y-111.809
X115.157Y-112.809
X115.157Y-113.809
X115.157Y-114.809
X115.157Y-115.809
X115.157Y-116.809
X115.157Y-117.809
X116.157Y-109.809
X116.157Y-110.809
X116.157Y-111.809
X116.157Y-112.809
X116.157Y-113.809
X116.157Y-114.809
X116.157Y-115.809
X116.157Y-116.809
X116.157Y-117.809
X117.157Y-109.809
X117.157Y-110.809
X117.157Y-111.809
X117.157Y-112.809
X117.157Y-113.809
X117.157Y-114.809
X117.157Y-115.809
X117.157Y-116.809
X117.157Y-117.809
X118.157Y-91.309
X118.157Y-92.309
X118.157Y-93.309
X118.157Y-94.309
X118.157Y-95.309
X118.157Y-96.309
X118.157Y-105.809
X118.157Y-106.809
X118.157Y-107.809
X118.157Y-108.809
X118.157Y-109.809
X118.157Y-110.809
X118.157Y-111.809
X118.157Y-112.809
X118.157Y-113.809
X118.157Y-114.809
X118.157Y-115.809
X118.157Y-116.809
X118.157Y-117.809
X119.157Y-91.309
X119.157Y-92.309
X119.157Y-93.309
X119.157Y-94.309
X119.157Y-95.309
X119.157Y-96.309
X119.157Y-97.309
X119.157Y-105.809
X119.157Y-106.809
X119.157Y-107.809
X119.157Y-108.809
X119.157Y-109.809
X119.157Y-110.809
X119.157Y-111.809
X119.157Y-112.809
X119.157Y-113.809
X119.157Y-114.809
X119.157Y-115.809
X119.157Y-116.809
X120.157Y-91.309
X120.157Y-92.309
X120.157Y-93.309
X120.157Y-94.309
X120.157Y-95.309
X120.157Y-96.309
X120.157Y-97.309
X120.157Y-105.809
X120.157Y-106.809
X120.157Y-107.809
X120.157Y-108.809
X120.157Y-109.809
X120.157Y-110.809
X120.157Y-111.809
X120.157Y-112.809
X120.157Y-113.809
X120.157Y-114.809
X120.498Y-79.741
X120.498Y-83.241
X120.498Y-84.241
X121.157Y-91.309
X121.157Y-92.309
X121.157Y-95.309
X121.157Y-96.309
X121.157Y-97.309
X121.157Y-109.809
X121.157Y-110.809
X121.157Y-111.809
X121.157Y-112.809
X121.157Y-113.809
X121.157Y-114.809
X121.498Y-79.741
X121.498Y-80.741
X121.498Y-83.241
X121.498Y-84.241
X121.498Y-85.241
X121.498Y-87.051
X122.157Y-91.309
X122.157Y-92.309
X122.157Y-95.309
X122.157Y-96.309
X122.157Y-97.309
X122.157Y-109.809
X122.157Y-110.809
X122.157Y-111.809
X122.157Y-112.809
X122.157Y-113.809
X122.157Y-114.809
X122.498Y-79.741
X122.498Y-80.741
X122.498Y-83.241
X122.498Y-84.241
X122.498Y-85.241
X122.498Y-87.051
X123.157Y-91.309
X123.157Y-92.309
X123.157Y-93.309
X123.157Y-94.309
X123.157Y-95.309
X123.157Y-96.309
X123.157Y-97.309
X123.16Y-87.578
X123.498Y-79.741
X123.498Y-83.241
X123.498Y-84.241
X123.498Y-85.241
X123.66Y-88.078
X124.16Y-88.578
X124.498Y-79.741
X124.498Y-80.741
X124.498Y-83.241
X124.5Y-84.25
X124.5Y-85.25
X125.49Y-83.23
X125.492Y-84.239
X125.492Y-85.239
X125.498Y-79.741
X125.498Y-80.741
X125.498Y-81.741
X125.5Y-92.014
X126.657Y-114.309
X126.657Y-115.309
X126.657Y-116.309
X126.657Y-117.309
X126.657Y-118.309
X126.657Y-119.309
X126.657Y-120.309
X126.657Y-121.309
X127.657Y-103.809
X127.657Y-114.309
X127.657Y-115.309
X127.657Y-116.309
X127.657Y-117.309
X127.657Y-118.309
X127.657Y-119.309
X127.657Y-120.309
X127.657Y-121.309
X128.157Y-103.309
X128.157Y-104.309
X128.657Y-103.809
X128.657Y-105.809
X128.657Y-106.809
X128.657Y-119.309
X128.657Y-120.309
X128.657Y-121.309
X129.157Y-104.809
X130.0Y-80.514
X130.157Y-104.809
X130.157Y-108.309
X130.157Y-109.809
X131.0Y-80.514
X132.0Y-80.514
X132.0Y-125.514
X132.657Y-91.809
X132.657Y-93.309
X132.657Y-94.809
X132.657Y-96.309
X132.657Y-97.809
X132.657Y-99.309
X132.657Y-100.809
X132.657Y-102.309
X132.657Y-119.809
X132.657Y-120.809
X133.0Y-80.514
X133.0Y-123.514
X133.0Y-124.514
X133.0Y-125.514
X133.657Y-106.809
X133.657Y-108.309
X133.657Y-109.809
X133.657Y-111.309
X133.657Y-112.309
X133.657Y-113.809
X134.0Y-80.514
X134.0Y-123.514
X134.0Y-124.514
X134.0Y-125.514
X135.0Y-80.514
X136.0Y-77.0
X137.0Y-77.0
X138.0Y-77.0
T3
X103.037Y-117.809
X103.037Y-122.809
X110.657Y-117.809
X110.657Y-122.809
T4
X105.608Y-81.741
X108.148Y-81.741
X108.68Y-93.785
X108.68Y-108.285
X110.688Y-81.741
X111.22Y-93.785
X111.22Y-108.285
X115.768Y-81.741
X116.3Y-93.785
X116.3Y-108.285
X118.308Y-81.741
X120.848Y-81.741
X121.38Y-93.785
X121.38Y-108.285
X123.388Y-81.741
T5
X97.857Y-93.545
X97.857Y-96.045
X97.857Y-98.545
X97.857Y-101.045
X137.19Y-79.34
X137.19Y-81.88
X137.19Y-84.42
X137.19Y-86.96
X137.19Y-89.5
X137.19Y-92.04
X137.19Y-94.58
X137.19Y-97.12
X137.19Y-99.66
X137.19Y-102.2
X137.19Y-104.74
X137.19Y-107.28
X137.19Y-109.82
X137.19Y-112.36
X137.19Y-114.9
X137.19Y-117.44
X139.73Y-79.34
X139.73Y-81.88
X139.73Y-84.42
X139.73Y-86.96
X139.73Y-89.5
X139.73Y-92.04
X139.73Y-94.58
X139.73Y-97.12
X139.73Y-99.66
X139.73Y-102.2
X139.73Y-104.74
X139.73Y-107.28
X139.73Y-109.82
X139.73Y-112.36
X139.73Y-114.9
X139.73Y-117.44
X142.27Y-79.34
X142.27Y-81.88
X142.27Y-84.42
X142.27Y-86.96
X142.27Y-89.5
X142.27Y-92.04
X142.27Y-94.58
X142.27Y-97.12
X142.27Y-99.66
X142.27Y-102.2
X142.27Y-104.74
X142.27Y-107.28
X142.27Y-109.82
X142.27Y-112.36
X142.27Y-114.9
X142.27Y-117.44
X144.81Y-79.34
X144.81Y-81.88
X144.81Y-84.42
X144.81Y-86.96
X144.81Y-89.5
X144.81Y-92.04
X144.81Y-94.58
X144.81Y-97.12
X144.81Y-99.66
X144.81Y-102.2
X144.81Y-104.74
X144.81Y-107.28
X144.81Y-109.82
X144.81Y-112.36
X144.81Y-114.9
X144.81Y-117.44
T6
X105.601Y-76.327
X112.801Y-76.327
X123.635Y-76.358
X130.835Y-76.358
T7
X93.657Y-72.825
X93.657Y-122.795
X143.657Y-72.818
X143.657Y-122.795
T2
G00X102.451Y-70.877
M15
G01X102.451Y-69.777
M16
G05
G00X115.951Y-70.877
M15
G01X115.951Y-69.777
M16
G05
G00X120.485Y-70.908
M15
G01X120.485Y-69.808
M16
G05
G00X133.985Y-70.908
M15
G01X133.985Y-69.808
M16
G05
M30
