%TF.GenerationSoftware,KiCad,Pcbnew,9.0.4*%
%TF.CreationDate,2025-09-17T23:15:16+09:00*%
%TF.ProjectId,CAN_Isolation_mini,43414e5f-4973-46f6-9c61-74696f6e5f6d,Ver.1.0*%
%TF.SameCoordinates,Original*%
%TF.FileFunction,Drillmap*%
%TF.FilePolarity,Positive*%
%FSLAX45Y45*%
G04 Gerber Fmt 4.5, Leading zero omitted, Abs format (unit mm)*
G04 Created by KiCad (PCBNEW 9.0.4) date 2025-09-17 23:15:16*
%MOMM*%
%LPD*%
G01*
G04 APERTURE LIST*
%ADD10C,0.050000*%
%ADD11C,0.200000*%
%ADD12C,0.100000*%
%ADD13C,0.270000*%
%ADD14C,0.320000*%
G04 APERTURE END LIST*
D10*
X8865710Y-5779490D02*
X14865709Y-5779490D01*
X14865709Y-12782790D01*
X8865710Y-12782790D01*
X8865710Y-5779490D01*
D11*
D12*
X9103600Y-7693900D02*
X9133600Y-7723900D01*
X9133600Y-7693900D02*
X9103600Y-7723900D01*
X9103600Y-7770100D02*
X9133600Y-7800100D01*
X9133600Y-7770100D02*
X9103600Y-7800100D01*
X9103600Y-7846300D02*
X9133600Y-7876300D01*
X9133600Y-7846300D02*
X9103600Y-7876300D01*
X9167100Y-7693900D02*
X9197100Y-7723900D01*
X9197100Y-7693900D02*
X9167100Y-7723900D01*
X9167100Y-7770100D02*
X9197100Y-7800100D01*
X9197100Y-7770100D02*
X9167100Y-7800100D01*
X9167100Y-7846300D02*
X9197100Y-7876300D01*
X9197100Y-7846300D02*
X9167100Y-7876300D01*
X9230600Y-7693900D02*
X9260600Y-7723900D01*
X9260600Y-7693900D02*
X9230600Y-7723900D01*
X9230600Y-7770100D02*
X9260600Y-7800100D01*
X9260600Y-7770100D02*
X9230600Y-7800100D01*
X9230600Y-7846300D02*
X9260600Y-7876300D01*
X9260600Y-7846300D02*
X9230600Y-7876300D01*
X9250710Y-11014491D02*
X9280710Y-11044491D01*
X9280710Y-11014491D02*
X9250710Y-11044491D01*
X9250710Y-11314490D02*
X9280710Y-11344490D01*
X9280710Y-11314490D02*
X9250710Y-11344490D01*
X9350710Y-8414491D02*
X9380710Y-8444491D01*
X9380710Y-8414491D02*
X9350710Y-8444491D01*
X9350710Y-10614491D02*
X9380710Y-10644491D01*
X9380710Y-10614491D02*
X9350710Y-10644491D01*
X9350710Y-10714491D02*
X9380710Y-10744491D01*
X9380710Y-10714491D02*
X9350710Y-10744491D01*
X9350710Y-11014491D02*
X9380710Y-11044491D01*
X9380710Y-11014491D02*
X9350710Y-11044491D01*
X9350710Y-11314490D02*
X9380710Y-11344490D01*
X9380710Y-11314490D02*
X9350710Y-11344490D01*
X9350710Y-11414490D02*
X9380710Y-11444490D01*
X9380710Y-11414490D02*
X9350710Y-11444490D01*
X9446500Y-9014700D02*
X9476500Y-9044700D01*
X9476500Y-9014700D02*
X9446500Y-9044700D01*
X9450710Y-10614491D02*
X9480710Y-10644491D01*
X9480710Y-10614491D02*
X9450710Y-10644491D01*
X9450710Y-10714491D02*
X9480710Y-10744491D01*
X9480710Y-10714491D02*
X9450710Y-10744491D01*
X9450710Y-10814491D02*
X9480710Y-10844491D01*
X9480710Y-10814491D02*
X9450710Y-10844491D01*
X9450710Y-10914491D02*
X9480710Y-10944491D01*
X9480710Y-10914491D02*
X9450710Y-10944491D01*
X9450710Y-11014491D02*
X9480710Y-11044491D01*
X9480710Y-11014491D02*
X9450710Y-11044491D01*
X9450710Y-11114491D02*
X9480710Y-11144491D01*
X9480710Y-11114491D02*
X9450710Y-11144491D01*
X9450710Y-11214490D02*
X9480710Y-11244490D01*
X9480710Y-11214490D02*
X9450710Y-11244490D01*
X9450710Y-11314490D02*
X9480710Y-11344490D01*
X9480710Y-11314490D02*
X9450710Y-11344490D01*
X9450710Y-11414490D02*
X9480710Y-11444490D01*
X9480710Y-11414490D02*
X9450710Y-11444490D01*
X9450710Y-11514490D02*
X9480710Y-11544490D01*
X9480710Y-11514490D02*
X9450710Y-11544490D01*
X9510000Y-9090900D02*
X9540000Y-9120900D01*
X9540000Y-9090900D02*
X9510000Y-9120900D01*
X9548100Y-9014700D02*
X9578100Y-9044700D01*
X9578100Y-9014700D02*
X9548100Y-9044700D01*
X9550710Y-10014491D02*
X9580710Y-10044491D01*
X9580710Y-10014491D02*
X9550710Y-10044491D01*
X9550710Y-10114491D02*
X9580710Y-10144491D01*
X9580710Y-10114491D02*
X9550710Y-10144491D01*
X9550710Y-10214491D02*
X9580710Y-10244491D01*
X9580710Y-10214491D02*
X9550710Y-10244491D01*
X9550710Y-10314491D02*
X9580710Y-10344491D01*
X9580710Y-10314491D02*
X9550710Y-10344491D01*
X9550710Y-10614491D02*
X9580710Y-10644491D01*
X9580710Y-10614491D02*
X9550710Y-10644491D01*
X9550710Y-10714491D02*
X9580710Y-10744491D01*
X9580710Y-10714491D02*
X9550710Y-10744491D01*
X9550710Y-10814491D02*
X9580710Y-10844491D01*
X9580710Y-10814491D02*
X9550710Y-10844491D01*
X9550710Y-10914491D02*
X9580710Y-10944491D01*
X9580710Y-10914491D02*
X9550710Y-10944491D01*
X9550710Y-11014491D02*
X9580710Y-11044491D01*
X9580710Y-11014491D02*
X9550710Y-11044491D01*
X9550710Y-11114491D02*
X9580710Y-11144491D01*
X9580710Y-11114491D02*
X9550710Y-11144491D01*
X9550710Y-11214490D02*
X9580710Y-11244490D01*
X9580710Y-11214490D02*
X9550710Y-11244490D01*
X9550710Y-11314490D02*
X9580710Y-11344490D01*
X9580710Y-11314490D02*
X9550710Y-11344490D01*
X9550710Y-11414490D02*
X9580710Y-11444490D01*
X9580710Y-11414490D02*
X9550710Y-11444490D01*
X9550710Y-11514490D02*
X9580710Y-11544490D01*
X9580710Y-11514490D02*
X9550710Y-11544490D01*
X9550710Y-11614490D02*
X9580710Y-11644490D01*
X9580710Y-11614490D02*
X9550710Y-11644490D01*
X9611600Y-9090900D02*
X9641600Y-9120900D01*
X9641600Y-9090900D02*
X9611600Y-9120900D01*
X9611600Y-9179800D02*
X9641600Y-9209800D01*
X9641600Y-9179800D02*
X9611600Y-9209800D01*
X9649700Y-9014700D02*
X9679700Y-9044700D01*
X9679700Y-9014700D02*
X9649700Y-9044700D01*
X9650710Y-10014491D02*
X9680710Y-10044491D01*
X9680710Y-10014491D02*
X9650710Y-10044491D01*
X9650710Y-10114491D02*
X9680710Y-10144491D01*
X9680710Y-10114491D02*
X9650710Y-10144491D01*
X9650710Y-10214491D02*
X9680710Y-10244491D01*
X9680710Y-10214491D02*
X9650710Y-10244491D01*
X9650710Y-10314491D02*
X9680710Y-10344491D01*
X9680710Y-10314491D02*
X9650710Y-10344491D01*
X9650710Y-10614491D02*
X9680710Y-10644491D01*
X9680710Y-10614491D02*
X9650710Y-10644491D01*
X9650710Y-10714491D02*
X9680710Y-10744491D01*
X9680710Y-10714491D02*
X9650710Y-10744491D01*
X9650710Y-10814491D02*
X9680710Y-10844491D01*
X9680710Y-10814491D02*
X9650710Y-10844491D01*
X9650710Y-10914491D02*
X9680710Y-10944491D01*
X9680710Y-10914491D02*
X9650710Y-10944491D01*
X9650710Y-11014491D02*
X9680710Y-11044491D01*
X9680710Y-11014491D02*
X9650710Y-11044491D01*
X9650710Y-11114491D02*
X9680710Y-11144491D01*
X9680710Y-11114491D02*
X9650710Y-11144491D01*
X9650710Y-11214490D02*
X9680710Y-11244490D01*
X9680710Y-11214490D02*
X9650710Y-11244490D01*
X9650710Y-11314490D02*
X9680710Y-11344490D01*
X9680710Y-11314490D02*
X9650710Y-11344490D01*
X9650710Y-11414490D02*
X9680710Y-11444490D01*
X9680710Y-11414490D02*
X9650710Y-11444490D01*
X9650710Y-11514490D02*
X9680710Y-11544490D01*
X9680710Y-11514490D02*
X9650710Y-11544490D01*
X9650710Y-11614490D02*
X9680710Y-11644490D01*
X9680710Y-11614490D02*
X9650710Y-11644490D01*
X9650710Y-11714490D02*
X9680710Y-11744490D01*
X9680710Y-11714490D02*
X9650710Y-11744490D01*
X9713200Y-9090900D02*
X9743200Y-9120900D01*
X9743200Y-9090900D02*
X9713200Y-9120900D01*
X9713200Y-9179800D02*
X9743200Y-9209800D01*
X9743200Y-9179800D02*
X9713200Y-9209800D01*
X9750710Y-10214491D02*
X9780710Y-10244491D01*
X9780710Y-10214491D02*
X9750710Y-10244491D01*
X9750710Y-10314491D02*
X9780710Y-10344491D01*
X9780710Y-10314491D02*
X9750710Y-10344491D01*
X9750710Y-10614491D02*
X9780710Y-10644491D01*
X9780710Y-10614491D02*
X9750710Y-10644491D01*
X9750710Y-10714491D02*
X9780710Y-10744491D01*
X9780710Y-10714491D02*
X9750710Y-10744491D01*
X9750710Y-10814491D02*
X9780710Y-10844491D01*
X9780710Y-10814491D02*
X9750710Y-10844491D01*
X9750710Y-10914491D02*
X9780710Y-10944491D01*
X9780710Y-10914491D02*
X9750710Y-10944491D01*
X9750710Y-11014491D02*
X9780710Y-11044491D01*
X9780710Y-11014491D02*
X9750710Y-11044491D01*
X9750710Y-11114491D02*
X9780710Y-11144491D01*
X9780710Y-11114491D02*
X9750710Y-11144491D01*
X9750710Y-11214490D02*
X9780710Y-11244490D01*
X9780710Y-11214490D02*
X9750710Y-11244490D01*
X9750710Y-11314490D02*
X9780710Y-11344490D01*
X9780710Y-11314490D02*
X9750710Y-11344490D01*
X9750710Y-11414490D02*
X9780710Y-11444490D01*
X9780710Y-11414490D02*
X9750710Y-11444490D01*
X9750710Y-11514490D02*
X9780710Y-11544490D01*
X9780710Y-11514490D02*
X9750710Y-11544490D01*
X9750710Y-11614490D02*
X9780710Y-11644490D01*
X9780710Y-11614490D02*
X9750710Y-11644490D01*
X9750710Y-11714490D02*
X9780710Y-11744490D01*
X9780710Y-11714490D02*
X9750710Y-11744490D01*
X9800710Y-7914490D02*
X9830710Y-7944490D01*
X9830710Y-7914490D02*
X9800710Y-7944490D01*
X9814800Y-9179800D02*
X9844800Y-9209800D01*
X9844800Y-9179800D02*
X9814800Y-9209800D01*
X9850710Y-10914491D02*
X9880710Y-10944491D01*
X9880710Y-10914491D02*
X9850710Y-10944491D01*
X9850710Y-11014491D02*
X9880710Y-11044491D01*
X9880710Y-11014491D02*
X9850710Y-11044491D01*
X9850710Y-11314490D02*
X9880710Y-11344490D01*
X9880710Y-11314490D02*
X9850710Y-11344490D01*
X9850710Y-11414490D02*
X9880710Y-11444490D01*
X9880710Y-11414490D02*
X9850710Y-11444490D01*
X9850710Y-11514490D02*
X9880710Y-11544490D01*
X9880710Y-11514490D02*
X9850710Y-11544490D01*
X9850710Y-11614490D02*
X9880710Y-11644490D01*
X9880710Y-11614490D02*
X9850710Y-11644490D01*
X9850710Y-11714490D02*
X9880710Y-11744490D01*
X9880710Y-11714490D02*
X9850710Y-11744490D01*
X9900710Y-10014491D02*
X9930710Y-10044491D01*
X9930710Y-10014491D02*
X9900710Y-10044491D01*
X9900710Y-10114491D02*
X9930710Y-10144491D01*
X9930710Y-10114491D02*
X9900710Y-10144491D01*
X9900710Y-10214491D02*
X9930710Y-10244491D01*
X9930710Y-10214491D02*
X9900710Y-10244491D01*
X9900710Y-10314491D02*
X9930710Y-10344491D01*
X9930710Y-10314491D02*
X9900710Y-10344491D01*
X9950710Y-11314490D02*
X9980710Y-11344490D01*
X9980710Y-11314490D02*
X9950710Y-11344490D01*
X9950710Y-11414490D02*
X9980710Y-11444490D01*
X9980710Y-11414490D02*
X9950710Y-11444490D01*
X9950710Y-11514490D02*
X9980710Y-11544490D01*
X9980710Y-11514490D02*
X9950710Y-11544490D01*
X9950710Y-11614490D02*
X9980710Y-11644490D01*
X9980710Y-11614490D02*
X9950710Y-11644490D01*
X9950710Y-11714490D02*
X9980710Y-11744490D01*
X9980710Y-11714490D02*
X9950710Y-11744490D01*
X9950710Y-11814490D02*
X9980710Y-11844490D01*
X9980710Y-11814490D02*
X9950710Y-11844490D01*
X9950710Y-11914490D02*
X9980710Y-11944490D01*
X9980710Y-11914490D02*
X9950710Y-11944490D01*
X9950710Y-12014490D02*
X9980710Y-12044490D01*
X9980710Y-12014490D02*
X9950710Y-12044490D01*
X10000710Y-10014491D02*
X10030710Y-10044491D01*
X10030710Y-10014491D02*
X10000710Y-10044491D01*
X10000710Y-10114491D02*
X10030710Y-10144491D01*
X10030710Y-10114491D02*
X10000710Y-10144491D01*
X10000710Y-10214491D02*
X10030710Y-10244491D01*
X10030710Y-10214491D02*
X10000710Y-10244491D01*
X10000710Y-10314491D02*
X10030710Y-10344491D01*
X10030710Y-10314491D02*
X10000710Y-10344491D01*
X10035000Y-7735000D02*
X10065000Y-7765000D01*
X10065000Y-7735000D02*
X10035000Y-7765000D01*
X10050710Y-11514490D02*
X10080710Y-11544490D01*
X10080710Y-11514490D02*
X10050710Y-11544490D01*
X10050710Y-11614490D02*
X10080710Y-11644490D01*
X10080710Y-11614490D02*
X10050710Y-11644490D01*
X10050710Y-11714490D02*
X10080710Y-11744490D01*
X10080710Y-11714490D02*
X10050710Y-11744490D01*
X10050710Y-11814490D02*
X10080710Y-11844490D01*
X10080710Y-11814490D02*
X10050710Y-11844490D01*
X10050710Y-11914490D02*
X10080710Y-11944490D01*
X10080710Y-11914490D02*
X10050710Y-11944490D01*
X10050710Y-12014490D02*
X10080710Y-12044490D01*
X10080710Y-12014490D02*
X10050710Y-12044490D01*
X10200710Y-10914491D02*
X10230710Y-10944491D01*
X10230710Y-10914491D02*
X10200710Y-10944491D01*
X10200710Y-11014491D02*
X10230710Y-11044491D01*
X10230710Y-11014491D02*
X10200710Y-11044491D01*
X10300710Y-10914491D02*
X10330710Y-10944491D01*
X10330710Y-10914491D02*
X10300710Y-10944491D01*
X10300710Y-11014491D02*
X10330710Y-11044491D01*
X10330710Y-11014491D02*
X10300710Y-11044491D01*
X10335000Y-7435000D02*
X10365000Y-7465000D01*
X10365000Y-7435000D02*
X10335000Y-7465000D01*
X10335000Y-7535000D02*
X10365000Y-7565000D01*
X10365000Y-7535000D02*
X10335000Y-7565000D01*
X10335000Y-7635000D02*
X10365000Y-7665000D01*
X10365000Y-7635000D02*
X10335000Y-7665000D01*
X10335000Y-7735000D02*
X10365000Y-7765000D01*
X10365000Y-7735000D02*
X10335000Y-7765000D01*
X10335000Y-7835000D02*
X10365000Y-7865000D01*
X10365000Y-7835000D02*
X10335000Y-7865000D01*
X10335000Y-7935000D02*
X10365000Y-7965000D01*
X10365000Y-7935000D02*
X10335000Y-7965000D01*
X10335000Y-8035000D02*
X10365000Y-8065000D01*
X10365000Y-8035000D02*
X10335000Y-8065000D01*
X10335000Y-8135000D02*
X10365000Y-8165000D01*
X10365000Y-8135000D02*
X10335000Y-8165000D01*
X10385000Y-8335000D02*
X10415000Y-8365000D01*
X10415000Y-8335000D02*
X10385000Y-8365000D01*
X10385000Y-8435000D02*
X10415000Y-8465000D01*
X10415000Y-8435000D02*
X10385000Y-8465000D01*
X10385000Y-8535000D02*
X10415000Y-8565000D01*
X10415000Y-8535000D02*
X10385000Y-8565000D01*
X10400710Y-10914491D02*
X10430710Y-10944491D01*
X10430710Y-10914491D02*
X10400710Y-10944491D01*
X10400710Y-11014491D02*
X10430710Y-11044491D01*
X10430710Y-11014491D02*
X10400710Y-11044491D01*
X10435000Y-7435000D02*
X10465000Y-7465000D01*
X10465000Y-7435000D02*
X10435000Y-7465000D01*
X10435000Y-7535000D02*
X10465000Y-7565000D01*
X10465000Y-7535000D02*
X10435000Y-7565000D01*
X10435000Y-7635000D02*
X10465000Y-7665000D01*
X10465000Y-7635000D02*
X10435000Y-7665000D01*
X10435000Y-7735000D02*
X10465000Y-7765000D01*
X10465000Y-7735000D02*
X10435000Y-7765000D01*
X10435000Y-7835000D02*
X10465000Y-7865000D01*
X10465000Y-7835000D02*
X10435000Y-7865000D01*
X10435000Y-7935000D02*
X10465000Y-7965000D01*
X10465000Y-7935000D02*
X10435000Y-7965000D01*
X10435000Y-8035000D02*
X10465000Y-8065000D01*
X10465000Y-8035000D02*
X10435000Y-8065000D01*
X10435000Y-8135000D02*
X10465000Y-8165000D01*
X10465000Y-8135000D02*
X10435000Y-8165000D01*
X10435000Y-8235000D02*
X10465000Y-8265000D01*
X10465000Y-8235000D02*
X10435000Y-8265000D01*
X10500710Y-10914491D02*
X10530710Y-10944491D01*
X10530710Y-10914491D02*
X10500710Y-10944491D01*
X10500710Y-11014491D02*
X10530710Y-11044491D01*
X10530710Y-11014491D02*
X10500710Y-11044491D01*
X10600710Y-10914491D02*
X10630710Y-10944491D01*
X10630710Y-10914491D02*
X10600710Y-10944491D01*
X10600710Y-11014491D02*
X10630710Y-11044491D01*
X10630710Y-11014491D02*
X10600710Y-11044491D01*
X10650710Y-9014491D02*
X10680710Y-9044491D01*
X10680710Y-9014491D02*
X10650710Y-9044491D01*
X10650710Y-9114491D02*
X10680710Y-9144491D01*
X10680710Y-9114491D02*
X10650710Y-9144491D01*
X10650710Y-9214491D02*
X10680710Y-9244491D01*
X10680710Y-9214491D02*
X10650710Y-9244491D01*
X10650710Y-9314491D02*
X10680710Y-9344491D01*
X10680710Y-9314491D02*
X10650710Y-9344491D01*
X10650710Y-9414491D02*
X10680710Y-9444491D01*
X10680710Y-9414491D02*
X10650710Y-9444491D01*
X10650710Y-9514491D02*
X10680710Y-9544491D01*
X10680710Y-9514491D02*
X10650710Y-9544491D01*
X10650710Y-9614491D02*
X10680710Y-9644491D01*
X10680710Y-9614491D02*
X10650710Y-9644491D01*
X10650710Y-9714491D02*
X10680710Y-9744491D01*
X10680710Y-9714491D02*
X10650710Y-9744491D01*
X10650710Y-9814491D02*
X10680710Y-9844491D01*
X10680710Y-9814491D02*
X10650710Y-9844491D01*
X10650710Y-9914491D02*
X10680710Y-9944491D01*
X10680710Y-9914491D02*
X10650710Y-9944491D01*
X10650710Y-10014491D02*
X10680710Y-10044491D01*
X10680710Y-10014491D02*
X10650710Y-10044491D01*
X10650710Y-10114491D02*
X10680710Y-10144491D01*
X10680710Y-10114491D02*
X10650710Y-10144491D01*
X10650710Y-10214491D02*
X10680710Y-10244491D01*
X10680710Y-10214491D02*
X10650710Y-10244491D01*
X10650710Y-10314491D02*
X10680710Y-10344491D01*
X10680710Y-10314491D02*
X10650710Y-10344491D01*
X10685000Y-7435000D02*
X10715000Y-7465000D01*
X10715000Y-7435000D02*
X10685000Y-7465000D01*
X10685000Y-7635000D02*
X10715000Y-7665000D01*
X10715000Y-7635000D02*
X10685000Y-7665000D01*
X10685000Y-7735000D02*
X10715000Y-7765000D01*
X10715000Y-7735000D02*
X10685000Y-7765000D01*
X10685000Y-7835000D02*
X10715000Y-7865000D01*
X10715000Y-7835000D02*
X10685000Y-7865000D01*
X10685000Y-7935000D02*
X10715000Y-7965000D01*
X10715000Y-7935000D02*
X10685000Y-7965000D01*
X10685000Y-8035000D02*
X10715000Y-8065000D01*
X10715000Y-8035000D02*
X10685000Y-8065000D01*
X10685000Y-8135000D02*
X10715000Y-8165000D01*
X10715000Y-8135000D02*
X10685000Y-8165000D01*
X10685000Y-8235000D02*
X10715000Y-8265000D01*
X10715000Y-8235000D02*
X10685000Y-8265000D01*
X10685000Y-8335000D02*
X10715000Y-8365000D01*
X10715000Y-8335000D02*
X10685000Y-8365000D01*
X10685000Y-8435000D02*
X10715000Y-8465000D01*
X10715000Y-8435000D02*
X10685000Y-8465000D01*
X10685000Y-8535000D02*
X10715000Y-8565000D01*
X10715000Y-8535000D02*
X10685000Y-8565000D01*
X10700710Y-10914491D02*
X10730710Y-10944491D01*
X10730710Y-10914491D02*
X10700710Y-10944491D01*
X10700710Y-11014491D02*
X10730710Y-11044491D01*
X10730710Y-11014491D02*
X10700710Y-11044491D01*
X10750710Y-9014491D02*
X10780710Y-9044491D01*
X10780710Y-9014491D02*
X10750710Y-9044491D01*
X10750710Y-9114491D02*
X10780710Y-9144491D01*
X10780710Y-9114491D02*
X10750710Y-9144491D01*
X10750710Y-9214491D02*
X10780710Y-9244491D01*
X10780710Y-9214491D02*
X10750710Y-9244491D01*
X10750710Y-9314491D02*
X10780710Y-9344491D01*
X10780710Y-9314491D02*
X10750710Y-9344491D01*
X10750710Y-9414491D02*
X10780710Y-9444491D01*
X10780710Y-9414491D02*
X10750710Y-9444491D01*
X10750710Y-9514491D02*
X10780710Y-9544491D01*
X10780710Y-9514491D02*
X10750710Y-9544491D01*
X10750710Y-9614491D02*
X10780710Y-9644491D01*
X10780710Y-9614491D02*
X10750710Y-9644491D01*
X10750710Y-9714491D02*
X10780710Y-9744491D01*
X10780710Y-9714491D02*
X10750710Y-9744491D01*
X10750710Y-9814491D02*
X10780710Y-9844491D01*
X10780710Y-9814491D02*
X10750710Y-9844491D01*
X10750710Y-9914491D02*
X10780710Y-9944491D01*
X10780710Y-9914491D02*
X10750710Y-9944491D01*
X10750710Y-10014491D02*
X10780710Y-10044491D01*
X10780710Y-10014491D02*
X10750710Y-10044491D01*
X10750710Y-10114491D02*
X10780710Y-10144491D01*
X10780710Y-10114491D02*
X10750710Y-10144491D01*
X10750710Y-10214491D02*
X10780710Y-10244491D01*
X10780710Y-10214491D02*
X10750710Y-10244491D01*
X10750710Y-10314491D02*
X10780710Y-10344491D01*
X10780710Y-10314491D02*
X10750710Y-10344491D01*
X10785000Y-7735000D02*
X10815000Y-7765000D01*
X10815000Y-7735000D02*
X10785000Y-7765000D01*
X10785000Y-7835000D02*
X10815000Y-7865000D01*
X10815000Y-7835000D02*
X10785000Y-7865000D01*
X10785000Y-7935000D02*
X10815000Y-7965000D01*
X10815000Y-7935000D02*
X10785000Y-7965000D01*
X10785000Y-8035000D02*
X10815000Y-8065000D01*
X10815000Y-8035000D02*
X10785000Y-8065000D01*
X10785000Y-8135000D02*
X10815000Y-8165000D01*
X10815000Y-8135000D02*
X10785000Y-8165000D01*
X10785000Y-8235000D02*
X10815000Y-8265000D01*
X10815000Y-8235000D02*
X10785000Y-8265000D01*
X10785000Y-8335000D02*
X10815000Y-8365000D01*
X10815000Y-8335000D02*
X10785000Y-8365000D01*
X10785000Y-8435000D02*
X10815000Y-8465000D01*
X10815000Y-8435000D02*
X10785000Y-8465000D01*
X10785000Y-8535000D02*
X10815000Y-8565000D01*
X10815000Y-8535000D02*
X10785000Y-8565000D01*
X10800710Y-10914491D02*
X10830710Y-10944491D01*
X10830710Y-10914491D02*
X10800710Y-10944491D01*
X10800710Y-11014491D02*
X10830710Y-11044491D01*
X10830710Y-11014491D02*
X10800710Y-11044491D01*
X10850710Y-9214491D02*
X10880710Y-9244491D01*
X10880710Y-9214491D02*
X10850710Y-9244491D01*
X10850710Y-9314491D02*
X10880710Y-9344491D01*
X10880710Y-9314491D02*
X10850710Y-9344491D01*
X10850710Y-9414491D02*
X10880710Y-9444491D01*
X10880710Y-9414491D02*
X10850710Y-9444491D01*
X10850710Y-9514491D02*
X10880710Y-9544491D01*
X10880710Y-9514491D02*
X10850710Y-9544491D01*
X10850710Y-9614491D02*
X10880710Y-9644491D01*
X10880710Y-9614491D02*
X10850710Y-9644491D01*
X10850710Y-9714491D02*
X10880710Y-9744491D01*
X10880710Y-9714491D02*
X10850710Y-9744491D01*
X10850710Y-9814491D02*
X10880710Y-9844491D01*
X10880710Y-9814491D02*
X10850710Y-9844491D01*
X10850710Y-9914491D02*
X10880710Y-9944491D01*
X10880710Y-9914491D02*
X10850710Y-9944491D01*
X10850710Y-10014491D02*
X10880710Y-10044491D01*
X10880710Y-10014491D02*
X10850710Y-10044491D01*
X10850710Y-10114491D02*
X10880710Y-10144491D01*
X10880710Y-10114491D02*
X10850710Y-10144491D01*
X10850710Y-10214491D02*
X10880710Y-10244491D01*
X10880710Y-10214491D02*
X10850710Y-10244491D01*
X10850710Y-10314491D02*
X10880710Y-10344491D01*
X10880710Y-10314491D02*
X10850710Y-10344491D01*
X10885000Y-7635000D02*
X10915000Y-7665000D01*
X10915000Y-7635000D02*
X10885000Y-7665000D01*
X10885000Y-7735000D02*
X10915000Y-7765000D01*
X10915000Y-7735000D02*
X10885000Y-7765000D01*
X10885000Y-7835000D02*
X10915000Y-7865000D01*
X10915000Y-7835000D02*
X10885000Y-7865000D01*
X10885000Y-7935000D02*
X10915000Y-7965000D01*
X10915000Y-7935000D02*
X10885000Y-7965000D01*
X10885000Y-8035000D02*
X10915000Y-8065000D01*
X10915000Y-8035000D02*
X10885000Y-8065000D01*
X10885000Y-8135000D02*
X10915000Y-8165000D01*
X10915000Y-8135000D02*
X10885000Y-8165000D01*
X10885000Y-8235000D02*
X10915000Y-8265000D01*
X10915000Y-8235000D02*
X10885000Y-8265000D01*
X10885000Y-8335000D02*
X10915000Y-8365000D01*
X10915000Y-8335000D02*
X10885000Y-8365000D01*
X10885000Y-8435000D02*
X10915000Y-8465000D01*
X10915000Y-8435000D02*
X10885000Y-8465000D01*
X10885000Y-8535000D02*
X10915000Y-8565000D01*
X10915000Y-8535000D02*
X10885000Y-8565000D01*
X10900710Y-10914491D02*
X10930710Y-10944491D01*
X10930710Y-10914491D02*
X10900710Y-10944491D01*
X10900710Y-11014491D02*
X10930710Y-11044491D01*
X10930710Y-11014491D02*
X10900710Y-11044491D01*
X10950710Y-9214491D02*
X10980710Y-9244491D01*
X10980710Y-9214491D02*
X10950710Y-9244491D01*
X10950710Y-9314491D02*
X10980710Y-9344491D01*
X10980710Y-9314491D02*
X10950710Y-9344491D01*
X10950710Y-9414491D02*
X10980710Y-9444491D01*
X10980710Y-9414491D02*
X10950710Y-9444491D01*
X10950710Y-9514491D02*
X10980710Y-9544491D01*
X10980710Y-9514491D02*
X10950710Y-9544491D01*
X10950710Y-9614491D02*
X10980710Y-9644491D01*
X10980710Y-9614491D02*
X10950710Y-9644491D01*
X10950710Y-9714491D02*
X10980710Y-9744491D01*
X10980710Y-9714491D02*
X10950710Y-9744491D01*
X10950710Y-9814491D02*
X10980710Y-9844491D01*
X10980710Y-9814491D02*
X10950710Y-9844491D01*
X10950710Y-9914491D02*
X10980710Y-9944491D01*
X10980710Y-9914491D02*
X10950710Y-9944491D01*
X10950710Y-10014491D02*
X10980710Y-10044491D01*
X10980710Y-10014491D02*
X10950710Y-10044491D01*
X10950710Y-10114491D02*
X10980710Y-10144491D01*
X10980710Y-10114491D02*
X10950710Y-10144491D01*
X10950710Y-10214491D02*
X10980710Y-10244491D01*
X10980710Y-10214491D02*
X10950710Y-10244491D01*
X10950710Y-10314491D02*
X10980710Y-10344491D01*
X10980710Y-10314491D02*
X10950710Y-10344491D01*
X10985000Y-7635000D02*
X11015000Y-7665000D01*
X11015000Y-7635000D02*
X10985000Y-7665000D01*
X10985000Y-7735000D02*
X11015000Y-7765000D01*
X11015000Y-7735000D02*
X10985000Y-7765000D01*
X10985000Y-7835000D02*
X11015000Y-7865000D01*
X11015000Y-7835000D02*
X10985000Y-7865000D01*
X10985000Y-7935000D02*
X11015000Y-7965000D01*
X11015000Y-7935000D02*
X10985000Y-7965000D01*
X10985000Y-8035000D02*
X11015000Y-8065000D01*
X11015000Y-8035000D02*
X10985000Y-8065000D01*
X10985000Y-8135000D02*
X11015000Y-8165000D01*
X11015000Y-8135000D02*
X10985000Y-8165000D01*
X10985000Y-8235000D02*
X11015000Y-8265000D01*
X11015000Y-8235000D02*
X10985000Y-8265000D01*
X10985000Y-8335000D02*
X11015000Y-8365000D01*
X11015000Y-8335000D02*
X10985000Y-8365000D01*
X10985000Y-8435000D02*
X11015000Y-8465000D01*
X11015000Y-8435000D02*
X10985000Y-8465000D01*
X10985000Y-8535000D02*
X11015000Y-8565000D01*
X11015000Y-8535000D02*
X10985000Y-8565000D01*
X11000710Y-10914491D02*
X11030710Y-10944491D01*
X11030710Y-10914491D02*
X11000710Y-10944491D01*
X11000710Y-11014491D02*
X11030710Y-11044491D01*
X11030710Y-11014491D02*
X11000710Y-11044491D01*
X11000710Y-11114491D02*
X11030710Y-11144491D01*
X11030710Y-11114491D02*
X11000710Y-11144491D01*
X11021300Y-6474700D02*
X11051300Y-6504700D01*
X11051300Y-6474700D02*
X11021300Y-6504700D01*
X11021300Y-6614400D02*
X11051300Y-6644400D01*
X11051300Y-6614400D02*
X11021300Y-6644400D01*
X11050710Y-9214491D02*
X11080710Y-9244491D01*
X11080710Y-9214491D02*
X11050710Y-9244491D01*
X11050710Y-9314491D02*
X11080710Y-9344491D01*
X11080710Y-9314491D02*
X11050710Y-9344491D01*
X11050710Y-9412091D02*
X11080710Y-9442091D01*
X11080710Y-9412091D02*
X11050710Y-9442091D01*
X11050710Y-9514491D02*
X11080710Y-9544491D01*
X11080710Y-9514491D02*
X11050710Y-9544491D01*
X11050710Y-9614491D02*
X11080710Y-9644491D01*
X11080710Y-9614491D02*
X11050710Y-9644491D01*
X11050710Y-9714491D02*
X11080710Y-9744491D01*
X11080710Y-9714491D02*
X11050710Y-9744491D01*
X11050710Y-9814491D02*
X11080710Y-9844491D01*
X11080710Y-9814491D02*
X11050710Y-9844491D01*
X11050710Y-9914491D02*
X11080710Y-9944491D01*
X11080710Y-9914491D02*
X11050710Y-9944491D01*
X11050710Y-10014491D02*
X11080710Y-10044491D01*
X11080710Y-10014491D02*
X11050710Y-10044491D01*
X11050710Y-10114491D02*
X11080710Y-10144491D01*
X11080710Y-10114491D02*
X11050710Y-10144491D01*
X11050710Y-10214491D02*
X11080710Y-10244491D01*
X11080710Y-10214491D02*
X11050710Y-10244491D01*
X11050710Y-10314491D02*
X11080710Y-10344491D01*
X11080710Y-10314491D02*
X11050710Y-10344491D01*
X11084800Y-6550900D02*
X11114800Y-6580900D01*
X11114800Y-6550900D02*
X11084800Y-6580900D01*
X11085000Y-7735000D02*
X11115000Y-7765000D01*
X11115000Y-7735000D02*
X11085000Y-7765000D01*
X11085000Y-7835000D02*
X11115000Y-7865000D01*
X11115000Y-7835000D02*
X11085000Y-7865000D01*
X11085000Y-7935000D02*
X11115000Y-7965000D01*
X11115000Y-7935000D02*
X11085000Y-7965000D01*
X11085000Y-8035000D02*
X11115000Y-8065000D01*
X11115000Y-8035000D02*
X11085000Y-8065000D01*
X11085000Y-8135000D02*
X11115000Y-8165000D01*
X11115000Y-8135000D02*
X11085000Y-8165000D01*
X11085000Y-8235000D02*
X11115000Y-8265000D01*
X11115000Y-8235000D02*
X11085000Y-8265000D01*
X11085000Y-8335000D02*
X11115000Y-8365000D01*
X11115000Y-8335000D02*
X11085000Y-8365000D01*
X11085000Y-8435000D02*
X11115000Y-8465000D01*
X11115000Y-8435000D02*
X11085000Y-8465000D01*
X11085000Y-8535000D02*
X11115000Y-8565000D01*
X11115000Y-8535000D02*
X11085000Y-8565000D01*
X11100710Y-10914491D02*
X11130710Y-10944491D01*
X11130710Y-10914491D02*
X11100710Y-10944491D01*
X11100710Y-11014491D02*
X11130710Y-11044491D01*
X11130710Y-11014491D02*
X11100710Y-11044491D01*
X11100710Y-11114491D02*
X11130710Y-11144491D01*
X11130710Y-11114491D02*
X11100710Y-11144491D01*
X11100710Y-11214490D02*
X11130710Y-11244490D01*
X11130710Y-11214490D02*
X11100710Y-11244490D01*
X11122900Y-6411200D02*
X11152900Y-6441200D01*
X11152900Y-6411200D02*
X11122900Y-6441200D01*
X11150710Y-9214491D02*
X11180710Y-9244491D01*
X11180710Y-9214491D02*
X11150710Y-9244491D01*
X11150710Y-9314491D02*
X11180710Y-9344491D01*
X11180710Y-9314491D02*
X11150710Y-9344491D01*
X11150710Y-9414491D02*
X11180710Y-9444491D01*
X11180710Y-9414491D02*
X11150710Y-9444491D01*
X11150710Y-9514491D02*
X11180710Y-9544491D01*
X11180710Y-9514491D02*
X11150710Y-9544491D01*
X11150710Y-9614491D02*
X11180710Y-9644491D01*
X11180710Y-9614491D02*
X11150710Y-9644491D01*
X11150710Y-9714491D02*
X11180710Y-9744491D01*
X11180710Y-9714491D02*
X11150710Y-9744491D01*
X11150710Y-9814491D02*
X11180710Y-9844491D01*
X11180710Y-9814491D02*
X11150710Y-9844491D01*
X11150710Y-9914491D02*
X11180710Y-9944491D01*
X11180710Y-9914491D02*
X11150710Y-9944491D01*
X11150710Y-10014491D02*
X11180710Y-10044491D01*
X11180710Y-10014491D02*
X11150710Y-10044491D01*
X11150710Y-10114491D02*
X11180710Y-10144491D01*
X11180710Y-10114491D02*
X11150710Y-10144491D01*
X11150710Y-10214491D02*
X11180710Y-10244491D01*
X11180710Y-10214491D02*
X11150710Y-10244491D01*
X11150710Y-10314491D02*
X11180710Y-10344491D01*
X11180710Y-10314491D02*
X11150710Y-10344491D01*
X11173700Y-6487400D02*
X11203700Y-6517400D01*
X11203700Y-6487400D02*
X11173700Y-6517400D01*
X11200709Y-10914491D02*
X11230709Y-10944491D01*
X11230709Y-10914491D02*
X11200709Y-10944491D01*
X11200709Y-11014491D02*
X11230709Y-11044491D01*
X11230709Y-11014491D02*
X11200709Y-11044491D01*
X11200709Y-11114491D02*
X11230709Y-11144491D01*
X11230709Y-11114491D02*
X11200709Y-11144491D01*
X11200709Y-11214490D02*
X11230709Y-11244490D01*
X11230709Y-11214490D02*
X11200709Y-11244490D01*
X11300709Y-10914491D02*
X11330709Y-10944491D01*
X11330709Y-10914491D02*
X11300709Y-10944491D01*
X11300709Y-11014491D02*
X11330709Y-11044491D01*
X11330709Y-11014491D02*
X11300709Y-11044491D01*
X11300709Y-11114491D02*
X11330709Y-11144491D01*
X11330709Y-11114491D02*
X11300709Y-11144491D01*
X11300709Y-11214490D02*
X11330709Y-11244490D01*
X11330709Y-11214490D02*
X11300709Y-11244490D01*
X11300709Y-11314490D02*
X11330709Y-11344490D01*
X11330709Y-11314490D02*
X11300709Y-11344490D01*
X11300709Y-11414490D02*
X11330709Y-11444490D01*
X11330709Y-11414490D02*
X11300709Y-11444490D01*
X11400709Y-10914491D02*
X11430709Y-10944491D01*
X11430709Y-10914491D02*
X11400709Y-10944491D01*
X11400709Y-11014491D02*
X11430709Y-11044491D01*
X11430709Y-11014491D02*
X11400709Y-11044491D01*
X11400709Y-11114491D02*
X11430709Y-11144491D01*
X11430709Y-11114491D02*
X11400709Y-11144491D01*
X11400709Y-11214490D02*
X11430709Y-11244490D01*
X11430709Y-11214490D02*
X11400709Y-11244490D01*
X11400709Y-11314490D02*
X11430709Y-11344490D01*
X11430709Y-11314490D02*
X11400709Y-11344490D01*
X11400709Y-11414490D02*
X11430709Y-11444490D01*
X11430709Y-11414490D02*
X11400709Y-11444490D01*
X11500709Y-10614491D02*
X11530709Y-10644491D01*
X11530709Y-10614491D02*
X11500709Y-10644491D01*
X11500709Y-10714491D02*
X11530709Y-10744491D01*
X11530709Y-10714491D02*
X11500709Y-10744491D01*
X11500709Y-10814491D02*
X11530709Y-10844491D01*
X11530709Y-10814491D02*
X11500709Y-10844491D01*
X11500709Y-10914491D02*
X11530709Y-10944491D01*
X11530709Y-10914491D02*
X11500709Y-10944491D01*
X11500709Y-11014491D02*
X11530709Y-11044491D01*
X11530709Y-11014491D02*
X11500709Y-11044491D01*
X11500709Y-11114491D02*
X11530709Y-11144491D01*
X11530709Y-11114491D02*
X11500709Y-11144491D01*
X11500709Y-11214490D02*
X11530709Y-11244490D01*
X11530709Y-11214490D02*
X11500709Y-11244490D01*
X11500709Y-11314490D02*
X11530709Y-11344490D01*
X11530709Y-11314490D02*
X11500709Y-11344490D01*
X11500709Y-11414490D02*
X11530709Y-11444490D01*
X11530709Y-11414490D02*
X11500709Y-11444490D01*
X11600709Y-10614491D02*
X11630709Y-10644491D01*
X11630709Y-10614491D02*
X11600709Y-10644491D01*
X11600709Y-10714491D02*
X11630709Y-10744491D01*
X11630709Y-10714491D02*
X11600709Y-10744491D01*
X11600709Y-10814491D02*
X11630709Y-10844491D01*
X11630709Y-10814491D02*
X11600709Y-10844491D01*
X11600709Y-10914491D02*
X11630709Y-10944491D01*
X11630709Y-10914491D02*
X11600709Y-10944491D01*
X11600709Y-11014491D02*
X11630709Y-11044491D01*
X11630709Y-11014491D02*
X11600709Y-11044491D01*
X11600709Y-11114491D02*
X11630709Y-11144491D01*
X11630709Y-11114491D02*
X11600709Y-11144491D01*
X11600709Y-11214490D02*
X11630709Y-11244490D01*
X11630709Y-11214490D02*
X11600709Y-11244490D01*
X11600709Y-11314490D02*
X11630709Y-11344490D01*
X11630709Y-11314490D02*
X11600709Y-11344490D01*
X11600709Y-11414490D02*
X11630709Y-11444490D01*
X11630709Y-11414490D02*
X11600709Y-11444490D01*
X11700709Y-10614491D02*
X11730709Y-10644491D01*
X11730709Y-10614491D02*
X11700709Y-10644491D01*
X11700709Y-10714491D02*
X11730709Y-10744491D01*
X11730709Y-10714491D02*
X11700709Y-10744491D01*
X11700709Y-10814491D02*
X11730709Y-10844491D01*
X11730709Y-10814491D02*
X11700709Y-10844491D01*
X11700709Y-10914491D02*
X11730709Y-10944491D01*
X11730709Y-10914491D02*
X11700709Y-10944491D01*
X11700709Y-11014491D02*
X11730709Y-11044491D01*
X11730709Y-11014491D02*
X11700709Y-11044491D01*
X11700709Y-11114491D02*
X11730709Y-11144491D01*
X11730709Y-11114491D02*
X11700709Y-11144491D01*
X11700709Y-11214490D02*
X11730709Y-11244490D01*
X11730709Y-11214490D02*
X11700709Y-11244490D01*
X11700709Y-11314490D02*
X11730709Y-11344490D01*
X11730709Y-11314490D02*
X11700709Y-11344490D01*
X11700709Y-11414490D02*
X11730709Y-11444490D01*
X11730709Y-11414490D02*
X11700709Y-11444490D01*
X11800709Y-8764491D02*
X11830709Y-8794491D01*
X11830709Y-8764491D02*
X11800709Y-8794491D01*
X11800709Y-8864491D02*
X11830709Y-8894491D01*
X11830709Y-8864491D02*
X11800709Y-8894491D01*
X11800709Y-8964491D02*
X11830709Y-8994491D01*
X11830709Y-8964491D02*
X11800709Y-8994491D01*
X11800709Y-9064491D02*
X11830709Y-9094491D01*
X11830709Y-9064491D02*
X11800709Y-9094491D01*
X11800709Y-9164491D02*
X11830709Y-9194491D01*
X11830709Y-9164491D02*
X11800709Y-9194491D01*
X11800709Y-9264491D02*
X11830709Y-9294491D01*
X11830709Y-9264491D02*
X11800709Y-9294491D01*
X11800709Y-10214491D02*
X11830709Y-10244491D01*
X11830709Y-10214491D02*
X11800709Y-10244491D01*
X11800709Y-10314491D02*
X11830709Y-10344491D01*
X11830709Y-10314491D02*
X11800709Y-10344491D01*
X11800709Y-10414491D02*
X11830709Y-10444491D01*
X11830709Y-10414491D02*
X11800709Y-10444491D01*
X11800709Y-10514491D02*
X11830709Y-10544491D01*
X11830709Y-10514491D02*
X11800709Y-10544491D01*
X11800709Y-10614491D02*
X11830709Y-10644491D01*
X11830709Y-10614491D02*
X11800709Y-10644491D01*
X11800709Y-10714491D02*
X11830709Y-10744491D01*
X11830709Y-10714491D02*
X11800709Y-10744491D01*
X11800709Y-10814491D02*
X11830709Y-10844491D01*
X11830709Y-10814491D02*
X11800709Y-10844491D01*
X11800709Y-10914491D02*
X11830709Y-10944491D01*
X11830709Y-10914491D02*
X11800709Y-10944491D01*
X11800709Y-11014491D02*
X11830709Y-11044491D01*
X11830709Y-11014491D02*
X11800709Y-11044491D01*
X11800709Y-11114491D02*
X11830709Y-11144491D01*
X11830709Y-11114491D02*
X11800709Y-11144491D01*
X11800709Y-11214490D02*
X11830709Y-11244490D01*
X11830709Y-11214490D02*
X11800709Y-11244490D01*
X11800709Y-11314490D02*
X11830709Y-11344490D01*
X11830709Y-11314490D02*
X11800709Y-11344490D01*
X11800709Y-11414490D02*
X11830709Y-11444490D01*
X11830709Y-11414490D02*
X11800709Y-11444490D01*
X11900709Y-8764491D02*
X11930709Y-8794491D01*
X11930709Y-8764491D02*
X11900709Y-8794491D01*
X11900709Y-8864491D02*
X11930709Y-8894491D01*
X11930709Y-8864491D02*
X11900709Y-8894491D01*
X11900709Y-8964491D02*
X11930709Y-8994491D01*
X11930709Y-8964491D02*
X11900709Y-8994491D01*
X11900709Y-9064491D02*
X11930709Y-9094491D01*
X11930709Y-9064491D02*
X11900709Y-9094491D01*
X11900709Y-9164491D02*
X11930709Y-9194491D01*
X11930709Y-9164491D02*
X11900709Y-9194491D01*
X11900709Y-9264491D02*
X11930709Y-9294491D01*
X11930709Y-9264491D02*
X11900709Y-9294491D01*
X11900709Y-9364491D02*
X11930709Y-9394491D01*
X11930709Y-9364491D02*
X11900709Y-9394491D01*
X11900709Y-10214491D02*
X11930709Y-10244491D01*
X11930709Y-10214491D02*
X11900709Y-10244491D01*
X11900709Y-10314491D02*
X11930709Y-10344491D01*
X11930709Y-10314491D02*
X11900709Y-10344491D01*
X11900709Y-10414491D02*
X11930709Y-10444491D01*
X11930709Y-10414491D02*
X11900709Y-10444491D01*
X11900709Y-10514491D02*
X11930709Y-10544491D01*
X11930709Y-10514491D02*
X11900709Y-10544491D01*
X11900709Y-10614491D02*
X11930709Y-10644491D01*
X11930709Y-10614491D02*
X11900709Y-10644491D01*
X11900709Y-10714491D02*
X11930709Y-10744491D01*
X11930709Y-10714491D02*
X11900709Y-10744491D01*
X11900709Y-10814491D02*
X11930709Y-10844491D01*
X11930709Y-10814491D02*
X11900709Y-10844491D01*
X11900709Y-10914491D02*
X11930709Y-10944491D01*
X11930709Y-10914491D02*
X11900709Y-10944491D01*
X11900709Y-11014491D02*
X11930709Y-11044491D01*
X11930709Y-11014491D02*
X11900709Y-11044491D01*
X11900709Y-11114491D02*
X11930709Y-11144491D01*
X11930709Y-11114491D02*
X11900709Y-11144491D01*
X11900709Y-11214490D02*
X11930709Y-11244490D01*
X11930709Y-11214490D02*
X11900709Y-11244490D01*
X11900709Y-11314490D02*
X11930709Y-11344490D01*
X11930709Y-11314490D02*
X11900709Y-11344490D01*
X12000709Y-8764491D02*
X12030709Y-8794491D01*
X12030709Y-8764491D02*
X12000709Y-8794491D01*
X12000709Y-8864491D02*
X12030709Y-8894491D01*
X12030709Y-8864491D02*
X12000709Y-8894491D01*
X12000709Y-8964491D02*
X12030709Y-8994491D01*
X12030709Y-8964491D02*
X12000709Y-8994491D01*
X12000709Y-9064491D02*
X12030709Y-9094491D01*
X12030709Y-9064491D02*
X12000709Y-9094491D01*
X12000709Y-9164491D02*
X12030709Y-9194491D01*
X12030709Y-9164491D02*
X12000709Y-9194491D01*
X12000709Y-9264491D02*
X12030709Y-9294491D01*
X12030709Y-9264491D02*
X12000709Y-9294491D01*
X12000709Y-9364491D02*
X12030709Y-9394491D01*
X12030709Y-9364491D02*
X12000709Y-9394491D01*
X12000709Y-10214491D02*
X12030709Y-10244491D01*
X12030709Y-10214491D02*
X12000709Y-10244491D01*
X12000709Y-10314491D02*
X12030709Y-10344491D01*
X12030709Y-10314491D02*
X12000709Y-10344491D01*
X12000709Y-10414491D02*
X12030709Y-10444491D01*
X12030709Y-10414491D02*
X12000709Y-10444491D01*
X12000709Y-10514491D02*
X12030709Y-10544491D01*
X12030709Y-10514491D02*
X12000709Y-10544491D01*
X12000709Y-10614491D02*
X12030709Y-10644491D01*
X12030709Y-10614491D02*
X12000709Y-10644491D01*
X12000709Y-10714491D02*
X12030709Y-10744491D01*
X12030709Y-10714491D02*
X12000709Y-10744491D01*
X12000709Y-10814491D02*
X12030709Y-10844491D01*
X12030709Y-10814491D02*
X12000709Y-10844491D01*
X12000709Y-10914491D02*
X12030709Y-10944491D01*
X12030709Y-10914491D02*
X12000709Y-10944491D01*
X12000709Y-11014491D02*
X12030709Y-11044491D01*
X12030709Y-11014491D02*
X12000709Y-11044491D01*
X12000709Y-11114491D02*
X12030709Y-11144491D01*
X12030709Y-11114491D02*
X12000709Y-11144491D01*
X12035000Y-7335000D02*
X12065000Y-7365000D01*
X12065000Y-7335000D02*
X12035000Y-7365000D01*
X12035000Y-7685000D02*
X12065000Y-7715000D01*
X12065000Y-7685000D02*
X12035000Y-7715000D01*
X12035000Y-7785000D02*
X12065000Y-7815000D01*
X12065000Y-7785000D02*
X12035000Y-7815000D01*
X12100709Y-8764491D02*
X12130709Y-8794491D01*
X12130709Y-8764491D02*
X12100709Y-8794491D01*
X12100709Y-8864491D02*
X12130709Y-8894491D01*
X12130709Y-8864491D02*
X12100709Y-8894491D01*
X12100709Y-9164491D02*
X12130709Y-9194491D01*
X12130709Y-9164491D02*
X12100709Y-9194491D01*
X12100709Y-9264491D02*
X12130709Y-9294491D01*
X12130709Y-9264491D02*
X12100709Y-9294491D01*
X12100709Y-9364491D02*
X12130709Y-9394491D01*
X12130709Y-9364491D02*
X12100709Y-9394491D01*
X12100709Y-10614491D02*
X12130709Y-10644491D01*
X12130709Y-10614491D02*
X12100709Y-10644491D01*
X12100709Y-10714491D02*
X12130709Y-10744491D01*
X12130709Y-10714491D02*
X12100709Y-10744491D01*
X12100709Y-10814491D02*
X12130709Y-10844491D01*
X12130709Y-10814491D02*
X12100709Y-10844491D01*
X12100709Y-10914491D02*
X12130709Y-10944491D01*
X12130709Y-10914491D02*
X12100709Y-10944491D01*
X12100709Y-11014491D02*
X12130709Y-11044491D01*
X12130709Y-11014491D02*
X12100709Y-11044491D01*
X12100709Y-11114491D02*
X12130709Y-11144491D01*
X12130709Y-11114491D02*
X12100709Y-11144491D01*
X12135000Y-7335000D02*
X12165000Y-7365000D01*
X12165000Y-7335000D02*
X12135000Y-7365000D01*
X12135000Y-7435000D02*
X12165000Y-7465000D01*
X12165000Y-7435000D02*
X12135000Y-7465000D01*
X12135000Y-7685000D02*
X12165000Y-7715000D01*
X12165000Y-7685000D02*
X12135000Y-7715000D01*
X12135000Y-7785000D02*
X12165000Y-7815000D01*
X12165000Y-7785000D02*
X12135000Y-7815000D01*
X12135000Y-7885000D02*
X12165000Y-7915000D01*
X12165000Y-7885000D02*
X12135000Y-7915000D01*
X12135000Y-8066000D02*
X12165000Y-8096000D01*
X12165000Y-8066000D02*
X12135000Y-8096000D01*
X12200709Y-8764491D02*
X12230709Y-8794491D01*
X12230709Y-8764491D02*
X12200709Y-8794491D01*
X12200709Y-8864491D02*
X12230709Y-8894491D01*
X12230709Y-8864491D02*
X12200709Y-8894491D01*
X12200709Y-9164491D02*
X12230709Y-9194491D01*
X12230709Y-9164491D02*
X12200709Y-9194491D01*
X12200709Y-9264491D02*
X12230709Y-9294491D01*
X12230709Y-9264491D02*
X12200709Y-9294491D01*
X12200709Y-9364491D02*
X12230709Y-9394491D01*
X12230709Y-9364491D02*
X12200709Y-9394491D01*
X12200709Y-10614491D02*
X12230709Y-10644491D01*
X12230709Y-10614491D02*
X12200709Y-10644491D01*
X12200709Y-10714491D02*
X12230709Y-10744491D01*
X12230709Y-10714491D02*
X12200709Y-10744491D01*
X12200709Y-10814491D02*
X12230709Y-10844491D01*
X12230709Y-10814491D02*
X12200709Y-10844491D01*
X12200709Y-10914491D02*
X12230709Y-10944491D01*
X12230709Y-10914491D02*
X12200709Y-10944491D01*
X12200709Y-11014491D02*
X12230709Y-11044491D01*
X12230709Y-11014491D02*
X12200709Y-11044491D01*
X12200709Y-11114491D02*
X12230709Y-11144491D01*
X12230709Y-11114491D02*
X12200709Y-11144491D01*
X12235000Y-7335000D02*
X12265000Y-7365000D01*
X12265000Y-7335000D02*
X12235000Y-7365000D01*
X12235000Y-7435000D02*
X12265000Y-7465000D01*
X12265000Y-7435000D02*
X12235000Y-7465000D01*
X12235000Y-7685000D02*
X12265000Y-7715000D01*
X12265000Y-7685000D02*
X12235000Y-7715000D01*
X12235000Y-7785000D02*
X12265000Y-7815000D01*
X12265000Y-7785000D02*
X12235000Y-7815000D01*
X12235000Y-7885000D02*
X12265000Y-7915000D01*
X12265000Y-7885000D02*
X12235000Y-7915000D01*
X12235000Y-8066000D02*
X12265000Y-8096000D01*
X12265000Y-8066000D02*
X12235000Y-8096000D01*
X12300709Y-8764491D02*
X12330709Y-8794491D01*
X12330709Y-8764491D02*
X12300709Y-8794491D01*
X12300709Y-8864491D02*
X12330709Y-8894491D01*
X12330709Y-8864491D02*
X12300709Y-8894491D01*
X12300709Y-8964491D02*
X12330709Y-8994491D01*
X12330709Y-8964491D02*
X12300709Y-8994491D01*
X12300709Y-9064491D02*
X12330709Y-9094491D01*
X12330709Y-9064491D02*
X12300709Y-9094491D01*
X12300709Y-9164491D02*
X12330709Y-9194491D01*
X12330709Y-9164491D02*
X12300709Y-9194491D01*
X12300709Y-9264491D02*
X12330709Y-9294491D01*
X12330709Y-9264491D02*
X12300709Y-9294491D01*
X12300709Y-9364491D02*
X12330709Y-9394491D01*
X12330709Y-9364491D02*
X12300709Y-9394491D01*
X12301250Y-8118750D02*
X12331250Y-8148750D01*
X12331250Y-8118750D02*
X12301250Y-8148750D01*
X12335000Y-7335000D02*
X12365000Y-7365000D01*
X12365000Y-7335000D02*
X12335000Y-7365000D01*
X12335000Y-7685000D02*
X12365000Y-7715000D01*
X12365000Y-7685000D02*
X12335000Y-7715000D01*
X12335000Y-7785000D02*
X12365000Y-7815000D01*
X12365000Y-7785000D02*
X12335000Y-7815000D01*
X12335000Y-7885000D02*
X12365000Y-7915000D01*
X12365000Y-7885000D02*
X12335000Y-7915000D01*
X12351250Y-8168750D02*
X12381250Y-8198750D01*
X12381250Y-8168750D02*
X12351250Y-8198750D01*
X12401250Y-8218750D02*
X12431250Y-8248750D01*
X12431250Y-8218750D02*
X12401250Y-8248750D01*
X12435000Y-7335000D02*
X12465000Y-7365000D01*
X12465000Y-7335000D02*
X12435000Y-7365000D01*
X12435000Y-7435000D02*
X12465000Y-7465000D01*
X12465000Y-7435000D02*
X12435000Y-7465000D01*
X12435000Y-7685000D02*
X12465000Y-7715000D01*
X12465000Y-7685000D02*
X12435000Y-7715000D01*
X12435000Y-7785000D02*
X12465000Y-7815000D01*
X12465000Y-7785000D02*
X12435000Y-7815000D01*
X12435000Y-7885000D02*
X12465000Y-7915000D01*
X12465000Y-7885000D02*
X12435000Y-7915000D01*
X12435000Y-7985000D02*
X12465000Y-8015000D01*
X12465000Y-7985000D02*
X12435000Y-8015000D01*
X12535000Y-7335000D02*
X12565000Y-7365000D01*
X12565000Y-7335000D02*
X12535000Y-7365000D01*
X12535000Y-7435000D02*
X12565000Y-7465000D01*
X12565000Y-7435000D02*
X12535000Y-7465000D01*
X12535000Y-7535000D02*
X12565000Y-7565000D01*
X12565000Y-7535000D02*
X12535000Y-7565000D01*
X12535000Y-7685000D02*
X12565000Y-7715000D01*
X12565000Y-7685000D02*
X12535000Y-7715000D01*
X12535000Y-7785000D02*
X12565000Y-7815000D01*
X12565000Y-7785000D02*
X12535000Y-7815000D01*
X12535000Y-7885000D02*
X12565000Y-7915000D01*
X12565000Y-7885000D02*
X12535000Y-7915000D01*
X12535000Y-7985000D02*
X12565000Y-8015000D01*
X12565000Y-7985000D02*
X12535000Y-8015000D01*
X12535000Y-8835000D02*
X12565000Y-8865000D01*
X12565000Y-8835000D02*
X12535000Y-8865000D01*
X12650709Y-11064491D02*
X12680709Y-11094491D01*
X12680709Y-11064491D02*
X12650709Y-11094491D01*
X12650709Y-11164491D02*
X12680709Y-11194490D01*
X12680709Y-11164491D02*
X12650709Y-11194490D01*
X12650709Y-11264490D02*
X12680709Y-11294490D01*
X12680709Y-11264490D02*
X12650709Y-11294490D01*
X12650709Y-11364490D02*
X12680709Y-11394490D01*
X12680709Y-11364490D02*
X12650709Y-11394490D01*
X12650709Y-11464490D02*
X12680709Y-11494490D01*
X12680709Y-11464490D02*
X12650709Y-11494490D01*
X12650709Y-11564490D02*
X12680709Y-11594490D01*
X12680709Y-11564490D02*
X12650709Y-11594490D01*
X12650709Y-11664490D02*
X12680709Y-11694490D01*
X12680709Y-11664490D02*
X12650709Y-11694490D01*
X12650709Y-11764490D02*
X12680709Y-11794490D01*
X12680709Y-11764490D02*
X12650709Y-11794490D01*
X12750709Y-10014491D02*
X12780709Y-10044491D01*
X12780709Y-10014491D02*
X12750709Y-10044491D01*
X12750709Y-11064491D02*
X12780709Y-11094491D01*
X12780709Y-11064491D02*
X12750709Y-11094491D01*
X12750709Y-11164491D02*
X12780709Y-11194490D01*
X12780709Y-11164491D02*
X12750709Y-11194490D01*
X12750709Y-11264490D02*
X12780709Y-11294490D01*
X12780709Y-11264490D02*
X12750709Y-11294490D01*
X12750709Y-11364490D02*
X12780709Y-11394490D01*
X12780709Y-11364490D02*
X12750709Y-11394490D01*
X12750709Y-11464490D02*
X12780709Y-11494490D01*
X12780709Y-11464490D02*
X12750709Y-11494490D01*
X12750709Y-11564490D02*
X12780709Y-11594490D01*
X12780709Y-11564490D02*
X12750709Y-11594490D01*
X12750709Y-11664490D02*
X12780709Y-11694490D01*
X12780709Y-11664490D02*
X12750709Y-11694490D01*
X12750709Y-11764490D02*
X12780709Y-11794490D01*
X12780709Y-11764490D02*
X12750709Y-11794490D01*
X12800709Y-9964491D02*
X12830709Y-9994491D01*
X12830709Y-9964491D02*
X12800709Y-9994491D01*
X12800709Y-10064491D02*
X12830709Y-10094491D01*
X12830709Y-10064491D02*
X12800709Y-10094491D01*
X12824700Y-6474700D02*
X12854700Y-6504700D01*
X12854700Y-6474700D02*
X12824700Y-6504700D01*
X12850709Y-10014491D02*
X12880709Y-10044491D01*
X12880709Y-10014491D02*
X12850709Y-10044491D01*
X12850709Y-10214491D02*
X12880709Y-10244491D01*
X12880709Y-10214491D02*
X12850709Y-10244491D01*
X12850709Y-10314491D02*
X12880709Y-10344491D01*
X12880709Y-10314491D02*
X12850709Y-10344491D01*
X12850709Y-11564490D02*
X12880709Y-11594490D01*
X12880709Y-11564490D02*
X12850709Y-11594490D01*
X12850709Y-11664490D02*
X12880709Y-11694490D01*
X12880709Y-11664490D02*
X12850709Y-11694490D01*
X12850709Y-11764490D02*
X12880709Y-11794490D01*
X12880709Y-11764490D02*
X12850709Y-11794490D01*
X12875500Y-6538200D02*
X12905500Y-6568200D01*
X12905500Y-6538200D02*
X12875500Y-6568200D01*
X12883450Y-6415950D02*
X12913450Y-6445950D01*
X12913450Y-6415950D02*
X12883450Y-6445950D01*
X12900709Y-10114491D02*
X12930709Y-10144491D01*
X12930709Y-10114491D02*
X12900709Y-10144491D01*
X12946950Y-6479450D02*
X12976950Y-6509450D01*
X12976950Y-6479450D02*
X12946950Y-6509450D01*
X12951700Y-6601700D02*
X12981700Y-6631700D01*
X12981700Y-6601700D02*
X12951700Y-6631700D01*
X12964400Y-6360400D02*
X12994400Y-6390400D01*
X12994400Y-6360400D02*
X12964400Y-6390400D01*
X12985000Y-7685000D02*
X13015000Y-7715000D01*
X13015000Y-7685000D02*
X12985000Y-7715000D01*
X13000709Y-10114491D02*
X13030709Y-10144491D01*
X13030709Y-10114491D02*
X13000709Y-10144491D01*
X13000709Y-10464491D02*
X13030709Y-10494491D01*
X13030709Y-10464491D02*
X13000709Y-10494491D01*
X13000709Y-10614491D02*
X13030709Y-10644491D01*
X13030709Y-10614491D02*
X13000709Y-10644491D01*
X13010450Y-6542950D02*
X13040450Y-6572950D01*
X13040450Y-6542950D02*
X13010450Y-6572950D01*
X13015200Y-6436600D02*
X13045200Y-6466600D01*
X13045200Y-6436600D02*
X13015200Y-6466600D01*
X13078700Y-6487400D02*
X13108700Y-6517400D01*
X13108700Y-6487400D02*
X13078700Y-6517400D01*
X13085000Y-7685000D02*
X13115000Y-7715000D01*
X13115000Y-7685000D02*
X13085000Y-7715000D01*
X13185000Y-7685000D02*
X13215000Y-7715000D01*
X13215000Y-7685000D02*
X13185000Y-7715000D01*
X13185000Y-12185000D02*
X13215000Y-12215000D01*
X13215000Y-12185000D02*
X13185000Y-12215000D01*
X13250709Y-8814491D02*
X13280709Y-8844491D01*
X13280709Y-8814491D02*
X13250709Y-8844491D01*
X13250709Y-8964491D02*
X13280709Y-8994491D01*
X13280709Y-8964491D02*
X13250709Y-8994491D01*
X13250709Y-9114491D02*
X13280709Y-9144491D01*
X13280709Y-9114491D02*
X13250709Y-9144491D01*
X13250709Y-9264491D02*
X13280709Y-9294491D01*
X13280709Y-9264491D02*
X13250709Y-9294491D01*
X13250709Y-9414491D02*
X13280709Y-9444491D01*
X13280709Y-9414491D02*
X13250709Y-9444491D01*
X13250709Y-9564491D02*
X13280709Y-9594491D01*
X13280709Y-9564491D02*
X13250709Y-9594491D01*
X13250709Y-9714491D02*
X13280709Y-9744491D01*
X13280709Y-9714491D02*
X13250709Y-9744491D01*
X13250709Y-9864491D02*
X13280709Y-9894491D01*
X13280709Y-9864491D02*
X13250709Y-9894491D01*
X13250709Y-11614490D02*
X13280709Y-11644490D01*
X13280709Y-11614490D02*
X13250709Y-11644490D01*
X13250709Y-11714490D02*
X13280709Y-11744490D01*
X13280709Y-11714490D02*
X13250709Y-11744490D01*
X13285000Y-7685000D02*
X13315000Y-7715000D01*
X13315000Y-7685000D02*
X13285000Y-7715000D01*
X13285000Y-11985000D02*
X13315000Y-12015000D01*
X13315000Y-11985000D02*
X13285000Y-12015000D01*
X13285000Y-12085000D02*
X13315000Y-12115000D01*
X13315000Y-12085000D02*
X13285000Y-12115000D01*
X13285000Y-12185000D02*
X13315000Y-12215000D01*
X13315000Y-12185000D02*
X13285000Y-12215000D01*
X13350709Y-10314491D02*
X13380709Y-10344491D01*
X13380709Y-10314491D02*
X13350709Y-10344491D01*
X13350709Y-10464491D02*
X13380709Y-10494491D01*
X13380709Y-10464491D02*
X13350709Y-10494491D01*
X13350709Y-10614491D02*
X13380709Y-10644491D01*
X13380709Y-10614491D02*
X13350709Y-10644491D01*
X13350709Y-10764491D02*
X13380709Y-10794491D01*
X13380709Y-10764491D02*
X13350709Y-10794491D01*
X13350709Y-10864491D02*
X13380709Y-10894491D01*
X13380709Y-10864491D02*
X13350709Y-10894491D01*
X13350709Y-11014491D02*
X13380709Y-11044491D01*
X13380709Y-11014491D02*
X13350709Y-11044491D01*
X13385000Y-7685000D02*
X13415000Y-7715000D01*
X13415000Y-7685000D02*
X13385000Y-7715000D01*
X13385000Y-11985000D02*
X13415000Y-12015000D01*
X13415000Y-11985000D02*
X13385000Y-12015000D01*
X13385000Y-12085000D02*
X13415000Y-12115000D01*
X13415000Y-12085000D02*
X13385000Y-12115000D01*
X13385000Y-12185000D02*
X13415000Y-12215000D01*
X13415000Y-12185000D02*
X13385000Y-12215000D01*
X13485000Y-7685000D02*
X13515000Y-7715000D01*
X13515000Y-7685000D02*
X13485000Y-7715000D01*
X13585000Y-7685000D02*
X13615000Y-7715000D01*
X13615000Y-7685000D02*
X13585000Y-7715000D01*
X13685000Y-7685000D02*
X13715000Y-7715000D01*
X13715000Y-7685000D02*
X13685000Y-7715000D01*
X13785000Y-7685000D02*
X13815000Y-7715000D01*
X13815000Y-7685000D02*
X13785000Y-7715000D01*
X10275100Y-6121400D02*
G75*
G02*
X10215100Y-6121400I-30000J0D01*
G01*
X10215100Y-6121400D02*
G75*
G02*
X10275100Y-6121400I30000J0D01*
G01*
X10275100Y-6176400D02*
X10275100Y-6066400D01*
X10215100Y-6066400D02*
G75*
G02*
X10275100Y-6066400I30000J0D01*
G01*
X10215100Y-6066400D02*
X10215100Y-6176400D01*
X10215100Y-6176400D02*
G75*
G03*
X10275100Y-6176400I30000J0D01*
G01*
X11625100Y-6121400D02*
G75*
G02*
X11565100Y-6121400I-30000J0D01*
G01*
X11565100Y-6121400D02*
G75*
G02*
X11625100Y-6121400I30000J0D01*
G01*
X11625100Y-6176400D02*
X11625100Y-6066400D01*
X11565100Y-6066400D02*
G75*
G02*
X11625100Y-6066400I30000J0D01*
G01*
X11565100Y-6066400D02*
X11565100Y-6176400D01*
X11565100Y-6176400D02*
G75*
G03*
X11625100Y-6176400I30000J0D01*
G01*
X12171200Y-6108700D02*
G75*
G02*
X12111200Y-6108700I-30000J0D01*
G01*
X12111200Y-6108700D02*
G75*
G02*
X12171200Y-6108700I30000J0D01*
G01*
X12171200Y-6163700D02*
X12171200Y-6053700D01*
X12111200Y-6053700D02*
G75*
G02*
X12171200Y-6053700I30000J0D01*
G01*
X12111200Y-6053700D02*
X12111200Y-6163700D01*
X12111200Y-6163700D02*
G75*
G03*
X12171200Y-6163700I30000J0D01*
G01*
X13521200Y-6108700D02*
G75*
G02*
X13461200Y-6108700I-30000J0D01*
G01*
X13461200Y-6108700D02*
G75*
G02*
X13521200Y-6108700I30000J0D01*
G01*
X13521200Y-6163700D02*
X13521200Y-6053700D01*
X13461200Y-6053700D02*
G75*
G02*
X13521200Y-6053700I30000J0D01*
G01*
X13461200Y-6053700D02*
X13461200Y-6163700D01*
X13461200Y-6163700D02*
G75*
G03*
X13521200Y-6163700I30000J0D01*
G01*
X10303710Y-11389490D02*
X10303710Y-11469490D01*
X10263710Y-11429490D02*
X10343710Y-11429490D01*
X10303710Y-11889490D02*
X10303710Y-11969490D01*
X10263710Y-11929490D02*
X10343710Y-11929490D01*
X11065710Y-11389490D02*
X11065710Y-11469490D01*
X11025710Y-11429490D02*
X11105710Y-11429490D01*
X11065710Y-11889490D02*
X11065710Y-11969490D01*
X11025710Y-11929490D02*
X11105710Y-11929490D01*
X10592431Y-7581431D02*
X10592431Y-7518569D01*
X10529569Y-7518569D01*
X10529569Y-7581431D01*
X10592431Y-7581431D01*
X10846431Y-7581431D02*
X10846431Y-7518569D01*
X10783569Y-7518569D01*
X10783569Y-7581431D01*
X10846431Y-7581431D01*
X10899441Y-9058522D02*
X10899441Y-8995659D01*
X10836578Y-8995659D01*
X10836578Y-9058522D01*
X10899441Y-9058522D01*
X10899441Y-10508522D02*
X10899441Y-10445659D01*
X10836578Y-10445659D01*
X10836578Y-10508522D01*
X10899441Y-10508522D01*
X11100431Y-7581431D02*
X11100431Y-7518569D01*
X11037569Y-7518569D01*
X11037569Y-7581431D01*
X11100431Y-7581431D01*
X11153441Y-9058522D02*
X11153441Y-8995659D01*
X11090578Y-8995659D01*
X11090578Y-9058522D01*
X11153441Y-9058522D01*
X11153441Y-10508522D02*
X11153441Y-10445659D01*
X11090578Y-10445659D01*
X11090578Y-10508522D01*
X11153441Y-10508522D01*
X11608431Y-7581431D02*
X11608431Y-7518569D01*
X11545569Y-7518569D01*
X11545569Y-7581431D01*
X11608431Y-7581431D01*
X11661441Y-9058522D02*
X11661441Y-8995659D01*
X11598578Y-8995659D01*
X11598578Y-9058522D01*
X11661441Y-9058522D01*
X11661441Y-10508522D02*
X11661441Y-10445659D01*
X11598578Y-10445659D01*
X11598578Y-10508522D01*
X11661441Y-10508522D01*
X11862431Y-7581431D02*
X11862431Y-7518569D01*
X11799569Y-7518569D01*
X11799569Y-7581431D01*
X11862431Y-7581431D01*
X12116431Y-7581431D02*
X12116431Y-7518569D01*
X12053569Y-7518569D01*
X12053569Y-7581431D01*
X12116431Y-7581431D01*
X12169441Y-9058522D02*
X12169441Y-8995659D01*
X12106578Y-8995659D01*
X12106578Y-9058522D01*
X12169441Y-9058522D01*
X12169441Y-10508522D02*
X12169441Y-10445659D01*
X12106578Y-10445659D01*
X12106578Y-10508522D01*
X12169441Y-10508522D01*
X12370431Y-7581431D02*
X12370431Y-7518569D01*
X12307569Y-7518569D01*
X12307569Y-7581431D01*
X12370431Y-7581431D01*
X9785710Y-9404491D02*
X9835710Y-9354491D01*
X9785710Y-9304491D01*
X9735710Y-9354491D01*
X9785710Y-9404491D01*
X9785710Y-9654491D02*
X9835710Y-9604491D01*
X9785710Y-9554491D01*
X9735710Y-9604491D01*
X9785710Y-9654491D01*
X9785710Y-9904491D02*
X9835710Y-9854491D01*
X9785710Y-9804491D01*
X9735710Y-9854491D01*
X9785710Y-9904491D01*
X9785710Y-10154491D02*
X9835710Y-10104491D01*
X9785710Y-10054491D01*
X9735710Y-10104491D01*
X9785710Y-10154491D01*
X13719000Y-7984000D02*
X13769000Y-7934000D01*
X13719000Y-7884000D01*
X13669000Y-7934000D01*
X13719000Y-7984000D01*
X13719000Y-8238000D02*
X13769000Y-8188000D01*
X13719000Y-8138000D01*
X13669000Y-8188000D01*
X13719000Y-8238000D01*
X13719000Y-8492000D02*
X13769000Y-8442000D01*
X13719000Y-8392000D01*
X13669000Y-8442000D01*
X13719000Y-8492000D01*
X13719000Y-8746000D02*
X13769000Y-8696000D01*
X13719000Y-8646000D01*
X13669000Y-8696000D01*
X13719000Y-8746000D01*
X13719000Y-9000000D02*
X13769000Y-8950000D01*
X13719000Y-8900000D01*
X13669000Y-8950000D01*
X13719000Y-9000000D01*
X13719000Y-9254000D02*
X13769000Y-9204000D01*
X13719000Y-9154000D01*
X13669000Y-9204000D01*
X13719000Y-9254000D01*
X13719000Y-9508000D02*
X13769000Y-9458000D01*
X13719000Y-9408000D01*
X13669000Y-9458000D01*
X13719000Y-9508000D01*
X13719000Y-9762000D02*
X13769000Y-9712000D01*
X13719000Y-9662000D01*
X13669000Y-9712000D01*
X13719000Y-9762000D01*
X13719000Y-10016000D02*
X13769000Y-9966000D01*
X13719000Y-9916000D01*
X13669000Y-9966000D01*
X13719000Y-10016000D01*
X13719000Y-10270000D02*
X13769000Y-10220000D01*
X13719000Y-10170000D01*
X13669000Y-10220000D01*
X13719000Y-10270000D01*
X13719000Y-10524000D02*
X13769000Y-10474000D01*
X13719000Y-10424000D01*
X13669000Y-10474000D01*
X13719000Y-10524000D01*
X13719000Y-10778000D02*
X13769000Y-10728000D01*
X13719000Y-10678000D01*
X13669000Y-10728000D01*
X13719000Y-10778000D01*
X13719000Y-11032000D02*
X13769000Y-10982000D01*
X13719000Y-10932000D01*
X13669000Y-10982000D01*
X13719000Y-11032000D01*
X13719000Y-11286000D02*
X13769000Y-11236000D01*
X13719000Y-11186000D01*
X13669000Y-11236000D01*
X13719000Y-11286000D01*
X13719000Y-11540000D02*
X13769000Y-11490000D01*
X13719000Y-11440000D01*
X13669000Y-11490000D01*
X13719000Y-11540000D01*
X13719000Y-11794000D02*
X13769000Y-11744000D01*
X13719000Y-11694000D01*
X13669000Y-11744000D01*
X13719000Y-11794000D01*
X13973000Y-7984000D02*
X14023000Y-7934000D01*
X13973000Y-7884000D01*
X13923000Y-7934000D01*
X13973000Y-7984000D01*
X13973000Y-8238000D02*
X14023000Y-8188000D01*
X13973000Y-8138000D01*
X13923000Y-8188000D01*
X13973000Y-8238000D01*
X13973000Y-8492000D02*
X14023000Y-8442000D01*
X13973000Y-8392000D01*
X13923000Y-8442000D01*
X13973000Y-8492000D01*
X13973000Y-8746000D02*
X14023000Y-8696000D01*
X13973000Y-8646000D01*
X13923000Y-8696000D01*
X13973000Y-8746000D01*
X13973000Y-9000000D02*
X14023000Y-8950000D01*
X13973000Y-8900000D01*
X13923000Y-8950000D01*
X13973000Y-9000000D01*
X13973000Y-9254000D02*
X14023000Y-9204000D01*
X13973000Y-9154000D01*
X13923000Y-9204000D01*
X13973000Y-9254000D01*
X13973000Y-9508000D02*
X14023000Y-9458000D01*
X13973000Y-9408000D01*
X13923000Y-9458000D01*
X13973000Y-9508000D01*
X13973000Y-9762000D02*
X14023000Y-9712000D01*
X13973000Y-9662000D01*
X13923000Y-9712000D01*
X13973000Y-9762000D01*
X13973000Y-10016000D02*
X14023000Y-9966000D01*
X13973000Y-9916000D01*
X13923000Y-9966000D01*
X13973000Y-10016000D01*
X13973000Y-10270000D02*
X14023000Y-10220000D01*
X13973000Y-10170000D01*
X13923000Y-10220000D01*
X13973000Y-10270000D01*
X13973000Y-10524000D02*
X14023000Y-10474000D01*
X13973000Y-10424000D01*
X13923000Y-10474000D01*
X13973000Y-10524000D01*
X13973000Y-10778000D02*
X14023000Y-10728000D01*
X13973000Y-10678000D01*
X13923000Y-10728000D01*
X13973000Y-10778000D01*
X13973000Y-11032000D02*
X14023000Y-10982000D01*
X13973000Y-10932000D01*
X13923000Y-10982000D01*
X13973000Y-11032000D01*
X13973000Y-11286000D02*
X14023000Y-11236000D01*
X13973000Y-11186000D01*
X13923000Y-11236000D01*
X13973000Y-11286000D01*
X13973000Y-11540000D02*
X14023000Y-11490000D01*
X13973000Y-11440000D01*
X13923000Y-11490000D01*
X13973000Y-11540000D01*
X13973000Y-11794000D02*
X14023000Y-11744000D01*
X13973000Y-11694000D01*
X13923000Y-11744000D01*
X13973000Y-11794000D01*
X14227000Y-7984000D02*
X14277000Y-7934000D01*
X14227000Y-7884000D01*
X14177000Y-7934000D01*
X14227000Y-7984000D01*
X14227000Y-8238000D02*
X14277000Y-8188000D01*
X14227000Y-8138000D01*
X14177000Y-8188000D01*
X14227000Y-8238000D01*
X14227000Y-8492000D02*
X14277000Y-8442000D01*
X14227000Y-8392000D01*
X14177000Y-8442000D01*
X14227000Y-8492000D01*
X14227000Y-8746000D02*
X14277000Y-8696000D01*
X14227000Y-8646000D01*
X14177000Y-8696000D01*
X14227000Y-8746000D01*
X14227000Y-9000000D02*
X14277000Y-8950000D01*
X14227000Y-8900000D01*
X14177000Y-8950000D01*
X14227000Y-9000000D01*
X14227000Y-9254000D02*
X14277000Y-9204000D01*
X14227000Y-9154000D01*
X14177000Y-9204000D01*
X14227000Y-9254000D01*
X14227000Y-9508000D02*
X14277000Y-9458000D01*
X14227000Y-9408000D01*
X14177000Y-9458000D01*
X14227000Y-9508000D01*
X14227000Y-9762000D02*
X14277000Y-9712000D01*
X14227000Y-9662000D01*
X14177000Y-9712000D01*
X14227000Y-9762000D01*
X14227000Y-10016000D02*
X14277000Y-9966000D01*
X14227000Y-9916000D01*
X14177000Y-9966000D01*
X14227000Y-10016000D01*
X14227000Y-10270000D02*
X14277000Y-10220000D01*
X14227000Y-10170000D01*
X14177000Y-10220000D01*
X14227000Y-10270000D01*
X14227000Y-10524000D02*
X14277000Y-10474000D01*
X14227000Y-10424000D01*
X14177000Y-10474000D01*
X14227000Y-10524000D01*
X14227000Y-10778000D02*
X14277000Y-10728000D01*
X14227000Y-10678000D01*
X14177000Y-10728000D01*
X14227000Y-10778000D01*
X14227000Y-11032000D02*
X14277000Y-10982000D01*
X14227000Y-10932000D01*
X14177000Y-10982000D01*
X14227000Y-11032000D01*
X14227000Y-11286000D02*
X14277000Y-11236000D01*
X14227000Y-11186000D01*
X14177000Y-11236000D01*
X14227000Y-11286000D01*
X14227000Y-11540000D02*
X14277000Y-11490000D01*
X14227000Y-11440000D01*
X14177000Y-11490000D01*
X14227000Y-11540000D01*
X14227000Y-11794000D02*
X14277000Y-11744000D01*
X14227000Y-11694000D01*
X14177000Y-11744000D01*
X14227000Y-11794000D01*
X14481000Y-7984000D02*
X14531000Y-7934000D01*
X14481000Y-7884000D01*
X14431000Y-7934000D01*
X14481000Y-7984000D01*
X14481000Y-8238000D02*
X14531000Y-8188000D01*
X14481000Y-8138000D01*
X14431000Y-8188000D01*
X14481000Y-8238000D01*
X14481000Y-8492000D02*
X14531000Y-8442000D01*
X14481000Y-8392000D01*
X14431000Y-8442000D01*
X14481000Y-8492000D01*
X14481000Y-8746000D02*
X14531000Y-8696000D01*
X14481000Y-8646000D01*
X14431000Y-8696000D01*
X14481000Y-8746000D01*
X14481000Y-9000000D02*
X14531000Y-8950000D01*
X14481000Y-8900000D01*
X14431000Y-8950000D01*
X14481000Y-9000000D01*
X14481000Y-9254000D02*
X14531000Y-9204000D01*
X14481000Y-9154000D01*
X14431000Y-9204000D01*
X14481000Y-9254000D01*
X14481000Y-9508000D02*
X14531000Y-9458000D01*
X14481000Y-9408000D01*
X14431000Y-9458000D01*
X14481000Y-9508000D01*
X14481000Y-9762000D02*
X14531000Y-9712000D01*
X14481000Y-9662000D01*
X14431000Y-9712000D01*
X14481000Y-9762000D01*
X14481000Y-10016000D02*
X14531000Y-9966000D01*
X14481000Y-9916000D01*
X14431000Y-9966000D01*
X14481000Y-10016000D01*
X14481000Y-10270000D02*
X14531000Y-10220000D01*
X14481000Y-10170000D01*
X14431000Y-10220000D01*
X14481000Y-10270000D01*
X14481000Y-10524000D02*
X14531000Y-10474000D01*
X14481000Y-10424000D01*
X14431000Y-10474000D01*
X14481000Y-10524000D01*
X14481000Y-10778000D02*
X14531000Y-10728000D01*
X14481000Y-10678000D01*
X14431000Y-10728000D01*
X14481000Y-10778000D01*
X14481000Y-11032000D02*
X14531000Y-10982000D01*
X14481000Y-10932000D01*
X14431000Y-10982000D01*
X14481000Y-11032000D01*
X14481000Y-11286000D02*
X14531000Y-11236000D01*
X14481000Y-11186000D01*
X14431000Y-11236000D01*
X14481000Y-11286000D01*
X14481000Y-11540000D02*
X14531000Y-11490000D01*
X14481000Y-11440000D01*
X14431000Y-11490000D01*
X14481000Y-11540000D01*
X14481000Y-11794000D02*
X14531000Y-11744000D01*
X14481000Y-11694000D01*
X14431000Y-11744000D01*
X14481000Y-11794000D01*
D13*
X10425100Y-6586400D02*
X10695100Y-6856400D01*
X10695100Y-6586400D02*
X10425100Y-6856400D01*
X10695100Y-6721400D02*
G75*
G02*
X10425100Y-6721400I-135000J0D01*
G01*
X10425100Y-6721400D02*
G75*
G02*
X10695100Y-6721400I135000J0D01*
G01*
X11145100Y-6586400D02*
X11415100Y-6856400D01*
X11415100Y-6586400D02*
X11145100Y-6856400D01*
X11415100Y-6721400D02*
G75*
G02*
X11145100Y-6721400I-135000J0D01*
G01*
X11145100Y-6721400D02*
G75*
G02*
X11415100Y-6721400I135000J0D01*
G01*
X12321200Y-6573700D02*
X12591200Y-6843700D01*
X12591200Y-6573700D02*
X12321200Y-6843700D01*
X12591200Y-6708700D02*
G75*
G02*
X12321200Y-6708700I-135000J0D01*
G01*
X12321200Y-6708700D02*
G75*
G02*
X12591200Y-6708700I135000J0D01*
G01*
X13041200Y-6573700D02*
X13311200Y-6843700D01*
X13311200Y-6573700D02*
X13041200Y-6843700D01*
X13311200Y-6708700D02*
G75*
G02*
X13041200Y-6708700I-135000J0D01*
G01*
X13041200Y-6708700D02*
G75*
G02*
X13311200Y-6708700I135000J0D01*
G01*
D14*
X9205710Y-6119490D02*
X9525710Y-6439490D01*
X9525710Y-6119490D02*
X9205710Y-6439490D01*
X9365710Y-6119490D02*
X9365710Y-6439490D01*
X9205710Y-6279490D02*
X9525710Y-6279490D01*
X9205710Y-12119490D02*
X9525710Y-12439490D01*
X9525710Y-12119490D02*
X9205710Y-12439490D01*
X9365710Y-12119490D02*
X9365710Y-12439490D01*
X9205710Y-12279490D02*
X9525710Y-12279490D01*
X14205709Y-6118500D02*
X14525709Y-6438500D01*
X14525709Y-6118500D02*
X14205709Y-6438500D01*
X14365709Y-6118500D02*
X14365709Y-6438500D01*
X14205709Y-6278500D02*
X14525709Y-6278500D01*
X14205709Y-12119490D02*
X14525709Y-12439490D01*
X14525709Y-12119490D02*
X14205709Y-12439490D01*
X14365709Y-12119490D02*
X14365709Y-12439490D01*
X14205709Y-12279490D02*
X14525709Y-12279490D01*
D11*
X9123986Y-13096774D02*
X9123986Y-12896774D01*
X9123986Y-12896774D02*
X9171605Y-12896774D01*
X9171605Y-12896774D02*
X9200177Y-12906298D01*
X9200177Y-12906298D02*
X9219224Y-12925346D01*
X9219224Y-12925346D02*
X9228748Y-12944393D01*
X9228748Y-12944393D02*
X9238272Y-12982488D01*
X9238272Y-12982488D02*
X9238272Y-13011060D01*
X9238272Y-13011060D02*
X9228748Y-13049155D01*
X9228748Y-13049155D02*
X9219224Y-13068203D01*
X9219224Y-13068203D02*
X9200177Y-13087250D01*
X9200177Y-13087250D02*
X9171605Y-13096774D01*
X9171605Y-13096774D02*
X9123986Y-13096774D01*
X9323986Y-13096774D02*
X9323986Y-12963441D01*
X9323986Y-13001536D02*
X9333510Y-12982488D01*
X9333510Y-12982488D02*
X9343034Y-12972965D01*
X9343034Y-12972965D02*
X9362082Y-12963441D01*
X9362082Y-12963441D02*
X9381129Y-12963441D01*
X9447796Y-13096774D02*
X9447796Y-12963441D01*
X9447796Y-12896774D02*
X9438272Y-12906298D01*
X9438272Y-12906298D02*
X9447796Y-12915822D01*
X9447796Y-12915822D02*
X9457320Y-12906298D01*
X9457320Y-12906298D02*
X9447796Y-12896774D01*
X9447796Y-12896774D02*
X9447796Y-12915822D01*
X9571605Y-13096774D02*
X9552558Y-13087250D01*
X9552558Y-13087250D02*
X9543034Y-13068203D01*
X9543034Y-13068203D02*
X9543034Y-12896774D01*
X9676367Y-13096774D02*
X9657320Y-13087250D01*
X9657320Y-13087250D02*
X9647796Y-13068203D01*
X9647796Y-13068203D02*
X9647796Y-12896774D01*
X9904939Y-13096774D02*
X9904939Y-12896774D01*
X9904939Y-12896774D02*
X9971605Y-13039631D01*
X9971605Y-13039631D02*
X10038272Y-12896774D01*
X10038272Y-12896774D02*
X10038272Y-13096774D01*
X10219224Y-13096774D02*
X10219224Y-12992012D01*
X10219224Y-12992012D02*
X10209701Y-12972965D01*
X10209701Y-12972965D02*
X10190653Y-12963441D01*
X10190653Y-12963441D02*
X10152558Y-12963441D01*
X10152558Y-12963441D02*
X10133510Y-12972965D01*
X10219224Y-13087250D02*
X10200177Y-13096774D01*
X10200177Y-13096774D02*
X10152558Y-13096774D01*
X10152558Y-13096774D02*
X10133510Y-13087250D01*
X10133510Y-13087250D02*
X10123986Y-13068203D01*
X10123986Y-13068203D02*
X10123986Y-13049155D01*
X10123986Y-13049155D02*
X10133510Y-13030108D01*
X10133510Y-13030108D02*
X10152558Y-13020584D01*
X10152558Y-13020584D02*
X10200177Y-13020584D01*
X10200177Y-13020584D02*
X10219224Y-13011060D01*
X10314463Y-12963441D02*
X10314463Y-13163441D01*
X10314463Y-12972965D02*
X10333510Y-12963441D01*
X10333510Y-12963441D02*
X10371605Y-12963441D01*
X10371605Y-12963441D02*
X10390653Y-12972965D01*
X10390653Y-12972965D02*
X10400177Y-12982488D01*
X10400177Y-12982488D02*
X10409701Y-13001536D01*
X10409701Y-13001536D02*
X10409701Y-13058679D01*
X10409701Y-13058679D02*
X10400177Y-13077727D01*
X10400177Y-13077727D02*
X10390653Y-13087250D01*
X10390653Y-13087250D02*
X10371605Y-13096774D01*
X10371605Y-13096774D02*
X10333510Y-13096774D01*
X10333510Y-13096774D02*
X10314463Y-13087250D01*
X10495415Y-13077727D02*
X10504939Y-13087250D01*
X10504939Y-13087250D02*
X10495415Y-13096774D01*
X10495415Y-13096774D02*
X10485891Y-13087250D01*
X10485891Y-13087250D02*
X10495415Y-13077727D01*
X10495415Y-13077727D02*
X10495415Y-13096774D01*
X10495415Y-12972965D02*
X10504939Y-12982488D01*
X10504939Y-12982488D02*
X10495415Y-12992012D01*
X10495415Y-12992012D02*
X10485891Y-12982488D01*
X10485891Y-12982488D02*
X10495415Y-12972965D01*
X10495415Y-12972965D02*
X10495415Y-12992012D01*
D12*
X8833210Y-13410290D02*
X8863210Y-13440290D01*
X8863210Y-13410290D02*
X8833210Y-13440290D01*
D11*
X9162082Y-13316774D02*
X9181129Y-13316774D01*
X9181129Y-13316774D02*
X9200177Y-13326298D01*
X9200177Y-13326298D02*
X9209701Y-13335822D01*
X9209701Y-13335822D02*
X9219224Y-13354869D01*
X9219224Y-13354869D02*
X9228748Y-13392965D01*
X9228748Y-13392965D02*
X9228748Y-13440584D01*
X9228748Y-13440584D02*
X9219224Y-13478679D01*
X9219224Y-13478679D02*
X9209701Y-13497727D01*
X9209701Y-13497727D02*
X9200177Y-13507250D01*
X9200177Y-13507250D02*
X9181129Y-13516774D01*
X9181129Y-13516774D02*
X9162082Y-13516774D01*
X9162082Y-13516774D02*
X9143034Y-13507250D01*
X9143034Y-13507250D02*
X9133510Y-13497727D01*
X9133510Y-13497727D02*
X9123986Y-13478679D01*
X9123986Y-13478679D02*
X9114463Y-13440584D01*
X9114463Y-13440584D02*
X9114463Y-13392965D01*
X9114463Y-13392965D02*
X9123986Y-13354869D01*
X9123986Y-13354869D02*
X9133510Y-13335822D01*
X9133510Y-13335822D02*
X9143034Y-13326298D01*
X9143034Y-13326298D02*
X9162082Y-13316774D01*
X9314463Y-13497727D02*
X9323986Y-13507250D01*
X9323986Y-13507250D02*
X9314463Y-13516774D01*
X9314463Y-13516774D02*
X9304939Y-13507250D01*
X9304939Y-13507250D02*
X9314463Y-13497727D01*
X9314463Y-13497727D02*
X9314463Y-13516774D01*
X9390653Y-13316774D02*
X9514463Y-13316774D01*
X9514463Y-13316774D02*
X9447796Y-13392965D01*
X9447796Y-13392965D02*
X9476367Y-13392965D01*
X9476367Y-13392965D02*
X9495415Y-13402488D01*
X9495415Y-13402488D02*
X9504939Y-13412012D01*
X9504939Y-13412012D02*
X9514463Y-13431060D01*
X9514463Y-13431060D02*
X9514463Y-13478679D01*
X9514463Y-13478679D02*
X9504939Y-13497727D01*
X9504939Y-13497727D02*
X9495415Y-13507250D01*
X9495415Y-13507250D02*
X9476367Y-13516774D01*
X9476367Y-13516774D02*
X9419224Y-13516774D01*
X9419224Y-13516774D02*
X9400177Y-13507250D01*
X9400177Y-13507250D02*
X9390653Y-13497727D01*
X9638272Y-13316774D02*
X9657320Y-13316774D01*
X9657320Y-13316774D02*
X9676367Y-13326298D01*
X9676367Y-13326298D02*
X9685891Y-13335822D01*
X9685891Y-13335822D02*
X9695415Y-13354869D01*
X9695415Y-13354869D02*
X9704939Y-13392965D01*
X9704939Y-13392965D02*
X9704939Y-13440584D01*
X9704939Y-13440584D02*
X9695415Y-13478679D01*
X9695415Y-13478679D02*
X9685891Y-13497727D01*
X9685891Y-13497727D02*
X9676367Y-13507250D01*
X9676367Y-13507250D02*
X9657320Y-13516774D01*
X9657320Y-13516774D02*
X9638272Y-13516774D01*
X9638272Y-13516774D02*
X9619224Y-13507250D01*
X9619224Y-13507250D02*
X9609701Y-13497727D01*
X9609701Y-13497727D02*
X9600177Y-13478679D01*
X9600177Y-13478679D02*
X9590653Y-13440584D01*
X9590653Y-13440584D02*
X9590653Y-13392965D01*
X9590653Y-13392965D02*
X9600177Y-13354869D01*
X9600177Y-13354869D02*
X9609701Y-13335822D01*
X9609701Y-13335822D02*
X9619224Y-13326298D01*
X9619224Y-13326298D02*
X9638272Y-13316774D01*
X9828748Y-13316774D02*
X9847796Y-13316774D01*
X9847796Y-13316774D02*
X9866844Y-13326298D01*
X9866844Y-13326298D02*
X9876367Y-13335822D01*
X9876367Y-13335822D02*
X9885891Y-13354869D01*
X9885891Y-13354869D02*
X9895415Y-13392965D01*
X9895415Y-13392965D02*
X9895415Y-13440584D01*
X9895415Y-13440584D02*
X9885891Y-13478679D01*
X9885891Y-13478679D02*
X9876367Y-13497727D01*
X9876367Y-13497727D02*
X9866844Y-13507250D01*
X9866844Y-13507250D02*
X9847796Y-13516774D01*
X9847796Y-13516774D02*
X9828748Y-13516774D01*
X9828748Y-13516774D02*
X9809701Y-13507250D01*
X9809701Y-13507250D02*
X9800177Y-13497727D01*
X9800177Y-13497727D02*
X9790653Y-13478679D01*
X9790653Y-13478679D02*
X9781129Y-13440584D01*
X9781129Y-13440584D02*
X9781129Y-13392965D01*
X9781129Y-13392965D02*
X9790653Y-13354869D01*
X9790653Y-13354869D02*
X9800177Y-13335822D01*
X9800177Y-13335822D02*
X9809701Y-13326298D01*
X9809701Y-13326298D02*
X9828748Y-13316774D01*
X9981129Y-13516774D02*
X9981129Y-13383441D01*
X9981129Y-13402488D02*
X9990653Y-13392965D01*
X9990653Y-13392965D02*
X10009701Y-13383441D01*
X10009701Y-13383441D02*
X10038272Y-13383441D01*
X10038272Y-13383441D02*
X10057320Y-13392965D01*
X10057320Y-13392965D02*
X10066844Y-13412012D01*
X10066844Y-13412012D02*
X10066844Y-13516774D01*
X10066844Y-13412012D02*
X10076367Y-13392965D01*
X10076367Y-13392965D02*
X10095415Y-13383441D01*
X10095415Y-13383441D02*
X10123986Y-13383441D01*
X10123986Y-13383441D02*
X10143034Y-13392965D01*
X10143034Y-13392965D02*
X10152558Y-13412012D01*
X10152558Y-13412012D02*
X10152558Y-13516774D01*
X10247796Y-13516774D02*
X10247796Y-13383441D01*
X10247796Y-13402488D02*
X10257320Y-13392965D01*
X10257320Y-13392965D02*
X10276367Y-13383441D01*
X10276367Y-13383441D02*
X10304939Y-13383441D01*
X10304939Y-13383441D02*
X10323986Y-13392965D01*
X10323986Y-13392965D02*
X10333510Y-13412012D01*
X10333510Y-13412012D02*
X10333510Y-13516774D01*
X10333510Y-13412012D02*
X10343034Y-13392965D01*
X10343034Y-13392965D02*
X10362082Y-13383441D01*
X10362082Y-13383441D02*
X10390653Y-13383441D01*
X10390653Y-13383441D02*
X10409701Y-13392965D01*
X10409701Y-13392965D02*
X10419225Y-13412012D01*
X10419225Y-13412012D02*
X10419225Y-13516774D01*
X10809701Y-13307250D02*
X10638272Y-13564393D01*
X11066844Y-13316774D02*
X11085891Y-13316774D01*
X11085891Y-13316774D02*
X11104939Y-13326298D01*
X11104939Y-13326298D02*
X11114463Y-13335822D01*
X11114463Y-13335822D02*
X11123987Y-13354869D01*
X11123987Y-13354869D02*
X11133510Y-13392965D01*
X11133510Y-13392965D02*
X11133510Y-13440584D01*
X11133510Y-13440584D02*
X11123987Y-13478679D01*
X11123987Y-13478679D02*
X11114463Y-13497727D01*
X11114463Y-13497727D02*
X11104939Y-13507250D01*
X11104939Y-13507250D02*
X11085891Y-13516774D01*
X11085891Y-13516774D02*
X11066844Y-13516774D01*
X11066844Y-13516774D02*
X11047796Y-13507250D01*
X11047796Y-13507250D02*
X11038272Y-13497727D01*
X11038272Y-13497727D02*
X11028748Y-13478679D01*
X11028748Y-13478679D02*
X11019225Y-13440584D01*
X11019225Y-13440584D02*
X11019225Y-13392965D01*
X11019225Y-13392965D02*
X11028748Y-13354869D01*
X11028748Y-13354869D02*
X11038272Y-13335822D01*
X11038272Y-13335822D02*
X11047796Y-13326298D01*
X11047796Y-13326298D02*
X11066844Y-13316774D01*
X11219225Y-13497727D02*
X11228748Y-13507250D01*
X11228748Y-13507250D02*
X11219225Y-13516774D01*
X11219225Y-13516774D02*
X11209701Y-13507250D01*
X11209701Y-13507250D02*
X11219225Y-13497727D01*
X11219225Y-13497727D02*
X11219225Y-13516774D01*
X11352558Y-13316774D02*
X11371606Y-13316774D01*
X11371606Y-13316774D02*
X11390653Y-13326298D01*
X11390653Y-13326298D02*
X11400177Y-13335822D01*
X11400177Y-13335822D02*
X11409701Y-13354869D01*
X11409701Y-13354869D02*
X11419225Y-13392965D01*
X11419225Y-13392965D02*
X11419225Y-13440584D01*
X11419225Y-13440584D02*
X11409701Y-13478679D01*
X11409701Y-13478679D02*
X11400177Y-13497727D01*
X11400177Y-13497727D02*
X11390653Y-13507250D01*
X11390653Y-13507250D02*
X11371606Y-13516774D01*
X11371606Y-13516774D02*
X11352558Y-13516774D01*
X11352558Y-13516774D02*
X11333510Y-13507250D01*
X11333510Y-13507250D02*
X11323986Y-13497727D01*
X11323986Y-13497727D02*
X11314463Y-13478679D01*
X11314463Y-13478679D02*
X11304939Y-13440584D01*
X11304939Y-13440584D02*
X11304939Y-13392965D01*
X11304939Y-13392965D02*
X11314463Y-13354869D01*
X11314463Y-13354869D02*
X11323986Y-13335822D01*
X11323986Y-13335822D02*
X11333510Y-13326298D01*
X11333510Y-13326298D02*
X11352558Y-13316774D01*
X11609701Y-13516774D02*
X11495415Y-13516774D01*
X11552558Y-13516774D02*
X11552558Y-13316774D01*
X11552558Y-13316774D02*
X11533510Y-13345346D01*
X11533510Y-13345346D02*
X11514463Y-13364393D01*
X11514463Y-13364393D02*
X11495415Y-13373917D01*
X11800177Y-13516774D02*
X11685891Y-13516774D01*
X11743034Y-13516774D02*
X11743034Y-13316774D01*
X11743034Y-13316774D02*
X11723986Y-13345346D01*
X11723986Y-13345346D02*
X11704939Y-13364393D01*
X11704939Y-13364393D02*
X11685891Y-13373917D01*
X11914463Y-13402488D02*
X11895415Y-13392965D01*
X11895415Y-13392965D02*
X11885891Y-13383441D01*
X11885891Y-13383441D02*
X11876367Y-13364393D01*
X11876367Y-13364393D02*
X11876367Y-13354869D01*
X11876367Y-13354869D02*
X11885891Y-13335822D01*
X11885891Y-13335822D02*
X11895415Y-13326298D01*
X11895415Y-13326298D02*
X11914463Y-13316774D01*
X11914463Y-13316774D02*
X11952558Y-13316774D01*
X11952558Y-13316774D02*
X11971606Y-13326298D01*
X11971606Y-13326298D02*
X11981129Y-13335822D01*
X11981129Y-13335822D02*
X11990653Y-13354869D01*
X11990653Y-13354869D02*
X11990653Y-13364393D01*
X11990653Y-13364393D02*
X11981129Y-13383441D01*
X11981129Y-13383441D02*
X11971606Y-13392965D01*
X11971606Y-13392965D02*
X11952558Y-13402488D01*
X11952558Y-13402488D02*
X11914463Y-13402488D01*
X11914463Y-13402488D02*
X11895415Y-13412012D01*
X11895415Y-13412012D02*
X11885891Y-13421536D01*
X11885891Y-13421536D02*
X11876367Y-13440584D01*
X11876367Y-13440584D02*
X11876367Y-13478679D01*
X11876367Y-13478679D02*
X11885891Y-13497727D01*
X11885891Y-13497727D02*
X11895415Y-13507250D01*
X11895415Y-13507250D02*
X11914463Y-13516774D01*
X11914463Y-13516774D02*
X11952558Y-13516774D01*
X11952558Y-13516774D02*
X11971606Y-13507250D01*
X11971606Y-13507250D02*
X11981129Y-13497727D01*
X11981129Y-13497727D02*
X11990653Y-13478679D01*
X11990653Y-13478679D02*
X11990653Y-13440584D01*
X11990653Y-13440584D02*
X11981129Y-13421536D01*
X11981129Y-13421536D02*
X11971606Y-13412012D01*
X11971606Y-13412012D02*
X11952558Y-13402488D01*
X12066844Y-13316774D02*
X12066844Y-13354869D01*
X12143034Y-13316774D02*
X12143034Y-13354869D01*
X12438272Y-13592965D02*
X12428748Y-13583441D01*
X12428748Y-13583441D02*
X12409701Y-13554869D01*
X12409701Y-13554869D02*
X12400177Y-13535822D01*
X12400177Y-13535822D02*
X12390653Y-13507250D01*
X12390653Y-13507250D02*
X12381129Y-13459631D01*
X12381129Y-13459631D02*
X12381129Y-13421536D01*
X12381129Y-13421536D02*
X12390653Y-13373917D01*
X12390653Y-13373917D02*
X12400177Y-13345346D01*
X12400177Y-13345346D02*
X12409701Y-13326298D01*
X12409701Y-13326298D02*
X12428748Y-13297727D01*
X12428748Y-13297727D02*
X12438272Y-13288203D01*
X12609701Y-13316774D02*
X12514463Y-13316774D01*
X12514463Y-13316774D02*
X12504939Y-13412012D01*
X12504939Y-13412012D02*
X12514463Y-13402488D01*
X12514463Y-13402488D02*
X12533510Y-13392965D01*
X12533510Y-13392965D02*
X12581129Y-13392965D01*
X12581129Y-13392965D02*
X12600177Y-13402488D01*
X12600177Y-13402488D02*
X12609701Y-13412012D01*
X12609701Y-13412012D02*
X12619225Y-13431060D01*
X12619225Y-13431060D02*
X12619225Y-13478679D01*
X12619225Y-13478679D02*
X12609701Y-13497727D01*
X12609701Y-13497727D02*
X12600177Y-13507250D01*
X12600177Y-13507250D02*
X12581129Y-13516774D01*
X12581129Y-13516774D02*
X12533510Y-13516774D01*
X12533510Y-13516774D02*
X12514463Y-13507250D01*
X12514463Y-13507250D02*
X12504939Y-13497727D01*
X12809701Y-13516774D02*
X12695415Y-13516774D01*
X12752558Y-13516774D02*
X12752558Y-13316774D01*
X12752558Y-13316774D02*
X12733510Y-13345346D01*
X12733510Y-13345346D02*
X12714463Y-13364393D01*
X12714463Y-13364393D02*
X12695415Y-13373917D01*
X12923987Y-13402488D02*
X12904939Y-13392965D01*
X12904939Y-13392965D02*
X12895415Y-13383441D01*
X12895415Y-13383441D02*
X12885891Y-13364393D01*
X12885891Y-13364393D02*
X12885891Y-13354869D01*
X12885891Y-13354869D02*
X12895415Y-13335822D01*
X12895415Y-13335822D02*
X12904939Y-13326298D01*
X12904939Y-13326298D02*
X12923987Y-13316774D01*
X12923987Y-13316774D02*
X12962082Y-13316774D01*
X12962082Y-13316774D02*
X12981129Y-13326298D01*
X12981129Y-13326298D02*
X12990653Y-13335822D01*
X12990653Y-13335822D02*
X13000177Y-13354869D01*
X13000177Y-13354869D02*
X13000177Y-13364393D01*
X13000177Y-13364393D02*
X12990653Y-13383441D01*
X12990653Y-13383441D02*
X12981129Y-13392965D01*
X12981129Y-13392965D02*
X12962082Y-13402488D01*
X12962082Y-13402488D02*
X12923987Y-13402488D01*
X12923987Y-13402488D02*
X12904939Y-13412012D01*
X12904939Y-13412012D02*
X12895415Y-13421536D01*
X12895415Y-13421536D02*
X12885891Y-13440584D01*
X12885891Y-13440584D02*
X12885891Y-13478679D01*
X12885891Y-13478679D02*
X12895415Y-13497727D01*
X12895415Y-13497727D02*
X12904939Y-13507250D01*
X12904939Y-13507250D02*
X12923987Y-13516774D01*
X12923987Y-13516774D02*
X12962082Y-13516774D01*
X12962082Y-13516774D02*
X12981129Y-13507250D01*
X12981129Y-13507250D02*
X12990653Y-13497727D01*
X12990653Y-13497727D02*
X13000177Y-13478679D01*
X13000177Y-13478679D02*
X13000177Y-13440584D01*
X13000177Y-13440584D02*
X12990653Y-13421536D01*
X12990653Y-13421536D02*
X12981129Y-13412012D01*
X12981129Y-13412012D02*
X12962082Y-13402488D01*
X13238272Y-13516774D02*
X13238272Y-13316774D01*
X13323987Y-13516774D02*
X13323987Y-13412012D01*
X13323987Y-13412012D02*
X13314463Y-13392965D01*
X13314463Y-13392965D02*
X13295415Y-13383441D01*
X13295415Y-13383441D02*
X13266844Y-13383441D01*
X13266844Y-13383441D02*
X13247796Y-13392965D01*
X13247796Y-13392965D02*
X13238272Y-13402488D01*
X13447796Y-13516774D02*
X13428749Y-13507250D01*
X13428749Y-13507250D02*
X13419225Y-13497727D01*
X13419225Y-13497727D02*
X13409701Y-13478679D01*
X13409701Y-13478679D02*
X13409701Y-13421536D01*
X13409701Y-13421536D02*
X13419225Y-13402488D01*
X13419225Y-13402488D02*
X13428749Y-13392965D01*
X13428749Y-13392965D02*
X13447796Y-13383441D01*
X13447796Y-13383441D02*
X13476368Y-13383441D01*
X13476368Y-13383441D02*
X13495415Y-13392965D01*
X13495415Y-13392965D02*
X13504939Y-13402488D01*
X13504939Y-13402488D02*
X13514463Y-13421536D01*
X13514463Y-13421536D02*
X13514463Y-13478679D01*
X13514463Y-13478679D02*
X13504939Y-13497727D01*
X13504939Y-13497727D02*
X13495415Y-13507250D01*
X13495415Y-13507250D02*
X13476368Y-13516774D01*
X13476368Y-13516774D02*
X13447796Y-13516774D01*
X13628749Y-13516774D02*
X13609701Y-13507250D01*
X13609701Y-13507250D02*
X13600177Y-13488203D01*
X13600177Y-13488203D02*
X13600177Y-13316774D01*
X13781130Y-13507250D02*
X13762082Y-13516774D01*
X13762082Y-13516774D02*
X13723987Y-13516774D01*
X13723987Y-13516774D02*
X13704939Y-13507250D01*
X13704939Y-13507250D02*
X13695415Y-13488203D01*
X13695415Y-13488203D02*
X13695415Y-13412012D01*
X13695415Y-13412012D02*
X13704939Y-13392965D01*
X13704939Y-13392965D02*
X13723987Y-13383441D01*
X13723987Y-13383441D02*
X13762082Y-13383441D01*
X13762082Y-13383441D02*
X13781130Y-13392965D01*
X13781130Y-13392965D02*
X13790653Y-13412012D01*
X13790653Y-13412012D02*
X13790653Y-13431060D01*
X13790653Y-13431060D02*
X13695415Y-13450108D01*
X13866844Y-13507250D02*
X13885891Y-13516774D01*
X13885891Y-13516774D02*
X13923987Y-13516774D01*
X13923987Y-13516774D02*
X13943034Y-13507250D01*
X13943034Y-13507250D02*
X13952558Y-13488203D01*
X13952558Y-13488203D02*
X13952558Y-13478679D01*
X13952558Y-13478679D02*
X13943034Y-13459631D01*
X13943034Y-13459631D02*
X13923987Y-13450108D01*
X13923987Y-13450108D02*
X13895415Y-13450108D01*
X13895415Y-13450108D02*
X13876368Y-13440584D01*
X13876368Y-13440584D02*
X13866844Y-13421536D01*
X13866844Y-13421536D02*
X13866844Y-13412012D01*
X13866844Y-13412012D02*
X13876368Y-13392965D01*
X13876368Y-13392965D02*
X13895415Y-13383441D01*
X13895415Y-13383441D02*
X13923987Y-13383441D01*
X13923987Y-13383441D02*
X13943034Y-13392965D01*
X14019225Y-13592965D02*
X14028749Y-13583441D01*
X14028749Y-13583441D02*
X14047796Y-13554869D01*
X14047796Y-13554869D02*
X14057320Y-13535822D01*
X14057320Y-13535822D02*
X14066844Y-13507250D01*
X14066844Y-13507250D02*
X14076368Y-13459631D01*
X14076368Y-13459631D02*
X14076368Y-13421536D01*
X14076368Y-13421536D02*
X14066844Y-13373917D01*
X14066844Y-13373917D02*
X14057320Y-13345346D01*
X14057320Y-13345346D02*
X14047796Y-13326298D01*
X14047796Y-13326298D02*
X14028749Y-13297727D01*
X14028749Y-13297727D02*
X14019225Y-13288203D01*
D12*
X8863210Y-13689290D02*
G75*
G02*
X8803210Y-13689290I-30000J0D01*
G01*
X8803210Y-13689290D02*
G75*
G02*
X8863210Y-13689290I30000J0D01*
G01*
D11*
X9162082Y-13580774D02*
X9181129Y-13580774D01*
X9181129Y-13580774D02*
X9200177Y-13590298D01*
X9200177Y-13590298D02*
X9209701Y-13599822D01*
X9209701Y-13599822D02*
X9219224Y-13618869D01*
X9219224Y-13618869D02*
X9228748Y-13656965D01*
X9228748Y-13656965D02*
X9228748Y-13704584D01*
X9228748Y-13704584D02*
X9219224Y-13742679D01*
X9219224Y-13742679D02*
X9209701Y-13761727D01*
X9209701Y-13761727D02*
X9200177Y-13771250D01*
X9200177Y-13771250D02*
X9181129Y-13780774D01*
X9181129Y-13780774D02*
X9162082Y-13780774D01*
X9162082Y-13780774D02*
X9143034Y-13771250D01*
X9143034Y-13771250D02*
X9133510Y-13761727D01*
X9133510Y-13761727D02*
X9123986Y-13742679D01*
X9123986Y-13742679D02*
X9114463Y-13704584D01*
X9114463Y-13704584D02*
X9114463Y-13656965D01*
X9114463Y-13656965D02*
X9123986Y-13618869D01*
X9123986Y-13618869D02*
X9133510Y-13599822D01*
X9133510Y-13599822D02*
X9143034Y-13590298D01*
X9143034Y-13590298D02*
X9162082Y-13580774D01*
X9314463Y-13761727D02*
X9323986Y-13771250D01*
X9323986Y-13771250D02*
X9314463Y-13780774D01*
X9314463Y-13780774D02*
X9304939Y-13771250D01*
X9304939Y-13771250D02*
X9314463Y-13761727D01*
X9314463Y-13761727D02*
X9314463Y-13780774D01*
X9495415Y-13580774D02*
X9457320Y-13580774D01*
X9457320Y-13580774D02*
X9438272Y-13590298D01*
X9438272Y-13590298D02*
X9428748Y-13599822D01*
X9428748Y-13599822D02*
X9409701Y-13628393D01*
X9409701Y-13628393D02*
X9400177Y-13666488D01*
X9400177Y-13666488D02*
X9400177Y-13742679D01*
X9400177Y-13742679D02*
X9409701Y-13761727D01*
X9409701Y-13761727D02*
X9419224Y-13771250D01*
X9419224Y-13771250D02*
X9438272Y-13780774D01*
X9438272Y-13780774D02*
X9476367Y-13780774D01*
X9476367Y-13780774D02*
X9495415Y-13771250D01*
X9495415Y-13771250D02*
X9504939Y-13761727D01*
X9504939Y-13761727D02*
X9514463Y-13742679D01*
X9514463Y-13742679D02*
X9514463Y-13695060D01*
X9514463Y-13695060D02*
X9504939Y-13676012D01*
X9504939Y-13676012D02*
X9495415Y-13666488D01*
X9495415Y-13666488D02*
X9476367Y-13656965D01*
X9476367Y-13656965D02*
X9438272Y-13656965D01*
X9438272Y-13656965D02*
X9419224Y-13666488D01*
X9419224Y-13666488D02*
X9409701Y-13676012D01*
X9409701Y-13676012D02*
X9400177Y-13695060D01*
X9638272Y-13580774D02*
X9657320Y-13580774D01*
X9657320Y-13580774D02*
X9676367Y-13590298D01*
X9676367Y-13590298D02*
X9685891Y-13599822D01*
X9685891Y-13599822D02*
X9695415Y-13618869D01*
X9695415Y-13618869D02*
X9704939Y-13656965D01*
X9704939Y-13656965D02*
X9704939Y-13704584D01*
X9704939Y-13704584D02*
X9695415Y-13742679D01*
X9695415Y-13742679D02*
X9685891Y-13761727D01*
X9685891Y-13761727D02*
X9676367Y-13771250D01*
X9676367Y-13771250D02*
X9657320Y-13780774D01*
X9657320Y-13780774D02*
X9638272Y-13780774D01*
X9638272Y-13780774D02*
X9619224Y-13771250D01*
X9619224Y-13771250D02*
X9609701Y-13761727D01*
X9609701Y-13761727D02*
X9600177Y-13742679D01*
X9600177Y-13742679D02*
X9590653Y-13704584D01*
X9590653Y-13704584D02*
X9590653Y-13656965D01*
X9590653Y-13656965D02*
X9600177Y-13618869D01*
X9600177Y-13618869D02*
X9609701Y-13599822D01*
X9609701Y-13599822D02*
X9619224Y-13590298D01*
X9619224Y-13590298D02*
X9638272Y-13580774D01*
X9828748Y-13580774D02*
X9847796Y-13580774D01*
X9847796Y-13580774D02*
X9866844Y-13590298D01*
X9866844Y-13590298D02*
X9876367Y-13599822D01*
X9876367Y-13599822D02*
X9885891Y-13618869D01*
X9885891Y-13618869D02*
X9895415Y-13656965D01*
X9895415Y-13656965D02*
X9895415Y-13704584D01*
X9895415Y-13704584D02*
X9885891Y-13742679D01*
X9885891Y-13742679D02*
X9876367Y-13761727D01*
X9876367Y-13761727D02*
X9866844Y-13771250D01*
X9866844Y-13771250D02*
X9847796Y-13780774D01*
X9847796Y-13780774D02*
X9828748Y-13780774D01*
X9828748Y-13780774D02*
X9809701Y-13771250D01*
X9809701Y-13771250D02*
X9800177Y-13761727D01*
X9800177Y-13761727D02*
X9790653Y-13742679D01*
X9790653Y-13742679D02*
X9781129Y-13704584D01*
X9781129Y-13704584D02*
X9781129Y-13656965D01*
X9781129Y-13656965D02*
X9790653Y-13618869D01*
X9790653Y-13618869D02*
X9800177Y-13599822D01*
X9800177Y-13599822D02*
X9809701Y-13590298D01*
X9809701Y-13590298D02*
X9828748Y-13580774D01*
X9981129Y-13780774D02*
X9981129Y-13647441D01*
X9981129Y-13666488D02*
X9990653Y-13656965D01*
X9990653Y-13656965D02*
X10009701Y-13647441D01*
X10009701Y-13647441D02*
X10038272Y-13647441D01*
X10038272Y-13647441D02*
X10057320Y-13656965D01*
X10057320Y-13656965D02*
X10066844Y-13676012D01*
X10066844Y-13676012D02*
X10066844Y-13780774D01*
X10066844Y-13676012D02*
X10076367Y-13656965D01*
X10076367Y-13656965D02*
X10095415Y-13647441D01*
X10095415Y-13647441D02*
X10123986Y-13647441D01*
X10123986Y-13647441D02*
X10143034Y-13656965D01*
X10143034Y-13656965D02*
X10152558Y-13676012D01*
X10152558Y-13676012D02*
X10152558Y-13780774D01*
X10247796Y-13780774D02*
X10247796Y-13647441D01*
X10247796Y-13666488D02*
X10257320Y-13656965D01*
X10257320Y-13656965D02*
X10276367Y-13647441D01*
X10276367Y-13647441D02*
X10304939Y-13647441D01*
X10304939Y-13647441D02*
X10323986Y-13656965D01*
X10323986Y-13656965D02*
X10333510Y-13676012D01*
X10333510Y-13676012D02*
X10333510Y-13780774D01*
X10333510Y-13676012D02*
X10343034Y-13656965D01*
X10343034Y-13656965D02*
X10362082Y-13647441D01*
X10362082Y-13647441D02*
X10390653Y-13647441D01*
X10390653Y-13647441D02*
X10409701Y-13656965D01*
X10409701Y-13656965D02*
X10419225Y-13676012D01*
X10419225Y-13676012D02*
X10419225Y-13780774D01*
X10809701Y-13571250D02*
X10638272Y-13828393D01*
X11066844Y-13580774D02*
X11085891Y-13580774D01*
X11085891Y-13580774D02*
X11104939Y-13590298D01*
X11104939Y-13590298D02*
X11114463Y-13599822D01*
X11114463Y-13599822D02*
X11123987Y-13618869D01*
X11123987Y-13618869D02*
X11133510Y-13656965D01*
X11133510Y-13656965D02*
X11133510Y-13704584D01*
X11133510Y-13704584D02*
X11123987Y-13742679D01*
X11123987Y-13742679D02*
X11114463Y-13761727D01*
X11114463Y-13761727D02*
X11104939Y-13771250D01*
X11104939Y-13771250D02*
X11085891Y-13780774D01*
X11085891Y-13780774D02*
X11066844Y-13780774D01*
X11066844Y-13780774D02*
X11047796Y-13771250D01*
X11047796Y-13771250D02*
X11038272Y-13761727D01*
X11038272Y-13761727D02*
X11028748Y-13742679D01*
X11028748Y-13742679D02*
X11019225Y-13704584D01*
X11019225Y-13704584D02*
X11019225Y-13656965D01*
X11019225Y-13656965D02*
X11028748Y-13618869D01*
X11028748Y-13618869D02*
X11038272Y-13599822D01*
X11038272Y-13599822D02*
X11047796Y-13590298D01*
X11047796Y-13590298D02*
X11066844Y-13580774D01*
X11219225Y-13761727D02*
X11228748Y-13771250D01*
X11228748Y-13771250D02*
X11219225Y-13780774D01*
X11219225Y-13780774D02*
X11209701Y-13771250D01*
X11209701Y-13771250D02*
X11219225Y-13761727D01*
X11219225Y-13761727D02*
X11219225Y-13780774D01*
X11352558Y-13580774D02*
X11371606Y-13580774D01*
X11371606Y-13580774D02*
X11390653Y-13590298D01*
X11390653Y-13590298D02*
X11400177Y-13599822D01*
X11400177Y-13599822D02*
X11409701Y-13618869D01*
X11409701Y-13618869D02*
X11419225Y-13656965D01*
X11419225Y-13656965D02*
X11419225Y-13704584D01*
X11419225Y-13704584D02*
X11409701Y-13742679D01*
X11409701Y-13742679D02*
X11400177Y-13761727D01*
X11400177Y-13761727D02*
X11390653Y-13771250D01*
X11390653Y-13771250D02*
X11371606Y-13780774D01*
X11371606Y-13780774D02*
X11352558Y-13780774D01*
X11352558Y-13780774D02*
X11333510Y-13771250D01*
X11333510Y-13771250D02*
X11323986Y-13761727D01*
X11323986Y-13761727D02*
X11314463Y-13742679D01*
X11314463Y-13742679D02*
X11304939Y-13704584D01*
X11304939Y-13704584D02*
X11304939Y-13656965D01*
X11304939Y-13656965D02*
X11314463Y-13618869D01*
X11314463Y-13618869D02*
X11323986Y-13599822D01*
X11323986Y-13599822D02*
X11333510Y-13590298D01*
X11333510Y-13590298D02*
X11352558Y-13580774D01*
X11495415Y-13599822D02*
X11504939Y-13590298D01*
X11504939Y-13590298D02*
X11523986Y-13580774D01*
X11523986Y-13580774D02*
X11571606Y-13580774D01*
X11571606Y-13580774D02*
X11590653Y-13590298D01*
X11590653Y-13590298D02*
X11600177Y-13599822D01*
X11600177Y-13599822D02*
X11609701Y-13618869D01*
X11609701Y-13618869D02*
X11609701Y-13637917D01*
X11609701Y-13637917D02*
X11600177Y-13666488D01*
X11600177Y-13666488D02*
X11485891Y-13780774D01*
X11485891Y-13780774D02*
X11609701Y-13780774D01*
X11676367Y-13580774D02*
X11800177Y-13580774D01*
X11800177Y-13580774D02*
X11733510Y-13656965D01*
X11733510Y-13656965D02*
X11762082Y-13656965D01*
X11762082Y-13656965D02*
X11781129Y-13666488D01*
X11781129Y-13666488D02*
X11790653Y-13676012D01*
X11790653Y-13676012D02*
X11800177Y-13695060D01*
X11800177Y-13695060D02*
X11800177Y-13742679D01*
X11800177Y-13742679D02*
X11790653Y-13761727D01*
X11790653Y-13761727D02*
X11781129Y-13771250D01*
X11781129Y-13771250D02*
X11762082Y-13780774D01*
X11762082Y-13780774D02*
X11704939Y-13780774D01*
X11704939Y-13780774D02*
X11685891Y-13771250D01*
X11685891Y-13771250D02*
X11676367Y-13761727D01*
X11971606Y-13580774D02*
X11933510Y-13580774D01*
X11933510Y-13580774D02*
X11914463Y-13590298D01*
X11914463Y-13590298D02*
X11904939Y-13599822D01*
X11904939Y-13599822D02*
X11885891Y-13628393D01*
X11885891Y-13628393D02*
X11876367Y-13666488D01*
X11876367Y-13666488D02*
X11876367Y-13742679D01*
X11876367Y-13742679D02*
X11885891Y-13761727D01*
X11885891Y-13761727D02*
X11895415Y-13771250D01*
X11895415Y-13771250D02*
X11914463Y-13780774D01*
X11914463Y-13780774D02*
X11952558Y-13780774D01*
X11952558Y-13780774D02*
X11971606Y-13771250D01*
X11971606Y-13771250D02*
X11981129Y-13761727D01*
X11981129Y-13761727D02*
X11990653Y-13742679D01*
X11990653Y-13742679D02*
X11990653Y-13695060D01*
X11990653Y-13695060D02*
X11981129Y-13676012D01*
X11981129Y-13676012D02*
X11971606Y-13666488D01*
X11971606Y-13666488D02*
X11952558Y-13656965D01*
X11952558Y-13656965D02*
X11914463Y-13656965D01*
X11914463Y-13656965D02*
X11895415Y-13666488D01*
X11895415Y-13666488D02*
X11885891Y-13676012D01*
X11885891Y-13676012D02*
X11876367Y-13695060D01*
X12066844Y-13580774D02*
X12066844Y-13618869D01*
X12143034Y-13580774D02*
X12143034Y-13618869D01*
X12438272Y-13856965D02*
X12428748Y-13847441D01*
X12428748Y-13847441D02*
X12409701Y-13818869D01*
X12409701Y-13818869D02*
X12400177Y-13799822D01*
X12400177Y-13799822D02*
X12390653Y-13771250D01*
X12390653Y-13771250D02*
X12381129Y-13723631D01*
X12381129Y-13723631D02*
X12381129Y-13685536D01*
X12381129Y-13685536D02*
X12390653Y-13637917D01*
X12390653Y-13637917D02*
X12400177Y-13609346D01*
X12400177Y-13609346D02*
X12409701Y-13590298D01*
X12409701Y-13590298D02*
X12428748Y-13561727D01*
X12428748Y-13561727D02*
X12438272Y-13552203D01*
X12552558Y-13580774D02*
X12571606Y-13580774D01*
X12571606Y-13580774D02*
X12590653Y-13590298D01*
X12590653Y-13590298D02*
X12600177Y-13599822D01*
X12600177Y-13599822D02*
X12609701Y-13618869D01*
X12609701Y-13618869D02*
X12619225Y-13656965D01*
X12619225Y-13656965D02*
X12619225Y-13704584D01*
X12619225Y-13704584D02*
X12609701Y-13742679D01*
X12609701Y-13742679D02*
X12600177Y-13761727D01*
X12600177Y-13761727D02*
X12590653Y-13771250D01*
X12590653Y-13771250D02*
X12571606Y-13780774D01*
X12571606Y-13780774D02*
X12552558Y-13780774D01*
X12552558Y-13780774D02*
X12533510Y-13771250D01*
X12533510Y-13771250D02*
X12523987Y-13761727D01*
X12523987Y-13761727D02*
X12514463Y-13742679D01*
X12514463Y-13742679D02*
X12504939Y-13704584D01*
X12504939Y-13704584D02*
X12504939Y-13656965D01*
X12504939Y-13656965D02*
X12514463Y-13618869D01*
X12514463Y-13618869D02*
X12523987Y-13599822D01*
X12523987Y-13599822D02*
X12533510Y-13590298D01*
X12533510Y-13590298D02*
X12552558Y-13580774D01*
X12857320Y-13780774D02*
X12857320Y-13580774D01*
X12943034Y-13780774D02*
X12943034Y-13676012D01*
X12943034Y-13676012D02*
X12933510Y-13656965D01*
X12933510Y-13656965D02*
X12914463Y-13647441D01*
X12914463Y-13647441D02*
X12885891Y-13647441D01*
X12885891Y-13647441D02*
X12866844Y-13656965D01*
X12866844Y-13656965D02*
X12857320Y-13666488D01*
X13066844Y-13780774D02*
X13047796Y-13771250D01*
X13047796Y-13771250D02*
X13038272Y-13761727D01*
X13038272Y-13761727D02*
X13028749Y-13742679D01*
X13028749Y-13742679D02*
X13028749Y-13685536D01*
X13028749Y-13685536D02*
X13038272Y-13666488D01*
X13038272Y-13666488D02*
X13047796Y-13656965D01*
X13047796Y-13656965D02*
X13066844Y-13647441D01*
X13066844Y-13647441D02*
X13095415Y-13647441D01*
X13095415Y-13647441D02*
X13114463Y-13656965D01*
X13114463Y-13656965D02*
X13123987Y-13666488D01*
X13123987Y-13666488D02*
X13133510Y-13685536D01*
X13133510Y-13685536D02*
X13133510Y-13742679D01*
X13133510Y-13742679D02*
X13123987Y-13761727D01*
X13123987Y-13761727D02*
X13114463Y-13771250D01*
X13114463Y-13771250D02*
X13095415Y-13780774D01*
X13095415Y-13780774D02*
X13066844Y-13780774D01*
X13247796Y-13780774D02*
X13228749Y-13771250D01*
X13228749Y-13771250D02*
X13219225Y-13752203D01*
X13219225Y-13752203D02*
X13219225Y-13580774D01*
X13400177Y-13771250D02*
X13381130Y-13780774D01*
X13381130Y-13780774D02*
X13343034Y-13780774D01*
X13343034Y-13780774D02*
X13323987Y-13771250D01*
X13323987Y-13771250D02*
X13314463Y-13752203D01*
X13314463Y-13752203D02*
X13314463Y-13676012D01*
X13314463Y-13676012D02*
X13323987Y-13656965D01*
X13323987Y-13656965D02*
X13343034Y-13647441D01*
X13343034Y-13647441D02*
X13381130Y-13647441D01*
X13381130Y-13647441D02*
X13400177Y-13656965D01*
X13400177Y-13656965D02*
X13409701Y-13676012D01*
X13409701Y-13676012D02*
X13409701Y-13695060D01*
X13409701Y-13695060D02*
X13314463Y-13714108D01*
X13485891Y-13771250D02*
X13504939Y-13780774D01*
X13504939Y-13780774D02*
X13543034Y-13780774D01*
X13543034Y-13780774D02*
X13562082Y-13771250D01*
X13562082Y-13771250D02*
X13571606Y-13752203D01*
X13571606Y-13752203D02*
X13571606Y-13742679D01*
X13571606Y-13742679D02*
X13562082Y-13723631D01*
X13562082Y-13723631D02*
X13543034Y-13714108D01*
X13543034Y-13714108D02*
X13514463Y-13714108D01*
X13514463Y-13714108D02*
X13495415Y-13704584D01*
X13495415Y-13704584D02*
X13485891Y-13685536D01*
X13485891Y-13685536D02*
X13485891Y-13676012D01*
X13485891Y-13676012D02*
X13495415Y-13656965D01*
X13495415Y-13656965D02*
X13514463Y-13647441D01*
X13514463Y-13647441D02*
X13543034Y-13647441D01*
X13543034Y-13647441D02*
X13562082Y-13656965D01*
X13809701Y-13704584D02*
X13962082Y-13704584D01*
X13885892Y-13780774D02*
X13885892Y-13628393D01*
X14295415Y-13647441D02*
X14295415Y-13780774D01*
X14247796Y-13571250D02*
X14200177Y-13714108D01*
X14200177Y-13714108D02*
X14323987Y-13714108D01*
X14543034Y-13771250D02*
X14562082Y-13780774D01*
X14562082Y-13780774D02*
X14600177Y-13780774D01*
X14600177Y-13780774D02*
X14619225Y-13771250D01*
X14619225Y-13771250D02*
X14628749Y-13752203D01*
X14628749Y-13752203D02*
X14628749Y-13742679D01*
X14628749Y-13742679D02*
X14619225Y-13723631D01*
X14619225Y-13723631D02*
X14600177Y-13714108D01*
X14600177Y-13714108D02*
X14571606Y-13714108D01*
X14571606Y-13714108D02*
X14552558Y-13704584D01*
X14552558Y-13704584D02*
X14543034Y-13685536D01*
X14543034Y-13685536D02*
X14543034Y-13676012D01*
X14543034Y-13676012D02*
X14552558Y-13656965D01*
X14552558Y-13656965D02*
X14571606Y-13647441D01*
X14571606Y-13647441D02*
X14600177Y-13647441D01*
X14600177Y-13647441D02*
X14619225Y-13656965D01*
X14743034Y-13780774D02*
X14723987Y-13771250D01*
X14723987Y-13771250D02*
X14714463Y-13752203D01*
X14714463Y-13752203D02*
X14714463Y-13580774D01*
X14847796Y-13780774D02*
X14828749Y-13771250D01*
X14828749Y-13771250D02*
X14819225Y-13761727D01*
X14819225Y-13761727D02*
X14809701Y-13742679D01*
X14809701Y-13742679D02*
X14809701Y-13685536D01*
X14809701Y-13685536D02*
X14819225Y-13666488D01*
X14819225Y-13666488D02*
X14828749Y-13656965D01*
X14828749Y-13656965D02*
X14847796Y-13647441D01*
X14847796Y-13647441D02*
X14876368Y-13647441D01*
X14876368Y-13647441D02*
X14895415Y-13656965D01*
X14895415Y-13656965D02*
X14904939Y-13666488D01*
X14904939Y-13666488D02*
X14914463Y-13685536D01*
X14914463Y-13685536D02*
X14914463Y-13742679D01*
X14914463Y-13742679D02*
X14904939Y-13761727D01*
X14904939Y-13761727D02*
X14895415Y-13771250D01*
X14895415Y-13771250D02*
X14876368Y-13780774D01*
X14876368Y-13780774D02*
X14847796Y-13780774D01*
X14971606Y-13647441D02*
X15047796Y-13647441D01*
X15000177Y-13580774D02*
X15000177Y-13752203D01*
X15000177Y-13752203D02*
X15009701Y-13771250D01*
X15009701Y-13771250D02*
X15028749Y-13780774D01*
X15028749Y-13780774D02*
X15047796Y-13780774D01*
X15104939Y-13771250D02*
X15123987Y-13780774D01*
X15123987Y-13780774D02*
X15162082Y-13780774D01*
X15162082Y-13780774D02*
X15181130Y-13771250D01*
X15181130Y-13771250D02*
X15190654Y-13752203D01*
X15190654Y-13752203D02*
X15190654Y-13742679D01*
X15190654Y-13742679D02*
X15181130Y-13723631D01*
X15181130Y-13723631D02*
X15162082Y-13714108D01*
X15162082Y-13714108D02*
X15133511Y-13714108D01*
X15133511Y-13714108D02*
X15114463Y-13704584D01*
X15114463Y-13704584D02*
X15104939Y-13685536D01*
X15104939Y-13685536D02*
X15104939Y-13676012D01*
X15104939Y-13676012D02*
X15114463Y-13656965D01*
X15114463Y-13656965D02*
X15133511Y-13647441D01*
X15133511Y-13647441D02*
X15162082Y-13647441D01*
X15162082Y-13647441D02*
X15181130Y-13656965D01*
X15257320Y-13856965D02*
X15266844Y-13847441D01*
X15266844Y-13847441D02*
X15285892Y-13818869D01*
X15285892Y-13818869D02*
X15295415Y-13799822D01*
X15295415Y-13799822D02*
X15304939Y-13771250D01*
X15304939Y-13771250D02*
X15314463Y-13723631D01*
X15314463Y-13723631D02*
X15314463Y-13685536D01*
X15314463Y-13685536D02*
X15304939Y-13637917D01*
X15304939Y-13637917D02*
X15295415Y-13609346D01*
X15295415Y-13609346D02*
X15285892Y-13590298D01*
X15285892Y-13590298D02*
X15266844Y-13561727D01*
X15266844Y-13561727D02*
X15257320Y-13552203D01*
D12*
X8823210Y-13913290D02*
X8823210Y-13993290D01*
X8783210Y-13953290D02*
X8863210Y-13953290D01*
D11*
X9162082Y-13844774D02*
X9181129Y-13844774D01*
X9181129Y-13844774D02*
X9200177Y-13854298D01*
X9200177Y-13854298D02*
X9209701Y-13863822D01*
X9209701Y-13863822D02*
X9219224Y-13882869D01*
X9219224Y-13882869D02*
X9228748Y-13920965D01*
X9228748Y-13920965D02*
X9228748Y-13968584D01*
X9228748Y-13968584D02*
X9219224Y-14006679D01*
X9219224Y-14006679D02*
X9209701Y-14025727D01*
X9209701Y-14025727D02*
X9200177Y-14035250D01*
X9200177Y-14035250D02*
X9181129Y-14044774D01*
X9181129Y-14044774D02*
X9162082Y-14044774D01*
X9162082Y-14044774D02*
X9143034Y-14035250D01*
X9143034Y-14035250D02*
X9133510Y-14025727D01*
X9133510Y-14025727D02*
X9123986Y-14006679D01*
X9123986Y-14006679D02*
X9114463Y-13968584D01*
X9114463Y-13968584D02*
X9114463Y-13920965D01*
X9114463Y-13920965D02*
X9123986Y-13882869D01*
X9123986Y-13882869D02*
X9133510Y-13863822D01*
X9133510Y-13863822D02*
X9143034Y-13854298D01*
X9143034Y-13854298D02*
X9162082Y-13844774D01*
X9314463Y-14025727D02*
X9323986Y-14035250D01*
X9323986Y-14035250D02*
X9314463Y-14044774D01*
X9314463Y-14044774D02*
X9304939Y-14035250D01*
X9304939Y-14035250D02*
X9314463Y-14025727D01*
X9314463Y-14025727D02*
X9314463Y-14044774D01*
X9438272Y-13930488D02*
X9419224Y-13920965D01*
X9419224Y-13920965D02*
X9409701Y-13911441D01*
X9409701Y-13911441D02*
X9400177Y-13892393D01*
X9400177Y-13892393D02*
X9400177Y-13882869D01*
X9400177Y-13882869D02*
X9409701Y-13863822D01*
X9409701Y-13863822D02*
X9419224Y-13854298D01*
X9419224Y-13854298D02*
X9438272Y-13844774D01*
X9438272Y-13844774D02*
X9476367Y-13844774D01*
X9476367Y-13844774D02*
X9495415Y-13854298D01*
X9495415Y-13854298D02*
X9504939Y-13863822D01*
X9504939Y-13863822D02*
X9514463Y-13882869D01*
X9514463Y-13882869D02*
X9514463Y-13892393D01*
X9514463Y-13892393D02*
X9504939Y-13911441D01*
X9504939Y-13911441D02*
X9495415Y-13920965D01*
X9495415Y-13920965D02*
X9476367Y-13930488D01*
X9476367Y-13930488D02*
X9438272Y-13930488D01*
X9438272Y-13930488D02*
X9419224Y-13940012D01*
X9419224Y-13940012D02*
X9409701Y-13949536D01*
X9409701Y-13949536D02*
X9400177Y-13968584D01*
X9400177Y-13968584D02*
X9400177Y-14006679D01*
X9400177Y-14006679D02*
X9409701Y-14025727D01*
X9409701Y-14025727D02*
X9419224Y-14035250D01*
X9419224Y-14035250D02*
X9438272Y-14044774D01*
X9438272Y-14044774D02*
X9476367Y-14044774D01*
X9476367Y-14044774D02*
X9495415Y-14035250D01*
X9495415Y-14035250D02*
X9504939Y-14025727D01*
X9504939Y-14025727D02*
X9514463Y-14006679D01*
X9514463Y-14006679D02*
X9514463Y-13968584D01*
X9514463Y-13968584D02*
X9504939Y-13949536D01*
X9504939Y-13949536D02*
X9495415Y-13940012D01*
X9495415Y-13940012D02*
X9476367Y-13930488D01*
X9638272Y-13844774D02*
X9657320Y-13844774D01*
X9657320Y-13844774D02*
X9676367Y-13854298D01*
X9676367Y-13854298D02*
X9685891Y-13863822D01*
X9685891Y-13863822D02*
X9695415Y-13882869D01*
X9695415Y-13882869D02*
X9704939Y-13920965D01*
X9704939Y-13920965D02*
X9704939Y-13968584D01*
X9704939Y-13968584D02*
X9695415Y-14006679D01*
X9695415Y-14006679D02*
X9685891Y-14025727D01*
X9685891Y-14025727D02*
X9676367Y-14035250D01*
X9676367Y-14035250D02*
X9657320Y-14044774D01*
X9657320Y-14044774D02*
X9638272Y-14044774D01*
X9638272Y-14044774D02*
X9619224Y-14035250D01*
X9619224Y-14035250D02*
X9609701Y-14025727D01*
X9609701Y-14025727D02*
X9600177Y-14006679D01*
X9600177Y-14006679D02*
X9590653Y-13968584D01*
X9590653Y-13968584D02*
X9590653Y-13920965D01*
X9590653Y-13920965D02*
X9600177Y-13882869D01*
X9600177Y-13882869D02*
X9609701Y-13863822D01*
X9609701Y-13863822D02*
X9619224Y-13854298D01*
X9619224Y-13854298D02*
X9638272Y-13844774D01*
X9828748Y-13844774D02*
X9847796Y-13844774D01*
X9847796Y-13844774D02*
X9866844Y-13854298D01*
X9866844Y-13854298D02*
X9876367Y-13863822D01*
X9876367Y-13863822D02*
X9885891Y-13882869D01*
X9885891Y-13882869D02*
X9895415Y-13920965D01*
X9895415Y-13920965D02*
X9895415Y-13968584D01*
X9895415Y-13968584D02*
X9885891Y-14006679D01*
X9885891Y-14006679D02*
X9876367Y-14025727D01*
X9876367Y-14025727D02*
X9866844Y-14035250D01*
X9866844Y-14035250D02*
X9847796Y-14044774D01*
X9847796Y-14044774D02*
X9828748Y-14044774D01*
X9828748Y-14044774D02*
X9809701Y-14035250D01*
X9809701Y-14035250D02*
X9800177Y-14025727D01*
X9800177Y-14025727D02*
X9790653Y-14006679D01*
X9790653Y-14006679D02*
X9781129Y-13968584D01*
X9781129Y-13968584D02*
X9781129Y-13920965D01*
X9781129Y-13920965D02*
X9790653Y-13882869D01*
X9790653Y-13882869D02*
X9800177Y-13863822D01*
X9800177Y-13863822D02*
X9809701Y-13854298D01*
X9809701Y-13854298D02*
X9828748Y-13844774D01*
X9981129Y-14044774D02*
X9981129Y-13911441D01*
X9981129Y-13930488D02*
X9990653Y-13920965D01*
X9990653Y-13920965D02*
X10009701Y-13911441D01*
X10009701Y-13911441D02*
X10038272Y-13911441D01*
X10038272Y-13911441D02*
X10057320Y-13920965D01*
X10057320Y-13920965D02*
X10066844Y-13940012D01*
X10066844Y-13940012D02*
X10066844Y-14044774D01*
X10066844Y-13940012D02*
X10076367Y-13920965D01*
X10076367Y-13920965D02*
X10095415Y-13911441D01*
X10095415Y-13911441D02*
X10123986Y-13911441D01*
X10123986Y-13911441D02*
X10143034Y-13920965D01*
X10143034Y-13920965D02*
X10152558Y-13940012D01*
X10152558Y-13940012D02*
X10152558Y-14044774D01*
X10247796Y-14044774D02*
X10247796Y-13911441D01*
X10247796Y-13930488D02*
X10257320Y-13920965D01*
X10257320Y-13920965D02*
X10276367Y-13911441D01*
X10276367Y-13911441D02*
X10304939Y-13911441D01*
X10304939Y-13911441D02*
X10323986Y-13920965D01*
X10323986Y-13920965D02*
X10333510Y-13940012D01*
X10333510Y-13940012D02*
X10333510Y-14044774D01*
X10333510Y-13940012D02*
X10343034Y-13920965D01*
X10343034Y-13920965D02*
X10362082Y-13911441D01*
X10362082Y-13911441D02*
X10390653Y-13911441D01*
X10390653Y-13911441D02*
X10409701Y-13920965D01*
X10409701Y-13920965D02*
X10419225Y-13940012D01*
X10419225Y-13940012D02*
X10419225Y-14044774D01*
X10809701Y-13835250D02*
X10638272Y-14092393D01*
X11066844Y-13844774D02*
X11085891Y-13844774D01*
X11085891Y-13844774D02*
X11104939Y-13854298D01*
X11104939Y-13854298D02*
X11114463Y-13863822D01*
X11114463Y-13863822D02*
X11123987Y-13882869D01*
X11123987Y-13882869D02*
X11133510Y-13920965D01*
X11133510Y-13920965D02*
X11133510Y-13968584D01*
X11133510Y-13968584D02*
X11123987Y-14006679D01*
X11123987Y-14006679D02*
X11114463Y-14025727D01*
X11114463Y-14025727D02*
X11104939Y-14035250D01*
X11104939Y-14035250D02*
X11085891Y-14044774D01*
X11085891Y-14044774D02*
X11066844Y-14044774D01*
X11066844Y-14044774D02*
X11047796Y-14035250D01*
X11047796Y-14035250D02*
X11038272Y-14025727D01*
X11038272Y-14025727D02*
X11028748Y-14006679D01*
X11028748Y-14006679D02*
X11019225Y-13968584D01*
X11019225Y-13968584D02*
X11019225Y-13920965D01*
X11019225Y-13920965D02*
X11028748Y-13882869D01*
X11028748Y-13882869D02*
X11038272Y-13863822D01*
X11038272Y-13863822D02*
X11047796Y-13854298D01*
X11047796Y-13854298D02*
X11066844Y-13844774D01*
X11219225Y-14025727D02*
X11228748Y-14035250D01*
X11228748Y-14035250D02*
X11219225Y-14044774D01*
X11219225Y-14044774D02*
X11209701Y-14035250D01*
X11209701Y-14035250D02*
X11219225Y-14025727D01*
X11219225Y-14025727D02*
X11219225Y-14044774D01*
X11352558Y-13844774D02*
X11371606Y-13844774D01*
X11371606Y-13844774D02*
X11390653Y-13854298D01*
X11390653Y-13854298D02*
X11400177Y-13863822D01*
X11400177Y-13863822D02*
X11409701Y-13882869D01*
X11409701Y-13882869D02*
X11419225Y-13920965D01*
X11419225Y-13920965D02*
X11419225Y-13968584D01*
X11419225Y-13968584D02*
X11409701Y-14006679D01*
X11409701Y-14006679D02*
X11400177Y-14025727D01*
X11400177Y-14025727D02*
X11390653Y-14035250D01*
X11390653Y-14035250D02*
X11371606Y-14044774D01*
X11371606Y-14044774D02*
X11352558Y-14044774D01*
X11352558Y-14044774D02*
X11333510Y-14035250D01*
X11333510Y-14035250D02*
X11323986Y-14025727D01*
X11323986Y-14025727D02*
X11314463Y-14006679D01*
X11314463Y-14006679D02*
X11304939Y-13968584D01*
X11304939Y-13968584D02*
X11304939Y-13920965D01*
X11304939Y-13920965D02*
X11314463Y-13882869D01*
X11314463Y-13882869D02*
X11323986Y-13863822D01*
X11323986Y-13863822D02*
X11333510Y-13854298D01*
X11333510Y-13854298D02*
X11352558Y-13844774D01*
X11485891Y-13844774D02*
X11609701Y-13844774D01*
X11609701Y-13844774D02*
X11543034Y-13920965D01*
X11543034Y-13920965D02*
X11571606Y-13920965D01*
X11571606Y-13920965D02*
X11590653Y-13930488D01*
X11590653Y-13930488D02*
X11600177Y-13940012D01*
X11600177Y-13940012D02*
X11609701Y-13959060D01*
X11609701Y-13959060D02*
X11609701Y-14006679D01*
X11609701Y-14006679D02*
X11600177Y-14025727D01*
X11600177Y-14025727D02*
X11590653Y-14035250D01*
X11590653Y-14035250D02*
X11571606Y-14044774D01*
X11571606Y-14044774D02*
X11514463Y-14044774D01*
X11514463Y-14044774D02*
X11495415Y-14035250D01*
X11495415Y-14035250D02*
X11485891Y-14025727D01*
X11800177Y-14044774D02*
X11685891Y-14044774D01*
X11743034Y-14044774D02*
X11743034Y-13844774D01*
X11743034Y-13844774D02*
X11723986Y-13873346D01*
X11723986Y-13873346D02*
X11704939Y-13892393D01*
X11704939Y-13892393D02*
X11685891Y-13901917D01*
X11981129Y-13844774D02*
X11885891Y-13844774D01*
X11885891Y-13844774D02*
X11876367Y-13940012D01*
X11876367Y-13940012D02*
X11885891Y-13930488D01*
X11885891Y-13930488D02*
X11904939Y-13920965D01*
X11904939Y-13920965D02*
X11952558Y-13920965D01*
X11952558Y-13920965D02*
X11971606Y-13930488D01*
X11971606Y-13930488D02*
X11981129Y-13940012D01*
X11981129Y-13940012D02*
X11990653Y-13959060D01*
X11990653Y-13959060D02*
X11990653Y-14006679D01*
X11990653Y-14006679D02*
X11981129Y-14025727D01*
X11981129Y-14025727D02*
X11971606Y-14035250D01*
X11971606Y-14035250D02*
X11952558Y-14044774D01*
X11952558Y-14044774D02*
X11904939Y-14044774D01*
X11904939Y-14044774D02*
X11885891Y-14035250D01*
X11885891Y-14035250D02*
X11876367Y-14025727D01*
X12066844Y-13844774D02*
X12066844Y-13882869D01*
X12143034Y-13844774D02*
X12143034Y-13882869D01*
X12438272Y-14120965D02*
X12428748Y-14111441D01*
X12428748Y-14111441D02*
X12409701Y-14082869D01*
X12409701Y-14082869D02*
X12400177Y-14063822D01*
X12400177Y-14063822D02*
X12390653Y-14035250D01*
X12390653Y-14035250D02*
X12381129Y-13987631D01*
X12381129Y-13987631D02*
X12381129Y-13949536D01*
X12381129Y-13949536D02*
X12390653Y-13901917D01*
X12390653Y-13901917D02*
X12400177Y-13873346D01*
X12400177Y-13873346D02*
X12409701Y-13854298D01*
X12409701Y-13854298D02*
X12428748Y-13825727D01*
X12428748Y-13825727D02*
X12438272Y-13816203D01*
X12600177Y-13911441D02*
X12600177Y-14044774D01*
X12552558Y-13835250D02*
X12504939Y-13978108D01*
X12504939Y-13978108D02*
X12628748Y-13978108D01*
X12857320Y-14044774D02*
X12857320Y-13844774D01*
X12943034Y-14044774D02*
X12943034Y-13940012D01*
X12943034Y-13940012D02*
X12933510Y-13920965D01*
X12933510Y-13920965D02*
X12914463Y-13911441D01*
X12914463Y-13911441D02*
X12885891Y-13911441D01*
X12885891Y-13911441D02*
X12866844Y-13920965D01*
X12866844Y-13920965D02*
X12857320Y-13930488D01*
X13066844Y-14044774D02*
X13047796Y-14035250D01*
X13047796Y-14035250D02*
X13038272Y-14025727D01*
X13038272Y-14025727D02*
X13028749Y-14006679D01*
X13028749Y-14006679D02*
X13028749Y-13949536D01*
X13028749Y-13949536D02*
X13038272Y-13930488D01*
X13038272Y-13930488D02*
X13047796Y-13920965D01*
X13047796Y-13920965D02*
X13066844Y-13911441D01*
X13066844Y-13911441D02*
X13095415Y-13911441D01*
X13095415Y-13911441D02*
X13114463Y-13920965D01*
X13114463Y-13920965D02*
X13123987Y-13930488D01*
X13123987Y-13930488D02*
X13133510Y-13949536D01*
X13133510Y-13949536D02*
X13133510Y-14006679D01*
X13133510Y-14006679D02*
X13123987Y-14025727D01*
X13123987Y-14025727D02*
X13114463Y-14035250D01*
X13114463Y-14035250D02*
X13095415Y-14044774D01*
X13095415Y-14044774D02*
X13066844Y-14044774D01*
X13247796Y-14044774D02*
X13228749Y-14035250D01*
X13228749Y-14035250D02*
X13219225Y-14016203D01*
X13219225Y-14016203D02*
X13219225Y-13844774D01*
X13400177Y-14035250D02*
X13381130Y-14044774D01*
X13381130Y-14044774D02*
X13343034Y-14044774D01*
X13343034Y-14044774D02*
X13323987Y-14035250D01*
X13323987Y-14035250D02*
X13314463Y-14016203D01*
X13314463Y-14016203D02*
X13314463Y-13940012D01*
X13314463Y-13940012D02*
X13323987Y-13920965D01*
X13323987Y-13920965D02*
X13343034Y-13911441D01*
X13343034Y-13911441D02*
X13381130Y-13911441D01*
X13381130Y-13911441D02*
X13400177Y-13920965D01*
X13400177Y-13920965D02*
X13409701Y-13940012D01*
X13409701Y-13940012D02*
X13409701Y-13959060D01*
X13409701Y-13959060D02*
X13314463Y-13978108D01*
X13485891Y-14035250D02*
X13504939Y-14044774D01*
X13504939Y-14044774D02*
X13543034Y-14044774D01*
X13543034Y-14044774D02*
X13562082Y-14035250D01*
X13562082Y-14035250D02*
X13571606Y-14016203D01*
X13571606Y-14016203D02*
X13571606Y-14006679D01*
X13571606Y-14006679D02*
X13562082Y-13987631D01*
X13562082Y-13987631D02*
X13543034Y-13978108D01*
X13543034Y-13978108D02*
X13514463Y-13978108D01*
X13514463Y-13978108D02*
X13495415Y-13968584D01*
X13495415Y-13968584D02*
X13485891Y-13949536D01*
X13485891Y-13949536D02*
X13485891Y-13940012D01*
X13485891Y-13940012D02*
X13495415Y-13920965D01*
X13495415Y-13920965D02*
X13514463Y-13911441D01*
X13514463Y-13911441D02*
X13543034Y-13911441D01*
X13543034Y-13911441D02*
X13562082Y-13920965D01*
X13638272Y-14120965D02*
X13647796Y-14111441D01*
X13647796Y-14111441D02*
X13666844Y-14082869D01*
X13666844Y-14082869D02*
X13676368Y-14063822D01*
X13676368Y-14063822D02*
X13685891Y-14035250D01*
X13685891Y-14035250D02*
X13695415Y-13987631D01*
X13695415Y-13987631D02*
X13695415Y-13949536D01*
X13695415Y-13949536D02*
X13685891Y-13901917D01*
X13685891Y-13901917D02*
X13676368Y-13873346D01*
X13676368Y-13873346D02*
X13666844Y-13854298D01*
X13666844Y-13854298D02*
X13647796Y-13825727D01*
X13647796Y-13825727D02*
X13638272Y-13816203D01*
D12*
X8850191Y-14248722D02*
X8850191Y-14185859D01*
X8787328Y-14185859D01*
X8787328Y-14248722D01*
X8850191Y-14248722D01*
D11*
X9162082Y-14108774D02*
X9181129Y-14108774D01*
X9181129Y-14108774D02*
X9200177Y-14118298D01*
X9200177Y-14118298D02*
X9209701Y-14127822D01*
X9209701Y-14127822D02*
X9219224Y-14146869D01*
X9219224Y-14146869D02*
X9228748Y-14184965D01*
X9228748Y-14184965D02*
X9228748Y-14232584D01*
X9228748Y-14232584D02*
X9219224Y-14270679D01*
X9219224Y-14270679D02*
X9209701Y-14289727D01*
X9209701Y-14289727D02*
X9200177Y-14299250D01*
X9200177Y-14299250D02*
X9181129Y-14308774D01*
X9181129Y-14308774D02*
X9162082Y-14308774D01*
X9162082Y-14308774D02*
X9143034Y-14299250D01*
X9143034Y-14299250D02*
X9133510Y-14289727D01*
X9133510Y-14289727D02*
X9123986Y-14270679D01*
X9123986Y-14270679D02*
X9114463Y-14232584D01*
X9114463Y-14232584D02*
X9114463Y-14184965D01*
X9114463Y-14184965D02*
X9123986Y-14146869D01*
X9123986Y-14146869D02*
X9133510Y-14127822D01*
X9133510Y-14127822D02*
X9143034Y-14118298D01*
X9143034Y-14118298D02*
X9162082Y-14108774D01*
X9314463Y-14289727D02*
X9323986Y-14299250D01*
X9323986Y-14299250D02*
X9314463Y-14308774D01*
X9314463Y-14308774D02*
X9304939Y-14299250D01*
X9304939Y-14299250D02*
X9314463Y-14289727D01*
X9314463Y-14289727D02*
X9314463Y-14308774D01*
X9438272Y-14194488D02*
X9419224Y-14184965D01*
X9419224Y-14184965D02*
X9409701Y-14175441D01*
X9409701Y-14175441D02*
X9400177Y-14156393D01*
X9400177Y-14156393D02*
X9400177Y-14146869D01*
X9400177Y-14146869D02*
X9409701Y-14127822D01*
X9409701Y-14127822D02*
X9419224Y-14118298D01*
X9419224Y-14118298D02*
X9438272Y-14108774D01*
X9438272Y-14108774D02*
X9476367Y-14108774D01*
X9476367Y-14108774D02*
X9495415Y-14118298D01*
X9495415Y-14118298D02*
X9504939Y-14127822D01*
X9504939Y-14127822D02*
X9514463Y-14146869D01*
X9514463Y-14146869D02*
X9514463Y-14156393D01*
X9514463Y-14156393D02*
X9504939Y-14175441D01*
X9504939Y-14175441D02*
X9495415Y-14184965D01*
X9495415Y-14184965D02*
X9476367Y-14194488D01*
X9476367Y-14194488D02*
X9438272Y-14194488D01*
X9438272Y-14194488D02*
X9419224Y-14204012D01*
X9419224Y-14204012D02*
X9409701Y-14213536D01*
X9409701Y-14213536D02*
X9400177Y-14232584D01*
X9400177Y-14232584D02*
X9400177Y-14270679D01*
X9400177Y-14270679D02*
X9409701Y-14289727D01*
X9409701Y-14289727D02*
X9419224Y-14299250D01*
X9419224Y-14299250D02*
X9438272Y-14308774D01*
X9438272Y-14308774D02*
X9476367Y-14308774D01*
X9476367Y-14308774D02*
X9495415Y-14299250D01*
X9495415Y-14299250D02*
X9504939Y-14289727D01*
X9504939Y-14289727D02*
X9514463Y-14270679D01*
X9514463Y-14270679D02*
X9514463Y-14232584D01*
X9514463Y-14232584D02*
X9504939Y-14213536D01*
X9504939Y-14213536D02*
X9495415Y-14204012D01*
X9495415Y-14204012D02*
X9476367Y-14194488D01*
X9628748Y-14194488D02*
X9609701Y-14184965D01*
X9609701Y-14184965D02*
X9600177Y-14175441D01*
X9600177Y-14175441D02*
X9590653Y-14156393D01*
X9590653Y-14156393D02*
X9590653Y-14146869D01*
X9590653Y-14146869D02*
X9600177Y-14127822D01*
X9600177Y-14127822D02*
X9609701Y-14118298D01*
X9609701Y-14118298D02*
X9628748Y-14108774D01*
X9628748Y-14108774D02*
X9666844Y-14108774D01*
X9666844Y-14108774D02*
X9685891Y-14118298D01*
X9685891Y-14118298D02*
X9695415Y-14127822D01*
X9695415Y-14127822D02*
X9704939Y-14146869D01*
X9704939Y-14146869D02*
X9704939Y-14156393D01*
X9704939Y-14156393D02*
X9695415Y-14175441D01*
X9695415Y-14175441D02*
X9685891Y-14184965D01*
X9685891Y-14184965D02*
X9666844Y-14194488D01*
X9666844Y-14194488D02*
X9628748Y-14194488D01*
X9628748Y-14194488D02*
X9609701Y-14204012D01*
X9609701Y-14204012D02*
X9600177Y-14213536D01*
X9600177Y-14213536D02*
X9590653Y-14232584D01*
X9590653Y-14232584D02*
X9590653Y-14270679D01*
X9590653Y-14270679D02*
X9600177Y-14289727D01*
X9600177Y-14289727D02*
X9609701Y-14299250D01*
X9609701Y-14299250D02*
X9628748Y-14308774D01*
X9628748Y-14308774D02*
X9666844Y-14308774D01*
X9666844Y-14308774D02*
X9685891Y-14299250D01*
X9685891Y-14299250D02*
X9695415Y-14289727D01*
X9695415Y-14289727D02*
X9704939Y-14270679D01*
X9704939Y-14270679D02*
X9704939Y-14232584D01*
X9704939Y-14232584D02*
X9695415Y-14213536D01*
X9695415Y-14213536D02*
X9685891Y-14204012D01*
X9685891Y-14204012D02*
X9666844Y-14194488D01*
X9800177Y-14308774D02*
X9838272Y-14308774D01*
X9838272Y-14308774D02*
X9857320Y-14299250D01*
X9857320Y-14299250D02*
X9866844Y-14289727D01*
X9866844Y-14289727D02*
X9885891Y-14261155D01*
X9885891Y-14261155D02*
X9895415Y-14223060D01*
X9895415Y-14223060D02*
X9895415Y-14146869D01*
X9895415Y-14146869D02*
X9885891Y-14127822D01*
X9885891Y-14127822D02*
X9876367Y-14118298D01*
X9876367Y-14118298D02*
X9857320Y-14108774D01*
X9857320Y-14108774D02*
X9819224Y-14108774D01*
X9819224Y-14108774D02*
X9800177Y-14118298D01*
X9800177Y-14118298D02*
X9790653Y-14127822D01*
X9790653Y-14127822D02*
X9781129Y-14146869D01*
X9781129Y-14146869D02*
X9781129Y-14194488D01*
X9781129Y-14194488D02*
X9790653Y-14213536D01*
X9790653Y-14213536D02*
X9800177Y-14223060D01*
X9800177Y-14223060D02*
X9819224Y-14232584D01*
X9819224Y-14232584D02*
X9857320Y-14232584D01*
X9857320Y-14232584D02*
X9876367Y-14223060D01*
X9876367Y-14223060D02*
X9885891Y-14213536D01*
X9885891Y-14213536D02*
X9895415Y-14194488D01*
X9981129Y-14308774D02*
X9981129Y-14175441D01*
X9981129Y-14194488D02*
X9990653Y-14184965D01*
X9990653Y-14184965D02*
X10009701Y-14175441D01*
X10009701Y-14175441D02*
X10038272Y-14175441D01*
X10038272Y-14175441D02*
X10057320Y-14184965D01*
X10057320Y-14184965D02*
X10066844Y-14204012D01*
X10066844Y-14204012D02*
X10066844Y-14308774D01*
X10066844Y-14204012D02*
X10076367Y-14184965D01*
X10076367Y-14184965D02*
X10095415Y-14175441D01*
X10095415Y-14175441D02*
X10123986Y-14175441D01*
X10123986Y-14175441D02*
X10143034Y-14184965D01*
X10143034Y-14184965D02*
X10152558Y-14204012D01*
X10152558Y-14204012D02*
X10152558Y-14308774D01*
X10247796Y-14308774D02*
X10247796Y-14175441D01*
X10247796Y-14194488D02*
X10257320Y-14184965D01*
X10257320Y-14184965D02*
X10276367Y-14175441D01*
X10276367Y-14175441D02*
X10304939Y-14175441D01*
X10304939Y-14175441D02*
X10323986Y-14184965D01*
X10323986Y-14184965D02*
X10333510Y-14204012D01*
X10333510Y-14204012D02*
X10333510Y-14308774D01*
X10333510Y-14204012D02*
X10343034Y-14184965D01*
X10343034Y-14184965D02*
X10362082Y-14175441D01*
X10362082Y-14175441D02*
X10390653Y-14175441D01*
X10390653Y-14175441D02*
X10409701Y-14184965D01*
X10409701Y-14184965D02*
X10419225Y-14204012D01*
X10419225Y-14204012D02*
X10419225Y-14308774D01*
X10809701Y-14099250D02*
X10638272Y-14356393D01*
X11066844Y-14108774D02*
X11085891Y-14108774D01*
X11085891Y-14108774D02*
X11104939Y-14118298D01*
X11104939Y-14118298D02*
X11114463Y-14127822D01*
X11114463Y-14127822D02*
X11123987Y-14146869D01*
X11123987Y-14146869D02*
X11133510Y-14184965D01*
X11133510Y-14184965D02*
X11133510Y-14232584D01*
X11133510Y-14232584D02*
X11123987Y-14270679D01*
X11123987Y-14270679D02*
X11114463Y-14289727D01*
X11114463Y-14289727D02*
X11104939Y-14299250D01*
X11104939Y-14299250D02*
X11085891Y-14308774D01*
X11085891Y-14308774D02*
X11066844Y-14308774D01*
X11066844Y-14308774D02*
X11047796Y-14299250D01*
X11047796Y-14299250D02*
X11038272Y-14289727D01*
X11038272Y-14289727D02*
X11028748Y-14270679D01*
X11028748Y-14270679D02*
X11019225Y-14232584D01*
X11019225Y-14232584D02*
X11019225Y-14184965D01*
X11019225Y-14184965D02*
X11028748Y-14146869D01*
X11028748Y-14146869D02*
X11038272Y-14127822D01*
X11038272Y-14127822D02*
X11047796Y-14118298D01*
X11047796Y-14118298D02*
X11066844Y-14108774D01*
X11219225Y-14289727D02*
X11228748Y-14299250D01*
X11228748Y-14299250D02*
X11219225Y-14308774D01*
X11219225Y-14308774D02*
X11209701Y-14299250D01*
X11209701Y-14299250D02*
X11219225Y-14289727D01*
X11219225Y-14289727D02*
X11219225Y-14308774D01*
X11352558Y-14108774D02*
X11371606Y-14108774D01*
X11371606Y-14108774D02*
X11390653Y-14118298D01*
X11390653Y-14118298D02*
X11400177Y-14127822D01*
X11400177Y-14127822D02*
X11409701Y-14146869D01*
X11409701Y-14146869D02*
X11419225Y-14184965D01*
X11419225Y-14184965D02*
X11419225Y-14232584D01*
X11419225Y-14232584D02*
X11409701Y-14270679D01*
X11409701Y-14270679D02*
X11400177Y-14289727D01*
X11400177Y-14289727D02*
X11390653Y-14299250D01*
X11390653Y-14299250D02*
X11371606Y-14308774D01*
X11371606Y-14308774D02*
X11352558Y-14308774D01*
X11352558Y-14308774D02*
X11333510Y-14299250D01*
X11333510Y-14299250D02*
X11323986Y-14289727D01*
X11323986Y-14289727D02*
X11314463Y-14270679D01*
X11314463Y-14270679D02*
X11304939Y-14232584D01*
X11304939Y-14232584D02*
X11304939Y-14184965D01*
X11304939Y-14184965D02*
X11314463Y-14146869D01*
X11314463Y-14146869D02*
X11323986Y-14127822D01*
X11323986Y-14127822D02*
X11333510Y-14118298D01*
X11333510Y-14118298D02*
X11352558Y-14108774D01*
X11485891Y-14108774D02*
X11609701Y-14108774D01*
X11609701Y-14108774D02*
X11543034Y-14184965D01*
X11543034Y-14184965D02*
X11571606Y-14184965D01*
X11571606Y-14184965D02*
X11590653Y-14194488D01*
X11590653Y-14194488D02*
X11600177Y-14204012D01*
X11600177Y-14204012D02*
X11609701Y-14223060D01*
X11609701Y-14223060D02*
X11609701Y-14270679D01*
X11609701Y-14270679D02*
X11600177Y-14289727D01*
X11600177Y-14289727D02*
X11590653Y-14299250D01*
X11590653Y-14299250D02*
X11571606Y-14308774D01*
X11571606Y-14308774D02*
X11514463Y-14308774D01*
X11514463Y-14308774D02*
X11495415Y-14299250D01*
X11495415Y-14299250D02*
X11485891Y-14289727D01*
X11790653Y-14108774D02*
X11695415Y-14108774D01*
X11695415Y-14108774D02*
X11685891Y-14204012D01*
X11685891Y-14204012D02*
X11695415Y-14194488D01*
X11695415Y-14194488D02*
X11714463Y-14184965D01*
X11714463Y-14184965D02*
X11762082Y-14184965D01*
X11762082Y-14184965D02*
X11781129Y-14194488D01*
X11781129Y-14194488D02*
X11790653Y-14204012D01*
X11790653Y-14204012D02*
X11800177Y-14223060D01*
X11800177Y-14223060D02*
X11800177Y-14270679D01*
X11800177Y-14270679D02*
X11790653Y-14289727D01*
X11790653Y-14289727D02*
X11781129Y-14299250D01*
X11781129Y-14299250D02*
X11762082Y-14308774D01*
X11762082Y-14308774D02*
X11714463Y-14308774D01*
X11714463Y-14308774D02*
X11695415Y-14299250D01*
X11695415Y-14299250D02*
X11685891Y-14289727D01*
X11923986Y-14108774D02*
X11943034Y-14108774D01*
X11943034Y-14108774D02*
X11962082Y-14118298D01*
X11962082Y-14118298D02*
X11971606Y-14127822D01*
X11971606Y-14127822D02*
X11981129Y-14146869D01*
X11981129Y-14146869D02*
X11990653Y-14184965D01*
X11990653Y-14184965D02*
X11990653Y-14232584D01*
X11990653Y-14232584D02*
X11981129Y-14270679D01*
X11981129Y-14270679D02*
X11971606Y-14289727D01*
X11971606Y-14289727D02*
X11962082Y-14299250D01*
X11962082Y-14299250D02*
X11943034Y-14308774D01*
X11943034Y-14308774D02*
X11923986Y-14308774D01*
X11923986Y-14308774D02*
X11904939Y-14299250D01*
X11904939Y-14299250D02*
X11895415Y-14289727D01*
X11895415Y-14289727D02*
X11885891Y-14270679D01*
X11885891Y-14270679D02*
X11876367Y-14232584D01*
X11876367Y-14232584D02*
X11876367Y-14184965D01*
X11876367Y-14184965D02*
X11885891Y-14146869D01*
X11885891Y-14146869D02*
X11895415Y-14127822D01*
X11895415Y-14127822D02*
X11904939Y-14118298D01*
X11904939Y-14118298D02*
X11923986Y-14108774D01*
X12066844Y-14108774D02*
X12066844Y-14146869D01*
X12143034Y-14108774D02*
X12143034Y-14146869D01*
X12438272Y-14384965D02*
X12428748Y-14375441D01*
X12428748Y-14375441D02*
X12409701Y-14346869D01*
X12409701Y-14346869D02*
X12400177Y-14327822D01*
X12400177Y-14327822D02*
X12390653Y-14299250D01*
X12390653Y-14299250D02*
X12381129Y-14251631D01*
X12381129Y-14251631D02*
X12381129Y-14213536D01*
X12381129Y-14213536D02*
X12390653Y-14165917D01*
X12390653Y-14165917D02*
X12400177Y-14137346D01*
X12400177Y-14137346D02*
X12409701Y-14118298D01*
X12409701Y-14118298D02*
X12428748Y-14089727D01*
X12428748Y-14089727D02*
X12438272Y-14080203D01*
X12619225Y-14308774D02*
X12504939Y-14308774D01*
X12562082Y-14308774D02*
X12562082Y-14108774D01*
X12562082Y-14108774D02*
X12543034Y-14137346D01*
X12543034Y-14137346D02*
X12523987Y-14156393D01*
X12523987Y-14156393D02*
X12504939Y-14165917D01*
X12800177Y-14108774D02*
X12704939Y-14108774D01*
X12704939Y-14108774D02*
X12695415Y-14204012D01*
X12695415Y-14204012D02*
X12704939Y-14194488D01*
X12704939Y-14194488D02*
X12723987Y-14184965D01*
X12723987Y-14184965D02*
X12771606Y-14184965D01*
X12771606Y-14184965D02*
X12790653Y-14194488D01*
X12790653Y-14194488D02*
X12800177Y-14204012D01*
X12800177Y-14204012D02*
X12809701Y-14223060D01*
X12809701Y-14223060D02*
X12809701Y-14270679D01*
X12809701Y-14270679D02*
X12800177Y-14289727D01*
X12800177Y-14289727D02*
X12790653Y-14299250D01*
X12790653Y-14299250D02*
X12771606Y-14308774D01*
X12771606Y-14308774D02*
X12723987Y-14308774D01*
X12723987Y-14308774D02*
X12704939Y-14299250D01*
X12704939Y-14299250D02*
X12695415Y-14289727D01*
X13047796Y-14308774D02*
X13047796Y-14108774D01*
X13133510Y-14308774D02*
X13133510Y-14204012D01*
X13133510Y-14204012D02*
X13123987Y-14184965D01*
X13123987Y-14184965D02*
X13104939Y-14175441D01*
X13104939Y-14175441D02*
X13076368Y-14175441D01*
X13076368Y-14175441D02*
X13057320Y-14184965D01*
X13057320Y-14184965D02*
X13047796Y-14194488D01*
X13257320Y-14308774D02*
X13238272Y-14299250D01*
X13238272Y-14299250D02*
X13228749Y-14289727D01*
X13228749Y-14289727D02*
X13219225Y-14270679D01*
X13219225Y-14270679D02*
X13219225Y-14213536D01*
X13219225Y-14213536D02*
X13228749Y-14194488D01*
X13228749Y-14194488D02*
X13238272Y-14184965D01*
X13238272Y-14184965D02*
X13257320Y-14175441D01*
X13257320Y-14175441D02*
X13285891Y-14175441D01*
X13285891Y-14175441D02*
X13304939Y-14184965D01*
X13304939Y-14184965D02*
X13314463Y-14194488D01*
X13314463Y-14194488D02*
X13323987Y-14213536D01*
X13323987Y-14213536D02*
X13323987Y-14270679D01*
X13323987Y-14270679D02*
X13314463Y-14289727D01*
X13314463Y-14289727D02*
X13304939Y-14299250D01*
X13304939Y-14299250D02*
X13285891Y-14308774D01*
X13285891Y-14308774D02*
X13257320Y-14308774D01*
X13438272Y-14308774D02*
X13419225Y-14299250D01*
X13419225Y-14299250D02*
X13409701Y-14280203D01*
X13409701Y-14280203D02*
X13409701Y-14108774D01*
X13590653Y-14299250D02*
X13571606Y-14308774D01*
X13571606Y-14308774D02*
X13533510Y-14308774D01*
X13533510Y-14308774D02*
X13514463Y-14299250D01*
X13514463Y-14299250D02*
X13504939Y-14280203D01*
X13504939Y-14280203D02*
X13504939Y-14204012D01*
X13504939Y-14204012D02*
X13514463Y-14184965D01*
X13514463Y-14184965D02*
X13533510Y-14175441D01*
X13533510Y-14175441D02*
X13571606Y-14175441D01*
X13571606Y-14175441D02*
X13590653Y-14184965D01*
X13590653Y-14184965D02*
X13600177Y-14204012D01*
X13600177Y-14204012D02*
X13600177Y-14223060D01*
X13600177Y-14223060D02*
X13504939Y-14242108D01*
X13676368Y-14299250D02*
X13695415Y-14308774D01*
X13695415Y-14308774D02*
X13733510Y-14308774D01*
X13733510Y-14308774D02*
X13752558Y-14299250D01*
X13752558Y-14299250D02*
X13762082Y-14280203D01*
X13762082Y-14280203D02*
X13762082Y-14270679D01*
X13762082Y-14270679D02*
X13752558Y-14251631D01*
X13752558Y-14251631D02*
X13733510Y-14242108D01*
X13733510Y-14242108D02*
X13704939Y-14242108D01*
X13704939Y-14242108D02*
X13685891Y-14232584D01*
X13685891Y-14232584D02*
X13676368Y-14213536D01*
X13676368Y-14213536D02*
X13676368Y-14204012D01*
X13676368Y-14204012D02*
X13685891Y-14184965D01*
X13685891Y-14184965D02*
X13704939Y-14175441D01*
X13704939Y-14175441D02*
X13733510Y-14175441D01*
X13733510Y-14175441D02*
X13752558Y-14184965D01*
X13828749Y-14384965D02*
X13838272Y-14375441D01*
X13838272Y-14375441D02*
X13857320Y-14346869D01*
X13857320Y-14346869D02*
X13866844Y-14327822D01*
X13866844Y-14327822D02*
X13876368Y-14299250D01*
X13876368Y-14299250D02*
X13885891Y-14251631D01*
X13885891Y-14251631D02*
X13885891Y-14213536D01*
X13885891Y-14213536D02*
X13876368Y-14165917D01*
X13876368Y-14165917D02*
X13866844Y-14137346D01*
X13866844Y-14137346D02*
X13857320Y-14118298D01*
X13857320Y-14118298D02*
X13838272Y-14089727D01*
X13838272Y-14089727D02*
X13828749Y-14080203D01*
D12*
X8813210Y-14531290D02*
X8863210Y-14481290D01*
X8813210Y-14431290D01*
X8763210Y-14481290D01*
X8813210Y-14531290D01*
D11*
X9228748Y-14572774D02*
X9114463Y-14572774D01*
X9171605Y-14572774D02*
X9171605Y-14372774D01*
X9171605Y-14372774D02*
X9152558Y-14401346D01*
X9152558Y-14401346D02*
X9133510Y-14420393D01*
X9133510Y-14420393D02*
X9114463Y-14429917D01*
X9314463Y-14553727D02*
X9323986Y-14563250D01*
X9323986Y-14563250D02*
X9314463Y-14572774D01*
X9314463Y-14572774D02*
X9304939Y-14563250D01*
X9304939Y-14563250D02*
X9314463Y-14553727D01*
X9314463Y-14553727D02*
X9314463Y-14572774D01*
X9447796Y-14372774D02*
X9466844Y-14372774D01*
X9466844Y-14372774D02*
X9485891Y-14382298D01*
X9485891Y-14382298D02*
X9495415Y-14391822D01*
X9495415Y-14391822D02*
X9504939Y-14410869D01*
X9504939Y-14410869D02*
X9514463Y-14448965D01*
X9514463Y-14448965D02*
X9514463Y-14496584D01*
X9514463Y-14496584D02*
X9504939Y-14534679D01*
X9504939Y-14534679D02*
X9495415Y-14553727D01*
X9495415Y-14553727D02*
X9485891Y-14563250D01*
X9485891Y-14563250D02*
X9466844Y-14572774D01*
X9466844Y-14572774D02*
X9447796Y-14572774D01*
X9447796Y-14572774D02*
X9428748Y-14563250D01*
X9428748Y-14563250D02*
X9419224Y-14553727D01*
X9419224Y-14553727D02*
X9409701Y-14534679D01*
X9409701Y-14534679D02*
X9400177Y-14496584D01*
X9400177Y-14496584D02*
X9400177Y-14448965D01*
X9400177Y-14448965D02*
X9409701Y-14410869D01*
X9409701Y-14410869D02*
X9419224Y-14391822D01*
X9419224Y-14391822D02*
X9428748Y-14382298D01*
X9428748Y-14382298D02*
X9447796Y-14372774D01*
X9638272Y-14372774D02*
X9657320Y-14372774D01*
X9657320Y-14372774D02*
X9676367Y-14382298D01*
X9676367Y-14382298D02*
X9685891Y-14391822D01*
X9685891Y-14391822D02*
X9695415Y-14410869D01*
X9695415Y-14410869D02*
X9704939Y-14448965D01*
X9704939Y-14448965D02*
X9704939Y-14496584D01*
X9704939Y-14496584D02*
X9695415Y-14534679D01*
X9695415Y-14534679D02*
X9685891Y-14553727D01*
X9685891Y-14553727D02*
X9676367Y-14563250D01*
X9676367Y-14563250D02*
X9657320Y-14572774D01*
X9657320Y-14572774D02*
X9638272Y-14572774D01*
X9638272Y-14572774D02*
X9619224Y-14563250D01*
X9619224Y-14563250D02*
X9609701Y-14553727D01*
X9609701Y-14553727D02*
X9600177Y-14534679D01*
X9600177Y-14534679D02*
X9590653Y-14496584D01*
X9590653Y-14496584D02*
X9590653Y-14448965D01*
X9590653Y-14448965D02*
X9600177Y-14410869D01*
X9600177Y-14410869D02*
X9609701Y-14391822D01*
X9609701Y-14391822D02*
X9619224Y-14382298D01*
X9619224Y-14382298D02*
X9638272Y-14372774D01*
X9828748Y-14372774D02*
X9847796Y-14372774D01*
X9847796Y-14372774D02*
X9866844Y-14382298D01*
X9866844Y-14382298D02*
X9876367Y-14391822D01*
X9876367Y-14391822D02*
X9885891Y-14410869D01*
X9885891Y-14410869D02*
X9895415Y-14448965D01*
X9895415Y-14448965D02*
X9895415Y-14496584D01*
X9895415Y-14496584D02*
X9885891Y-14534679D01*
X9885891Y-14534679D02*
X9876367Y-14553727D01*
X9876367Y-14553727D02*
X9866844Y-14563250D01*
X9866844Y-14563250D02*
X9847796Y-14572774D01*
X9847796Y-14572774D02*
X9828748Y-14572774D01*
X9828748Y-14572774D02*
X9809701Y-14563250D01*
X9809701Y-14563250D02*
X9800177Y-14553727D01*
X9800177Y-14553727D02*
X9790653Y-14534679D01*
X9790653Y-14534679D02*
X9781129Y-14496584D01*
X9781129Y-14496584D02*
X9781129Y-14448965D01*
X9781129Y-14448965D02*
X9790653Y-14410869D01*
X9790653Y-14410869D02*
X9800177Y-14391822D01*
X9800177Y-14391822D02*
X9809701Y-14382298D01*
X9809701Y-14382298D02*
X9828748Y-14372774D01*
X9981129Y-14572774D02*
X9981129Y-14439441D01*
X9981129Y-14458488D02*
X9990653Y-14448965D01*
X9990653Y-14448965D02*
X10009701Y-14439441D01*
X10009701Y-14439441D02*
X10038272Y-14439441D01*
X10038272Y-14439441D02*
X10057320Y-14448965D01*
X10057320Y-14448965D02*
X10066844Y-14468012D01*
X10066844Y-14468012D02*
X10066844Y-14572774D01*
X10066844Y-14468012D02*
X10076367Y-14448965D01*
X10076367Y-14448965D02*
X10095415Y-14439441D01*
X10095415Y-14439441D02*
X10123986Y-14439441D01*
X10123986Y-14439441D02*
X10143034Y-14448965D01*
X10143034Y-14448965D02*
X10152558Y-14468012D01*
X10152558Y-14468012D02*
X10152558Y-14572774D01*
X10247796Y-14572774D02*
X10247796Y-14439441D01*
X10247796Y-14458488D02*
X10257320Y-14448965D01*
X10257320Y-14448965D02*
X10276367Y-14439441D01*
X10276367Y-14439441D02*
X10304939Y-14439441D01*
X10304939Y-14439441D02*
X10323986Y-14448965D01*
X10323986Y-14448965D02*
X10333510Y-14468012D01*
X10333510Y-14468012D02*
X10333510Y-14572774D01*
X10333510Y-14468012D02*
X10343034Y-14448965D01*
X10343034Y-14448965D02*
X10362082Y-14439441D01*
X10362082Y-14439441D02*
X10390653Y-14439441D01*
X10390653Y-14439441D02*
X10409701Y-14448965D01*
X10409701Y-14448965D02*
X10419225Y-14468012D01*
X10419225Y-14468012D02*
X10419225Y-14572774D01*
X10809701Y-14363250D02*
X10638272Y-14620393D01*
X11066844Y-14372774D02*
X11085891Y-14372774D01*
X11085891Y-14372774D02*
X11104939Y-14382298D01*
X11104939Y-14382298D02*
X11114463Y-14391822D01*
X11114463Y-14391822D02*
X11123987Y-14410869D01*
X11123987Y-14410869D02*
X11133510Y-14448965D01*
X11133510Y-14448965D02*
X11133510Y-14496584D01*
X11133510Y-14496584D02*
X11123987Y-14534679D01*
X11123987Y-14534679D02*
X11114463Y-14553727D01*
X11114463Y-14553727D02*
X11104939Y-14563250D01*
X11104939Y-14563250D02*
X11085891Y-14572774D01*
X11085891Y-14572774D02*
X11066844Y-14572774D01*
X11066844Y-14572774D02*
X11047796Y-14563250D01*
X11047796Y-14563250D02*
X11038272Y-14553727D01*
X11038272Y-14553727D02*
X11028748Y-14534679D01*
X11028748Y-14534679D02*
X11019225Y-14496584D01*
X11019225Y-14496584D02*
X11019225Y-14448965D01*
X11019225Y-14448965D02*
X11028748Y-14410869D01*
X11028748Y-14410869D02*
X11038272Y-14391822D01*
X11038272Y-14391822D02*
X11047796Y-14382298D01*
X11047796Y-14382298D02*
X11066844Y-14372774D01*
X11219225Y-14553727D02*
X11228748Y-14563250D01*
X11228748Y-14563250D02*
X11219225Y-14572774D01*
X11219225Y-14572774D02*
X11209701Y-14563250D01*
X11209701Y-14563250D02*
X11219225Y-14553727D01*
X11219225Y-14553727D02*
X11219225Y-14572774D01*
X11352558Y-14372774D02*
X11371606Y-14372774D01*
X11371606Y-14372774D02*
X11390653Y-14382298D01*
X11390653Y-14382298D02*
X11400177Y-14391822D01*
X11400177Y-14391822D02*
X11409701Y-14410869D01*
X11409701Y-14410869D02*
X11419225Y-14448965D01*
X11419225Y-14448965D02*
X11419225Y-14496584D01*
X11419225Y-14496584D02*
X11409701Y-14534679D01*
X11409701Y-14534679D02*
X11400177Y-14553727D01*
X11400177Y-14553727D02*
X11390653Y-14563250D01*
X11390653Y-14563250D02*
X11371606Y-14572774D01*
X11371606Y-14572774D02*
X11352558Y-14572774D01*
X11352558Y-14572774D02*
X11333510Y-14563250D01*
X11333510Y-14563250D02*
X11323986Y-14553727D01*
X11323986Y-14553727D02*
X11314463Y-14534679D01*
X11314463Y-14534679D02*
X11304939Y-14496584D01*
X11304939Y-14496584D02*
X11304939Y-14448965D01*
X11304939Y-14448965D02*
X11314463Y-14410869D01*
X11314463Y-14410869D02*
X11323986Y-14391822D01*
X11323986Y-14391822D02*
X11333510Y-14382298D01*
X11333510Y-14382298D02*
X11352558Y-14372774D01*
X11485891Y-14372774D02*
X11609701Y-14372774D01*
X11609701Y-14372774D02*
X11543034Y-14448965D01*
X11543034Y-14448965D02*
X11571606Y-14448965D01*
X11571606Y-14448965D02*
X11590653Y-14458488D01*
X11590653Y-14458488D02*
X11600177Y-14468012D01*
X11600177Y-14468012D02*
X11609701Y-14487060D01*
X11609701Y-14487060D02*
X11609701Y-14534679D01*
X11609701Y-14534679D02*
X11600177Y-14553727D01*
X11600177Y-14553727D02*
X11590653Y-14563250D01*
X11590653Y-14563250D02*
X11571606Y-14572774D01*
X11571606Y-14572774D02*
X11514463Y-14572774D01*
X11514463Y-14572774D02*
X11495415Y-14563250D01*
X11495415Y-14563250D02*
X11485891Y-14553727D01*
X11704939Y-14572774D02*
X11743034Y-14572774D01*
X11743034Y-14572774D02*
X11762082Y-14563250D01*
X11762082Y-14563250D02*
X11771606Y-14553727D01*
X11771606Y-14553727D02*
X11790653Y-14525155D01*
X11790653Y-14525155D02*
X11800177Y-14487060D01*
X11800177Y-14487060D02*
X11800177Y-14410869D01*
X11800177Y-14410869D02*
X11790653Y-14391822D01*
X11790653Y-14391822D02*
X11781129Y-14382298D01*
X11781129Y-14382298D02*
X11762082Y-14372774D01*
X11762082Y-14372774D02*
X11723986Y-14372774D01*
X11723986Y-14372774D02*
X11704939Y-14382298D01*
X11704939Y-14382298D02*
X11695415Y-14391822D01*
X11695415Y-14391822D02*
X11685891Y-14410869D01*
X11685891Y-14410869D02*
X11685891Y-14458488D01*
X11685891Y-14458488D02*
X11695415Y-14477536D01*
X11695415Y-14477536D02*
X11704939Y-14487060D01*
X11704939Y-14487060D02*
X11723986Y-14496584D01*
X11723986Y-14496584D02*
X11762082Y-14496584D01*
X11762082Y-14496584D02*
X11781129Y-14487060D01*
X11781129Y-14487060D02*
X11790653Y-14477536D01*
X11790653Y-14477536D02*
X11800177Y-14458488D01*
X11971606Y-14439441D02*
X11971606Y-14572774D01*
X11923986Y-14363250D02*
X11876367Y-14506108D01*
X11876367Y-14506108D02*
X12000177Y-14506108D01*
X12066844Y-14372774D02*
X12066844Y-14410869D01*
X12143034Y-14372774D02*
X12143034Y-14410869D01*
X12438272Y-14648965D02*
X12428748Y-14639441D01*
X12428748Y-14639441D02*
X12409701Y-14610869D01*
X12409701Y-14610869D02*
X12400177Y-14591822D01*
X12400177Y-14591822D02*
X12390653Y-14563250D01*
X12390653Y-14563250D02*
X12381129Y-14515631D01*
X12381129Y-14515631D02*
X12381129Y-14477536D01*
X12381129Y-14477536D02*
X12390653Y-14429917D01*
X12390653Y-14429917D02*
X12400177Y-14401346D01*
X12400177Y-14401346D02*
X12409701Y-14382298D01*
X12409701Y-14382298D02*
X12428748Y-14353727D01*
X12428748Y-14353727D02*
X12438272Y-14344203D01*
X12600177Y-14372774D02*
X12562082Y-14372774D01*
X12562082Y-14372774D02*
X12543034Y-14382298D01*
X12543034Y-14382298D02*
X12533510Y-14391822D01*
X12533510Y-14391822D02*
X12514463Y-14420393D01*
X12514463Y-14420393D02*
X12504939Y-14458488D01*
X12504939Y-14458488D02*
X12504939Y-14534679D01*
X12504939Y-14534679D02*
X12514463Y-14553727D01*
X12514463Y-14553727D02*
X12523987Y-14563250D01*
X12523987Y-14563250D02*
X12543034Y-14572774D01*
X12543034Y-14572774D02*
X12581129Y-14572774D01*
X12581129Y-14572774D02*
X12600177Y-14563250D01*
X12600177Y-14563250D02*
X12609701Y-14553727D01*
X12609701Y-14553727D02*
X12619225Y-14534679D01*
X12619225Y-14534679D02*
X12619225Y-14487060D01*
X12619225Y-14487060D02*
X12609701Y-14468012D01*
X12609701Y-14468012D02*
X12600177Y-14458488D01*
X12600177Y-14458488D02*
X12581129Y-14448965D01*
X12581129Y-14448965D02*
X12543034Y-14448965D01*
X12543034Y-14448965D02*
X12523987Y-14458488D01*
X12523987Y-14458488D02*
X12514463Y-14468012D01*
X12514463Y-14468012D02*
X12504939Y-14487060D01*
X12733510Y-14458488D02*
X12714463Y-14448965D01*
X12714463Y-14448965D02*
X12704939Y-14439441D01*
X12704939Y-14439441D02*
X12695415Y-14420393D01*
X12695415Y-14420393D02*
X12695415Y-14410869D01*
X12695415Y-14410869D02*
X12704939Y-14391822D01*
X12704939Y-14391822D02*
X12714463Y-14382298D01*
X12714463Y-14382298D02*
X12733510Y-14372774D01*
X12733510Y-14372774D02*
X12771606Y-14372774D01*
X12771606Y-14372774D02*
X12790653Y-14382298D01*
X12790653Y-14382298D02*
X12800177Y-14391822D01*
X12800177Y-14391822D02*
X12809701Y-14410869D01*
X12809701Y-14410869D02*
X12809701Y-14420393D01*
X12809701Y-14420393D02*
X12800177Y-14439441D01*
X12800177Y-14439441D02*
X12790653Y-14448965D01*
X12790653Y-14448965D02*
X12771606Y-14458488D01*
X12771606Y-14458488D02*
X12733510Y-14458488D01*
X12733510Y-14458488D02*
X12714463Y-14468012D01*
X12714463Y-14468012D02*
X12704939Y-14477536D01*
X12704939Y-14477536D02*
X12695415Y-14496584D01*
X12695415Y-14496584D02*
X12695415Y-14534679D01*
X12695415Y-14534679D02*
X12704939Y-14553727D01*
X12704939Y-14553727D02*
X12714463Y-14563250D01*
X12714463Y-14563250D02*
X12733510Y-14572774D01*
X12733510Y-14572774D02*
X12771606Y-14572774D01*
X12771606Y-14572774D02*
X12790653Y-14563250D01*
X12790653Y-14563250D02*
X12800177Y-14553727D01*
X12800177Y-14553727D02*
X12809701Y-14534679D01*
X12809701Y-14534679D02*
X12809701Y-14496584D01*
X12809701Y-14496584D02*
X12800177Y-14477536D01*
X12800177Y-14477536D02*
X12790653Y-14468012D01*
X12790653Y-14468012D02*
X12771606Y-14458488D01*
X13047796Y-14572774D02*
X13047796Y-14372774D01*
X13133510Y-14572774D02*
X13133510Y-14468012D01*
X13133510Y-14468012D02*
X13123987Y-14448965D01*
X13123987Y-14448965D02*
X13104939Y-14439441D01*
X13104939Y-14439441D02*
X13076368Y-14439441D01*
X13076368Y-14439441D02*
X13057320Y-14448965D01*
X13057320Y-14448965D02*
X13047796Y-14458488D01*
X13257320Y-14572774D02*
X13238272Y-14563250D01*
X13238272Y-14563250D02*
X13228749Y-14553727D01*
X13228749Y-14553727D02*
X13219225Y-14534679D01*
X13219225Y-14534679D02*
X13219225Y-14477536D01*
X13219225Y-14477536D02*
X13228749Y-14458488D01*
X13228749Y-14458488D02*
X13238272Y-14448965D01*
X13238272Y-14448965D02*
X13257320Y-14439441D01*
X13257320Y-14439441D02*
X13285891Y-14439441D01*
X13285891Y-14439441D02*
X13304939Y-14448965D01*
X13304939Y-14448965D02*
X13314463Y-14458488D01*
X13314463Y-14458488D02*
X13323987Y-14477536D01*
X13323987Y-14477536D02*
X13323987Y-14534679D01*
X13323987Y-14534679D02*
X13314463Y-14553727D01*
X13314463Y-14553727D02*
X13304939Y-14563250D01*
X13304939Y-14563250D02*
X13285891Y-14572774D01*
X13285891Y-14572774D02*
X13257320Y-14572774D01*
X13438272Y-14572774D02*
X13419225Y-14563250D01*
X13419225Y-14563250D02*
X13409701Y-14544203D01*
X13409701Y-14544203D02*
X13409701Y-14372774D01*
X13590653Y-14563250D02*
X13571606Y-14572774D01*
X13571606Y-14572774D02*
X13533510Y-14572774D01*
X13533510Y-14572774D02*
X13514463Y-14563250D01*
X13514463Y-14563250D02*
X13504939Y-14544203D01*
X13504939Y-14544203D02*
X13504939Y-14468012D01*
X13504939Y-14468012D02*
X13514463Y-14448965D01*
X13514463Y-14448965D02*
X13533510Y-14439441D01*
X13533510Y-14439441D02*
X13571606Y-14439441D01*
X13571606Y-14439441D02*
X13590653Y-14448965D01*
X13590653Y-14448965D02*
X13600177Y-14468012D01*
X13600177Y-14468012D02*
X13600177Y-14487060D01*
X13600177Y-14487060D02*
X13504939Y-14506108D01*
X13676368Y-14563250D02*
X13695415Y-14572774D01*
X13695415Y-14572774D02*
X13733510Y-14572774D01*
X13733510Y-14572774D02*
X13752558Y-14563250D01*
X13752558Y-14563250D02*
X13762082Y-14544203D01*
X13762082Y-14544203D02*
X13762082Y-14534679D01*
X13762082Y-14534679D02*
X13752558Y-14515631D01*
X13752558Y-14515631D02*
X13733510Y-14506108D01*
X13733510Y-14506108D02*
X13704939Y-14506108D01*
X13704939Y-14506108D02*
X13685891Y-14496584D01*
X13685891Y-14496584D02*
X13676368Y-14477536D01*
X13676368Y-14477536D02*
X13676368Y-14468012D01*
X13676368Y-14468012D02*
X13685891Y-14448965D01*
X13685891Y-14448965D02*
X13704939Y-14439441D01*
X13704939Y-14439441D02*
X13733510Y-14439441D01*
X13733510Y-14439441D02*
X13752558Y-14448965D01*
X13828749Y-14648965D02*
X13838272Y-14639441D01*
X13838272Y-14639441D02*
X13857320Y-14610869D01*
X13857320Y-14610869D02*
X13866844Y-14591822D01*
X13866844Y-14591822D02*
X13876368Y-14563250D01*
X13876368Y-14563250D02*
X13885891Y-14515631D01*
X13885891Y-14515631D02*
X13885891Y-14477536D01*
X13885891Y-14477536D02*
X13876368Y-14429917D01*
X13876368Y-14429917D02*
X13866844Y-14401346D01*
X13866844Y-14401346D02*
X13857320Y-14382298D01*
X13857320Y-14382298D02*
X13838272Y-14353727D01*
X13838272Y-14353727D02*
X13828749Y-14344203D01*
X8663210Y-14645290D02*
X8863210Y-14845290D01*
X8863210Y-14645290D02*
X8663210Y-14845290D01*
X8863210Y-14745290D02*
G75*
G02*
X8663210Y-14745290I-100000J0D01*
G01*
X8663210Y-14745290D02*
G75*
G02*
X8863210Y-14745290I100000J0D01*
G01*
X9114463Y-14655822D02*
X9123986Y-14646298D01*
X9123986Y-14646298D02*
X9143034Y-14636774D01*
X9143034Y-14636774D02*
X9190653Y-14636774D01*
X9190653Y-14636774D02*
X9209701Y-14646298D01*
X9209701Y-14646298D02*
X9219224Y-14655822D01*
X9219224Y-14655822D02*
X9228748Y-14674869D01*
X9228748Y-14674869D02*
X9228748Y-14693917D01*
X9228748Y-14693917D02*
X9219224Y-14722488D01*
X9219224Y-14722488D02*
X9104939Y-14836774D01*
X9104939Y-14836774D02*
X9228748Y-14836774D01*
X9314463Y-14817727D02*
X9323986Y-14827250D01*
X9323986Y-14827250D02*
X9314463Y-14836774D01*
X9314463Y-14836774D02*
X9304939Y-14827250D01*
X9304939Y-14827250D02*
X9314463Y-14817727D01*
X9314463Y-14817727D02*
X9314463Y-14836774D01*
X9390653Y-14636774D02*
X9523986Y-14636774D01*
X9523986Y-14636774D02*
X9438272Y-14836774D01*
X9638272Y-14636774D02*
X9657320Y-14636774D01*
X9657320Y-14636774D02*
X9676367Y-14646298D01*
X9676367Y-14646298D02*
X9685891Y-14655822D01*
X9685891Y-14655822D02*
X9695415Y-14674869D01*
X9695415Y-14674869D02*
X9704939Y-14712965D01*
X9704939Y-14712965D02*
X9704939Y-14760584D01*
X9704939Y-14760584D02*
X9695415Y-14798679D01*
X9695415Y-14798679D02*
X9685891Y-14817727D01*
X9685891Y-14817727D02*
X9676367Y-14827250D01*
X9676367Y-14827250D02*
X9657320Y-14836774D01*
X9657320Y-14836774D02*
X9638272Y-14836774D01*
X9638272Y-14836774D02*
X9619224Y-14827250D01*
X9619224Y-14827250D02*
X9609701Y-14817727D01*
X9609701Y-14817727D02*
X9600177Y-14798679D01*
X9600177Y-14798679D02*
X9590653Y-14760584D01*
X9590653Y-14760584D02*
X9590653Y-14712965D01*
X9590653Y-14712965D02*
X9600177Y-14674869D01*
X9600177Y-14674869D02*
X9609701Y-14655822D01*
X9609701Y-14655822D02*
X9619224Y-14646298D01*
X9619224Y-14646298D02*
X9638272Y-14636774D01*
X9828748Y-14636774D02*
X9847796Y-14636774D01*
X9847796Y-14636774D02*
X9866844Y-14646298D01*
X9866844Y-14646298D02*
X9876367Y-14655822D01*
X9876367Y-14655822D02*
X9885891Y-14674869D01*
X9885891Y-14674869D02*
X9895415Y-14712965D01*
X9895415Y-14712965D02*
X9895415Y-14760584D01*
X9895415Y-14760584D02*
X9885891Y-14798679D01*
X9885891Y-14798679D02*
X9876367Y-14817727D01*
X9876367Y-14817727D02*
X9866844Y-14827250D01*
X9866844Y-14827250D02*
X9847796Y-14836774D01*
X9847796Y-14836774D02*
X9828748Y-14836774D01*
X9828748Y-14836774D02*
X9809701Y-14827250D01*
X9809701Y-14827250D02*
X9800177Y-14817727D01*
X9800177Y-14817727D02*
X9790653Y-14798679D01*
X9790653Y-14798679D02*
X9781129Y-14760584D01*
X9781129Y-14760584D02*
X9781129Y-14712965D01*
X9781129Y-14712965D02*
X9790653Y-14674869D01*
X9790653Y-14674869D02*
X9800177Y-14655822D01*
X9800177Y-14655822D02*
X9809701Y-14646298D01*
X9809701Y-14646298D02*
X9828748Y-14636774D01*
X9981129Y-14836774D02*
X9981129Y-14703441D01*
X9981129Y-14722488D02*
X9990653Y-14712965D01*
X9990653Y-14712965D02*
X10009701Y-14703441D01*
X10009701Y-14703441D02*
X10038272Y-14703441D01*
X10038272Y-14703441D02*
X10057320Y-14712965D01*
X10057320Y-14712965D02*
X10066844Y-14732012D01*
X10066844Y-14732012D02*
X10066844Y-14836774D01*
X10066844Y-14732012D02*
X10076367Y-14712965D01*
X10076367Y-14712965D02*
X10095415Y-14703441D01*
X10095415Y-14703441D02*
X10123986Y-14703441D01*
X10123986Y-14703441D02*
X10143034Y-14712965D01*
X10143034Y-14712965D02*
X10152558Y-14732012D01*
X10152558Y-14732012D02*
X10152558Y-14836774D01*
X10247796Y-14836774D02*
X10247796Y-14703441D01*
X10247796Y-14722488D02*
X10257320Y-14712965D01*
X10257320Y-14712965D02*
X10276367Y-14703441D01*
X10276367Y-14703441D02*
X10304939Y-14703441D01*
X10304939Y-14703441D02*
X10323986Y-14712965D01*
X10323986Y-14712965D02*
X10333510Y-14732012D01*
X10333510Y-14732012D02*
X10333510Y-14836774D01*
X10333510Y-14732012D02*
X10343034Y-14712965D01*
X10343034Y-14712965D02*
X10362082Y-14703441D01*
X10362082Y-14703441D02*
X10390653Y-14703441D01*
X10390653Y-14703441D02*
X10409701Y-14712965D01*
X10409701Y-14712965D02*
X10419225Y-14732012D01*
X10419225Y-14732012D02*
X10419225Y-14836774D01*
X10809701Y-14627250D02*
X10638272Y-14884393D01*
X11066844Y-14636774D02*
X11085891Y-14636774D01*
X11085891Y-14636774D02*
X11104939Y-14646298D01*
X11104939Y-14646298D02*
X11114463Y-14655822D01*
X11114463Y-14655822D02*
X11123987Y-14674869D01*
X11123987Y-14674869D02*
X11133510Y-14712965D01*
X11133510Y-14712965D02*
X11133510Y-14760584D01*
X11133510Y-14760584D02*
X11123987Y-14798679D01*
X11123987Y-14798679D02*
X11114463Y-14817727D01*
X11114463Y-14817727D02*
X11104939Y-14827250D01*
X11104939Y-14827250D02*
X11085891Y-14836774D01*
X11085891Y-14836774D02*
X11066844Y-14836774D01*
X11066844Y-14836774D02*
X11047796Y-14827250D01*
X11047796Y-14827250D02*
X11038272Y-14817727D01*
X11038272Y-14817727D02*
X11028748Y-14798679D01*
X11028748Y-14798679D02*
X11019225Y-14760584D01*
X11019225Y-14760584D02*
X11019225Y-14712965D01*
X11019225Y-14712965D02*
X11028748Y-14674869D01*
X11028748Y-14674869D02*
X11038272Y-14655822D01*
X11038272Y-14655822D02*
X11047796Y-14646298D01*
X11047796Y-14646298D02*
X11066844Y-14636774D01*
X11219225Y-14817727D02*
X11228748Y-14827250D01*
X11228748Y-14827250D02*
X11219225Y-14836774D01*
X11219225Y-14836774D02*
X11209701Y-14827250D01*
X11209701Y-14827250D02*
X11219225Y-14817727D01*
X11219225Y-14817727D02*
X11219225Y-14836774D01*
X11419225Y-14836774D02*
X11304939Y-14836774D01*
X11362082Y-14836774D02*
X11362082Y-14636774D01*
X11362082Y-14636774D02*
X11343034Y-14665346D01*
X11343034Y-14665346D02*
X11323986Y-14684393D01*
X11323986Y-14684393D02*
X11304939Y-14693917D01*
X11543034Y-14636774D02*
X11562082Y-14636774D01*
X11562082Y-14636774D02*
X11581129Y-14646298D01*
X11581129Y-14646298D02*
X11590653Y-14655822D01*
X11590653Y-14655822D02*
X11600177Y-14674869D01*
X11600177Y-14674869D02*
X11609701Y-14712965D01*
X11609701Y-14712965D02*
X11609701Y-14760584D01*
X11609701Y-14760584D02*
X11600177Y-14798679D01*
X11600177Y-14798679D02*
X11590653Y-14817727D01*
X11590653Y-14817727D02*
X11581129Y-14827250D01*
X11581129Y-14827250D02*
X11562082Y-14836774D01*
X11562082Y-14836774D02*
X11543034Y-14836774D01*
X11543034Y-14836774D02*
X11523986Y-14827250D01*
X11523986Y-14827250D02*
X11514463Y-14817727D01*
X11514463Y-14817727D02*
X11504939Y-14798679D01*
X11504939Y-14798679D02*
X11495415Y-14760584D01*
X11495415Y-14760584D02*
X11495415Y-14712965D01*
X11495415Y-14712965D02*
X11504939Y-14674869D01*
X11504939Y-14674869D02*
X11514463Y-14655822D01*
X11514463Y-14655822D02*
X11523986Y-14646298D01*
X11523986Y-14646298D02*
X11543034Y-14636774D01*
X11781129Y-14636774D02*
X11743034Y-14636774D01*
X11743034Y-14636774D02*
X11723986Y-14646298D01*
X11723986Y-14646298D02*
X11714463Y-14655822D01*
X11714463Y-14655822D02*
X11695415Y-14684393D01*
X11695415Y-14684393D02*
X11685891Y-14722488D01*
X11685891Y-14722488D02*
X11685891Y-14798679D01*
X11685891Y-14798679D02*
X11695415Y-14817727D01*
X11695415Y-14817727D02*
X11704939Y-14827250D01*
X11704939Y-14827250D02*
X11723986Y-14836774D01*
X11723986Y-14836774D02*
X11762082Y-14836774D01*
X11762082Y-14836774D02*
X11781129Y-14827250D01*
X11781129Y-14827250D02*
X11790653Y-14817727D01*
X11790653Y-14817727D02*
X11800177Y-14798679D01*
X11800177Y-14798679D02*
X11800177Y-14751060D01*
X11800177Y-14751060D02*
X11790653Y-14732012D01*
X11790653Y-14732012D02*
X11781129Y-14722488D01*
X11781129Y-14722488D02*
X11762082Y-14712965D01*
X11762082Y-14712965D02*
X11723986Y-14712965D01*
X11723986Y-14712965D02*
X11704939Y-14722488D01*
X11704939Y-14722488D02*
X11695415Y-14732012D01*
X11695415Y-14732012D02*
X11685891Y-14751060D01*
X11866844Y-14636774D02*
X11990653Y-14636774D01*
X11990653Y-14636774D02*
X11923986Y-14712965D01*
X11923986Y-14712965D02*
X11952558Y-14712965D01*
X11952558Y-14712965D02*
X11971606Y-14722488D01*
X11971606Y-14722488D02*
X11981129Y-14732012D01*
X11981129Y-14732012D02*
X11990653Y-14751060D01*
X11990653Y-14751060D02*
X11990653Y-14798679D01*
X11990653Y-14798679D02*
X11981129Y-14817727D01*
X11981129Y-14817727D02*
X11971606Y-14827250D01*
X11971606Y-14827250D02*
X11952558Y-14836774D01*
X11952558Y-14836774D02*
X11895415Y-14836774D01*
X11895415Y-14836774D02*
X11876367Y-14827250D01*
X11876367Y-14827250D02*
X11866844Y-14817727D01*
X12066844Y-14636774D02*
X12066844Y-14674869D01*
X12143034Y-14636774D02*
X12143034Y-14674869D01*
X12438272Y-14912965D02*
X12428748Y-14903441D01*
X12428748Y-14903441D02*
X12409701Y-14874869D01*
X12409701Y-14874869D02*
X12400177Y-14855822D01*
X12400177Y-14855822D02*
X12390653Y-14827250D01*
X12390653Y-14827250D02*
X12381129Y-14779631D01*
X12381129Y-14779631D02*
X12381129Y-14741536D01*
X12381129Y-14741536D02*
X12390653Y-14693917D01*
X12390653Y-14693917D02*
X12400177Y-14665346D01*
X12400177Y-14665346D02*
X12409701Y-14646298D01*
X12409701Y-14646298D02*
X12428748Y-14617727D01*
X12428748Y-14617727D02*
X12438272Y-14608203D01*
X12600177Y-14703441D02*
X12600177Y-14836774D01*
X12552558Y-14627250D02*
X12504939Y-14770108D01*
X12504939Y-14770108D02*
X12628748Y-14770108D01*
X12857320Y-14836774D02*
X12857320Y-14636774D01*
X12943034Y-14836774D02*
X12943034Y-14732012D01*
X12943034Y-14732012D02*
X12933510Y-14712965D01*
X12933510Y-14712965D02*
X12914463Y-14703441D01*
X12914463Y-14703441D02*
X12885891Y-14703441D01*
X12885891Y-14703441D02*
X12866844Y-14712965D01*
X12866844Y-14712965D02*
X12857320Y-14722488D01*
X13066844Y-14836774D02*
X13047796Y-14827250D01*
X13047796Y-14827250D02*
X13038272Y-14817727D01*
X13038272Y-14817727D02*
X13028749Y-14798679D01*
X13028749Y-14798679D02*
X13028749Y-14741536D01*
X13028749Y-14741536D02*
X13038272Y-14722488D01*
X13038272Y-14722488D02*
X13047796Y-14712965D01*
X13047796Y-14712965D02*
X13066844Y-14703441D01*
X13066844Y-14703441D02*
X13095415Y-14703441D01*
X13095415Y-14703441D02*
X13114463Y-14712965D01*
X13114463Y-14712965D02*
X13123987Y-14722488D01*
X13123987Y-14722488D02*
X13133510Y-14741536D01*
X13133510Y-14741536D02*
X13133510Y-14798679D01*
X13133510Y-14798679D02*
X13123987Y-14817727D01*
X13123987Y-14817727D02*
X13114463Y-14827250D01*
X13114463Y-14827250D02*
X13095415Y-14836774D01*
X13095415Y-14836774D02*
X13066844Y-14836774D01*
X13247796Y-14836774D02*
X13228749Y-14827250D01*
X13228749Y-14827250D02*
X13219225Y-14808203D01*
X13219225Y-14808203D02*
X13219225Y-14636774D01*
X13400177Y-14827250D02*
X13381130Y-14836774D01*
X13381130Y-14836774D02*
X13343034Y-14836774D01*
X13343034Y-14836774D02*
X13323987Y-14827250D01*
X13323987Y-14827250D02*
X13314463Y-14808203D01*
X13314463Y-14808203D02*
X13314463Y-14732012D01*
X13314463Y-14732012D02*
X13323987Y-14712965D01*
X13323987Y-14712965D02*
X13343034Y-14703441D01*
X13343034Y-14703441D02*
X13381130Y-14703441D01*
X13381130Y-14703441D02*
X13400177Y-14712965D01*
X13400177Y-14712965D02*
X13409701Y-14732012D01*
X13409701Y-14732012D02*
X13409701Y-14751060D01*
X13409701Y-14751060D02*
X13314463Y-14770108D01*
X13485891Y-14827250D02*
X13504939Y-14836774D01*
X13504939Y-14836774D02*
X13543034Y-14836774D01*
X13543034Y-14836774D02*
X13562082Y-14827250D01*
X13562082Y-14827250D02*
X13571606Y-14808203D01*
X13571606Y-14808203D02*
X13571606Y-14798679D01*
X13571606Y-14798679D02*
X13562082Y-14779631D01*
X13562082Y-14779631D02*
X13543034Y-14770108D01*
X13543034Y-14770108D02*
X13514463Y-14770108D01*
X13514463Y-14770108D02*
X13495415Y-14760584D01*
X13495415Y-14760584D02*
X13485891Y-14741536D01*
X13485891Y-14741536D02*
X13485891Y-14732012D01*
X13485891Y-14732012D02*
X13495415Y-14712965D01*
X13495415Y-14712965D02*
X13514463Y-14703441D01*
X13514463Y-14703441D02*
X13543034Y-14703441D01*
X13543034Y-14703441D02*
X13562082Y-14712965D01*
X13638272Y-14912965D02*
X13647796Y-14903441D01*
X13647796Y-14903441D02*
X13666844Y-14874869D01*
X13666844Y-14874869D02*
X13676368Y-14855822D01*
X13676368Y-14855822D02*
X13685891Y-14827250D01*
X13685891Y-14827250D02*
X13695415Y-14779631D01*
X13695415Y-14779631D02*
X13695415Y-14741536D01*
X13695415Y-14741536D02*
X13685891Y-14693917D01*
X13685891Y-14693917D02*
X13676368Y-14665346D01*
X13676368Y-14665346D02*
X13666844Y-14646298D01*
X13666844Y-14646298D02*
X13647796Y-14617727D01*
X13647796Y-14617727D02*
X13638272Y-14608203D01*
X8663210Y-14965290D02*
X8863210Y-15165290D01*
X8863210Y-14965290D02*
X8663210Y-15165290D01*
X8763210Y-14965290D02*
X8763210Y-15165290D01*
X8663210Y-15065290D02*
X8863210Y-15065290D01*
X9104939Y-14956774D02*
X9228748Y-14956774D01*
X9228748Y-14956774D02*
X9162082Y-15032965D01*
X9162082Y-15032965D02*
X9190653Y-15032965D01*
X9190653Y-15032965D02*
X9209701Y-15042488D01*
X9209701Y-15042488D02*
X9219224Y-15052012D01*
X9219224Y-15052012D02*
X9228748Y-15071060D01*
X9228748Y-15071060D02*
X9228748Y-15118679D01*
X9228748Y-15118679D02*
X9219224Y-15137727D01*
X9219224Y-15137727D02*
X9209701Y-15147250D01*
X9209701Y-15147250D02*
X9190653Y-15156774D01*
X9190653Y-15156774D02*
X9133510Y-15156774D01*
X9133510Y-15156774D02*
X9114463Y-15147250D01*
X9114463Y-15147250D02*
X9104939Y-15137727D01*
X9314463Y-15137727D02*
X9323986Y-15147250D01*
X9323986Y-15147250D02*
X9314463Y-15156774D01*
X9314463Y-15156774D02*
X9304939Y-15147250D01*
X9304939Y-15147250D02*
X9314463Y-15137727D01*
X9314463Y-15137727D02*
X9314463Y-15156774D01*
X9400177Y-14975822D02*
X9409701Y-14966298D01*
X9409701Y-14966298D02*
X9428748Y-14956774D01*
X9428748Y-14956774D02*
X9476367Y-14956774D01*
X9476367Y-14956774D02*
X9495415Y-14966298D01*
X9495415Y-14966298D02*
X9504939Y-14975822D01*
X9504939Y-14975822D02*
X9514463Y-14994869D01*
X9514463Y-14994869D02*
X9514463Y-15013917D01*
X9514463Y-15013917D02*
X9504939Y-15042488D01*
X9504939Y-15042488D02*
X9390653Y-15156774D01*
X9390653Y-15156774D02*
X9514463Y-15156774D01*
X9638272Y-14956774D02*
X9657320Y-14956774D01*
X9657320Y-14956774D02*
X9676367Y-14966298D01*
X9676367Y-14966298D02*
X9685891Y-14975822D01*
X9685891Y-14975822D02*
X9695415Y-14994869D01*
X9695415Y-14994869D02*
X9704939Y-15032965D01*
X9704939Y-15032965D02*
X9704939Y-15080584D01*
X9704939Y-15080584D02*
X9695415Y-15118679D01*
X9695415Y-15118679D02*
X9685891Y-15137727D01*
X9685891Y-15137727D02*
X9676367Y-15147250D01*
X9676367Y-15147250D02*
X9657320Y-15156774D01*
X9657320Y-15156774D02*
X9638272Y-15156774D01*
X9638272Y-15156774D02*
X9619224Y-15147250D01*
X9619224Y-15147250D02*
X9609701Y-15137727D01*
X9609701Y-15137727D02*
X9600177Y-15118679D01*
X9600177Y-15118679D02*
X9590653Y-15080584D01*
X9590653Y-15080584D02*
X9590653Y-15032965D01*
X9590653Y-15032965D02*
X9600177Y-14994869D01*
X9600177Y-14994869D02*
X9609701Y-14975822D01*
X9609701Y-14975822D02*
X9619224Y-14966298D01*
X9619224Y-14966298D02*
X9638272Y-14956774D01*
X9828748Y-14956774D02*
X9847796Y-14956774D01*
X9847796Y-14956774D02*
X9866844Y-14966298D01*
X9866844Y-14966298D02*
X9876367Y-14975822D01*
X9876367Y-14975822D02*
X9885891Y-14994869D01*
X9885891Y-14994869D02*
X9895415Y-15032965D01*
X9895415Y-15032965D02*
X9895415Y-15080584D01*
X9895415Y-15080584D02*
X9885891Y-15118679D01*
X9885891Y-15118679D02*
X9876367Y-15137727D01*
X9876367Y-15137727D02*
X9866844Y-15147250D01*
X9866844Y-15147250D02*
X9847796Y-15156774D01*
X9847796Y-15156774D02*
X9828748Y-15156774D01*
X9828748Y-15156774D02*
X9809701Y-15147250D01*
X9809701Y-15147250D02*
X9800177Y-15137727D01*
X9800177Y-15137727D02*
X9790653Y-15118679D01*
X9790653Y-15118679D02*
X9781129Y-15080584D01*
X9781129Y-15080584D02*
X9781129Y-15032965D01*
X9781129Y-15032965D02*
X9790653Y-14994869D01*
X9790653Y-14994869D02*
X9800177Y-14975822D01*
X9800177Y-14975822D02*
X9809701Y-14966298D01*
X9809701Y-14966298D02*
X9828748Y-14956774D01*
X9981129Y-15156774D02*
X9981129Y-15023441D01*
X9981129Y-15042488D02*
X9990653Y-15032965D01*
X9990653Y-15032965D02*
X10009701Y-15023441D01*
X10009701Y-15023441D02*
X10038272Y-15023441D01*
X10038272Y-15023441D02*
X10057320Y-15032965D01*
X10057320Y-15032965D02*
X10066844Y-15052012D01*
X10066844Y-15052012D02*
X10066844Y-15156774D01*
X10066844Y-15052012D02*
X10076367Y-15032965D01*
X10076367Y-15032965D02*
X10095415Y-15023441D01*
X10095415Y-15023441D02*
X10123986Y-15023441D01*
X10123986Y-15023441D02*
X10143034Y-15032965D01*
X10143034Y-15032965D02*
X10152558Y-15052012D01*
X10152558Y-15052012D02*
X10152558Y-15156774D01*
X10247796Y-15156774D02*
X10247796Y-15023441D01*
X10247796Y-15042488D02*
X10257320Y-15032965D01*
X10257320Y-15032965D02*
X10276367Y-15023441D01*
X10276367Y-15023441D02*
X10304939Y-15023441D01*
X10304939Y-15023441D02*
X10323986Y-15032965D01*
X10323986Y-15032965D02*
X10333510Y-15052012D01*
X10333510Y-15052012D02*
X10333510Y-15156774D01*
X10333510Y-15052012D02*
X10343034Y-15032965D01*
X10343034Y-15032965D02*
X10362082Y-15023441D01*
X10362082Y-15023441D02*
X10390653Y-15023441D01*
X10390653Y-15023441D02*
X10409701Y-15032965D01*
X10409701Y-15032965D02*
X10419225Y-15052012D01*
X10419225Y-15052012D02*
X10419225Y-15156774D01*
X10809701Y-14947250D02*
X10638272Y-15204393D01*
X11066844Y-14956774D02*
X11085891Y-14956774D01*
X11085891Y-14956774D02*
X11104939Y-14966298D01*
X11104939Y-14966298D02*
X11114463Y-14975822D01*
X11114463Y-14975822D02*
X11123987Y-14994869D01*
X11123987Y-14994869D02*
X11133510Y-15032965D01*
X11133510Y-15032965D02*
X11133510Y-15080584D01*
X11133510Y-15080584D02*
X11123987Y-15118679D01*
X11123987Y-15118679D02*
X11114463Y-15137727D01*
X11114463Y-15137727D02*
X11104939Y-15147250D01*
X11104939Y-15147250D02*
X11085891Y-15156774D01*
X11085891Y-15156774D02*
X11066844Y-15156774D01*
X11066844Y-15156774D02*
X11047796Y-15147250D01*
X11047796Y-15147250D02*
X11038272Y-15137727D01*
X11038272Y-15137727D02*
X11028748Y-15118679D01*
X11028748Y-15118679D02*
X11019225Y-15080584D01*
X11019225Y-15080584D02*
X11019225Y-15032965D01*
X11019225Y-15032965D02*
X11028748Y-14994869D01*
X11028748Y-14994869D02*
X11038272Y-14975822D01*
X11038272Y-14975822D02*
X11047796Y-14966298D01*
X11047796Y-14966298D02*
X11066844Y-14956774D01*
X11219225Y-15137727D02*
X11228748Y-15147250D01*
X11228748Y-15147250D02*
X11219225Y-15156774D01*
X11219225Y-15156774D02*
X11209701Y-15147250D01*
X11209701Y-15147250D02*
X11219225Y-15137727D01*
X11219225Y-15137727D02*
X11219225Y-15156774D01*
X11419225Y-15156774D02*
X11304939Y-15156774D01*
X11362082Y-15156774D02*
X11362082Y-14956774D01*
X11362082Y-14956774D02*
X11343034Y-14985346D01*
X11343034Y-14985346D02*
X11323986Y-15004393D01*
X11323986Y-15004393D02*
X11304939Y-15013917D01*
X11495415Y-14975822D02*
X11504939Y-14966298D01*
X11504939Y-14966298D02*
X11523986Y-14956774D01*
X11523986Y-14956774D02*
X11571606Y-14956774D01*
X11571606Y-14956774D02*
X11590653Y-14966298D01*
X11590653Y-14966298D02*
X11600177Y-14975822D01*
X11600177Y-14975822D02*
X11609701Y-14994869D01*
X11609701Y-14994869D02*
X11609701Y-15013917D01*
X11609701Y-15013917D02*
X11600177Y-15042488D01*
X11600177Y-15042488D02*
X11485891Y-15156774D01*
X11485891Y-15156774D02*
X11609701Y-15156774D01*
X11781129Y-14956774D02*
X11743034Y-14956774D01*
X11743034Y-14956774D02*
X11723986Y-14966298D01*
X11723986Y-14966298D02*
X11714463Y-14975822D01*
X11714463Y-14975822D02*
X11695415Y-15004393D01*
X11695415Y-15004393D02*
X11685891Y-15042488D01*
X11685891Y-15042488D02*
X11685891Y-15118679D01*
X11685891Y-15118679D02*
X11695415Y-15137727D01*
X11695415Y-15137727D02*
X11704939Y-15147250D01*
X11704939Y-15147250D02*
X11723986Y-15156774D01*
X11723986Y-15156774D02*
X11762082Y-15156774D01*
X11762082Y-15156774D02*
X11781129Y-15147250D01*
X11781129Y-15147250D02*
X11790653Y-15137727D01*
X11790653Y-15137727D02*
X11800177Y-15118679D01*
X11800177Y-15118679D02*
X11800177Y-15071060D01*
X11800177Y-15071060D02*
X11790653Y-15052012D01*
X11790653Y-15052012D02*
X11781129Y-15042488D01*
X11781129Y-15042488D02*
X11762082Y-15032965D01*
X11762082Y-15032965D02*
X11723986Y-15032965D01*
X11723986Y-15032965D02*
X11704939Y-15042488D01*
X11704939Y-15042488D02*
X11695415Y-15052012D01*
X11695415Y-15052012D02*
X11685891Y-15071060D01*
X11923986Y-14956774D02*
X11943034Y-14956774D01*
X11943034Y-14956774D02*
X11962082Y-14966298D01*
X11962082Y-14966298D02*
X11971606Y-14975822D01*
X11971606Y-14975822D02*
X11981129Y-14994869D01*
X11981129Y-14994869D02*
X11990653Y-15032965D01*
X11990653Y-15032965D02*
X11990653Y-15080584D01*
X11990653Y-15080584D02*
X11981129Y-15118679D01*
X11981129Y-15118679D02*
X11971606Y-15137727D01*
X11971606Y-15137727D02*
X11962082Y-15147250D01*
X11962082Y-15147250D02*
X11943034Y-15156774D01*
X11943034Y-15156774D02*
X11923986Y-15156774D01*
X11923986Y-15156774D02*
X11904939Y-15147250D01*
X11904939Y-15147250D02*
X11895415Y-15137727D01*
X11895415Y-15137727D02*
X11885891Y-15118679D01*
X11885891Y-15118679D02*
X11876367Y-15080584D01*
X11876367Y-15080584D02*
X11876367Y-15032965D01*
X11876367Y-15032965D02*
X11885891Y-14994869D01*
X11885891Y-14994869D02*
X11895415Y-14975822D01*
X11895415Y-14975822D02*
X11904939Y-14966298D01*
X11904939Y-14966298D02*
X11923986Y-14956774D01*
X12066844Y-14956774D02*
X12066844Y-14994869D01*
X12143034Y-14956774D02*
X12143034Y-14994869D01*
X12438272Y-15232965D02*
X12428748Y-15223441D01*
X12428748Y-15223441D02*
X12409701Y-15194869D01*
X12409701Y-15194869D02*
X12400177Y-15175822D01*
X12400177Y-15175822D02*
X12390653Y-15147250D01*
X12390653Y-15147250D02*
X12381129Y-15099631D01*
X12381129Y-15099631D02*
X12381129Y-15061536D01*
X12381129Y-15061536D02*
X12390653Y-15013917D01*
X12390653Y-15013917D02*
X12400177Y-14985346D01*
X12400177Y-14985346D02*
X12409701Y-14966298D01*
X12409701Y-14966298D02*
X12428748Y-14937727D01*
X12428748Y-14937727D02*
X12438272Y-14928203D01*
X12600177Y-15023441D02*
X12600177Y-15156774D01*
X12552558Y-14947250D02*
X12504939Y-15090108D01*
X12504939Y-15090108D02*
X12628748Y-15090108D01*
X12857320Y-15156774D02*
X12857320Y-14956774D01*
X12943034Y-15156774D02*
X12943034Y-15052012D01*
X12943034Y-15052012D02*
X12933510Y-15032965D01*
X12933510Y-15032965D02*
X12914463Y-15023441D01*
X12914463Y-15023441D02*
X12885891Y-15023441D01*
X12885891Y-15023441D02*
X12866844Y-15032965D01*
X12866844Y-15032965D02*
X12857320Y-15042488D01*
X13066844Y-15156774D02*
X13047796Y-15147250D01*
X13047796Y-15147250D02*
X13038272Y-15137727D01*
X13038272Y-15137727D02*
X13028749Y-15118679D01*
X13028749Y-15118679D02*
X13028749Y-15061536D01*
X13028749Y-15061536D02*
X13038272Y-15042488D01*
X13038272Y-15042488D02*
X13047796Y-15032965D01*
X13047796Y-15032965D02*
X13066844Y-15023441D01*
X13066844Y-15023441D02*
X13095415Y-15023441D01*
X13095415Y-15023441D02*
X13114463Y-15032965D01*
X13114463Y-15032965D02*
X13123987Y-15042488D01*
X13123987Y-15042488D02*
X13133510Y-15061536D01*
X13133510Y-15061536D02*
X13133510Y-15118679D01*
X13133510Y-15118679D02*
X13123987Y-15137727D01*
X13123987Y-15137727D02*
X13114463Y-15147250D01*
X13114463Y-15147250D02*
X13095415Y-15156774D01*
X13095415Y-15156774D02*
X13066844Y-15156774D01*
X13247796Y-15156774D02*
X13228749Y-15147250D01*
X13228749Y-15147250D02*
X13219225Y-15128203D01*
X13219225Y-15128203D02*
X13219225Y-14956774D01*
X13400177Y-15147250D02*
X13381130Y-15156774D01*
X13381130Y-15156774D02*
X13343034Y-15156774D01*
X13343034Y-15156774D02*
X13323987Y-15147250D01*
X13323987Y-15147250D02*
X13314463Y-15128203D01*
X13314463Y-15128203D02*
X13314463Y-15052012D01*
X13314463Y-15052012D02*
X13323987Y-15032965D01*
X13323987Y-15032965D02*
X13343034Y-15023441D01*
X13343034Y-15023441D02*
X13381130Y-15023441D01*
X13381130Y-15023441D02*
X13400177Y-15032965D01*
X13400177Y-15032965D02*
X13409701Y-15052012D01*
X13409701Y-15052012D02*
X13409701Y-15071060D01*
X13409701Y-15071060D02*
X13314463Y-15090108D01*
X13485891Y-15147250D02*
X13504939Y-15156774D01*
X13504939Y-15156774D02*
X13543034Y-15156774D01*
X13543034Y-15156774D02*
X13562082Y-15147250D01*
X13562082Y-15147250D02*
X13571606Y-15128203D01*
X13571606Y-15128203D02*
X13571606Y-15118679D01*
X13571606Y-15118679D02*
X13562082Y-15099631D01*
X13562082Y-15099631D02*
X13543034Y-15090108D01*
X13543034Y-15090108D02*
X13514463Y-15090108D01*
X13514463Y-15090108D02*
X13495415Y-15080584D01*
X13495415Y-15080584D02*
X13485891Y-15061536D01*
X13485891Y-15061536D02*
X13485891Y-15052012D01*
X13485891Y-15052012D02*
X13495415Y-15032965D01*
X13495415Y-15032965D02*
X13514463Y-15023441D01*
X13514463Y-15023441D02*
X13543034Y-15023441D01*
X13543034Y-15023441D02*
X13562082Y-15032965D01*
X13638272Y-15232965D02*
X13647796Y-15223441D01*
X13647796Y-15223441D02*
X13666844Y-15194869D01*
X13666844Y-15194869D02*
X13676368Y-15175822D01*
X13676368Y-15175822D02*
X13685891Y-15147250D01*
X13685891Y-15147250D02*
X13695415Y-15099631D01*
X13695415Y-15099631D02*
X13695415Y-15061536D01*
X13695415Y-15061536D02*
X13685891Y-15013917D01*
X13685891Y-15013917D02*
X13676368Y-14985346D01*
X13676368Y-14985346D02*
X13666844Y-14966298D01*
X13666844Y-14966298D02*
X13647796Y-14937727D01*
X13647796Y-14937727D02*
X13638272Y-14928203D01*
X14000177Y-15232965D02*
X13990653Y-15223441D01*
X13990653Y-15223441D02*
X13971606Y-15194869D01*
X13971606Y-15194869D02*
X13962082Y-15175822D01*
X13962082Y-15175822D02*
X13952558Y-15147250D01*
X13952558Y-15147250D02*
X13943034Y-15099631D01*
X13943034Y-15099631D02*
X13943034Y-15061536D01*
X13943034Y-15061536D02*
X13952558Y-15013917D01*
X13952558Y-15013917D02*
X13962082Y-14985346D01*
X13962082Y-14985346D02*
X13971606Y-14966298D01*
X13971606Y-14966298D02*
X13990653Y-14937727D01*
X13990653Y-14937727D02*
X14000177Y-14928203D01*
X14076368Y-15023441D02*
X14076368Y-15156774D01*
X14076368Y-15042488D02*
X14085891Y-15032965D01*
X14085891Y-15032965D02*
X14104939Y-15023441D01*
X14104939Y-15023441D02*
X14133511Y-15023441D01*
X14133511Y-15023441D02*
X14152558Y-15032965D01*
X14152558Y-15032965D02*
X14162082Y-15052012D01*
X14162082Y-15052012D02*
X14162082Y-15156774D01*
X14285891Y-15156774D02*
X14266844Y-15147250D01*
X14266844Y-15147250D02*
X14257320Y-15137727D01*
X14257320Y-15137727D02*
X14247796Y-15118679D01*
X14247796Y-15118679D02*
X14247796Y-15061536D01*
X14247796Y-15061536D02*
X14257320Y-15042488D01*
X14257320Y-15042488D02*
X14266844Y-15032965D01*
X14266844Y-15032965D02*
X14285891Y-15023441D01*
X14285891Y-15023441D02*
X14314463Y-15023441D01*
X14314463Y-15023441D02*
X14333511Y-15032965D01*
X14333511Y-15032965D02*
X14343034Y-15042488D01*
X14343034Y-15042488D02*
X14352558Y-15061536D01*
X14352558Y-15061536D02*
X14352558Y-15118679D01*
X14352558Y-15118679D02*
X14343034Y-15137727D01*
X14343034Y-15137727D02*
X14333511Y-15147250D01*
X14333511Y-15147250D02*
X14314463Y-15156774D01*
X14314463Y-15156774D02*
X14285891Y-15156774D01*
X14409701Y-15023441D02*
X14485891Y-15023441D01*
X14438272Y-14956774D02*
X14438272Y-15128203D01*
X14438272Y-15128203D02*
X14447796Y-15147250D01*
X14447796Y-15147250D02*
X14466844Y-15156774D01*
X14466844Y-15156774D02*
X14485891Y-15156774D01*
X14704939Y-15023441D02*
X14704939Y-15223441D01*
X14704939Y-15032965D02*
X14723987Y-15023441D01*
X14723987Y-15023441D02*
X14762082Y-15023441D01*
X14762082Y-15023441D02*
X14781130Y-15032965D01*
X14781130Y-15032965D02*
X14790653Y-15042488D01*
X14790653Y-15042488D02*
X14800177Y-15061536D01*
X14800177Y-15061536D02*
X14800177Y-15118679D01*
X14800177Y-15118679D02*
X14790653Y-15137727D01*
X14790653Y-15137727D02*
X14781130Y-15147250D01*
X14781130Y-15147250D02*
X14762082Y-15156774D01*
X14762082Y-15156774D02*
X14723987Y-15156774D01*
X14723987Y-15156774D02*
X14704939Y-15147250D01*
X14914463Y-15156774D02*
X14895415Y-15147250D01*
X14895415Y-15147250D02*
X14885892Y-15128203D01*
X14885892Y-15128203D02*
X14885892Y-14956774D01*
X15076368Y-15156774D02*
X15076368Y-15052012D01*
X15076368Y-15052012D02*
X15066844Y-15032965D01*
X15066844Y-15032965D02*
X15047796Y-15023441D01*
X15047796Y-15023441D02*
X15009701Y-15023441D01*
X15009701Y-15023441D02*
X14990653Y-15032965D01*
X15076368Y-15147250D02*
X15057320Y-15156774D01*
X15057320Y-15156774D02*
X15009701Y-15156774D01*
X15009701Y-15156774D02*
X14990653Y-15147250D01*
X14990653Y-15147250D02*
X14981130Y-15128203D01*
X14981130Y-15128203D02*
X14981130Y-15109155D01*
X14981130Y-15109155D02*
X14990653Y-15090108D01*
X14990653Y-15090108D02*
X15009701Y-15080584D01*
X15009701Y-15080584D02*
X15057320Y-15080584D01*
X15057320Y-15080584D02*
X15076368Y-15071060D01*
X15143034Y-15023441D02*
X15219225Y-15023441D01*
X15171606Y-14956774D02*
X15171606Y-15128203D01*
X15171606Y-15128203D02*
X15181130Y-15147250D01*
X15181130Y-15147250D02*
X15200177Y-15156774D01*
X15200177Y-15156774D02*
X15219225Y-15156774D01*
X15362082Y-15147250D02*
X15343034Y-15156774D01*
X15343034Y-15156774D02*
X15304939Y-15156774D01*
X15304939Y-15156774D02*
X15285892Y-15147250D01*
X15285892Y-15147250D02*
X15276368Y-15128203D01*
X15276368Y-15128203D02*
X15276368Y-15052012D01*
X15276368Y-15052012D02*
X15285892Y-15032965D01*
X15285892Y-15032965D02*
X15304939Y-15023441D01*
X15304939Y-15023441D02*
X15343034Y-15023441D01*
X15343034Y-15023441D02*
X15362082Y-15032965D01*
X15362082Y-15032965D02*
X15371606Y-15052012D01*
X15371606Y-15052012D02*
X15371606Y-15071060D01*
X15371606Y-15071060D02*
X15276368Y-15090108D01*
X15543034Y-15156774D02*
X15543034Y-14956774D01*
X15543034Y-15147250D02*
X15523987Y-15156774D01*
X15523987Y-15156774D02*
X15485892Y-15156774D01*
X15485892Y-15156774D02*
X15466844Y-15147250D01*
X15466844Y-15147250D02*
X15457320Y-15137727D01*
X15457320Y-15137727D02*
X15447796Y-15118679D01*
X15447796Y-15118679D02*
X15447796Y-15061536D01*
X15447796Y-15061536D02*
X15457320Y-15042488D01*
X15457320Y-15042488D02*
X15466844Y-15032965D01*
X15466844Y-15032965D02*
X15485892Y-15023441D01*
X15485892Y-15023441D02*
X15523987Y-15023441D01*
X15523987Y-15023441D02*
X15543034Y-15032965D01*
X15619225Y-15232965D02*
X15628749Y-15223441D01*
X15628749Y-15223441D02*
X15647796Y-15194869D01*
X15647796Y-15194869D02*
X15657320Y-15175822D01*
X15657320Y-15175822D02*
X15666844Y-15147250D01*
X15666844Y-15147250D02*
X15676368Y-15099631D01*
X15676368Y-15099631D02*
X15676368Y-15061536D01*
X15676368Y-15061536D02*
X15666844Y-15013917D01*
X15666844Y-15013917D02*
X15657320Y-14985346D01*
X15657320Y-14985346D02*
X15647796Y-14966298D01*
X15647796Y-14966298D02*
X15628749Y-14937727D01*
X15628749Y-14937727D02*
X15619225Y-14928203D01*
M02*
