%TF.GenerationSoftware,KiCad,Pcbnew,9.0.4*%
%TF.CreationDate,2025-09-18T03:32:36+09:00*%
%TF.ProjectId,CAN_Isolation_mini,43414e5f-4973-46f6-9c61-74696f6e5f6d,Ver.1.0*%
%TF.SameCoordinates,Original*%
%TF.FileFunction,Soldermask,Bot*%
%TF.FilePolarity,Negative*%
%FSLAX46Y46*%
G04 Gerber Fmt 4.6, Leading zero omitted, Abs format (unit mm)*
G04 Created by KiCad (PCBNEW 9.0.4) date 2025-09-18 03:32:36*
%MOMM*%
%LPD*%
G01*
G04 APERTURE LIST*
G04 Aperture macros list*
%AMRoundRect*
0 Rectangle with rounded corners*
0 $1 Rounding radius*
0 $2 $3 $4 $5 $6 $7 $8 $9 X,Y pos of 4 corners*
0 Add a 4 corners polygon primitive as box body*
4,1,4,$2,$3,$4,$5,$6,$7,$8,$9,$2,$3,0*
0 Add four circle primitives for the rounded corners*
1,1,$1+$1,$2,$3*
1,1,$1+$1,$4,$5*
1,1,$1+$1,$6,$7*
1,1,$1+$1,$8,$9*
0 Add four rect primitives between the rounded corners*
20,1,$1+$1,$2,$3,$4,$5,0*
20,1,$1+$1,$4,$5,$6,$7,0*
20,1,$1+$1,$6,$7,$8,$9,0*
20,1,$1+$1,$8,$9,$2,$3,0*%
G04 Aperture macros list end*
%ADD10C,3.200000*%
%ADD11R,1.700000X1.700000*%
%ADD12C,1.700000*%
%ADD13RoundRect,0.102000X-0.754000X0.754000X-0.754000X-0.754000X0.754000X-0.754000X0.754000X0.754000X0*%
%ADD14C,1.712000*%
%ADD15C,1.600000*%
%ADD16C,3.920000*%
%ADD17O,1.504000X2.804000*%
%ADD18R,1.397000X1.397000*%
%ADD19C,1.397000*%
G04 APERTURE END LIST*
D10*
%TO.C,REF\u002A\u002A*%
X143657095Y-72818000D03*
%TD*%
D11*
%TO.C,J6*%
X144810000Y-89500000D03*
D12*
X142270000Y-89500000D03*
X139730000Y-89500000D03*
X137190000Y-89500000D03*
%TD*%
D10*
%TO.C,REF\u002A\u002A*%
X93657095Y-122794905D03*
%TD*%
D11*
%TO.C,J3*%
X144810000Y-81880000D03*
D12*
X142270000Y-81880000D03*
X139730000Y-81880000D03*
X137190000Y-81880000D03*
%TD*%
D13*
%TO.C,J1*%
X97857095Y-93544905D03*
D14*
X97857095Y-96044905D03*
X97857095Y-98544905D03*
X97857095Y-101044905D03*
%TD*%
D11*
%TO.C,J8*%
X144810000Y-94580000D03*
D12*
X142270000Y-94580000D03*
X139730000Y-94580000D03*
X137190000Y-94580000D03*
%TD*%
D11*
%TO.C,J11*%
X144810000Y-102200000D03*
D12*
X142270000Y-102200000D03*
X139730000Y-102200000D03*
X137190000Y-102200000D03*
%TD*%
D11*
%TO.C,J17*%
X144810000Y-117440000D03*
D12*
X142270000Y-117440000D03*
X139730000Y-117440000D03*
X137190000Y-117440000D03*
%TD*%
D11*
%TO.C,J15*%
X144810000Y-112360000D03*
D12*
X142270000Y-112360000D03*
X139730000Y-112360000D03*
X137190000Y-112360000D03*
%TD*%
D11*
%TO.C,J13*%
X144810000Y-107280000D03*
D12*
X142270000Y-107280000D03*
X139730000Y-107280000D03*
X137190000Y-107280000D03*
%TD*%
D15*
%TO.C,R12*%
X103037095Y-117809000D03*
X110657095Y-117809000D03*
%TD*%
D16*
%TO.C,J21*%
X112801000Y-76327000D03*
X105601000Y-76327000D03*
D17*
X115951000Y-70327000D03*
X102451000Y-70327000D03*
%TD*%
D11*
%TO.C,J16*%
X144810000Y-114900000D03*
D12*
X142270000Y-114900000D03*
X139730000Y-114900000D03*
X137190000Y-114900000D03*
%TD*%
D11*
%TO.C,J7*%
X144810000Y-92040000D03*
D12*
X142270000Y-92040000D03*
X139730000Y-92040000D03*
X137190000Y-92040000D03*
%TD*%
D11*
%TO.C,J10*%
X144810000Y-99660000D03*
D12*
X142270000Y-99660000D03*
X139730000Y-99660000D03*
X137190000Y-99660000D03*
%TD*%
D10*
%TO.C,REF\u002A\u002A*%
X143657095Y-122794905D03*
%TD*%
D18*
%TO.C,U3*%
X108680095Y-93785000D03*
D19*
X111220095Y-93785000D03*
X116300095Y-93785000D03*
X121380095Y-93785000D03*
%TD*%
D18*
%TO.C,U4*%
X108680095Y-108285000D03*
D19*
X111220095Y-108285000D03*
X116300095Y-108285000D03*
X121380095Y-108285000D03*
%TD*%
D11*
%TO.C,J9*%
X144810000Y-97120000D03*
D12*
X142270000Y-97120000D03*
X139730000Y-97120000D03*
X137190000Y-97120000D03*
%TD*%
D18*
%TO.C,U7*%
X105608000Y-81741000D03*
D19*
X108148000Y-81741000D03*
X110688000Y-81741000D03*
X115768000Y-81741000D03*
X118308000Y-81741000D03*
X120848000Y-81741000D03*
X123388000Y-81741000D03*
%TD*%
D15*
%TO.C,R11*%
X110657095Y-122809000D03*
X103037095Y-122809000D03*
%TD*%
D10*
%TO.C,REF\u002A\u002A*%
X93657095Y-72825436D03*
%TD*%
D11*
%TO.C,J2*%
X144810000Y-79340000D03*
D12*
X142270000Y-79340000D03*
X139730000Y-79340000D03*
X137190000Y-79340000D03*
%TD*%
D11*
%TO.C,J5*%
X144810000Y-86960000D03*
D12*
X142270000Y-86960000D03*
X139730000Y-86960000D03*
X137190000Y-86960000D03*
%TD*%
D11*
%TO.C,J14*%
X144810000Y-109820000D03*
D12*
X142270000Y-109820000D03*
X139730000Y-109820000D03*
X137190000Y-109820000D03*
%TD*%
D11*
%TO.C,J4*%
X144810000Y-84420000D03*
D12*
X142270000Y-84420000D03*
X139730000Y-84420000D03*
X137190000Y-84420000D03*
%TD*%
D11*
%TO.C,J12*%
X144810000Y-104740000D03*
D12*
X142270000Y-104740000D03*
X139730000Y-104740000D03*
X137190000Y-104740000D03*
%TD*%
D16*
%TO.C,J22*%
X130835000Y-76358000D03*
X123635000Y-76358000D03*
D17*
X133985000Y-70358000D03*
X120485000Y-70358000D03*
%TD*%
M02*
