%TF.GenerationSoftware,KiCad,Pcbnew,9.0.4*%
%TF.CreationDate,2025-09-15T13:15:53+09:00*%
%TF.ProjectId,CAN_Isolation,43414e5f-4973-46f6-9c61-74696f6e2e6b,Ver.1.0*%
%TF.SameCoordinates,Original*%
%TF.FileFunction,Copper,L3,Inr*%
%TF.FilePolarity,Positive*%
%FSLAX46Y46*%
G04 Gerber Fmt 4.6, Leading zero omitted, Abs format (unit mm)*
G04 Created by KiCad (PCBNEW 9.0.4) date 2025-09-15 13:15:53*
%MOMM*%
%LPD*%
G01*
G04 APERTURE LIST*
%TA.AperFunction,ComponentPad*%
%ADD10R,1.700000X1.700000*%
%TD*%
%TA.AperFunction,ComponentPad*%
%ADD11C,1.700000*%
%TD*%
%TA.AperFunction,ComponentPad*%
%ADD12R,1.508000X1.508000*%
%TD*%
%TA.AperFunction,ComponentPad*%
%ADD13C,1.508000*%
%TD*%
%TA.AperFunction,ComponentPad*%
%ADD14C,1.600000*%
%TD*%
%TA.AperFunction,ComponentPad*%
%ADD15R,1.397000X1.397000*%
%TD*%
%TA.AperFunction,ComponentPad*%
%ADD16C,1.397000*%
%TD*%
%TA.AperFunction,ViaPad*%
%ADD17C,0.600000*%
%TD*%
%TA.AperFunction,Conductor*%
%ADD18C,1.200000*%
%TD*%
%TA.AperFunction,Conductor*%
%ADD19C,0.400000*%
%TD*%
G04 APERTURE END LIST*
D10*
%TO.N,unconnected-(J6-Pin_1-Pad1)*%
%TO.C,J6*%
X205157095Y-88934905D03*
D11*
%TO.N,unconnected-(J6-Pin_2-Pad2)*%
X202617095Y-88934905D03*
%TO.N,unconnected-(J6-Pin_3-Pad3)*%
X200077095Y-88934905D03*
%TO.N,unconnected-(J6-Pin_4-Pad4)*%
X197537095Y-88934905D03*
%TO.N,unconnected-(J6-Pin_5-Pad5)*%
X194997095Y-88934905D03*
%TO.N,unconnected-(J6-Pin_6-Pad6)*%
X192457095Y-88934905D03*
%TO.N,unconnected-(J6-Pin_7-Pad7)*%
X189917095Y-88934905D03*
%TO.N,unconnected-(J6-Pin_8-Pad8)*%
X187377095Y-88934905D03*
%TO.N,unconnected-(J6-Pin_9-Pad9)*%
X184837095Y-88934905D03*
%TO.N,unconnected-(J6-Pin_10-Pad10)*%
X182297095Y-88934905D03*
%TO.N,unconnected-(J6-Pin_11-Pad11)*%
X179757095Y-88934905D03*
%TO.N,unconnected-(J6-Pin_12-Pad12)*%
X177217095Y-88934905D03*
%TO.N,unconnected-(J6-Pin_13-Pad13)*%
X174677095Y-88934905D03*
%TO.N,unconnected-(J6-Pin_14-Pad14)*%
X172137095Y-88934905D03*
%TO.N,unconnected-(J6-Pin_15-Pad15)*%
X169597095Y-88934905D03*
%TO.N,unconnected-(J6-Pin_16-Pad16)*%
X167057095Y-88934905D03*
%TO.N,unconnected-(J6-Pin_17-Pad17)*%
X164517095Y-88934905D03*
%TO.N,unconnected-(J6-Pin_18-Pad18)*%
X161977095Y-88934905D03*
%TO.N,unconnected-(J6-Pin_19-Pad19)*%
X159437095Y-88934905D03*
%TO.N,unconnected-(J6-Pin_20-Pad20)*%
X156897095Y-88934905D03*
%TO.N,unconnected-(J6-Pin_21-Pad21)*%
X154357095Y-88934905D03*
%TO.N,unconnected-(J6-Pin_22-Pad22)*%
X151817095Y-88934905D03*
%TO.N,unconnected-(J6-Pin_23-Pad23)*%
X149277095Y-88934905D03*
%TO.N,unconnected-(J6-Pin_24-Pad24)*%
X146737095Y-88934905D03*
%TO.N,unconnected-(J6-Pin_25-Pad25)*%
X144197095Y-88934905D03*
%TO.N,unconnected-(J6-Pin_26-Pad26)*%
X141657095Y-88934905D03*
%TO.N,unconnected-(J6-Pin_27-Pad27)*%
X139117095Y-88934905D03*
%TO.N,unconnected-(J6-Pin_28-Pad28)*%
X136577095Y-88934905D03*
%TD*%
D10*
%TO.N,unconnected-(J3-Pin_1-Pad1)*%
%TO.C,J3*%
X205157095Y-81314905D03*
D11*
%TO.N,RF_ANTFLAG*%
X202617095Y-81314905D03*
%TO.N,RF_SHDN*%
X200077095Y-81314905D03*
%TO.N,RF_LD*%
X197537095Y-81314905D03*
%TO.N,RF_SDATA*%
X194997095Y-81314905D03*
%TO.N,RF_SCLK*%
X192457095Y-81314905D03*
%TO.N,RF_CS*%
X189917095Y-81314905D03*
%TO.N,RF_GNDA*%
X187377095Y-81314905D03*
%TO.N,RF_GND*%
X184837095Y-81314905D03*
%TO.N,RF_3.3V*%
X182297095Y-81314905D03*
%TO.N,unconnected-(J3-Pin_11-Pad11)*%
X179757095Y-81314905D03*
%TO.N,unconnected-(J3-Pin_12-Pad12)*%
X177217095Y-81314905D03*
%TO.N,unconnected-(J3-Pin_13-Pad13)*%
X174677095Y-81314905D03*
%TO.N,unconnected-(J3-Pin_14-Pad14)*%
X172137095Y-81314905D03*
%TO.N,unconnected-(J3-Pin_15-Pad15)*%
X169597095Y-81314905D03*
%TO.N,unconnected-(J3-Pin_16-Pad16)*%
X167057095Y-81314905D03*
%TO.N,unconnected-(J3-Pin_17-Pad17)*%
X164517095Y-81314905D03*
%TO.N,unconnected-(J3-Pin_18-Pad18)*%
X161977095Y-81314905D03*
%TO.N,unconnected-(J3-Pin_19-Pad19)*%
X159437095Y-81314905D03*
%TO.N,unconnected-(J3-Pin_20-Pad20)*%
X156897095Y-81314905D03*
%TO.N,unconnected-(J3-Pin_21-Pad21)*%
X154357095Y-81314905D03*
%TO.N,unconnected-(J3-Pin_22-Pad22)*%
X151817095Y-81314905D03*
%TO.N,unconnected-(J3-Pin_23-Pad23)*%
X149277095Y-81314905D03*
%TO.N,unconnected-(J3-Pin_24-Pad24)*%
X146737095Y-81314905D03*
%TO.N,unconnected-(J3-Pin_25-Pad25)*%
X144197095Y-81314905D03*
%TO.N,unconnected-(J3-Pin_26-Pad26)*%
X141657095Y-81314905D03*
%TO.N,unconnected-(J3-Pin_27-Pad27)*%
X139117095Y-81314905D03*
%TO.N,unconnected-(J3-Pin_28-Pad28)*%
X136577095Y-81314905D03*
%TD*%
D12*
%TO.N,BAT_12V*%
%TO.C,J1*%
X97857095Y-93544905D03*
D13*
%TO.N,CAN_H*%
X97857095Y-96044905D03*
%TO.N,CAN_L*%
X97857095Y-98544905D03*
%TO.N,BAT_GND*%
X97857095Y-101044905D03*
%TD*%
D10*
%TO.N,unconnected-(J8-Pin_1-Pad1)*%
%TO.C,J8*%
X205157095Y-94014905D03*
D11*
%TO.N,unconnected-(J8-Pin_2-Pad2)*%
X202617095Y-94014905D03*
%TO.N,unconnected-(J8-Pin_3-Pad3)*%
X200077095Y-94014905D03*
%TO.N,unconnected-(J8-Pin_4-Pad4)*%
X197537095Y-94014905D03*
%TO.N,unconnected-(J8-Pin_5-Pad5)*%
X194997095Y-94014905D03*
%TO.N,unconnected-(J8-Pin_6-Pad6)*%
X192457095Y-94014905D03*
%TO.N,unconnected-(J8-Pin_7-Pad7)*%
X189917095Y-94014905D03*
%TO.N,unconnected-(J8-Pin_8-Pad8)*%
X187377095Y-94014905D03*
%TO.N,unconnected-(J8-Pin_9-Pad9)*%
X184837095Y-94014905D03*
%TO.N,unconnected-(J8-Pin_10-Pad10)*%
X182297095Y-94014905D03*
%TO.N,unconnected-(J8-Pin_11-Pad11)*%
X179757095Y-94014905D03*
%TO.N,unconnected-(J8-Pin_12-Pad12)*%
X177217095Y-94014905D03*
%TO.N,unconnected-(J8-Pin_13-Pad13)*%
X174677095Y-94014905D03*
%TO.N,unconnected-(J8-Pin_14-Pad14)*%
X172137095Y-94014905D03*
%TO.N,unconnected-(J8-Pin_15-Pad15)*%
X169597095Y-94014905D03*
%TO.N,unconnected-(J8-Pin_16-Pad16)*%
X167057095Y-94014905D03*
%TO.N,unconnected-(J8-Pin_17-Pad17)*%
X164517095Y-94014905D03*
%TO.N,unconnected-(J8-Pin_18-Pad18)*%
X161977095Y-94014905D03*
%TO.N,unconnected-(J8-Pin_19-Pad19)*%
X159437095Y-94014905D03*
%TO.N,unconnected-(J8-Pin_20-Pad20)*%
X156897095Y-94014905D03*
%TO.N,unconnected-(J8-Pin_21-Pad21)*%
X154357095Y-94014905D03*
%TO.N,unconnected-(J8-Pin_22-Pad22)*%
X151817095Y-94014905D03*
%TO.N,unconnected-(J8-Pin_23-Pad23)*%
X149277095Y-94014905D03*
%TO.N,unconnected-(J8-Pin_24-Pad24)*%
X146737095Y-94014905D03*
%TO.N,unconnected-(J8-Pin_25-Pad25)*%
X144197095Y-94014905D03*
%TO.N,unconnected-(J8-Pin_26-Pad26)*%
X141657095Y-94014905D03*
%TO.N,unconnected-(J8-Pin_27-Pad27)*%
X139117095Y-94014905D03*
%TO.N,unconnected-(J8-Pin_28-Pad28)*%
X136577095Y-94014905D03*
%TD*%
D10*
%TO.N,unconnected-(J11-Pin_1-Pad1)*%
%TO.C,J11*%
X205157095Y-101634905D03*
D11*
%TO.N,unconnected-(J11-Pin_2-Pad2)*%
X202617095Y-101634905D03*
%TO.N,unconnected-(J11-Pin_3-Pad3)*%
X200077095Y-101634905D03*
%TO.N,unconnected-(J11-Pin_4-Pad4)*%
X197537095Y-101634905D03*
%TO.N,unconnected-(J11-Pin_5-Pad5)*%
X194997095Y-101634905D03*
%TO.N,unconnected-(J11-Pin_6-Pad6)*%
X192457095Y-101634905D03*
%TO.N,unconnected-(J11-Pin_7-Pad7)*%
X189917095Y-101634905D03*
%TO.N,unconnected-(J11-Pin_8-Pad8)*%
X187377095Y-101634905D03*
%TO.N,unconnected-(J11-Pin_9-Pad9)*%
X184837095Y-101634905D03*
%TO.N,unconnected-(J11-Pin_10-Pad10)*%
X182297095Y-101634905D03*
%TO.N,unconnected-(J11-Pin_11-Pad11)*%
X179757095Y-101634905D03*
%TO.N,unconnected-(J11-Pin_12-Pad12)*%
X177217095Y-101634905D03*
%TO.N,unconnected-(J11-Pin_13-Pad13)*%
X174677095Y-101634905D03*
%TO.N,unconnected-(J11-Pin_14-Pad14)*%
X172137095Y-101634905D03*
%TO.N,unconnected-(J11-Pin_15-Pad15)*%
X169597095Y-101634905D03*
%TO.N,unconnected-(J11-Pin_16-Pad16)*%
X167057095Y-101634905D03*
%TO.N,unconnected-(J11-Pin_17-Pad17)*%
X164517095Y-101634905D03*
%TO.N,unconnected-(J11-Pin_18-Pad18)*%
X161977095Y-101634905D03*
%TO.N,unconnected-(J11-Pin_19-Pad19)*%
X159437095Y-101634905D03*
%TO.N,unconnected-(J11-Pin_20-Pad20)*%
X156897095Y-101634905D03*
%TO.N,unconnected-(J11-Pin_21-Pad21)*%
X154357095Y-101634905D03*
%TO.N,unconnected-(J11-Pin_22-Pad22)*%
X151817095Y-101634905D03*
%TO.N,unconnected-(J11-Pin_23-Pad23)*%
X149277095Y-101634905D03*
%TO.N,unconnected-(J11-Pin_24-Pad24)*%
X146737095Y-101634905D03*
%TO.N,unconnected-(J11-Pin_25-Pad25)*%
X144197095Y-101634905D03*
%TO.N,unconnected-(J11-Pin_26-Pad26)*%
X141657095Y-101634905D03*
%TO.N,unconnected-(J11-Pin_27-Pad27)*%
X139117095Y-101634905D03*
%TO.N,unconnected-(J11-Pin_28-Pad28)*%
X136577095Y-101634905D03*
%TD*%
D10*
%TO.N,unconnected-(J17-Pin_1-Pad1)*%
%TO.C,J17*%
X205157095Y-116874905D03*
D11*
%TO.N,unconnected-(J17-Pin_2-Pad2)*%
X202617095Y-116874905D03*
%TO.N,unconnected-(J17-Pin_3-Pad3)*%
X200077095Y-116874905D03*
%TO.N,unconnected-(J17-Pin_4-Pad4)*%
X197537095Y-116874905D03*
%TO.N,unconnected-(J17-Pin_5-Pad5)*%
X194997095Y-116874905D03*
%TO.N,unconnected-(J17-Pin_6-Pad6)*%
X192457095Y-116874905D03*
%TO.N,unconnected-(J17-Pin_7-Pad7)*%
X189917095Y-116874905D03*
%TO.N,unconnected-(J17-Pin_8-Pad8)*%
X187377095Y-116874905D03*
%TO.N,unconnected-(J17-Pin_9-Pad9)*%
X184837095Y-116874905D03*
%TO.N,unconnected-(J17-Pin_10-Pad10)*%
X182297095Y-116874905D03*
%TO.N,unconnected-(J17-Pin_11-Pad11)*%
X179757095Y-116874905D03*
%TO.N,unconnected-(J17-Pin_12-Pad12)*%
X177217095Y-116874905D03*
%TO.N,unconnected-(J17-Pin_13-Pad13)*%
X174677095Y-116874905D03*
%TO.N,unconnected-(J17-Pin_14-Pad14)*%
X172137095Y-116874905D03*
%TO.N,unconnected-(J17-Pin_15-Pad15)*%
X169597095Y-116874905D03*
%TO.N,unconnected-(J17-Pin_16-Pad16)*%
X167057095Y-116874905D03*
%TO.N,unconnected-(J17-Pin_17-Pad17)*%
X164517095Y-116874905D03*
%TO.N,unconnected-(J17-Pin_18-Pad18)*%
X161977095Y-116874905D03*
%TO.N,unconnected-(J17-Pin_19-Pad19)*%
X159437095Y-116874905D03*
%TO.N,unconnected-(J17-Pin_20-Pad20)*%
X156897095Y-116874905D03*
%TO.N,unconnected-(J17-Pin_21-Pad21)*%
X154357095Y-116874905D03*
%TO.N,unconnected-(J17-Pin_22-Pad22)*%
X151817095Y-116874905D03*
%TO.N,unconnected-(J17-Pin_23-Pad23)*%
X149277095Y-116874905D03*
%TO.N,unconnected-(J17-Pin_24-Pad24)*%
X146737095Y-116874905D03*
%TO.N,unconnected-(J17-Pin_25-Pad25)*%
X144197095Y-116874905D03*
%TO.N,unconnected-(J17-Pin_26-Pad26)*%
X141657095Y-116874905D03*
%TO.N,unconnected-(J17-Pin_27-Pad27)*%
X139117095Y-116874905D03*
%TO.N,unconnected-(J17-Pin_28-Pad28)*%
X136577095Y-116874905D03*
%TD*%
D10*
%TO.N,unconnected-(J15-Pin_1-Pad1)*%
%TO.C,J15*%
X205157095Y-111794905D03*
D11*
%TO.N,unconnected-(J15-Pin_2-Pad2)*%
X202617095Y-111794905D03*
%TO.N,unconnected-(J15-Pin_3-Pad3)*%
X200077095Y-111794905D03*
%TO.N,unconnected-(J15-Pin_4-Pad4)*%
X197537095Y-111794905D03*
%TO.N,unconnected-(J15-Pin_5-Pad5)*%
X194997095Y-111794905D03*
%TO.N,unconnected-(J15-Pin_6-Pad6)*%
X192457095Y-111794905D03*
%TO.N,unconnected-(J15-Pin_7-Pad7)*%
X189917095Y-111794905D03*
%TO.N,unconnected-(J15-Pin_8-Pad8)*%
X187377095Y-111794905D03*
%TO.N,unconnected-(J15-Pin_9-Pad9)*%
X184837095Y-111794905D03*
%TO.N,unconnected-(J15-Pin_10-Pad10)*%
X182297095Y-111794905D03*
%TO.N,unconnected-(J15-Pin_11-Pad11)*%
X179757095Y-111794905D03*
%TO.N,unconnected-(J15-Pin_12-Pad12)*%
X177217095Y-111794905D03*
%TO.N,unconnected-(J15-Pin_13-Pad13)*%
X174677095Y-111794905D03*
%TO.N,unconnected-(J15-Pin_14-Pad14)*%
X172137095Y-111794905D03*
%TO.N,unconnected-(J15-Pin_15-Pad15)*%
X169597095Y-111794905D03*
%TO.N,unconnected-(J15-Pin_16-Pad16)*%
X167057095Y-111794905D03*
%TO.N,unconnected-(J15-Pin_17-Pad17)*%
X164517095Y-111794905D03*
%TO.N,unconnected-(J15-Pin_18-Pad18)*%
X161977095Y-111794905D03*
%TO.N,unconnected-(J15-Pin_19-Pad19)*%
X159437095Y-111794905D03*
%TO.N,unconnected-(J15-Pin_20-Pad20)*%
X156897095Y-111794905D03*
%TO.N,unconnected-(J15-Pin_21-Pad21)*%
X154357095Y-111794905D03*
%TO.N,unconnected-(J15-Pin_22-Pad22)*%
X151817095Y-111794905D03*
%TO.N,unconnected-(J15-Pin_23-Pad23)*%
X149277095Y-111794905D03*
%TO.N,unconnected-(J15-Pin_24-Pad24)*%
X146737095Y-111794905D03*
%TO.N,unconnected-(J15-Pin_25-Pad25)*%
X144197095Y-111794905D03*
%TO.N,unconnected-(J15-Pin_26-Pad26)*%
X141657095Y-111794905D03*
%TO.N,unconnected-(J15-Pin_27-Pad27)*%
X139117095Y-111794905D03*
%TO.N,unconnected-(J15-Pin_28-Pad28)*%
X136577095Y-111794905D03*
%TD*%
D10*
%TO.N,unconnected-(J13-Pin_1-Pad1)*%
%TO.C,J13*%
X205157095Y-106714905D03*
D11*
%TO.N,unconnected-(J13-Pin_2-Pad2)*%
X202617095Y-106714905D03*
%TO.N,unconnected-(J13-Pin_3-Pad3)*%
X200077095Y-106714905D03*
%TO.N,unconnected-(J13-Pin_4-Pad4)*%
X197537095Y-106714905D03*
%TO.N,unconnected-(J13-Pin_5-Pad5)*%
X194997095Y-106714905D03*
%TO.N,unconnected-(J13-Pin_6-Pad6)*%
X192457095Y-106714905D03*
%TO.N,unconnected-(J13-Pin_7-Pad7)*%
X189917095Y-106714905D03*
%TO.N,unconnected-(J13-Pin_8-Pad8)*%
X187377095Y-106714905D03*
%TO.N,+5VD*%
X184837095Y-106714905D03*
%TO.N,RF_GND*%
X182297095Y-106714905D03*
%TO.N,RF_IDEL*%
X179757095Y-106714905D03*
%TO.N,RF_LED*%
X177217095Y-106714905D03*
%TO.N,RF_I1*%
X174677095Y-106714905D03*
%TO.N,RF_I0*%
X172137095Y-106714905D03*
%TO.N,RF_Q0*%
X169597095Y-106714905D03*
%TO.N,RF_Q1*%
X167057095Y-106714905D03*
%TO.N,RF_CLKOUT*%
X164517095Y-106714905D03*
%TO.N,unconnected-(J13-Pin_18-Pad18)*%
X161977095Y-106714905D03*
%TO.N,unconnected-(J13-Pin_19-Pad19)*%
X159437095Y-106714905D03*
%TO.N,unconnected-(J13-Pin_20-Pad20)*%
X156897095Y-106714905D03*
%TO.N,unconnected-(J13-Pin_21-Pad21)*%
X154357095Y-106714905D03*
%TO.N,CAN_CLK*%
X151817095Y-106714905D03*
%TO.N,RF_GND*%
X149277095Y-106714905D03*
%TO.N,unconnected-(J13-Pin_24-Pad24)*%
X146737095Y-106714905D03*
%TO.N,CAN_CS*%
X144197095Y-106714905D03*
%TO.N,CAN_SDO*%
X141657095Y-106714905D03*
%TO.N,CAN_SDI*%
X139117095Y-106714905D03*
%TO.N,CAN_SCK*%
X136577095Y-106714905D03*
%TD*%
D14*
%TO.N,Net-(C12-Pad1)*%
%TO.C,R12*%
X103037095Y-114294905D03*
%TO.N,CAN_L*%
X110657095Y-114294905D03*
%TD*%
D10*
%TO.N,RF_3.3V*%
%TO.C,J16*%
X205157095Y-114334905D03*
D11*
%TO.N,RF_LED*%
X202617095Y-114334905D03*
%TO.N,RF_IDEL*%
X200077095Y-114334905D03*
%TO.N,RF_I1*%
X197537095Y-114334905D03*
%TO.N,RF_I0*%
X194997095Y-114334905D03*
%TO.N,RF_Q0*%
X192457095Y-114334905D03*
%TO.N,RF_Q1*%
X189917095Y-114334905D03*
%TO.N,RF_CLKOUT*%
X187377095Y-114334905D03*
%TO.N,RF_GND*%
X184837095Y-114334905D03*
%TO.N,RF_GNDA*%
X182297095Y-114334905D03*
%TO.N,unconnected-(J16-Pin_11-Pad11)*%
X179757095Y-114334905D03*
%TO.N,unconnected-(J16-Pin_12-Pad12)*%
X177217095Y-114334905D03*
%TO.N,unconnected-(J16-Pin_13-Pad13)*%
X174677095Y-114334905D03*
%TO.N,unconnected-(J16-Pin_14-Pad14)*%
X172137095Y-114334905D03*
%TO.N,unconnected-(J16-Pin_15-Pad15)*%
X169597095Y-114334905D03*
%TO.N,unconnected-(J16-Pin_16-Pad16)*%
X167057095Y-114334905D03*
%TO.N,unconnected-(J16-Pin_17-Pad17)*%
X164517095Y-114334905D03*
%TO.N,unconnected-(J16-Pin_18-Pad18)*%
X161977095Y-114334905D03*
%TO.N,unconnected-(J16-Pin_19-Pad19)*%
X159437095Y-114334905D03*
%TO.N,unconnected-(J16-Pin_20-Pad20)*%
X156897095Y-114334905D03*
%TO.N,unconnected-(J16-Pin_21-Pad21)*%
X154357095Y-114334905D03*
%TO.N,unconnected-(J16-Pin_22-Pad22)*%
X151817095Y-114334905D03*
%TO.N,unconnected-(J16-Pin_23-Pad23)*%
X149277095Y-114334905D03*
%TO.N,unconnected-(J16-Pin_24-Pad24)*%
X146737095Y-114334905D03*
%TO.N,unconnected-(J16-Pin_25-Pad25)*%
X144197095Y-114334905D03*
%TO.N,unconnected-(J16-Pin_26-Pad26)*%
X141657095Y-114334905D03*
%TO.N,unconnected-(J16-Pin_27-Pad27)*%
X139117095Y-114334905D03*
%TO.N,unconnected-(J16-Pin_28-Pad28)*%
X136577095Y-114334905D03*
%TD*%
D10*
%TO.N,unconnected-(J7-Pin_1-Pad1)*%
%TO.C,J7*%
X205157095Y-91474905D03*
D11*
%TO.N,unconnected-(J7-Pin_2-Pad2)*%
X202617095Y-91474905D03*
%TO.N,unconnected-(J7-Pin_3-Pad3)*%
X200077095Y-91474905D03*
%TO.N,unconnected-(J7-Pin_4-Pad4)*%
X197537095Y-91474905D03*
%TO.N,unconnected-(J7-Pin_5-Pad5)*%
X194997095Y-91474905D03*
%TO.N,unconnected-(J7-Pin_6-Pad6)*%
X192457095Y-91474905D03*
%TO.N,unconnected-(J7-Pin_7-Pad7)*%
X189917095Y-91474905D03*
%TO.N,unconnected-(J7-Pin_8-Pad8)*%
X187377095Y-91474905D03*
%TO.N,unconnected-(J7-Pin_9-Pad9)*%
X184837095Y-91474905D03*
%TO.N,unconnected-(J7-Pin_10-Pad10)*%
X182297095Y-91474905D03*
%TO.N,unconnected-(J7-Pin_11-Pad11)*%
X179757095Y-91474905D03*
%TO.N,unconnected-(J7-Pin_12-Pad12)*%
X177217095Y-91474905D03*
%TO.N,unconnected-(J7-Pin_13-Pad13)*%
X174677095Y-91474905D03*
%TO.N,unconnected-(J7-Pin_14-Pad14)*%
X172137095Y-91474905D03*
%TO.N,unconnected-(J7-Pin_15-Pad15)*%
X169597095Y-91474905D03*
%TO.N,unconnected-(J7-Pin_16-Pad16)*%
X167057095Y-91474905D03*
%TO.N,unconnected-(J7-Pin_17-Pad17)*%
X164517095Y-91474905D03*
%TO.N,unconnected-(J7-Pin_18-Pad18)*%
X161977095Y-91474905D03*
%TO.N,unconnected-(J7-Pin_19-Pad19)*%
X159437095Y-91474905D03*
%TO.N,unconnected-(J7-Pin_20-Pad20)*%
X156897095Y-91474905D03*
%TO.N,unconnected-(J7-Pin_21-Pad21)*%
X154357095Y-91474905D03*
%TO.N,unconnected-(J7-Pin_22-Pad22)*%
X151817095Y-91474905D03*
%TO.N,unconnected-(J7-Pin_23-Pad23)*%
X149277095Y-91474905D03*
%TO.N,unconnected-(J7-Pin_24-Pad24)*%
X146737095Y-91474905D03*
%TO.N,unconnected-(J7-Pin_25-Pad25)*%
X144197095Y-91474905D03*
%TO.N,unconnected-(J7-Pin_26-Pad26)*%
X141657095Y-91474905D03*
%TO.N,unconnected-(J7-Pin_27-Pad27)*%
X139117095Y-91474905D03*
%TO.N,unconnected-(J7-Pin_28-Pad28)*%
X136577095Y-91474905D03*
%TD*%
D10*
%TO.N,unconnected-(J10-Pin_1-Pad1)*%
%TO.C,J10*%
X205157095Y-99094905D03*
D11*
%TO.N,unconnected-(J10-Pin_2-Pad2)*%
X202617095Y-99094905D03*
%TO.N,unconnected-(J10-Pin_3-Pad3)*%
X200077095Y-99094905D03*
%TO.N,unconnected-(J10-Pin_4-Pad4)*%
X197537095Y-99094905D03*
%TO.N,unconnected-(J10-Pin_5-Pad5)*%
X194997095Y-99094905D03*
%TO.N,unconnected-(J10-Pin_6-Pad6)*%
X192457095Y-99094905D03*
%TO.N,unconnected-(J10-Pin_7-Pad7)*%
X189917095Y-99094905D03*
%TO.N,unconnected-(J10-Pin_8-Pad8)*%
X187377095Y-99094905D03*
%TO.N,unconnected-(J10-Pin_9-Pad9)*%
X184837095Y-99094905D03*
%TO.N,unconnected-(J10-Pin_10-Pad10)*%
X182297095Y-99094905D03*
%TO.N,unconnected-(J10-Pin_11-Pad11)*%
X179757095Y-99094905D03*
%TO.N,unconnected-(J10-Pin_12-Pad12)*%
X177217095Y-99094905D03*
%TO.N,unconnected-(J10-Pin_13-Pad13)*%
X174677095Y-99094905D03*
%TO.N,unconnected-(J10-Pin_14-Pad14)*%
X172137095Y-99094905D03*
%TO.N,unconnected-(J10-Pin_15-Pad15)*%
X169597095Y-99094905D03*
%TO.N,unconnected-(J10-Pin_16-Pad16)*%
X167057095Y-99094905D03*
%TO.N,unconnected-(J10-Pin_17-Pad17)*%
X164517095Y-99094905D03*
%TO.N,unconnected-(J10-Pin_18-Pad18)*%
X161977095Y-99094905D03*
%TO.N,unconnected-(J10-Pin_19-Pad19)*%
X159437095Y-99094905D03*
%TO.N,unconnected-(J10-Pin_20-Pad20)*%
X156897095Y-99094905D03*
%TO.N,unconnected-(J10-Pin_21-Pad21)*%
X154357095Y-99094905D03*
%TO.N,unconnected-(J10-Pin_22-Pad22)*%
X151817095Y-99094905D03*
%TO.N,unconnected-(J10-Pin_23-Pad23)*%
X149277095Y-99094905D03*
%TO.N,unconnected-(J10-Pin_24-Pad24)*%
X146737095Y-99094905D03*
%TO.N,unconnected-(J10-Pin_25-Pad25)*%
X144197095Y-99094905D03*
%TO.N,unconnected-(J10-Pin_26-Pad26)*%
X141657095Y-99094905D03*
%TO.N,unconnected-(J10-Pin_27-Pad27)*%
X139117095Y-99094905D03*
%TO.N,unconnected-(J10-Pin_28-Pad28)*%
X136577095Y-99094905D03*
%TD*%
D15*
%TO.N,BAT_GND*%
%TO.C,U3*%
X108680095Y-90270905D03*
D16*
%TO.N,BAT_12V*%
X111220095Y-90270905D03*
%TO.N,RF_3.3V*%
X116300095Y-90270905D03*
%TO.N,RF_GND*%
X121380095Y-90270905D03*
%TD*%
D15*
%TO.N,BAT_GND*%
%TO.C,U4*%
X108680095Y-104770905D03*
D16*
%TO.N,BAT_12V*%
X111220095Y-104770905D03*
%TO.N,+5VCAN*%
X116300095Y-104770905D03*
%TO.N,GND_5VCAN*%
X121380095Y-104770905D03*
%TD*%
D10*
%TO.N,unconnected-(J9-Pin_1-Pad1)*%
%TO.C,J9*%
X205157095Y-96554905D03*
D11*
%TO.N,unconnected-(J9-Pin_2-Pad2)*%
X202617095Y-96554905D03*
%TO.N,unconnected-(J9-Pin_3-Pad3)*%
X200077095Y-96554905D03*
%TO.N,unconnected-(J9-Pin_4-Pad4)*%
X197537095Y-96554905D03*
%TO.N,unconnected-(J9-Pin_5-Pad5)*%
X194997095Y-96554905D03*
%TO.N,unconnected-(J9-Pin_6-Pad6)*%
X192457095Y-96554905D03*
%TO.N,unconnected-(J9-Pin_7-Pad7)*%
X189917095Y-96554905D03*
%TO.N,unconnected-(J9-Pin_8-Pad8)*%
X187377095Y-96554905D03*
%TO.N,unconnected-(J9-Pin_9-Pad9)*%
X184837095Y-96554905D03*
%TO.N,unconnected-(J9-Pin_10-Pad10)*%
X182297095Y-96554905D03*
%TO.N,unconnected-(J9-Pin_11-Pad11)*%
X179757095Y-96554905D03*
%TO.N,unconnected-(J9-Pin_12-Pad12)*%
X177217095Y-96554905D03*
%TO.N,unconnected-(J9-Pin_13-Pad13)*%
X174677095Y-96554905D03*
%TO.N,unconnected-(J9-Pin_14-Pad14)*%
X172137095Y-96554905D03*
%TO.N,unconnected-(J9-Pin_15-Pad15)*%
X169597095Y-96554905D03*
%TO.N,unconnected-(J9-Pin_16-Pad16)*%
X167057095Y-96554905D03*
%TO.N,unconnected-(J9-Pin_17-Pad17)*%
X164517095Y-96554905D03*
%TO.N,unconnected-(J9-Pin_18-Pad18)*%
X161977095Y-96554905D03*
%TO.N,unconnected-(J9-Pin_19-Pad19)*%
X159437095Y-96554905D03*
%TO.N,unconnected-(J9-Pin_20-Pad20)*%
X156897095Y-96554905D03*
%TO.N,unconnected-(J9-Pin_21-Pad21)*%
X154357095Y-96554905D03*
%TO.N,unconnected-(J9-Pin_22-Pad22)*%
X151817095Y-96554905D03*
%TO.N,unconnected-(J9-Pin_23-Pad23)*%
X149277095Y-96554905D03*
%TO.N,unconnected-(J9-Pin_24-Pad24)*%
X146737095Y-96554905D03*
%TO.N,unconnected-(J9-Pin_25-Pad25)*%
X144197095Y-96554905D03*
%TO.N,unconnected-(J9-Pin_26-Pad26)*%
X141657095Y-96554905D03*
%TO.N,unconnected-(J9-Pin_27-Pad27)*%
X139117095Y-96554905D03*
%TO.N,unconnected-(J9-Pin_28-Pad28)*%
X136577095Y-96554905D03*
%TD*%
D14*
%TO.N,CAN_H*%
%TO.C,R11*%
X110657095Y-119294905D03*
%TO.N,Net-(C12-Pad1)*%
X103037095Y-119294905D03*
%TD*%
D10*
%TO.N,unconnected-(J2-Pin_1-Pad1)*%
%TO.C,J2*%
X205157095Y-78774905D03*
D11*
%TO.N,unconnected-(J2-Pin_2-Pad2)*%
X202617095Y-78774905D03*
%TO.N,unconnected-(J2-Pin_3-Pad3)*%
X200077095Y-78774905D03*
%TO.N,unconnected-(J2-Pin_4-Pad4)*%
X197537095Y-78774905D03*
%TO.N,unconnected-(J2-Pin_5-Pad5)*%
X194997095Y-78774905D03*
%TO.N,unconnected-(J2-Pin_6-Pad6)*%
X192457095Y-78774905D03*
%TO.N,unconnected-(J2-Pin_7-Pad7)*%
X189917095Y-78774905D03*
%TO.N,unconnected-(J2-Pin_8-Pad8)*%
X187377095Y-78774905D03*
%TO.N,unconnected-(J2-Pin_9-Pad9)*%
X184837095Y-78774905D03*
%TO.N,unconnected-(J2-Pin_10-Pad10)*%
X182297095Y-78774905D03*
%TO.N,unconnected-(J2-Pin_11-Pad11)*%
X179757095Y-78774905D03*
%TO.N,unconnected-(J2-Pin_12-Pad12)*%
X177217095Y-78774905D03*
%TO.N,unconnected-(J2-Pin_13-Pad13)*%
X174677095Y-78774905D03*
%TO.N,unconnected-(J2-Pin_14-Pad14)*%
X172137095Y-78774905D03*
%TO.N,unconnected-(J2-Pin_15-Pad15)*%
X169597095Y-78774905D03*
%TO.N,unconnected-(J2-Pin_16-Pad16)*%
X167057095Y-78774905D03*
%TO.N,unconnected-(J2-Pin_17-Pad17)*%
X164517095Y-78774905D03*
%TO.N,unconnected-(J2-Pin_18-Pad18)*%
X161977095Y-78774905D03*
%TO.N,unconnected-(J2-Pin_19-Pad19)*%
X159437095Y-78774905D03*
%TO.N,unconnected-(J2-Pin_20-Pad20)*%
X156897095Y-78774905D03*
%TO.N,unconnected-(J2-Pin_21-Pad21)*%
X154357095Y-78774905D03*
%TO.N,unconnected-(J2-Pin_22-Pad22)*%
X151817095Y-78774905D03*
%TO.N,unconnected-(J2-Pin_23-Pad23)*%
X149277095Y-78774905D03*
%TO.N,unconnected-(J2-Pin_24-Pad24)*%
X146737095Y-78774905D03*
%TO.N,unconnected-(J2-Pin_25-Pad25)*%
X144197095Y-78774905D03*
%TO.N,unconnected-(J2-Pin_26-Pad26)*%
X141657095Y-78774905D03*
%TO.N,unconnected-(J2-Pin_27-Pad27)*%
X139117095Y-78774905D03*
%TO.N,unconnected-(J2-Pin_28-Pad28)*%
X136577095Y-78774905D03*
%TD*%
D10*
%TO.N,unconnected-(J5-Pin_1-Pad1)*%
%TO.C,J5*%
X205157095Y-86394905D03*
D11*
%TO.N,unconnected-(J5-Pin_2-Pad2)*%
X202617095Y-86394905D03*
%TO.N,unconnected-(J5-Pin_3-Pad3)*%
X200077095Y-86394905D03*
%TO.N,unconnected-(J5-Pin_4-Pad4)*%
X197537095Y-86394905D03*
%TO.N,unconnected-(J5-Pin_5-Pad5)*%
X194997095Y-86394905D03*
%TO.N,unconnected-(J5-Pin_6-Pad6)*%
X192457095Y-86394905D03*
%TO.N,unconnected-(J5-Pin_7-Pad7)*%
X189917095Y-86394905D03*
%TO.N,unconnected-(J5-Pin_8-Pad8)*%
X187377095Y-86394905D03*
%TO.N,RF_LD*%
X184837095Y-86394905D03*
%TO.N,RF_SHDN*%
X182297095Y-86394905D03*
%TO.N,RF_ANTFLAG*%
X179757095Y-86394905D03*
%TO.N,unconnected-(J5-Pin_12-Pad12)*%
X177217095Y-86394905D03*
%TO.N,unconnected-(J5-Pin_13-Pad13)*%
X174677095Y-86394905D03*
%TO.N,unconnected-(J5-Pin_14-Pad14)*%
X172137095Y-86394905D03*
%TO.N,unconnected-(J5-Pin_15-Pad15)*%
X169597095Y-86394905D03*
%TO.N,RF_SDATA*%
X167057095Y-86394905D03*
%TO.N,RF_SCLK*%
X164517095Y-86394905D03*
%TO.N,RF_CS*%
X161977095Y-86394905D03*
%TO.N,CAN_LED*%
X159437095Y-86394905D03*
%TO.N,CAN_GPIO0*%
X156897095Y-86394905D03*
%TO.N,CAN_GPIO1*%
X154357095Y-86394905D03*
%TO.N,CAN_INT*%
X151817095Y-86394905D03*
%TO.N,unconnected-(J5-Pin_23-Pad23)*%
X149277095Y-86394905D03*
%TO.N,unconnected-(J5-Pin_24-Pad24)*%
X146737095Y-86394905D03*
%TO.N,unconnected-(J5-Pin_25-Pad25)*%
X144197095Y-86394905D03*
%TO.N,unconnected-(J5-Pin_26-Pad26)*%
X141657095Y-86394905D03*
%TO.N,unconnected-(J5-Pin_27-Pad27)*%
X139117095Y-86394905D03*
%TO.N,RF_GND*%
X136577095Y-86394905D03*
%TD*%
D10*
%TO.N,unconnected-(J14-Pin_1-Pad1)*%
%TO.C,J14*%
X205157095Y-109254905D03*
D11*
%TO.N,unconnected-(J14-Pin_2-Pad2)*%
X202617095Y-109254905D03*
%TO.N,unconnected-(J14-Pin_3-Pad3)*%
X200077095Y-109254905D03*
%TO.N,unconnected-(J14-Pin_4-Pad4)*%
X197537095Y-109254905D03*
%TO.N,unconnected-(J14-Pin_5-Pad5)*%
X194997095Y-109254905D03*
%TO.N,unconnected-(J14-Pin_6-Pad6)*%
X192457095Y-109254905D03*
%TO.N,unconnected-(J14-Pin_7-Pad7)*%
X189917095Y-109254905D03*
%TO.N,unconnected-(J14-Pin_8-Pad8)*%
X187377095Y-109254905D03*
%TO.N,unconnected-(J14-Pin_9-Pad9)*%
X184837095Y-109254905D03*
%TO.N,unconnected-(J14-Pin_10-Pad10)*%
X182297095Y-109254905D03*
%TO.N,unconnected-(J14-Pin_11-Pad11)*%
X179757095Y-109254905D03*
%TO.N,unconnected-(J14-Pin_12-Pad12)*%
X177217095Y-109254905D03*
%TO.N,unconnected-(J14-Pin_13-Pad13)*%
X174677095Y-109254905D03*
%TO.N,unconnected-(J14-Pin_14-Pad14)*%
X172137095Y-109254905D03*
%TO.N,unconnected-(J14-Pin_15-Pad15)*%
X169597095Y-109254905D03*
%TO.N,unconnected-(J14-Pin_16-Pad16)*%
X167057095Y-109254905D03*
%TO.N,unconnected-(J14-Pin_17-Pad17)*%
X164517095Y-109254905D03*
%TO.N,unconnected-(J14-Pin_18-Pad18)*%
X161977095Y-109254905D03*
%TO.N,unconnected-(J14-Pin_19-Pad19)*%
X159437095Y-109254905D03*
%TO.N,unconnected-(J14-Pin_20-Pad20)*%
X156897095Y-109254905D03*
%TO.N,unconnected-(J14-Pin_21-Pad21)*%
X154357095Y-109254905D03*
%TO.N,unconnected-(J14-Pin_22-Pad22)*%
X151817095Y-109254905D03*
%TO.N,unconnected-(J14-Pin_23-Pad23)*%
X149277095Y-109254905D03*
%TO.N,unconnected-(J14-Pin_24-Pad24)*%
X146737095Y-109254905D03*
%TO.N,unconnected-(J14-Pin_25-Pad25)*%
X144197095Y-109254905D03*
%TO.N,unconnected-(J14-Pin_26-Pad26)*%
X141657095Y-109254905D03*
%TO.N,unconnected-(J14-Pin_27-Pad27)*%
X139117095Y-109254905D03*
%TO.N,unconnected-(J14-Pin_28-Pad28)*%
X136577095Y-109254905D03*
%TD*%
D10*
%TO.N,unconnected-(J4-Pin_1-Pad1)*%
%TO.C,J4*%
X205157095Y-83854905D03*
D11*
%TO.N,unconnected-(J4-Pin_2-Pad2)*%
X202617095Y-83854905D03*
%TO.N,unconnected-(J4-Pin_3-Pad3)*%
X200077095Y-83854905D03*
%TO.N,unconnected-(J4-Pin_4-Pad4)*%
X197537095Y-83854905D03*
%TO.N,unconnected-(J4-Pin_5-Pad5)*%
X194997095Y-83854905D03*
%TO.N,unconnected-(J4-Pin_6-Pad6)*%
X192457095Y-83854905D03*
%TO.N,unconnected-(J4-Pin_7-Pad7)*%
X189917095Y-83854905D03*
%TO.N,unconnected-(J4-Pin_8-Pad8)*%
X187377095Y-83854905D03*
%TO.N,unconnected-(J4-Pin_9-Pad9)*%
X184837095Y-83854905D03*
%TO.N,unconnected-(J4-Pin_10-Pad10)*%
X182297095Y-83854905D03*
%TO.N,unconnected-(J4-Pin_11-Pad11)*%
X179757095Y-83854905D03*
%TO.N,unconnected-(J4-Pin_12-Pad12)*%
X177217095Y-83854905D03*
%TO.N,unconnected-(J4-Pin_13-Pad13)*%
X174677095Y-83854905D03*
%TO.N,unconnected-(J4-Pin_14-Pad14)*%
X172137095Y-83854905D03*
%TO.N,unconnected-(J4-Pin_15-Pad15)*%
X169597095Y-83854905D03*
%TO.N,unconnected-(J4-Pin_16-Pad16)*%
X167057095Y-83854905D03*
%TO.N,unconnected-(J4-Pin_17-Pad17)*%
X164517095Y-83854905D03*
%TO.N,unconnected-(J4-Pin_18-Pad18)*%
X161977095Y-83854905D03*
%TO.N,unconnected-(J4-Pin_19-Pad19)*%
X159437095Y-83854905D03*
%TO.N,unconnected-(J4-Pin_20-Pad20)*%
X156897095Y-83854905D03*
%TO.N,unconnected-(J4-Pin_21-Pad21)*%
X154357095Y-83854905D03*
%TO.N,unconnected-(J4-Pin_22-Pad22)*%
X151817095Y-83854905D03*
%TO.N,unconnected-(J4-Pin_23-Pad23)*%
X149277095Y-83854905D03*
%TO.N,unconnected-(J4-Pin_24-Pad24)*%
X146737095Y-83854905D03*
%TO.N,unconnected-(J4-Pin_25-Pad25)*%
X144197095Y-83854905D03*
%TO.N,unconnected-(J4-Pin_26-Pad26)*%
X141657095Y-83854905D03*
%TO.N,unconnected-(J4-Pin_27-Pad27)*%
X139117095Y-83854905D03*
%TO.N,unconnected-(J4-Pin_28-Pad28)*%
X136577095Y-83854905D03*
%TD*%
D10*
%TO.N,unconnected-(J12-Pin_1-Pad1)*%
%TO.C,J12*%
X205157095Y-104174905D03*
D11*
%TO.N,unconnected-(J12-Pin_2-Pad2)*%
X202617095Y-104174905D03*
%TO.N,unconnected-(J12-Pin_3-Pad3)*%
X200077095Y-104174905D03*
%TO.N,unconnected-(J12-Pin_4-Pad4)*%
X197537095Y-104174905D03*
%TO.N,unconnected-(J12-Pin_5-Pad5)*%
X194997095Y-104174905D03*
%TO.N,unconnected-(J12-Pin_6-Pad6)*%
X192457095Y-104174905D03*
%TO.N,unconnected-(J12-Pin_7-Pad7)*%
X189917095Y-104174905D03*
%TO.N,unconnected-(J12-Pin_8-Pad8)*%
X187377095Y-104174905D03*
%TO.N,unconnected-(J12-Pin_9-Pad9)*%
X184837095Y-104174905D03*
%TO.N,unconnected-(J12-Pin_10-Pad10)*%
X182297095Y-104174905D03*
%TO.N,unconnected-(J12-Pin_11-Pad11)*%
X179757095Y-104174905D03*
%TO.N,unconnected-(J12-Pin_12-Pad12)*%
X177217095Y-104174905D03*
%TO.N,unconnected-(J12-Pin_13-Pad13)*%
X174677095Y-104174905D03*
%TO.N,unconnected-(J12-Pin_14-Pad14)*%
X172137095Y-104174905D03*
%TO.N,unconnected-(J12-Pin_15-Pad15)*%
X169597095Y-104174905D03*
%TO.N,unconnected-(J12-Pin_16-Pad16)*%
X167057095Y-104174905D03*
%TO.N,unconnected-(J12-Pin_17-Pad17)*%
X164517095Y-104174905D03*
%TO.N,unconnected-(J12-Pin_18-Pad18)*%
X161977095Y-104174905D03*
%TO.N,unconnected-(J12-Pin_19-Pad19)*%
X159437095Y-104174905D03*
%TO.N,unconnected-(J12-Pin_20-Pad20)*%
X156897095Y-104174905D03*
%TO.N,unconnected-(J12-Pin_21-Pad21)*%
X154357095Y-104174905D03*
%TO.N,unconnected-(J12-Pin_22-Pad22)*%
X151817095Y-104174905D03*
%TO.N,unconnected-(J12-Pin_23-Pad23)*%
X149277095Y-104174905D03*
%TO.N,unconnected-(J12-Pin_24-Pad24)*%
X146737095Y-104174905D03*
%TO.N,unconnected-(J12-Pin_25-Pad25)*%
X144197095Y-104174905D03*
%TO.N,unconnected-(J12-Pin_26-Pad26)*%
X141657095Y-104174905D03*
%TO.N,unconnected-(J12-Pin_27-Pad27)*%
X139117095Y-104174905D03*
%TO.N,unconnected-(J12-Pin_28-Pad28)*%
X136577095Y-104174905D03*
%TD*%
D17*
%TO.N,BAT_GND*%
X110657095Y-94270905D03*
X109657095Y-99294905D03*
X107657095Y-92294905D03*
X111657095Y-94294905D03*
X106657095Y-98294905D03*
X99157095Y-101294905D03*
X108657095Y-95294905D03*
X107657095Y-90294905D03*
X106657095Y-95294905D03*
X106657095Y-94294905D03*
X109657095Y-95294905D03*
X107657095Y-97294905D03*
X108657095Y-100294905D03*
X99157095Y-102294905D03*
X108657095Y-92294905D03*
X95657095Y-100294905D03*
X109657095Y-102294905D03*
X108657095Y-93294905D03*
X107657095Y-103294905D03*
X100157095Y-100294905D03*
X106657095Y-90294905D03*
X109657095Y-101294905D03*
X107657095Y-93294905D03*
X96657095Y-103294905D03*
X97657095Y-102294905D03*
X106657095Y-97294905D03*
X108657095Y-102294905D03*
X108657095Y-103294905D03*
X110657095Y-97294905D03*
X110657095Y-93294905D03*
X95657095Y-103294905D03*
X108657095Y-96294905D03*
X111657095Y-99294905D03*
X95657095Y-101294905D03*
X110657095Y-100294905D03*
X96657095Y-102294905D03*
X111657095Y-100294905D03*
X109657095Y-100294905D03*
X111657095Y-93294905D03*
X107657095Y-99294905D03*
X108657095Y-98294905D03*
X108657095Y-97294905D03*
X109657095Y-98294905D03*
X110657095Y-95294905D03*
X107657095Y-95294905D03*
X99157095Y-100294905D03*
X106657095Y-100294905D03*
X111657095Y-95294905D03*
X96657095Y-100294905D03*
X108657095Y-94294905D03*
X111657095Y-102294905D03*
X108657095Y-101294905D03*
X107657095Y-100294905D03*
X106657095Y-92294905D03*
X109657095Y-93294905D03*
X109657095Y-92294905D03*
X100157095Y-101294905D03*
X109657095Y-103294905D03*
X107657095Y-101294905D03*
X111657095Y-92294905D03*
X107657095Y-102294905D03*
X109657095Y-97294905D03*
X110657095Y-101294905D03*
X110657095Y-99294905D03*
X96657095Y-101294905D03*
X110657095Y-92294905D03*
X99157095Y-103294905D03*
X110657095Y-96294905D03*
X107657095Y-98294905D03*
X109657095Y-94294905D03*
X95657095Y-102294905D03*
X111657095Y-103294905D03*
X106657095Y-102294905D03*
X110657095Y-102294905D03*
X111657095Y-98294905D03*
X110657095Y-98294905D03*
X106657095Y-99294905D03*
X107657095Y-94294905D03*
X111657095Y-101294905D03*
X108657095Y-99294905D03*
X111657095Y-97294905D03*
X106657095Y-101294905D03*
X106657095Y-103294905D03*
X109657095Y-96294905D03*
X100157095Y-103294905D03*
X107657095Y-91294905D03*
X110657095Y-103294905D03*
X106657095Y-96294905D03*
X97657095Y-103294905D03*
X111657095Y-96294905D03*
X106657095Y-93294905D03*
X107657095Y-96294905D03*
X100157095Y-102294905D03*
X106657095Y-91294905D03*
%TO.N,RF_GND*%
X122157095Y-92794905D03*
X119157095Y-93794905D03*
X121157095Y-87794905D03*
X123157095Y-93794905D03*
X127657095Y-115794905D03*
X122157095Y-88794905D03*
X118157095Y-91794905D03*
X126657095Y-116794905D03*
X120157095Y-92794905D03*
X130157095Y-101294905D03*
X128657095Y-115794905D03*
X128657095Y-100294905D03*
X122157095Y-93794905D03*
X121157095Y-91794905D03*
X128157095Y-100794905D03*
X123157095Y-89794905D03*
X127657095Y-114794905D03*
X126657095Y-115794905D03*
X128157095Y-99794905D03*
X127657095Y-112794905D03*
X120157095Y-87794905D03*
X126657095Y-110794905D03*
X127657095Y-100294905D03*
X100159095Y-82885906D03*
X120157095Y-88794905D03*
X119157095Y-89794905D03*
X123157095Y-88794905D03*
X127657095Y-116794905D03*
X119157095Y-90794905D03*
X127657095Y-110794905D03*
X119157095Y-92794905D03*
X118157095Y-88794905D03*
X122157095Y-87794905D03*
X121157095Y-93794905D03*
X118157095Y-89794905D03*
X127657095Y-111794905D03*
X127657095Y-113794905D03*
X118157095Y-92794905D03*
X122157095Y-91794905D03*
X119157095Y-91794905D03*
X121157095Y-88794905D03*
X123157095Y-92794905D03*
X126657095Y-112794905D03*
X118157095Y-90794905D03*
X126657095Y-113794905D03*
X123157095Y-91794905D03*
X120157095Y-90794905D03*
X127657095Y-117794905D03*
X120157095Y-91794905D03*
X121157095Y-92794905D03*
X126657095Y-111794905D03*
X118157095Y-87794905D03*
X128657095Y-117794905D03*
X120157095Y-93794905D03*
X119157095Y-88794905D03*
X129157095Y-101294905D03*
X123157095Y-87794905D03*
X126657095Y-117794905D03*
X119157095Y-87794905D03*
X128657095Y-116794905D03*
X126657095Y-114794905D03*
X123157095Y-90794905D03*
X120157095Y-89794905D03*
%TO.N,RF_3.3V*%
X127157095Y-81794905D03*
X93657095Y-84294905D03*
%TO.N,GND_5VCAN*%
X120157095Y-107294905D03*
X113157095Y-114294905D03*
X111157095Y-109294905D03*
X118157095Y-114294905D03*
X97657095Y-114294905D03*
X115157095Y-109294905D03*
X96657095Y-109294905D03*
X107157095Y-110294905D03*
X116157095Y-108294905D03*
X95657095Y-111294905D03*
X122157095Y-106294905D03*
X97657095Y-113294905D03*
X122157095Y-111294905D03*
X97657095Y-117294905D03*
X120157095Y-109294905D03*
X93657095Y-113294905D03*
X95657095Y-112294905D03*
X97657095Y-108294905D03*
X121157095Y-106294905D03*
X117157095Y-109294905D03*
X108157095Y-109294905D03*
X118157095Y-111294905D03*
X94657095Y-110294905D03*
X122157095Y-107294905D03*
X118157095Y-112294905D03*
X108157095Y-110294905D03*
X118157095Y-102294905D03*
X120157095Y-102294905D03*
X97657095Y-109294905D03*
X106157095Y-109294905D03*
X113157095Y-112294905D03*
X122157095Y-110294905D03*
X95657095Y-114294905D03*
X113157095Y-109294905D03*
X96657095Y-110294905D03*
X97657095Y-106294905D03*
X96657095Y-115294905D03*
X96657095Y-113294905D03*
X103157095Y-109294905D03*
X119157095Y-113294905D03*
X119157095Y-102294905D03*
X96657095Y-117294905D03*
X117157095Y-114294905D03*
X102157095Y-109294905D03*
X114157095Y-109294905D03*
X99657095Y-116294905D03*
X94657095Y-114294905D03*
X100657095Y-115294905D03*
X114157095Y-114294905D03*
X100657095Y-117294905D03*
X93657095Y-110294905D03*
X115157095Y-112294905D03*
X94657095Y-109294905D03*
X121157095Y-108294905D03*
X114157095Y-111294905D03*
X95657095Y-113294905D03*
X98657095Y-117294905D03*
X120157095Y-106294905D03*
X119157095Y-108294905D03*
X114157095Y-110294905D03*
X99657095Y-115294905D03*
X112157095Y-110294905D03*
X111157095Y-112294905D03*
X96657095Y-111294905D03*
X99657095Y-113294905D03*
X109157095Y-109294905D03*
X121157095Y-109294905D03*
X100657095Y-119294905D03*
X96657095Y-114294905D03*
X120157095Y-105294905D03*
X96657095Y-107294905D03*
X115157095Y-107294905D03*
X121157095Y-111294905D03*
X117157095Y-111294905D03*
X96657095Y-116294905D03*
X94657095Y-108294905D03*
X111157095Y-111294905D03*
X117157095Y-113294905D03*
X116157095Y-111294905D03*
X95657095Y-115294905D03*
X112157095Y-112294905D03*
X115157095Y-106294905D03*
X100657095Y-120294905D03*
X97657095Y-111294905D03*
X97657095Y-110294905D03*
X105157095Y-109294905D03*
X114157095Y-113294905D03*
X114157095Y-112294905D03*
X94657095Y-113294905D03*
X122157095Y-109294905D03*
X99657095Y-114294905D03*
X93657095Y-106294905D03*
X121157095Y-110294905D03*
X120157095Y-108294905D03*
X120157095Y-110294905D03*
X118157095Y-103294905D03*
X112157095Y-109294905D03*
X119157095Y-104294905D03*
X95657095Y-109294905D03*
X118157095Y-107294905D03*
X93657095Y-107294905D03*
X104157095Y-109294905D03*
X122157095Y-108294905D03*
X113157095Y-111294905D03*
X118157095Y-104294905D03*
X113157095Y-110294905D03*
X117157095Y-108294905D03*
X105157095Y-110294905D03*
X100657095Y-118294905D03*
X119157095Y-110294905D03*
X119157095Y-109294905D03*
X102157095Y-110294905D03*
X95657095Y-106294905D03*
X120157095Y-104294905D03*
X97657095Y-112294905D03*
X117157095Y-107294905D03*
X98657095Y-109294905D03*
X95657095Y-107294905D03*
X98657095Y-110294905D03*
X94657095Y-106294905D03*
X99657095Y-118294905D03*
X115157095Y-114294905D03*
X100657095Y-116294905D03*
X103157095Y-110294905D03*
X94657095Y-112294905D03*
X116157095Y-113294905D03*
X92657095Y-110294905D03*
X99657095Y-119294905D03*
X96657095Y-112294905D03*
X118157095Y-113294905D03*
X116157095Y-109294905D03*
X116157095Y-110294905D03*
X119157095Y-106294905D03*
X121157095Y-107294905D03*
X107157095Y-109294905D03*
X92657095Y-113294905D03*
X111157095Y-110294905D03*
X96657095Y-108294905D03*
X97657095Y-107294905D03*
X98657095Y-114294905D03*
X119157095Y-107294905D03*
X118157095Y-106294905D03*
X94657095Y-115294905D03*
X110157095Y-109294905D03*
X110157095Y-111294905D03*
X120157095Y-111294905D03*
X118157095Y-109294905D03*
X99657095Y-117294905D03*
X109157095Y-110294905D03*
X115157095Y-108294905D03*
X95657095Y-116294905D03*
X115157095Y-113294905D03*
X119157095Y-111294905D03*
X93657095Y-114294905D03*
X116157095Y-106294905D03*
X94657095Y-111294905D03*
X117157095Y-112294905D03*
X116157095Y-107294905D03*
X116157095Y-114294905D03*
X120157095Y-103294905D03*
X118157095Y-105294905D03*
X99657095Y-120294905D03*
X119157095Y-112294905D03*
X117157095Y-110294905D03*
X98657095Y-115294905D03*
X118157095Y-110294905D03*
X97657095Y-115294905D03*
X117157095Y-106294905D03*
X113157095Y-113294905D03*
X94657095Y-107294905D03*
X115157095Y-111294905D03*
X104157095Y-110294905D03*
X98657095Y-116294905D03*
X119157095Y-103294905D03*
X118157095Y-108294905D03*
X98657095Y-113294905D03*
X112157095Y-111294905D03*
X106157095Y-110294905D03*
X116157095Y-112294905D03*
X115157095Y-110294905D03*
X95657095Y-110294905D03*
X119157095Y-105294905D03*
X110157095Y-110294905D03*
X95657095Y-108294905D03*
X96657095Y-106294905D03*
X97657095Y-116294905D03*
%TO.N,+5VD*%
X132657095Y-82294905D03*
X185000000Y-119500000D03*
X132657095Y-83294905D03*
X131657095Y-82294905D03*
X185500000Y-119000000D03*
X131657095Y-83294905D03*
X131657095Y-81294905D03*
X132657095Y-81294905D03*
X186000000Y-118500000D03*
%TO.N,CAN_CS*%
X133657095Y-103294905D03*
X132657095Y-98794905D03*
%TO.N,CAN_SDO*%
X133657095Y-104794905D03*
X132657095Y-97294905D03*
%TO.N,CAN_SDI*%
X133657095Y-106294905D03*
X132657095Y-95794905D03*
%TO.N,CAN_SCK*%
X132657095Y-94294905D03*
X133657095Y-107794905D03*
%TO.N,CAN_GPIO0*%
X132657095Y-92794905D03*
X133657095Y-108794905D03*
%TO.N,CAN_GPIO1*%
X133657095Y-110294905D03*
X132657095Y-91294905D03*
%TO.N,CAN_CLK*%
X130157095Y-104794905D03*
X132657095Y-88294905D03*
%TO.N,CAN_INT*%
X132657095Y-89794905D03*
X130157095Y-106294905D03*
%TO.N,Net-(U1-RXCAN)*%
X128657095Y-103294905D03*
X132657095Y-116294905D03*
%TO.N,Net-(U1-TXCAN)*%
X128657095Y-102294905D03*
X132657095Y-117294905D03*
%TO.N,CAN_LED*%
X134657095Y-80294905D03*
X98157095Y-79294905D03*
%TD*%
D18*
%TO.N,BAT_GND*%
X108680095Y-104770905D02*
X108681095Y-104770905D01*
D19*
%TO.N,RF_GND*%
X182297095Y-106714905D02*
X181093695Y-105511505D01*
X182297095Y-106714905D02*
X183500495Y-105511505D01*
X183500495Y-107918305D02*
X183500495Y-112998305D01*
X150480495Y-105511505D02*
X149277095Y-106714905D01*
X183500495Y-105511505D02*
X183500495Y-82651505D01*
X182297095Y-106714905D02*
X183500495Y-107918305D01*
X183500495Y-112998305D02*
X184837095Y-114334905D01*
X183500495Y-82651505D02*
X184837095Y-81314905D01*
X181093695Y-105511505D02*
X150480495Y-105511505D01*
%TD*%
%TA.AperFunction,Conductor*%
%TO.N,+5VD*%
G36*
X133443039Y-80519685D02*
G01*
X133488794Y-80572489D01*
X133500000Y-80624000D01*
X133500000Y-84376000D01*
X133480315Y-84443039D01*
X133427511Y-84488794D01*
X133376000Y-84500000D01*
X131124000Y-84500000D01*
X131056961Y-84480315D01*
X131011206Y-84427511D01*
X131000000Y-84376000D01*
X131000000Y-80624000D01*
X131019685Y-80556961D01*
X131072489Y-80511206D01*
X131124000Y-80500000D01*
X133376000Y-80500000D01*
X133443039Y-80519685D01*
G37*
%TD.AperFunction*%
%TD*%
%TA.AperFunction,Conductor*%
%TO.N,+5VD*%
G36*
X186443039Y-118019685D02*
G01*
X186488794Y-118072489D01*
X186500000Y-118124000D01*
X186500000Y-119876000D01*
X186480315Y-119943039D01*
X186427511Y-119988794D01*
X186376000Y-120000000D01*
X184624000Y-120000000D01*
X184556961Y-119980315D01*
X184511206Y-119927511D01*
X184500000Y-119876000D01*
X184500000Y-118124000D01*
X184519685Y-118056961D01*
X184572489Y-118011206D01*
X184624000Y-118000000D01*
X186376000Y-118000000D01*
X186443039Y-118019685D01*
G37*
%TD.AperFunction*%
%TD*%
%TA.AperFunction,Conductor*%
%TO.N,BAT_GND*%
G36*
X112100134Y-78814590D02*
G01*
X112145889Y-78867394D01*
X112157095Y-78918905D01*
X112157095Y-89226266D01*
X112137410Y-89293305D01*
X112084606Y-89339060D01*
X112015448Y-89349004D01*
X111960209Y-89326584D01*
X111848508Y-89245428D01*
X111680353Y-89159749D01*
X111680352Y-89159748D01*
X111680351Y-89159748D01*
X111500862Y-89101428D01*
X111500860Y-89101427D01*
X111500858Y-89101427D01*
X111314463Y-89071905D01*
X111314458Y-89071905D01*
X111125732Y-89071905D01*
X111125727Y-89071905D01*
X110939331Y-89101427D01*
X110759836Y-89159749D01*
X110591681Y-89245428D01*
X110525785Y-89293305D01*
X110438999Y-89356359D01*
X110438997Y-89356361D01*
X110438996Y-89356361D01*
X110305551Y-89489806D01*
X110305551Y-89489807D01*
X110305549Y-89489809D01*
X110257908Y-89555380D01*
X110194618Y-89642491D01*
X110113080Y-89802519D01*
X110065105Y-89853315D01*
X109997284Y-89870110D01*
X109931149Y-89847573D01*
X109887698Y-89792857D01*
X109878595Y-89746224D01*
X109878595Y-89524577D01*
X109878594Y-89524560D01*
X109872193Y-89465032D01*
X109872191Y-89465025D01*
X109821949Y-89330318D01*
X109821945Y-89330311D01*
X109735785Y-89215217D01*
X109735782Y-89215214D01*
X109620688Y-89129054D01*
X109620681Y-89129050D01*
X109485974Y-89078808D01*
X109485967Y-89078806D01*
X109426439Y-89072405D01*
X108930095Y-89072405D01*
X108930095Y-89901977D01*
X108851666Y-89856697D01*
X108738615Y-89826405D01*
X108621575Y-89826405D01*
X108508524Y-89856697D01*
X108430095Y-89901977D01*
X108430095Y-89072405D01*
X107933750Y-89072405D01*
X107874222Y-89078806D01*
X107874215Y-89078808D01*
X107739508Y-89129050D01*
X107739501Y-89129054D01*
X107624407Y-89215214D01*
X107624404Y-89215217D01*
X107538244Y-89330311D01*
X107538240Y-89330318D01*
X107487998Y-89465025D01*
X107487996Y-89465032D01*
X107481595Y-89524560D01*
X107481595Y-90020905D01*
X108311168Y-90020905D01*
X108265887Y-90099334D01*
X108235595Y-90212385D01*
X108235595Y-90329425D01*
X108265887Y-90442476D01*
X108311168Y-90520905D01*
X107481595Y-90520905D01*
X107481595Y-91017249D01*
X107487996Y-91076777D01*
X107487998Y-91076784D01*
X107538240Y-91211491D01*
X107538244Y-91211498D01*
X107624404Y-91326592D01*
X107624407Y-91326595D01*
X107739501Y-91412755D01*
X107739508Y-91412759D01*
X107874215Y-91463001D01*
X107874222Y-91463003D01*
X107933750Y-91469404D01*
X107933767Y-91469405D01*
X108430095Y-91469405D01*
X108430095Y-90639832D01*
X108508524Y-90685113D01*
X108621575Y-90715405D01*
X108738615Y-90715405D01*
X108851666Y-90685113D01*
X108930095Y-90639832D01*
X108930095Y-91469405D01*
X109426423Y-91469405D01*
X109426439Y-91469404D01*
X109485967Y-91463003D01*
X109485974Y-91463001D01*
X109620681Y-91412759D01*
X109620688Y-91412755D01*
X109735782Y-91326595D01*
X109735785Y-91326592D01*
X109821945Y-91211498D01*
X109821949Y-91211491D01*
X109872191Y-91076784D01*
X109872193Y-91076777D01*
X109878594Y-91017249D01*
X109878595Y-91017232D01*
X109878595Y-90795585D01*
X109898280Y-90728546D01*
X109951084Y-90682791D01*
X110020242Y-90672847D01*
X110083798Y-90701872D01*
X110113079Y-90739289D01*
X110194618Y-90899318D01*
X110305549Y-91052001D01*
X110438999Y-91185451D01*
X110591682Y-91296382D01*
X110759839Y-91382062D01*
X110939328Y-91440382D01*
X111009229Y-91451453D01*
X111125727Y-91469905D01*
X111125732Y-91469905D01*
X111314463Y-91469905D01*
X111418015Y-91453503D01*
X111500862Y-91440382D01*
X111680351Y-91382062D01*
X111848508Y-91296382D01*
X111960212Y-91215223D01*
X112026015Y-91191745D01*
X112094069Y-91207570D01*
X112142764Y-91257675D01*
X112157095Y-91315543D01*
X112157095Y-103726266D01*
X112137410Y-103793305D01*
X112084606Y-103839060D01*
X112015448Y-103849004D01*
X111960209Y-103826584D01*
X111848508Y-103745428D01*
X111680353Y-103659749D01*
X111680352Y-103659748D01*
X111680351Y-103659748D01*
X111500862Y-103601428D01*
X111500860Y-103601427D01*
X111500858Y-103601427D01*
X111314463Y-103571905D01*
X111314458Y-103571905D01*
X111125732Y-103571905D01*
X111125727Y-103571905D01*
X110939331Y-103601427D01*
X110759836Y-103659749D01*
X110591681Y-103745428D01*
X110525785Y-103793305D01*
X110438999Y-103856359D01*
X110438997Y-103856361D01*
X110438996Y-103856361D01*
X110305551Y-103989806D01*
X110305551Y-103989807D01*
X110305549Y-103989809D01*
X110257908Y-104055380D01*
X110194618Y-104142491D01*
X110113080Y-104302519D01*
X110065105Y-104353315D01*
X109997284Y-104370110D01*
X109931149Y-104347573D01*
X109887698Y-104292857D01*
X109878595Y-104246224D01*
X109878595Y-104024577D01*
X109878594Y-104024560D01*
X109872193Y-103965032D01*
X109872191Y-103965025D01*
X109821949Y-103830318D01*
X109821945Y-103830311D01*
X109735785Y-103715217D01*
X109735782Y-103715214D01*
X109620688Y-103629054D01*
X109620681Y-103629050D01*
X109485974Y-103578808D01*
X109485967Y-103578806D01*
X109426439Y-103572405D01*
X108930095Y-103572405D01*
X108930095Y-104401977D01*
X108851666Y-104356697D01*
X108738615Y-104326405D01*
X108621575Y-104326405D01*
X108508524Y-104356697D01*
X108430095Y-104401977D01*
X108430095Y-103572405D01*
X107933750Y-103572405D01*
X107874222Y-103578806D01*
X107874215Y-103578808D01*
X107739508Y-103629050D01*
X107739501Y-103629054D01*
X107624407Y-103715214D01*
X107624404Y-103715217D01*
X107538244Y-103830311D01*
X107538240Y-103830318D01*
X107487998Y-103965025D01*
X107487996Y-103965032D01*
X107481595Y-104024560D01*
X107481595Y-104520905D01*
X108311168Y-104520905D01*
X108265887Y-104599334D01*
X108235595Y-104712385D01*
X108235595Y-104829425D01*
X108265887Y-104942476D01*
X108311168Y-105020905D01*
X107481595Y-105020905D01*
X107481595Y-105517249D01*
X107487996Y-105576777D01*
X107487998Y-105576784D01*
X107538240Y-105711491D01*
X107538244Y-105711498D01*
X107624404Y-105826592D01*
X107624407Y-105826595D01*
X107739501Y-105912755D01*
X107739508Y-105912759D01*
X107874215Y-105963001D01*
X107874222Y-105963003D01*
X107933750Y-105969404D01*
X107933767Y-105969405D01*
X108430095Y-105969405D01*
X108430095Y-105139832D01*
X108508524Y-105185113D01*
X108621575Y-105215405D01*
X108738615Y-105215405D01*
X108851666Y-105185113D01*
X108930095Y-105139832D01*
X108930095Y-105969405D01*
X109426423Y-105969405D01*
X109426439Y-105969404D01*
X109485967Y-105963003D01*
X109485974Y-105963001D01*
X109620681Y-105912759D01*
X109620688Y-105912755D01*
X109735782Y-105826595D01*
X109735785Y-105826592D01*
X109821945Y-105711498D01*
X109821949Y-105711491D01*
X109872191Y-105576784D01*
X109872193Y-105576777D01*
X109878594Y-105517249D01*
X109878595Y-105517232D01*
X109878595Y-105295585D01*
X109898280Y-105228546D01*
X109951084Y-105182791D01*
X110020242Y-105172847D01*
X110083798Y-105201872D01*
X110113079Y-105239289D01*
X110194618Y-105399318D01*
X110305549Y-105552001D01*
X110438999Y-105685451D01*
X110591682Y-105796382D01*
X110759839Y-105882062D01*
X110939328Y-105940382D01*
X111009229Y-105951453D01*
X111125727Y-105969905D01*
X111125732Y-105969905D01*
X111314463Y-105969905D01*
X111418015Y-105953503D01*
X111500862Y-105940382D01*
X111680351Y-105882062D01*
X111848508Y-105796382D01*
X111960212Y-105715223D01*
X112026015Y-105691745D01*
X112094069Y-105707570D01*
X112142764Y-105757675D01*
X112157095Y-105815543D01*
X112157095Y-107170905D01*
X112137410Y-107237944D01*
X112084606Y-107283699D01*
X112033095Y-107294905D01*
X106204240Y-107294905D01*
X106137201Y-107275220D01*
X106121859Y-107263584D01*
X104658703Y-105963001D01*
X101657095Y-103294905D01*
X101657094Y-103294905D01*
X95781095Y-103294905D01*
X95714056Y-103275220D01*
X95668301Y-103222416D01*
X95657095Y-103170905D01*
X95657095Y-100418905D01*
X95676780Y-100351866D01*
X95729584Y-100306111D01*
X95781095Y-100294905D01*
X96629492Y-100294905D01*
X96696531Y-100314590D01*
X96742286Y-100367394D01*
X96752230Y-100436552D01*
X96739976Y-100475200D01*
X96694970Y-100563526D01*
X96633971Y-100751258D01*
X96603095Y-100946207D01*
X96603095Y-101143602D01*
X96633971Y-101338551D01*
X96694968Y-101526278D01*
X96784578Y-101702144D01*
X96810552Y-101737893D01*
X96810552Y-101737894D01*
X97374132Y-101174313D01*
X97391170Y-101237898D01*
X97456996Y-101351912D01*
X97550088Y-101445004D01*
X97664102Y-101510830D01*
X97727685Y-101527867D01*
X97164104Y-102091446D01*
X97164105Y-102091447D01*
X97199850Y-102117417D01*
X97199863Y-102117425D01*
X97375721Y-102207031D01*
X97563448Y-102268028D01*
X97758398Y-102298905D01*
X97955792Y-102298905D01*
X98150741Y-102268028D01*
X98338468Y-102207031D01*
X98514336Y-102117421D01*
X98550083Y-102091448D01*
X98550083Y-102091446D01*
X97986505Y-101527867D01*
X98050088Y-101510830D01*
X98164102Y-101445004D01*
X98257194Y-101351912D01*
X98323020Y-101237898D01*
X98340057Y-101174314D01*
X98903636Y-101737893D01*
X98903638Y-101737893D01*
X98929611Y-101702146D01*
X99019221Y-101526278D01*
X99080218Y-101338551D01*
X99111095Y-101143602D01*
X99111095Y-100946207D01*
X99080218Y-100751258D01*
X99019219Y-100563526D01*
X98974214Y-100475200D01*
X98961317Y-100406531D01*
X98987593Y-100341791D01*
X99044699Y-100301533D01*
X99084698Y-100294905D01*
X100657095Y-100294905D01*
X100657095Y-95794905D01*
X99147913Y-94285723D01*
X99114428Y-94224400D01*
X99111594Y-94198050D01*
X99111594Y-92918904D01*
X99131279Y-92851866D01*
X99184083Y-92806111D01*
X99235594Y-92794905D01*
X101157095Y-92794905D01*
X101157095Y-85418905D01*
X101176780Y-85351866D01*
X101229584Y-85306111D01*
X101281095Y-85294905D01*
X102157095Y-85294905D01*
X102157095Y-78918905D01*
X102176780Y-78851866D01*
X102229584Y-78806111D01*
X102281095Y-78794905D01*
X112033095Y-78794905D01*
X112100134Y-78814590D01*
G37*
%TD.AperFunction*%
%TD*%
%TA.AperFunction,Conductor*%
%TO.N,GND_5VCAN*%
G36*
X96695971Y-95314590D02*
G01*
X96741726Y-95367394D01*
X96751670Y-95436552D01*
X96739418Y-95475195D01*
X96694504Y-95563344D01*
X96694503Y-95563346D01*
X96694503Y-95563347D01*
X96633484Y-95751141D01*
X96602595Y-95946168D01*
X96602595Y-96143641D01*
X96633484Y-96338668D01*
X96694503Y-96526463D01*
X96694504Y-96526466D01*
X96784151Y-96702406D01*
X96784153Y-96702409D01*
X96900210Y-96862151D01*
X97039848Y-97001789D01*
X97189329Y-97110391D01*
X97199594Y-97117849D01*
X97330246Y-97184420D01*
X97381042Y-97232395D01*
X97397837Y-97300216D01*
X97375299Y-97366351D01*
X97330246Y-97405389D01*
X97213112Y-97465072D01*
X97199590Y-97471963D01*
X97039848Y-97588020D01*
X96900210Y-97727658D01*
X96784153Y-97887400D01*
X96694503Y-98063346D01*
X96633484Y-98251141D01*
X96602595Y-98446168D01*
X96602595Y-98643641D01*
X96633484Y-98838668D01*
X96680433Y-98983161D01*
X96694504Y-99026466D01*
X96739417Y-99114612D01*
X96752313Y-99183279D01*
X96726037Y-99248019D01*
X96668931Y-99288277D01*
X96628932Y-99294905D01*
X93657095Y-99294905D01*
X93657095Y-104794905D01*
X100533095Y-104794905D01*
X100600134Y-104814590D01*
X100645889Y-104867394D01*
X100657095Y-104918905D01*
X100657095Y-108794905D01*
X114657095Y-108794905D01*
X114657095Y-105918905D01*
X114676780Y-105851866D01*
X114729584Y-105806111D01*
X114781095Y-105794905D01*
X115639014Y-105794905D01*
X115695307Y-105808419D01*
X115839839Y-105882062D01*
X116019328Y-105940382D01*
X116089229Y-105951453D01*
X116205727Y-105969905D01*
X116205732Y-105969905D01*
X116394463Y-105969905D01*
X116498015Y-105953503D01*
X116580862Y-105940382D01*
X116760351Y-105882062D01*
X116904882Y-105808419D01*
X116961176Y-105794905D01*
X117157095Y-105794905D01*
X117157095Y-105660909D01*
X117176780Y-105593870D01*
X117193414Y-105573228D01*
X117214641Y-105552001D01*
X117325572Y-105399318D01*
X117411252Y-105231161D01*
X117469572Y-105051672D01*
X117490600Y-104918905D01*
X117499095Y-104865273D01*
X117499095Y-104676536D01*
X117469572Y-104490141D01*
X117469572Y-104490138D01*
X117411252Y-104310649D01*
X117325572Y-104142492D01*
X117214641Y-103989809D01*
X117193414Y-103968582D01*
X117178710Y-103941654D01*
X117162118Y-103915836D01*
X117161226Y-103909635D01*
X117159929Y-103907259D01*
X117157095Y-103880901D01*
X117157095Y-99418905D01*
X117176780Y-99351866D01*
X117229584Y-99306111D01*
X117281095Y-99294905D01*
X122533095Y-99294905D01*
X122600134Y-99314590D01*
X122645889Y-99367394D01*
X122657095Y-99418905D01*
X122657095Y-104120737D01*
X122637410Y-104187776D01*
X122584606Y-104233531D01*
X122515448Y-104243475D01*
X122451892Y-104214450D01*
X122422611Y-104177033D01*
X122405143Y-104142752D01*
X122386904Y-104117648D01*
X122386903Y-104117648D01*
X121817742Y-104686809D01*
X121794303Y-104599334D01*
X121735784Y-104497975D01*
X121653025Y-104415216D01*
X121551666Y-104356697D01*
X121464189Y-104333257D01*
X122033350Y-103764095D01*
X122033350Y-103764094D01*
X122008248Y-103745857D01*
X121840158Y-103660210D01*
X121840156Y-103660209D01*
X121660745Y-103601916D01*
X121474418Y-103572405D01*
X121285772Y-103572405D01*
X121099444Y-103601916D01*
X120920033Y-103660209D01*
X120920031Y-103660210D01*
X120751939Y-103745858D01*
X120751934Y-103745862D01*
X120726838Y-103764093D01*
X120726838Y-103764096D01*
X121296001Y-104333257D01*
X121208524Y-104356697D01*
X121107165Y-104415216D01*
X121024406Y-104497975D01*
X120965887Y-104599334D01*
X120942447Y-104686810D01*
X120373286Y-104117648D01*
X120373283Y-104117648D01*
X120355052Y-104142744D01*
X120355048Y-104142749D01*
X120269400Y-104310841D01*
X120269399Y-104310843D01*
X120211106Y-104490254D01*
X120181595Y-104676581D01*
X120181595Y-104865228D01*
X120211106Y-105051555D01*
X120269399Y-105230966D01*
X120269400Y-105230968D01*
X120355047Y-105399058D01*
X120373284Y-105424160D01*
X120373285Y-105424160D01*
X120942447Y-104854998D01*
X120965887Y-104942476D01*
X121024406Y-105043835D01*
X121107165Y-105126594D01*
X121208524Y-105185113D01*
X121296000Y-105208552D01*
X120726838Y-105777713D01*
X120726838Y-105777714D01*
X120751939Y-105795951D01*
X120920030Y-105881599D01*
X120920033Y-105881600D01*
X121099444Y-105939893D01*
X121285772Y-105969405D01*
X121474418Y-105969405D01*
X121660745Y-105939893D01*
X121840156Y-105881600D01*
X121840159Y-105881599D01*
X122008246Y-105795953D01*
X122033350Y-105777713D01*
X122033351Y-105777713D01*
X121464190Y-105208552D01*
X121551666Y-105185113D01*
X121653025Y-105126594D01*
X121735784Y-105043835D01*
X121794303Y-104942476D01*
X121817742Y-104854999D01*
X122386903Y-105424161D01*
X122386903Y-105424160D01*
X122405143Y-105399056D01*
X122422610Y-105364777D01*
X122470585Y-105313981D01*
X122538406Y-105297186D01*
X122604541Y-105319724D01*
X122647992Y-105374439D01*
X122657095Y-105421072D01*
X122657095Y-127170405D01*
X122637410Y-127237444D01*
X122584606Y-127283199D01*
X122533095Y-127294405D01*
X98781095Y-127294405D01*
X98714056Y-127274720D01*
X98668301Y-127221916D01*
X98657095Y-127170405D01*
X98657095Y-119192553D01*
X101736595Y-119192553D01*
X101736595Y-119397256D01*
X101768617Y-119599439D01*
X101831876Y-119794128D01*
X101924810Y-119976518D01*
X102045123Y-120142118D01*
X102189881Y-120286876D01*
X102344844Y-120399461D01*
X102355485Y-120407192D01*
X102471702Y-120466408D01*
X102537871Y-120500123D01*
X102537873Y-120500123D01*
X102537876Y-120500125D01*
X102642232Y-120534032D01*
X102732560Y-120563382D01*
X102833652Y-120579393D01*
X102934743Y-120595405D01*
X102934744Y-120595405D01*
X103139446Y-120595405D01*
X103139447Y-120595405D01*
X103341629Y-120563382D01*
X103536314Y-120500125D01*
X103718705Y-120407192D01*
X103811685Y-120339637D01*
X103884308Y-120286876D01*
X103884310Y-120286873D01*
X103884314Y-120286871D01*
X104029061Y-120142124D01*
X104029063Y-120142120D01*
X104029066Y-120142118D01*
X104081827Y-120069495D01*
X104149382Y-119976515D01*
X104242315Y-119794124D01*
X104305572Y-119599439D01*
X104337595Y-119397257D01*
X104337595Y-119192553D01*
X109356595Y-119192553D01*
X109356595Y-119397256D01*
X109388617Y-119599439D01*
X109451876Y-119794128D01*
X109544810Y-119976518D01*
X109665123Y-120142118D01*
X109809881Y-120286876D01*
X109964844Y-120399461D01*
X109975485Y-120407192D01*
X110091702Y-120466408D01*
X110157871Y-120500123D01*
X110157873Y-120500123D01*
X110157876Y-120500125D01*
X110262232Y-120534032D01*
X110352560Y-120563382D01*
X110453652Y-120579393D01*
X110554743Y-120595405D01*
X110554744Y-120595405D01*
X110759446Y-120595405D01*
X110759447Y-120595405D01*
X110961629Y-120563382D01*
X111156314Y-120500125D01*
X111338705Y-120407192D01*
X111431685Y-120339637D01*
X111504308Y-120286876D01*
X111504310Y-120286873D01*
X111504314Y-120286871D01*
X111649061Y-120142124D01*
X111649063Y-120142120D01*
X111649066Y-120142118D01*
X111701827Y-120069495D01*
X111769382Y-119976515D01*
X111862315Y-119794124D01*
X111925572Y-119599439D01*
X111957595Y-119397257D01*
X111957595Y-119192553D01*
X111925572Y-118990371D01*
X111862315Y-118795686D01*
X111862313Y-118795683D01*
X111862313Y-118795681D01*
X111828598Y-118729512D01*
X111769382Y-118613295D01*
X111761651Y-118602654D01*
X111649066Y-118447691D01*
X111504308Y-118302933D01*
X111338708Y-118182620D01*
X111338707Y-118182619D01*
X111338705Y-118182618D01*
X111281748Y-118153596D01*
X111156318Y-118089686D01*
X110961629Y-118026427D01*
X110787090Y-117998783D01*
X110759447Y-117994405D01*
X110554743Y-117994405D01*
X110530424Y-117998256D01*
X110352560Y-118026427D01*
X110157871Y-118089686D01*
X109975481Y-118182620D01*
X109809881Y-118302933D01*
X109665123Y-118447691D01*
X109544810Y-118613291D01*
X109451876Y-118795681D01*
X109388617Y-118990370D01*
X109356595Y-119192553D01*
X104337595Y-119192553D01*
X104305572Y-118990371D01*
X104242315Y-118795686D01*
X104242313Y-118795683D01*
X104242313Y-118795681D01*
X104208598Y-118729512D01*
X104149382Y-118613295D01*
X104141651Y-118602654D01*
X104029066Y-118447691D01*
X103884308Y-118302933D01*
X103718708Y-118182620D01*
X103718707Y-118182619D01*
X103718705Y-118182618D01*
X103661748Y-118153596D01*
X103536318Y-118089686D01*
X103341629Y-118026427D01*
X103167090Y-117998783D01*
X103139447Y-117994405D01*
X102934743Y-117994405D01*
X102910424Y-117998256D01*
X102732560Y-118026427D01*
X102537871Y-118089686D01*
X102355481Y-118182620D01*
X102189881Y-118302933D01*
X102045123Y-118447691D01*
X101924810Y-118613291D01*
X101831876Y-118795681D01*
X101768617Y-118990370D01*
X101736595Y-119192553D01*
X98657095Y-119192553D01*
X98657095Y-117794905D01*
X89281595Y-117794905D01*
X89214556Y-117775220D01*
X89168801Y-117722416D01*
X89157595Y-117670905D01*
X89157595Y-114192553D01*
X101736595Y-114192553D01*
X101736595Y-114397256D01*
X101768617Y-114599439D01*
X101831876Y-114794128D01*
X101924810Y-114976518D01*
X102045123Y-115142118D01*
X102189881Y-115286876D01*
X102344844Y-115399461D01*
X102355485Y-115407192D01*
X102471702Y-115466408D01*
X102537871Y-115500123D01*
X102537873Y-115500123D01*
X102537876Y-115500125D01*
X102642232Y-115534032D01*
X102732560Y-115563382D01*
X102833652Y-115579393D01*
X102934743Y-115595405D01*
X102934744Y-115595405D01*
X103139446Y-115595405D01*
X103139447Y-115595405D01*
X103341629Y-115563382D01*
X103536314Y-115500125D01*
X103718705Y-115407192D01*
X103811685Y-115339637D01*
X103884308Y-115286876D01*
X103884310Y-115286873D01*
X103884314Y-115286871D01*
X104029061Y-115142124D01*
X104029063Y-115142120D01*
X104029066Y-115142118D01*
X104081827Y-115069495D01*
X104149382Y-114976515D01*
X104242315Y-114794124D01*
X104305572Y-114599439D01*
X104337595Y-114397257D01*
X104337595Y-114192553D01*
X109356595Y-114192553D01*
X109356595Y-114397256D01*
X109388617Y-114599439D01*
X109451876Y-114794128D01*
X109544810Y-114976518D01*
X109665123Y-115142118D01*
X109809881Y-115286876D01*
X109964844Y-115399461D01*
X109975485Y-115407192D01*
X110091702Y-115466408D01*
X110157871Y-115500123D01*
X110157873Y-115500123D01*
X110157876Y-115500125D01*
X110262232Y-115534032D01*
X110352560Y-115563382D01*
X110453652Y-115579393D01*
X110554743Y-115595405D01*
X110554744Y-115595405D01*
X110759446Y-115595405D01*
X110759447Y-115595405D01*
X110961629Y-115563382D01*
X111156314Y-115500125D01*
X111338705Y-115407192D01*
X111431685Y-115339637D01*
X111504308Y-115286876D01*
X111504310Y-115286873D01*
X111504314Y-115286871D01*
X111649061Y-115142124D01*
X111649063Y-115142120D01*
X111649066Y-115142118D01*
X111701827Y-115069495D01*
X111769382Y-114976515D01*
X111862315Y-114794124D01*
X111925572Y-114599439D01*
X111957595Y-114397257D01*
X111957595Y-114192553D01*
X111925572Y-113990371D01*
X111862315Y-113795686D01*
X111862313Y-113795683D01*
X111862313Y-113795681D01*
X111828598Y-113729512D01*
X111769382Y-113613295D01*
X111761651Y-113602654D01*
X111649066Y-113447691D01*
X111504308Y-113302933D01*
X111338708Y-113182620D01*
X111338707Y-113182619D01*
X111338705Y-113182618D01*
X111281748Y-113153596D01*
X111156318Y-113089686D01*
X110961629Y-113026427D01*
X110787090Y-112998783D01*
X110759447Y-112994405D01*
X110554743Y-112994405D01*
X110530424Y-112998256D01*
X110352560Y-113026427D01*
X110157871Y-113089686D01*
X109975481Y-113182620D01*
X109809881Y-113302933D01*
X109665123Y-113447691D01*
X109544810Y-113613291D01*
X109451876Y-113795681D01*
X109388617Y-113990370D01*
X109356595Y-114192553D01*
X104337595Y-114192553D01*
X104305572Y-113990371D01*
X104242315Y-113795686D01*
X104242313Y-113795683D01*
X104242313Y-113795681D01*
X104208598Y-113729512D01*
X104149382Y-113613295D01*
X104141651Y-113602654D01*
X104029066Y-113447691D01*
X103884308Y-113302933D01*
X103718708Y-113182620D01*
X103718707Y-113182619D01*
X103718705Y-113182618D01*
X103661748Y-113153596D01*
X103536318Y-113089686D01*
X103341629Y-113026427D01*
X103167090Y-112998783D01*
X103139447Y-112994405D01*
X102934743Y-112994405D01*
X102910424Y-112998256D01*
X102732560Y-113026427D01*
X102537871Y-113089686D01*
X102355481Y-113182620D01*
X102189881Y-113302933D01*
X102045123Y-113447691D01*
X101924810Y-113613291D01*
X101831876Y-113795681D01*
X101768617Y-113990370D01*
X101736595Y-114192553D01*
X89157595Y-114192553D01*
X89157595Y-95418905D01*
X89177280Y-95351866D01*
X89230084Y-95306111D01*
X89281595Y-95294905D01*
X96628932Y-95294905D01*
X96695971Y-95314590D01*
G37*
%TD.AperFunction*%
%TD*%
%TA.AperFunction,Conductor*%
%TO.N,RF_GND*%
G36*
X198600134Y-68315090D02*
G01*
X198645889Y-68367894D01*
X198657095Y-68419405D01*
X198657095Y-77685647D01*
X198637410Y-77752686D01*
X198584606Y-77798441D01*
X198515448Y-77808385D01*
X198451892Y-77779360D01*
X198445414Y-77773328D01*
X198416881Y-77744795D01*
X198244915Y-77619856D01*
X198055509Y-77523349D01*
X198055508Y-77523348D01*
X198055507Y-77523348D01*
X197853338Y-77457659D01*
X197853336Y-77457658D01*
X197853335Y-77457658D01*
X197692052Y-77432113D01*
X197643382Y-77424405D01*
X197430808Y-77424405D01*
X197382137Y-77432113D01*
X197220855Y-77457658D01*
X197018680Y-77523349D01*
X196829274Y-77619856D01*
X196657308Y-77744795D01*
X196506985Y-77895118D01*
X196382044Y-78067087D01*
X196377579Y-78075851D01*
X196329604Y-78126647D01*
X196261783Y-78143441D01*
X196195648Y-78120903D01*
X196156611Y-78075851D01*
X196152145Y-78067087D01*
X196027204Y-77895118D01*
X195876881Y-77744795D01*
X195704915Y-77619856D01*
X195515509Y-77523349D01*
X195515508Y-77523348D01*
X195515507Y-77523348D01*
X195313338Y-77457659D01*
X195313336Y-77457658D01*
X195313335Y-77457658D01*
X195152052Y-77432113D01*
X195103382Y-77424405D01*
X194890808Y-77424405D01*
X194842137Y-77432113D01*
X194680855Y-77457658D01*
X194478680Y-77523349D01*
X194289274Y-77619856D01*
X194117308Y-77744795D01*
X193966985Y-77895118D01*
X193842044Y-78067087D01*
X193837579Y-78075851D01*
X193789604Y-78126647D01*
X193721783Y-78143441D01*
X193655648Y-78120903D01*
X193616611Y-78075851D01*
X193612145Y-78067087D01*
X193487204Y-77895118D01*
X193336881Y-77744795D01*
X193164915Y-77619856D01*
X192975509Y-77523349D01*
X192975508Y-77523348D01*
X192975507Y-77523348D01*
X192773338Y-77457659D01*
X192773336Y-77457658D01*
X192773335Y-77457658D01*
X192612052Y-77432113D01*
X192563382Y-77424405D01*
X192350808Y-77424405D01*
X192302137Y-77432113D01*
X192140855Y-77457658D01*
X191938680Y-77523349D01*
X191749274Y-77619856D01*
X191577308Y-77744795D01*
X191426985Y-77895118D01*
X191302044Y-78067087D01*
X191297579Y-78075851D01*
X191249604Y-78126647D01*
X191181783Y-78143441D01*
X191115648Y-78120903D01*
X191076611Y-78075851D01*
X191072145Y-78067087D01*
X190947204Y-77895118D01*
X190796881Y-77744795D01*
X190624915Y-77619856D01*
X190435509Y-77523349D01*
X190435508Y-77523348D01*
X190435507Y-77523348D01*
X190233338Y-77457659D01*
X190233336Y-77457658D01*
X190233335Y-77457658D01*
X190072052Y-77432113D01*
X190023382Y-77424405D01*
X189810808Y-77424405D01*
X189762137Y-77432113D01*
X189600855Y-77457658D01*
X189398680Y-77523349D01*
X189209274Y-77619856D01*
X189037308Y-77744795D01*
X188886985Y-77895118D01*
X188762044Y-78067087D01*
X188757579Y-78075851D01*
X188709604Y-78126647D01*
X188641783Y-78143441D01*
X188575648Y-78120903D01*
X188536611Y-78075851D01*
X188532145Y-78067087D01*
X188407204Y-77895118D01*
X188256881Y-77744795D01*
X188084915Y-77619856D01*
X187895509Y-77523349D01*
X187895508Y-77523348D01*
X187895507Y-77523348D01*
X187693338Y-77457659D01*
X187693336Y-77457658D01*
X187693335Y-77457658D01*
X187532052Y-77432113D01*
X187483382Y-77424405D01*
X187270808Y-77424405D01*
X187222137Y-77432113D01*
X187060855Y-77457658D01*
X186858680Y-77523349D01*
X186669274Y-77619856D01*
X186497308Y-77744795D01*
X186346985Y-77895118D01*
X186222044Y-78067087D01*
X186217579Y-78075851D01*
X186169604Y-78126647D01*
X186101783Y-78143441D01*
X186035648Y-78120903D01*
X185996611Y-78075851D01*
X185992145Y-78067087D01*
X185867204Y-77895118D01*
X185716881Y-77744795D01*
X185544915Y-77619856D01*
X185355509Y-77523349D01*
X185355508Y-77523348D01*
X185355507Y-77523348D01*
X185153338Y-77457659D01*
X185153336Y-77457658D01*
X185153335Y-77457658D01*
X184992052Y-77432113D01*
X184943382Y-77424405D01*
X184730808Y-77424405D01*
X184682137Y-77432113D01*
X184520855Y-77457658D01*
X184318680Y-77523349D01*
X184129274Y-77619856D01*
X183957308Y-77744795D01*
X183806985Y-77895118D01*
X183682044Y-78067087D01*
X183677579Y-78075851D01*
X183629604Y-78126647D01*
X183561783Y-78143441D01*
X183495648Y-78120903D01*
X183456611Y-78075851D01*
X183452145Y-78067087D01*
X183327204Y-77895118D01*
X183176881Y-77744795D01*
X183004915Y-77619856D01*
X182815509Y-77523349D01*
X182815508Y-77523348D01*
X182815507Y-77523348D01*
X182613338Y-77457659D01*
X182613336Y-77457658D01*
X182613335Y-77457658D01*
X182452052Y-77432113D01*
X182403382Y-77424405D01*
X182190808Y-77424405D01*
X182142137Y-77432113D01*
X181980855Y-77457658D01*
X181778680Y-77523349D01*
X181589274Y-77619856D01*
X181417308Y-77744795D01*
X181266985Y-77895118D01*
X181142044Y-78067087D01*
X181137579Y-78075851D01*
X181089604Y-78126647D01*
X181021783Y-78143441D01*
X180955648Y-78120903D01*
X180916611Y-78075851D01*
X180912145Y-78067087D01*
X180787204Y-77895118D01*
X180636881Y-77744795D01*
X180464915Y-77619856D01*
X180275509Y-77523349D01*
X180275508Y-77523348D01*
X180275507Y-77523348D01*
X180073338Y-77457659D01*
X180073336Y-77457658D01*
X180073335Y-77457658D01*
X179912052Y-77432113D01*
X179863382Y-77424405D01*
X179650808Y-77424405D01*
X179602137Y-77432113D01*
X179440855Y-77457658D01*
X179238680Y-77523349D01*
X179049274Y-77619856D01*
X178877308Y-77744795D01*
X178726985Y-77895118D01*
X178602044Y-78067087D01*
X178597579Y-78075851D01*
X178549604Y-78126647D01*
X178481783Y-78143441D01*
X178415648Y-78120903D01*
X178376611Y-78075851D01*
X178372145Y-78067087D01*
X178247204Y-77895118D01*
X178096881Y-77744795D01*
X177924915Y-77619856D01*
X177735509Y-77523349D01*
X177735508Y-77523348D01*
X177735507Y-77523348D01*
X177533338Y-77457659D01*
X177533336Y-77457658D01*
X177533335Y-77457658D01*
X177372052Y-77432113D01*
X177323382Y-77424405D01*
X177110808Y-77424405D01*
X177062137Y-77432113D01*
X176900855Y-77457658D01*
X176698680Y-77523349D01*
X176509274Y-77619856D01*
X176337308Y-77744795D01*
X176186985Y-77895118D01*
X176062044Y-78067087D01*
X176057579Y-78075851D01*
X176009604Y-78126647D01*
X175941783Y-78143441D01*
X175875648Y-78120903D01*
X175836611Y-78075851D01*
X175832145Y-78067087D01*
X175707204Y-77895118D01*
X175556881Y-77744795D01*
X175384915Y-77619856D01*
X175195509Y-77523349D01*
X175195508Y-77523348D01*
X175195507Y-77523348D01*
X174993338Y-77457659D01*
X174993336Y-77457658D01*
X174993335Y-77457658D01*
X174832052Y-77432113D01*
X174783382Y-77424405D01*
X174570808Y-77424405D01*
X174522137Y-77432113D01*
X174360855Y-77457658D01*
X174158680Y-77523349D01*
X173969274Y-77619856D01*
X173797308Y-77744795D01*
X173646985Y-77895118D01*
X173522044Y-78067087D01*
X173517579Y-78075851D01*
X173469604Y-78126647D01*
X173401783Y-78143441D01*
X173335648Y-78120903D01*
X173296611Y-78075851D01*
X173292145Y-78067087D01*
X173167204Y-77895118D01*
X173016881Y-77744795D01*
X172844915Y-77619856D01*
X172655509Y-77523349D01*
X172655508Y-77523348D01*
X172655507Y-77523348D01*
X172453338Y-77457659D01*
X172453336Y-77457658D01*
X172453335Y-77457658D01*
X172292052Y-77432113D01*
X172243382Y-77424405D01*
X172030808Y-77424405D01*
X171982137Y-77432113D01*
X171820855Y-77457658D01*
X171618680Y-77523349D01*
X171429274Y-77619856D01*
X171257308Y-77744795D01*
X171106985Y-77895118D01*
X170982044Y-78067087D01*
X170977579Y-78075851D01*
X170929604Y-78126647D01*
X170861783Y-78143441D01*
X170795648Y-78120903D01*
X170756611Y-78075851D01*
X170752145Y-78067087D01*
X170627204Y-77895118D01*
X170476881Y-77744795D01*
X170304915Y-77619856D01*
X170115509Y-77523349D01*
X170115508Y-77523348D01*
X170115507Y-77523348D01*
X169913338Y-77457659D01*
X169913336Y-77457658D01*
X169913335Y-77457658D01*
X169752052Y-77432113D01*
X169703382Y-77424405D01*
X169490808Y-77424405D01*
X169442137Y-77432113D01*
X169280855Y-77457658D01*
X169078680Y-77523349D01*
X168889274Y-77619856D01*
X168717308Y-77744795D01*
X168566985Y-77895118D01*
X168442044Y-78067087D01*
X168437579Y-78075851D01*
X168389604Y-78126647D01*
X168321783Y-78143441D01*
X168255648Y-78120903D01*
X168216611Y-78075851D01*
X168212145Y-78067087D01*
X168087204Y-77895118D01*
X167936881Y-77744795D01*
X167764915Y-77619856D01*
X167575509Y-77523349D01*
X167575508Y-77523348D01*
X167575507Y-77523348D01*
X167373338Y-77457659D01*
X167373336Y-77457658D01*
X167373335Y-77457658D01*
X167212052Y-77432113D01*
X167163382Y-77424405D01*
X166950808Y-77424405D01*
X166902137Y-77432113D01*
X166740855Y-77457658D01*
X166538680Y-77523349D01*
X166349274Y-77619856D01*
X166177308Y-77744795D01*
X166026985Y-77895118D01*
X165902044Y-78067087D01*
X165897579Y-78075851D01*
X165849604Y-78126647D01*
X165781783Y-78143441D01*
X165715648Y-78120903D01*
X165676611Y-78075851D01*
X165672145Y-78067087D01*
X165547204Y-77895118D01*
X165396881Y-77744795D01*
X165224915Y-77619856D01*
X165035509Y-77523349D01*
X165035508Y-77523348D01*
X165035507Y-77523348D01*
X164833338Y-77457659D01*
X164833336Y-77457658D01*
X164833335Y-77457658D01*
X164672052Y-77432113D01*
X164623382Y-77424405D01*
X164410808Y-77424405D01*
X164362137Y-77432113D01*
X164200855Y-77457658D01*
X163998680Y-77523349D01*
X163809274Y-77619856D01*
X163637308Y-77744795D01*
X163486985Y-77895118D01*
X163362044Y-78067087D01*
X163357579Y-78075851D01*
X163309604Y-78126647D01*
X163241783Y-78143441D01*
X163175648Y-78120903D01*
X163136611Y-78075851D01*
X163132145Y-78067087D01*
X163007204Y-77895118D01*
X162856881Y-77744795D01*
X162684915Y-77619856D01*
X162495509Y-77523349D01*
X162495508Y-77523348D01*
X162495507Y-77523348D01*
X162293338Y-77457659D01*
X162293336Y-77457658D01*
X162293335Y-77457658D01*
X162132052Y-77432113D01*
X162083382Y-77424405D01*
X161870808Y-77424405D01*
X161822137Y-77432113D01*
X161660855Y-77457658D01*
X161458680Y-77523349D01*
X161269274Y-77619856D01*
X161097308Y-77744795D01*
X160946985Y-77895118D01*
X160822044Y-78067087D01*
X160817579Y-78075851D01*
X160769604Y-78126647D01*
X160701783Y-78143441D01*
X160635648Y-78120903D01*
X160596611Y-78075851D01*
X160592145Y-78067087D01*
X160467204Y-77895118D01*
X160316881Y-77744795D01*
X160144915Y-77619856D01*
X159955509Y-77523349D01*
X159955508Y-77523348D01*
X159955507Y-77523348D01*
X159753338Y-77457659D01*
X159753336Y-77457658D01*
X159753335Y-77457658D01*
X159592052Y-77432113D01*
X159543382Y-77424405D01*
X159330808Y-77424405D01*
X159282137Y-77432113D01*
X159120855Y-77457658D01*
X158918680Y-77523349D01*
X158729274Y-77619856D01*
X158557308Y-77744795D01*
X158406985Y-77895118D01*
X158282044Y-78067087D01*
X158277579Y-78075851D01*
X158229604Y-78126647D01*
X158161783Y-78143441D01*
X158095648Y-78120903D01*
X158056611Y-78075851D01*
X158052145Y-78067087D01*
X157927204Y-77895118D01*
X157776881Y-77744795D01*
X157604915Y-77619856D01*
X157415509Y-77523349D01*
X157415508Y-77523348D01*
X157415507Y-77523348D01*
X157213338Y-77457659D01*
X157213336Y-77457658D01*
X157213335Y-77457658D01*
X157052052Y-77432113D01*
X157003382Y-77424405D01*
X156790808Y-77424405D01*
X156742137Y-77432113D01*
X156580855Y-77457658D01*
X156378680Y-77523349D01*
X156189274Y-77619856D01*
X156017308Y-77744795D01*
X155866985Y-77895118D01*
X155742044Y-78067087D01*
X155737579Y-78075851D01*
X155689604Y-78126647D01*
X155621783Y-78143441D01*
X155555648Y-78120903D01*
X155516611Y-78075851D01*
X155512145Y-78067087D01*
X155387204Y-77895118D01*
X155236881Y-77744795D01*
X155064915Y-77619856D01*
X154875509Y-77523349D01*
X154875508Y-77523348D01*
X154875507Y-77523348D01*
X154673338Y-77457659D01*
X154673336Y-77457658D01*
X154673335Y-77457658D01*
X154512052Y-77432113D01*
X154463382Y-77424405D01*
X154250808Y-77424405D01*
X154202137Y-77432113D01*
X154040855Y-77457658D01*
X153838680Y-77523349D01*
X153649274Y-77619856D01*
X153477308Y-77744795D01*
X153326985Y-77895118D01*
X153202044Y-78067087D01*
X153197579Y-78075851D01*
X153149604Y-78126647D01*
X153081783Y-78143441D01*
X153015648Y-78120903D01*
X152976611Y-78075851D01*
X152972145Y-78067087D01*
X152847204Y-77895118D01*
X152696881Y-77744795D01*
X152524915Y-77619856D01*
X152335509Y-77523349D01*
X152335508Y-77523348D01*
X152335507Y-77523348D01*
X152133338Y-77457659D01*
X152133336Y-77457658D01*
X152133335Y-77457658D01*
X151972052Y-77432113D01*
X151923382Y-77424405D01*
X151710808Y-77424405D01*
X151662137Y-77432113D01*
X151500855Y-77457658D01*
X151298680Y-77523349D01*
X151109274Y-77619856D01*
X150937308Y-77744795D01*
X150786985Y-77895118D01*
X150662044Y-78067087D01*
X150657579Y-78075851D01*
X150609604Y-78126647D01*
X150541783Y-78143441D01*
X150475648Y-78120903D01*
X150436611Y-78075851D01*
X150432145Y-78067087D01*
X150307204Y-77895118D01*
X150156881Y-77744795D01*
X149984915Y-77619856D01*
X149795509Y-77523349D01*
X149795508Y-77523348D01*
X149795507Y-77523348D01*
X149593338Y-77457659D01*
X149593336Y-77457658D01*
X149593335Y-77457658D01*
X149432052Y-77432113D01*
X149383382Y-77424405D01*
X149170808Y-77424405D01*
X149122137Y-77432113D01*
X148960855Y-77457658D01*
X148758680Y-77523349D01*
X148569274Y-77619856D01*
X148397308Y-77744795D01*
X148246985Y-77895118D01*
X148122044Y-78067087D01*
X148117579Y-78075851D01*
X148069604Y-78126647D01*
X148001783Y-78143441D01*
X147935648Y-78120903D01*
X147896611Y-78075851D01*
X147892145Y-78067087D01*
X147767204Y-77895118D01*
X147616881Y-77744795D01*
X147444915Y-77619856D01*
X147255509Y-77523349D01*
X147255508Y-77523348D01*
X147255507Y-77523348D01*
X147053338Y-77457659D01*
X147053336Y-77457658D01*
X147053335Y-77457658D01*
X146892052Y-77432113D01*
X146843382Y-77424405D01*
X146630808Y-77424405D01*
X146582137Y-77432113D01*
X146420855Y-77457658D01*
X146218680Y-77523349D01*
X146029274Y-77619856D01*
X145857308Y-77744795D01*
X145706985Y-77895118D01*
X145582044Y-78067087D01*
X145577579Y-78075851D01*
X145529604Y-78126647D01*
X145461783Y-78143441D01*
X145395648Y-78120903D01*
X145356611Y-78075851D01*
X145352145Y-78067087D01*
X145227204Y-77895118D01*
X145076881Y-77744795D01*
X144904915Y-77619856D01*
X144715509Y-77523349D01*
X144715508Y-77523348D01*
X144715507Y-77523348D01*
X144513338Y-77457659D01*
X144513336Y-77457658D01*
X144513335Y-77457658D01*
X144352052Y-77432113D01*
X144303382Y-77424405D01*
X144090808Y-77424405D01*
X144042137Y-77432113D01*
X143880855Y-77457658D01*
X143678680Y-77523349D01*
X143489274Y-77619856D01*
X143317308Y-77744795D01*
X143166985Y-77895118D01*
X143042044Y-78067087D01*
X143037579Y-78075851D01*
X142989604Y-78126647D01*
X142921783Y-78143441D01*
X142855648Y-78120903D01*
X142816611Y-78075851D01*
X142812145Y-78067087D01*
X142687204Y-77895118D01*
X142536881Y-77744795D01*
X142364915Y-77619856D01*
X142175509Y-77523349D01*
X142175508Y-77523348D01*
X142175507Y-77523348D01*
X141973338Y-77457659D01*
X141973336Y-77457658D01*
X141973335Y-77457658D01*
X141812052Y-77432113D01*
X141763382Y-77424405D01*
X141550808Y-77424405D01*
X141502137Y-77432113D01*
X141340855Y-77457658D01*
X141138680Y-77523349D01*
X140949274Y-77619856D01*
X140777308Y-77744795D01*
X140626985Y-77895118D01*
X140502044Y-78067087D01*
X140497579Y-78075851D01*
X140449604Y-78126647D01*
X140381783Y-78143441D01*
X140315648Y-78120903D01*
X140276611Y-78075851D01*
X140272145Y-78067087D01*
X140147204Y-77895118D01*
X139996881Y-77744795D01*
X139824915Y-77619856D01*
X139635509Y-77523349D01*
X139635508Y-77523348D01*
X139635507Y-77523348D01*
X139433338Y-77457659D01*
X139433336Y-77457658D01*
X139433335Y-77457658D01*
X139272052Y-77432113D01*
X139223382Y-77424405D01*
X139010808Y-77424405D01*
X138962137Y-77432113D01*
X138800855Y-77457658D01*
X138598680Y-77523349D01*
X138409274Y-77619856D01*
X138237308Y-77744795D01*
X138086985Y-77895118D01*
X137962044Y-78067087D01*
X137957579Y-78075851D01*
X137909604Y-78126647D01*
X137841783Y-78143441D01*
X137775648Y-78120903D01*
X137736611Y-78075851D01*
X137732145Y-78067087D01*
X137607204Y-77895118D01*
X137456881Y-77744795D01*
X137284915Y-77619856D01*
X137095509Y-77523349D01*
X137095508Y-77523348D01*
X137095507Y-77523348D01*
X136893338Y-77457659D01*
X136893336Y-77457658D01*
X136893335Y-77457658D01*
X136732052Y-77432113D01*
X136683382Y-77424405D01*
X136470808Y-77424405D01*
X136422137Y-77432113D01*
X136260855Y-77457658D01*
X136058680Y-77523349D01*
X135869274Y-77619856D01*
X135697308Y-77744795D01*
X135546985Y-77895118D01*
X135422046Y-78067084D01*
X135325539Y-78256490D01*
X135259848Y-78458665D01*
X135226595Y-78668618D01*
X135226595Y-78881191D01*
X135259848Y-79091144D01*
X135325539Y-79293319D01*
X135422046Y-79482725D01*
X135546985Y-79654691D01*
X135697308Y-79805014D01*
X135869277Y-79929955D01*
X135878041Y-79934421D01*
X135928837Y-79982396D01*
X135945631Y-80050217D01*
X135923093Y-80116352D01*
X135878041Y-80155389D01*
X135869277Y-80159854D01*
X135697308Y-80284795D01*
X135697304Y-80284799D01*
X135669276Y-80312828D01*
X135607953Y-80346313D01*
X135538261Y-80341329D01*
X135482328Y-80299457D01*
X135457911Y-80233993D01*
X135457595Y-80225147D01*
X135457595Y-80216060D01*
X135457594Y-80216058D01*
X135446499Y-80160281D01*
X135426832Y-80061408D01*
X135422680Y-80051383D01*
X135366492Y-79915732D01*
X135366485Y-79915719D01*
X135278884Y-79784616D01*
X135278881Y-79784612D01*
X135167387Y-79673118D01*
X135167383Y-79673115D01*
X135036280Y-79585514D01*
X135036267Y-79585507D01*
X134890596Y-79525169D01*
X134890584Y-79525166D01*
X134735940Y-79494405D01*
X134735937Y-79494405D01*
X134578253Y-79494405D01*
X134578250Y-79494405D01*
X134423605Y-79525166D01*
X134423593Y-79525169D01*
X134277922Y-79585507D01*
X134277909Y-79585514D01*
X134146806Y-79673115D01*
X134146802Y-79673118D01*
X134035308Y-79784612D01*
X134035305Y-79784616D01*
X133947704Y-79915719D01*
X133947697Y-79915732D01*
X133897380Y-80037211D01*
X133853539Y-80091615D01*
X133787245Y-80113680D01*
X133724598Y-80097690D01*
X133724404Y-80098117D01*
X133722040Y-80097037D01*
X133719546Y-80096401D01*
X133716427Y-80094474D01*
X133585465Y-80034664D01*
X133585460Y-80034662D01*
X133585459Y-80034662D01*
X133518420Y-80014977D01*
X133518422Y-80014977D01*
X133518417Y-80014976D01*
X133456347Y-80006052D01*
X133376000Y-79994500D01*
X131124000Y-79994500D01*
X131123991Y-79994500D01*
X131123990Y-79994501D01*
X131016549Y-80006052D01*
X131016537Y-80006054D01*
X130965027Y-80017260D01*
X130862502Y-80051383D01*
X130862496Y-80051386D01*
X130741462Y-80129171D01*
X130741451Y-80129179D01*
X130688659Y-80174923D01*
X130594433Y-80283664D01*
X130594430Y-80283668D01*
X130534664Y-80414534D01*
X130514976Y-80481582D01*
X130494500Y-80624001D01*
X130494500Y-81170905D01*
X130474815Y-81237944D01*
X130422011Y-81283699D01*
X130370500Y-81294905D01*
X127840536Y-81294905D01*
X127773497Y-81275220D01*
X127752855Y-81258586D01*
X127667387Y-81173118D01*
X127667383Y-81173115D01*
X127536280Y-81085514D01*
X127536267Y-81085507D01*
X127390596Y-81025169D01*
X127390584Y-81025166D01*
X127235940Y-80994405D01*
X127235937Y-80994405D01*
X127078253Y-80994405D01*
X127078250Y-80994405D01*
X126923605Y-81025166D01*
X126923593Y-81025169D01*
X126777922Y-81085507D01*
X126777909Y-81085514D01*
X126646806Y-81173115D01*
X126646802Y-81173118D01*
X126535308Y-81284612D01*
X126535305Y-81284616D01*
X126447704Y-81415719D01*
X126447697Y-81415732D01*
X126387359Y-81561403D01*
X126387356Y-81561415D01*
X126356595Y-81716058D01*
X126356595Y-81873751D01*
X126387356Y-82028394D01*
X126387359Y-82028406D01*
X126447697Y-82174077D01*
X126447704Y-82174090D01*
X126535305Y-82305193D01*
X126535308Y-82305197D01*
X126646802Y-82416691D01*
X126646806Y-82416694D01*
X126777909Y-82504295D01*
X126777922Y-82504302D01*
X126923593Y-82564640D01*
X126923598Y-82564642D01*
X127069948Y-82593753D01*
X127078248Y-82595404D01*
X127078251Y-82595405D01*
X127078253Y-82595405D01*
X127235939Y-82595405D01*
X127235940Y-82595404D01*
X127390592Y-82564642D01*
X127514836Y-82513179D01*
X127536267Y-82504302D01*
X127536267Y-82504301D01*
X127536274Y-82504299D01*
X127665003Y-82418285D01*
X127731680Y-82397407D01*
X127799060Y-82415891D01*
X127845751Y-82467870D01*
X127857894Y-82521387D01*
X127857894Y-83294905D01*
X130370500Y-83294905D01*
X130437539Y-83314590D01*
X130483294Y-83367394D01*
X130494500Y-83418905D01*
X130494500Y-84376000D01*
X130494501Y-84376009D01*
X130506052Y-84483450D01*
X130506054Y-84483462D01*
X130517260Y-84534972D01*
X130551383Y-84637497D01*
X130551386Y-84637503D01*
X130629171Y-84758537D01*
X130629179Y-84758548D01*
X130674923Y-84811340D01*
X130674926Y-84811343D01*
X130674930Y-84811347D01*
X130783664Y-84905567D01*
X130783667Y-84905568D01*
X130783668Y-84905569D01*
X130877925Y-84948616D01*
X130914541Y-84965338D01*
X130981580Y-84985023D01*
X130981584Y-84985024D01*
X131124000Y-85005500D01*
X131124003Y-85005500D01*
X133375990Y-85005500D01*
X133376000Y-85005500D01*
X133483456Y-84993947D01*
X133534967Y-84982741D01*
X133569197Y-84971347D01*
X133637497Y-84948616D01*
X133637501Y-84948613D01*
X133637504Y-84948613D01*
X133758543Y-84870825D01*
X133811347Y-84825070D01*
X133905567Y-84716336D01*
X133965338Y-84585459D01*
X133985023Y-84518420D01*
X133985024Y-84518416D01*
X134005500Y-84376000D01*
X134005500Y-81054264D01*
X134025185Y-80987225D01*
X134077989Y-80941470D01*
X134147147Y-80931526D01*
X134198390Y-80951161D01*
X134277916Y-81004299D01*
X134277918Y-81004300D01*
X134277922Y-81004302D01*
X134398543Y-81054264D01*
X134423598Y-81064642D01*
X134578248Y-81095404D01*
X134578251Y-81095405D01*
X134578253Y-81095405D01*
X134735939Y-81095405D01*
X134735940Y-81095404D01*
X134890592Y-81064642D01*
X135036274Y-81004299D01*
X135049598Y-80995395D01*
X135116275Y-80974517D01*
X135183656Y-80993000D01*
X135230347Y-81044978D01*
X135241525Y-81113948D01*
X135240964Y-81117895D01*
X135226595Y-81208618D01*
X135226595Y-81421191D01*
X135259848Y-81631144D01*
X135325539Y-81833319D01*
X135422046Y-82022725D01*
X135546985Y-82194691D01*
X135697308Y-82345014D01*
X135869277Y-82469955D01*
X135878041Y-82474421D01*
X135928837Y-82522396D01*
X135945631Y-82590217D01*
X135923093Y-82656352D01*
X135878041Y-82695389D01*
X135869277Y-82699854D01*
X135697308Y-82824795D01*
X135546985Y-82975118D01*
X135422046Y-83147084D01*
X135325539Y-83336490D01*
X135259848Y-83538665D01*
X135226595Y-83748618D01*
X135226595Y-83961191D01*
X135259848Y-84171144D01*
X135325539Y-84373319D01*
X135422046Y-84562725D01*
X135546985Y-84734691D01*
X135697308Y-84885014D01*
X135869274Y-85009953D01*
X135869276Y-85009954D01*
X135869279Y-85009956D01*
X135878588Y-85014699D01*
X135929385Y-85062671D01*
X135946182Y-85130492D01*
X135923647Y-85196627D01*
X135878600Y-85235665D01*
X135869541Y-85240281D01*
X135869535Y-85240285D01*
X135815377Y-85279632D01*
X135815377Y-85279633D01*
X136447686Y-85911942D01*
X136384102Y-85928980D01*
X136270088Y-85994806D01*
X136176996Y-86087898D01*
X136111170Y-86201912D01*
X136094132Y-86265496D01*
X135461823Y-85633187D01*
X135461822Y-85633187D01*
X135422475Y-85687344D01*
X135325999Y-85876687D01*
X135260337Y-86078774D01*
X135260337Y-86078777D01*
X135227095Y-86288658D01*
X135227095Y-86501151D01*
X135260337Y-86711032D01*
X135260337Y-86711035D01*
X135325999Y-86913122D01*
X135422470Y-87102455D01*
X135461823Y-87156621D01*
X136094132Y-86524313D01*
X136111170Y-86587898D01*
X136176996Y-86701912D01*
X136270088Y-86795004D01*
X136384102Y-86860830D01*
X136447685Y-86877867D01*
X135815377Y-87510174D01*
X135815377Y-87510175D01*
X135869547Y-87549531D01*
X135869546Y-87549531D01*
X135878590Y-87554139D01*
X135929387Y-87602113D01*
X135946182Y-87669934D01*
X135923645Y-87736069D01*
X135878594Y-87775107D01*
X135869277Y-87779854D01*
X135697308Y-87904795D01*
X135546985Y-88055118D01*
X135422046Y-88227084D01*
X135325539Y-88416490D01*
X135259848Y-88618665D01*
X135226595Y-88828618D01*
X135226595Y-89041192D01*
X135235022Y-89094395D01*
X135259011Y-89245862D01*
X135259849Y-89251148D01*
X135294034Y-89356359D01*
X135325539Y-89453319D01*
X135422046Y-89642725D01*
X135546985Y-89814691D01*
X135697308Y-89965014D01*
X135869277Y-90089955D01*
X135878041Y-90094421D01*
X135928837Y-90142396D01*
X135945631Y-90210217D01*
X135923093Y-90276352D01*
X135878041Y-90315389D01*
X135869277Y-90319854D01*
X135697308Y-90444795D01*
X135546985Y-90595118D01*
X135422046Y-90767084D01*
X135325539Y-90956490D01*
X135325538Y-90956492D01*
X135325538Y-90956493D01*
X135309322Y-91006399D01*
X135259848Y-91158665D01*
X135240993Y-91277713D01*
X135226595Y-91368618D01*
X135226595Y-91581192D01*
X135259849Y-91791148D01*
X135315376Y-91962043D01*
X135325539Y-91993319D01*
X135422046Y-92182725D01*
X135546985Y-92354691D01*
X135697308Y-92505014D01*
X135869277Y-92629955D01*
X135878041Y-92634421D01*
X135928837Y-92682396D01*
X135945631Y-92750217D01*
X135923093Y-92816352D01*
X135878041Y-92855389D01*
X135869277Y-92859854D01*
X135697308Y-92984795D01*
X135546985Y-93135118D01*
X135422046Y-93307084D01*
X135325539Y-93496490D01*
X135259848Y-93698665D01*
X135246235Y-93784616D01*
X135226595Y-93908618D01*
X135226595Y-94121192D01*
X135259849Y-94331148D01*
X135323942Y-94528406D01*
X135325539Y-94533319D01*
X135422046Y-94722725D01*
X135546985Y-94894691D01*
X135697308Y-95045014D01*
X135869277Y-95169955D01*
X135878041Y-95174421D01*
X135928837Y-95222396D01*
X135945631Y-95290217D01*
X135923093Y-95356352D01*
X135878041Y-95395389D01*
X135869277Y-95399854D01*
X135697308Y-95524795D01*
X135546985Y-95675118D01*
X135422046Y-95847084D01*
X135325539Y-96036490D01*
X135259848Y-96238665D01*
X135226595Y-96448618D01*
X135226595Y-96661191D01*
X135246143Y-96784616D01*
X135259849Y-96871148D01*
X135274335Y-96915732D01*
X135325539Y-97073319D01*
X135422046Y-97262725D01*
X135546985Y-97434691D01*
X135697308Y-97585014D01*
X135869277Y-97709955D01*
X135878041Y-97714421D01*
X135928837Y-97762396D01*
X135945631Y-97830217D01*
X135923093Y-97896352D01*
X135878041Y-97935389D01*
X135869277Y-97939854D01*
X135697308Y-98064795D01*
X135546985Y-98215118D01*
X135422046Y-98387084D01*
X135325539Y-98576490D01*
X135259848Y-98778665D01*
X135244788Y-98873751D01*
X135226595Y-98988618D01*
X135226595Y-99201192D01*
X135259849Y-99411148D01*
X135309722Y-99564642D01*
X135325539Y-99613319D01*
X135422046Y-99802725D01*
X135546985Y-99974691D01*
X135697308Y-100125014D01*
X135869277Y-100249955D01*
X135878041Y-100254421D01*
X135928837Y-100302396D01*
X135945631Y-100370217D01*
X135923093Y-100436352D01*
X135878041Y-100475389D01*
X135869277Y-100479854D01*
X135697308Y-100604795D01*
X135546985Y-100755118D01*
X135422046Y-100927084D01*
X135325539Y-101116490D01*
X135259848Y-101318665D01*
X135226595Y-101528618D01*
X135226595Y-101741191D01*
X135254239Y-101915732D01*
X135259849Y-101951148D01*
X135295673Y-102061403D01*
X135325539Y-102153319D01*
X135422046Y-102342725D01*
X135546985Y-102514691D01*
X135697308Y-102665014D01*
X135869277Y-102789955D01*
X135878041Y-102794421D01*
X135928837Y-102842396D01*
X135945631Y-102910217D01*
X135923093Y-102976352D01*
X135878041Y-103015389D01*
X135869277Y-103019854D01*
X135697308Y-103144795D01*
X135546985Y-103295118D01*
X135422046Y-103467084D01*
X135325539Y-103656490D01*
X135325538Y-103656492D01*
X135325538Y-103656493D01*
X135307095Y-103713254D01*
X135259848Y-103858665D01*
X135243475Y-103962043D01*
X135226595Y-104068618D01*
X135226595Y-104281192D01*
X135259849Y-104491148D01*
X135320087Y-104676542D01*
X135325539Y-104693319D01*
X135422046Y-104882725D01*
X135546985Y-105054691D01*
X135697308Y-105205014D01*
X135869277Y-105329955D01*
X135878041Y-105334421D01*
X135928837Y-105382396D01*
X135945631Y-105450217D01*
X135923093Y-105516352D01*
X135878041Y-105555389D01*
X135869277Y-105559854D01*
X135697308Y-105684795D01*
X135546985Y-105835118D01*
X135422046Y-106007084D01*
X135325539Y-106196490D01*
X135259848Y-106398665D01*
X135226595Y-106608618D01*
X135226595Y-106821191D01*
X135255596Y-107004299D01*
X135259849Y-107031148D01*
X135305977Y-107173116D01*
X135325539Y-107233319D01*
X135422046Y-107422725D01*
X135546985Y-107594691D01*
X135697308Y-107745014D01*
X135869277Y-107869955D01*
X135878041Y-107874421D01*
X135928837Y-107922396D01*
X135945631Y-107990217D01*
X135923093Y-108056352D01*
X135878041Y-108095389D01*
X135869277Y-108099854D01*
X135697308Y-108224795D01*
X135546985Y-108375118D01*
X135422046Y-108547084D01*
X135325539Y-108736490D01*
X135259848Y-108938665D01*
X135226595Y-109148618D01*
X135226595Y-109361191D01*
X135253078Y-109528402D01*
X135259849Y-109571148D01*
X135292981Y-109673118D01*
X135325539Y-109773319D01*
X135422046Y-109962725D01*
X135546985Y-110134691D01*
X135697308Y-110285014D01*
X135869277Y-110409955D01*
X135878041Y-110414421D01*
X135928837Y-110462396D01*
X135945631Y-110530217D01*
X135923093Y-110596352D01*
X135878041Y-110635389D01*
X135869277Y-110639854D01*
X135697308Y-110764795D01*
X135546985Y-110915118D01*
X135422046Y-111087084D01*
X135325539Y-111276490D01*
X135259848Y-111478665D01*
X135226595Y-111688618D01*
X135226595Y-111901191D01*
X135259848Y-112111144D01*
X135325539Y-112313319D01*
X135422046Y-112502725D01*
X135546985Y-112674691D01*
X135697308Y-112825014D01*
X135869277Y-112949955D01*
X135878041Y-112954421D01*
X135928837Y-113002396D01*
X135945631Y-113070217D01*
X135923093Y-113136352D01*
X135878041Y-113175389D01*
X135869277Y-113179854D01*
X135697308Y-113304795D01*
X135546985Y-113455118D01*
X135422046Y-113627084D01*
X135325539Y-113816490D01*
X135259848Y-114018665D01*
X135226595Y-114228618D01*
X135226595Y-114441192D01*
X135259849Y-114651148D01*
X135267301Y-114674084D01*
X135325539Y-114853319D01*
X135422046Y-115042725D01*
X135546985Y-115214691D01*
X135697308Y-115365014D01*
X135869277Y-115489955D01*
X135878041Y-115494421D01*
X135928837Y-115542396D01*
X135945631Y-115610217D01*
X135923093Y-115676352D01*
X135878041Y-115715389D01*
X135869277Y-115719854D01*
X135697308Y-115844795D01*
X135546985Y-115995118D01*
X135422046Y-116167084D01*
X135325539Y-116356490D01*
X135259848Y-116558665D01*
X135241568Y-116674082D01*
X135226595Y-116768618D01*
X135226595Y-116981192D01*
X135259849Y-117191148D01*
X135319179Y-117373747D01*
X135325539Y-117393319D01*
X135422046Y-117582725D01*
X135546985Y-117754691D01*
X135697308Y-117905014D01*
X135869274Y-118029953D01*
X135869276Y-118029954D01*
X135869279Y-118029956D01*
X136058683Y-118126462D01*
X136260852Y-118192151D01*
X136470808Y-118225405D01*
X136470809Y-118225405D01*
X136683381Y-118225405D01*
X136683382Y-118225405D01*
X136893338Y-118192151D01*
X137095507Y-118126462D01*
X137284911Y-118029956D01*
X137351490Y-117981584D01*
X137456881Y-117905014D01*
X137456883Y-117905011D01*
X137456887Y-117905009D01*
X137607199Y-117754697D01*
X137607201Y-117754693D01*
X137607204Y-117754691D01*
X137732143Y-117582725D01*
X137732142Y-117582725D01*
X137732146Y-117582721D01*
X137736609Y-117573959D01*
X137784583Y-117523164D01*
X137852403Y-117506368D01*
X137918539Y-117528904D01*
X137957581Y-117573961D01*
X137962046Y-117582725D01*
X138086985Y-117754691D01*
X138237308Y-117905014D01*
X138409274Y-118029953D01*
X138409276Y-118029954D01*
X138409279Y-118029956D01*
X138598683Y-118126462D01*
X138800852Y-118192151D01*
X139010808Y-118225405D01*
X139010809Y-118225405D01*
X139223381Y-118225405D01*
X139223382Y-118225405D01*
X139433338Y-118192151D01*
X139635507Y-118126462D01*
X139824911Y-118029956D01*
X139891490Y-117981584D01*
X139996881Y-117905014D01*
X139996883Y-117905011D01*
X139996887Y-117905009D01*
X140147199Y-117754697D01*
X140147201Y-117754693D01*
X140147204Y-117754691D01*
X140272143Y-117582725D01*
X140272142Y-117582725D01*
X140272146Y-117582721D01*
X140276609Y-117573959D01*
X140324583Y-117523164D01*
X140392403Y-117506368D01*
X140458539Y-117528904D01*
X140497581Y-117573961D01*
X140502046Y-117582725D01*
X140626985Y-117754691D01*
X140777308Y-117905014D01*
X140949274Y-118029953D01*
X140949276Y-118029954D01*
X140949279Y-118029956D01*
X141138683Y-118126462D01*
X141340852Y-118192151D01*
X141550808Y-118225405D01*
X141550809Y-118225405D01*
X141763381Y-118225405D01*
X141763382Y-118225405D01*
X141973338Y-118192151D01*
X142175507Y-118126462D01*
X142364911Y-118029956D01*
X142431490Y-117981584D01*
X142536881Y-117905014D01*
X142536883Y-117905011D01*
X142536887Y-117905009D01*
X142687199Y-117754697D01*
X142687201Y-117754693D01*
X142687204Y-117754691D01*
X142812143Y-117582725D01*
X142812142Y-117582725D01*
X142812146Y-117582721D01*
X142816609Y-117573959D01*
X142864583Y-117523164D01*
X142932403Y-117506368D01*
X142998539Y-117528904D01*
X143037581Y-117573961D01*
X143042046Y-117582725D01*
X143166985Y-117754691D01*
X143317308Y-117905014D01*
X143489274Y-118029953D01*
X143489276Y-118029954D01*
X143489279Y-118029956D01*
X143678683Y-118126462D01*
X143880852Y-118192151D01*
X144090808Y-118225405D01*
X144090809Y-118225405D01*
X144303381Y-118225405D01*
X144303382Y-118225405D01*
X144513338Y-118192151D01*
X144715507Y-118126462D01*
X144904911Y-118029956D01*
X144971490Y-117981584D01*
X145076881Y-117905014D01*
X145076883Y-117905011D01*
X145076887Y-117905009D01*
X145227199Y-117754697D01*
X145227201Y-117754693D01*
X145227204Y-117754691D01*
X145352143Y-117582725D01*
X145352142Y-117582725D01*
X145352146Y-117582721D01*
X145356609Y-117573959D01*
X145404583Y-117523164D01*
X145472403Y-117506368D01*
X145538539Y-117528904D01*
X145577581Y-117573961D01*
X145582046Y-117582725D01*
X145706985Y-117754691D01*
X145857308Y-117905014D01*
X146029274Y-118029953D01*
X146029276Y-118029954D01*
X146029279Y-118029956D01*
X146218683Y-118126462D01*
X146420852Y-118192151D01*
X146630808Y-118225405D01*
X146630809Y-118225405D01*
X146843381Y-118225405D01*
X146843382Y-118225405D01*
X147053338Y-118192151D01*
X147255507Y-118126462D01*
X147444911Y-118029956D01*
X147511490Y-117981584D01*
X147616881Y-117905014D01*
X147616883Y-117905011D01*
X147616887Y-117905009D01*
X147767199Y-117754697D01*
X147767201Y-117754693D01*
X147767204Y-117754691D01*
X147892143Y-117582725D01*
X147892142Y-117582725D01*
X147892146Y-117582721D01*
X147896609Y-117573959D01*
X147944583Y-117523164D01*
X148012403Y-117506368D01*
X148078539Y-117528904D01*
X148117581Y-117573961D01*
X148122046Y-117582725D01*
X148246985Y-117754691D01*
X148397308Y-117905014D01*
X148569274Y-118029953D01*
X148569276Y-118029954D01*
X148569279Y-118029956D01*
X148758683Y-118126462D01*
X148960852Y-118192151D01*
X149170808Y-118225405D01*
X149170809Y-118225405D01*
X149383381Y-118225405D01*
X149383382Y-118225405D01*
X149593338Y-118192151D01*
X149795507Y-118126462D01*
X149984911Y-118029956D01*
X150051490Y-117981584D01*
X150156881Y-117905014D01*
X150156883Y-117905011D01*
X150156887Y-117905009D01*
X150307199Y-117754697D01*
X150307201Y-117754693D01*
X150307204Y-117754691D01*
X150432143Y-117582725D01*
X150432142Y-117582725D01*
X150432146Y-117582721D01*
X150436609Y-117573959D01*
X150484583Y-117523164D01*
X150552403Y-117506368D01*
X150618539Y-117528904D01*
X150657581Y-117573961D01*
X150662046Y-117582725D01*
X150786985Y-117754691D01*
X150937308Y-117905014D01*
X151109274Y-118029953D01*
X151109276Y-118029954D01*
X151109279Y-118029956D01*
X151298683Y-118126462D01*
X151500852Y-118192151D01*
X151710808Y-118225405D01*
X151710809Y-118225405D01*
X151923381Y-118225405D01*
X151923382Y-118225405D01*
X152133338Y-118192151D01*
X152335507Y-118126462D01*
X152524911Y-118029956D01*
X152591490Y-117981584D01*
X152696881Y-117905014D01*
X152696883Y-117905011D01*
X152696887Y-117905009D01*
X152847199Y-117754697D01*
X152847201Y-117754693D01*
X152847204Y-117754691D01*
X152972143Y-117582725D01*
X152972142Y-117582725D01*
X152972146Y-117582721D01*
X152976609Y-117573959D01*
X153024583Y-117523164D01*
X153092403Y-117506368D01*
X153158539Y-117528904D01*
X153197581Y-117573961D01*
X153202046Y-117582725D01*
X153326985Y-117754691D01*
X153477308Y-117905014D01*
X153649274Y-118029953D01*
X153649276Y-118029954D01*
X153649279Y-118029956D01*
X153838683Y-118126462D01*
X154040852Y-118192151D01*
X154250808Y-118225405D01*
X154250809Y-118225405D01*
X154463381Y-118225405D01*
X154463382Y-118225405D01*
X154673338Y-118192151D01*
X154875507Y-118126462D01*
X155064911Y-118029956D01*
X155131490Y-117981584D01*
X155236881Y-117905014D01*
X155236883Y-117905011D01*
X155236887Y-117905009D01*
X155387199Y-117754697D01*
X155387201Y-117754693D01*
X155387204Y-117754691D01*
X155512143Y-117582725D01*
X155512142Y-117582725D01*
X155512146Y-117582721D01*
X155516609Y-117573959D01*
X155564583Y-117523164D01*
X155632403Y-117506368D01*
X155698539Y-117528904D01*
X155737581Y-117573961D01*
X155742046Y-117582725D01*
X155866985Y-117754691D01*
X156017308Y-117905014D01*
X156189274Y-118029953D01*
X156189276Y-118029954D01*
X156189279Y-118029956D01*
X156378683Y-118126462D01*
X156580852Y-118192151D01*
X156790808Y-118225405D01*
X156790809Y-118225405D01*
X157003381Y-118225405D01*
X157003382Y-118225405D01*
X157213338Y-118192151D01*
X157415507Y-118126462D01*
X157604911Y-118029956D01*
X157671490Y-117981584D01*
X157776881Y-117905014D01*
X157776883Y-117905011D01*
X157776887Y-117905009D01*
X157927199Y-117754697D01*
X157927201Y-117754693D01*
X157927204Y-117754691D01*
X158052143Y-117582725D01*
X158052142Y-117582725D01*
X158052146Y-117582721D01*
X158056609Y-117573959D01*
X158104583Y-117523164D01*
X158172403Y-117506368D01*
X158238539Y-117528904D01*
X158277581Y-117573961D01*
X158282046Y-117582725D01*
X158406985Y-117754691D01*
X158557308Y-117905014D01*
X158729274Y-118029953D01*
X158729276Y-118029954D01*
X158729279Y-118029956D01*
X158918683Y-118126462D01*
X159120852Y-118192151D01*
X159330808Y-118225405D01*
X159330809Y-118225405D01*
X159543381Y-118225405D01*
X159543382Y-118225405D01*
X159753338Y-118192151D01*
X159955507Y-118126462D01*
X160144911Y-118029956D01*
X160211490Y-117981584D01*
X160316881Y-117905014D01*
X160316883Y-117905011D01*
X160316887Y-117905009D01*
X160467199Y-117754697D01*
X160467201Y-117754693D01*
X160467204Y-117754691D01*
X160592143Y-117582725D01*
X160592142Y-117582725D01*
X160592146Y-117582721D01*
X160596609Y-117573959D01*
X160644583Y-117523164D01*
X160712403Y-117506368D01*
X160778539Y-117528904D01*
X160817581Y-117573961D01*
X160822046Y-117582725D01*
X160946985Y-117754691D01*
X161097308Y-117905014D01*
X161269274Y-118029953D01*
X161269276Y-118029954D01*
X161269279Y-118029956D01*
X161458683Y-118126462D01*
X161660852Y-118192151D01*
X161870808Y-118225405D01*
X161870809Y-118225405D01*
X162083381Y-118225405D01*
X162083382Y-118225405D01*
X162293338Y-118192151D01*
X162495507Y-118126462D01*
X162684911Y-118029956D01*
X162751490Y-117981584D01*
X162856881Y-117905014D01*
X162856883Y-117905011D01*
X162856887Y-117905009D01*
X163007199Y-117754697D01*
X163007201Y-117754693D01*
X163007204Y-117754691D01*
X163132143Y-117582725D01*
X163132142Y-117582725D01*
X163132146Y-117582721D01*
X163136609Y-117573959D01*
X163184583Y-117523164D01*
X163252403Y-117506368D01*
X163318539Y-117528904D01*
X163357581Y-117573961D01*
X163362046Y-117582725D01*
X163486985Y-117754691D01*
X163637308Y-117905014D01*
X163809274Y-118029953D01*
X163809276Y-118029954D01*
X163809279Y-118029956D01*
X163998683Y-118126462D01*
X164200852Y-118192151D01*
X164410808Y-118225405D01*
X164410809Y-118225405D01*
X164623381Y-118225405D01*
X164623382Y-118225405D01*
X164833338Y-118192151D01*
X165035507Y-118126462D01*
X165224911Y-118029956D01*
X165291490Y-117981584D01*
X165396881Y-117905014D01*
X165396883Y-117905011D01*
X165396887Y-117905009D01*
X165547199Y-117754697D01*
X165547201Y-117754693D01*
X165547204Y-117754691D01*
X165672143Y-117582725D01*
X165672142Y-117582725D01*
X165672146Y-117582721D01*
X165676609Y-117573959D01*
X165724583Y-117523164D01*
X165792403Y-117506368D01*
X165858539Y-117528904D01*
X165897581Y-117573961D01*
X165902046Y-117582725D01*
X166026985Y-117754691D01*
X166177308Y-117905014D01*
X166349274Y-118029953D01*
X166349276Y-118029954D01*
X166349279Y-118029956D01*
X166538683Y-118126462D01*
X166740852Y-118192151D01*
X166950808Y-118225405D01*
X166950809Y-118225405D01*
X167163381Y-118225405D01*
X167163382Y-118225405D01*
X167373338Y-118192151D01*
X167575507Y-118126462D01*
X167764911Y-118029956D01*
X167831490Y-117981584D01*
X167936881Y-117905014D01*
X167936883Y-117905011D01*
X167936887Y-117905009D01*
X168087199Y-117754697D01*
X168087201Y-117754693D01*
X168087204Y-117754691D01*
X168212143Y-117582725D01*
X168212142Y-117582725D01*
X168212146Y-117582721D01*
X168216609Y-117573959D01*
X168264583Y-117523164D01*
X168332403Y-117506368D01*
X168398539Y-117528904D01*
X168437581Y-117573961D01*
X168442046Y-117582725D01*
X168566985Y-117754691D01*
X168717308Y-117905014D01*
X168889274Y-118029953D01*
X168889276Y-118029954D01*
X168889279Y-118029956D01*
X169078683Y-118126462D01*
X169280852Y-118192151D01*
X169490808Y-118225405D01*
X169490809Y-118225405D01*
X169703381Y-118225405D01*
X169703382Y-118225405D01*
X169913338Y-118192151D01*
X170115507Y-118126462D01*
X170304911Y-118029956D01*
X170371490Y-117981584D01*
X170476881Y-117905014D01*
X170476883Y-117905011D01*
X170476887Y-117905009D01*
X170627199Y-117754697D01*
X170627201Y-117754693D01*
X170627204Y-117754691D01*
X170752143Y-117582725D01*
X170752142Y-117582725D01*
X170752146Y-117582721D01*
X170756609Y-117573959D01*
X170804583Y-117523164D01*
X170872403Y-117506368D01*
X170938539Y-117528904D01*
X170977581Y-117573961D01*
X170982046Y-117582725D01*
X171106985Y-117754691D01*
X171257308Y-117905014D01*
X171429274Y-118029953D01*
X171429276Y-118029954D01*
X171429279Y-118029956D01*
X171618683Y-118126462D01*
X171820852Y-118192151D01*
X172030808Y-118225405D01*
X172030809Y-118225405D01*
X172243381Y-118225405D01*
X172243382Y-118225405D01*
X172453338Y-118192151D01*
X172655507Y-118126462D01*
X172844911Y-118029956D01*
X172911490Y-117981584D01*
X173016881Y-117905014D01*
X173016883Y-117905011D01*
X173016887Y-117905009D01*
X173167199Y-117754697D01*
X173167201Y-117754693D01*
X173167204Y-117754691D01*
X173292143Y-117582725D01*
X173292142Y-117582725D01*
X173292146Y-117582721D01*
X173296609Y-117573959D01*
X173344583Y-117523164D01*
X173412403Y-117506368D01*
X173478539Y-117528904D01*
X173517581Y-117573961D01*
X173522046Y-117582725D01*
X173646985Y-117754691D01*
X173797308Y-117905014D01*
X173969274Y-118029953D01*
X173969276Y-118029954D01*
X173969279Y-118029956D01*
X174158683Y-118126462D01*
X174360852Y-118192151D01*
X174570808Y-118225405D01*
X174570809Y-118225405D01*
X174783381Y-118225405D01*
X174783382Y-118225405D01*
X174993338Y-118192151D01*
X175195507Y-118126462D01*
X175384911Y-118029956D01*
X175451490Y-117981584D01*
X175556881Y-117905014D01*
X175556883Y-117905011D01*
X175556887Y-117905009D01*
X175707199Y-117754697D01*
X175707201Y-117754693D01*
X175707204Y-117754691D01*
X175832143Y-117582725D01*
X175832142Y-117582725D01*
X175832146Y-117582721D01*
X175836609Y-117573959D01*
X175884583Y-117523164D01*
X175952403Y-117506368D01*
X176018539Y-117528904D01*
X176057581Y-117573961D01*
X176062046Y-117582725D01*
X176186985Y-117754691D01*
X176337308Y-117905014D01*
X176509274Y-118029953D01*
X176509276Y-118029954D01*
X176509279Y-118029956D01*
X176698683Y-118126462D01*
X176900852Y-118192151D01*
X177110808Y-118225405D01*
X177110809Y-118225405D01*
X177323381Y-118225405D01*
X177323382Y-118225405D01*
X177533338Y-118192151D01*
X177735507Y-118126462D01*
X177924911Y-118029956D01*
X177991490Y-117981584D01*
X178096881Y-117905014D01*
X178096883Y-117905011D01*
X178096887Y-117905009D01*
X178247199Y-117754697D01*
X178247201Y-117754693D01*
X178247204Y-117754691D01*
X178372143Y-117582725D01*
X178372142Y-117582725D01*
X178372146Y-117582721D01*
X178376609Y-117573959D01*
X178424583Y-117523164D01*
X178492403Y-117506368D01*
X178558539Y-117528904D01*
X178597581Y-117573961D01*
X178602046Y-117582725D01*
X178726985Y-117754691D01*
X178877308Y-117905014D01*
X179049274Y-118029953D01*
X179049276Y-118029954D01*
X179049279Y-118029956D01*
X179238683Y-118126462D01*
X179440852Y-118192151D01*
X179650808Y-118225405D01*
X179650809Y-118225405D01*
X179863381Y-118225405D01*
X179863382Y-118225405D01*
X180073338Y-118192151D01*
X180275507Y-118126462D01*
X180464911Y-118029956D01*
X180531490Y-117981584D01*
X180636881Y-117905014D01*
X180636883Y-117905011D01*
X180636887Y-117905009D01*
X180787199Y-117754697D01*
X180787201Y-117754693D01*
X180787204Y-117754691D01*
X180912143Y-117582725D01*
X180912142Y-117582725D01*
X180912146Y-117582721D01*
X180916609Y-117573959D01*
X180964583Y-117523164D01*
X181032403Y-117506368D01*
X181098539Y-117528904D01*
X181137581Y-117573961D01*
X181142046Y-117582725D01*
X181266985Y-117754691D01*
X181417308Y-117905014D01*
X181589274Y-118029953D01*
X181589276Y-118029954D01*
X181589279Y-118029956D01*
X181778683Y-118126462D01*
X181980852Y-118192151D01*
X182190808Y-118225405D01*
X182190809Y-118225405D01*
X182403381Y-118225405D01*
X182403382Y-118225405D01*
X182613338Y-118192151D01*
X182815507Y-118126462D01*
X183004911Y-118029956D01*
X183071490Y-117981584D01*
X183176881Y-117905014D01*
X183176883Y-117905011D01*
X183176887Y-117905009D01*
X183327199Y-117754697D01*
X183327201Y-117754693D01*
X183327204Y-117754691D01*
X183452143Y-117582725D01*
X183452142Y-117582725D01*
X183452146Y-117582721D01*
X183456609Y-117573959D01*
X183504583Y-117523164D01*
X183572403Y-117506368D01*
X183638539Y-117528904D01*
X183677581Y-117573961D01*
X183682046Y-117582725D01*
X183806984Y-117754689D01*
X183806988Y-117754693D01*
X183806991Y-117754697D01*
X183957303Y-117905009D01*
X183957310Y-117905014D01*
X183958988Y-117906233D01*
X183959474Y-117906863D01*
X183961003Y-117908169D01*
X183960728Y-117908490D01*
X184001658Y-117961560D01*
X184008848Y-118024202D01*
X184003034Y-118064642D01*
X183994500Y-118124000D01*
X183994500Y-119876000D01*
X183994501Y-119876009D01*
X184006052Y-119983450D01*
X184006054Y-119983462D01*
X184017260Y-120034972D01*
X184051383Y-120137497D01*
X184051386Y-120137503D01*
X184129171Y-120258537D01*
X184129179Y-120258548D01*
X184174923Y-120311340D01*
X184174926Y-120311343D01*
X184174930Y-120311347D01*
X184283664Y-120405567D01*
X184283667Y-120405568D01*
X184283668Y-120405569D01*
X184377925Y-120448616D01*
X184414541Y-120465338D01*
X184481580Y-120485023D01*
X184481584Y-120485024D01*
X184624000Y-120505500D01*
X184624003Y-120505500D01*
X186375990Y-120505500D01*
X186376000Y-120505500D01*
X186483456Y-120493947D01*
X186534967Y-120482741D01*
X186569197Y-120471347D01*
X186637497Y-120448616D01*
X186637501Y-120448613D01*
X186637504Y-120448613D01*
X186758543Y-120370825D01*
X186811347Y-120325070D01*
X186905567Y-120216336D01*
X186965338Y-120085459D01*
X186985023Y-120018420D01*
X186985024Y-120018416D01*
X187005500Y-119876000D01*
X187005500Y-118328569D01*
X187025185Y-118261530D01*
X187077989Y-118215775D01*
X187147147Y-118205831D01*
X187148867Y-118206091D01*
X187270808Y-118225405D01*
X187270809Y-118225405D01*
X187483381Y-118225405D01*
X187483382Y-118225405D01*
X187693338Y-118192151D01*
X187895507Y-118126462D01*
X188084911Y-118029956D01*
X188151490Y-117981584D01*
X188256881Y-117905014D01*
X188256883Y-117905011D01*
X188256887Y-117905009D01*
X188407199Y-117754697D01*
X188407201Y-117754693D01*
X188407204Y-117754691D01*
X188532143Y-117582725D01*
X188532142Y-117582725D01*
X188532146Y-117582721D01*
X188536609Y-117573959D01*
X188584583Y-117523164D01*
X188652403Y-117506368D01*
X188718539Y-117528904D01*
X188757581Y-117573961D01*
X188762046Y-117582725D01*
X188886985Y-117754691D01*
X189037308Y-117905014D01*
X189209274Y-118029953D01*
X189209276Y-118029954D01*
X189209279Y-118029956D01*
X189398683Y-118126462D01*
X189600852Y-118192151D01*
X189810808Y-118225405D01*
X189810809Y-118225405D01*
X190023381Y-118225405D01*
X190023382Y-118225405D01*
X190233338Y-118192151D01*
X190435507Y-118126462D01*
X190624911Y-118029956D01*
X190691490Y-117981584D01*
X190796881Y-117905014D01*
X190796883Y-117905011D01*
X190796887Y-117905009D01*
X190947199Y-117754697D01*
X190947201Y-117754693D01*
X190947204Y-117754691D01*
X191072143Y-117582725D01*
X191072142Y-117582725D01*
X191072146Y-117582721D01*
X191076609Y-117573959D01*
X191124583Y-117523164D01*
X191192403Y-117506368D01*
X191258539Y-117528904D01*
X191297581Y-117573961D01*
X191302046Y-117582725D01*
X191426985Y-117754691D01*
X191577308Y-117905014D01*
X191749274Y-118029953D01*
X191749276Y-118029954D01*
X191749279Y-118029956D01*
X191938683Y-118126462D01*
X192140852Y-118192151D01*
X192350808Y-118225405D01*
X192350809Y-118225405D01*
X192563381Y-118225405D01*
X192563382Y-118225405D01*
X192773338Y-118192151D01*
X192975507Y-118126462D01*
X193164911Y-118029956D01*
X193231490Y-117981584D01*
X193336881Y-117905014D01*
X193336883Y-117905011D01*
X193336887Y-117905009D01*
X193487199Y-117754697D01*
X193487201Y-117754693D01*
X193487204Y-117754691D01*
X193612143Y-117582725D01*
X193612142Y-117582725D01*
X193612146Y-117582721D01*
X193616609Y-117573959D01*
X193664583Y-117523164D01*
X193732403Y-117506368D01*
X193798539Y-117528904D01*
X193837581Y-117573961D01*
X193842046Y-117582725D01*
X193966985Y-117754691D01*
X194117308Y-117905014D01*
X194289274Y-118029953D01*
X194289276Y-118029954D01*
X194289279Y-118029956D01*
X194478683Y-118126462D01*
X194680852Y-118192151D01*
X194890808Y-118225405D01*
X194890809Y-118225405D01*
X195103381Y-118225405D01*
X195103382Y-118225405D01*
X195313338Y-118192151D01*
X195515507Y-118126462D01*
X195704911Y-118029956D01*
X195771490Y-117981584D01*
X195876881Y-117905014D01*
X195876883Y-117905011D01*
X195876887Y-117905009D01*
X196027199Y-117754697D01*
X196027201Y-117754693D01*
X196027204Y-117754691D01*
X196152143Y-117582725D01*
X196152142Y-117582725D01*
X196152146Y-117582721D01*
X196156609Y-117573959D01*
X196204583Y-117523164D01*
X196272403Y-117506368D01*
X196338539Y-117528904D01*
X196377581Y-117573961D01*
X196382046Y-117582725D01*
X196506985Y-117754691D01*
X196657308Y-117905014D01*
X196829274Y-118029953D01*
X196829276Y-118029954D01*
X196829279Y-118029956D01*
X197018683Y-118126462D01*
X197220852Y-118192151D01*
X197430808Y-118225405D01*
X197430809Y-118225405D01*
X197643381Y-118225405D01*
X197643382Y-118225405D01*
X197853338Y-118192151D01*
X198055507Y-118126462D01*
X198244911Y-118029956D01*
X198311490Y-117981584D01*
X198416881Y-117905014D01*
X198416883Y-117905011D01*
X198416887Y-117905009D01*
X198445414Y-117876482D01*
X198506737Y-117842997D01*
X198576429Y-117847981D01*
X198632362Y-117889853D01*
X198656779Y-117955317D01*
X198657095Y-117964163D01*
X198657095Y-127170405D01*
X198637410Y-127237444D01*
X198584606Y-127283199D01*
X198533095Y-127294405D01*
X126281095Y-127294405D01*
X126214056Y-127274720D01*
X126168301Y-127221916D01*
X126157095Y-127170405D01*
X126157095Y-122673616D01*
X146806595Y-122673616D01*
X146806595Y-122916193D01*
X146838256Y-123156690D01*
X146901042Y-123391009D01*
X146993868Y-123615110D01*
X146993871Y-123615117D01*
X147115159Y-123825194D01*
X147115161Y-123825197D01*
X147115162Y-123825198D01*
X147262828Y-124017641D01*
X147262834Y-124017648D01*
X147434351Y-124189165D01*
X147434357Y-124189170D01*
X147626806Y-124336841D01*
X147836883Y-124458129D01*
X148060995Y-124550959D01*
X148295306Y-124613743D01*
X148475681Y-124637489D01*
X148535806Y-124645405D01*
X148535807Y-124645405D01*
X148778384Y-124645405D01*
X148826483Y-124639072D01*
X149018884Y-124613743D01*
X149253195Y-124550959D01*
X149477307Y-124458129D01*
X149687384Y-124336841D01*
X149879833Y-124189170D01*
X150051360Y-124017643D01*
X150199031Y-123825194D01*
X150320319Y-123615117D01*
X150413149Y-123391005D01*
X150475933Y-123156694D01*
X150507595Y-122916193D01*
X150507595Y-122673617D01*
X150475933Y-122433116D01*
X150413149Y-122198805D01*
X150320319Y-121974693D01*
X150199031Y-121764616D01*
X150051360Y-121572167D01*
X150051355Y-121572161D01*
X149879838Y-121400644D01*
X149879831Y-121400638D01*
X149687388Y-121252972D01*
X149687387Y-121252971D01*
X149687384Y-121252969D01*
X149477307Y-121131681D01*
X149477300Y-121131678D01*
X149253199Y-121038852D01*
X149018880Y-120976066D01*
X148778384Y-120944405D01*
X148778383Y-120944405D01*
X148535807Y-120944405D01*
X148535806Y-120944405D01*
X148295309Y-120976066D01*
X148060990Y-121038852D01*
X147836889Y-121131678D01*
X147836880Y-121131682D01*
X147626801Y-121252972D01*
X147434358Y-121400638D01*
X147434351Y-121400644D01*
X147262834Y-121572161D01*
X147262828Y-121572168D01*
X147115162Y-121764611D01*
X146993872Y-121974690D01*
X146993868Y-121974699D01*
X146901042Y-122198800D01*
X146838256Y-122433119D01*
X146806595Y-122673616D01*
X126157095Y-122673616D01*
X126157095Y-116216058D01*
X131856595Y-116216058D01*
X131856595Y-116373751D01*
X131887356Y-116528394D01*
X131887359Y-116528406D01*
X131947697Y-116674077D01*
X131947704Y-116674090D01*
X131982399Y-116726014D01*
X132003277Y-116792691D01*
X131984793Y-116860072D01*
X131982399Y-116863796D01*
X131947704Y-116915719D01*
X131947697Y-116915732D01*
X131887359Y-117061403D01*
X131887356Y-117061415D01*
X131856595Y-117216058D01*
X131856595Y-117373751D01*
X131887356Y-117528394D01*
X131887359Y-117528406D01*
X131947697Y-117674077D01*
X131947704Y-117674090D01*
X132035305Y-117805193D01*
X132035308Y-117805197D01*
X132146802Y-117916691D01*
X132146806Y-117916694D01*
X132277909Y-118004295D01*
X132277922Y-118004302D01*
X132423593Y-118064640D01*
X132423598Y-118064642D01*
X132578248Y-118095404D01*
X132578251Y-118095405D01*
X132578253Y-118095405D01*
X132735939Y-118095405D01*
X132735940Y-118095404D01*
X132890592Y-118064642D01*
X133036274Y-118004299D01*
X133167384Y-117916694D01*
X133278884Y-117805194D01*
X133366489Y-117674084D01*
X133426832Y-117528402D01*
X133457595Y-117373747D01*
X133457595Y-117216063D01*
X133457595Y-117216060D01*
X133457594Y-117216058D01*
X133426833Y-117061415D01*
X133426832Y-117061408D01*
X133393606Y-116981192D01*
X133366491Y-116915730D01*
X133366489Y-116915727D01*
X133366489Y-116915726D01*
X133331789Y-116863794D01*
X133310911Y-116797120D01*
X133329395Y-116729740D01*
X133331771Y-116726041D01*
X133366489Y-116674084D01*
X133426832Y-116528402D01*
X133457595Y-116373747D01*
X133457595Y-116216063D01*
X133457595Y-116216060D01*
X133457594Y-116216058D01*
X133426833Y-116061415D01*
X133426832Y-116061408D01*
X133392899Y-115979486D01*
X133366492Y-115915732D01*
X133366485Y-115915719D01*
X133278884Y-115784616D01*
X133278881Y-115784612D01*
X133167387Y-115673118D01*
X133167383Y-115673115D01*
X133036280Y-115585514D01*
X133036267Y-115585507D01*
X132890596Y-115525169D01*
X132890584Y-115525166D01*
X132735940Y-115494405D01*
X132735937Y-115494405D01*
X132578253Y-115494405D01*
X132578250Y-115494405D01*
X132423605Y-115525166D01*
X132423593Y-115525169D01*
X132277922Y-115585507D01*
X132277909Y-115585514D01*
X132146806Y-115673115D01*
X132146802Y-115673118D01*
X132035308Y-115784612D01*
X132035305Y-115784616D01*
X131947704Y-115915719D01*
X131947697Y-115915732D01*
X131887359Y-116061403D01*
X131887356Y-116061415D01*
X131856595Y-116216058D01*
X126157095Y-116216058D01*
X126157095Y-114294905D01*
X128657095Y-114294905D01*
X132657095Y-114294905D01*
X132657095Y-111294905D01*
X128657095Y-111294905D01*
X128657095Y-114294905D01*
X126157095Y-114294905D01*
X126157095Y-104716058D01*
X129356595Y-104716058D01*
X129356595Y-104873751D01*
X129387356Y-105028394D01*
X129387359Y-105028406D01*
X129447697Y-105174077D01*
X129447704Y-105174090D01*
X129535305Y-105305193D01*
X129535308Y-105305197D01*
X129646802Y-105416691D01*
X129646805Y-105416693D01*
X129646806Y-105416694D01*
X129661425Y-105426462D01*
X129684384Y-105441803D01*
X129729188Y-105495416D01*
X129737895Y-105564741D01*
X129707740Y-105627768D01*
X129684384Y-105648007D01*
X129646802Y-105673118D01*
X129535308Y-105784612D01*
X129535305Y-105784616D01*
X129447704Y-105915719D01*
X129447697Y-105915732D01*
X129387359Y-106061403D01*
X129387356Y-106061415D01*
X129356595Y-106216058D01*
X129356595Y-106373751D01*
X129387356Y-106528394D01*
X129387359Y-106528406D01*
X129447697Y-106674077D01*
X129447704Y-106674090D01*
X129535305Y-106805193D01*
X129535308Y-106805197D01*
X129646802Y-106916691D01*
X129646806Y-106916694D01*
X129777909Y-107004295D01*
X129777922Y-107004302D01*
X129875948Y-107044905D01*
X129923598Y-107064642D01*
X130078248Y-107095404D01*
X130078251Y-107095405D01*
X130078253Y-107095405D01*
X130235939Y-107095405D01*
X130235940Y-107095404D01*
X130390592Y-107064642D01*
X130536274Y-107004299D01*
X130667384Y-106916694D01*
X130778884Y-106805194D01*
X130866489Y-106674084D01*
X130926832Y-106528402D01*
X130957595Y-106373747D01*
X130957595Y-106216063D01*
X130957595Y-106216060D01*
X130957594Y-106216058D01*
X130931324Y-106083992D01*
X130926832Y-106061408D01*
X130926623Y-106060903D01*
X130866492Y-105915732D01*
X130866485Y-105915719D01*
X130778884Y-105784616D01*
X130778881Y-105784612D01*
X130667387Y-105673118D01*
X130667379Y-105673112D01*
X130629807Y-105648007D01*
X130585001Y-105594395D01*
X130576294Y-105525070D01*
X130606448Y-105462043D01*
X130629807Y-105441803D01*
X130656374Y-105424050D01*
X130667384Y-105416694D01*
X130778884Y-105305194D01*
X130866489Y-105174084D01*
X130926832Y-105028402D01*
X130957595Y-104873747D01*
X130957595Y-104716063D01*
X130957595Y-104716060D01*
X130957594Y-104716058D01*
X130953071Y-104693319D01*
X130926832Y-104561408D01*
X130897728Y-104491144D01*
X130866492Y-104415732D01*
X130866485Y-104415719D01*
X130778884Y-104284616D01*
X130778881Y-104284612D01*
X130667387Y-104173118D01*
X130667383Y-104173115D01*
X130536280Y-104085514D01*
X130536267Y-104085507D01*
X130390596Y-104025169D01*
X130390584Y-104025166D01*
X130235940Y-103994405D01*
X130235937Y-103994405D01*
X130078253Y-103994405D01*
X130078250Y-103994405D01*
X129923605Y-104025166D01*
X129923593Y-104025169D01*
X129777922Y-104085507D01*
X129777909Y-104085514D01*
X129646806Y-104173115D01*
X129646802Y-104173118D01*
X129535308Y-104284612D01*
X129535305Y-104284616D01*
X129447704Y-104415719D01*
X129447697Y-104415732D01*
X129387359Y-104561403D01*
X129387356Y-104561415D01*
X129356595Y-104716058D01*
X126157095Y-104716058D01*
X126157095Y-102216058D01*
X127856595Y-102216058D01*
X127856595Y-102373751D01*
X127887356Y-102528394D01*
X127887359Y-102528406D01*
X127947697Y-102674077D01*
X127947704Y-102674090D01*
X127982399Y-102726014D01*
X128003277Y-102792691D01*
X127984793Y-102860072D01*
X127982399Y-102863796D01*
X127947704Y-102915719D01*
X127947697Y-102915732D01*
X127887359Y-103061403D01*
X127887356Y-103061415D01*
X127856595Y-103216058D01*
X127856595Y-103373751D01*
X127887356Y-103528394D01*
X127887359Y-103528406D01*
X127947697Y-103674077D01*
X127947704Y-103674090D01*
X128035305Y-103805193D01*
X128035308Y-103805197D01*
X128146802Y-103916691D01*
X128146806Y-103916694D01*
X128277909Y-104004295D01*
X128277922Y-104004302D01*
X128375948Y-104044905D01*
X128423598Y-104064642D01*
X128578248Y-104095404D01*
X128578251Y-104095405D01*
X128578253Y-104095405D01*
X128735939Y-104095405D01*
X128735940Y-104095404D01*
X128890592Y-104064642D01*
X129036274Y-104004299D01*
X129167384Y-103916694D01*
X129278884Y-103805194D01*
X129366489Y-103674084D01*
X129426832Y-103528402D01*
X129457595Y-103373747D01*
X129457595Y-103216063D01*
X129457595Y-103216060D01*
X129457594Y-103216058D01*
X132856595Y-103216058D01*
X132856595Y-103373751D01*
X132887356Y-103528394D01*
X132887359Y-103528406D01*
X132947697Y-103674077D01*
X132947704Y-103674090D01*
X133035305Y-103805193D01*
X133035308Y-103805197D01*
X133146802Y-103916691D01*
X133146805Y-103916693D01*
X133146806Y-103916694D01*
X133172314Y-103933738D01*
X133184384Y-103941803D01*
X133229188Y-103995416D01*
X133237895Y-104064741D01*
X133207740Y-104127768D01*
X133184384Y-104148007D01*
X133146802Y-104173118D01*
X133035308Y-104284612D01*
X133035305Y-104284616D01*
X132947704Y-104415719D01*
X132947697Y-104415732D01*
X132887359Y-104561403D01*
X132887356Y-104561415D01*
X132856595Y-104716058D01*
X132856595Y-104873751D01*
X132887356Y-105028394D01*
X132887359Y-105028406D01*
X132947697Y-105174077D01*
X132947704Y-105174090D01*
X133035305Y-105305193D01*
X133035308Y-105305197D01*
X133146802Y-105416691D01*
X133146805Y-105416693D01*
X133146806Y-105416694D01*
X133161425Y-105426462D01*
X133184384Y-105441803D01*
X133229188Y-105495416D01*
X133237895Y-105564741D01*
X133207740Y-105627768D01*
X133184384Y-105648007D01*
X133146802Y-105673118D01*
X133035308Y-105784612D01*
X133035305Y-105784616D01*
X132947704Y-105915719D01*
X132947697Y-105915732D01*
X132887359Y-106061403D01*
X132887356Y-106061415D01*
X132856595Y-106216058D01*
X132856595Y-106373751D01*
X132887356Y-106528394D01*
X132887359Y-106528406D01*
X132947697Y-106674077D01*
X132947704Y-106674090D01*
X133035305Y-106805193D01*
X133035308Y-106805197D01*
X133146802Y-106916691D01*
X133146805Y-106916693D01*
X133146806Y-106916694D01*
X133172314Y-106933738D01*
X133184384Y-106941803D01*
X133229188Y-106995416D01*
X133237895Y-107064741D01*
X133207740Y-107127768D01*
X133184384Y-107148007D01*
X133146802Y-107173118D01*
X133035308Y-107284612D01*
X133035305Y-107284616D01*
X132947704Y-107415719D01*
X132947697Y-107415732D01*
X132887359Y-107561403D01*
X132887356Y-107561415D01*
X132856595Y-107716058D01*
X132856595Y-107873751D01*
X132887356Y-108028394D01*
X132887359Y-108028406D01*
X132947697Y-108174077D01*
X132947704Y-108174090D01*
X132982399Y-108226014D01*
X133003277Y-108292691D01*
X132984793Y-108360072D01*
X132982399Y-108363796D01*
X132947704Y-108415719D01*
X132947697Y-108415732D01*
X132887359Y-108561403D01*
X132887356Y-108561415D01*
X132856595Y-108716058D01*
X132856595Y-108873751D01*
X132887356Y-109028394D01*
X132887359Y-109028406D01*
X132947697Y-109174077D01*
X132947704Y-109174090D01*
X133035305Y-109305193D01*
X133035308Y-109305197D01*
X133146802Y-109416691D01*
X133146805Y-109416693D01*
X133146806Y-109416694D01*
X133172314Y-109433738D01*
X133184384Y-109441803D01*
X133229188Y-109495416D01*
X133237895Y-109564741D01*
X133207740Y-109627768D01*
X133184384Y-109648007D01*
X133146802Y-109673118D01*
X133035308Y-109784612D01*
X133035305Y-109784616D01*
X132947704Y-109915719D01*
X132947697Y-109915732D01*
X132887359Y-110061403D01*
X132887356Y-110061415D01*
X132856595Y-110216058D01*
X132856595Y-110373751D01*
X132887356Y-110528394D01*
X132887359Y-110528406D01*
X132947697Y-110674077D01*
X132947704Y-110674090D01*
X133035305Y-110805193D01*
X133035308Y-110805197D01*
X133146802Y-110916691D01*
X133146806Y-110916694D01*
X133277909Y-111004295D01*
X133277922Y-111004302D01*
X133415790Y-111061408D01*
X133423598Y-111064642D01*
X133536421Y-111087084D01*
X133578248Y-111095404D01*
X133578251Y-111095405D01*
X133578253Y-111095405D01*
X133735939Y-111095405D01*
X133735940Y-111095404D01*
X133890592Y-111064642D01*
X134036274Y-111004299D01*
X134167384Y-110916694D01*
X134278884Y-110805194D01*
X134366489Y-110674084D01*
X134426832Y-110528402D01*
X134457595Y-110373747D01*
X134457595Y-110216063D01*
X134457595Y-110216060D01*
X134457594Y-110216058D01*
X134445007Y-110152778D01*
X134426832Y-110061408D01*
X134426830Y-110061403D01*
X134366492Y-109915732D01*
X134366485Y-109915719D01*
X134278884Y-109784616D01*
X134278881Y-109784612D01*
X134167387Y-109673118D01*
X134167379Y-109673112D01*
X134129807Y-109648007D01*
X134085001Y-109594395D01*
X134076294Y-109525070D01*
X134106448Y-109462043D01*
X134129807Y-109441803D01*
X134156374Y-109424050D01*
X134167384Y-109416694D01*
X134278884Y-109305194D01*
X134366489Y-109174084D01*
X134426832Y-109028402D01*
X134457595Y-108873747D01*
X134457595Y-108716063D01*
X134457595Y-108716060D01*
X134457594Y-108716058D01*
X134437432Y-108614699D01*
X134426832Y-108561408D01*
X134413161Y-108528402D01*
X134366491Y-108415730D01*
X134366489Y-108415727D01*
X134366489Y-108415726D01*
X134331789Y-108363794D01*
X134310911Y-108297120D01*
X134329395Y-108229740D01*
X134331771Y-108226041D01*
X134366489Y-108174084D01*
X134426832Y-108028402D01*
X134457595Y-107873747D01*
X134457595Y-107716063D01*
X134457595Y-107716060D01*
X134457594Y-107716058D01*
X134426832Y-107561408D01*
X134391713Y-107476622D01*
X134366492Y-107415732D01*
X134366485Y-107415719D01*
X134278884Y-107284616D01*
X134278881Y-107284612D01*
X134167387Y-107173118D01*
X134167379Y-107173112D01*
X134129807Y-107148007D01*
X134085001Y-107094395D01*
X134076294Y-107025070D01*
X134106448Y-106962043D01*
X134129807Y-106941803D01*
X134156374Y-106924050D01*
X134167384Y-106916694D01*
X134278884Y-106805194D01*
X134366489Y-106674084D01*
X134426832Y-106528402D01*
X134457595Y-106373747D01*
X134457595Y-106216063D01*
X134457595Y-106216060D01*
X134457594Y-106216058D01*
X134431324Y-106083992D01*
X134426832Y-106061408D01*
X134426623Y-106060903D01*
X134366492Y-105915732D01*
X134366485Y-105915719D01*
X134278884Y-105784616D01*
X134278881Y-105784612D01*
X134167387Y-105673118D01*
X134167379Y-105673112D01*
X134129807Y-105648007D01*
X134085001Y-105594395D01*
X134076294Y-105525070D01*
X134106448Y-105462043D01*
X134129807Y-105441803D01*
X134156374Y-105424050D01*
X134167384Y-105416694D01*
X134278884Y-105305194D01*
X134366489Y-105174084D01*
X134426832Y-105028402D01*
X134457595Y-104873747D01*
X134457595Y-104716063D01*
X134457595Y-104716060D01*
X134457594Y-104716058D01*
X134453071Y-104693319D01*
X134426832Y-104561408D01*
X134397728Y-104491144D01*
X134366492Y-104415732D01*
X134366485Y-104415719D01*
X134278884Y-104284616D01*
X134278881Y-104284612D01*
X134167387Y-104173118D01*
X134167379Y-104173112D01*
X134129807Y-104148007D01*
X134085001Y-104094395D01*
X134076294Y-104025070D01*
X134106448Y-103962043D01*
X134129807Y-103941803D01*
X134156374Y-103924050D01*
X134167384Y-103916694D01*
X134278884Y-103805194D01*
X134366489Y-103674084D01*
X134426832Y-103528402D01*
X134457595Y-103373747D01*
X134457595Y-103216063D01*
X134457595Y-103216060D01*
X134457594Y-103216058D01*
X134443419Y-103144795D01*
X134426832Y-103061408D01*
X134407771Y-103015391D01*
X134366492Y-102915732D01*
X134366485Y-102915719D01*
X134278884Y-102784616D01*
X134278881Y-102784612D01*
X134167387Y-102673118D01*
X134167383Y-102673115D01*
X134036280Y-102585514D01*
X134036267Y-102585507D01*
X133890596Y-102525169D01*
X133890584Y-102525166D01*
X133735940Y-102494405D01*
X133735937Y-102494405D01*
X133578253Y-102494405D01*
X133578250Y-102494405D01*
X133423605Y-102525166D01*
X133423593Y-102525169D01*
X133277922Y-102585507D01*
X133277909Y-102585514D01*
X133146806Y-102673115D01*
X133146802Y-102673118D01*
X133035308Y-102784612D01*
X133035305Y-102784616D01*
X132947704Y-102915719D01*
X132947697Y-102915732D01*
X132887359Y-103061403D01*
X132887356Y-103061415D01*
X132856595Y-103216058D01*
X129457594Y-103216058D01*
X129443419Y-103144795D01*
X129426832Y-103061408D01*
X129407771Y-103015391D01*
X129366491Y-102915730D01*
X129366489Y-102915727D01*
X129366489Y-102915726D01*
X129331789Y-102863794D01*
X129310911Y-102797120D01*
X129329395Y-102729740D01*
X129331771Y-102726041D01*
X129366489Y-102674084D01*
X129426832Y-102528402D01*
X129457595Y-102373747D01*
X129457595Y-102216063D01*
X129457595Y-102216060D01*
X129457594Y-102216058D01*
X129426833Y-102061415D01*
X129426832Y-102061408D01*
X129426830Y-102061403D01*
X129366492Y-101915732D01*
X129366485Y-101915719D01*
X129278884Y-101784616D01*
X129278881Y-101784612D01*
X129167387Y-101673118D01*
X129167383Y-101673115D01*
X129036280Y-101585514D01*
X129036267Y-101585507D01*
X128890596Y-101525169D01*
X128890584Y-101525166D01*
X128735940Y-101494405D01*
X128735937Y-101494405D01*
X128578253Y-101494405D01*
X128578250Y-101494405D01*
X128423605Y-101525166D01*
X128423593Y-101525169D01*
X128277922Y-101585507D01*
X128277909Y-101585514D01*
X128146806Y-101673115D01*
X128146802Y-101673118D01*
X128035308Y-101784612D01*
X128035305Y-101784616D01*
X127947704Y-101915719D01*
X127947697Y-101915732D01*
X127887359Y-102061403D01*
X127887356Y-102061415D01*
X127856595Y-102216058D01*
X126157095Y-102216058D01*
X126157095Y-94794905D01*
X115281095Y-94794905D01*
X115214056Y-94775220D01*
X115168301Y-94722416D01*
X115157095Y-94670905D01*
X115157095Y-91119193D01*
X115176780Y-91052154D01*
X115229584Y-91006399D01*
X115298742Y-90996455D01*
X115362298Y-91025480D01*
X115381411Y-91046306D01*
X115385549Y-91052001D01*
X115518999Y-91185451D01*
X115671682Y-91296382D01*
X115839839Y-91382062D01*
X116019328Y-91440382D01*
X116089229Y-91451453D01*
X116205727Y-91469905D01*
X116205732Y-91469905D01*
X116394463Y-91469905D01*
X116498015Y-91453503D01*
X116580862Y-91440382D01*
X116760351Y-91382062D01*
X116928508Y-91296382D01*
X117081191Y-91185451D01*
X117214641Y-91052001D01*
X117325572Y-90899318D01*
X117411252Y-90731161D01*
X117469572Y-90551672D01*
X117483768Y-90462043D01*
X117499095Y-90365273D01*
X117499095Y-90176581D01*
X120181595Y-90176581D01*
X120181595Y-90365228D01*
X120211106Y-90551555D01*
X120269399Y-90730966D01*
X120269400Y-90730968D01*
X120355047Y-90899058D01*
X120373284Y-90924160D01*
X120373285Y-90924160D01*
X120942447Y-90354998D01*
X120965887Y-90442476D01*
X121024406Y-90543835D01*
X121107165Y-90626594D01*
X121208524Y-90685113D01*
X121296000Y-90708552D01*
X120726838Y-91277713D01*
X120726838Y-91277714D01*
X120751939Y-91295951D01*
X120920030Y-91381599D01*
X120920033Y-91381600D01*
X121099444Y-91439893D01*
X121285772Y-91469405D01*
X121474418Y-91469405D01*
X121660745Y-91439893D01*
X121840156Y-91381600D01*
X121840159Y-91381599D01*
X122008246Y-91295953D01*
X122033350Y-91277713D01*
X122033351Y-91277713D01*
X121464190Y-90708552D01*
X121551666Y-90685113D01*
X121653025Y-90626594D01*
X121735784Y-90543835D01*
X121794303Y-90442476D01*
X121817742Y-90354999D01*
X122386903Y-90924161D01*
X122386903Y-90924160D01*
X122405143Y-90899056D01*
X122490789Y-90730969D01*
X122490790Y-90730966D01*
X122549083Y-90551555D01*
X122578595Y-90365228D01*
X122578595Y-90176581D01*
X122549083Y-89990254D01*
X122490790Y-89810843D01*
X122490789Y-89810840D01*
X122405141Y-89642749D01*
X122386904Y-89617648D01*
X122386903Y-89617648D01*
X121817742Y-90186809D01*
X121794303Y-90099334D01*
X121735784Y-89997975D01*
X121653025Y-89915216D01*
X121551666Y-89856697D01*
X121464189Y-89833257D01*
X122033350Y-89264095D01*
X122033350Y-89264094D01*
X122008248Y-89245857D01*
X121840158Y-89160210D01*
X121840156Y-89160209D01*
X121660745Y-89101916D01*
X121474418Y-89072405D01*
X121285772Y-89072405D01*
X121099444Y-89101916D01*
X120920033Y-89160209D01*
X120920031Y-89160210D01*
X120751939Y-89245858D01*
X120751934Y-89245862D01*
X120726838Y-89264093D01*
X120726838Y-89264096D01*
X121296001Y-89833257D01*
X121208524Y-89856697D01*
X121107165Y-89915216D01*
X121024406Y-89997975D01*
X120965887Y-90099334D01*
X120942447Y-90186810D01*
X120373286Y-89617648D01*
X120373283Y-89617648D01*
X120355052Y-89642744D01*
X120355048Y-89642749D01*
X120269400Y-89810841D01*
X120269399Y-89810843D01*
X120211106Y-89990254D01*
X120181595Y-90176581D01*
X117499095Y-90176581D01*
X117499095Y-90176536D01*
X117475631Y-90028394D01*
X117469572Y-89990138D01*
X117411252Y-89810649D01*
X117325572Y-89642492D01*
X117214641Y-89489809D01*
X117081191Y-89356359D01*
X116928508Y-89245428D01*
X116760351Y-89159748D01*
X116580862Y-89101428D01*
X116580860Y-89101427D01*
X116580858Y-89101427D01*
X116394463Y-89071905D01*
X116394458Y-89071905D01*
X116205732Y-89071905D01*
X116205727Y-89071905D01*
X116019331Y-89101427D01*
X115839836Y-89159749D01*
X115671681Y-89245428D01*
X115617750Y-89284612D01*
X115518999Y-89356359D01*
X115518997Y-89356361D01*
X115518996Y-89356361D01*
X115385551Y-89489806D01*
X115385551Y-89489807D01*
X115385549Y-89489809D01*
X115381411Y-89495505D01*
X115326079Y-89538169D01*
X115256466Y-89544145D01*
X115194672Y-89511537D01*
X115160317Y-89450698D01*
X115157095Y-89422616D01*
X115157095Y-88216058D01*
X131856595Y-88216058D01*
X131856595Y-88373751D01*
X131887356Y-88528394D01*
X131887359Y-88528406D01*
X131947697Y-88674077D01*
X131947704Y-88674090D01*
X132035305Y-88805193D01*
X132035308Y-88805197D01*
X132146802Y-88916691D01*
X132146805Y-88916693D01*
X132146806Y-88916694D01*
X132172314Y-88933738D01*
X132184384Y-88941803D01*
X132229188Y-88995416D01*
X132237895Y-89064741D01*
X132207740Y-89127768D01*
X132184384Y-89148007D01*
X132146802Y-89173118D01*
X132035308Y-89284612D01*
X132035305Y-89284616D01*
X131947704Y-89415719D01*
X131947697Y-89415732D01*
X131887359Y-89561403D01*
X131887356Y-89561415D01*
X131856595Y-89716058D01*
X131856595Y-89873751D01*
X131887356Y-90028394D01*
X131887359Y-90028406D01*
X131947697Y-90174077D01*
X131947704Y-90174090D01*
X132035305Y-90305193D01*
X132035308Y-90305197D01*
X132146802Y-90416691D01*
X132146805Y-90416693D01*
X132146806Y-90416694D01*
X132172314Y-90433738D01*
X132184384Y-90441803D01*
X132229188Y-90495416D01*
X132237895Y-90564741D01*
X132207740Y-90627768D01*
X132184384Y-90648007D01*
X132146802Y-90673118D01*
X132035308Y-90784612D01*
X132035305Y-90784616D01*
X131947704Y-90915719D01*
X131947697Y-90915732D01*
X131887359Y-91061403D01*
X131887356Y-91061415D01*
X131856595Y-91216058D01*
X131856595Y-91373751D01*
X131887356Y-91528394D01*
X131887359Y-91528406D01*
X131947697Y-91674077D01*
X131947704Y-91674090D01*
X132035305Y-91805193D01*
X132035308Y-91805197D01*
X132146802Y-91916691D01*
X132146805Y-91916693D01*
X132146806Y-91916694D01*
X132172314Y-91933738D01*
X132184384Y-91941803D01*
X132229188Y-91995416D01*
X132237895Y-92064741D01*
X132207740Y-92127768D01*
X132184384Y-92148007D01*
X132146802Y-92173118D01*
X132035308Y-92284612D01*
X132035305Y-92284616D01*
X131947704Y-92415719D01*
X131947697Y-92415732D01*
X131887359Y-92561403D01*
X131887356Y-92561415D01*
X131856595Y-92716058D01*
X131856595Y-92873751D01*
X131887356Y-93028394D01*
X131887359Y-93028406D01*
X131947697Y-93174077D01*
X131947704Y-93174090D01*
X132035305Y-93305193D01*
X132035308Y-93305197D01*
X132146802Y-93416691D01*
X132146805Y-93416693D01*
X132146806Y-93416694D01*
X132172314Y-93433738D01*
X132184384Y-93441803D01*
X132229188Y-93495416D01*
X132237895Y-93564741D01*
X132207740Y-93627768D01*
X132184384Y-93648007D01*
X132146802Y-93673118D01*
X132035308Y-93784612D01*
X132035305Y-93784616D01*
X131947704Y-93915719D01*
X131947697Y-93915732D01*
X131887359Y-94061403D01*
X131887356Y-94061415D01*
X131856595Y-94216058D01*
X131856595Y-94373751D01*
X131887356Y-94528394D01*
X131887359Y-94528406D01*
X131947697Y-94674077D01*
X131947704Y-94674090D01*
X132035305Y-94805193D01*
X132035308Y-94805197D01*
X132146802Y-94916691D01*
X132146805Y-94916693D01*
X132146806Y-94916694D01*
X132168926Y-94931474D01*
X132184384Y-94941803D01*
X132229188Y-94995416D01*
X132237895Y-95064741D01*
X132207740Y-95127768D01*
X132184384Y-95148007D01*
X132146802Y-95173118D01*
X132035308Y-95284612D01*
X132035305Y-95284616D01*
X131947704Y-95415719D01*
X131947697Y-95415732D01*
X131887359Y-95561403D01*
X131887356Y-95561415D01*
X131856595Y-95716058D01*
X131856595Y-95873751D01*
X131887356Y-96028394D01*
X131887359Y-96028406D01*
X131947697Y-96174077D01*
X131947704Y-96174090D01*
X132035305Y-96305193D01*
X132035308Y-96305197D01*
X132146802Y-96416691D01*
X132146805Y-96416693D01*
X132146806Y-96416694D01*
X132172314Y-96433738D01*
X132184384Y-96441803D01*
X132229188Y-96495416D01*
X132237895Y-96564741D01*
X132207740Y-96627768D01*
X132184384Y-96648007D01*
X132146802Y-96673118D01*
X132035308Y-96784612D01*
X132035305Y-96784616D01*
X131947704Y-96915719D01*
X131947697Y-96915732D01*
X131887359Y-97061403D01*
X131887356Y-97061415D01*
X131856595Y-97216058D01*
X131856595Y-97373751D01*
X131887356Y-97528394D01*
X131887359Y-97528406D01*
X131947697Y-97674077D01*
X131947704Y-97674090D01*
X132035305Y-97805193D01*
X132035308Y-97805197D01*
X132146802Y-97916691D01*
X132146805Y-97916693D01*
X132146806Y-97916694D01*
X132172314Y-97933738D01*
X132184384Y-97941803D01*
X132229188Y-97995416D01*
X132237895Y-98064741D01*
X132207740Y-98127768D01*
X132184384Y-98148007D01*
X132146802Y-98173118D01*
X132035308Y-98284612D01*
X132035305Y-98284616D01*
X131947704Y-98415719D01*
X131947697Y-98415732D01*
X131887359Y-98561403D01*
X131887356Y-98561415D01*
X131856595Y-98716058D01*
X131856595Y-98873751D01*
X131887356Y-99028394D01*
X131887359Y-99028406D01*
X131947697Y-99174077D01*
X131947704Y-99174090D01*
X132035305Y-99305193D01*
X132035308Y-99305197D01*
X132146802Y-99416691D01*
X132146806Y-99416694D01*
X132277909Y-99504295D01*
X132277922Y-99504302D01*
X132404074Y-99556555D01*
X132423598Y-99564642D01*
X132578248Y-99595404D01*
X132578251Y-99595405D01*
X132578253Y-99595405D01*
X132735939Y-99595405D01*
X132735940Y-99595404D01*
X132890592Y-99564642D01*
X133036274Y-99504299D01*
X133167384Y-99416694D01*
X133278884Y-99305194D01*
X133366489Y-99174084D01*
X133426832Y-99028402D01*
X133457595Y-98873747D01*
X133457595Y-98716063D01*
X133457595Y-98716060D01*
X133457594Y-98716058D01*
X133441123Y-98633254D01*
X133426832Y-98561408D01*
X133376918Y-98440903D01*
X133366492Y-98415732D01*
X133366485Y-98415719D01*
X133278884Y-98284616D01*
X133278881Y-98284612D01*
X133167387Y-98173118D01*
X133167379Y-98173112D01*
X133129807Y-98148007D01*
X133085001Y-98094395D01*
X133076294Y-98025070D01*
X133106448Y-97962043D01*
X133129807Y-97941803D01*
X133156374Y-97924050D01*
X133167384Y-97916694D01*
X133278884Y-97805194D01*
X133366489Y-97674084D01*
X133426832Y-97528402D01*
X133457595Y-97373747D01*
X133457595Y-97216063D01*
X133457595Y-97216060D01*
X133457594Y-97216058D01*
X133426833Y-97061415D01*
X133426832Y-97061408D01*
X133426830Y-97061403D01*
X133366492Y-96915732D01*
X133366485Y-96915719D01*
X133278884Y-96784616D01*
X133278881Y-96784612D01*
X133167387Y-96673118D01*
X133167379Y-96673112D01*
X133129807Y-96648007D01*
X133085001Y-96594395D01*
X133076294Y-96525070D01*
X133106448Y-96462043D01*
X133129807Y-96441803D01*
X133156374Y-96424050D01*
X133167384Y-96416694D01*
X133278884Y-96305194D01*
X133366489Y-96174084D01*
X133426832Y-96028402D01*
X133457595Y-95873747D01*
X133457595Y-95716063D01*
X133457595Y-95716060D01*
X133457594Y-95716058D01*
X133442134Y-95638335D01*
X133426832Y-95561408D01*
X133385894Y-95462573D01*
X133366492Y-95415732D01*
X133366485Y-95415719D01*
X133278884Y-95284616D01*
X133278881Y-95284612D01*
X133167387Y-95173118D01*
X133167379Y-95173112D01*
X133129807Y-95148007D01*
X133085001Y-95094395D01*
X133076294Y-95025070D01*
X133106448Y-94962043D01*
X133129807Y-94941803D01*
X133156374Y-94924050D01*
X133167384Y-94916694D01*
X133278884Y-94805194D01*
X133366489Y-94674084D01*
X133426832Y-94528402D01*
X133457595Y-94373747D01*
X133457595Y-94216063D01*
X133457595Y-94216060D01*
X133457594Y-94216058D01*
X133438724Y-94121192D01*
X133426832Y-94061408D01*
X133426830Y-94061403D01*
X133366492Y-93915732D01*
X133366485Y-93915719D01*
X133278884Y-93784616D01*
X133278881Y-93784612D01*
X133167387Y-93673118D01*
X133167379Y-93673112D01*
X133129807Y-93648007D01*
X133085001Y-93594395D01*
X133076294Y-93525070D01*
X133106448Y-93462043D01*
X133129807Y-93441803D01*
X133156374Y-93424050D01*
X133167384Y-93416694D01*
X133278884Y-93305194D01*
X133366489Y-93174084D01*
X133426832Y-93028402D01*
X133457595Y-92873747D01*
X133457595Y-92716063D01*
X133457595Y-92716060D01*
X133457594Y-92716058D01*
X133449121Y-92673461D01*
X133426832Y-92561408D01*
X133426830Y-92561403D01*
X133366492Y-92415732D01*
X133366485Y-92415719D01*
X133278884Y-92284616D01*
X133278881Y-92284612D01*
X133167387Y-92173118D01*
X133167379Y-92173112D01*
X133129807Y-92148007D01*
X133085001Y-92094395D01*
X133076294Y-92025070D01*
X133106448Y-91962043D01*
X133129807Y-91941803D01*
X133156374Y-91924050D01*
X133167384Y-91916694D01*
X133278884Y-91805194D01*
X133366489Y-91674084D01*
X133426832Y-91528402D01*
X133457595Y-91373747D01*
X133457595Y-91216063D01*
X133457595Y-91216060D01*
X133457594Y-91216058D01*
X133426833Y-91061415D01*
X133426832Y-91061408D01*
X133399928Y-90996455D01*
X133366492Y-90915732D01*
X133366485Y-90915719D01*
X133278884Y-90784616D01*
X133278881Y-90784612D01*
X133167387Y-90673118D01*
X133167379Y-90673112D01*
X133129807Y-90648007D01*
X133085001Y-90594395D01*
X133076294Y-90525070D01*
X133106448Y-90462043D01*
X133129807Y-90441803D01*
X133156374Y-90424050D01*
X133167384Y-90416694D01*
X133278884Y-90305194D01*
X133366489Y-90174084D01*
X133379615Y-90142396D01*
X133426830Y-90028406D01*
X133426832Y-90028402D01*
X133457595Y-89873747D01*
X133457595Y-89716063D01*
X133457595Y-89716060D01*
X133457594Y-89716058D01*
X133442961Y-89642492D01*
X133426832Y-89561408D01*
X133426830Y-89561403D01*
X133366492Y-89415732D01*
X133366485Y-89415719D01*
X133278884Y-89284616D01*
X133278881Y-89284612D01*
X133167387Y-89173118D01*
X133167379Y-89173112D01*
X133129807Y-89148007D01*
X133085001Y-89094395D01*
X133076294Y-89025070D01*
X133106448Y-88962043D01*
X133129807Y-88941803D01*
X133156374Y-88924050D01*
X133167384Y-88916694D01*
X133278884Y-88805194D01*
X133366489Y-88674084D01*
X133426832Y-88528402D01*
X133457595Y-88373747D01*
X133457595Y-88216063D01*
X133457595Y-88216060D01*
X133457594Y-88216058D01*
X133426833Y-88061415D01*
X133426832Y-88061408D01*
X133390622Y-87973988D01*
X133366492Y-87915732D01*
X133366485Y-87915719D01*
X133278884Y-87784616D01*
X133278881Y-87784612D01*
X133167387Y-87673118D01*
X133167383Y-87673115D01*
X133036280Y-87585514D01*
X133036267Y-87585507D01*
X132890596Y-87525169D01*
X132890584Y-87525166D01*
X132735940Y-87494405D01*
X132735937Y-87494405D01*
X132578253Y-87494405D01*
X132578250Y-87494405D01*
X132423605Y-87525166D01*
X132423593Y-87525169D01*
X132277922Y-87585507D01*
X132277909Y-87585514D01*
X132146806Y-87673115D01*
X132146802Y-87673118D01*
X132035308Y-87784612D01*
X132035305Y-87784616D01*
X131947704Y-87915719D01*
X131947697Y-87915732D01*
X131887359Y-88061403D01*
X131887356Y-88061415D01*
X131856595Y-88216058D01*
X115157095Y-88216058D01*
X115157095Y-72673616D01*
X146806595Y-72673616D01*
X146806595Y-72916193D01*
X146838256Y-73156690D01*
X146901042Y-73391009D01*
X146993868Y-73615110D01*
X146993871Y-73615117D01*
X147115159Y-73825194D01*
X147115161Y-73825197D01*
X147115162Y-73825198D01*
X147262828Y-74017641D01*
X147262834Y-74017648D01*
X147434351Y-74189165D01*
X147434357Y-74189170D01*
X147626806Y-74336841D01*
X147836883Y-74458129D01*
X148060995Y-74550959D01*
X148295306Y-74613743D01*
X148475681Y-74637489D01*
X148535806Y-74645405D01*
X148535807Y-74645405D01*
X148778384Y-74645405D01*
X148826483Y-74639072D01*
X149018884Y-74613743D01*
X149253195Y-74550959D01*
X149477307Y-74458129D01*
X149687384Y-74336841D01*
X149879833Y-74189170D01*
X150051360Y-74017643D01*
X150199031Y-73825194D01*
X150320319Y-73615117D01*
X150413149Y-73391005D01*
X150475933Y-73156694D01*
X150507595Y-72916193D01*
X150507595Y-72673617D01*
X150475933Y-72433116D01*
X150413149Y-72198805D01*
X150320319Y-71974693D01*
X150199031Y-71764616D01*
X150051360Y-71572167D01*
X150051355Y-71572161D01*
X149879838Y-71400644D01*
X149879831Y-71400638D01*
X149687388Y-71252972D01*
X149687387Y-71252971D01*
X149687384Y-71252969D01*
X149477307Y-71131681D01*
X149477300Y-71131678D01*
X149253199Y-71038852D01*
X149018880Y-70976066D01*
X148778384Y-70944405D01*
X148778383Y-70944405D01*
X148535807Y-70944405D01*
X148535806Y-70944405D01*
X148295309Y-70976066D01*
X148060990Y-71038852D01*
X147836889Y-71131678D01*
X147836880Y-71131682D01*
X147626801Y-71252972D01*
X147434358Y-71400638D01*
X147434351Y-71400644D01*
X147262834Y-71572161D01*
X147262828Y-71572168D01*
X147115162Y-71764611D01*
X146993872Y-71974690D01*
X146993868Y-71974699D01*
X146901042Y-72198800D01*
X146838256Y-72433119D01*
X146806595Y-72673616D01*
X115157095Y-72673616D01*
X115157095Y-68419405D01*
X115176780Y-68352366D01*
X115229584Y-68306611D01*
X115281095Y-68295405D01*
X198533095Y-68295405D01*
X198600134Y-68315090D01*
G37*
%TD.AperFunction*%
%TA.AperFunction,Conductor*%
G36*
X184371170Y-114527898D02*
G01*
X184436996Y-114641912D01*
X184530088Y-114735004D01*
X184644102Y-114800830D01*
X184707685Y-114817867D01*
X184075377Y-115450174D01*
X184075377Y-115450175D01*
X184129547Y-115489531D01*
X184129546Y-115489531D01*
X184138590Y-115494139D01*
X184189387Y-115542113D01*
X184206182Y-115609934D01*
X184183645Y-115676069D01*
X184138594Y-115715107D01*
X184129277Y-115719854D01*
X183957308Y-115844795D01*
X183806985Y-115995118D01*
X183682044Y-116167087D01*
X183677579Y-116175851D01*
X183629604Y-116226647D01*
X183561783Y-116243441D01*
X183495648Y-116220903D01*
X183456611Y-116175851D01*
X183452145Y-116167087D01*
X183327204Y-115995118D01*
X183176881Y-115844795D01*
X183004915Y-115719856D01*
X183004210Y-115719496D01*
X182996149Y-115715390D01*
X182945354Y-115667417D01*
X182928558Y-115599597D01*
X182951094Y-115533461D01*
X182996149Y-115494420D01*
X183004911Y-115489956D01*
X183059667Y-115450174D01*
X183176881Y-115365014D01*
X183176883Y-115365011D01*
X183176887Y-115365009D01*
X183327199Y-115214697D01*
X183327201Y-115214693D01*
X183327204Y-115214691D01*
X183412985Y-115096622D01*
X183452146Y-115042721D01*
X183456888Y-115033413D01*
X183504858Y-114982616D01*
X183572678Y-114965816D01*
X183638814Y-114988350D01*
X183677858Y-115033405D01*
X183682468Y-115042452D01*
X183721823Y-115096621D01*
X184354132Y-114464313D01*
X184371170Y-114527898D01*
G37*
%TD.AperFunction*%
%TA.AperFunction,Conductor*%
G36*
X185952365Y-115096622D02*
G01*
X185952365Y-115096621D01*
X185991717Y-115042460D01*
X185996327Y-115033412D01*
X186044300Y-114982614D01*
X186112120Y-114965817D01*
X186178256Y-114988352D01*
X186217299Y-115033409D01*
X186222044Y-115042722D01*
X186346985Y-115214691D01*
X186497308Y-115365014D01*
X186669277Y-115489955D01*
X186678041Y-115494421D01*
X186728837Y-115542396D01*
X186745631Y-115610217D01*
X186723093Y-115676352D01*
X186678041Y-115715389D01*
X186669277Y-115719854D01*
X186497308Y-115844795D01*
X186346985Y-115995118D01*
X186222044Y-116167087D01*
X186217579Y-116175851D01*
X186169604Y-116226647D01*
X186101783Y-116243441D01*
X186035648Y-116220903D01*
X185996611Y-116175851D01*
X185992145Y-116167087D01*
X185867204Y-115995118D01*
X185716881Y-115844795D01*
X185544912Y-115719854D01*
X185535599Y-115715109D01*
X185484802Y-115667135D01*
X185468007Y-115599314D01*
X185490544Y-115533179D01*
X185535602Y-115494137D01*
X185544650Y-115489527D01*
X185598811Y-115450175D01*
X185598812Y-115450175D01*
X184966503Y-114817867D01*
X185030088Y-114800830D01*
X185144102Y-114735004D01*
X185237194Y-114641912D01*
X185303020Y-114527898D01*
X185320057Y-114464313D01*
X185952365Y-115096622D01*
G37*
%TD.AperFunction*%
%TA.AperFunction,Conductor*%
G36*
X183638539Y-112448904D02*
G01*
X183677581Y-112493961D01*
X183682046Y-112502725D01*
X183806985Y-112674691D01*
X183957308Y-112825014D01*
X184129274Y-112949953D01*
X184129276Y-112949954D01*
X184129279Y-112949956D01*
X184138588Y-112954699D01*
X184189385Y-113002671D01*
X184206182Y-113070492D01*
X184183647Y-113136627D01*
X184138600Y-113175665D01*
X184129541Y-113180281D01*
X184129535Y-113180285D01*
X184075377Y-113219632D01*
X184075377Y-113219633D01*
X184707686Y-113851942D01*
X184644102Y-113868980D01*
X184530088Y-113934806D01*
X184436996Y-114027898D01*
X184371170Y-114141912D01*
X184354132Y-114205496D01*
X183721823Y-113573187D01*
X183721822Y-113573187D01*
X183682475Y-113627345D01*
X183682471Y-113627351D01*
X183677855Y-113636410D01*
X183629876Y-113687202D01*
X183562054Y-113703992D01*
X183495921Y-113681448D01*
X183456889Y-113636398D01*
X183452146Y-113627089D01*
X183452144Y-113627086D01*
X183452143Y-113627084D01*
X183327204Y-113455118D01*
X183176881Y-113304795D01*
X183004915Y-113179856D01*
X182996695Y-113175668D01*
X182996149Y-113175390D01*
X182945354Y-113127417D01*
X182928558Y-113059597D01*
X182951094Y-112993461D01*
X182996149Y-112954420D01*
X183004911Y-112949956D01*
X183052025Y-112915726D01*
X183176881Y-112825014D01*
X183176883Y-112825011D01*
X183176887Y-112825009D01*
X183327199Y-112674697D01*
X183327201Y-112674693D01*
X183327204Y-112674691D01*
X183452143Y-112502725D01*
X183452142Y-112502725D01*
X183452146Y-112502721D01*
X183456609Y-112493959D01*
X183504583Y-112443164D01*
X183572403Y-112426368D01*
X183638539Y-112448904D01*
G37*
%TD.AperFunction*%
%TA.AperFunction,Conductor*%
G36*
X186124321Y-112430429D02*
G01*
X186136905Y-112429890D01*
X186156769Y-112441486D01*
X186178539Y-112448904D01*
X186187814Y-112459608D01*
X186197246Y-112465114D01*
X186217581Y-112493961D01*
X186222046Y-112502725D01*
X186346985Y-112674691D01*
X186497308Y-112825014D01*
X186669277Y-112949955D01*
X186678041Y-112954421D01*
X186728837Y-113002396D01*
X186745631Y-113070217D01*
X186723093Y-113136352D01*
X186678041Y-113175389D01*
X186669277Y-113179854D01*
X186497308Y-113304795D01*
X186346985Y-113455118D01*
X186222044Y-113627087D01*
X186217297Y-113636404D01*
X186169322Y-113687198D01*
X186101500Y-113703992D01*
X186035366Y-113681453D01*
X185996329Y-113636400D01*
X185991721Y-113627357D01*
X185952365Y-113573187D01*
X185952364Y-113573187D01*
X185320057Y-114205495D01*
X185303020Y-114141912D01*
X185237194Y-114027898D01*
X185144102Y-113934806D01*
X185030088Y-113868980D01*
X184966504Y-113851942D01*
X185598811Y-113219633D01*
X185544642Y-113180278D01*
X185544642Y-113180277D01*
X185535595Y-113175668D01*
X185484801Y-113127693D01*
X185468007Y-113059871D01*
X185490546Y-112993737D01*
X185535603Y-112954698D01*
X185544911Y-112949956D01*
X185631242Y-112887233D01*
X185716881Y-112825014D01*
X185716883Y-112825011D01*
X185716887Y-112825009D01*
X185867199Y-112674697D01*
X185867201Y-112674693D01*
X185867204Y-112674691D01*
X185992143Y-112502725D01*
X185992142Y-112502725D01*
X185992146Y-112502721D01*
X185996609Y-112493959D01*
X186005255Y-112484805D01*
X186009992Y-112473137D01*
X186028791Y-112459884D01*
X186044583Y-112443164D01*
X186056805Y-112440136D01*
X186067099Y-112432881D01*
X186090080Y-112431896D01*
X186112403Y-112426368D01*
X186124321Y-112430429D01*
G37*
%TD.AperFunction*%
%TA.AperFunction,Conductor*%
G36*
X183638539Y-109908904D02*
G01*
X183677581Y-109953961D01*
X183682046Y-109962725D01*
X183806985Y-110134691D01*
X183957308Y-110285014D01*
X184129277Y-110409955D01*
X184138041Y-110414421D01*
X184188837Y-110462396D01*
X184205631Y-110530217D01*
X184183093Y-110596352D01*
X184138041Y-110635389D01*
X184129277Y-110639854D01*
X183957308Y-110764795D01*
X183806985Y-110915118D01*
X183682044Y-111087087D01*
X183677579Y-111095851D01*
X183629604Y-111146647D01*
X183561783Y-111163441D01*
X183495648Y-111140903D01*
X183456611Y-111095851D01*
X183452145Y-111087087D01*
X183327204Y-110915118D01*
X183176881Y-110764795D01*
X183004915Y-110639856D01*
X183004210Y-110639496D01*
X182996149Y-110635390D01*
X182945354Y-110587417D01*
X182928558Y-110519597D01*
X182951094Y-110453461D01*
X182996149Y-110414420D01*
X183004911Y-110409956D01*
X183054749Y-110373747D01*
X183176881Y-110285014D01*
X183176883Y-110285011D01*
X183176887Y-110285009D01*
X183327199Y-110134697D01*
X183327201Y-110134693D01*
X183327204Y-110134691D01*
X183452143Y-109962725D01*
X183452142Y-109962725D01*
X183452146Y-109962721D01*
X183456609Y-109953959D01*
X183504583Y-109903164D01*
X183572403Y-109886368D01*
X183638539Y-109908904D01*
G37*
%TD.AperFunction*%
%TA.AperFunction,Conductor*%
G36*
X148811170Y-106907898D02*
G01*
X148876996Y-107021912D01*
X148970088Y-107115004D01*
X149084102Y-107180830D01*
X149147685Y-107197867D01*
X148515377Y-107830174D01*
X148515377Y-107830175D01*
X148569547Y-107869531D01*
X148569546Y-107869531D01*
X148578590Y-107874139D01*
X148629387Y-107922113D01*
X148646182Y-107989934D01*
X148623645Y-108056069D01*
X148578594Y-108095107D01*
X148569277Y-108099854D01*
X148397308Y-108224795D01*
X148246985Y-108375118D01*
X148122044Y-108547087D01*
X148117579Y-108555851D01*
X148069604Y-108606647D01*
X148001783Y-108623441D01*
X147935648Y-108600903D01*
X147896611Y-108555851D01*
X147892145Y-108547087D01*
X147767204Y-108375118D01*
X147616881Y-108224795D01*
X147444915Y-108099856D01*
X147444210Y-108099496D01*
X147436149Y-108095390D01*
X147385354Y-108047417D01*
X147368558Y-107979597D01*
X147391094Y-107913461D01*
X147436149Y-107874420D01*
X147444911Y-107869956D01*
X147499667Y-107830174D01*
X147616881Y-107745014D01*
X147616883Y-107745011D01*
X147616887Y-107745009D01*
X147767199Y-107594697D01*
X147767201Y-107594693D01*
X147767204Y-107594691D01*
X147852985Y-107476622D01*
X147892146Y-107422721D01*
X147896888Y-107413413D01*
X147944858Y-107362616D01*
X148012678Y-107345816D01*
X148078814Y-107368350D01*
X148117858Y-107413405D01*
X148122468Y-107422452D01*
X148161823Y-107476621D01*
X148794132Y-106844313D01*
X148811170Y-106907898D01*
G37*
%TD.AperFunction*%
%TA.AperFunction,Conductor*%
G36*
X150392365Y-107476622D02*
G01*
X150392365Y-107476621D01*
X150431717Y-107422460D01*
X150436327Y-107413412D01*
X150484300Y-107362614D01*
X150552120Y-107345817D01*
X150618256Y-107368352D01*
X150657299Y-107413409D01*
X150662044Y-107422722D01*
X150786985Y-107594691D01*
X150937308Y-107745014D01*
X151109277Y-107869955D01*
X151118041Y-107874421D01*
X151168837Y-107922396D01*
X151185631Y-107990217D01*
X151163093Y-108056352D01*
X151118041Y-108095389D01*
X151109277Y-108099854D01*
X150937308Y-108224795D01*
X150786985Y-108375118D01*
X150662044Y-108547087D01*
X150657579Y-108555851D01*
X150609604Y-108606647D01*
X150541783Y-108623441D01*
X150475648Y-108600903D01*
X150436611Y-108555851D01*
X150432145Y-108547087D01*
X150307204Y-108375118D01*
X150156881Y-108224795D01*
X149984912Y-108099854D01*
X149975599Y-108095109D01*
X149924802Y-108047135D01*
X149908007Y-107979314D01*
X149930544Y-107913179D01*
X149975602Y-107874137D01*
X149984650Y-107869527D01*
X150038811Y-107830175D01*
X150038812Y-107830175D01*
X149406503Y-107197867D01*
X149470088Y-107180830D01*
X149584102Y-107115004D01*
X149677194Y-107021912D01*
X149743020Y-106907898D01*
X149760057Y-106844314D01*
X150392365Y-107476622D01*
G37*
%TD.AperFunction*%
%TA.AperFunction,Conductor*%
G36*
X181831170Y-106907898D02*
G01*
X181896996Y-107021912D01*
X181990088Y-107115004D01*
X182104102Y-107180830D01*
X182167685Y-107197867D01*
X181535377Y-107830174D01*
X181535377Y-107830175D01*
X181589547Y-107869531D01*
X181589546Y-107869531D01*
X181598590Y-107874139D01*
X181649387Y-107922113D01*
X181666182Y-107989934D01*
X181643645Y-108056069D01*
X181598594Y-108095107D01*
X181589277Y-108099854D01*
X181417308Y-108224795D01*
X181266985Y-108375118D01*
X181142044Y-108547087D01*
X181137579Y-108555851D01*
X181089604Y-108606647D01*
X181021783Y-108623441D01*
X180955648Y-108600903D01*
X180916611Y-108555851D01*
X180912145Y-108547087D01*
X180787204Y-108375118D01*
X180636881Y-108224795D01*
X180464915Y-108099856D01*
X180464210Y-108099496D01*
X180456149Y-108095390D01*
X180405354Y-108047417D01*
X180388558Y-107979597D01*
X180411094Y-107913461D01*
X180456149Y-107874420D01*
X180464911Y-107869956D01*
X180519667Y-107830174D01*
X180636881Y-107745014D01*
X180636883Y-107745011D01*
X180636887Y-107745009D01*
X180787199Y-107594697D01*
X180787201Y-107594693D01*
X180787204Y-107594691D01*
X180872985Y-107476622D01*
X180912146Y-107422721D01*
X180916888Y-107413413D01*
X180964858Y-107362616D01*
X181032678Y-107345816D01*
X181098814Y-107368350D01*
X181137858Y-107413405D01*
X181142468Y-107422452D01*
X181181823Y-107476621D01*
X181814132Y-106844313D01*
X181831170Y-106907898D01*
G37*
%TD.AperFunction*%
%TA.AperFunction,Conductor*%
G36*
X183412365Y-107476622D02*
G01*
X183412365Y-107476621D01*
X183451717Y-107422460D01*
X183456327Y-107413412D01*
X183504300Y-107362614D01*
X183572120Y-107345817D01*
X183638256Y-107368352D01*
X183677299Y-107413409D01*
X183682044Y-107422722D01*
X183806985Y-107594691D01*
X183957308Y-107745014D01*
X184129277Y-107869955D01*
X184138041Y-107874421D01*
X184188837Y-107922396D01*
X184205631Y-107990217D01*
X184183093Y-108056352D01*
X184138041Y-108095389D01*
X184129277Y-108099854D01*
X183957308Y-108224795D01*
X183806985Y-108375118D01*
X183682044Y-108547087D01*
X183677579Y-108555851D01*
X183629604Y-108606647D01*
X183561783Y-108623441D01*
X183495648Y-108600903D01*
X183456611Y-108555851D01*
X183452145Y-108547087D01*
X183327204Y-108375118D01*
X183176881Y-108224795D01*
X183004912Y-108099854D01*
X182995599Y-108095109D01*
X182944802Y-108047135D01*
X182928007Y-107979314D01*
X182950544Y-107913179D01*
X182995602Y-107874137D01*
X183004650Y-107869527D01*
X183058811Y-107830175D01*
X183058812Y-107830175D01*
X182426503Y-107197867D01*
X182490088Y-107180830D01*
X182604102Y-107115004D01*
X182697194Y-107021912D01*
X182763020Y-106907898D01*
X182780057Y-106844313D01*
X183412365Y-107476622D01*
G37*
%TD.AperFunction*%
%TA.AperFunction,Conductor*%
G36*
X148078539Y-104828904D02*
G01*
X148117581Y-104873961D01*
X148122046Y-104882725D01*
X148246985Y-105054691D01*
X148397308Y-105205014D01*
X148569274Y-105329953D01*
X148569276Y-105329954D01*
X148569279Y-105329956D01*
X148578588Y-105334699D01*
X148629385Y-105382671D01*
X148646182Y-105450492D01*
X148623647Y-105516627D01*
X148578600Y-105555665D01*
X148569541Y-105560281D01*
X148569535Y-105560285D01*
X148515377Y-105599632D01*
X148515377Y-105599633D01*
X149147686Y-106231942D01*
X149084102Y-106248980D01*
X148970088Y-106314806D01*
X148876996Y-106407898D01*
X148811170Y-106521912D01*
X148794132Y-106585496D01*
X148161823Y-105953187D01*
X148161822Y-105953187D01*
X148122475Y-106007345D01*
X148122471Y-106007351D01*
X148117855Y-106016410D01*
X148069876Y-106067202D01*
X148002054Y-106083992D01*
X147935921Y-106061448D01*
X147896889Y-106016398D01*
X147892146Y-106007089D01*
X147892144Y-106007086D01*
X147892143Y-106007084D01*
X147767204Y-105835118D01*
X147616881Y-105684795D01*
X147444915Y-105559856D01*
X147436695Y-105555668D01*
X147436149Y-105555390D01*
X147385354Y-105507417D01*
X147368558Y-105439597D01*
X147391094Y-105373461D01*
X147436149Y-105334420D01*
X147444911Y-105329956D01*
X147478995Y-105305193D01*
X147616881Y-105205014D01*
X147616883Y-105205011D01*
X147616887Y-105205009D01*
X147767199Y-105054697D01*
X147767201Y-105054693D01*
X147767204Y-105054691D01*
X147892143Y-104882725D01*
X147892142Y-104882725D01*
X147892146Y-104882721D01*
X147896609Y-104873959D01*
X147944583Y-104823164D01*
X148012403Y-104806368D01*
X148078539Y-104828904D01*
G37*
%TD.AperFunction*%
%TA.AperFunction,Conductor*%
G36*
X181098539Y-104828904D02*
G01*
X181137581Y-104873961D01*
X181142046Y-104882725D01*
X181266985Y-105054691D01*
X181417308Y-105205014D01*
X181589274Y-105329953D01*
X181589276Y-105329954D01*
X181589279Y-105329956D01*
X181598588Y-105334699D01*
X181649385Y-105382671D01*
X181666182Y-105450492D01*
X181643647Y-105516627D01*
X181598600Y-105555665D01*
X181589541Y-105560281D01*
X181589535Y-105560285D01*
X181535377Y-105599632D01*
X181535377Y-105599633D01*
X182167686Y-106231942D01*
X182104102Y-106248980D01*
X181990088Y-106314806D01*
X181896996Y-106407898D01*
X181831170Y-106521912D01*
X181814132Y-106585496D01*
X181181823Y-105953187D01*
X181181822Y-105953187D01*
X181142475Y-106007345D01*
X181142471Y-106007351D01*
X181137855Y-106016410D01*
X181089876Y-106067202D01*
X181022054Y-106083992D01*
X180955921Y-106061448D01*
X180916889Y-106016398D01*
X180912146Y-106007089D01*
X180912144Y-106007086D01*
X180912143Y-106007084D01*
X180787204Y-105835118D01*
X180636881Y-105684795D01*
X180464915Y-105559856D01*
X180456695Y-105555668D01*
X180456149Y-105555390D01*
X180405354Y-105507417D01*
X180388558Y-105439597D01*
X180411094Y-105373461D01*
X180456149Y-105334420D01*
X180464911Y-105329956D01*
X180498995Y-105305193D01*
X180636881Y-105205014D01*
X180636883Y-105205011D01*
X180636887Y-105205009D01*
X180787199Y-105054697D01*
X180787201Y-105054693D01*
X180787204Y-105054691D01*
X180912143Y-104882725D01*
X180912142Y-104882725D01*
X180912146Y-104882721D01*
X180916609Y-104873959D01*
X180964583Y-104823164D01*
X181032403Y-104806368D01*
X181098539Y-104828904D01*
G37*
%TD.AperFunction*%
%TA.AperFunction,Conductor*%
G36*
X150564321Y-104810429D02*
G01*
X150576905Y-104809890D01*
X150596769Y-104821486D01*
X150618539Y-104828904D01*
X150627814Y-104839608D01*
X150637246Y-104845114D01*
X150657581Y-104873961D01*
X150662046Y-104882725D01*
X150786985Y-105054691D01*
X150937308Y-105205014D01*
X151109277Y-105329955D01*
X151118041Y-105334421D01*
X151168837Y-105382396D01*
X151185631Y-105450217D01*
X151163093Y-105516352D01*
X151118041Y-105555389D01*
X151109277Y-105559854D01*
X150937308Y-105684795D01*
X150786985Y-105835118D01*
X150662044Y-106007087D01*
X150657297Y-106016404D01*
X150609322Y-106067198D01*
X150541500Y-106083992D01*
X150475366Y-106061453D01*
X150436329Y-106016400D01*
X150431721Y-106007357D01*
X150392365Y-105953187D01*
X150392364Y-105953187D01*
X149760057Y-106585495D01*
X149743020Y-106521912D01*
X149677194Y-106407898D01*
X149584102Y-106314806D01*
X149470088Y-106248980D01*
X149406504Y-106231942D01*
X150038811Y-105599633D01*
X149984642Y-105560278D01*
X149984642Y-105560277D01*
X149975595Y-105555668D01*
X149924801Y-105507693D01*
X149908007Y-105439871D01*
X149930546Y-105373737D01*
X149975603Y-105334698D01*
X149984911Y-105329956D01*
X150120892Y-105231161D01*
X150156881Y-105205014D01*
X150156883Y-105205011D01*
X150156887Y-105205009D01*
X150307199Y-105054697D01*
X150307201Y-105054693D01*
X150307204Y-105054691D01*
X150432143Y-104882725D01*
X150432142Y-104882725D01*
X150432146Y-104882721D01*
X150436609Y-104873959D01*
X150445255Y-104864805D01*
X150449992Y-104853137D01*
X150468791Y-104839884D01*
X150484583Y-104823164D01*
X150496805Y-104820136D01*
X150507099Y-104812881D01*
X150530080Y-104811896D01*
X150552403Y-104806368D01*
X150564321Y-104810429D01*
G37*
%TD.AperFunction*%
%TA.AperFunction,Conductor*%
G36*
X183584321Y-104810429D02*
G01*
X183596905Y-104809890D01*
X183616769Y-104821486D01*
X183638539Y-104828904D01*
X183647814Y-104839608D01*
X183657246Y-104845114D01*
X183677581Y-104873961D01*
X183682046Y-104882725D01*
X183806985Y-105054691D01*
X183957308Y-105205014D01*
X184129277Y-105329955D01*
X184138041Y-105334421D01*
X184188837Y-105382396D01*
X184205631Y-105450217D01*
X184183093Y-105516352D01*
X184138041Y-105555389D01*
X184129277Y-105559854D01*
X183957308Y-105684795D01*
X183806985Y-105835118D01*
X183682044Y-106007087D01*
X183677297Y-106016404D01*
X183629322Y-106067198D01*
X183561500Y-106083992D01*
X183495366Y-106061453D01*
X183456329Y-106016400D01*
X183451721Y-106007357D01*
X183412365Y-105953187D01*
X183412364Y-105953187D01*
X182780057Y-106585495D01*
X182763020Y-106521912D01*
X182697194Y-106407898D01*
X182604102Y-106314806D01*
X182490088Y-106248980D01*
X182426504Y-106231942D01*
X183058811Y-105599633D01*
X183004642Y-105560278D01*
X183004642Y-105560277D01*
X182995595Y-105555668D01*
X182944801Y-105507693D01*
X182928007Y-105439871D01*
X182950546Y-105373737D01*
X182995603Y-105334698D01*
X183004911Y-105329956D01*
X183140892Y-105231161D01*
X183176881Y-105205014D01*
X183176883Y-105205011D01*
X183176887Y-105205009D01*
X183327199Y-105054697D01*
X183327201Y-105054693D01*
X183327204Y-105054691D01*
X183452143Y-104882725D01*
X183452142Y-104882725D01*
X183452146Y-104882721D01*
X183456609Y-104873959D01*
X183465255Y-104864805D01*
X183469992Y-104853137D01*
X183488791Y-104839884D01*
X183504583Y-104823164D01*
X183516805Y-104820136D01*
X183527099Y-104812881D01*
X183550080Y-104811896D01*
X183572403Y-104806368D01*
X183584321Y-104810429D01*
G37*
%TD.AperFunction*%
%TA.AperFunction,Conductor*%
G36*
X153158539Y-104828904D02*
G01*
X153197581Y-104873961D01*
X153202046Y-104882725D01*
X153326985Y-105054691D01*
X153477308Y-105205014D01*
X153649277Y-105329955D01*
X153658041Y-105334421D01*
X153708837Y-105382396D01*
X153725631Y-105450217D01*
X153703093Y-105516352D01*
X153658041Y-105555389D01*
X153649277Y-105559854D01*
X153477308Y-105684795D01*
X153326985Y-105835118D01*
X153202044Y-106007087D01*
X153197579Y-106015851D01*
X153149604Y-106066647D01*
X153081783Y-106083441D01*
X153015648Y-106060903D01*
X152976611Y-106015851D01*
X152972145Y-106007087D01*
X152847204Y-105835118D01*
X152696881Y-105684795D01*
X152524915Y-105559856D01*
X152516695Y-105555668D01*
X152516149Y-105555390D01*
X152465354Y-105507417D01*
X152448558Y-105439597D01*
X152471094Y-105373461D01*
X152516149Y-105334420D01*
X152524911Y-105329956D01*
X152558995Y-105305193D01*
X152696881Y-105205014D01*
X152696883Y-105205011D01*
X152696887Y-105205009D01*
X152847199Y-105054697D01*
X152847201Y-105054693D01*
X152847204Y-105054691D01*
X152972143Y-104882725D01*
X152972142Y-104882725D01*
X152972146Y-104882721D01*
X152976609Y-104873959D01*
X153024583Y-104823164D01*
X153092403Y-104806368D01*
X153158539Y-104828904D01*
G37*
%TD.AperFunction*%
%TA.AperFunction,Conductor*%
G36*
X155698539Y-104828904D02*
G01*
X155737581Y-104873961D01*
X155742046Y-104882725D01*
X155866985Y-105054691D01*
X156017308Y-105205014D01*
X156189277Y-105329955D01*
X156198041Y-105334421D01*
X156248837Y-105382396D01*
X156265631Y-105450217D01*
X156243093Y-105516352D01*
X156198041Y-105555389D01*
X156189277Y-105559854D01*
X156017308Y-105684795D01*
X155866985Y-105835118D01*
X155742044Y-106007087D01*
X155737579Y-106015851D01*
X155689604Y-106066647D01*
X155621783Y-106083441D01*
X155555648Y-106060903D01*
X155516611Y-106015851D01*
X155512145Y-106007087D01*
X155387204Y-105835118D01*
X155236881Y-105684795D01*
X155064915Y-105559856D01*
X155056695Y-105555668D01*
X155056149Y-105555390D01*
X155005354Y-105507417D01*
X154988558Y-105439597D01*
X155011094Y-105373461D01*
X155056149Y-105334420D01*
X155064911Y-105329956D01*
X155098995Y-105305193D01*
X155236881Y-105205014D01*
X155236883Y-105205011D01*
X155236887Y-105205009D01*
X155387199Y-105054697D01*
X155387201Y-105054693D01*
X155387204Y-105054691D01*
X155512143Y-104882725D01*
X155512142Y-104882725D01*
X155512146Y-104882721D01*
X155516609Y-104873959D01*
X155564583Y-104823164D01*
X155632403Y-104806368D01*
X155698539Y-104828904D01*
G37*
%TD.AperFunction*%
%TA.AperFunction,Conductor*%
G36*
X158238539Y-104828904D02*
G01*
X158277581Y-104873961D01*
X158282046Y-104882725D01*
X158406985Y-105054691D01*
X158557308Y-105205014D01*
X158729277Y-105329955D01*
X158738041Y-105334421D01*
X158788837Y-105382396D01*
X158805631Y-105450217D01*
X158783093Y-105516352D01*
X158738041Y-105555389D01*
X158729277Y-105559854D01*
X158557308Y-105684795D01*
X158406985Y-105835118D01*
X158282044Y-106007087D01*
X158277579Y-106015851D01*
X158229604Y-106066647D01*
X158161783Y-106083441D01*
X158095648Y-106060903D01*
X158056611Y-106015851D01*
X158052145Y-106007087D01*
X157927204Y-105835118D01*
X157776881Y-105684795D01*
X157604915Y-105559856D01*
X157596695Y-105555668D01*
X157596149Y-105555390D01*
X157545354Y-105507417D01*
X157528558Y-105439597D01*
X157551094Y-105373461D01*
X157596149Y-105334420D01*
X157604911Y-105329956D01*
X157638995Y-105305193D01*
X157776881Y-105205014D01*
X157776883Y-105205011D01*
X157776887Y-105205009D01*
X157927199Y-105054697D01*
X157927201Y-105054693D01*
X157927204Y-105054691D01*
X158052143Y-104882725D01*
X158052142Y-104882725D01*
X158052146Y-104882721D01*
X158056609Y-104873959D01*
X158104583Y-104823164D01*
X158172403Y-104806368D01*
X158238539Y-104828904D01*
G37*
%TD.AperFunction*%
%TA.AperFunction,Conductor*%
G36*
X160778539Y-104828904D02*
G01*
X160817581Y-104873961D01*
X160822046Y-104882725D01*
X160946985Y-105054691D01*
X161097308Y-105205014D01*
X161269277Y-105329955D01*
X161278041Y-105334421D01*
X161328837Y-105382396D01*
X161345631Y-105450217D01*
X161323093Y-105516352D01*
X161278041Y-105555389D01*
X161269277Y-105559854D01*
X161097308Y-105684795D01*
X160946985Y-105835118D01*
X160822044Y-106007087D01*
X160817579Y-106015851D01*
X160769604Y-106066647D01*
X160701783Y-106083441D01*
X160635648Y-106060903D01*
X160596611Y-106015851D01*
X160592145Y-106007087D01*
X160467204Y-105835118D01*
X160316881Y-105684795D01*
X160144915Y-105559856D01*
X160136695Y-105555668D01*
X160136149Y-105555390D01*
X160085354Y-105507417D01*
X160068558Y-105439597D01*
X160091094Y-105373461D01*
X160136149Y-105334420D01*
X160144911Y-105329956D01*
X160178995Y-105305193D01*
X160316881Y-105205014D01*
X160316883Y-105205011D01*
X160316887Y-105205009D01*
X160467199Y-105054697D01*
X160467201Y-105054693D01*
X160467204Y-105054691D01*
X160592143Y-104882725D01*
X160592142Y-104882725D01*
X160592146Y-104882721D01*
X160596609Y-104873959D01*
X160644583Y-104823164D01*
X160712403Y-104806368D01*
X160778539Y-104828904D01*
G37*
%TD.AperFunction*%
%TA.AperFunction,Conductor*%
G36*
X163318539Y-104828904D02*
G01*
X163357581Y-104873961D01*
X163362046Y-104882725D01*
X163486985Y-105054691D01*
X163637308Y-105205014D01*
X163809277Y-105329955D01*
X163818041Y-105334421D01*
X163868837Y-105382396D01*
X163885631Y-105450217D01*
X163863093Y-105516352D01*
X163818041Y-105555389D01*
X163809277Y-105559854D01*
X163637308Y-105684795D01*
X163486985Y-105835118D01*
X163362044Y-106007087D01*
X163357579Y-106015851D01*
X163309604Y-106066647D01*
X163241783Y-106083441D01*
X163175648Y-106060903D01*
X163136611Y-106015851D01*
X163132145Y-106007087D01*
X163007204Y-105835118D01*
X162856881Y-105684795D01*
X162684915Y-105559856D01*
X162676695Y-105555668D01*
X162676149Y-105555390D01*
X162625354Y-105507417D01*
X162608558Y-105439597D01*
X162631094Y-105373461D01*
X162676149Y-105334420D01*
X162684911Y-105329956D01*
X162718995Y-105305193D01*
X162856881Y-105205014D01*
X162856883Y-105205011D01*
X162856887Y-105205009D01*
X163007199Y-105054697D01*
X163007201Y-105054693D01*
X163007204Y-105054691D01*
X163132143Y-104882725D01*
X163132142Y-104882725D01*
X163132146Y-104882721D01*
X163136609Y-104873959D01*
X163184583Y-104823164D01*
X163252403Y-104806368D01*
X163318539Y-104828904D01*
G37*
%TD.AperFunction*%
%TA.AperFunction,Conductor*%
G36*
X165858539Y-104828904D02*
G01*
X165897581Y-104873961D01*
X165902046Y-104882725D01*
X166026985Y-105054691D01*
X166177308Y-105205014D01*
X166349277Y-105329955D01*
X166358041Y-105334421D01*
X166408837Y-105382396D01*
X166425631Y-105450217D01*
X166403093Y-105516352D01*
X166358041Y-105555389D01*
X166349277Y-105559854D01*
X166177308Y-105684795D01*
X166026985Y-105835118D01*
X165902044Y-106007087D01*
X165897579Y-106015851D01*
X165849604Y-106066647D01*
X165781783Y-106083441D01*
X165715648Y-106060903D01*
X165676611Y-106015851D01*
X165672145Y-106007087D01*
X165547204Y-105835118D01*
X165396881Y-105684795D01*
X165224915Y-105559856D01*
X165216695Y-105555668D01*
X165216149Y-105555390D01*
X165165354Y-105507417D01*
X165148558Y-105439597D01*
X165171094Y-105373461D01*
X165216149Y-105334420D01*
X165224911Y-105329956D01*
X165258995Y-105305193D01*
X165396881Y-105205014D01*
X165396883Y-105205011D01*
X165396887Y-105205009D01*
X165547199Y-105054697D01*
X165547201Y-105054693D01*
X165547204Y-105054691D01*
X165672143Y-104882725D01*
X165672142Y-104882725D01*
X165672146Y-104882721D01*
X165676609Y-104873959D01*
X165724583Y-104823164D01*
X165792403Y-104806368D01*
X165858539Y-104828904D01*
G37*
%TD.AperFunction*%
%TA.AperFunction,Conductor*%
G36*
X168398539Y-104828904D02*
G01*
X168437581Y-104873961D01*
X168442046Y-104882725D01*
X168566985Y-105054691D01*
X168717308Y-105205014D01*
X168889277Y-105329955D01*
X168898041Y-105334421D01*
X168948837Y-105382396D01*
X168965631Y-105450217D01*
X168943093Y-105516352D01*
X168898041Y-105555389D01*
X168889277Y-105559854D01*
X168717308Y-105684795D01*
X168566985Y-105835118D01*
X168442044Y-106007087D01*
X168437579Y-106015851D01*
X168389604Y-106066647D01*
X168321783Y-106083441D01*
X168255648Y-106060903D01*
X168216611Y-106015851D01*
X168212145Y-106007087D01*
X168087204Y-105835118D01*
X167936881Y-105684795D01*
X167764915Y-105559856D01*
X167756695Y-105555668D01*
X167756149Y-105555390D01*
X167705354Y-105507417D01*
X167688558Y-105439597D01*
X167711094Y-105373461D01*
X167756149Y-105334420D01*
X167764911Y-105329956D01*
X167798995Y-105305193D01*
X167936881Y-105205014D01*
X167936883Y-105205011D01*
X167936887Y-105205009D01*
X168087199Y-105054697D01*
X168087201Y-105054693D01*
X168087204Y-105054691D01*
X168212143Y-104882725D01*
X168212142Y-104882725D01*
X168212146Y-104882721D01*
X168216609Y-104873959D01*
X168264583Y-104823164D01*
X168332403Y-104806368D01*
X168398539Y-104828904D01*
G37*
%TD.AperFunction*%
%TA.AperFunction,Conductor*%
G36*
X170938539Y-104828904D02*
G01*
X170977581Y-104873961D01*
X170982046Y-104882725D01*
X171106985Y-105054691D01*
X171257308Y-105205014D01*
X171429277Y-105329955D01*
X171438041Y-105334421D01*
X171488837Y-105382396D01*
X171505631Y-105450217D01*
X171483093Y-105516352D01*
X171438041Y-105555389D01*
X171429277Y-105559854D01*
X171257308Y-105684795D01*
X171106985Y-105835118D01*
X170982044Y-106007087D01*
X170977579Y-106015851D01*
X170929604Y-106066647D01*
X170861783Y-106083441D01*
X170795648Y-106060903D01*
X170756611Y-106015851D01*
X170752145Y-106007087D01*
X170627204Y-105835118D01*
X170476881Y-105684795D01*
X170304915Y-105559856D01*
X170296695Y-105555668D01*
X170296149Y-105555390D01*
X170245354Y-105507417D01*
X170228558Y-105439597D01*
X170251094Y-105373461D01*
X170296149Y-105334420D01*
X170304911Y-105329956D01*
X170338995Y-105305193D01*
X170476881Y-105205014D01*
X170476883Y-105205011D01*
X170476887Y-105205009D01*
X170627199Y-105054697D01*
X170627201Y-105054693D01*
X170627204Y-105054691D01*
X170752143Y-104882725D01*
X170752142Y-104882725D01*
X170752146Y-104882721D01*
X170756609Y-104873959D01*
X170804583Y-104823164D01*
X170872403Y-104806368D01*
X170938539Y-104828904D01*
G37*
%TD.AperFunction*%
%TA.AperFunction,Conductor*%
G36*
X173478539Y-104828904D02*
G01*
X173517581Y-104873961D01*
X173522046Y-104882725D01*
X173646985Y-105054691D01*
X173797308Y-105205014D01*
X173969277Y-105329955D01*
X173978041Y-105334421D01*
X174028837Y-105382396D01*
X174045631Y-105450217D01*
X174023093Y-105516352D01*
X173978041Y-105555389D01*
X173969277Y-105559854D01*
X173797308Y-105684795D01*
X173646985Y-105835118D01*
X173522044Y-106007087D01*
X173517579Y-106015851D01*
X173469604Y-106066647D01*
X173401783Y-106083441D01*
X173335648Y-106060903D01*
X173296611Y-106015851D01*
X173292145Y-106007087D01*
X173167204Y-105835118D01*
X173016881Y-105684795D01*
X172844915Y-105559856D01*
X172836695Y-105555668D01*
X172836149Y-105555390D01*
X172785354Y-105507417D01*
X172768558Y-105439597D01*
X172791094Y-105373461D01*
X172836149Y-105334420D01*
X172844911Y-105329956D01*
X172878995Y-105305193D01*
X173016881Y-105205014D01*
X173016883Y-105205011D01*
X173016887Y-105205009D01*
X173167199Y-105054697D01*
X173167201Y-105054693D01*
X173167204Y-105054691D01*
X173292143Y-104882725D01*
X173292142Y-104882725D01*
X173292146Y-104882721D01*
X173296609Y-104873959D01*
X173344583Y-104823164D01*
X173412403Y-104806368D01*
X173478539Y-104828904D01*
G37*
%TD.AperFunction*%
%TA.AperFunction,Conductor*%
G36*
X176018539Y-104828904D02*
G01*
X176057581Y-104873961D01*
X176062046Y-104882725D01*
X176186985Y-105054691D01*
X176337308Y-105205014D01*
X176509277Y-105329955D01*
X176518041Y-105334421D01*
X176568837Y-105382396D01*
X176585631Y-105450217D01*
X176563093Y-105516352D01*
X176518041Y-105555389D01*
X176509277Y-105559854D01*
X176337308Y-105684795D01*
X176186985Y-105835118D01*
X176062044Y-106007087D01*
X176057579Y-106015851D01*
X176009604Y-106066647D01*
X175941783Y-106083441D01*
X175875648Y-106060903D01*
X175836611Y-106015851D01*
X175832145Y-106007087D01*
X175707204Y-105835118D01*
X175556881Y-105684795D01*
X175384915Y-105559856D01*
X175376695Y-105555668D01*
X175376149Y-105555390D01*
X175325354Y-105507417D01*
X175308558Y-105439597D01*
X175331094Y-105373461D01*
X175376149Y-105334420D01*
X175384911Y-105329956D01*
X175418995Y-105305193D01*
X175556881Y-105205014D01*
X175556883Y-105205011D01*
X175556887Y-105205009D01*
X175707199Y-105054697D01*
X175707201Y-105054693D01*
X175707204Y-105054691D01*
X175832143Y-104882725D01*
X175832142Y-104882725D01*
X175832146Y-104882721D01*
X175836609Y-104873959D01*
X175884583Y-104823164D01*
X175952403Y-104806368D01*
X176018539Y-104828904D01*
G37*
%TD.AperFunction*%
%TA.AperFunction,Conductor*%
G36*
X178558539Y-104828904D02*
G01*
X178597581Y-104873961D01*
X178602046Y-104882725D01*
X178726985Y-105054691D01*
X178877308Y-105205014D01*
X179049277Y-105329955D01*
X179058041Y-105334421D01*
X179108837Y-105382396D01*
X179125631Y-105450217D01*
X179103093Y-105516352D01*
X179058041Y-105555389D01*
X179049277Y-105559854D01*
X178877308Y-105684795D01*
X178726985Y-105835118D01*
X178602044Y-106007087D01*
X178597579Y-106015851D01*
X178549604Y-106066647D01*
X178481783Y-106083441D01*
X178415648Y-106060903D01*
X178376611Y-106015851D01*
X178372145Y-106007087D01*
X178247204Y-105835118D01*
X178096881Y-105684795D01*
X177924915Y-105559856D01*
X177916695Y-105555668D01*
X177916149Y-105555390D01*
X177865354Y-105507417D01*
X177848558Y-105439597D01*
X177871094Y-105373461D01*
X177916149Y-105334420D01*
X177924911Y-105329956D01*
X177958995Y-105305193D01*
X178096881Y-105205014D01*
X178096883Y-105205011D01*
X178096887Y-105205009D01*
X178247199Y-105054697D01*
X178247201Y-105054693D01*
X178247204Y-105054691D01*
X178372143Y-104882725D01*
X178372142Y-104882725D01*
X178372146Y-104882721D01*
X178376609Y-104873959D01*
X178424583Y-104823164D01*
X178492403Y-104806368D01*
X178558539Y-104828904D01*
G37*
%TD.AperFunction*%
%TA.AperFunction,Conductor*%
G36*
X183638539Y-102288904D02*
G01*
X183677581Y-102333961D01*
X183682046Y-102342725D01*
X183806985Y-102514691D01*
X183957308Y-102665014D01*
X184129277Y-102789955D01*
X184138041Y-102794421D01*
X184188837Y-102842396D01*
X184205631Y-102910217D01*
X184183093Y-102976352D01*
X184138041Y-103015389D01*
X184129277Y-103019854D01*
X183957308Y-103144795D01*
X183806985Y-103295118D01*
X183682044Y-103467087D01*
X183677579Y-103475851D01*
X183629604Y-103526647D01*
X183561783Y-103543441D01*
X183495648Y-103520903D01*
X183456611Y-103475851D01*
X183452145Y-103467087D01*
X183327204Y-103295118D01*
X183176881Y-103144795D01*
X183004915Y-103019856D01*
X183004210Y-103019496D01*
X182996149Y-103015390D01*
X182945354Y-102967417D01*
X182928558Y-102899597D01*
X182951094Y-102833461D01*
X182996149Y-102794420D01*
X183004911Y-102789956D01*
X183087792Y-102729740D01*
X183176881Y-102665014D01*
X183176883Y-102665011D01*
X183176887Y-102665009D01*
X183327199Y-102514697D01*
X183327201Y-102514693D01*
X183327204Y-102514691D01*
X183452143Y-102342725D01*
X183452142Y-102342725D01*
X183452146Y-102342721D01*
X183456609Y-102333959D01*
X183504583Y-102283164D01*
X183572403Y-102266368D01*
X183638539Y-102288904D01*
G37*
%TD.AperFunction*%
%TA.AperFunction,Conductor*%
G36*
X183638539Y-99748904D02*
G01*
X183677581Y-99793961D01*
X183682046Y-99802725D01*
X183806985Y-99974691D01*
X183957308Y-100125014D01*
X184129277Y-100249955D01*
X184138041Y-100254421D01*
X184188837Y-100302396D01*
X184205631Y-100370217D01*
X184183093Y-100436352D01*
X184138041Y-100475389D01*
X184129277Y-100479854D01*
X183957308Y-100604795D01*
X183806985Y-100755118D01*
X183682044Y-100927087D01*
X183677579Y-100935851D01*
X183629604Y-100986647D01*
X183561783Y-101003441D01*
X183495648Y-100980903D01*
X183456611Y-100935851D01*
X183452145Y-100927087D01*
X183327204Y-100755118D01*
X183176881Y-100604795D01*
X183004915Y-100479856D01*
X183004210Y-100479496D01*
X182996149Y-100475390D01*
X182945354Y-100427417D01*
X182928558Y-100359597D01*
X182951094Y-100293461D01*
X182996149Y-100254420D01*
X183004911Y-100249956D01*
X183026884Y-100233991D01*
X183176881Y-100125014D01*
X183176883Y-100125011D01*
X183176887Y-100125009D01*
X183327199Y-99974697D01*
X183327201Y-99974693D01*
X183327204Y-99974691D01*
X183452143Y-99802725D01*
X183452142Y-99802725D01*
X183452146Y-99802721D01*
X183456609Y-99793959D01*
X183504583Y-99743164D01*
X183572403Y-99726368D01*
X183638539Y-99748904D01*
G37*
%TD.AperFunction*%
%TA.AperFunction,Conductor*%
G36*
X183638539Y-97208904D02*
G01*
X183677581Y-97253961D01*
X183682046Y-97262725D01*
X183806985Y-97434691D01*
X183957308Y-97585014D01*
X184129277Y-97709955D01*
X184138041Y-97714421D01*
X184188837Y-97762396D01*
X184205631Y-97830217D01*
X184183093Y-97896352D01*
X184138041Y-97935389D01*
X184129277Y-97939854D01*
X183957308Y-98064795D01*
X183806985Y-98215118D01*
X183682044Y-98387087D01*
X183677579Y-98395851D01*
X183629604Y-98446647D01*
X183561783Y-98463441D01*
X183495648Y-98440903D01*
X183456611Y-98395851D01*
X183452145Y-98387087D01*
X183327204Y-98215118D01*
X183176881Y-98064795D01*
X183004915Y-97939856D01*
X183004210Y-97939496D01*
X182996149Y-97935390D01*
X182945354Y-97887417D01*
X182928558Y-97819597D01*
X182951094Y-97753461D01*
X182996149Y-97714420D01*
X183004911Y-97709956D01*
X183054295Y-97674077D01*
X183176881Y-97585014D01*
X183176883Y-97585011D01*
X183176887Y-97585009D01*
X183327199Y-97434697D01*
X183327201Y-97434693D01*
X183327204Y-97434691D01*
X183452143Y-97262725D01*
X183452142Y-97262725D01*
X183452146Y-97262721D01*
X183456609Y-97253959D01*
X183504583Y-97203164D01*
X183572403Y-97186368D01*
X183638539Y-97208904D01*
G37*
%TD.AperFunction*%
%TA.AperFunction,Conductor*%
G36*
X183638539Y-94668904D02*
G01*
X183677581Y-94713961D01*
X183682046Y-94722725D01*
X183806985Y-94894691D01*
X183957308Y-95045014D01*
X184129277Y-95169955D01*
X184138041Y-95174421D01*
X184188837Y-95222396D01*
X184205631Y-95290217D01*
X184183093Y-95356352D01*
X184138041Y-95395389D01*
X184129277Y-95399854D01*
X183957308Y-95524795D01*
X183806985Y-95675118D01*
X183682044Y-95847087D01*
X183677579Y-95855851D01*
X183629604Y-95906647D01*
X183561783Y-95923441D01*
X183495648Y-95900903D01*
X183456611Y-95855851D01*
X183452145Y-95847087D01*
X183327204Y-95675118D01*
X183176881Y-95524795D01*
X183004915Y-95399856D01*
X183004210Y-95399496D01*
X182996149Y-95395390D01*
X182945354Y-95347417D01*
X182928558Y-95279597D01*
X182951094Y-95213461D01*
X182996149Y-95174420D01*
X183004911Y-95169956D01*
X183062978Y-95127768D01*
X183176881Y-95045014D01*
X183176883Y-95045011D01*
X183176887Y-95045009D01*
X183327199Y-94894697D01*
X183327201Y-94894693D01*
X183327204Y-94894691D01*
X183452143Y-94722725D01*
X183452142Y-94722725D01*
X183452146Y-94722721D01*
X183456609Y-94713959D01*
X183504583Y-94663164D01*
X183572403Y-94646368D01*
X183638539Y-94668904D01*
G37*
%TD.AperFunction*%
%TA.AperFunction,Conductor*%
G36*
X183638539Y-92128904D02*
G01*
X183677581Y-92173961D01*
X183682046Y-92182725D01*
X183806985Y-92354691D01*
X183957308Y-92505014D01*
X184129277Y-92629955D01*
X184138041Y-92634421D01*
X184188837Y-92682396D01*
X184205631Y-92750217D01*
X184183093Y-92816352D01*
X184138041Y-92855389D01*
X184129277Y-92859854D01*
X183957308Y-92984795D01*
X183806985Y-93135118D01*
X183682044Y-93307087D01*
X183677579Y-93315851D01*
X183629604Y-93366647D01*
X183561783Y-93383441D01*
X183495648Y-93360903D01*
X183456611Y-93315851D01*
X183452145Y-93307087D01*
X183327204Y-93135118D01*
X183176881Y-92984795D01*
X183004915Y-92859856D01*
X183004210Y-92859496D01*
X182996149Y-92855390D01*
X182945354Y-92807417D01*
X182928558Y-92739597D01*
X182951094Y-92673461D01*
X182996149Y-92634420D01*
X183004911Y-92629956D01*
X183026884Y-92613991D01*
X183176881Y-92505014D01*
X183176883Y-92505011D01*
X183176887Y-92505009D01*
X183327199Y-92354697D01*
X183327201Y-92354693D01*
X183327204Y-92354691D01*
X183452143Y-92182725D01*
X183452142Y-92182725D01*
X183452146Y-92182721D01*
X183456609Y-92173959D01*
X183504583Y-92123164D01*
X183572403Y-92106368D01*
X183638539Y-92128904D01*
G37*
%TD.AperFunction*%
%TA.AperFunction,Conductor*%
G36*
X183638539Y-89588904D02*
G01*
X183677581Y-89633961D01*
X183682046Y-89642725D01*
X183806985Y-89814691D01*
X183957308Y-89965014D01*
X184129277Y-90089955D01*
X184138041Y-90094421D01*
X184188837Y-90142396D01*
X184205631Y-90210217D01*
X184183093Y-90276352D01*
X184138041Y-90315389D01*
X184129277Y-90319854D01*
X183957308Y-90444795D01*
X183806985Y-90595118D01*
X183682044Y-90767087D01*
X183677579Y-90775851D01*
X183629604Y-90826647D01*
X183561783Y-90843441D01*
X183495648Y-90820903D01*
X183456611Y-90775851D01*
X183452145Y-90767087D01*
X183327204Y-90595118D01*
X183176881Y-90444795D01*
X183004915Y-90319856D01*
X183004210Y-90319496D01*
X182996149Y-90315390D01*
X182945354Y-90267417D01*
X182928558Y-90199597D01*
X182951094Y-90133461D01*
X182996149Y-90094420D01*
X183004911Y-90089956D01*
X183089628Y-90028406D01*
X183176881Y-89965014D01*
X183176883Y-89965011D01*
X183176887Y-89965009D01*
X183327199Y-89814697D01*
X183327201Y-89814693D01*
X183327204Y-89814691D01*
X183452143Y-89642725D01*
X183452142Y-89642725D01*
X183452146Y-89642721D01*
X183456609Y-89633959D01*
X183504583Y-89583164D01*
X183572403Y-89566368D01*
X183638539Y-89588904D01*
G37*
%TD.AperFunction*%
%TA.AperFunction,Conductor*%
G36*
X137692365Y-87156622D02*
G01*
X137692365Y-87156621D01*
X137731717Y-87102460D01*
X137736327Y-87093412D01*
X137784300Y-87042614D01*
X137852120Y-87025817D01*
X137918256Y-87048352D01*
X137957299Y-87093409D01*
X137962044Y-87102722D01*
X138086985Y-87274691D01*
X138237308Y-87425014D01*
X138409277Y-87549955D01*
X138418041Y-87554421D01*
X138468837Y-87602396D01*
X138485631Y-87670217D01*
X138463093Y-87736352D01*
X138418041Y-87775389D01*
X138409277Y-87779854D01*
X138237308Y-87904795D01*
X138086985Y-88055118D01*
X137962044Y-88227087D01*
X137957579Y-88235851D01*
X137909604Y-88286647D01*
X137841783Y-88303441D01*
X137775648Y-88280903D01*
X137736611Y-88235851D01*
X137732145Y-88227087D01*
X137607204Y-88055118D01*
X137456881Y-87904795D01*
X137284912Y-87779854D01*
X137275599Y-87775109D01*
X137224802Y-87727135D01*
X137208007Y-87659314D01*
X137230544Y-87593179D01*
X137275602Y-87554137D01*
X137284650Y-87549527D01*
X137338811Y-87510175D01*
X137338812Y-87510175D01*
X136706503Y-86877867D01*
X136770088Y-86860830D01*
X136884102Y-86795004D01*
X136977194Y-86701912D01*
X137043020Y-86587898D01*
X137060057Y-86524313D01*
X137692365Y-87156622D01*
G37*
%TD.AperFunction*%
%TA.AperFunction,Conductor*%
G36*
X183638539Y-87048904D02*
G01*
X183677581Y-87093961D01*
X183682046Y-87102725D01*
X183806985Y-87274691D01*
X183957308Y-87425014D01*
X184129277Y-87549955D01*
X184138041Y-87554421D01*
X184188837Y-87602396D01*
X184205631Y-87670217D01*
X184183093Y-87736352D01*
X184138041Y-87775389D01*
X184129277Y-87779854D01*
X183957308Y-87904795D01*
X183806985Y-88055118D01*
X183682044Y-88227087D01*
X183677579Y-88235851D01*
X183629604Y-88286647D01*
X183561783Y-88303441D01*
X183495648Y-88280903D01*
X183456611Y-88235851D01*
X183452145Y-88227087D01*
X183327204Y-88055118D01*
X183176881Y-87904795D01*
X183004915Y-87779856D01*
X183004210Y-87779496D01*
X182996149Y-87775390D01*
X182945354Y-87727417D01*
X182928558Y-87659597D01*
X182951094Y-87593461D01*
X182996149Y-87554420D01*
X183004911Y-87549956D01*
X183081371Y-87494405D01*
X183176881Y-87425014D01*
X183176883Y-87425011D01*
X183176887Y-87425009D01*
X183327199Y-87274697D01*
X183327201Y-87274693D01*
X183327204Y-87274691D01*
X183452143Y-87102725D01*
X183452145Y-87102722D01*
X183452146Y-87102721D01*
X183456609Y-87093959D01*
X183504583Y-87043164D01*
X183572403Y-87026368D01*
X183638539Y-87048904D01*
G37*
%TD.AperFunction*%
%TA.AperFunction,Conductor*%
G36*
X137918539Y-84508904D02*
G01*
X137957581Y-84553961D01*
X137962046Y-84562725D01*
X138086985Y-84734691D01*
X138237308Y-84885014D01*
X138409277Y-85009955D01*
X138418041Y-85014421D01*
X138468837Y-85062396D01*
X138485631Y-85130217D01*
X138463093Y-85196352D01*
X138418041Y-85235389D01*
X138409277Y-85239854D01*
X138237308Y-85364795D01*
X138086985Y-85515118D01*
X137962044Y-85687087D01*
X137957297Y-85696404D01*
X137909322Y-85747198D01*
X137841500Y-85763992D01*
X137775366Y-85741453D01*
X137736329Y-85696400D01*
X137731721Y-85687357D01*
X137692365Y-85633187D01*
X137692364Y-85633187D01*
X137060057Y-86265495D01*
X137043020Y-86201912D01*
X136977194Y-86087898D01*
X136884102Y-85994806D01*
X136770088Y-85928980D01*
X136706504Y-85911942D01*
X137338811Y-85279633D01*
X137284642Y-85240278D01*
X137284642Y-85240277D01*
X137275595Y-85235668D01*
X137224801Y-85187693D01*
X137208007Y-85119871D01*
X137230546Y-85053737D01*
X137275603Y-85014698D01*
X137284911Y-85009956D01*
X137371242Y-84947233D01*
X137456881Y-84885014D01*
X137456883Y-84885011D01*
X137456887Y-84885009D01*
X137607199Y-84734697D01*
X137607201Y-84734693D01*
X137607204Y-84734691D01*
X137732143Y-84562725D01*
X137732142Y-84562725D01*
X137732146Y-84562721D01*
X137736609Y-84553959D01*
X137784583Y-84503164D01*
X137852403Y-84486368D01*
X137918539Y-84508904D01*
G37*
%TD.AperFunction*%
%TA.AperFunction,Conductor*%
G36*
X183638539Y-84508904D02*
G01*
X183677581Y-84553961D01*
X183682046Y-84562725D01*
X183806985Y-84734691D01*
X183957308Y-84885014D01*
X184129277Y-85009955D01*
X184138041Y-85014421D01*
X184188837Y-85062396D01*
X184205631Y-85130217D01*
X184183093Y-85196352D01*
X184138041Y-85235389D01*
X184129277Y-85239854D01*
X183957308Y-85364795D01*
X183806985Y-85515118D01*
X183682044Y-85687087D01*
X183677579Y-85695851D01*
X183629604Y-85746647D01*
X183561783Y-85763441D01*
X183495648Y-85740903D01*
X183456611Y-85695851D01*
X183452145Y-85687087D01*
X183327204Y-85515118D01*
X183176881Y-85364795D01*
X183004915Y-85239856D01*
X182996695Y-85235668D01*
X182996149Y-85235390D01*
X182945354Y-85187417D01*
X182928558Y-85119597D01*
X182951094Y-85053461D01*
X182996149Y-85014420D01*
X183004911Y-85009956D01*
X183039229Y-84985023D01*
X183176881Y-84885014D01*
X183176883Y-84885011D01*
X183176887Y-84885009D01*
X183327199Y-84734697D01*
X183327201Y-84734693D01*
X183327204Y-84734691D01*
X183452143Y-84562725D01*
X183452142Y-84562725D01*
X183452146Y-84562721D01*
X183456609Y-84553959D01*
X183504583Y-84503164D01*
X183572403Y-84486368D01*
X183638539Y-84508904D01*
G37*
%TD.AperFunction*%
%TA.AperFunction,Conductor*%
G36*
X184371170Y-81507898D02*
G01*
X184436996Y-81621912D01*
X184530088Y-81715004D01*
X184644102Y-81780830D01*
X184707685Y-81797867D01*
X184075377Y-82430174D01*
X184075377Y-82430175D01*
X184129547Y-82469531D01*
X184129546Y-82469531D01*
X184138590Y-82474139D01*
X184189387Y-82522113D01*
X184206182Y-82589934D01*
X184183645Y-82656069D01*
X184138594Y-82695107D01*
X184129277Y-82699854D01*
X183957308Y-82824795D01*
X183806985Y-82975118D01*
X183682044Y-83147087D01*
X183677579Y-83155851D01*
X183629604Y-83206647D01*
X183561783Y-83223441D01*
X183495648Y-83200903D01*
X183456611Y-83155851D01*
X183452145Y-83147087D01*
X183327204Y-82975118D01*
X183176881Y-82824795D01*
X183004915Y-82699856D01*
X183004210Y-82699496D01*
X182996149Y-82695390D01*
X182945354Y-82647417D01*
X182928558Y-82579597D01*
X182951094Y-82513461D01*
X182996149Y-82474420D01*
X183004911Y-82469956D01*
X183076031Y-82418285D01*
X183176881Y-82345014D01*
X183176883Y-82345011D01*
X183176887Y-82345009D01*
X183327199Y-82194697D01*
X183327201Y-82194693D01*
X183327204Y-82194691D01*
X183412985Y-82076622D01*
X183452146Y-82022721D01*
X183456888Y-82013413D01*
X183504858Y-81962616D01*
X183572678Y-81945816D01*
X183638814Y-81968350D01*
X183677858Y-82013405D01*
X183682468Y-82022452D01*
X183721823Y-82076621D01*
X184354132Y-81444313D01*
X184371170Y-81507898D01*
G37*
%TD.AperFunction*%
%TA.AperFunction,Conductor*%
G36*
X185952365Y-82076622D02*
G01*
X185952365Y-82076621D01*
X185991717Y-82022460D01*
X185996327Y-82013412D01*
X186044300Y-81962614D01*
X186112120Y-81945817D01*
X186178256Y-81968352D01*
X186217299Y-82013409D01*
X186222044Y-82022722D01*
X186346985Y-82194691D01*
X186497308Y-82345014D01*
X186669277Y-82469955D01*
X186678041Y-82474421D01*
X186728837Y-82522396D01*
X186745631Y-82590217D01*
X186723093Y-82656352D01*
X186678041Y-82695389D01*
X186669277Y-82699854D01*
X186497308Y-82824795D01*
X186346985Y-82975118D01*
X186222044Y-83147087D01*
X186217579Y-83155851D01*
X186169604Y-83206647D01*
X186101783Y-83223441D01*
X186035648Y-83200903D01*
X185996611Y-83155851D01*
X185992145Y-83147087D01*
X185867204Y-82975118D01*
X185716881Y-82824795D01*
X185544912Y-82699854D01*
X185535599Y-82695109D01*
X185484802Y-82647135D01*
X185468007Y-82579314D01*
X185490544Y-82513179D01*
X185535602Y-82474137D01*
X185544650Y-82469527D01*
X185598811Y-82430175D01*
X185598812Y-82430175D01*
X184966503Y-81797867D01*
X185030088Y-81780830D01*
X185144102Y-81715004D01*
X185237194Y-81621912D01*
X185303020Y-81507898D01*
X185320057Y-81444313D01*
X185952365Y-82076622D01*
G37*
%TD.AperFunction*%
%TA.AperFunction,Conductor*%
G36*
X183638539Y-79428904D02*
G01*
X183677581Y-79473961D01*
X183682046Y-79482725D01*
X183806985Y-79654691D01*
X183957308Y-79805014D01*
X184129274Y-79929953D01*
X184129276Y-79929954D01*
X184129279Y-79929956D01*
X184138588Y-79934699D01*
X184189385Y-79982671D01*
X184206182Y-80050492D01*
X184183647Y-80116627D01*
X184138600Y-80155665D01*
X184129541Y-80160281D01*
X184129535Y-80160285D01*
X184075377Y-80199632D01*
X184075377Y-80199633D01*
X184707686Y-80831942D01*
X184644102Y-80848980D01*
X184530088Y-80914806D01*
X184436996Y-81007898D01*
X184371170Y-81121912D01*
X184354132Y-81185496D01*
X183721823Y-80553187D01*
X183721822Y-80553187D01*
X183682475Y-80607345D01*
X183682471Y-80607351D01*
X183677855Y-80616410D01*
X183629876Y-80667202D01*
X183562054Y-80683992D01*
X183495921Y-80661448D01*
X183456889Y-80616398D01*
X183452146Y-80607089D01*
X183452144Y-80607086D01*
X183452143Y-80607084D01*
X183327204Y-80435118D01*
X183176881Y-80284795D01*
X183004915Y-80159856D01*
X182996695Y-80155668D01*
X182996149Y-80155390D01*
X182945354Y-80107417D01*
X182928558Y-80039597D01*
X182951094Y-79973461D01*
X182996149Y-79934420D01*
X183004911Y-79929956D01*
X183026884Y-79913991D01*
X183176881Y-79805014D01*
X183176883Y-79805011D01*
X183176887Y-79805009D01*
X183327199Y-79654697D01*
X183327201Y-79654693D01*
X183327204Y-79654691D01*
X183452143Y-79482725D01*
X183452142Y-79482725D01*
X183452146Y-79482721D01*
X183456609Y-79473959D01*
X183504583Y-79423164D01*
X183572403Y-79406368D01*
X183638539Y-79428904D01*
G37*
%TD.AperFunction*%
%TA.AperFunction,Conductor*%
G36*
X186124321Y-79410429D02*
G01*
X186136905Y-79409890D01*
X186156769Y-79421486D01*
X186178539Y-79428904D01*
X186187814Y-79439608D01*
X186197246Y-79445114D01*
X186217581Y-79473961D01*
X186222046Y-79482725D01*
X186346985Y-79654691D01*
X186497308Y-79805014D01*
X186669277Y-79929955D01*
X186678041Y-79934421D01*
X186728837Y-79982396D01*
X186745631Y-80050217D01*
X186723093Y-80116352D01*
X186678041Y-80155389D01*
X186669277Y-80159854D01*
X186497308Y-80284795D01*
X186346985Y-80435118D01*
X186222044Y-80607087D01*
X186217297Y-80616404D01*
X186169322Y-80667198D01*
X186101500Y-80683992D01*
X186035366Y-80661453D01*
X185996329Y-80616400D01*
X185991721Y-80607357D01*
X185952365Y-80553187D01*
X185952364Y-80553187D01*
X185320057Y-81185495D01*
X185303020Y-81121912D01*
X185237194Y-81007898D01*
X185144102Y-80914806D01*
X185030088Y-80848980D01*
X184966504Y-80831942D01*
X185598811Y-80199633D01*
X185544642Y-80160278D01*
X185544642Y-80160277D01*
X185535595Y-80155668D01*
X185484801Y-80107693D01*
X185468007Y-80039871D01*
X185490546Y-79973737D01*
X185535603Y-79934698D01*
X185544911Y-79929956D01*
X185631242Y-79867233D01*
X185716881Y-79805014D01*
X185716883Y-79805011D01*
X185716887Y-79805009D01*
X185867199Y-79654697D01*
X185867201Y-79654693D01*
X185867204Y-79654691D01*
X185992143Y-79482725D01*
X185992142Y-79482725D01*
X185992146Y-79482721D01*
X185996609Y-79473959D01*
X186005255Y-79464805D01*
X186009992Y-79453137D01*
X186028791Y-79439884D01*
X186044583Y-79423164D01*
X186056805Y-79420136D01*
X186067099Y-79412881D01*
X186090080Y-79411896D01*
X186112403Y-79406368D01*
X186124321Y-79410429D01*
G37*
%TD.AperFunction*%
%TD*%
M02*
