M48
; DRILL file {KiCad 9.0.4} date 2025-09-08T19:07:14+0900
; FORMAT={-:-/ absolute / metric / decimal}
; #@! TF.CreationDate,2025-09-08T19:07:14+09:00
; #@! TF.GenerationSoftware,Kicad,Pcbnew,9.0.4
; #@! TF.FileFunction,Plated,1,4,PTH
FMAT,2
METRIC
; #@! TA.AperFunction,Plated,PTH,ViaDrill
T1C0.300
; #@! TA.AperFunction,Plated,PTH,ComponentDrill
T2C0.800
; #@! TA.AperFunction,Plated,PTH,ComponentDrill
T3C0.889
; #@! TA.AperFunction,Plated,PTH,ComponentDrill
T4C1.000
%
G90
G05
T1
X92.657Y-110.295
X92.657Y-113.295
X93.657Y-84.295
X93.657Y-106.295
X93.657Y-107.295
X93.657Y-110.295
X93.657Y-113.295
X93.657Y-114.295
X94.657Y-106.295
X94.657Y-107.295
X94.657Y-108.295
X94.657Y-109.295
X94.657Y-110.295
X94.657Y-111.295
X94.657Y-112.295
X94.657Y-113.295
X94.657Y-114.295
X94.657Y-115.295
X95.657Y-100.295
X95.657Y-101.295
X95.657Y-102.295
X95.657Y-103.295
X95.657Y-106.295
X95.657Y-107.295
X95.657Y-108.295
X95.657Y-109.295
X95.657Y-110.295
X95.657Y-111.295
X95.657Y-112.295
X95.657Y-113.295
X95.657Y-114.295
X95.657Y-115.295
X95.657Y-116.295
X96.657Y-100.295
X96.657Y-101.295
X96.657Y-102.295
X96.657Y-103.295
X96.657Y-106.295
X96.657Y-107.295
X96.657Y-108.295
X96.657Y-109.295
X96.657Y-110.295
X96.657Y-111.295
X96.657Y-112.295
X96.657Y-113.295
X96.657Y-114.295
X96.657Y-115.295
X96.657Y-116.295
X96.657Y-117.295
X97.657Y-102.295
X97.657Y-103.295
X97.657Y-106.295
X97.657Y-107.295
X97.657Y-108.295
X97.657Y-109.295
X97.657Y-110.295
X97.657Y-111.295
X97.657Y-112.295
X97.657Y-113.295
X97.657Y-114.295
X97.657Y-115.295
X97.657Y-116.295
X97.657Y-117.295
X98.157Y-79.295
X98.657Y-109.295
X98.657Y-110.295
X98.657Y-113.295
X98.657Y-114.295
X98.657Y-115.295
X98.657Y-116.295
X98.657Y-117.295
X99.157Y-100.295
X99.157Y-101.295
X99.157Y-102.295
X99.157Y-103.295
X99.657Y-113.295
X99.657Y-114.295
X99.657Y-115.295
X99.657Y-116.295
X99.657Y-117.295
X99.657Y-118.295
X99.657Y-119.295
X99.657Y-120.295
X100.157Y-100.295
X100.157Y-101.295
X100.157Y-102.295
X100.157Y-103.295
X100.159Y-82.886
X100.657Y-115.295
X100.657Y-116.295
X100.657Y-117.295
X100.657Y-118.295
X100.657Y-119.295
X100.657Y-120.295
X102.157Y-109.295
X102.157Y-110.295
X103.157Y-109.295
X103.157Y-110.295
X104.157Y-109.295
X104.157Y-110.295
X105.157Y-109.295
X105.157Y-110.295
X106.157Y-109.295
X106.157Y-110.295
X106.657Y-90.295
X106.657Y-91.295
X106.657Y-92.295
X106.657Y-93.295
X106.657Y-94.295
X106.657Y-95.295
X106.657Y-96.295
X106.657Y-97.295
X106.657Y-98.295
X106.657Y-99.295
X106.657Y-100.295
X106.657Y-101.295
X106.657Y-102.295
X106.657Y-103.295
X107.157Y-109.295
X107.157Y-110.295
X107.657Y-90.295
X107.657Y-91.295
X107.657Y-92.295
X107.657Y-93.295
X107.657Y-94.295
X107.657Y-95.295
X107.657Y-96.295
X107.657Y-97.295
X107.657Y-98.295
X107.657Y-99.295
X107.657Y-100.295
X107.657Y-101.295
X107.657Y-102.295
X107.657Y-103.295
X108.157Y-109.295
X108.157Y-110.295
X108.657Y-92.295
X108.657Y-93.295
X108.657Y-94.295
X108.657Y-95.295
X108.657Y-96.295
X108.657Y-97.295
X108.657Y-98.295
X108.657Y-99.295
X108.657Y-100.295
X108.657Y-101.295
X108.657Y-102.295
X108.657Y-103.295
X109.157Y-109.295
X109.157Y-110.295
X109.657Y-92.295
X109.657Y-93.295
X109.657Y-94.295
X109.657Y-95.295
X109.657Y-96.295
X109.657Y-97.295
X109.657Y-98.295
X109.657Y-99.295
X109.657Y-100.295
X109.657Y-101.295
X109.657Y-102.295
X109.657Y-103.295
X110.157Y-109.295
X110.157Y-110.295
X110.157Y-111.295
X110.657Y-92.295
X110.657Y-93.295
X110.657Y-94.271
X110.657Y-95.295
X110.657Y-96.295
X110.657Y-97.295
X110.657Y-98.295
X110.657Y-99.295
X110.657Y-100.295
X110.657Y-101.295
X110.657Y-102.295
X110.657Y-103.295
X111.157Y-109.295
X111.157Y-110.295
X111.157Y-111.295
X111.157Y-112.295
X111.657Y-92.295
X111.657Y-93.295
X111.657Y-94.295
X111.657Y-95.295
X111.657Y-96.295
X111.657Y-97.295
X111.657Y-98.295
X111.657Y-99.295
X111.657Y-100.295
X111.657Y-101.295
X111.657Y-102.295
X111.657Y-103.295
X112.157Y-109.295
X112.157Y-110.295
X112.157Y-111.295
X112.157Y-112.295
X113.157Y-109.295
X113.157Y-110.295
X113.157Y-111.295
X113.157Y-112.295
X113.157Y-113.295
X113.157Y-114.295
X114.157Y-109.295
X114.157Y-110.295
X114.157Y-111.295
X114.157Y-112.295
X114.157Y-113.295
X114.157Y-114.295
X115.157Y-106.295
X115.157Y-107.295
X115.157Y-108.295
X115.157Y-109.295
X115.157Y-110.295
X115.157Y-111.295
X115.157Y-112.295
X115.157Y-113.295
X115.157Y-114.295
X116.157Y-106.295
X116.157Y-107.295
X116.157Y-108.295
X116.157Y-109.295
X116.157Y-110.295
X116.157Y-111.295
X116.157Y-112.295
X116.157Y-113.295
X116.157Y-114.295
X117.157Y-106.295
X117.157Y-107.295
X117.157Y-108.295
X117.157Y-109.295
X117.157Y-110.295
X117.157Y-111.295
X117.157Y-112.295
X117.157Y-113.295
X117.157Y-114.295
X118.157Y-87.795
X118.157Y-88.795
X118.157Y-89.795
X118.157Y-90.795
X118.157Y-91.795
X118.157Y-92.795
X118.157Y-102.295
X118.157Y-103.295
X118.157Y-104.295
X118.157Y-105.295
X118.157Y-106.295
X118.157Y-107.295
X118.157Y-108.295
X118.157Y-109.295
X118.157Y-110.295
X118.157Y-111.295
X118.157Y-112.295
X118.157Y-113.295
X118.157Y-114.295
X119.157Y-87.795
X119.157Y-88.795
X119.157Y-89.795
X119.157Y-90.795
X119.157Y-91.795
X119.157Y-92.795
X119.157Y-93.795
X119.157Y-102.295
X119.157Y-103.295
X119.157Y-104.295
X119.157Y-105.295
X119.157Y-106.295
X119.157Y-107.295
X119.157Y-108.295
X119.157Y-109.295
X119.157Y-110.295
X119.157Y-111.295
X119.157Y-112.295
X119.157Y-113.295
X120.157Y-87.795
X120.157Y-88.795
X120.157Y-89.795
X120.157Y-90.795
X120.157Y-91.795
X120.157Y-92.795
X120.157Y-93.795
X120.157Y-102.295
X120.157Y-103.295
X120.157Y-104.295
X120.157Y-105.295
X120.157Y-106.295
X120.157Y-107.295
X120.157Y-108.295
X120.157Y-109.295
X120.157Y-110.295
X120.157Y-111.295
X121.157Y-87.795
X121.157Y-88.795
X121.157Y-91.795
X121.157Y-92.795
X121.157Y-93.795
X121.157Y-106.295
X121.157Y-107.295
X121.157Y-108.295
X121.157Y-109.295
X121.157Y-110.295
X121.157Y-111.295
X122.157Y-87.795
X122.157Y-88.795
X122.157Y-91.795
X122.157Y-92.795
X122.157Y-93.795
X122.157Y-106.295
X122.157Y-107.295
X122.157Y-108.295
X122.157Y-109.295
X122.157Y-110.295
X122.157Y-111.295
X123.157Y-87.795
X123.157Y-88.795
X123.157Y-89.795
X123.157Y-90.795
X123.157Y-91.795
X123.157Y-92.795
X123.157Y-93.795
X126.657Y-110.795
X126.657Y-111.795
X126.657Y-112.795
X126.657Y-113.795
X126.657Y-114.795
X126.657Y-115.795
X126.657Y-116.795
X126.657Y-117.795
X127.157Y-81.795
X127.657Y-100.295
X127.657Y-110.795
X127.657Y-111.795
X127.657Y-112.795
X127.657Y-113.795
X127.657Y-114.795
X127.657Y-115.795
X127.657Y-116.795
X127.657Y-117.795
X128.157Y-99.795
X128.157Y-100.795
X128.657Y-100.295
X128.657Y-102.295
X128.657Y-103.295
X128.657Y-115.795
X128.657Y-116.795
X128.657Y-117.795
X129.157Y-101.295
X130.157Y-101.295
X130.157Y-104.795
X130.157Y-106.295
X131.657Y-81.295
X131.657Y-82.295
X131.657Y-83.295
X132.657Y-81.295
X132.657Y-82.295
X132.657Y-83.295
X132.657Y-88.295
X132.657Y-89.795
X132.657Y-91.295
X132.657Y-92.795
X132.657Y-94.295
X132.657Y-95.795
X132.657Y-97.295
X132.657Y-98.795
X132.657Y-116.295
X132.657Y-117.295
X133.657Y-103.295
X133.657Y-104.795
X133.657Y-106.295
X133.657Y-107.795
X133.657Y-108.795
X133.657Y-110.295
X134.657Y-80.295
X185.0Y-119.5
X185.5Y-119.0
X186.0Y-118.5
T2
X103.037Y-114.295
X103.037Y-119.295
X110.657Y-114.295
X110.657Y-119.295
T3
X108.68Y-90.271
X108.68Y-104.771
X111.22Y-90.271
X111.22Y-104.771
X116.3Y-90.271
X116.3Y-104.771
X121.38Y-90.271
X121.38Y-104.771
T4
X97.857Y-93.545
X97.857Y-96.045
X97.857Y-98.545
X97.857Y-101.045
X136.577Y-78.775
X136.577Y-81.315
X136.577Y-83.855
X136.577Y-86.395
X136.577Y-88.935
X136.577Y-91.475
X136.577Y-94.015
X136.577Y-96.555
X136.577Y-99.095
X136.577Y-101.635
X136.577Y-104.175
X136.577Y-106.715
X136.577Y-109.255
X136.577Y-111.795
X136.577Y-114.335
X136.577Y-116.875
X139.117Y-78.775
X139.117Y-81.315
X139.117Y-83.855
X139.117Y-86.395
X139.117Y-88.935
X139.117Y-91.475
X139.117Y-94.015
X139.117Y-96.555
X139.117Y-99.095
X139.117Y-101.635
X139.117Y-104.175
X139.117Y-106.715
X139.117Y-109.255
X139.117Y-111.795
X139.117Y-114.335
X139.117Y-116.875
X141.657Y-78.775
X141.657Y-81.315
X141.657Y-83.855
X141.657Y-86.395
X141.657Y-88.935
X141.657Y-91.475
X141.657Y-94.015
X141.657Y-96.555
X141.657Y-99.095
X141.657Y-101.635
X141.657Y-104.175
X141.657Y-106.715
X141.657Y-109.255
X141.657Y-111.795
X141.657Y-114.335
X141.657Y-116.875
X144.197Y-78.775
X144.197Y-81.315
X144.197Y-83.855
X144.197Y-86.395
X144.197Y-88.935
X144.197Y-91.475
X144.197Y-94.015
X144.197Y-96.555
X144.197Y-99.095
X144.197Y-101.635
X144.197Y-104.175
X144.197Y-106.715
X144.197Y-109.255
X144.197Y-111.795
X144.197Y-114.335
X144.197Y-116.875
X146.737Y-78.775
X146.737Y-81.315
X146.737Y-83.855
X146.737Y-86.395
X146.737Y-88.935
X146.737Y-91.475
X146.737Y-94.015
X146.737Y-96.555
X146.737Y-99.095
X146.737Y-101.635
X146.737Y-104.175
X146.737Y-106.715
X146.737Y-109.255
X146.737Y-111.795
X146.737Y-114.335
X146.737Y-116.875
X149.277Y-78.775
X149.277Y-81.315
X149.277Y-83.855
X149.277Y-86.395
X149.277Y-88.935
X149.277Y-91.475
X149.277Y-94.015
X149.277Y-96.555
X149.277Y-99.095
X149.277Y-101.635
X149.277Y-104.175
X149.277Y-106.715
X149.277Y-109.255
X149.277Y-111.795
X149.277Y-114.335
X149.277Y-116.875
X151.817Y-78.775
X151.817Y-81.315
X151.817Y-83.855
X151.817Y-86.395
X151.817Y-88.935
X151.817Y-91.475
X151.817Y-94.015
X151.817Y-96.555
X151.817Y-99.095
X151.817Y-101.635
X151.817Y-104.175
X151.817Y-106.715
X151.817Y-109.255
X151.817Y-111.795
X151.817Y-114.335
X151.817Y-116.875
X154.357Y-78.775
X154.357Y-81.315
X154.357Y-83.855
X154.357Y-86.395
X154.357Y-88.935
X154.357Y-91.475
X154.357Y-94.015
X154.357Y-96.555
X154.357Y-99.095
X154.357Y-101.635
X154.357Y-104.175
X154.357Y-106.715
X154.357Y-109.255
X154.357Y-111.795
X154.357Y-114.335
X154.357Y-116.875
X156.897Y-78.775
X156.897Y-81.315
X156.897Y-83.855
X156.897Y-86.395
X156.897Y-88.935
X156.897Y-91.475
X156.897Y-94.015
X156.897Y-96.555
X156.897Y-99.095
X156.897Y-101.635
X156.897Y-104.175
X156.897Y-106.715
X156.897Y-109.255
X156.897Y-111.795
X156.897Y-114.335
X156.897Y-116.875
X159.437Y-78.775
X159.437Y-81.315
X159.437Y-83.855
X159.437Y-86.395
X159.437Y-88.935
X159.437Y-91.475
X159.437Y-94.015
X159.437Y-96.555
X159.437Y-99.095
X159.437Y-101.635
X159.437Y-104.175
X159.437Y-106.715
X159.437Y-109.255
X159.437Y-111.795
X159.437Y-114.335
X159.437Y-116.875
X161.977Y-78.775
X161.977Y-81.315
X161.977Y-83.855
X161.977Y-86.395
X161.977Y-88.935
X161.977Y-91.475
X161.977Y-94.015
X161.977Y-96.555
X161.977Y-99.095
X161.977Y-101.635
X161.977Y-104.175
X161.977Y-106.715
X161.977Y-109.255
X161.977Y-111.795
X161.977Y-114.335
X161.977Y-116.875
X164.517Y-78.775
X164.517Y-81.315
X164.517Y-83.855
X164.517Y-86.395
X164.517Y-88.935
X164.517Y-91.475
X164.517Y-94.015
X164.517Y-96.555
X164.517Y-99.095
X164.517Y-101.635
X164.517Y-104.175
X164.517Y-106.715
X164.517Y-109.255
X164.517Y-111.795
X164.517Y-114.335
X164.517Y-116.875
X167.057Y-78.775
X167.057Y-81.315
X167.057Y-83.855
X167.057Y-86.395
X167.057Y-88.935
X167.057Y-91.475
X167.057Y-94.015
X167.057Y-96.555
X167.057Y-99.095
X167.057Y-101.635
X167.057Y-104.175
X167.057Y-106.715
X167.057Y-109.255
X167.057Y-111.795
X167.057Y-114.335
X167.057Y-116.875
X169.597Y-78.775
X169.597Y-81.315
X169.597Y-83.855
X169.597Y-86.395
X169.597Y-88.935
X169.597Y-91.475
X169.597Y-94.015
X169.597Y-96.555
X169.597Y-99.095
X169.597Y-101.635
X169.597Y-104.175
X169.597Y-106.715
X169.597Y-109.255
X169.597Y-111.795
X169.597Y-114.335
X169.597Y-116.875
X172.137Y-78.775
X172.137Y-81.315
X172.137Y-83.855
X172.137Y-86.395
X172.137Y-88.935
X172.137Y-91.475
X172.137Y-94.015
X172.137Y-96.555
X172.137Y-99.095
X172.137Y-101.635
X172.137Y-104.175
X172.137Y-106.715
X172.137Y-109.255
X172.137Y-111.795
X172.137Y-114.335
X172.137Y-116.875
X174.677Y-78.775
X174.677Y-81.315
X174.677Y-83.855
X174.677Y-86.395
X174.677Y-88.935
X174.677Y-91.475
X174.677Y-94.015
X174.677Y-96.555
X174.677Y-99.095
X174.677Y-101.635
X174.677Y-104.175
X174.677Y-106.715
X174.677Y-109.255
X174.677Y-111.795
X174.677Y-114.335
X174.677Y-116.875
X177.217Y-78.775
X177.217Y-81.315
X177.217Y-83.855
X177.217Y-86.395
X177.217Y-88.935
X177.217Y-91.475
X177.217Y-94.015
X177.217Y-96.555
X177.217Y-99.095
X177.217Y-101.635
X177.217Y-104.175
X177.217Y-106.715
X177.217Y-109.255
X177.217Y-111.795
X177.217Y-114.335
X177.217Y-116.875
X179.757Y-78.775
X179.757Y-81.315
X179.757Y-83.855
X179.757Y-86.395
X179.757Y-88.935
X179.757Y-91.475
X179.757Y-94.015
X179.757Y-96.555
X179.757Y-99.095
X179.757Y-101.635
X179.757Y-104.175
X179.757Y-106.715
X179.757Y-109.255
X179.757Y-111.795
X179.757Y-114.335
X179.757Y-116.875
X182.297Y-78.775
X182.297Y-81.315
X182.297Y-83.855
X182.297Y-86.395
X182.297Y-88.935
X182.297Y-91.475
X182.297Y-94.015
X182.297Y-96.555
X182.297Y-99.095
X182.297Y-101.635
X182.297Y-104.175
X182.297Y-106.715
X182.297Y-109.255
X182.297Y-111.795
X182.297Y-114.335
X182.297Y-116.875
X184.837Y-78.775
X184.837Y-81.315
X184.837Y-83.855
X184.837Y-86.395
X184.837Y-88.935
X184.837Y-91.475
X184.837Y-94.015
X184.837Y-96.555
X184.837Y-99.095
X184.837Y-101.635
X184.837Y-104.175
X184.837Y-106.715
X184.837Y-109.255
X184.837Y-111.795
X184.837Y-114.335
X184.837Y-116.875
X187.377Y-78.775
X187.377Y-81.315
X187.377Y-83.855
X187.377Y-86.395
X187.377Y-88.935
X187.377Y-91.475
X187.377Y-94.015
X187.377Y-96.555
X187.377Y-99.095
X187.377Y-101.635
X187.377Y-104.175
X187.377Y-106.715
X187.377Y-109.255
X187.377Y-111.795
X187.377Y-114.335
X187.377Y-116.875
X189.917Y-78.775
X189.917Y-81.315
X189.917Y-83.855
X189.917Y-86.395
X189.917Y-88.935
X189.917Y-91.475
X189.917Y-94.015
X189.917Y-96.555
X189.917Y-99.095
X189.917Y-101.635
X189.917Y-104.175
X189.917Y-106.715
X189.917Y-109.255
X189.917Y-111.795
X189.917Y-114.335
X189.917Y-116.875
X192.457Y-78.775
X192.457Y-81.315
X192.457Y-83.855
X192.457Y-86.395
X192.457Y-88.935
X192.457Y-91.475
X192.457Y-94.015
X192.457Y-96.555
X192.457Y-99.095
X192.457Y-101.635
X192.457Y-104.175
X192.457Y-106.715
X192.457Y-109.255
X192.457Y-111.795
X192.457Y-114.335
X192.457Y-116.875
X194.997Y-78.775
X194.997Y-81.315
X194.997Y-83.855
X194.997Y-86.395
X194.997Y-88.935
X194.997Y-91.475
X194.997Y-94.015
X194.997Y-96.555
X194.997Y-99.095
X194.997Y-101.635
X194.997Y-104.175
X194.997Y-106.715
X194.997Y-109.255
X194.997Y-111.795
X194.997Y-114.335
X194.997Y-116.875
X197.537Y-78.775
X197.537Y-81.315
X197.537Y-83.855
X197.537Y-86.395
X197.537Y-88.935
X197.537Y-91.475
X197.537Y-94.015
X197.537Y-96.555
X197.537Y-99.095
X197.537Y-101.635
X197.537Y-104.175
X197.537Y-106.715
X197.537Y-109.255
X197.537Y-111.795
X197.537Y-114.335
X197.537Y-116.875
X200.077Y-78.775
X200.077Y-81.315
X200.077Y-83.855
X200.077Y-86.395
X200.077Y-88.935
X200.077Y-91.475
X200.077Y-94.015
X200.077Y-96.555
X200.077Y-99.095
X200.077Y-101.635
X200.077Y-104.175
X200.077Y-106.715
X200.077Y-109.255
X200.077Y-111.795
X200.077Y-114.335
X200.077Y-116.875
X202.617Y-78.775
X202.617Y-81.315
X202.617Y-83.855
X202.617Y-86.395
X202.617Y-88.935
X202.617Y-91.475
X202.617Y-94.015
X202.617Y-96.555
X202.617Y-99.095
X202.617Y-101.635
X202.617Y-104.175
X202.617Y-106.715
X202.617Y-109.255
X202.617Y-111.795
X202.617Y-114.335
X202.617Y-116.875
X205.157Y-78.775
X205.157Y-81.315
X205.157Y-83.855
X205.157Y-86.395
X205.157Y-88.935
X205.157Y-91.475
X205.157Y-94.015
X205.157Y-96.555
X205.157Y-99.095
X205.157Y-101.635
X205.157Y-104.175
X205.157Y-106.715
X205.157Y-109.255
X205.157Y-111.795
X205.157Y-114.335
X205.157Y-116.875
M30
