%TF.GenerationSoftware,KiCad,Pcbnew,9.0.4*%
%TF.CreationDate,2025-09-08T19:15:53+09:00*%
%TF.ProjectId,CAN_Isolation,43414e5f-4973-46f6-9c61-74696f6e2e6b,Ver.1.0*%
%TF.SameCoordinates,Original*%
%TF.FileFunction,Soldermask,Bot*%
%TF.FilePolarity,Negative*%
%FSLAX46Y46*%
G04 Gerber Fmt 4.6, Leading zero omitted, Abs format (unit mm)*
G04 Created by KiCad (PCBNEW 9.0.4) date 2025-09-08 19:15:53*
%MOMM*%
%LPD*%
G01*
G04 APERTURE LIST*
G04 Aperture macros list*
%AMRoundRect*
0 Rectangle with rounded corners*
0 $1 Rounding radius*
0 $2 $3 $4 $5 $6 $7 $8 $9 X,Y pos of 4 corners*
0 Add a 4 corners polygon primitive as box body*
4,1,4,$2,$3,$4,$5,$6,$7,$8,$9,$2,$3,0*
0 Add four circle primitives for the rounded corners*
1,1,$1+$1,$2,$3*
1,1,$1+$1,$4,$5*
1,1,$1+$1,$6,$7*
1,1,$1+$1,$8,$9*
0 Add four rect primitives between the rounded corners*
20,1,$1+$1,$2,$3,$4,$5,0*
20,1,$1+$1,$4,$5,$6,$7,0*
20,1,$1+$1,$6,$7,$8,$9,0*
20,1,$1+$1,$8,$9,$2,$3,0*%
G04 Aperture macros list end*
%ADD10C,3.200000*%
%ADD11R,1.700000X1.700000*%
%ADD12C,1.700000*%
%ADD13RoundRect,0.102000X-0.754000X0.754000X-0.754000X-0.754000X0.754000X-0.754000X0.754000X0.754000X0*%
%ADD14C,1.712000*%
%ADD15C,1.600000*%
%ADD16R,1.397000X1.397000*%
%ADD17C,1.397000*%
G04 APERTURE END LIST*
D10*
%TO.C,REF\u002A\u002A*%
X148657095Y-72794905D03*
%TD*%
D11*
%TO.C,J6*%
X205157095Y-88934905D03*
D12*
X202617095Y-88934905D03*
X200077095Y-88934905D03*
X197537095Y-88934905D03*
X194997095Y-88934905D03*
X192457095Y-88934905D03*
X189917095Y-88934905D03*
X187377095Y-88934905D03*
X184837095Y-88934905D03*
X182297095Y-88934905D03*
X179757095Y-88934905D03*
X177217095Y-88934905D03*
X174677095Y-88934905D03*
X172137095Y-88934905D03*
X169597095Y-88934905D03*
X167057095Y-88934905D03*
X164517095Y-88934905D03*
X161977095Y-88934905D03*
X159437095Y-88934905D03*
X156897095Y-88934905D03*
X154357095Y-88934905D03*
X151817095Y-88934905D03*
X149277095Y-88934905D03*
X146737095Y-88934905D03*
X144197095Y-88934905D03*
X141657095Y-88934905D03*
X139117095Y-88934905D03*
X136577095Y-88934905D03*
%TD*%
D10*
%TO.C,REF\u002A\u002A*%
X93657095Y-122794905D03*
%TD*%
D11*
%TO.C,J3*%
X205157095Y-81314905D03*
D12*
X202617095Y-81314905D03*
X200077095Y-81314905D03*
X197537095Y-81314905D03*
X194997095Y-81314905D03*
X192457095Y-81314905D03*
X189917095Y-81314905D03*
X187377095Y-81314905D03*
X184837095Y-81314905D03*
X182297095Y-81314905D03*
X179757095Y-81314905D03*
X177217095Y-81314905D03*
X174677095Y-81314905D03*
X172137095Y-81314905D03*
X169597095Y-81314905D03*
X167057095Y-81314905D03*
X164517095Y-81314905D03*
X161977095Y-81314905D03*
X159437095Y-81314905D03*
X156897095Y-81314905D03*
X154357095Y-81314905D03*
X151817095Y-81314905D03*
X149277095Y-81314905D03*
X146737095Y-81314905D03*
X144197095Y-81314905D03*
X141657095Y-81314905D03*
X139117095Y-81314905D03*
X136577095Y-81314905D03*
%TD*%
D13*
%TO.C,J1*%
X97857095Y-93544905D03*
D14*
X97857095Y-96044905D03*
X97857095Y-98544905D03*
X97857095Y-101044905D03*
%TD*%
D11*
%TO.C,J8*%
X205157095Y-94014905D03*
D12*
X202617095Y-94014905D03*
X200077095Y-94014905D03*
X197537095Y-94014905D03*
X194997095Y-94014905D03*
X192457095Y-94014905D03*
X189917095Y-94014905D03*
X187377095Y-94014905D03*
X184837095Y-94014905D03*
X182297095Y-94014905D03*
X179757095Y-94014905D03*
X177217095Y-94014905D03*
X174677095Y-94014905D03*
X172137095Y-94014905D03*
X169597095Y-94014905D03*
X167057095Y-94014905D03*
X164517095Y-94014905D03*
X161977095Y-94014905D03*
X159437095Y-94014905D03*
X156897095Y-94014905D03*
X154357095Y-94014905D03*
X151817095Y-94014905D03*
X149277095Y-94014905D03*
X146737095Y-94014905D03*
X144197095Y-94014905D03*
X141657095Y-94014905D03*
X139117095Y-94014905D03*
X136577095Y-94014905D03*
%TD*%
D10*
%TO.C,REF\u002A\u002A*%
X203657095Y-122794905D03*
%TD*%
D11*
%TO.C,J11*%
X205157095Y-101634905D03*
D12*
X202617095Y-101634905D03*
X200077095Y-101634905D03*
X197537095Y-101634905D03*
X194997095Y-101634905D03*
X192457095Y-101634905D03*
X189917095Y-101634905D03*
X187377095Y-101634905D03*
X184837095Y-101634905D03*
X182297095Y-101634905D03*
X179757095Y-101634905D03*
X177217095Y-101634905D03*
X174677095Y-101634905D03*
X172137095Y-101634905D03*
X169597095Y-101634905D03*
X167057095Y-101634905D03*
X164517095Y-101634905D03*
X161977095Y-101634905D03*
X159437095Y-101634905D03*
X156897095Y-101634905D03*
X154357095Y-101634905D03*
X151817095Y-101634905D03*
X149277095Y-101634905D03*
X146737095Y-101634905D03*
X144197095Y-101634905D03*
X141657095Y-101634905D03*
X139117095Y-101634905D03*
X136577095Y-101634905D03*
%TD*%
D11*
%TO.C,J17*%
X205157095Y-116874905D03*
D12*
X202617095Y-116874905D03*
X200077095Y-116874905D03*
X197537095Y-116874905D03*
X194997095Y-116874905D03*
X192457095Y-116874905D03*
X189917095Y-116874905D03*
X187377095Y-116874905D03*
X184837095Y-116874905D03*
X182297095Y-116874905D03*
X179757095Y-116874905D03*
X177217095Y-116874905D03*
X174677095Y-116874905D03*
X172137095Y-116874905D03*
X169597095Y-116874905D03*
X167057095Y-116874905D03*
X164517095Y-116874905D03*
X161977095Y-116874905D03*
X159437095Y-116874905D03*
X156897095Y-116874905D03*
X154357095Y-116874905D03*
X151817095Y-116874905D03*
X149277095Y-116874905D03*
X146737095Y-116874905D03*
X144197095Y-116874905D03*
X141657095Y-116874905D03*
X139117095Y-116874905D03*
X136577095Y-116874905D03*
%TD*%
D11*
%TO.C,J15*%
X205157095Y-111794905D03*
D12*
X202617095Y-111794905D03*
X200077095Y-111794905D03*
X197537095Y-111794905D03*
X194997095Y-111794905D03*
X192457095Y-111794905D03*
X189917095Y-111794905D03*
X187377095Y-111794905D03*
X184837095Y-111794905D03*
X182297095Y-111794905D03*
X179757095Y-111794905D03*
X177217095Y-111794905D03*
X174677095Y-111794905D03*
X172137095Y-111794905D03*
X169597095Y-111794905D03*
X167057095Y-111794905D03*
X164517095Y-111794905D03*
X161977095Y-111794905D03*
X159437095Y-111794905D03*
X156897095Y-111794905D03*
X154357095Y-111794905D03*
X151817095Y-111794905D03*
X149277095Y-111794905D03*
X146737095Y-111794905D03*
X144197095Y-111794905D03*
X141657095Y-111794905D03*
X139117095Y-111794905D03*
X136577095Y-111794905D03*
%TD*%
D11*
%TO.C,J13*%
X205157095Y-106714905D03*
D12*
X202617095Y-106714905D03*
X200077095Y-106714905D03*
X197537095Y-106714905D03*
X194997095Y-106714905D03*
X192457095Y-106714905D03*
X189917095Y-106714905D03*
X187377095Y-106714905D03*
X184837095Y-106714905D03*
X182297095Y-106714905D03*
X179757095Y-106714905D03*
X177217095Y-106714905D03*
X174677095Y-106714905D03*
X172137095Y-106714905D03*
X169597095Y-106714905D03*
X167057095Y-106714905D03*
X164517095Y-106714905D03*
X161977095Y-106714905D03*
X159437095Y-106714905D03*
X156897095Y-106714905D03*
X154357095Y-106714905D03*
X151817095Y-106714905D03*
X149277095Y-106714905D03*
X146737095Y-106714905D03*
X144197095Y-106714905D03*
X141657095Y-106714905D03*
X139117095Y-106714905D03*
X136577095Y-106714905D03*
%TD*%
D15*
%TO.C,R12*%
X103037095Y-114294905D03*
X110657095Y-114294905D03*
%TD*%
D11*
%TO.C,J16*%
X205157095Y-114334905D03*
D12*
X202617095Y-114334905D03*
X200077095Y-114334905D03*
X197537095Y-114334905D03*
X194997095Y-114334905D03*
X192457095Y-114334905D03*
X189917095Y-114334905D03*
X187377095Y-114334905D03*
X184837095Y-114334905D03*
X182297095Y-114334905D03*
X179757095Y-114334905D03*
X177217095Y-114334905D03*
X174677095Y-114334905D03*
X172137095Y-114334905D03*
X169597095Y-114334905D03*
X167057095Y-114334905D03*
X164517095Y-114334905D03*
X161977095Y-114334905D03*
X159437095Y-114334905D03*
X156897095Y-114334905D03*
X154357095Y-114334905D03*
X151817095Y-114334905D03*
X149277095Y-114334905D03*
X146737095Y-114334905D03*
X144197095Y-114334905D03*
X141657095Y-114334905D03*
X139117095Y-114334905D03*
X136577095Y-114334905D03*
%TD*%
D11*
%TO.C,J7*%
X205157095Y-91474905D03*
D12*
X202617095Y-91474905D03*
X200077095Y-91474905D03*
X197537095Y-91474905D03*
X194997095Y-91474905D03*
X192457095Y-91474905D03*
X189917095Y-91474905D03*
X187377095Y-91474905D03*
X184837095Y-91474905D03*
X182297095Y-91474905D03*
X179757095Y-91474905D03*
X177217095Y-91474905D03*
X174677095Y-91474905D03*
X172137095Y-91474905D03*
X169597095Y-91474905D03*
X167057095Y-91474905D03*
X164517095Y-91474905D03*
X161977095Y-91474905D03*
X159437095Y-91474905D03*
X156897095Y-91474905D03*
X154357095Y-91474905D03*
X151817095Y-91474905D03*
X149277095Y-91474905D03*
X146737095Y-91474905D03*
X144197095Y-91474905D03*
X141657095Y-91474905D03*
X139117095Y-91474905D03*
X136577095Y-91474905D03*
%TD*%
D11*
%TO.C,J10*%
X205157095Y-99094905D03*
D12*
X202617095Y-99094905D03*
X200077095Y-99094905D03*
X197537095Y-99094905D03*
X194997095Y-99094905D03*
X192457095Y-99094905D03*
X189917095Y-99094905D03*
X187377095Y-99094905D03*
X184837095Y-99094905D03*
X182297095Y-99094905D03*
X179757095Y-99094905D03*
X177217095Y-99094905D03*
X174677095Y-99094905D03*
X172137095Y-99094905D03*
X169597095Y-99094905D03*
X167057095Y-99094905D03*
X164517095Y-99094905D03*
X161977095Y-99094905D03*
X159437095Y-99094905D03*
X156897095Y-99094905D03*
X154357095Y-99094905D03*
X151817095Y-99094905D03*
X149277095Y-99094905D03*
X146737095Y-99094905D03*
X144197095Y-99094905D03*
X141657095Y-99094905D03*
X139117095Y-99094905D03*
X136577095Y-99094905D03*
%TD*%
D10*
%TO.C,REF\u002A\u002A*%
X148657095Y-122794905D03*
%TD*%
%TO.C,REF\u002A\u002A*%
X203657095Y-72794905D03*
%TD*%
D16*
%TO.C,U3*%
X108680095Y-90270905D03*
D17*
X111220095Y-90270905D03*
X116300095Y-90270905D03*
X121380095Y-90270905D03*
%TD*%
D16*
%TO.C,U4*%
X108680095Y-104770905D03*
D17*
X111220095Y-104770905D03*
X116300095Y-104770905D03*
X121380095Y-104770905D03*
%TD*%
D11*
%TO.C,J9*%
X205157095Y-96554905D03*
D12*
X202617095Y-96554905D03*
X200077095Y-96554905D03*
X197537095Y-96554905D03*
X194997095Y-96554905D03*
X192457095Y-96554905D03*
X189917095Y-96554905D03*
X187377095Y-96554905D03*
X184837095Y-96554905D03*
X182297095Y-96554905D03*
X179757095Y-96554905D03*
X177217095Y-96554905D03*
X174677095Y-96554905D03*
X172137095Y-96554905D03*
X169597095Y-96554905D03*
X167057095Y-96554905D03*
X164517095Y-96554905D03*
X161977095Y-96554905D03*
X159437095Y-96554905D03*
X156897095Y-96554905D03*
X154357095Y-96554905D03*
X151817095Y-96554905D03*
X149277095Y-96554905D03*
X146737095Y-96554905D03*
X144197095Y-96554905D03*
X141657095Y-96554905D03*
X139117095Y-96554905D03*
X136577095Y-96554905D03*
%TD*%
D15*
%TO.C,R11*%
X110657095Y-119294905D03*
X103037095Y-119294905D03*
%TD*%
D10*
%TO.C,REF\u002A\u002A*%
X93657095Y-72794905D03*
%TD*%
D11*
%TO.C,J2*%
X205157095Y-78774905D03*
D12*
X202617095Y-78774905D03*
X200077095Y-78774905D03*
X197537095Y-78774905D03*
X194997095Y-78774905D03*
X192457095Y-78774905D03*
X189917095Y-78774905D03*
X187377095Y-78774905D03*
X184837095Y-78774905D03*
X182297095Y-78774905D03*
X179757095Y-78774905D03*
X177217095Y-78774905D03*
X174677095Y-78774905D03*
X172137095Y-78774905D03*
X169597095Y-78774905D03*
X167057095Y-78774905D03*
X164517095Y-78774905D03*
X161977095Y-78774905D03*
X159437095Y-78774905D03*
X156897095Y-78774905D03*
X154357095Y-78774905D03*
X151817095Y-78774905D03*
X149277095Y-78774905D03*
X146737095Y-78774905D03*
X144197095Y-78774905D03*
X141657095Y-78774905D03*
X139117095Y-78774905D03*
X136577095Y-78774905D03*
%TD*%
D11*
%TO.C,J5*%
X205157095Y-86394905D03*
D12*
X202617095Y-86394905D03*
X200077095Y-86394905D03*
X197537095Y-86394905D03*
X194997095Y-86394905D03*
X192457095Y-86394905D03*
X189917095Y-86394905D03*
X187377095Y-86394905D03*
X184837095Y-86394905D03*
X182297095Y-86394905D03*
X179757095Y-86394905D03*
X177217095Y-86394905D03*
X174677095Y-86394905D03*
X172137095Y-86394905D03*
X169597095Y-86394905D03*
X167057095Y-86394905D03*
X164517095Y-86394905D03*
X161977095Y-86394905D03*
X159437095Y-86394905D03*
X156897095Y-86394905D03*
X154357095Y-86394905D03*
X151817095Y-86394905D03*
X149277095Y-86394905D03*
X146737095Y-86394905D03*
X144197095Y-86394905D03*
X141657095Y-86394905D03*
X139117095Y-86394905D03*
X136577095Y-86394905D03*
%TD*%
D11*
%TO.C,J14*%
X205157095Y-109254905D03*
D12*
X202617095Y-109254905D03*
X200077095Y-109254905D03*
X197537095Y-109254905D03*
X194997095Y-109254905D03*
X192457095Y-109254905D03*
X189917095Y-109254905D03*
X187377095Y-109254905D03*
X184837095Y-109254905D03*
X182297095Y-109254905D03*
X179757095Y-109254905D03*
X177217095Y-109254905D03*
X174677095Y-109254905D03*
X172137095Y-109254905D03*
X169597095Y-109254905D03*
X167057095Y-109254905D03*
X164517095Y-109254905D03*
X161977095Y-109254905D03*
X159437095Y-109254905D03*
X156897095Y-109254905D03*
X154357095Y-109254905D03*
X151817095Y-109254905D03*
X149277095Y-109254905D03*
X146737095Y-109254905D03*
X144197095Y-109254905D03*
X141657095Y-109254905D03*
X139117095Y-109254905D03*
X136577095Y-109254905D03*
%TD*%
D11*
%TO.C,J4*%
X205157095Y-83854905D03*
D12*
X202617095Y-83854905D03*
X200077095Y-83854905D03*
X197537095Y-83854905D03*
X194997095Y-83854905D03*
X192457095Y-83854905D03*
X189917095Y-83854905D03*
X187377095Y-83854905D03*
X184837095Y-83854905D03*
X182297095Y-83854905D03*
X179757095Y-83854905D03*
X177217095Y-83854905D03*
X174677095Y-83854905D03*
X172137095Y-83854905D03*
X169597095Y-83854905D03*
X167057095Y-83854905D03*
X164517095Y-83854905D03*
X161977095Y-83854905D03*
X159437095Y-83854905D03*
X156897095Y-83854905D03*
X154357095Y-83854905D03*
X151817095Y-83854905D03*
X149277095Y-83854905D03*
X146737095Y-83854905D03*
X144197095Y-83854905D03*
X141657095Y-83854905D03*
X139117095Y-83854905D03*
X136577095Y-83854905D03*
%TD*%
D11*
%TO.C,J12*%
X205157095Y-104174905D03*
D12*
X202617095Y-104174905D03*
X200077095Y-104174905D03*
X197537095Y-104174905D03*
X194997095Y-104174905D03*
X192457095Y-104174905D03*
X189917095Y-104174905D03*
X187377095Y-104174905D03*
X184837095Y-104174905D03*
X182297095Y-104174905D03*
X179757095Y-104174905D03*
X177217095Y-104174905D03*
X174677095Y-104174905D03*
X172137095Y-104174905D03*
X169597095Y-104174905D03*
X167057095Y-104174905D03*
X164517095Y-104174905D03*
X161977095Y-104174905D03*
X159437095Y-104174905D03*
X156897095Y-104174905D03*
X154357095Y-104174905D03*
X151817095Y-104174905D03*
X149277095Y-104174905D03*
X146737095Y-104174905D03*
X144197095Y-104174905D03*
X141657095Y-104174905D03*
X139117095Y-104174905D03*
X136577095Y-104174905D03*
%TD*%
M02*
