%TF.GenerationSoftware,KiCad,Pcbnew,9.0.4*%
%TF.CreationDate,2025-09-18T02:49:39+09:00*%
%TF.ProjectId,CAN_Isolation,43414e5f-4973-46f6-9c61-74696f6e2e6b,Ver.1.0*%
%TF.SameCoordinates,Original*%
%TF.FileFunction,Copper,L1,Top*%
%TF.FilePolarity,Positive*%
%FSLAX46Y46*%
G04 Gerber Fmt 4.6, Leading zero omitted, Abs format (unit mm)*
G04 Created by KiCad (PCBNEW 9.0.4) date 2025-09-18 02:49:39*
%MOMM*%
%LPD*%
G01*
G04 APERTURE LIST*
G04 Aperture macros list*
%AMRoundRect*
0 Rectangle with rounded corners*
0 $1 Rounding radius*
0 $2 $3 $4 $5 $6 $7 $8 $9 X,Y pos of 4 corners*
0 Add a 4 corners polygon primitive as box body*
4,1,4,$2,$3,$4,$5,$6,$7,$8,$9,$2,$3,0*
0 Add four circle primitives for the rounded corners*
1,1,$1+$1,$2,$3*
1,1,$1+$1,$4,$5*
1,1,$1+$1,$6,$7*
1,1,$1+$1,$8,$9*
0 Add four rect primitives between the rounded corners*
20,1,$1+$1,$2,$3,$4,$5,0*
20,1,$1+$1,$4,$5,$6,$7,0*
20,1,$1+$1,$6,$7,$8,$9,0*
20,1,$1+$1,$8,$9,$2,$3,0*%
G04 Aperture macros list end*
%TA.AperFunction,SMDPad,CuDef*%
%ADD10RoundRect,0.225000X-0.225000X-0.250000X0.225000X-0.250000X0.225000X0.250000X-0.225000X0.250000X0*%
%TD*%
%TA.AperFunction,SMDPad,CuDef*%
%ADD11RoundRect,0.200000X-0.200000X-0.275000X0.200000X-0.275000X0.200000X0.275000X-0.200000X0.275000X0*%
%TD*%
%TA.AperFunction,SMDPad,CuDef*%
%ADD12R,2.253927X0.622132*%
%TD*%
%TA.AperFunction,ComponentPad*%
%ADD13R,1.700000X1.700000*%
%TD*%
%TA.AperFunction,ComponentPad*%
%ADD14C,1.700000*%
%TD*%
%TA.AperFunction,ComponentPad*%
%ADD15R,1.508000X1.508000*%
%TD*%
%TA.AperFunction,ComponentPad*%
%ADD16C,1.508000*%
%TD*%
%TA.AperFunction,SMDPad,CuDef*%
%ADD17R,0.690000X0.320000*%
%TD*%
%TA.AperFunction,SMDPad,CuDef*%
%ADD18R,1.000000X1.600000*%
%TD*%
%TA.AperFunction,SMDPad,CuDef*%
%ADD19RoundRect,0.250000X-0.325000X-1.100000X0.325000X-1.100000X0.325000X1.100000X-0.325000X1.100000X0*%
%TD*%
%TA.AperFunction,ComponentPad*%
%ADD20C,1.600000*%
%TD*%
%TA.AperFunction,SMDPad,CuDef*%
%ADD21R,1.016000X0.558800*%
%TD*%
%TA.AperFunction,SMDPad,CuDef*%
%ADD22R,0.863600X0.990600*%
%TD*%
%TA.AperFunction,SMDPad,CuDef*%
%ADD23RoundRect,0.075000X0.225000X-0.540000X0.225000X0.540000X-0.225000X0.540000X-0.225000X-0.540000X0*%
%TD*%
%TA.AperFunction,SMDPad,CuDef*%
%ADD24R,0.393700X0.812800*%
%TD*%
%TA.AperFunction,SMDPad,CuDef*%
%ADD25RoundRect,0.225000X-0.250000X0.225000X-0.250000X-0.225000X0.250000X-0.225000X0.250000X0.225000X0*%
%TD*%
%TA.AperFunction,ComponentPad*%
%ADD26R,1.397000X1.397000*%
%TD*%
%TA.AperFunction,ComponentPad*%
%ADD27C,1.397000*%
%TD*%
%TA.AperFunction,SMDPad,CuDef*%
%ADD28R,1.397000X0.558800*%
%TD*%
%TA.AperFunction,SMDPad,CuDef*%
%ADD29R,0.711200X0.228600*%
%TD*%
%TA.AperFunction,SMDPad,CuDef*%
%ADD30RoundRect,0.225000X0.225000X0.250000X-0.225000X0.250000X-0.225000X-0.250000X0.225000X-0.250000X0*%
%TD*%
%TA.AperFunction,SMDPad,CuDef*%
%ADD31RoundRect,0.250000X0.325000X1.100000X-0.325000X1.100000X-0.325000X-1.100000X0.325000X-1.100000X0*%
%TD*%
%TA.AperFunction,SMDPad,CuDef*%
%ADD32R,0.400000X1.900000*%
%TD*%
%TA.AperFunction,SMDPad,CuDef*%
%ADD33RoundRect,0.250000X-1.100000X0.325000X-1.100000X-0.325000X1.100000X-0.325000X1.100000X0.325000X0*%
%TD*%
%TA.AperFunction,SMDPad,CuDef*%
%ADD34RoundRect,0.075000X-0.225000X0.540000X-0.225000X-0.540000X0.225000X-0.540000X0.225000X0.540000X0*%
%TD*%
%TA.AperFunction,ViaPad*%
%ADD35C,0.600000*%
%TD*%
%TA.AperFunction,Conductor*%
%ADD36C,0.400000*%
%TD*%
%TA.AperFunction,Conductor*%
%ADD37C,0.600000*%
%TD*%
%TA.AperFunction,Conductor*%
%ADD38C,1.500000*%
%TD*%
%TA.AperFunction,Conductor*%
%ADD39C,1.200000*%
%TD*%
%TA.AperFunction,Conductor*%
%ADD40C,1.100000*%
%TD*%
%TA.AperFunction,Conductor*%
%ADD41C,0.300000*%
%TD*%
%TA.AperFunction,Conductor*%
%ADD42C,0.200000*%
%TD*%
%TA.AperFunction,Conductor*%
%ADD43C,2.000000*%
%TD*%
%TA.AperFunction,Conductor*%
%ADD44C,0.800000*%
%TD*%
G04 APERTURE END LIST*
D10*
%TO.P,C7,1*%
%TO.N,RF_GND*%
X129882095Y-100294905D03*
%TO.P,C7,2*%
%TO.N,RF_3.3V*%
X131432095Y-100294905D03*
%TD*%
D11*
%TO.P,R9,1*%
%TO.N,Net-(LED1-Pad1)*%
X95332095Y-89294905D03*
%TO.P,R9,2*%
%TO.N,RF_GND*%
X96982095Y-89294905D03*
%TD*%
D12*
%TO.P,U2,1,VCC1*%
%TO.N,RF_3.3V*%
X130457618Y-118699905D03*
%TO.P,U2,2,TXD*%
%TO.N,Net-(U1-TXCAN)*%
X130457618Y-117429905D03*
%TO.P,U2,3,RXD*%
%TO.N,Net-(U1-RXCAN)*%
X130457618Y-116159905D03*
%TO.P,U2,4,GND1*%
%TO.N,RF_GND*%
X130457618Y-114889905D03*
%TO.P,U2,5,GND2*%
%TO.N,GND_5VCAN*%
X119856572Y-114889905D03*
%TO.P,U2,6,CANL*%
%TO.N,CAN_L*%
X119856572Y-116159905D03*
%TO.P,U2,7,CANH*%
%TO.N,CAN_H*%
X119856572Y-117429905D03*
%TO.P,U2,8,VCC2*%
%TO.N,+5VCAN*%
X119856572Y-118699905D03*
%TD*%
D13*
%TO.P,J6,1,Pin_1*%
%TO.N,unconnected-(J6-Pin_1-Pad1)*%
X205157095Y-88934905D03*
D14*
%TO.P,J6,2,Pin_2*%
%TO.N,unconnected-(J6-Pin_2-Pad2)*%
X202617095Y-88934905D03*
%TO.P,J6,3,Pin_3*%
%TO.N,unconnected-(J6-Pin_3-Pad3)*%
X200077095Y-88934905D03*
%TO.P,J6,4,Pin_4*%
%TO.N,unconnected-(J6-Pin_4-Pad4)*%
X197537095Y-88934905D03*
%TO.P,J6,5,Pin_5*%
%TO.N,unconnected-(J6-Pin_5-Pad5)*%
X194997095Y-88934905D03*
%TO.P,J6,6,Pin_6*%
%TO.N,unconnected-(J6-Pin_6-Pad6)*%
X192457095Y-88934905D03*
%TO.P,J6,7,Pin_7*%
%TO.N,unconnected-(J6-Pin_7-Pad7)*%
X189917095Y-88934905D03*
%TO.P,J6,8,Pin_8*%
%TO.N,unconnected-(J6-Pin_8-Pad8)*%
X187377095Y-88934905D03*
%TO.P,J6,9,Pin_9*%
%TO.N,unconnected-(J6-Pin_9-Pad9)*%
X184837095Y-88934905D03*
%TO.P,J6,10,Pin_10*%
%TO.N,unconnected-(J6-Pin_10-Pad10)*%
X182297095Y-88934905D03*
%TO.P,J6,11,Pin_11*%
%TO.N,unconnected-(J6-Pin_11-Pad11)*%
X179757095Y-88934905D03*
%TO.P,J6,12,Pin_12*%
%TO.N,unconnected-(J6-Pin_12-Pad12)*%
X177217095Y-88934905D03*
%TO.P,J6,13,Pin_13*%
%TO.N,unconnected-(J6-Pin_13-Pad13)*%
X174677095Y-88934905D03*
%TO.P,J6,14,Pin_14*%
%TO.N,unconnected-(J6-Pin_14-Pad14)*%
X172137095Y-88934905D03*
%TO.P,J6,15,Pin_15*%
%TO.N,unconnected-(J6-Pin_15-Pad15)*%
X169597095Y-88934905D03*
%TO.P,J6,16,Pin_16*%
%TO.N,unconnected-(J6-Pin_16-Pad16)*%
X167057095Y-88934905D03*
%TO.P,J6,17,Pin_17*%
%TO.N,unconnected-(J6-Pin_17-Pad17)*%
X164517095Y-88934905D03*
%TO.P,J6,18,Pin_18*%
%TO.N,unconnected-(J6-Pin_18-Pad18)*%
X161977095Y-88934905D03*
%TO.P,J6,19,Pin_19*%
%TO.N,unconnected-(J6-Pin_19-Pad19)*%
X159437095Y-88934905D03*
%TO.P,J6,20,Pin_20*%
%TO.N,unconnected-(J6-Pin_20-Pad20)*%
X156897095Y-88934905D03*
%TO.P,J6,21,Pin_21*%
%TO.N,unconnected-(J6-Pin_21-Pad21)*%
X154357095Y-88934905D03*
%TO.P,J6,22,Pin_22*%
%TO.N,unconnected-(J6-Pin_22-Pad22)*%
X151817095Y-88934905D03*
%TO.P,J6,23,Pin_23*%
%TO.N,unconnected-(J6-Pin_23-Pad23)*%
X149277095Y-88934905D03*
%TO.P,J6,24,Pin_24*%
%TO.N,unconnected-(J6-Pin_24-Pad24)*%
X146737095Y-88934905D03*
%TO.P,J6,25,Pin_25*%
%TO.N,unconnected-(J6-Pin_25-Pad25)*%
X144197095Y-88934905D03*
%TO.P,J6,26,Pin_26*%
%TO.N,unconnected-(J6-Pin_26-Pad26)*%
X141657095Y-88934905D03*
%TO.P,J6,27,Pin_27*%
%TO.N,unconnected-(J6-Pin_27-Pad27)*%
X139117095Y-88934905D03*
%TO.P,J6,28,Pin_28*%
%TO.N,unconnected-(J6-Pin_28-Pad28)*%
X136577095Y-88934905D03*
%TD*%
D13*
%TO.P,J3,1,Pin_1*%
%TO.N,unconnected-(J3-Pin_1-Pad1)*%
X205157095Y-81314905D03*
D14*
%TO.P,J3,2,Pin_2*%
%TO.N,RF_ANTFLAG*%
X202617095Y-81314905D03*
%TO.P,J3,3,Pin_3*%
%TO.N,RF_SHDN*%
X200077095Y-81314905D03*
%TO.P,J3,4,Pin_4*%
%TO.N,RF_LD*%
X197537095Y-81314905D03*
%TO.P,J3,5,Pin_5*%
%TO.N,RF_SDATA*%
X194997095Y-81314905D03*
%TO.P,J3,6,Pin_6*%
%TO.N,RF_SCLK*%
X192457095Y-81314905D03*
%TO.P,J3,7,Pin_7*%
%TO.N,RF_CS*%
X189917095Y-81314905D03*
%TO.P,J3,8,Pin_8*%
%TO.N,RF_GNDA*%
X187377095Y-81314905D03*
%TO.P,J3,9,Pin_9*%
%TO.N,RF_GND*%
X184837095Y-81314905D03*
%TO.P,J3,10,Pin_10*%
%TO.N,RF_3.3V*%
X182297095Y-81314905D03*
%TO.P,J3,11,Pin_11*%
%TO.N,unconnected-(J3-Pin_11-Pad11)*%
X179757095Y-81314905D03*
%TO.P,J3,12,Pin_12*%
%TO.N,unconnected-(J3-Pin_12-Pad12)*%
X177217095Y-81314905D03*
%TO.P,J3,13,Pin_13*%
%TO.N,unconnected-(J3-Pin_13-Pad13)*%
X174677095Y-81314905D03*
%TO.P,J3,14,Pin_14*%
%TO.N,unconnected-(J3-Pin_14-Pad14)*%
X172137095Y-81314905D03*
%TO.P,J3,15,Pin_15*%
%TO.N,unconnected-(J3-Pin_15-Pad15)*%
X169597095Y-81314905D03*
%TO.P,J3,16,Pin_16*%
%TO.N,unconnected-(J3-Pin_16-Pad16)*%
X167057095Y-81314905D03*
%TO.P,J3,17,Pin_17*%
%TO.N,unconnected-(J3-Pin_17-Pad17)*%
X164517095Y-81314905D03*
%TO.P,J3,18,Pin_18*%
%TO.N,unconnected-(J3-Pin_18-Pad18)*%
X161977095Y-81314905D03*
%TO.P,J3,19,Pin_19*%
%TO.N,unconnected-(J3-Pin_19-Pad19)*%
X159437095Y-81314905D03*
%TO.P,J3,20,Pin_20*%
%TO.N,unconnected-(J3-Pin_20-Pad20)*%
X156897095Y-81314905D03*
%TO.P,J3,21,Pin_21*%
%TO.N,unconnected-(J3-Pin_21-Pad21)*%
X154357095Y-81314905D03*
%TO.P,J3,22,Pin_22*%
%TO.N,unconnected-(J3-Pin_22-Pad22)*%
X151817095Y-81314905D03*
%TO.P,J3,23,Pin_23*%
%TO.N,unconnected-(J3-Pin_23-Pad23)*%
X149277095Y-81314905D03*
%TO.P,J3,24,Pin_24*%
%TO.N,unconnected-(J3-Pin_24-Pad24)*%
X146737095Y-81314905D03*
%TO.P,J3,25,Pin_25*%
%TO.N,unconnected-(J3-Pin_25-Pad25)*%
X144197095Y-81314905D03*
%TO.P,J3,26,Pin_26*%
%TO.N,unconnected-(J3-Pin_26-Pad26)*%
X141657095Y-81314905D03*
%TO.P,J3,27,Pin_27*%
%TO.N,unconnected-(J3-Pin_27-Pad27)*%
X139117095Y-81314905D03*
%TO.P,J3,28,Pin_28*%
%TO.N,unconnected-(J3-Pin_28-Pad28)*%
X136577095Y-81314905D03*
%TD*%
D15*
%TO.P,J1,1,1*%
%TO.N,BAT_12V*%
X97857095Y-93544905D03*
D16*
%TO.P,J1,2,2*%
%TO.N,CAN_H*%
X97857095Y-96044905D03*
%TO.P,J1,3,3*%
%TO.N,CAN_L*%
X97857095Y-98544905D03*
%TO.P,J1,4,4*%
%TO.N,BAT_GND*%
X97857095Y-101044905D03*
%TD*%
D10*
%TO.P,C10,1*%
%TO.N,CAN_H*%
X91382095Y-111794905D03*
%TO.P,C10,2*%
%TO.N,GND_5VCAN*%
X92932095Y-111794905D03*
%TD*%
D13*
%TO.P,J8,1,Pin_1*%
%TO.N,unconnected-(J8-Pin_1-Pad1)*%
X205157095Y-94014905D03*
D14*
%TO.P,J8,2,Pin_2*%
%TO.N,unconnected-(J8-Pin_2-Pad2)*%
X202617095Y-94014905D03*
%TO.P,J8,3,Pin_3*%
%TO.N,unconnected-(J8-Pin_3-Pad3)*%
X200077095Y-94014905D03*
%TO.P,J8,4,Pin_4*%
%TO.N,unconnected-(J8-Pin_4-Pad4)*%
X197537095Y-94014905D03*
%TO.P,J8,5,Pin_5*%
%TO.N,unconnected-(J8-Pin_5-Pad5)*%
X194997095Y-94014905D03*
%TO.P,J8,6,Pin_6*%
%TO.N,unconnected-(J8-Pin_6-Pad6)*%
X192457095Y-94014905D03*
%TO.P,J8,7,Pin_7*%
%TO.N,unconnected-(J8-Pin_7-Pad7)*%
X189917095Y-94014905D03*
%TO.P,J8,8,Pin_8*%
%TO.N,unconnected-(J8-Pin_8-Pad8)*%
X187377095Y-94014905D03*
%TO.P,J8,9,Pin_9*%
%TO.N,unconnected-(J8-Pin_9-Pad9)*%
X184837095Y-94014905D03*
%TO.P,J8,10,Pin_10*%
%TO.N,unconnected-(J8-Pin_10-Pad10)*%
X182297095Y-94014905D03*
%TO.P,J8,11,Pin_11*%
%TO.N,unconnected-(J8-Pin_11-Pad11)*%
X179757095Y-94014905D03*
%TO.P,J8,12,Pin_12*%
%TO.N,unconnected-(J8-Pin_12-Pad12)*%
X177217095Y-94014905D03*
%TO.P,J8,13,Pin_13*%
%TO.N,unconnected-(J8-Pin_13-Pad13)*%
X174677095Y-94014905D03*
%TO.P,J8,14,Pin_14*%
%TO.N,unconnected-(J8-Pin_14-Pad14)*%
X172137095Y-94014905D03*
%TO.P,J8,15,Pin_15*%
%TO.N,unconnected-(J8-Pin_15-Pad15)*%
X169597095Y-94014905D03*
%TO.P,J8,16,Pin_16*%
%TO.N,unconnected-(J8-Pin_16-Pad16)*%
X167057095Y-94014905D03*
%TO.P,J8,17,Pin_17*%
%TO.N,unconnected-(J8-Pin_17-Pad17)*%
X164517095Y-94014905D03*
%TO.P,J8,18,Pin_18*%
%TO.N,unconnected-(J8-Pin_18-Pad18)*%
X161977095Y-94014905D03*
%TO.P,J8,19,Pin_19*%
%TO.N,unconnected-(J8-Pin_19-Pad19)*%
X159437095Y-94014905D03*
%TO.P,J8,20,Pin_20*%
%TO.N,unconnected-(J8-Pin_20-Pad20)*%
X156897095Y-94014905D03*
%TO.P,J8,21,Pin_21*%
%TO.N,unconnected-(J8-Pin_21-Pad21)*%
X154357095Y-94014905D03*
%TO.P,J8,22,Pin_22*%
%TO.N,unconnected-(J8-Pin_22-Pad22)*%
X151817095Y-94014905D03*
%TO.P,J8,23,Pin_23*%
%TO.N,unconnected-(J8-Pin_23-Pad23)*%
X149277095Y-94014905D03*
%TO.P,J8,24,Pin_24*%
%TO.N,unconnected-(J8-Pin_24-Pad24)*%
X146737095Y-94014905D03*
%TO.P,J8,25,Pin_25*%
%TO.N,unconnected-(J8-Pin_25-Pad25)*%
X144197095Y-94014905D03*
%TO.P,J8,26,Pin_26*%
%TO.N,unconnected-(J8-Pin_26-Pad26)*%
X141657095Y-94014905D03*
%TO.P,J8,27,Pin_27*%
%TO.N,unconnected-(J8-Pin_27-Pad27)*%
X139117095Y-94014905D03*
%TO.P,J8,28,Pin_28*%
%TO.N,unconnected-(J8-Pin_28-Pad28)*%
X136577095Y-94014905D03*
%TD*%
D13*
%TO.P,J11,1,Pin_1*%
%TO.N,unconnected-(J11-Pin_1-Pad1)*%
X205157095Y-101634905D03*
D14*
%TO.P,J11,2,Pin_2*%
%TO.N,unconnected-(J11-Pin_2-Pad2)*%
X202617095Y-101634905D03*
%TO.P,J11,3,Pin_3*%
%TO.N,unconnected-(J11-Pin_3-Pad3)*%
X200077095Y-101634905D03*
%TO.P,J11,4,Pin_4*%
%TO.N,unconnected-(J11-Pin_4-Pad4)*%
X197537095Y-101634905D03*
%TO.P,J11,5,Pin_5*%
%TO.N,unconnected-(J11-Pin_5-Pad5)*%
X194997095Y-101634905D03*
%TO.P,J11,6,Pin_6*%
%TO.N,unconnected-(J11-Pin_6-Pad6)*%
X192457095Y-101634905D03*
%TO.P,J11,7,Pin_7*%
%TO.N,unconnected-(J11-Pin_7-Pad7)*%
X189917095Y-101634905D03*
%TO.P,J11,8,Pin_8*%
%TO.N,unconnected-(J11-Pin_8-Pad8)*%
X187377095Y-101634905D03*
%TO.P,J11,9,Pin_9*%
%TO.N,unconnected-(J11-Pin_9-Pad9)*%
X184837095Y-101634905D03*
%TO.P,J11,10,Pin_10*%
%TO.N,unconnected-(J11-Pin_10-Pad10)*%
X182297095Y-101634905D03*
%TO.P,J11,11,Pin_11*%
%TO.N,unconnected-(J11-Pin_11-Pad11)*%
X179757095Y-101634905D03*
%TO.P,J11,12,Pin_12*%
%TO.N,unconnected-(J11-Pin_12-Pad12)*%
X177217095Y-101634905D03*
%TO.P,J11,13,Pin_13*%
%TO.N,unconnected-(J11-Pin_13-Pad13)*%
X174677095Y-101634905D03*
%TO.P,J11,14,Pin_14*%
%TO.N,unconnected-(J11-Pin_14-Pad14)*%
X172137095Y-101634905D03*
%TO.P,J11,15,Pin_15*%
%TO.N,unconnected-(J11-Pin_15-Pad15)*%
X169597095Y-101634905D03*
%TO.P,J11,16,Pin_16*%
%TO.N,unconnected-(J11-Pin_16-Pad16)*%
X167057095Y-101634905D03*
%TO.P,J11,17,Pin_17*%
%TO.N,unconnected-(J11-Pin_17-Pad17)*%
X164517095Y-101634905D03*
%TO.P,J11,18,Pin_18*%
%TO.N,unconnected-(J11-Pin_18-Pad18)*%
X161977095Y-101634905D03*
%TO.P,J11,19,Pin_19*%
%TO.N,unconnected-(J11-Pin_19-Pad19)*%
X159437095Y-101634905D03*
%TO.P,J11,20,Pin_20*%
%TO.N,unconnected-(J11-Pin_20-Pad20)*%
X156897095Y-101634905D03*
%TO.P,J11,21,Pin_21*%
%TO.N,unconnected-(J11-Pin_21-Pad21)*%
X154357095Y-101634905D03*
%TO.P,J11,22,Pin_22*%
%TO.N,unconnected-(J11-Pin_22-Pad22)*%
X151817095Y-101634905D03*
%TO.P,J11,23,Pin_23*%
%TO.N,unconnected-(J11-Pin_23-Pad23)*%
X149277095Y-101634905D03*
%TO.P,J11,24,Pin_24*%
%TO.N,unconnected-(J11-Pin_24-Pad24)*%
X146737095Y-101634905D03*
%TO.P,J11,25,Pin_25*%
%TO.N,unconnected-(J11-Pin_25-Pad25)*%
X144197095Y-101634905D03*
%TO.P,J11,26,Pin_26*%
%TO.N,unconnected-(J11-Pin_26-Pad26)*%
X141657095Y-101634905D03*
%TO.P,J11,27,Pin_27*%
%TO.N,unconnected-(J11-Pin_27-Pad27)*%
X139117095Y-101634905D03*
%TO.P,J11,28,Pin_28*%
%TO.N,unconnected-(J11-Pin_28-Pad28)*%
X136577095Y-101634905D03*
%TD*%
D13*
%TO.P,J17,1,Pin_1*%
%TO.N,unconnected-(J17-Pin_1-Pad1)*%
X205157095Y-116874905D03*
D14*
%TO.P,J17,2,Pin_2*%
%TO.N,unconnected-(J17-Pin_2-Pad2)*%
X202617095Y-116874905D03*
%TO.P,J17,3,Pin_3*%
%TO.N,unconnected-(J17-Pin_3-Pad3)*%
X200077095Y-116874905D03*
%TO.P,J17,4,Pin_4*%
%TO.N,unconnected-(J17-Pin_4-Pad4)*%
X197537095Y-116874905D03*
%TO.P,J17,5,Pin_5*%
%TO.N,unconnected-(J17-Pin_5-Pad5)*%
X194997095Y-116874905D03*
%TO.P,J17,6,Pin_6*%
%TO.N,unconnected-(J17-Pin_6-Pad6)*%
X192457095Y-116874905D03*
%TO.P,J17,7,Pin_7*%
%TO.N,unconnected-(J17-Pin_7-Pad7)*%
X189917095Y-116874905D03*
%TO.P,J17,8,Pin_8*%
%TO.N,unconnected-(J17-Pin_8-Pad8)*%
X187377095Y-116874905D03*
%TO.P,J17,9,Pin_9*%
%TO.N,unconnected-(J17-Pin_9-Pad9)*%
X184837095Y-116874905D03*
%TO.P,J17,10,Pin_10*%
%TO.N,unconnected-(J17-Pin_10-Pad10)*%
X182297095Y-116874905D03*
%TO.P,J17,11,Pin_11*%
%TO.N,unconnected-(J17-Pin_11-Pad11)*%
X179757095Y-116874905D03*
%TO.P,J17,12,Pin_12*%
%TO.N,unconnected-(J17-Pin_12-Pad12)*%
X177217095Y-116874905D03*
%TO.P,J17,13,Pin_13*%
%TO.N,unconnected-(J17-Pin_13-Pad13)*%
X174677095Y-116874905D03*
%TO.P,J17,14,Pin_14*%
%TO.N,unconnected-(J17-Pin_14-Pad14)*%
X172137095Y-116874905D03*
%TO.P,J17,15,Pin_15*%
%TO.N,unconnected-(J17-Pin_15-Pad15)*%
X169597095Y-116874905D03*
%TO.P,J17,16,Pin_16*%
%TO.N,unconnected-(J17-Pin_16-Pad16)*%
X167057095Y-116874905D03*
%TO.P,J17,17,Pin_17*%
%TO.N,unconnected-(J17-Pin_17-Pad17)*%
X164517095Y-116874905D03*
%TO.P,J17,18,Pin_18*%
%TO.N,unconnected-(J17-Pin_18-Pad18)*%
X161977095Y-116874905D03*
%TO.P,J17,19,Pin_19*%
%TO.N,unconnected-(J17-Pin_19-Pad19)*%
X159437095Y-116874905D03*
%TO.P,J17,20,Pin_20*%
%TO.N,unconnected-(J17-Pin_20-Pad20)*%
X156897095Y-116874905D03*
%TO.P,J17,21,Pin_21*%
%TO.N,unconnected-(J17-Pin_21-Pad21)*%
X154357095Y-116874905D03*
%TO.P,J17,22,Pin_22*%
%TO.N,unconnected-(J17-Pin_22-Pad22)*%
X151817095Y-116874905D03*
%TO.P,J17,23,Pin_23*%
%TO.N,unconnected-(J17-Pin_23-Pad23)*%
X149277095Y-116874905D03*
%TO.P,J17,24,Pin_24*%
%TO.N,unconnected-(J17-Pin_24-Pad24)*%
X146737095Y-116874905D03*
%TO.P,J17,25,Pin_25*%
%TO.N,unconnected-(J17-Pin_25-Pad25)*%
X144197095Y-116874905D03*
%TO.P,J17,26,Pin_26*%
%TO.N,unconnected-(J17-Pin_26-Pad26)*%
X141657095Y-116874905D03*
%TO.P,J17,27,Pin_27*%
%TO.N,unconnected-(J17-Pin_27-Pad27)*%
X139117095Y-116874905D03*
%TO.P,J17,28,Pin_28*%
%TO.N,unconnected-(J17-Pin_28-Pad28)*%
X136577095Y-116874905D03*
%TD*%
D17*
%TO.P,U5,1,GND*%
%TO.N,BAT_GND*%
X104677095Y-95444905D03*
%TO.P,U5,2,GND*%
X104677095Y-94794905D03*
%TO.P,U5,3,GND*%
X104677095Y-94144905D03*
%TO.P,U5,4,IN*%
%TO.N,BAT_12V*%
X102637095Y-94144905D03*
%TO.P,U5,5,IN*%
X102637095Y-94794905D03*
%TO.P,U5,6,IN*%
X102637095Y-95444905D03*
D18*
%TO.P,U5,7,GND*%
%TO.N,BAT_GND*%
X103657095Y-94794905D03*
%TD*%
D13*
%TO.P,J15,1,Pin_1*%
%TO.N,unconnected-(J15-Pin_1-Pad1)*%
X205157095Y-111794905D03*
D14*
%TO.P,J15,2,Pin_2*%
%TO.N,unconnected-(J15-Pin_2-Pad2)*%
X202617095Y-111794905D03*
%TO.P,J15,3,Pin_3*%
%TO.N,unconnected-(J15-Pin_3-Pad3)*%
X200077095Y-111794905D03*
%TO.P,J15,4,Pin_4*%
%TO.N,unconnected-(J15-Pin_4-Pad4)*%
X197537095Y-111794905D03*
%TO.P,J15,5,Pin_5*%
%TO.N,unconnected-(J15-Pin_5-Pad5)*%
X194997095Y-111794905D03*
%TO.P,J15,6,Pin_6*%
%TO.N,unconnected-(J15-Pin_6-Pad6)*%
X192457095Y-111794905D03*
%TO.P,J15,7,Pin_7*%
%TO.N,unconnected-(J15-Pin_7-Pad7)*%
X189917095Y-111794905D03*
%TO.P,J15,8,Pin_8*%
%TO.N,unconnected-(J15-Pin_8-Pad8)*%
X187377095Y-111794905D03*
%TO.P,J15,9,Pin_9*%
%TO.N,unconnected-(J15-Pin_9-Pad9)*%
X184837095Y-111794905D03*
%TO.P,J15,10,Pin_10*%
%TO.N,unconnected-(J15-Pin_10-Pad10)*%
X182297095Y-111794905D03*
%TO.P,J15,11,Pin_11*%
%TO.N,unconnected-(J15-Pin_11-Pad11)*%
X179757095Y-111794905D03*
%TO.P,J15,12,Pin_12*%
%TO.N,unconnected-(J15-Pin_12-Pad12)*%
X177217095Y-111794905D03*
%TO.P,J15,13,Pin_13*%
%TO.N,unconnected-(J15-Pin_13-Pad13)*%
X174677095Y-111794905D03*
%TO.P,J15,14,Pin_14*%
%TO.N,unconnected-(J15-Pin_14-Pad14)*%
X172137095Y-111794905D03*
%TO.P,J15,15,Pin_15*%
%TO.N,unconnected-(J15-Pin_15-Pad15)*%
X169597095Y-111794905D03*
%TO.P,J15,16,Pin_16*%
%TO.N,unconnected-(J15-Pin_16-Pad16)*%
X167057095Y-111794905D03*
%TO.P,J15,17,Pin_17*%
%TO.N,unconnected-(J15-Pin_17-Pad17)*%
X164517095Y-111794905D03*
%TO.P,J15,18,Pin_18*%
%TO.N,unconnected-(J15-Pin_18-Pad18)*%
X161977095Y-111794905D03*
%TO.P,J15,19,Pin_19*%
%TO.N,unconnected-(J15-Pin_19-Pad19)*%
X159437095Y-111794905D03*
%TO.P,J15,20,Pin_20*%
%TO.N,unconnected-(J15-Pin_20-Pad20)*%
X156897095Y-111794905D03*
%TO.P,J15,21,Pin_21*%
%TO.N,unconnected-(J15-Pin_21-Pad21)*%
X154357095Y-111794905D03*
%TO.P,J15,22,Pin_22*%
%TO.N,unconnected-(J15-Pin_22-Pad22)*%
X151817095Y-111794905D03*
%TO.P,J15,23,Pin_23*%
%TO.N,unconnected-(J15-Pin_23-Pad23)*%
X149277095Y-111794905D03*
%TO.P,J15,24,Pin_24*%
%TO.N,unconnected-(J15-Pin_24-Pad24)*%
X146737095Y-111794905D03*
%TO.P,J15,25,Pin_25*%
%TO.N,unconnected-(J15-Pin_25-Pad25)*%
X144197095Y-111794905D03*
%TO.P,J15,26,Pin_26*%
%TO.N,unconnected-(J15-Pin_26-Pad26)*%
X141657095Y-111794905D03*
%TO.P,J15,27,Pin_27*%
%TO.N,unconnected-(J15-Pin_27-Pad27)*%
X139117095Y-111794905D03*
%TO.P,J15,28,Pin_28*%
%TO.N,unconnected-(J15-Pin_28-Pad28)*%
X136577095Y-111794905D03*
%TD*%
D13*
%TO.P,J13,1,Pin_1*%
%TO.N,unconnected-(J13-Pin_1-Pad1)*%
X205157095Y-106714905D03*
D14*
%TO.P,J13,2,Pin_2*%
%TO.N,unconnected-(J13-Pin_2-Pad2)*%
X202617095Y-106714905D03*
%TO.P,J13,3,Pin_3*%
%TO.N,unconnected-(J13-Pin_3-Pad3)*%
X200077095Y-106714905D03*
%TO.P,J13,4,Pin_4*%
%TO.N,unconnected-(J13-Pin_4-Pad4)*%
X197537095Y-106714905D03*
%TO.P,J13,5,Pin_5*%
%TO.N,unconnected-(J13-Pin_5-Pad5)*%
X194997095Y-106714905D03*
%TO.P,J13,6,Pin_6*%
%TO.N,unconnected-(J13-Pin_6-Pad6)*%
X192457095Y-106714905D03*
%TO.P,J13,7,Pin_7*%
%TO.N,unconnected-(J13-Pin_7-Pad7)*%
X189917095Y-106714905D03*
%TO.P,J13,8,Pin_8*%
%TO.N,unconnected-(J13-Pin_8-Pad8)*%
X187377095Y-106714905D03*
%TO.P,J13,9,Pin_9*%
%TO.N,+5VD*%
X184837095Y-106714905D03*
%TO.P,J13,10,Pin_10*%
%TO.N,RF_GND*%
X182297095Y-106714905D03*
%TO.P,J13,11,Pin_11*%
%TO.N,RF_IDEL*%
X179757095Y-106714905D03*
%TO.P,J13,12,Pin_12*%
%TO.N,RF_LED*%
X177217095Y-106714905D03*
%TO.P,J13,13,Pin_13*%
%TO.N,RF_I1*%
X174677095Y-106714905D03*
%TO.P,J13,14,Pin_14*%
%TO.N,RF_I0*%
X172137095Y-106714905D03*
%TO.P,J13,15,Pin_15*%
%TO.N,RF_Q0*%
X169597095Y-106714905D03*
%TO.P,J13,16,Pin_16*%
%TO.N,RF_Q1*%
X167057095Y-106714905D03*
%TO.P,J13,17,Pin_17*%
%TO.N,RF_CLKOUT*%
X164517095Y-106714905D03*
%TO.P,J13,18,Pin_18*%
%TO.N,unconnected-(J13-Pin_18-Pad18)*%
X161977095Y-106714905D03*
%TO.P,J13,19,Pin_19*%
%TO.N,unconnected-(J13-Pin_19-Pad19)*%
X159437095Y-106714905D03*
%TO.P,J13,20,Pin_20*%
%TO.N,unconnected-(J13-Pin_20-Pad20)*%
X156897095Y-106714905D03*
%TO.P,J13,21,Pin_21*%
%TO.N,unconnected-(J13-Pin_21-Pad21)*%
X154357095Y-106714905D03*
%TO.P,J13,22,Pin_22*%
%TO.N,CAN_CLK*%
X151817095Y-106714905D03*
%TO.P,J13,23,Pin_23*%
%TO.N,RF_GND*%
X149277095Y-106714905D03*
%TO.P,J13,24,Pin_24*%
%TO.N,unconnected-(J13-Pin_24-Pad24)*%
X146737095Y-106714905D03*
%TO.P,J13,25,Pin_25*%
%TO.N,CAN_CS*%
X144197095Y-106714905D03*
%TO.P,J13,26,Pin_26*%
%TO.N,CAN_SDO*%
X141657095Y-106714905D03*
%TO.P,J13,27,Pin_27*%
%TO.N,CAN_SDI*%
X139117095Y-106714905D03*
%TO.P,J13,28,Pin_28*%
%TO.N,CAN_SCK*%
X136577095Y-106714905D03*
%TD*%
D19*
%TO.P,C2,1*%
%TO.N,BAT_12V*%
X102182095Y-99794905D03*
%TO.P,C2,2*%
%TO.N,BAT_GND*%
X105132095Y-99794905D03*
%TD*%
D20*
%TO.P,R12,1*%
%TO.N,Net-(C12-Pad1)*%
X103037095Y-114294905D03*
%TO.P,R12,2*%
%TO.N,CAN_L*%
X110657095Y-114294905D03*
%TD*%
D10*
%TO.P,C5,1*%
%TO.N,RF_3.3V*%
X129882095Y-120294905D03*
%TO.P,C5,2*%
%TO.N,RF_GND*%
X131432095Y-120294905D03*
%TD*%
D21*
%TO.P,U6,1*%
%TO.N,RF_GND*%
X99300095Y-83744906D03*
%TO.P,U6,2*%
%TO.N,CAN_LED*%
X99300095Y-81844904D03*
%TO.P,U6,3*%
%TO.N,Net-(R10-Pad2)*%
X97014095Y-82794905D03*
%TD*%
D13*
%TO.P,J16,1,Pin_1*%
%TO.N,RF_3.3V*%
X205157095Y-114334905D03*
D14*
%TO.P,J16,2,Pin_2*%
%TO.N,RF_LED*%
X202617095Y-114334905D03*
%TO.P,J16,3,Pin_3*%
%TO.N,RF_IDEL*%
X200077095Y-114334905D03*
%TO.P,J16,4,Pin_4*%
%TO.N,RF_I1*%
X197537095Y-114334905D03*
%TO.P,J16,5,Pin_5*%
%TO.N,RF_I0*%
X194997095Y-114334905D03*
%TO.P,J16,6,Pin_6*%
%TO.N,RF_Q0*%
X192457095Y-114334905D03*
%TO.P,J16,7,Pin_7*%
%TO.N,RF_Q1*%
X189917095Y-114334905D03*
%TO.P,J16,8,Pin_8*%
%TO.N,RF_CLKOUT*%
X187377095Y-114334905D03*
%TO.P,J16,9,Pin_9*%
%TO.N,RF_GND*%
X184837095Y-114334905D03*
%TO.P,J16,10,Pin_10*%
%TO.N,RF_GNDA*%
X182297095Y-114334905D03*
%TO.P,J16,11,Pin_11*%
%TO.N,unconnected-(J16-Pin_11-Pad11)*%
X179757095Y-114334905D03*
%TO.P,J16,12,Pin_12*%
%TO.N,unconnected-(J16-Pin_12-Pad12)*%
X177217095Y-114334905D03*
%TO.P,J16,13,Pin_13*%
%TO.N,unconnected-(J16-Pin_13-Pad13)*%
X174677095Y-114334905D03*
%TO.P,J16,14,Pin_14*%
%TO.N,unconnected-(J16-Pin_14-Pad14)*%
X172137095Y-114334905D03*
%TO.P,J16,15,Pin_15*%
%TO.N,unconnected-(J16-Pin_15-Pad15)*%
X169597095Y-114334905D03*
%TO.P,J16,16,Pin_16*%
%TO.N,unconnected-(J16-Pin_16-Pad16)*%
X167057095Y-114334905D03*
%TO.P,J16,17,Pin_17*%
%TO.N,unconnected-(J16-Pin_17-Pad17)*%
X164517095Y-114334905D03*
%TO.P,J16,18,Pin_18*%
%TO.N,unconnected-(J16-Pin_18-Pad18)*%
X161977095Y-114334905D03*
%TO.P,J16,19,Pin_19*%
%TO.N,unconnected-(J16-Pin_19-Pad19)*%
X159437095Y-114334905D03*
%TO.P,J16,20,Pin_20*%
%TO.N,unconnected-(J16-Pin_20-Pad20)*%
X156897095Y-114334905D03*
%TO.P,J16,21,Pin_21*%
%TO.N,unconnected-(J16-Pin_21-Pad21)*%
X154357095Y-114334905D03*
%TO.P,J16,22,Pin_22*%
%TO.N,unconnected-(J16-Pin_22-Pad22)*%
X151817095Y-114334905D03*
%TO.P,J16,23,Pin_23*%
%TO.N,unconnected-(J16-Pin_23-Pad23)*%
X149277095Y-114334905D03*
%TO.P,J16,24,Pin_24*%
%TO.N,unconnected-(J16-Pin_24-Pad24)*%
X146737095Y-114334905D03*
%TO.P,J16,25,Pin_25*%
%TO.N,unconnected-(J16-Pin_25-Pad25)*%
X144197095Y-114334905D03*
%TO.P,J16,26,Pin_26*%
%TO.N,unconnected-(J16-Pin_26-Pad26)*%
X141657095Y-114334905D03*
%TO.P,J16,27,Pin_27*%
%TO.N,unconnected-(J16-Pin_27-Pad27)*%
X139117095Y-114334905D03*
%TO.P,J16,28,Pin_28*%
%TO.N,unconnected-(J16-Pin_28-Pad28)*%
X136577095Y-114334905D03*
%TD*%
D13*
%TO.P,J7,1,Pin_1*%
%TO.N,unconnected-(J7-Pin_1-Pad1)*%
X205157095Y-91474905D03*
D14*
%TO.P,J7,2,Pin_2*%
%TO.N,unconnected-(J7-Pin_2-Pad2)*%
X202617095Y-91474905D03*
%TO.P,J7,3,Pin_3*%
%TO.N,unconnected-(J7-Pin_3-Pad3)*%
X200077095Y-91474905D03*
%TO.P,J7,4,Pin_4*%
%TO.N,unconnected-(J7-Pin_4-Pad4)*%
X197537095Y-91474905D03*
%TO.P,J7,5,Pin_5*%
%TO.N,unconnected-(J7-Pin_5-Pad5)*%
X194997095Y-91474905D03*
%TO.P,J7,6,Pin_6*%
%TO.N,unconnected-(J7-Pin_6-Pad6)*%
X192457095Y-91474905D03*
%TO.P,J7,7,Pin_7*%
%TO.N,unconnected-(J7-Pin_7-Pad7)*%
X189917095Y-91474905D03*
%TO.P,J7,8,Pin_8*%
%TO.N,unconnected-(J7-Pin_8-Pad8)*%
X187377095Y-91474905D03*
%TO.P,J7,9,Pin_9*%
%TO.N,unconnected-(J7-Pin_9-Pad9)*%
X184837095Y-91474905D03*
%TO.P,J7,10,Pin_10*%
%TO.N,unconnected-(J7-Pin_10-Pad10)*%
X182297095Y-91474905D03*
%TO.P,J7,11,Pin_11*%
%TO.N,unconnected-(J7-Pin_11-Pad11)*%
X179757095Y-91474905D03*
%TO.P,J7,12,Pin_12*%
%TO.N,unconnected-(J7-Pin_12-Pad12)*%
X177217095Y-91474905D03*
%TO.P,J7,13,Pin_13*%
%TO.N,unconnected-(J7-Pin_13-Pad13)*%
X174677095Y-91474905D03*
%TO.P,J7,14,Pin_14*%
%TO.N,unconnected-(J7-Pin_14-Pad14)*%
X172137095Y-91474905D03*
%TO.P,J7,15,Pin_15*%
%TO.N,unconnected-(J7-Pin_15-Pad15)*%
X169597095Y-91474905D03*
%TO.P,J7,16,Pin_16*%
%TO.N,unconnected-(J7-Pin_16-Pad16)*%
X167057095Y-91474905D03*
%TO.P,J7,17,Pin_17*%
%TO.N,unconnected-(J7-Pin_17-Pad17)*%
X164517095Y-91474905D03*
%TO.P,J7,18,Pin_18*%
%TO.N,unconnected-(J7-Pin_18-Pad18)*%
X161977095Y-91474905D03*
%TO.P,J7,19,Pin_19*%
%TO.N,unconnected-(J7-Pin_19-Pad19)*%
X159437095Y-91474905D03*
%TO.P,J7,20,Pin_20*%
%TO.N,unconnected-(J7-Pin_20-Pad20)*%
X156897095Y-91474905D03*
%TO.P,J7,21,Pin_21*%
%TO.N,unconnected-(J7-Pin_21-Pad21)*%
X154357095Y-91474905D03*
%TO.P,J7,22,Pin_22*%
%TO.N,unconnected-(J7-Pin_22-Pad22)*%
X151817095Y-91474905D03*
%TO.P,J7,23,Pin_23*%
%TO.N,unconnected-(J7-Pin_23-Pad23)*%
X149277095Y-91474905D03*
%TO.P,J7,24,Pin_24*%
%TO.N,unconnected-(J7-Pin_24-Pad24)*%
X146737095Y-91474905D03*
%TO.P,J7,25,Pin_25*%
%TO.N,unconnected-(J7-Pin_25-Pad25)*%
X144197095Y-91474905D03*
%TO.P,J7,26,Pin_26*%
%TO.N,unconnected-(J7-Pin_26-Pad26)*%
X141657095Y-91474905D03*
%TO.P,J7,27,Pin_27*%
%TO.N,unconnected-(J7-Pin_27-Pad27)*%
X139117095Y-91474905D03*
%TO.P,J7,28,Pin_28*%
%TO.N,unconnected-(J7-Pin_28-Pad28)*%
X136577095Y-91474905D03*
%TD*%
D22*
%TO.P,L1,1,1*%
%TO.N,RF_3.3V*%
X128532394Y-82294905D03*
%TO.P,L1,2,2*%
%TO.N,Net-(U7-SW)*%
X130183394Y-82294905D03*
%TD*%
D10*
%TO.P,C11,1*%
%TO.N,GND_5VCAN*%
X99382095Y-111794905D03*
%TO.P,C11,2*%
%TO.N,CAN_L*%
X100932095Y-111794905D03*
%TD*%
D23*
%TO.P,D1,1*%
%TO.N,CAN_H*%
X91207095Y-108854905D03*
%TO.P,D1,2*%
%TO.N,GND_5VCAN*%
X93107095Y-108854905D03*
%TO.P,D1,3*%
%TO.N,unconnected-(D1-Pad3)*%
X92157095Y-106734905D03*
%TD*%
D24*
%TO.P,LED2,1*%
%TO.N,Net-(LED2-Pad1)*%
X91760345Y-85794905D03*
%TO.P,LED2,2*%
%TO.N,RF_3.3V*%
X90553845Y-85794905D03*
%TD*%
D13*
%TO.P,J10,1,Pin_1*%
%TO.N,unconnected-(J10-Pin_1-Pad1)*%
X205157095Y-99094905D03*
D14*
%TO.P,J10,2,Pin_2*%
%TO.N,unconnected-(J10-Pin_2-Pad2)*%
X202617095Y-99094905D03*
%TO.P,J10,3,Pin_3*%
%TO.N,unconnected-(J10-Pin_3-Pad3)*%
X200077095Y-99094905D03*
%TO.P,J10,4,Pin_4*%
%TO.N,unconnected-(J10-Pin_4-Pad4)*%
X197537095Y-99094905D03*
%TO.P,J10,5,Pin_5*%
%TO.N,unconnected-(J10-Pin_5-Pad5)*%
X194997095Y-99094905D03*
%TO.P,J10,6,Pin_6*%
%TO.N,unconnected-(J10-Pin_6-Pad6)*%
X192457095Y-99094905D03*
%TO.P,J10,7,Pin_7*%
%TO.N,unconnected-(J10-Pin_7-Pad7)*%
X189917095Y-99094905D03*
%TO.P,J10,8,Pin_8*%
%TO.N,unconnected-(J10-Pin_8-Pad8)*%
X187377095Y-99094905D03*
%TO.P,J10,9,Pin_9*%
%TO.N,unconnected-(J10-Pin_9-Pad9)*%
X184837095Y-99094905D03*
%TO.P,J10,10,Pin_10*%
%TO.N,unconnected-(J10-Pin_10-Pad10)*%
X182297095Y-99094905D03*
%TO.P,J10,11,Pin_11*%
%TO.N,unconnected-(J10-Pin_11-Pad11)*%
X179757095Y-99094905D03*
%TO.P,J10,12,Pin_12*%
%TO.N,unconnected-(J10-Pin_12-Pad12)*%
X177217095Y-99094905D03*
%TO.P,J10,13,Pin_13*%
%TO.N,unconnected-(J10-Pin_13-Pad13)*%
X174677095Y-99094905D03*
%TO.P,J10,14,Pin_14*%
%TO.N,unconnected-(J10-Pin_14-Pad14)*%
X172137095Y-99094905D03*
%TO.P,J10,15,Pin_15*%
%TO.N,unconnected-(J10-Pin_15-Pad15)*%
X169597095Y-99094905D03*
%TO.P,J10,16,Pin_16*%
%TO.N,unconnected-(J10-Pin_16-Pad16)*%
X167057095Y-99094905D03*
%TO.P,J10,17,Pin_17*%
%TO.N,unconnected-(J10-Pin_17-Pad17)*%
X164517095Y-99094905D03*
%TO.P,J10,18,Pin_18*%
%TO.N,unconnected-(J10-Pin_18-Pad18)*%
X161977095Y-99094905D03*
%TO.P,J10,19,Pin_19*%
%TO.N,unconnected-(J10-Pin_19-Pad19)*%
X159437095Y-99094905D03*
%TO.P,J10,20,Pin_20*%
%TO.N,unconnected-(J10-Pin_20-Pad20)*%
X156897095Y-99094905D03*
%TO.P,J10,21,Pin_21*%
%TO.N,unconnected-(J10-Pin_21-Pad21)*%
X154357095Y-99094905D03*
%TO.P,J10,22,Pin_22*%
%TO.N,unconnected-(J10-Pin_22-Pad22)*%
X151817095Y-99094905D03*
%TO.P,J10,23,Pin_23*%
%TO.N,unconnected-(J10-Pin_23-Pad23)*%
X149277095Y-99094905D03*
%TO.P,J10,24,Pin_24*%
%TO.N,unconnected-(J10-Pin_24-Pad24)*%
X146737095Y-99094905D03*
%TO.P,J10,25,Pin_25*%
%TO.N,unconnected-(J10-Pin_25-Pad25)*%
X144197095Y-99094905D03*
%TO.P,J10,26,Pin_26*%
%TO.N,unconnected-(J10-Pin_26-Pad26)*%
X141657095Y-99094905D03*
%TO.P,J10,27,Pin_27*%
%TO.N,unconnected-(J10-Pin_27-Pad27)*%
X139117095Y-99094905D03*
%TO.P,J10,28,Pin_28*%
%TO.N,unconnected-(J10-Pin_28-Pad28)*%
X136577095Y-99094905D03*
%TD*%
D25*
%TO.P,C8,1*%
%TO.N,+5VD*%
X132357894Y-84519905D03*
%TO.P,C8,2*%
%TO.N,RF_GND*%
X132357894Y-86069905D03*
%TD*%
D26*
%TO.P,U3,1,-VIN*%
%TO.N,BAT_GND*%
X108680095Y-90270905D03*
D27*
%TO.P,U3,2,+VIN*%
%TO.N,BAT_12V*%
X111220095Y-90270905D03*
%TO.P,U3,3,+VOUT*%
%TO.N,RF_3.3V*%
X116300095Y-90270905D03*
%TO.P,U3,4,-VOUT*%
%TO.N,RF_GND*%
X121380095Y-90270905D03*
%TD*%
D26*
%TO.P,U4,1,-VIN*%
%TO.N,BAT_GND*%
X108680095Y-104770905D03*
D27*
%TO.P,U4,2,+VIN*%
%TO.N,BAT_12V*%
X111220095Y-104770905D03*
%TO.P,U4,3,+VOUT*%
%TO.N,+5VCAN*%
X116300095Y-104770905D03*
%TO.P,U4,4,-VOUT*%
%TO.N,GND_5VCAN*%
X121380095Y-104770905D03*
%TD*%
D13*
%TO.P,J9,1,Pin_1*%
%TO.N,unconnected-(J9-Pin_1-Pad1)*%
X205157095Y-96554905D03*
D14*
%TO.P,J9,2,Pin_2*%
%TO.N,unconnected-(J9-Pin_2-Pad2)*%
X202617095Y-96554905D03*
%TO.P,J9,3,Pin_3*%
%TO.N,unconnected-(J9-Pin_3-Pad3)*%
X200077095Y-96554905D03*
%TO.P,J9,4,Pin_4*%
%TO.N,unconnected-(J9-Pin_4-Pad4)*%
X197537095Y-96554905D03*
%TO.P,J9,5,Pin_5*%
%TO.N,unconnected-(J9-Pin_5-Pad5)*%
X194997095Y-96554905D03*
%TO.P,J9,6,Pin_6*%
%TO.N,unconnected-(J9-Pin_6-Pad6)*%
X192457095Y-96554905D03*
%TO.P,J9,7,Pin_7*%
%TO.N,unconnected-(J9-Pin_7-Pad7)*%
X189917095Y-96554905D03*
%TO.P,J9,8,Pin_8*%
%TO.N,unconnected-(J9-Pin_8-Pad8)*%
X187377095Y-96554905D03*
%TO.P,J9,9,Pin_9*%
%TO.N,unconnected-(J9-Pin_9-Pad9)*%
X184837095Y-96554905D03*
%TO.P,J9,10,Pin_10*%
%TO.N,unconnected-(J9-Pin_10-Pad10)*%
X182297095Y-96554905D03*
%TO.P,J9,11,Pin_11*%
%TO.N,unconnected-(J9-Pin_11-Pad11)*%
X179757095Y-96554905D03*
%TO.P,J9,12,Pin_12*%
%TO.N,unconnected-(J9-Pin_12-Pad12)*%
X177217095Y-96554905D03*
%TO.P,J9,13,Pin_13*%
%TO.N,unconnected-(J9-Pin_13-Pad13)*%
X174677095Y-96554905D03*
%TO.P,J9,14,Pin_14*%
%TO.N,unconnected-(J9-Pin_14-Pad14)*%
X172137095Y-96554905D03*
%TO.P,J9,15,Pin_15*%
%TO.N,unconnected-(J9-Pin_15-Pad15)*%
X169597095Y-96554905D03*
%TO.P,J9,16,Pin_16*%
%TO.N,unconnected-(J9-Pin_16-Pad16)*%
X167057095Y-96554905D03*
%TO.P,J9,17,Pin_17*%
%TO.N,unconnected-(J9-Pin_17-Pad17)*%
X164517095Y-96554905D03*
%TO.P,J9,18,Pin_18*%
%TO.N,unconnected-(J9-Pin_18-Pad18)*%
X161977095Y-96554905D03*
%TO.P,J9,19,Pin_19*%
%TO.N,unconnected-(J9-Pin_19-Pad19)*%
X159437095Y-96554905D03*
%TO.P,J9,20,Pin_20*%
%TO.N,unconnected-(J9-Pin_20-Pad20)*%
X156897095Y-96554905D03*
%TO.P,J9,21,Pin_21*%
%TO.N,unconnected-(J9-Pin_21-Pad21)*%
X154357095Y-96554905D03*
%TO.P,J9,22,Pin_22*%
%TO.N,unconnected-(J9-Pin_22-Pad22)*%
X151817095Y-96554905D03*
%TO.P,J9,23,Pin_23*%
%TO.N,unconnected-(J9-Pin_23-Pad23)*%
X149277095Y-96554905D03*
%TO.P,J9,24,Pin_24*%
%TO.N,unconnected-(J9-Pin_24-Pad24)*%
X146737095Y-96554905D03*
%TO.P,J9,25,Pin_25*%
%TO.N,unconnected-(J9-Pin_25-Pad25)*%
X144197095Y-96554905D03*
%TO.P,J9,26,Pin_26*%
%TO.N,unconnected-(J9-Pin_26-Pad26)*%
X141657095Y-96554905D03*
%TO.P,J9,27,Pin_27*%
%TO.N,unconnected-(J9-Pin_27-Pad27)*%
X139117095Y-96554905D03*
%TO.P,J9,28,Pin_28*%
%TO.N,unconnected-(J9-Pin_28-Pad28)*%
X136577095Y-96554905D03*
%TD*%
D11*
%TO.P,R5,1*%
%TO.N,RF_3.3V*%
X129832095Y-92794905D03*
%TO.P,R5,2*%
%TO.N,CAN_GPIO0*%
X131482095Y-92794905D03*
%TD*%
%TO.P,R3,1*%
%TO.N,RF_3.3V*%
X129832095Y-95794905D03*
%TO.P,R3,2*%
%TO.N,CAN_SDI*%
X131482095Y-95794905D03*
%TD*%
D28*
%TO.P,U1,1,TXCAN*%
%TO.N,Net-(U1-TXCAN)*%
X127002795Y-101984905D03*
%TO.P,U1,2,RXCAN*%
%TO.N,Net-(U1-RXCAN)*%
X127002795Y-103254905D03*
%TO.P,U1,3,CLKO/SOF*%
%TO.N,CAN_CLK*%
X127002795Y-104524905D03*
%TO.P,U1,4,\u002AINT*%
%TO.N,CAN_INT*%
X127002795Y-105794905D03*
%TO.P,U1,5,OSC2*%
%TO.N,Net-(U1-OSC2)*%
X127002795Y-107064905D03*
%TO.P,U1,6,OSC1*%
%TO.N,Net-(U1-OSC1)*%
X127002795Y-108334905D03*
%TO.P,U1,7,VSS*%
%TO.N,RF_GND*%
X127002795Y-109604905D03*
%TO.P,U1,8,\u002AINT1/GPIO1*%
%TO.N,CAN_GPIO1*%
X132311395Y-109604905D03*
%TO.P,U1,9,\u002AINT0/GPIO0/XSTBY*%
%TO.N,CAN_GPIO0*%
X132311395Y-108334905D03*
%TO.P,U1,10,SCK*%
%TO.N,CAN_SCK*%
X132311395Y-107064905D03*
%TO.P,U1,11,SDI*%
%TO.N,CAN_SDI*%
X132311395Y-105794905D03*
%TO.P,U1,12,SDO*%
%TO.N,CAN_SDO*%
X132311395Y-104524905D03*
%TO.P,U1,13,NCS*%
%TO.N,CAN_CS*%
X132311395Y-103254905D03*
%TO.P,U1,14,VDD*%
%TO.N,RF_3.3V*%
X132311395Y-101984905D03*
%TD*%
D24*
%TO.P,LED1,1*%
%TO.N,Net-(LED1-Pad1)*%
X91760345Y-89294905D03*
%TO.P,LED1,2*%
%TO.N,RF_3.3V*%
X90553845Y-89294905D03*
%TD*%
D29*
%TO.P,U7,1,VIN*%
%TO.N,RF_3.3V*%
X128558693Y-84544904D03*
%TO.P,U7,2,EN*%
X128558693Y-85044905D03*
%TO.P,U7,3,MODE*%
X128558693Y-85544905D03*
%TO.P,U7,4,PG*%
%TO.N,unconnected-(U7-PG-Pad4)*%
X128558693Y-86044906D03*
%TO.P,U7,5,FB*%
%TO.N,RF_3.3V*%
X130157095Y-86044906D03*
%TO.P,U7,6,GND*%
%TO.N,RF_GND*%
X130157095Y-85544905D03*
%TO.P,U7,7,SW*%
%TO.N,Net-(U7-SW)*%
X130157095Y-85044905D03*
%TO.P,U7,8,VOUT*%
%TO.N,+5VD*%
X130157095Y-84544904D03*
%TD*%
D11*
%TO.P,R2,1*%
%TO.N,RF_3.3V*%
X129832095Y-97294905D03*
%TO.P,R2,2*%
%TO.N,CAN_SDO*%
X131482095Y-97294905D03*
%TD*%
D19*
%TO.P,C1,1*%
%TO.N,BAT_12V*%
X102182095Y-90294905D03*
%TO.P,C1,2*%
%TO.N,BAT_GND*%
X105132095Y-90294905D03*
%TD*%
D30*
%TO.P,C6,1*%
%TO.N,+5VCAN*%
X121932095Y-112294905D03*
%TO.P,C6,2*%
%TO.N,GND_5VCAN*%
X120382095Y-112294905D03*
%TD*%
%TO.P,C12,1*%
%TO.N,Net-(C12-Pad1)*%
X100932095Y-113794905D03*
%TO.P,C12,2*%
%TO.N,GND_5VCAN*%
X99382095Y-113794905D03*
%TD*%
D20*
%TO.P,R11,1*%
%TO.N,CAN_H*%
X110657095Y-119294905D03*
%TO.P,R11,2*%
%TO.N,Net-(C12-Pad1)*%
X103037095Y-119294905D03*
%TD*%
D31*
%TO.P,C3,1*%
%TO.N,RF_3.3V*%
X128132095Y-93294905D03*
%TO.P,C3,2*%
%TO.N,RF_GND*%
X125182095Y-93294905D03*
%TD*%
D13*
%TO.P,J2,1,Pin_1*%
%TO.N,unconnected-(J2-Pin_1-Pad1)*%
X205157095Y-78774905D03*
D14*
%TO.P,J2,2,Pin_2*%
%TO.N,unconnected-(J2-Pin_2-Pad2)*%
X202617095Y-78774905D03*
%TO.P,J2,3,Pin_3*%
%TO.N,unconnected-(J2-Pin_3-Pad3)*%
X200077095Y-78774905D03*
%TO.P,J2,4,Pin_4*%
%TO.N,unconnected-(J2-Pin_4-Pad4)*%
X197537095Y-78774905D03*
%TO.P,J2,5,Pin_5*%
%TO.N,unconnected-(J2-Pin_5-Pad5)*%
X194997095Y-78774905D03*
%TO.P,J2,6,Pin_6*%
%TO.N,unconnected-(J2-Pin_6-Pad6)*%
X192457095Y-78774905D03*
%TO.P,J2,7,Pin_7*%
%TO.N,unconnected-(J2-Pin_7-Pad7)*%
X189917095Y-78774905D03*
%TO.P,J2,8,Pin_8*%
%TO.N,unconnected-(J2-Pin_8-Pad8)*%
X187377095Y-78774905D03*
%TO.P,J2,9,Pin_9*%
%TO.N,unconnected-(J2-Pin_9-Pad9)*%
X184837095Y-78774905D03*
%TO.P,J2,10,Pin_10*%
%TO.N,unconnected-(J2-Pin_10-Pad10)*%
X182297095Y-78774905D03*
%TO.P,J2,11,Pin_11*%
%TO.N,unconnected-(J2-Pin_11-Pad11)*%
X179757095Y-78774905D03*
%TO.P,J2,12,Pin_12*%
%TO.N,unconnected-(J2-Pin_12-Pad12)*%
X177217095Y-78774905D03*
%TO.P,J2,13,Pin_13*%
%TO.N,unconnected-(J2-Pin_13-Pad13)*%
X174677095Y-78774905D03*
%TO.P,J2,14,Pin_14*%
%TO.N,unconnected-(J2-Pin_14-Pad14)*%
X172137095Y-78774905D03*
%TO.P,J2,15,Pin_15*%
%TO.N,unconnected-(J2-Pin_15-Pad15)*%
X169597095Y-78774905D03*
%TO.P,J2,16,Pin_16*%
%TO.N,unconnected-(J2-Pin_16-Pad16)*%
X167057095Y-78774905D03*
%TO.P,J2,17,Pin_17*%
%TO.N,unconnected-(J2-Pin_17-Pad17)*%
X164517095Y-78774905D03*
%TO.P,J2,18,Pin_18*%
%TO.N,unconnected-(J2-Pin_18-Pad18)*%
X161977095Y-78774905D03*
%TO.P,J2,19,Pin_19*%
%TO.N,unconnected-(J2-Pin_19-Pad19)*%
X159437095Y-78774905D03*
%TO.P,J2,20,Pin_20*%
%TO.N,unconnected-(J2-Pin_20-Pad20)*%
X156897095Y-78774905D03*
%TO.P,J2,21,Pin_21*%
%TO.N,unconnected-(J2-Pin_21-Pad21)*%
X154357095Y-78774905D03*
%TO.P,J2,22,Pin_22*%
%TO.N,unconnected-(J2-Pin_22-Pad22)*%
X151817095Y-78774905D03*
%TO.P,J2,23,Pin_23*%
%TO.N,unconnected-(J2-Pin_23-Pad23)*%
X149277095Y-78774905D03*
%TO.P,J2,24,Pin_24*%
%TO.N,unconnected-(J2-Pin_24-Pad24)*%
X146737095Y-78774905D03*
%TO.P,J2,25,Pin_25*%
%TO.N,unconnected-(J2-Pin_25-Pad25)*%
X144197095Y-78774905D03*
%TO.P,J2,26,Pin_26*%
%TO.N,unconnected-(J2-Pin_26-Pad26)*%
X141657095Y-78774905D03*
%TO.P,J2,27,Pin_27*%
%TO.N,unconnected-(J2-Pin_27-Pad27)*%
X139117095Y-78774905D03*
%TO.P,J2,28,Pin_28*%
%TO.N,unconnected-(J2-Pin_28-Pad28)*%
X136577095Y-78774905D03*
%TD*%
D13*
%TO.P,J5,1,Pin_1*%
%TO.N,unconnected-(J5-Pin_1-Pad1)*%
X205157095Y-86394905D03*
D14*
%TO.P,J5,2,Pin_2*%
%TO.N,unconnected-(J5-Pin_2-Pad2)*%
X202617095Y-86394905D03*
%TO.P,J5,3,Pin_3*%
%TO.N,unconnected-(J5-Pin_3-Pad3)*%
X200077095Y-86394905D03*
%TO.P,J5,4,Pin_4*%
%TO.N,unconnected-(J5-Pin_4-Pad4)*%
X197537095Y-86394905D03*
%TO.P,J5,5,Pin_5*%
%TO.N,unconnected-(J5-Pin_5-Pad5)*%
X194997095Y-86394905D03*
%TO.P,J5,6,Pin_6*%
%TO.N,unconnected-(J5-Pin_6-Pad6)*%
X192457095Y-86394905D03*
%TO.P,J5,7,Pin_7*%
%TO.N,unconnected-(J5-Pin_7-Pad7)*%
X189917095Y-86394905D03*
%TO.P,J5,8,Pin_8*%
%TO.N,unconnected-(J5-Pin_8-Pad8)*%
X187377095Y-86394905D03*
%TO.P,J5,9,Pin_9*%
%TO.N,RF_LD*%
X184837095Y-86394905D03*
%TO.P,J5,10,Pin_10*%
%TO.N,RF_SHDN*%
X182297095Y-86394905D03*
%TO.P,J5,11,Pin_11*%
%TO.N,RF_ANTFLAG*%
X179757095Y-86394905D03*
%TO.P,J5,12,Pin_12*%
%TO.N,unconnected-(J5-Pin_12-Pad12)*%
X177217095Y-86394905D03*
%TO.P,J5,13,Pin_13*%
%TO.N,unconnected-(J5-Pin_13-Pad13)*%
X174677095Y-86394905D03*
%TO.P,J5,14,Pin_14*%
%TO.N,unconnected-(J5-Pin_14-Pad14)*%
X172137095Y-86394905D03*
%TO.P,J5,15,Pin_15*%
%TO.N,unconnected-(J5-Pin_15-Pad15)*%
X169597095Y-86394905D03*
%TO.P,J5,16,Pin_16*%
%TO.N,RF_SDATA*%
X167057095Y-86394905D03*
%TO.P,J5,17,Pin_17*%
%TO.N,RF_SCLK*%
X164517095Y-86394905D03*
%TO.P,J5,18,Pin_18*%
%TO.N,RF_CS*%
X161977095Y-86394905D03*
%TO.P,J5,19,Pin_19*%
%TO.N,CAN_LED*%
X159437095Y-86394905D03*
%TO.P,J5,20,Pin_20*%
%TO.N,CAN_GPIO0*%
X156897095Y-86394905D03*
%TO.P,J5,21,Pin_21*%
%TO.N,CAN_GPIO1*%
X154357095Y-86394905D03*
%TO.P,J5,22,Pin_22*%
%TO.N,CAN_INT*%
X151817095Y-86394905D03*
%TO.P,J5,23,Pin_23*%
%TO.N,unconnected-(J5-Pin_23-Pad23)*%
X149277095Y-86394905D03*
%TO.P,J5,24,Pin_24*%
%TO.N,unconnected-(J5-Pin_24-Pad24)*%
X146737095Y-86394905D03*
%TO.P,J5,25,Pin_25*%
%TO.N,unconnected-(J5-Pin_25-Pad25)*%
X144197095Y-86394905D03*
%TO.P,J5,26,Pin_26*%
%TO.N,unconnected-(J5-Pin_26-Pad26)*%
X141657095Y-86394905D03*
%TO.P,J5,27,Pin_27*%
%TO.N,unconnected-(J5-Pin_27-Pad27)*%
X139117095Y-86394905D03*
%TO.P,J5,28,Pin_28*%
%TO.N,RF_GND*%
X136577095Y-86394905D03*
%TD*%
D32*
%TO.P,Y1,1*%
%TO.N,Net-(U1-OSC2)*%
X131857095Y-112794905D03*
%TO.P,Y1,2*%
%TO.N,RF_GND*%
X130657095Y-112794905D03*
%TO.P,Y1,3*%
%TO.N,Net-(U1-OSC1)*%
X129457095Y-112794905D03*
%TD*%
D33*
%TO.P,C4,1*%
%TO.N,+5VCAN*%
X120657095Y-97819905D03*
%TO.P,C4,2*%
%TO.N,GND_5VCAN*%
X120657095Y-100769905D03*
%TD*%
D30*
%TO.P,C9,1*%
%TO.N,RF_3.3V*%
X126932095Y-84794905D03*
%TO.P,C9,2*%
%TO.N,RF_GND*%
X125382095Y-84794905D03*
%TD*%
D34*
%TO.P,D2,1*%
%TO.N,CAN_L*%
X100607095Y-107234905D03*
%TO.P,D2,2*%
%TO.N,GND_5VCAN*%
X98707095Y-107234905D03*
%TO.P,D2,3*%
%TO.N,unconnected-(D2-Pad3)*%
X99657095Y-109354905D03*
%TD*%
D13*
%TO.P,J14,1,Pin_1*%
%TO.N,unconnected-(J14-Pin_1-Pad1)*%
X205157095Y-109254905D03*
D14*
%TO.P,J14,2,Pin_2*%
%TO.N,unconnected-(J14-Pin_2-Pad2)*%
X202617095Y-109254905D03*
%TO.P,J14,3,Pin_3*%
%TO.N,unconnected-(J14-Pin_3-Pad3)*%
X200077095Y-109254905D03*
%TO.P,J14,4,Pin_4*%
%TO.N,unconnected-(J14-Pin_4-Pad4)*%
X197537095Y-109254905D03*
%TO.P,J14,5,Pin_5*%
%TO.N,unconnected-(J14-Pin_5-Pad5)*%
X194997095Y-109254905D03*
%TO.P,J14,6,Pin_6*%
%TO.N,unconnected-(J14-Pin_6-Pad6)*%
X192457095Y-109254905D03*
%TO.P,J14,7,Pin_7*%
%TO.N,unconnected-(J14-Pin_7-Pad7)*%
X189917095Y-109254905D03*
%TO.P,J14,8,Pin_8*%
%TO.N,unconnected-(J14-Pin_8-Pad8)*%
X187377095Y-109254905D03*
%TO.P,J14,9,Pin_9*%
%TO.N,unconnected-(J14-Pin_9-Pad9)*%
X184837095Y-109254905D03*
%TO.P,J14,10,Pin_10*%
%TO.N,unconnected-(J14-Pin_10-Pad10)*%
X182297095Y-109254905D03*
%TO.P,J14,11,Pin_11*%
%TO.N,unconnected-(J14-Pin_11-Pad11)*%
X179757095Y-109254905D03*
%TO.P,J14,12,Pin_12*%
%TO.N,unconnected-(J14-Pin_12-Pad12)*%
X177217095Y-109254905D03*
%TO.P,J14,13,Pin_13*%
%TO.N,unconnected-(J14-Pin_13-Pad13)*%
X174677095Y-109254905D03*
%TO.P,J14,14,Pin_14*%
%TO.N,unconnected-(J14-Pin_14-Pad14)*%
X172137095Y-109254905D03*
%TO.P,J14,15,Pin_15*%
%TO.N,unconnected-(J14-Pin_15-Pad15)*%
X169597095Y-109254905D03*
%TO.P,J14,16,Pin_16*%
%TO.N,unconnected-(J14-Pin_16-Pad16)*%
X167057095Y-109254905D03*
%TO.P,J14,17,Pin_17*%
%TO.N,unconnected-(J14-Pin_17-Pad17)*%
X164517095Y-109254905D03*
%TO.P,J14,18,Pin_18*%
%TO.N,unconnected-(J14-Pin_18-Pad18)*%
X161977095Y-109254905D03*
%TO.P,J14,19,Pin_19*%
%TO.N,unconnected-(J14-Pin_19-Pad19)*%
X159437095Y-109254905D03*
%TO.P,J14,20,Pin_20*%
%TO.N,unconnected-(J14-Pin_20-Pad20)*%
X156897095Y-109254905D03*
%TO.P,J14,21,Pin_21*%
%TO.N,unconnected-(J14-Pin_21-Pad21)*%
X154357095Y-109254905D03*
%TO.P,J14,22,Pin_22*%
%TO.N,unconnected-(J14-Pin_22-Pad22)*%
X151817095Y-109254905D03*
%TO.P,J14,23,Pin_23*%
%TO.N,unconnected-(J14-Pin_23-Pad23)*%
X149277095Y-109254905D03*
%TO.P,J14,24,Pin_24*%
%TO.N,unconnected-(J14-Pin_24-Pad24)*%
X146737095Y-109254905D03*
%TO.P,J14,25,Pin_25*%
%TO.N,unconnected-(J14-Pin_25-Pad25)*%
X144197095Y-109254905D03*
%TO.P,J14,26,Pin_26*%
%TO.N,unconnected-(J14-Pin_26-Pad26)*%
X141657095Y-109254905D03*
%TO.P,J14,27,Pin_27*%
%TO.N,unconnected-(J14-Pin_27-Pad27)*%
X139117095Y-109254905D03*
%TO.P,J14,28,Pin_28*%
%TO.N,unconnected-(J14-Pin_28-Pad28)*%
X136577095Y-109254905D03*
%TD*%
D13*
%TO.P,J4,1,Pin_1*%
%TO.N,unconnected-(J4-Pin_1-Pad1)*%
X205157095Y-83854905D03*
D14*
%TO.P,J4,2,Pin_2*%
%TO.N,unconnected-(J4-Pin_2-Pad2)*%
X202617095Y-83854905D03*
%TO.P,J4,3,Pin_3*%
%TO.N,unconnected-(J4-Pin_3-Pad3)*%
X200077095Y-83854905D03*
%TO.P,J4,4,Pin_4*%
%TO.N,unconnected-(J4-Pin_4-Pad4)*%
X197537095Y-83854905D03*
%TO.P,J4,5,Pin_5*%
%TO.N,unconnected-(J4-Pin_5-Pad5)*%
X194997095Y-83854905D03*
%TO.P,J4,6,Pin_6*%
%TO.N,unconnected-(J4-Pin_6-Pad6)*%
X192457095Y-83854905D03*
%TO.P,J4,7,Pin_7*%
%TO.N,unconnected-(J4-Pin_7-Pad7)*%
X189917095Y-83854905D03*
%TO.P,J4,8,Pin_8*%
%TO.N,unconnected-(J4-Pin_8-Pad8)*%
X187377095Y-83854905D03*
%TO.P,J4,9,Pin_9*%
%TO.N,unconnected-(J4-Pin_9-Pad9)*%
X184837095Y-83854905D03*
%TO.P,J4,10,Pin_10*%
%TO.N,unconnected-(J4-Pin_10-Pad10)*%
X182297095Y-83854905D03*
%TO.P,J4,11,Pin_11*%
%TO.N,unconnected-(J4-Pin_11-Pad11)*%
X179757095Y-83854905D03*
%TO.P,J4,12,Pin_12*%
%TO.N,unconnected-(J4-Pin_12-Pad12)*%
X177217095Y-83854905D03*
%TO.P,J4,13,Pin_13*%
%TO.N,unconnected-(J4-Pin_13-Pad13)*%
X174677095Y-83854905D03*
%TO.P,J4,14,Pin_14*%
%TO.N,unconnected-(J4-Pin_14-Pad14)*%
X172137095Y-83854905D03*
%TO.P,J4,15,Pin_15*%
%TO.N,unconnected-(J4-Pin_15-Pad15)*%
X169597095Y-83854905D03*
%TO.P,J4,16,Pin_16*%
%TO.N,unconnected-(J4-Pin_16-Pad16)*%
X167057095Y-83854905D03*
%TO.P,J4,17,Pin_17*%
%TO.N,unconnected-(J4-Pin_17-Pad17)*%
X164517095Y-83854905D03*
%TO.P,J4,18,Pin_18*%
%TO.N,unconnected-(J4-Pin_18-Pad18)*%
X161977095Y-83854905D03*
%TO.P,J4,19,Pin_19*%
%TO.N,unconnected-(J4-Pin_19-Pad19)*%
X159437095Y-83854905D03*
%TO.P,J4,20,Pin_20*%
%TO.N,unconnected-(J4-Pin_20-Pad20)*%
X156897095Y-83854905D03*
%TO.P,J4,21,Pin_21*%
%TO.N,unconnected-(J4-Pin_21-Pad21)*%
X154357095Y-83854905D03*
%TO.P,J4,22,Pin_22*%
%TO.N,unconnected-(J4-Pin_22-Pad22)*%
X151817095Y-83854905D03*
%TO.P,J4,23,Pin_23*%
%TO.N,unconnected-(J4-Pin_23-Pad23)*%
X149277095Y-83854905D03*
%TO.P,J4,24,Pin_24*%
%TO.N,unconnected-(J4-Pin_24-Pad24)*%
X146737095Y-83854905D03*
%TO.P,J4,25,Pin_25*%
%TO.N,unconnected-(J4-Pin_25-Pad25)*%
X144197095Y-83854905D03*
%TO.P,J4,26,Pin_26*%
%TO.N,unconnected-(J4-Pin_26-Pad26)*%
X141657095Y-83854905D03*
%TO.P,J4,27,Pin_27*%
%TO.N,unconnected-(J4-Pin_27-Pad27)*%
X139117095Y-83854905D03*
%TO.P,J4,28,Pin_28*%
%TO.N,unconnected-(J4-Pin_28-Pad28)*%
X136577095Y-83854905D03*
%TD*%
D13*
%TO.P,J12,1,Pin_1*%
%TO.N,unconnected-(J12-Pin_1-Pad1)*%
X205157095Y-104174905D03*
D14*
%TO.P,J12,2,Pin_2*%
%TO.N,unconnected-(J12-Pin_2-Pad2)*%
X202617095Y-104174905D03*
%TO.P,J12,3,Pin_3*%
%TO.N,unconnected-(J12-Pin_3-Pad3)*%
X200077095Y-104174905D03*
%TO.P,J12,4,Pin_4*%
%TO.N,unconnected-(J12-Pin_4-Pad4)*%
X197537095Y-104174905D03*
%TO.P,J12,5,Pin_5*%
%TO.N,unconnected-(J12-Pin_5-Pad5)*%
X194997095Y-104174905D03*
%TO.P,J12,6,Pin_6*%
%TO.N,unconnected-(J12-Pin_6-Pad6)*%
X192457095Y-104174905D03*
%TO.P,J12,7,Pin_7*%
%TO.N,unconnected-(J12-Pin_7-Pad7)*%
X189917095Y-104174905D03*
%TO.P,J12,8,Pin_8*%
%TO.N,unconnected-(J12-Pin_8-Pad8)*%
X187377095Y-104174905D03*
%TO.P,J12,9,Pin_9*%
%TO.N,unconnected-(J12-Pin_9-Pad9)*%
X184837095Y-104174905D03*
%TO.P,J12,10,Pin_10*%
%TO.N,unconnected-(J12-Pin_10-Pad10)*%
X182297095Y-104174905D03*
%TO.P,J12,11,Pin_11*%
%TO.N,unconnected-(J12-Pin_11-Pad11)*%
X179757095Y-104174905D03*
%TO.P,J12,12,Pin_12*%
%TO.N,unconnected-(J12-Pin_12-Pad12)*%
X177217095Y-104174905D03*
%TO.P,J12,13,Pin_13*%
%TO.N,unconnected-(J12-Pin_13-Pad13)*%
X174677095Y-104174905D03*
%TO.P,J12,14,Pin_14*%
%TO.N,unconnected-(J12-Pin_14-Pad14)*%
X172137095Y-104174905D03*
%TO.P,J12,15,Pin_15*%
%TO.N,unconnected-(J12-Pin_15-Pad15)*%
X169597095Y-104174905D03*
%TO.P,J12,16,Pin_16*%
%TO.N,unconnected-(J12-Pin_16-Pad16)*%
X167057095Y-104174905D03*
%TO.P,J12,17,Pin_17*%
%TO.N,unconnected-(J12-Pin_17-Pad17)*%
X164517095Y-104174905D03*
%TO.P,J12,18,Pin_18*%
%TO.N,unconnected-(J12-Pin_18-Pad18)*%
X161977095Y-104174905D03*
%TO.P,J12,19,Pin_19*%
%TO.N,unconnected-(J12-Pin_19-Pad19)*%
X159437095Y-104174905D03*
%TO.P,J12,20,Pin_20*%
%TO.N,unconnected-(J12-Pin_20-Pad20)*%
X156897095Y-104174905D03*
%TO.P,J12,21,Pin_21*%
%TO.N,unconnected-(J12-Pin_21-Pad21)*%
X154357095Y-104174905D03*
%TO.P,J12,22,Pin_22*%
%TO.N,unconnected-(J12-Pin_22-Pad22)*%
X151817095Y-104174905D03*
%TO.P,J12,23,Pin_23*%
%TO.N,unconnected-(J12-Pin_23-Pad23)*%
X149277095Y-104174905D03*
%TO.P,J12,24,Pin_24*%
%TO.N,unconnected-(J12-Pin_24-Pad24)*%
X146737095Y-104174905D03*
%TO.P,J12,25,Pin_25*%
%TO.N,unconnected-(J12-Pin_25-Pad25)*%
X144197095Y-104174905D03*
%TO.P,J12,26,Pin_26*%
%TO.N,unconnected-(J12-Pin_26-Pad26)*%
X141657095Y-104174905D03*
%TO.P,J12,27,Pin_27*%
%TO.N,unconnected-(J12-Pin_27-Pad27)*%
X139117095Y-104174905D03*
%TO.P,J12,28,Pin_28*%
%TO.N,unconnected-(J12-Pin_28-Pad28)*%
X136577095Y-104174905D03*
%TD*%
D11*
%TO.P,R10,1*%
%TO.N,Net-(LED2-Pad1)*%
X95332095Y-85794905D03*
%TO.P,R10,2*%
%TO.N,Net-(R10-Pad2)*%
X96982095Y-85794905D03*
%TD*%
%TO.P,R6,1*%
%TO.N,RF_3.3V*%
X129832095Y-91294905D03*
%TO.P,R6,2*%
%TO.N,CAN_GPIO1*%
X131482095Y-91294905D03*
%TD*%
%TO.P,R1,1*%
%TO.N,RF_3.3V*%
X129832095Y-98794905D03*
%TO.P,R1,2*%
%TO.N,CAN_CS*%
X131482095Y-98794905D03*
%TD*%
%TO.P,R7,1*%
%TO.N,RF_3.3V*%
X129832095Y-88294905D03*
%TO.P,R7,2*%
%TO.N,CAN_CLK*%
X131482095Y-88294905D03*
%TD*%
%TO.P,R8,1*%
%TO.N,RF_3.3V*%
X129832095Y-89794905D03*
%TO.P,R8,2*%
%TO.N,CAN_INT*%
X131482095Y-89794905D03*
%TD*%
%TO.P,R4,1*%
%TO.N,RF_3.3V*%
X129832095Y-94294905D03*
%TO.P,R4,2*%
%TO.N,CAN_SCK*%
X131482095Y-94294905D03*
%TD*%
D35*
%TO.N,BAT_GND*%
X110657095Y-94270905D03*
X109657095Y-99294905D03*
X107657095Y-92294905D03*
X111657095Y-94294905D03*
X106657095Y-98294905D03*
X99157095Y-101294905D03*
X108657095Y-95294905D03*
X107657095Y-90294905D03*
X106657095Y-95294905D03*
X106657095Y-94294905D03*
X109657095Y-95294905D03*
X107657095Y-97294905D03*
X108657095Y-100294905D03*
X99157095Y-102294905D03*
X108657095Y-92294905D03*
X95657095Y-100294905D03*
X109657095Y-102294905D03*
X108657095Y-93294905D03*
X107657095Y-103294905D03*
X100157095Y-100294905D03*
X106657095Y-90294905D03*
X109657095Y-101294905D03*
X107657095Y-93294905D03*
X96657095Y-103294905D03*
X97657095Y-102294905D03*
X106657095Y-97294905D03*
X108657095Y-102294905D03*
X108657095Y-103294905D03*
X110657095Y-97294905D03*
X110657095Y-93294905D03*
X95657095Y-103294905D03*
X108657095Y-96294905D03*
X111657095Y-99294905D03*
X95657095Y-101294905D03*
X110657095Y-100294905D03*
X96657095Y-102294905D03*
X111657095Y-100294905D03*
X109657095Y-100294905D03*
X111657095Y-93294905D03*
X107657095Y-99294905D03*
X108657095Y-98294905D03*
X108657095Y-97294905D03*
X109657095Y-98294905D03*
X110657095Y-95294905D03*
X107657095Y-95294905D03*
X99157095Y-100294905D03*
X106657095Y-100294905D03*
X111657095Y-95294905D03*
X96657095Y-100294905D03*
X108657095Y-94294905D03*
X111657095Y-102294905D03*
X108657095Y-101294905D03*
X107657095Y-100294905D03*
X106657095Y-92294905D03*
X109657095Y-93294905D03*
X109657095Y-92294905D03*
X100157095Y-101294905D03*
X109657095Y-103294905D03*
X107657095Y-101294905D03*
X111657095Y-92294905D03*
X107657095Y-102294905D03*
X109657095Y-97294905D03*
X110657095Y-101294905D03*
X110657095Y-99294905D03*
X96657095Y-101294905D03*
X110657095Y-92294905D03*
X99157095Y-103294905D03*
X110657095Y-96294905D03*
X107657095Y-98294905D03*
X109657095Y-94294905D03*
X95657095Y-102294905D03*
X111657095Y-103294905D03*
X106657095Y-102294905D03*
X110657095Y-102294905D03*
X111657095Y-98294905D03*
X110657095Y-98294905D03*
X106657095Y-99294905D03*
X107657095Y-94294905D03*
X111657095Y-101294905D03*
X108657095Y-99294905D03*
X111657095Y-97294905D03*
X106657095Y-101294905D03*
X106657095Y-103294905D03*
X109657095Y-96294905D03*
X100157095Y-103294905D03*
X107657095Y-91294905D03*
X110657095Y-103294905D03*
X106657095Y-96294905D03*
X97657095Y-103294905D03*
X111657095Y-96294905D03*
X106657095Y-93294905D03*
X107657095Y-96294905D03*
X100157095Y-102294905D03*
X106657095Y-91294905D03*
%TO.N,RF_GND*%
X122157095Y-92794905D03*
X119157095Y-93794905D03*
X121157095Y-87794905D03*
X123157095Y-93794905D03*
X127657095Y-115794905D03*
X122157095Y-88794905D03*
X118157095Y-91794905D03*
X126657095Y-116794905D03*
X120157095Y-92794905D03*
X130157095Y-101294905D03*
X128657095Y-115794905D03*
X128657095Y-100294905D03*
X122157095Y-93794905D03*
X121157095Y-91794905D03*
X128157095Y-100794905D03*
X123157095Y-89794905D03*
X127657095Y-114794905D03*
X126657095Y-115794905D03*
X128157095Y-99794905D03*
X127657095Y-112794905D03*
X120157095Y-87794905D03*
X126657095Y-110794905D03*
X127657095Y-100294905D03*
X100159095Y-82885906D03*
X120157095Y-88794905D03*
X119157095Y-89794905D03*
X123157095Y-88794905D03*
X127657095Y-116794905D03*
X119157095Y-90794905D03*
X127657095Y-110794905D03*
X119157095Y-92794905D03*
X118157095Y-88794905D03*
X122157095Y-87794905D03*
X121157095Y-93794905D03*
X118157095Y-89794905D03*
X127657095Y-111794905D03*
X127657095Y-113794905D03*
X118157095Y-92794905D03*
X122157095Y-91794905D03*
X119157095Y-91794905D03*
X121157095Y-88794905D03*
X123157095Y-92794905D03*
X126657095Y-112794905D03*
X118157095Y-90794905D03*
X126657095Y-113794905D03*
X123157095Y-91794905D03*
X120157095Y-90794905D03*
X127657095Y-117794905D03*
X120157095Y-91794905D03*
X121157095Y-92794905D03*
X126657095Y-111794905D03*
X118157095Y-87794905D03*
X128657095Y-117794905D03*
X120157095Y-93794905D03*
X119157095Y-88794905D03*
X129157095Y-101294905D03*
X123157095Y-87794905D03*
X126657095Y-117794905D03*
X119157095Y-87794905D03*
X128657095Y-116794905D03*
X126657095Y-114794905D03*
X123157095Y-90794905D03*
X120157095Y-89794905D03*
%TO.N,RF_3.3V*%
X127157095Y-81794905D03*
X93657095Y-84294905D03*
%TO.N,GND_5VCAN*%
X120157095Y-107294905D03*
X113157095Y-114294905D03*
X111157095Y-109294905D03*
X118157095Y-114294905D03*
X97657095Y-114294905D03*
X115157095Y-109294905D03*
X96657095Y-109294905D03*
X107157095Y-110294905D03*
X116157095Y-108294905D03*
X95657095Y-111294905D03*
X122157095Y-106294905D03*
X97657095Y-113294905D03*
X122157095Y-111294905D03*
X97657095Y-117294905D03*
X120157095Y-109294905D03*
X93657095Y-113294905D03*
X95657095Y-112294905D03*
X97657095Y-108294905D03*
X121157095Y-106294905D03*
X117157095Y-109294905D03*
X108157095Y-109294905D03*
X118157095Y-111294905D03*
X94657095Y-110294905D03*
X122157095Y-107294905D03*
X118157095Y-112294905D03*
X108157095Y-110294905D03*
X118157095Y-102294905D03*
X120157095Y-102294905D03*
X97657095Y-109294905D03*
X106157095Y-109294905D03*
X113157095Y-112294905D03*
X122157095Y-110294905D03*
X95657095Y-114294905D03*
X113157095Y-109294905D03*
X96657095Y-110294905D03*
X97657095Y-106294905D03*
X96657095Y-115294905D03*
X96657095Y-113294905D03*
X103157095Y-109294905D03*
X119157095Y-113294905D03*
X119157095Y-102294905D03*
X96657095Y-117294905D03*
X117157095Y-114294905D03*
X102157095Y-109294905D03*
X114157095Y-109294905D03*
X99657095Y-116294905D03*
X94657095Y-114294905D03*
X100657095Y-115294905D03*
X114157095Y-114294905D03*
X100657095Y-117294905D03*
X93657095Y-110294905D03*
X115157095Y-112294905D03*
X94657095Y-109294905D03*
X121157095Y-108294905D03*
X114157095Y-111294905D03*
X95657095Y-113294905D03*
X98657095Y-117294905D03*
X120157095Y-106294905D03*
X119157095Y-108294905D03*
X114157095Y-110294905D03*
X99657095Y-115294905D03*
X112157095Y-110294905D03*
X111157095Y-112294905D03*
X96657095Y-111294905D03*
X99657095Y-113294905D03*
X109157095Y-109294905D03*
X121157095Y-109294905D03*
X100657095Y-119294905D03*
X96657095Y-114294905D03*
X120157095Y-105294905D03*
X96657095Y-107294905D03*
X115157095Y-107294905D03*
X121157095Y-111294905D03*
X117157095Y-111294905D03*
X96657095Y-116294905D03*
X94657095Y-108294905D03*
X111157095Y-111294905D03*
X117157095Y-113294905D03*
X116157095Y-111294905D03*
X95657095Y-115294905D03*
X112157095Y-112294905D03*
X115157095Y-106294905D03*
X100657095Y-120294905D03*
X97657095Y-111294905D03*
X97657095Y-110294905D03*
X105157095Y-109294905D03*
X114157095Y-113294905D03*
X114157095Y-112294905D03*
X94657095Y-113294905D03*
X122157095Y-109294905D03*
X99657095Y-114294905D03*
X93657095Y-106294905D03*
X121157095Y-110294905D03*
X120157095Y-108294905D03*
X120157095Y-110294905D03*
X118157095Y-103294905D03*
X112157095Y-109294905D03*
X119157095Y-104294905D03*
X95657095Y-109294905D03*
X118157095Y-107294905D03*
X93657095Y-107294905D03*
X104157095Y-109294905D03*
X122157095Y-108294905D03*
X113157095Y-111294905D03*
X118157095Y-104294905D03*
X113157095Y-110294905D03*
X117157095Y-108294905D03*
X105157095Y-110294905D03*
X100657095Y-118294905D03*
X119157095Y-110294905D03*
X119157095Y-109294905D03*
X102157095Y-110294905D03*
X95657095Y-106294905D03*
X120157095Y-104294905D03*
X97657095Y-112294905D03*
X117157095Y-107294905D03*
X98657095Y-109294905D03*
X95657095Y-107294905D03*
X98657095Y-110294905D03*
X94657095Y-106294905D03*
X99657095Y-118294905D03*
X115157095Y-114294905D03*
X100657095Y-116294905D03*
X103157095Y-110294905D03*
X94657095Y-112294905D03*
X116157095Y-113294905D03*
X92657095Y-110294905D03*
X99657095Y-119294905D03*
X96657095Y-112294905D03*
X118157095Y-113294905D03*
X116157095Y-109294905D03*
X116157095Y-110294905D03*
X119157095Y-106294905D03*
X121157095Y-107294905D03*
X107157095Y-109294905D03*
X92657095Y-113294905D03*
X111157095Y-110294905D03*
X96657095Y-108294905D03*
X97657095Y-107294905D03*
X98657095Y-114294905D03*
X119157095Y-107294905D03*
X118157095Y-106294905D03*
X94657095Y-115294905D03*
X110157095Y-109294905D03*
X110157095Y-111294905D03*
X120157095Y-111294905D03*
X118157095Y-109294905D03*
X99657095Y-117294905D03*
X109157095Y-110294905D03*
X115157095Y-108294905D03*
X95657095Y-116294905D03*
X115157095Y-113294905D03*
X119157095Y-111294905D03*
X93657095Y-114294905D03*
X116157095Y-106294905D03*
X94657095Y-111294905D03*
X117157095Y-112294905D03*
X116157095Y-107294905D03*
X116157095Y-114294905D03*
X120157095Y-103294905D03*
X118157095Y-105294905D03*
X99657095Y-120294905D03*
X119157095Y-112294905D03*
X117157095Y-110294905D03*
X98657095Y-115294905D03*
X118157095Y-110294905D03*
X97657095Y-115294905D03*
X117157095Y-106294905D03*
X113157095Y-113294905D03*
X94657095Y-107294905D03*
X115157095Y-111294905D03*
X104157095Y-110294905D03*
X98657095Y-116294905D03*
X119157095Y-103294905D03*
X118157095Y-108294905D03*
X98657095Y-113294905D03*
X112157095Y-111294905D03*
X106157095Y-110294905D03*
X116157095Y-112294905D03*
X115157095Y-110294905D03*
X95657095Y-110294905D03*
X119157095Y-105294905D03*
X110157095Y-110294905D03*
X95657095Y-108294905D03*
X96657095Y-106294905D03*
X97657095Y-116294905D03*
%TO.N,+5VD*%
X132657095Y-82294905D03*
X185000000Y-119500000D03*
X132657095Y-83294905D03*
X131657095Y-82294905D03*
X185500000Y-119000000D03*
X131657095Y-83294905D03*
X131657095Y-81294905D03*
X132657095Y-81294905D03*
X186000000Y-118500000D03*
%TO.N,CAN_CS*%
X133657095Y-103294905D03*
X132657095Y-98794905D03*
%TO.N,CAN_SDO*%
X133657095Y-104794905D03*
X132657095Y-97294905D03*
%TO.N,CAN_SDI*%
X133657095Y-106294905D03*
X132657095Y-95794905D03*
%TO.N,CAN_SCK*%
X132657095Y-94294905D03*
X133657095Y-107794905D03*
%TO.N,CAN_GPIO0*%
X132657095Y-92794905D03*
X133657095Y-108794905D03*
%TO.N,CAN_GPIO1*%
X133657095Y-110294905D03*
X132657095Y-91294905D03*
%TO.N,CAN_CLK*%
X130157095Y-104794905D03*
X132657095Y-88294905D03*
%TO.N,CAN_INT*%
X132657095Y-89794905D03*
X130157095Y-106294905D03*
%TO.N,Net-(U1-RXCAN)*%
X128657095Y-103294905D03*
X132657095Y-116294905D03*
%TO.N,Net-(U1-TXCAN)*%
X128657095Y-102294905D03*
X132657095Y-117294905D03*
%TO.N,CAN_LED*%
X134657095Y-80294905D03*
X98157095Y-79294905D03*
%TD*%
D36*
%TO.N,RF_GND*%
X135373695Y-116459000D02*
X131537789Y-120294905D01*
X135373695Y-111296440D02*
X135373695Y-116459000D01*
X131537789Y-120294905D02*
X131432095Y-120294905D01*
X136078630Y-110591505D02*
X135373695Y-111296440D01*
X147337190Y-110591505D02*
X136078630Y-110591505D01*
X148073695Y-109855000D02*
X147337190Y-110591505D01*
X149277095Y-106714905D02*
X148073695Y-107918305D01*
X148073695Y-107918305D02*
X148073695Y-109855000D01*
D37*
%TO.N,BAT_12V*%
X102182095Y-102819905D02*
X106157095Y-106794905D01*
D38*
X97857095Y-93544905D02*
X99407095Y-93544905D01*
D37*
X102657095Y-86294905D02*
X110657095Y-86294905D01*
X102637095Y-94144905D02*
X102637095Y-95444905D01*
X111220095Y-105731905D02*
X111220095Y-104770905D01*
X111220095Y-86857905D02*
X111220095Y-90270905D01*
X110157095Y-106794905D02*
X111220095Y-105731905D01*
X102182095Y-99794905D02*
X102182095Y-102819905D01*
X102637095Y-95444905D02*
X102637095Y-96864905D01*
X102182095Y-97319905D02*
X102182095Y-99794905D01*
D38*
X100657095Y-94794905D02*
X102206095Y-94794905D01*
D37*
X102182095Y-86769905D02*
X102657095Y-86294905D01*
D38*
X99407095Y-93544905D02*
X100657095Y-94794905D01*
D37*
X110657095Y-86294905D02*
X111220095Y-86857905D01*
X102182095Y-90294905D02*
X102182095Y-86769905D01*
X102637095Y-96864905D02*
X102182095Y-97319905D01*
X102637095Y-92814905D02*
X102182095Y-92359905D01*
X102637095Y-94144905D02*
X102637095Y-92814905D01*
X106157095Y-106794905D02*
X110157095Y-106794905D01*
X102182095Y-92359905D02*
X102182095Y-90294905D01*
D36*
%TO.N,BAT_GND*%
X104307095Y-94144905D02*
X103657095Y-94794905D01*
D39*
X105132095Y-97319905D02*
X104677095Y-96864905D01*
X104677095Y-94144905D02*
X104677095Y-95444905D01*
D36*
X104677095Y-94794905D02*
X103657095Y-94794905D01*
D40*
X104677095Y-94144905D02*
X104677095Y-94794905D01*
D39*
X105132095Y-103769905D02*
X106133095Y-104770905D01*
X105132095Y-88819905D02*
X105657095Y-88294905D01*
X104677095Y-93224905D02*
X104677095Y-94144905D01*
X107657095Y-88294905D02*
X108680095Y-89317905D01*
D40*
X104677095Y-94794905D02*
X104677095Y-95444905D01*
D39*
X105132095Y-99794905D02*
X105132095Y-103769905D01*
D36*
X97857095Y-101044905D02*
X97857095Y-101094905D01*
D39*
X105132095Y-97319905D02*
X105132095Y-99794905D01*
D36*
X104677095Y-95444905D02*
X104307095Y-95444905D01*
X104307095Y-95444905D02*
X103657095Y-94794905D01*
D39*
X108680095Y-89317905D02*
X108680095Y-90270905D01*
X105132095Y-92769905D02*
X104677095Y-93224905D01*
D36*
X104677095Y-94144905D02*
X104307095Y-94144905D01*
D39*
X105132095Y-92769905D02*
X105132095Y-90294905D01*
X104677095Y-96864905D02*
X104677095Y-95444905D01*
X105657095Y-88294905D02*
X107657095Y-88294905D01*
X106133095Y-104770905D02*
X108680095Y-104770905D01*
X105132095Y-90294905D02*
X105132095Y-88819905D01*
D37*
%TO.N,RF_GND*%
X127657095Y-115794905D02*
X128657095Y-115794905D01*
X126657095Y-115794905D02*
X127657095Y-115794905D01*
X126657095Y-113794905D02*
X127657095Y-113794905D01*
X128657095Y-100294905D02*
X128157095Y-99794905D01*
X126657095Y-114794905D02*
X127657095Y-114794905D01*
X129157095Y-101294905D02*
X130157095Y-101294905D01*
D41*
X96982095Y-89294905D02*
X96982095Y-87969905D01*
D37*
X128657095Y-117794905D02*
X127657095Y-117794905D01*
X129157095Y-100794905D02*
X128657095Y-100294905D01*
D42*
X130157095Y-85544905D02*
X130607894Y-85544905D01*
D37*
X126657095Y-115794905D02*
X126657095Y-114794905D01*
X126657095Y-112794905D02*
X127657095Y-112794905D01*
X127657095Y-113794905D02*
X127657095Y-114794905D01*
X127657095Y-110794905D02*
X127657095Y-111794905D01*
X128657095Y-100294905D02*
X127657095Y-100294905D01*
X128157095Y-100794905D02*
X128657095Y-100794905D01*
X128657095Y-100294905D02*
X128157095Y-100794905D01*
D36*
X136577095Y-86394905D02*
X132682894Y-86394905D01*
D37*
X128657095Y-100794905D02*
X129157095Y-101294905D01*
X129882095Y-100294905D02*
X129882095Y-100569905D01*
D43*
X125182095Y-93294905D02*
X124157095Y-93294905D01*
D37*
X127311395Y-110449205D02*
X127657095Y-110794905D01*
X130157095Y-100569905D02*
X129882095Y-100294905D01*
X127002795Y-109604905D02*
X127002795Y-110449205D01*
X128657095Y-116794905D02*
X127657095Y-116794905D01*
X128657095Y-115794905D02*
X128657095Y-116794905D01*
D41*
X96982095Y-87969905D02*
X99300095Y-85651905D01*
D36*
X130657095Y-112794905D02*
X130657095Y-114690428D01*
D37*
X129157095Y-101294905D02*
X129157095Y-100794905D01*
X127002795Y-110449205D02*
X127311395Y-110449205D01*
X126657095Y-116794905D02*
X127657095Y-116794905D01*
X127002795Y-110449205D02*
X126657095Y-110794905D01*
X127657095Y-114794905D02*
X127657095Y-115794905D01*
D36*
X130657095Y-114690428D02*
X130457618Y-114889905D01*
D37*
X126657095Y-111794905D02*
X127657095Y-111794905D01*
X127657095Y-115794905D02*
X127657095Y-116794905D01*
X126657095Y-113794905D02*
X126657095Y-112794905D01*
X127657095Y-111794905D02*
X127657095Y-112794905D01*
X126657095Y-116794905D02*
X126657095Y-115794905D01*
X127657095Y-116794905D02*
X127657095Y-117794905D01*
X129882095Y-100569905D02*
X129157095Y-101294905D01*
X128157095Y-100794905D02*
X127657095Y-100294905D01*
X126657095Y-117794905D02*
X126657095Y-116794905D01*
X126657095Y-112794905D02*
X126657095Y-111794905D01*
D42*
X130607894Y-85544905D02*
X131132894Y-86069905D01*
D41*
X99300095Y-83744906D02*
X100159095Y-82885906D01*
D37*
X127657095Y-112794905D02*
X127657095Y-113794905D01*
D41*
X99300095Y-85651905D02*
X99300095Y-83744906D01*
D37*
X126657095Y-114794905D02*
X126657095Y-113794905D01*
D36*
X132682894Y-86394905D02*
X132357894Y-86069905D01*
D37*
X130457618Y-114889905D02*
X127752095Y-114889905D01*
X127657095Y-100294905D02*
X128157095Y-99794905D01*
X130157095Y-101294905D02*
X130157095Y-100569905D01*
X128657095Y-116794905D02*
X128657095Y-117794905D01*
X127657095Y-117794905D02*
X126657095Y-117794905D01*
D42*
X131132894Y-86069905D02*
X132357894Y-86069905D01*
D36*
X127752095Y-114889905D02*
X127657095Y-114794905D01*
D37*
X129882095Y-100294905D02*
X128657095Y-100294905D01*
X126657095Y-111794905D02*
X126657095Y-110794905D01*
D44*
%TO.N,RF_3.3V*%
X129832095Y-91294905D02*
X129832095Y-92794905D01*
X129832095Y-89794905D02*
X129832095Y-88294905D01*
D39*
X116300095Y-90270905D02*
X116300095Y-92427638D01*
D36*
X129882095Y-120294905D02*
X129882095Y-119275428D01*
X129832095Y-98794905D02*
X126657095Y-98794905D01*
X180687390Y-76741505D02*
X181093695Y-77147810D01*
D41*
X90553845Y-85398155D02*
X91657095Y-84294905D01*
D36*
X131432095Y-100294905D02*
X132311395Y-101174205D01*
D44*
X129832095Y-92794905D02*
X129832095Y-94294905D01*
D42*
X129085195Y-85544905D02*
X129585196Y-86044906D01*
D36*
X202741505Y-76741505D02*
X203820495Y-77820495D01*
X130157095Y-99069905D02*
X131382095Y-100294905D01*
D41*
X127157095Y-81794905D02*
X126932095Y-82019905D01*
D44*
X129832095Y-89794905D02*
X129832095Y-91294905D01*
D36*
X181093695Y-80111505D02*
X182297095Y-81314905D01*
D39*
X126932095Y-90019905D02*
X128657095Y-88294905D01*
D36*
X178500000Y-76741505D02*
X133190494Y-76741505D01*
D39*
X128132095Y-94819905D02*
X128132095Y-93294905D01*
X128132095Y-91269905D02*
X126932095Y-90069905D01*
X128657095Y-88294905D02*
X129832095Y-88294905D01*
D42*
X128558693Y-85544905D02*
X128558693Y-85044905D01*
X128558693Y-85044905D02*
X128558693Y-84544904D01*
D41*
X91657095Y-84294905D02*
X93657095Y-84294905D01*
D42*
X127182096Y-84544904D02*
X126932095Y-84794905D01*
X128558693Y-85544905D02*
X129085195Y-85544905D01*
D36*
X133190494Y-76741505D02*
X128532394Y-81399605D01*
X127657095Y-120294905D02*
X129882095Y-120294905D01*
X126657095Y-98794905D02*
X125950895Y-99501105D01*
D39*
X126932095Y-90069905D02*
X126932095Y-90019905D01*
D42*
X128558693Y-84544904D02*
X127182096Y-84544904D01*
D41*
X90553845Y-85794905D02*
X90553845Y-89294905D01*
D39*
X126932095Y-90069905D02*
X126932095Y-84794905D01*
X127553695Y-95398305D02*
X128132095Y-94819905D01*
D41*
X128032394Y-81794905D02*
X128532394Y-82294905D01*
X90553845Y-85794905D02*
X90553845Y-85398155D01*
X126932095Y-82019905D02*
X126932095Y-84794905D01*
D36*
X178500000Y-76741505D02*
X202741505Y-76741505D01*
X125950895Y-99501105D02*
X125950895Y-118588705D01*
D39*
X116300095Y-92427638D02*
X119270762Y-95398305D01*
D36*
X132311395Y-101174205D02*
X132311395Y-101984905D01*
D44*
X129832095Y-95794905D02*
X129832095Y-97294905D01*
D41*
X127157095Y-81794905D02*
X128032394Y-81794905D01*
D36*
X181093695Y-77147810D02*
X181093695Y-80111505D01*
X125950895Y-118588705D02*
X127657095Y-120294905D01*
D44*
X129832095Y-94294905D02*
X129832095Y-95794905D01*
D36*
X128532394Y-81399605D02*
X128532394Y-82294905D01*
X203820495Y-112998305D02*
X205157095Y-114334905D01*
D39*
X128132095Y-93294905D02*
X128132095Y-91269905D01*
D44*
X129832095Y-97294905D02*
X129832095Y-98794905D01*
D42*
X128532394Y-82294905D02*
X128532394Y-84518605D01*
D36*
X203820495Y-77820495D02*
X203820495Y-112998305D01*
D42*
X129585196Y-86044906D02*
X130157095Y-86044906D01*
X128532394Y-84518605D02*
X128558693Y-84544904D01*
D36*
X178500000Y-76741505D02*
X180687390Y-76741505D01*
X129882095Y-119275428D02*
X130457618Y-118699905D01*
D39*
X119270762Y-95398305D02*
X127553695Y-95398305D01*
D37*
%TO.N,GND_5VCAN*%
X98597095Y-107234905D02*
X97657095Y-106294905D01*
X119157095Y-113294905D02*
X119157095Y-114190428D01*
X99382095Y-111794905D02*
X99382095Y-113019905D01*
X92932095Y-111794905D02*
X92932095Y-110569905D01*
D38*
X121380095Y-104770905D02*
X121380095Y-105517905D01*
D37*
X120382095Y-112294905D02*
X120382095Y-114364382D01*
D38*
X121380095Y-104770905D02*
X121380095Y-101492905D01*
D37*
X120382095Y-112294905D02*
X119157095Y-112294905D01*
X92657095Y-110294905D02*
X93657095Y-110294905D01*
X120382095Y-114364382D02*
X119856572Y-114889905D01*
X119157095Y-114190428D02*
X119856572Y-114889905D01*
D38*
X121380095Y-101492905D02*
X120657095Y-100769905D01*
D37*
X92657095Y-110294905D02*
X92657095Y-109304905D01*
X92932095Y-110569905D02*
X92657095Y-110294905D01*
X92657095Y-109304905D02*
X93107095Y-108854905D01*
X99382095Y-113019905D02*
X99657095Y-113294905D01*
%TO.N,+5VCAN*%
X122657095Y-112294905D02*
X123157095Y-111794905D01*
X123157095Y-98794905D02*
X122182095Y-97819905D01*
D39*
X116300095Y-103151905D02*
X116300095Y-99151905D01*
D37*
X121932095Y-112294905D02*
X122657095Y-112294905D01*
X122182095Y-97819905D02*
X120657095Y-97819905D01*
D39*
X116300095Y-104770905D02*
X116300095Y-103151905D01*
D37*
X123157095Y-111794905D02*
X123157095Y-98794905D01*
D39*
X116300095Y-99151905D02*
X117632095Y-97819905D01*
X117632095Y-97819905D02*
X120657095Y-97819905D01*
D37*
X121932095Y-118519905D02*
X121932095Y-112294905D01*
X119856572Y-118699905D02*
X121752095Y-118699905D01*
X121752095Y-118699905D02*
X121932095Y-118519905D01*
%TO.N,+5VD*%
X132357894Y-83594106D02*
X132657095Y-83294905D01*
X131657095Y-81294905D02*
X132157095Y-81794905D01*
D42*
X130632892Y-84519905D02*
X132357894Y-84519905D01*
D37*
X132157095Y-81794905D02*
X132157095Y-82294905D01*
X132357894Y-83995704D02*
X131657095Y-83294905D01*
D42*
X130607893Y-84544904D02*
X130632892Y-84519905D01*
D37*
X132357894Y-84519905D02*
X132357894Y-83995704D01*
D42*
X130157095Y-84544904D02*
X130607893Y-84544904D01*
D37*
X132157095Y-82294905D02*
X132657095Y-82294905D01*
X131657095Y-82294905D02*
X132657095Y-83294905D01*
X131657095Y-82294905D02*
X132157095Y-82294905D01*
X132357894Y-83995704D02*
X132357894Y-83594106D01*
D44*
%TO.N,CAN_H*%
X99157095Y-121294905D02*
X91382095Y-113519905D01*
X91207095Y-111619905D02*
X91382095Y-111794905D01*
X91207095Y-108854905D02*
X91207095Y-111619905D01*
D37*
X112522095Y-117429905D02*
X110657095Y-119294905D01*
D44*
X91382095Y-113519905D02*
X91382095Y-111794905D01*
X93007095Y-96044905D02*
X97857095Y-96044905D01*
X110657095Y-119294905D02*
X108657095Y-121294905D01*
D37*
X119856572Y-117429905D02*
X112522095Y-117429905D01*
D44*
X91207095Y-97844905D02*
X93007095Y-96044905D01*
X91207095Y-97844905D02*
X91207095Y-108854905D01*
X108657095Y-121294905D02*
X99157095Y-121294905D01*
%TO.N,CAN_L*%
X94157095Y-105294905D02*
X99657095Y-105294905D01*
X93157095Y-99294905D02*
X93157095Y-104294905D01*
X93907095Y-98544905D02*
X93157095Y-99294905D01*
X99657095Y-105294905D02*
X100607095Y-106244905D01*
X97857095Y-98544905D02*
X93907095Y-98544905D01*
X100607095Y-111469905D02*
X100932095Y-111794905D01*
X100607095Y-106244905D02*
X100607095Y-107234905D01*
X93157095Y-104294905D02*
X94157095Y-105294905D01*
X100607095Y-107234905D02*
X100607095Y-111469905D01*
X100932095Y-111794905D02*
X108157095Y-111794905D01*
D37*
X119856572Y-116159905D02*
X112522095Y-116159905D01*
X112522095Y-116159905D02*
X110657095Y-114294905D01*
D44*
X108157095Y-111794905D02*
X110657095Y-114294905D01*
D37*
%TO.N,Net-(C12-Pad1)*%
X103037095Y-114294905D02*
X101432095Y-114294905D01*
X101432095Y-114294905D02*
X100932095Y-113794905D01*
X103037095Y-116674905D02*
X103037095Y-119294905D01*
X101432095Y-115069905D02*
X103037095Y-116674905D01*
X101432095Y-114294905D02*
X101432095Y-115069905D01*
D42*
%TO.N,RF_Q1*%
X188000000Y-110500000D02*
X188813695Y-111313695D01*
X168160495Y-109378749D02*
X169281746Y-110500000D01*
X188813695Y-111313695D02*
X188813695Y-113231505D01*
X169281746Y-110500000D02*
X188000000Y-110500000D01*
X167057095Y-106714905D02*
X168160495Y-107818305D01*
X188813695Y-113231505D02*
X189917095Y-114334905D01*
X168160495Y-107818305D02*
X168160495Y-109378749D01*
%TO.N,RF_CLKOUT*%
X186273695Y-113231505D02*
X166933251Y-113231505D01*
X187377095Y-114334905D02*
X186273695Y-113231505D01*
X166933251Y-113231505D02*
X165953695Y-112251949D01*
X165953695Y-108151505D02*
X164517095Y-106714905D01*
X165953695Y-112251949D02*
X165953695Y-108151505D01*
%TO.N,RF_LED*%
X181840051Y-103071505D02*
X200867339Y-103071505D01*
X200867339Y-103071505D02*
X201180495Y-103384661D01*
X181193695Y-103717861D02*
X181840051Y-103071505D01*
X180360711Y-105611505D02*
X181193695Y-104778521D01*
X201180495Y-112898305D02*
X202617095Y-114334905D01*
X181193695Y-104778521D02*
X181193695Y-103717861D01*
X201180495Y-103384661D02*
X201180495Y-112898305D01*
X178320495Y-105611505D02*
X180360711Y-105611505D01*
X177217095Y-106714905D02*
X178320495Y-105611505D01*
%TO.N,RF_I0*%
X192914139Y-108151505D02*
X193893695Y-109131061D01*
X193893695Y-109131061D02*
X193893695Y-113231505D01*
X193893695Y-113231505D02*
X194997095Y-114334905D01*
X173573695Y-108151505D02*
X192914139Y-108151505D01*
X172137095Y-106714905D02*
X173573695Y-108151505D01*
%TO.N,RF_IDEL*%
X197994139Y-105611505D02*
X180860495Y-105611505D01*
X200077095Y-114334905D02*
X198973695Y-113231505D01*
X180860495Y-105611505D02*
X179757095Y-106714905D01*
X198973695Y-113231505D02*
X198973695Y-106591061D01*
X198973695Y-106591061D02*
X197994139Y-105611505D01*
%TO.N,RF_SCLK*%
X191020495Y-84311949D02*
X190374139Y-84958305D01*
X192457095Y-81314905D02*
X191020495Y-82751505D01*
X191020495Y-82751505D02*
X191020495Y-84311949D01*
X190374139Y-84958305D02*
X165953695Y-84958305D01*
X165953695Y-84958305D02*
X164517095Y-86394905D01*
%TO.N,RF_ANTFLAG*%
X201513695Y-82418305D02*
X202617095Y-81314905D01*
X182538305Y-90038305D02*
X183733695Y-91233695D01*
X181193695Y-89391949D02*
X181840051Y-90038305D01*
X200534139Y-92578305D02*
X201513695Y-91598749D01*
X183733695Y-91233695D02*
X183733695Y-92233695D01*
X183733695Y-92233695D02*
X184078305Y-92578305D01*
X201513695Y-91598749D02*
X201513695Y-82418305D01*
X184078305Y-92578305D02*
X200534139Y-92578305D01*
X179757095Y-86394905D02*
X181193695Y-87831505D01*
X181193695Y-87831505D02*
X181193695Y-89391949D01*
X181840051Y-90038305D02*
X182538305Y-90038305D01*
%TO.N,Net-(U7-SW)*%
X130183394Y-82969405D02*
X129357894Y-83794905D01*
X130183394Y-82294905D02*
X130183394Y-82969405D01*
X129585196Y-85044905D02*
X130157095Y-85044905D01*
X129357894Y-83794905D02*
X129357894Y-84817603D01*
X129357894Y-84817603D02*
X129585196Y-85044905D01*
%TO.N,Net-(LED1-Pad1)*%
X91760345Y-89294905D02*
X95332095Y-89294905D01*
%TO.N,Net-(LED2-Pad1)*%
X91760345Y-85794905D02*
X95332095Y-85794905D01*
%TO.N,CAN_CS*%
X133657095Y-103294905D02*
X133617095Y-103254905D01*
X136120051Y-100531505D02*
X142114139Y-100531505D01*
X132657095Y-98794905D02*
X131482095Y-98794905D01*
X133657095Y-102994461D02*
X136120051Y-100531505D01*
X142777095Y-105294905D02*
X144197095Y-106714905D01*
X132311395Y-103254905D02*
X133617095Y-103254905D01*
X133657095Y-103294905D02*
X133657095Y-102994461D01*
X142777095Y-101194461D02*
X142777095Y-105294905D01*
X142114139Y-100531505D02*
X142777095Y-101194461D01*
%TO.N,CAN_SDO*%
X132311395Y-104524905D02*
X133387095Y-104524905D01*
X133657095Y-104794905D02*
X133387095Y-104524905D01*
X133657095Y-104794905D02*
X135380495Y-103071505D01*
X132657095Y-97294905D02*
X131482095Y-97294905D01*
X135380495Y-103071505D02*
X139574139Y-103071505D01*
X139574139Y-103071505D02*
X140237095Y-103734461D01*
X140237095Y-103734461D02*
X140237095Y-105294905D01*
X140237095Y-105294905D02*
X141657095Y-106714905D01*
%TO.N,CAN_SDI*%
X132311395Y-105794905D02*
X133157095Y-105794905D01*
X134340495Y-105611505D02*
X138013695Y-105611505D01*
X133157095Y-105794905D02*
X133657095Y-106294905D01*
X132657095Y-95794905D02*
X131482095Y-95794905D01*
X133657095Y-106294905D02*
X134340495Y-105611505D01*
X138013695Y-105611505D02*
X139117095Y-106714905D01*
%TO.N,CAN_SCK*%
X133427095Y-107064905D02*
X132311395Y-107064905D01*
X133657095Y-107294905D02*
X133427095Y-107064905D01*
X132657095Y-94294905D02*
X131482095Y-94294905D01*
X133657095Y-107794905D02*
X135497095Y-107794905D01*
X133657095Y-107794905D02*
X133657095Y-107294905D01*
X135497095Y-107794905D02*
X136577095Y-106714905D01*
%TO.N,CAN_GPIO0*%
X155793695Y-87498305D02*
X156897095Y-86394905D01*
X132311395Y-108334905D02*
X133197095Y-108334905D01*
X133197095Y-108334905D02*
X133657095Y-108794905D01*
X132657095Y-92794905D02*
X134980495Y-95118305D01*
X134980495Y-95118305D02*
X154814139Y-95118305D01*
X132657095Y-92794905D02*
X131482095Y-92794905D01*
X154814139Y-95118305D02*
X155793695Y-94138749D01*
X155793695Y-94138749D02*
X155793695Y-87498305D01*
%TO.N,CAN_GPIO1*%
X153253695Y-91746305D02*
X153253695Y-87498305D01*
X133657095Y-109794905D02*
X133467095Y-109604905D01*
X152421695Y-92578305D02*
X153253695Y-91746305D01*
X153253695Y-87498305D02*
X154357095Y-86394905D01*
X133940495Y-92578305D02*
X152421695Y-92578305D01*
X132657095Y-91294905D02*
X133940495Y-92578305D01*
X133657095Y-110294905D02*
X133657095Y-109794905D01*
X132657095Y-91294905D02*
X131482095Y-91294905D01*
X133467095Y-109604905D02*
X132311395Y-109604905D01*
%TO.N,CAN_CLK*%
X128657095Y-104794905D02*
X130157095Y-104794905D01*
X133263295Y-102517705D02*
X133634067Y-102146933D01*
X128387095Y-104524905D02*
X127002795Y-104524905D01*
X130157095Y-103924505D02*
X131563895Y-102517705D01*
X132657095Y-88294905D02*
X131482095Y-88294905D01*
X150602190Y-98859556D02*
X150602190Y-105500000D01*
X130157095Y-104794905D02*
X130157095Y-103924505D01*
X133634067Y-102146933D02*
X133634067Y-100477489D01*
X128387095Y-104524905D02*
X128657095Y-104794905D01*
X131563895Y-102517705D02*
X133263295Y-102517705D01*
X150602190Y-105500000D02*
X151817095Y-106714905D01*
X136120051Y-97991505D02*
X149734139Y-97991505D01*
X149734139Y-97991505D02*
X150602190Y-98859556D01*
X133634067Y-100477489D02*
X136120051Y-97991505D01*
%TO.N,CAN_INT*%
X150713695Y-89391949D02*
X150713695Y-87498305D01*
X129657095Y-105794905D02*
X130157095Y-106294905D01*
X132657095Y-89794905D02*
X132900495Y-90038305D01*
X150067339Y-90038305D02*
X150713695Y-89391949D01*
X127002795Y-105794905D02*
X129657095Y-105794905D01*
X132900495Y-90038305D02*
X150067339Y-90038305D01*
X132657095Y-89794905D02*
X131482095Y-89794905D01*
X150713695Y-87498305D02*
X151817095Y-86394905D01*
%TO.N,Net-(R10-Pad2)*%
X96982095Y-82826905D02*
X97014095Y-82794905D01*
X96982095Y-85794905D02*
X96982095Y-82826905D01*
%TO.N,Net-(U1-OSC2)*%
X130657095Y-107794905D02*
X130657095Y-110794905D01*
X130657095Y-110794905D02*
X131857095Y-111994905D01*
X127002795Y-107064905D02*
X129927095Y-107064905D01*
X129927095Y-107064905D02*
X130657095Y-107794905D01*
X131857095Y-111994905D02*
X131857095Y-112794905D01*
%TO.N,Net-(U1-OSC1)*%
X129457095Y-109594905D02*
X129457095Y-112794905D01*
X127002795Y-108334905D02*
X128197095Y-108334905D01*
X128197095Y-108334905D02*
X129457095Y-109594905D01*
%TO.N,Net-(U1-RXCAN)*%
X132657095Y-116294905D02*
X132522095Y-116159905D01*
X127002795Y-103254905D02*
X128617095Y-103254905D01*
X128657095Y-103294905D02*
X128617095Y-103254905D01*
X130457618Y-116159905D02*
X132522095Y-116159905D01*
%TO.N,Net-(U1-TXCAN)*%
X132522095Y-117429905D02*
X132657095Y-117294905D01*
X128347095Y-101984905D02*
X128657095Y-102294905D01*
X127002795Y-101984905D02*
X128347095Y-101984905D01*
X130457618Y-117429905D02*
X132522095Y-117429905D01*
%TO.N,CAN_LED*%
X134657095Y-83495349D02*
X136120051Y-84958305D01*
X158000495Y-84958305D02*
X159437095Y-86394905D01*
X136120051Y-84958305D02*
X158000495Y-84958305D01*
X98157095Y-79794905D02*
X99300095Y-80937905D01*
X99300095Y-80937905D02*
X99300095Y-81844904D01*
X98157095Y-79294905D02*
X98157095Y-79794905D01*
X134657095Y-80294905D02*
X134657095Y-83495349D01*
%TO.N,RF_SHDN*%
X182297095Y-86394905D02*
X183733695Y-87831505D01*
X183733695Y-89391949D02*
X184380051Y-90038305D01*
X183733695Y-87831505D02*
X183733695Y-89391949D01*
X198973695Y-82418305D02*
X200077095Y-81314905D01*
X184380051Y-90038305D02*
X197994139Y-90038305D01*
X198973695Y-89058749D02*
X198973695Y-82418305D01*
X197994139Y-90038305D02*
X198973695Y-89058749D01*
%TO.N,RF_CS*%
X163080495Y-85291505D02*
X161977095Y-86394905D01*
X163080495Y-83731061D02*
X163080495Y-85291505D01*
X164060051Y-82751505D02*
X163080495Y-83731061D01*
X189917095Y-81314905D02*
X188480495Y-82751505D01*
X188480495Y-82751505D02*
X164060051Y-82751505D01*
%TO.N,RF_LD*%
X196433695Y-86566305D02*
X196433695Y-82418305D01*
X195501695Y-87498305D02*
X196433695Y-86566305D01*
X185940495Y-87498305D02*
X195501695Y-87498305D01*
X196433695Y-82418305D02*
X197537095Y-81314905D01*
X184837095Y-86394905D02*
X185940495Y-87498305D01*
%TD*%
%TA.AperFunction,Conductor*%
%TO.N,BAT_GND*%
G36*
X109600134Y-88814590D02*
G01*
X109645889Y-88867394D01*
X109657095Y-88918905D01*
X109657095Y-88964038D01*
X109637410Y-89031077D01*
X109584606Y-89076832D01*
X109515448Y-89086776D01*
X109489769Y-89080222D01*
X109485982Y-89078810D01*
X109485967Y-89078806D01*
X109426439Y-89072405D01*
X108930095Y-89072405D01*
X108930095Y-89901977D01*
X108851666Y-89856697D01*
X108738615Y-89826405D01*
X108621575Y-89826405D01*
X108508524Y-89856697D01*
X108430095Y-89901977D01*
X108430095Y-89072405D01*
X107933750Y-89072405D01*
X107874222Y-89078806D01*
X107874215Y-89078808D01*
X107739508Y-89129050D01*
X107739501Y-89129054D01*
X107624407Y-89215214D01*
X107624404Y-89215217D01*
X107538244Y-89330311D01*
X107538240Y-89330318D01*
X107487998Y-89465025D01*
X107487996Y-89465032D01*
X107481595Y-89524560D01*
X107481595Y-90020905D01*
X108311168Y-90020905D01*
X108265887Y-90099334D01*
X108235595Y-90212385D01*
X108235595Y-90329425D01*
X108265887Y-90442476D01*
X108311168Y-90520905D01*
X107481595Y-90520905D01*
X107481595Y-91017249D01*
X107487996Y-91076777D01*
X107487998Y-91076784D01*
X107538240Y-91211491D01*
X107538244Y-91211498D01*
X107624404Y-91326592D01*
X107624407Y-91326595D01*
X107739501Y-91412755D01*
X107739508Y-91412759D01*
X107874215Y-91463001D01*
X107874222Y-91463003D01*
X107933750Y-91469404D01*
X107933767Y-91469405D01*
X108430095Y-91469405D01*
X108430095Y-90639832D01*
X108508524Y-90685113D01*
X108621575Y-90715405D01*
X108738615Y-90715405D01*
X108851666Y-90685113D01*
X108930095Y-90639832D01*
X108930095Y-91469405D01*
X109426423Y-91469405D01*
X109426439Y-91469404D01*
X109485967Y-91463003D01*
X109485974Y-91463001D01*
X109620681Y-91412759D01*
X109620683Y-91412757D01*
X109742884Y-91321279D01*
X109744765Y-91323792D01*
X109792478Y-91297739D01*
X109818836Y-91294905D01*
X110559014Y-91294905D01*
X110615307Y-91308419D01*
X110759839Y-91382062D01*
X110939328Y-91440382D01*
X111009229Y-91451453D01*
X111125727Y-91469905D01*
X111125732Y-91469905D01*
X111314463Y-91469905D01*
X111418015Y-91453503D01*
X111500862Y-91440382D01*
X111680351Y-91382062D01*
X111824882Y-91308419D01*
X111837884Y-91305298D01*
X111846241Y-91299928D01*
X111881176Y-91294905D01*
X112033095Y-91294905D01*
X112100134Y-91314590D01*
X112145889Y-91367394D01*
X112157095Y-91418905D01*
X112157095Y-103670905D01*
X112137410Y-103737944D01*
X112084606Y-103783699D01*
X112033095Y-103794905D01*
X111956898Y-103794905D01*
X111889859Y-103775220D01*
X111884013Y-103771223D01*
X111848511Y-103745430D01*
X111848510Y-103745429D01*
X111848508Y-103745428D01*
X111680351Y-103659748D01*
X111500862Y-103601428D01*
X111500860Y-103601427D01*
X111500858Y-103601427D01*
X111314463Y-103571905D01*
X111314458Y-103571905D01*
X111125732Y-103571905D01*
X111125727Y-103571905D01*
X110939331Y-103601427D01*
X110759836Y-103659749D01*
X110591678Y-103745430D01*
X110556177Y-103771223D01*
X110490371Y-103794703D01*
X110483292Y-103794905D01*
X110157095Y-103794905D01*
X110157095Y-104186364D01*
X110153973Y-104199366D01*
X110154965Y-104209251D01*
X110143580Y-104242659D01*
X110113080Y-104302519D01*
X110065106Y-104353315D01*
X109997285Y-104370110D01*
X109931150Y-104347573D01*
X109887698Y-104292858D01*
X109878595Y-104246224D01*
X109878595Y-104024577D01*
X109878594Y-104024560D01*
X109872193Y-103965032D01*
X109872191Y-103965025D01*
X109821949Y-103830318D01*
X109821945Y-103830311D01*
X109735785Y-103715217D01*
X109735782Y-103715214D01*
X109620688Y-103629054D01*
X109620681Y-103629050D01*
X109485974Y-103578808D01*
X109485967Y-103578806D01*
X109426439Y-103572405D01*
X108930095Y-103572405D01*
X108930095Y-104401977D01*
X108851666Y-104356697D01*
X108738615Y-104326405D01*
X108621575Y-104326405D01*
X108508524Y-104356697D01*
X108430095Y-104401977D01*
X108430095Y-103572405D01*
X107933750Y-103572405D01*
X107874222Y-103578806D01*
X107874215Y-103578808D01*
X107739508Y-103629050D01*
X107739501Y-103629054D01*
X107624407Y-103715214D01*
X107624404Y-103715217D01*
X107538244Y-103830311D01*
X107538240Y-103830318D01*
X107487998Y-103965025D01*
X107487996Y-103965032D01*
X107481595Y-104024560D01*
X107481595Y-104520905D01*
X108311168Y-104520905D01*
X108265887Y-104599334D01*
X108235595Y-104712385D01*
X108235595Y-104829425D01*
X108265887Y-104942476D01*
X108311168Y-105020905D01*
X107481595Y-105020905D01*
X107481595Y-105517249D01*
X107487996Y-105576777D01*
X107487997Y-105576781D01*
X107506941Y-105627571D01*
X107511925Y-105697263D01*
X107478440Y-105758586D01*
X107417117Y-105792071D01*
X107390759Y-105794905D01*
X106340535Y-105794905D01*
X106273496Y-105775220D01*
X106252854Y-105758586D01*
X105193414Y-104699146D01*
X105159929Y-104637823D01*
X105157095Y-104611465D01*
X105157095Y-101768904D01*
X105176780Y-101701865D01*
X105229584Y-101656110D01*
X105281095Y-101644904D01*
X105507067Y-101644904D01*
X105507081Y-101644903D01*
X105609792Y-101634410D01*
X105776214Y-101579263D01*
X105776219Y-101579261D01*
X105925440Y-101487220D01*
X106049410Y-101363250D01*
X106141451Y-101214029D01*
X106141453Y-101214024D01*
X106196600Y-101047602D01*
X106196601Y-101047595D01*
X106207094Y-100944891D01*
X106207095Y-100944878D01*
X106207095Y-100044905D01*
X105256095Y-100044905D01*
X105189056Y-100025220D01*
X105157095Y-99988335D01*
X105157095Y-99597260D01*
X105204584Y-99556111D01*
X105256095Y-99544905D01*
X106207094Y-99544905D01*
X106207094Y-98644933D01*
X106207093Y-98644918D01*
X106196600Y-98542207D01*
X106141453Y-98375785D01*
X106141451Y-98375780D01*
X106049410Y-98226559D01*
X105925440Y-98102589D01*
X105776219Y-98010548D01*
X105776214Y-98010546D01*
X105609792Y-97955399D01*
X105609785Y-97955398D01*
X105507081Y-97944905D01*
X105281095Y-97944905D01*
X105214056Y-97925220D01*
X105168301Y-97872416D01*
X105157095Y-97820905D01*
X105157095Y-92268904D01*
X105176780Y-92201865D01*
X105229584Y-92156110D01*
X105281095Y-92144904D01*
X105507067Y-92144904D01*
X105507081Y-92144903D01*
X105609792Y-92134410D01*
X105776214Y-92079263D01*
X105776219Y-92079261D01*
X105925440Y-91987220D01*
X106049410Y-91863250D01*
X106141451Y-91714029D01*
X106141453Y-91714024D01*
X106196600Y-91547602D01*
X106196601Y-91547595D01*
X106207094Y-91444891D01*
X106207095Y-91444878D01*
X106207095Y-90544905D01*
X105256095Y-90544905D01*
X105189056Y-90525220D01*
X105157095Y-90488335D01*
X105157095Y-90097260D01*
X105204584Y-90056111D01*
X105256095Y-90044905D01*
X106207094Y-90044905D01*
X106207094Y-89144933D01*
X106207093Y-89144918D01*
X106196600Y-89042207D01*
X106168667Y-88957909D01*
X106166265Y-88888081D01*
X106201997Y-88828039D01*
X106264517Y-88796846D01*
X106286373Y-88794905D01*
X109533095Y-88794905D01*
X109600134Y-88814590D01*
G37*
%TD.AperFunction*%
%TD*%
%TA.AperFunction,Conductor*%
%TO.N,GND_5VCAN*%
G36*
X100200066Y-114579740D02*
G01*
X100244422Y-114608244D01*
X100254050Y-114617872D01*
X100254054Y-114617875D01*
X100398389Y-114706903D01*
X100398392Y-114706904D01*
X100398398Y-114706908D01*
X100546600Y-114756016D01*
X100604044Y-114795788D01*
X100630867Y-114860304D01*
X100631595Y-114873722D01*
X100631595Y-115148751D01*
X100662356Y-115303394D01*
X100662359Y-115303406D01*
X100722697Y-115449077D01*
X100722704Y-115449090D01*
X100810305Y-115580193D01*
X100810308Y-115580197D01*
X101620776Y-116390664D01*
X101654261Y-116451987D01*
X101657095Y-116478345D01*
X101657095Y-120270405D01*
X101637410Y-120337444D01*
X101584606Y-120383199D01*
X101533095Y-120394405D01*
X99781095Y-120394405D01*
X99714056Y-120374720D01*
X99668301Y-120321916D01*
X99667550Y-120318466D01*
X99667368Y-120318546D01*
X99657095Y-120294905D01*
X99657095Y-114769731D01*
X99754702Y-114759760D01*
X99915576Y-114706452D01*
X99915587Y-114706447D01*
X100059826Y-114617478D01*
X100069054Y-114608250D01*
X100130374Y-114574761D01*
X100200066Y-114579740D01*
G37*
%TD.AperFunction*%
%TD*%
%TA.AperFunction,Conductor*%
%TO.N,GND_5VCAN*%
G36*
X122299634Y-99314590D02*
G01*
X122345389Y-99367394D01*
X122356595Y-99418905D01*
X122356595Y-99711311D01*
X122336910Y-99778350D01*
X122284106Y-99824105D01*
X122214948Y-99834049D01*
X122167498Y-99816850D01*
X122076219Y-99760548D01*
X122076214Y-99760546D01*
X121909792Y-99705399D01*
X121909785Y-99705398D01*
X121807081Y-99694905D01*
X120907095Y-99694905D01*
X120907095Y-101844904D01*
X121807067Y-101844904D01*
X121807081Y-101844903D01*
X121909792Y-101834410D01*
X122076214Y-101779263D01*
X122076225Y-101779258D01*
X122167498Y-101722960D01*
X122234890Y-101704519D01*
X122301553Y-101725441D01*
X122346323Y-101779083D01*
X122356595Y-101828498D01*
X122356595Y-104096596D01*
X122336910Y-104163635D01*
X122320276Y-104184277D01*
X121817742Y-104686810D01*
X121794303Y-104599334D01*
X121735784Y-104497975D01*
X121653025Y-104415216D01*
X121551666Y-104356697D01*
X121464189Y-104333257D01*
X122033350Y-103764095D01*
X122033350Y-103764094D01*
X122008248Y-103745857D01*
X121840158Y-103660210D01*
X121840156Y-103660209D01*
X121660745Y-103601916D01*
X121474418Y-103572405D01*
X121285772Y-103572405D01*
X121099444Y-103601916D01*
X120920033Y-103660209D01*
X120920031Y-103660210D01*
X120751939Y-103745858D01*
X120751934Y-103745862D01*
X120726838Y-103764093D01*
X120726838Y-103764096D01*
X121296001Y-104333257D01*
X121208524Y-104356697D01*
X121107165Y-104415216D01*
X121024406Y-104497975D01*
X120965887Y-104599334D01*
X120942447Y-104686810D01*
X120373286Y-104117648D01*
X120373283Y-104117648D01*
X120355052Y-104142744D01*
X120355048Y-104142749D01*
X120269400Y-104310841D01*
X120269399Y-104310843D01*
X120211106Y-104490254D01*
X120181595Y-104676581D01*
X120181595Y-104865228D01*
X120211106Y-105051555D01*
X120269399Y-105230966D01*
X120269400Y-105230968D01*
X120355047Y-105399058D01*
X120373284Y-105424160D01*
X120373285Y-105424160D01*
X120942447Y-104854998D01*
X120965887Y-104942476D01*
X121024406Y-105043835D01*
X121107165Y-105126594D01*
X121208524Y-105185113D01*
X121296000Y-105208552D01*
X120726838Y-105777713D01*
X120726838Y-105777714D01*
X120750499Y-105794905D01*
X117157095Y-105794905D01*
X117157095Y-105660909D01*
X117176780Y-105593870D01*
X117193414Y-105573228D01*
X117214641Y-105552001D01*
X117325572Y-105399318D01*
X117411252Y-105231161D01*
X117469572Y-105051672D01*
X117486867Y-104942476D01*
X117499095Y-104865273D01*
X117499095Y-104676536D01*
X117469572Y-104490141D01*
X117469572Y-104490138D01*
X117411252Y-104310649D01*
X117411249Y-104310645D01*
X117411249Y-104310642D01*
X117410031Y-104307700D01*
X117400595Y-104260255D01*
X117400595Y-101144891D01*
X118807096Y-101144891D01*
X118817589Y-101247602D01*
X118872736Y-101414024D01*
X118872738Y-101414029D01*
X118964779Y-101563250D01*
X119088749Y-101687220D01*
X119237970Y-101779261D01*
X119237975Y-101779263D01*
X119404397Y-101834410D01*
X119404404Y-101834411D01*
X119507114Y-101844904D01*
X120407094Y-101844904D01*
X120407095Y-101844903D01*
X120407095Y-101019905D01*
X118807096Y-101019905D01*
X118807096Y-101144891D01*
X117400595Y-101144891D01*
X117400595Y-100394918D01*
X118807095Y-100394918D01*
X118807095Y-100519905D01*
X120407095Y-100519905D01*
X120407095Y-99694905D01*
X119507123Y-99694905D01*
X119507107Y-99694906D01*
X119404397Y-99705399D01*
X119237975Y-99760546D01*
X119237970Y-99760548D01*
X119088749Y-99852589D01*
X118964779Y-99976559D01*
X118872738Y-100125780D01*
X118872736Y-100125785D01*
X118817589Y-100292207D01*
X118817588Y-100292214D01*
X118807095Y-100394918D01*
X117400595Y-100394918D01*
X117400595Y-99659109D01*
X117420280Y-99592070D01*
X117436914Y-99571428D01*
X117677118Y-99331224D01*
X117738441Y-99297739D01*
X117764799Y-99294905D01*
X122232595Y-99294905D01*
X122299634Y-99314590D01*
G37*
%TD.AperFunction*%
%TA.AperFunction,Conductor*%
G36*
X122320276Y-105357532D02*
G01*
X122353761Y-105418855D01*
X122356595Y-105445213D01*
X122356595Y-105794905D01*
X122009688Y-105794905D01*
X122033350Y-105777713D01*
X122033351Y-105777713D01*
X121464190Y-105208552D01*
X121551666Y-105185113D01*
X121653025Y-105126594D01*
X121735784Y-105043835D01*
X121794303Y-104942476D01*
X121817742Y-104854999D01*
X122320276Y-105357532D01*
G37*
%TD.AperFunction*%
%TD*%
%TA.AperFunction,Conductor*%
%TO.N,BAT_GND*%
G36*
X96696531Y-100314590D02*
G01*
X96742286Y-100367394D01*
X96752230Y-100436552D01*
X96739976Y-100475200D01*
X96694970Y-100563526D01*
X96633971Y-100751258D01*
X96603095Y-100946207D01*
X96603095Y-101143602D01*
X96633971Y-101338551D01*
X96694968Y-101526278D01*
X96784578Y-101702144D01*
X96810552Y-101737893D01*
X96810552Y-101737894D01*
X97374132Y-101174313D01*
X97391170Y-101237898D01*
X97456996Y-101351912D01*
X97550088Y-101445004D01*
X97664102Y-101510830D01*
X97727685Y-101527867D01*
X97164104Y-102091446D01*
X97164105Y-102091447D01*
X97199850Y-102117417D01*
X97199863Y-102117425D01*
X97375721Y-102207031D01*
X97563448Y-102268028D01*
X97758398Y-102298905D01*
X97955792Y-102298905D01*
X98150741Y-102268028D01*
X98338468Y-102207031D01*
X98514336Y-102117421D01*
X98550083Y-102091448D01*
X98550083Y-102091446D01*
X97986505Y-101527867D01*
X98050088Y-101510830D01*
X98164102Y-101445004D01*
X98257194Y-101351912D01*
X98323020Y-101237898D01*
X98340057Y-101174314D01*
X98903636Y-101737893D01*
X98903638Y-101737893D01*
X98929611Y-101702146D01*
X99019221Y-101526278D01*
X99080218Y-101338551D01*
X99111095Y-101143602D01*
X99111095Y-100946207D01*
X99080218Y-100751258D01*
X99019219Y-100563526D01*
X98974214Y-100475200D01*
X98961317Y-100406531D01*
X98987593Y-100341791D01*
X99044699Y-100301533D01*
X99084698Y-100294905D01*
X100033095Y-100294905D01*
X100100134Y-100314590D01*
X100145889Y-100367394D01*
X100157095Y-100418905D01*
X100157095Y-103170905D01*
X100137410Y-103237944D01*
X100084606Y-103283699D01*
X100033095Y-103294905D01*
X95781095Y-103294905D01*
X95714056Y-103275220D01*
X95668301Y-103222416D01*
X95657095Y-103170905D01*
X95657095Y-100418905D01*
X95676780Y-100351866D01*
X95729584Y-100306111D01*
X95781095Y-100294905D01*
X96629492Y-100294905D01*
X96696531Y-100314590D01*
G37*
%TD.AperFunction*%
%TD*%
%TA.AperFunction,Conductor*%
%TO.N,RF_GND*%
G36*
X135364020Y-108415090D02*
G01*
X135409775Y-108467894D01*
X135419719Y-108537052D01*
X135407466Y-108575700D01*
X135325539Y-108736490D01*
X135259848Y-108938665D01*
X135232017Y-109114383D01*
X135226595Y-109148618D01*
X135226595Y-109361192D01*
X135228269Y-109371761D01*
X135258577Y-109563121D01*
X135259849Y-109571148D01*
X135322292Y-109763328D01*
X135325539Y-109773319D01*
X135422046Y-109962725D01*
X135546985Y-110134691D01*
X135697308Y-110285014D01*
X135869277Y-110409955D01*
X135878041Y-110414421D01*
X135928837Y-110462396D01*
X135945631Y-110530217D01*
X135923093Y-110596352D01*
X135878041Y-110635389D01*
X135869277Y-110639854D01*
X135697308Y-110764795D01*
X135546985Y-110915118D01*
X135422046Y-111087084D01*
X135325539Y-111276490D01*
X135259848Y-111478665D01*
X135251971Y-111528402D01*
X135226595Y-111688618D01*
X135226595Y-111901192D01*
X135259849Y-112111148D01*
X135280298Y-112174084D01*
X135325539Y-112313319D01*
X135422046Y-112502725D01*
X135546985Y-112674691D01*
X135697308Y-112825014D01*
X135869277Y-112949955D01*
X135878041Y-112954421D01*
X135928837Y-113002396D01*
X135945631Y-113070217D01*
X135923093Y-113136352D01*
X135878041Y-113175389D01*
X135869277Y-113179854D01*
X135697308Y-113304795D01*
X135546985Y-113455118D01*
X135422046Y-113627084D01*
X135325539Y-113816490D01*
X135259848Y-114018665D01*
X135228386Y-114217307D01*
X135226595Y-114228618D01*
X135226595Y-114441192D01*
X135259849Y-114651148D01*
X135267301Y-114674084D01*
X135325539Y-114853319D01*
X135422046Y-115042725D01*
X135546985Y-115214691D01*
X135697308Y-115365014D01*
X135869277Y-115489955D01*
X135878041Y-115494421D01*
X135928837Y-115542396D01*
X135945631Y-115610217D01*
X135923093Y-115676352D01*
X135878041Y-115715389D01*
X135869277Y-115719854D01*
X135697308Y-115844795D01*
X135546985Y-115995118D01*
X135422046Y-116167084D01*
X135325539Y-116356490D01*
X135259848Y-116558665D01*
X135241568Y-116674082D01*
X135226595Y-116768618D01*
X135226595Y-116981192D01*
X135259849Y-117191148D01*
X135319179Y-117373747D01*
X135325539Y-117393319D01*
X135422046Y-117582725D01*
X135546985Y-117754691D01*
X135697308Y-117905014D01*
X135869274Y-118029953D01*
X135869276Y-118029954D01*
X135869279Y-118029956D01*
X136058683Y-118126462D01*
X136260852Y-118192151D01*
X136470808Y-118225405D01*
X136470809Y-118225405D01*
X136683381Y-118225405D01*
X136683382Y-118225405D01*
X136893338Y-118192151D01*
X137095507Y-118126462D01*
X137284911Y-118029956D01*
X137351490Y-117981584D01*
X137456881Y-117905014D01*
X137456883Y-117905011D01*
X137456887Y-117905009D01*
X137607199Y-117754697D01*
X137607201Y-117754693D01*
X137607204Y-117754691D01*
X137732143Y-117582725D01*
X137732142Y-117582725D01*
X137732146Y-117582721D01*
X137736609Y-117573959D01*
X137784583Y-117523164D01*
X137852403Y-117506368D01*
X137918539Y-117528904D01*
X137957581Y-117573961D01*
X137962046Y-117582725D01*
X138086985Y-117754691D01*
X138237308Y-117905014D01*
X138409274Y-118029953D01*
X138409276Y-118029954D01*
X138409279Y-118029956D01*
X138537728Y-118095404D01*
X138569295Y-118111488D01*
X138620091Y-118159463D01*
X138637000Y-118221973D01*
X138637000Y-127170405D01*
X138617315Y-127237444D01*
X138564511Y-127283199D01*
X138513000Y-127294405D01*
X130785900Y-127294405D01*
X130718861Y-127274720D01*
X130673106Y-127221916D01*
X130661901Y-127169875D01*
X130686989Y-121297563D01*
X130706960Y-121230611D01*
X130759959Y-121185083D01*
X130829159Y-121175435D01*
X130876086Y-121192558D01*
X130898606Y-121206449D01*
X130898613Y-121206452D01*
X131059488Y-121259760D01*
X131158778Y-121269904D01*
X131682095Y-121269904D01*
X131705403Y-121269904D01*
X131705417Y-121269903D01*
X131804702Y-121259760D01*
X131965576Y-121206452D01*
X131965587Y-121206447D01*
X132109823Y-121117480D01*
X132109827Y-121117477D01*
X132229667Y-120997637D01*
X132229670Y-120997633D01*
X132318637Y-120853397D01*
X132318642Y-120853386D01*
X132371950Y-120692511D01*
X132382094Y-120593227D01*
X132382095Y-120593214D01*
X132382095Y-120544905D01*
X131682095Y-120544905D01*
X131682095Y-121269904D01*
X131158778Y-121269904D01*
X131182095Y-121269903D01*
X131182095Y-120418905D01*
X131201780Y-120351866D01*
X131254584Y-120306111D01*
X131306095Y-120294905D01*
X131432095Y-120294905D01*
X131432095Y-120168905D01*
X131451780Y-120101866D01*
X131504584Y-120056111D01*
X131556095Y-120044905D01*
X132382094Y-120044905D01*
X132382094Y-119996597D01*
X132382093Y-119996582D01*
X132371950Y-119897297D01*
X132318642Y-119736423D01*
X132318637Y-119736412D01*
X132229670Y-119592176D01*
X132229667Y-119592172D01*
X132109826Y-119472331D01*
X132057416Y-119440004D01*
X132010692Y-119388056D01*
X131999471Y-119319093D01*
X132023249Y-119260153D01*
X132028378Y-119253302D01*
X132078673Y-119118454D01*
X132085082Y-119058844D01*
X132085081Y-118340967D01*
X132078673Y-118281356D01*
X132078673Y-118281355D01*
X132047486Y-118197738D01*
X132045297Y-118167129D01*
X132040930Y-118136758D01*
X132042827Y-118132602D01*
X132042502Y-118128046D01*
X132057208Y-118101113D01*
X132069955Y-118073202D01*
X132073797Y-118070732D01*
X132075987Y-118066723D01*
X132102917Y-118052018D01*
X132128733Y-118035428D01*
X132134935Y-118034536D01*
X132137311Y-118033239D01*
X132163668Y-118030405D01*
X132316278Y-118030405D01*
X132363728Y-118039843D01*
X132423598Y-118064642D01*
X132578248Y-118095404D01*
X132578251Y-118095405D01*
X132578253Y-118095405D01*
X132735939Y-118095405D01*
X132735940Y-118095404D01*
X132890592Y-118064642D01*
X133036274Y-118004299D01*
X133167384Y-117916694D01*
X133278884Y-117805194D01*
X133366489Y-117674084D01*
X133426832Y-117528402D01*
X133457595Y-117373747D01*
X133457595Y-117216063D01*
X133457595Y-117216060D01*
X133457594Y-117216058D01*
X133426833Y-117061415D01*
X133426832Y-117061408D01*
X133393606Y-116981192D01*
X133366491Y-116915730D01*
X133366489Y-116915727D01*
X133366489Y-116915726D01*
X133331789Y-116863794D01*
X133310911Y-116797120D01*
X133329395Y-116729740D01*
X133331771Y-116726041D01*
X133366489Y-116674084D01*
X133426832Y-116528402D01*
X133457595Y-116373747D01*
X133457595Y-116216063D01*
X133457595Y-116216060D01*
X133457594Y-116216058D01*
X133447852Y-116167084D01*
X133426832Y-116061408D01*
X133392899Y-115979486D01*
X133366492Y-115915732D01*
X133366485Y-115915719D01*
X133278884Y-115784616D01*
X133278881Y-115784612D01*
X133167387Y-115673118D01*
X133167383Y-115673115D01*
X133036280Y-115585514D01*
X133036267Y-115585507D01*
X132890596Y-115525169D01*
X132890584Y-115525166D01*
X132735940Y-115494405D01*
X132735937Y-115494405D01*
X132578253Y-115494405D01*
X132578250Y-115494405D01*
X132423605Y-115525166D01*
X132423597Y-115525168D01*
X132394828Y-115537084D01*
X132363728Y-115549966D01*
X132355553Y-115551592D01*
X132351213Y-115554382D01*
X132316278Y-115559405D01*
X132163134Y-115559405D01*
X132096095Y-115539720D01*
X132050340Y-115486916D01*
X132040396Y-115417758D01*
X132046952Y-115392071D01*
X132078179Y-115308347D01*
X132078180Y-115308343D01*
X132084581Y-115248815D01*
X132084582Y-115248798D01*
X132084582Y-115139905D01*
X130713297Y-115139905D01*
X130715433Y-114639905D01*
X132084582Y-114639905D01*
X132084582Y-114531011D01*
X132084581Y-114530994D01*
X132078180Y-114471466D01*
X132078179Y-114471461D01*
X132074740Y-114462241D01*
X132069754Y-114392550D01*
X132103238Y-114331226D01*
X132164560Y-114297739D01*
X132190921Y-114294905D01*
X132657095Y-114294905D01*
X132657095Y-111294905D01*
X132057692Y-111294905D01*
X131990653Y-111275220D01*
X131970011Y-111258586D01*
X131293914Y-110582489D01*
X131279210Y-110555561D01*
X131262618Y-110529743D01*
X131261726Y-110523542D01*
X131260429Y-110521166D01*
X131257595Y-110494808D01*
X131257595Y-110464559D01*
X131277280Y-110397520D01*
X131330084Y-110351765D01*
X131399242Y-110341821D01*
X131424922Y-110348375D01*
X131505412Y-110378396D01*
X131565022Y-110384805D01*
X132757030Y-110384804D01*
X132824069Y-110404489D01*
X132869824Y-110457292D01*
X132878647Y-110484612D01*
X132887356Y-110528396D01*
X132887359Y-110528406D01*
X132947697Y-110674077D01*
X132947704Y-110674090D01*
X133035305Y-110805193D01*
X133035308Y-110805197D01*
X133146802Y-110916691D01*
X133146806Y-110916694D01*
X133277909Y-111004295D01*
X133277922Y-111004302D01*
X133415790Y-111061408D01*
X133423598Y-111064642D01*
X133536421Y-111087084D01*
X133578248Y-111095404D01*
X133578251Y-111095405D01*
X133578253Y-111095405D01*
X133735939Y-111095405D01*
X133735940Y-111095404D01*
X133890592Y-111064642D01*
X134036274Y-111004299D01*
X134167384Y-110916694D01*
X134278884Y-110805194D01*
X134366489Y-110674084D01*
X134426832Y-110528402D01*
X134457595Y-110373747D01*
X134457595Y-110216063D01*
X134457595Y-110216060D01*
X134457594Y-110216058D01*
X134441409Y-110134691D01*
X134426832Y-110061408D01*
X134415532Y-110034126D01*
X134366492Y-109915732D01*
X134366485Y-109915719D01*
X134278494Y-109784031D01*
X134259628Y-109723779D01*
X134258657Y-109723907D01*
X134257923Y-109718334D01*
X134257616Y-109717353D01*
X134257602Y-109715901D01*
X134257596Y-109715850D01*
X134257596Y-109715848D01*
X134216672Y-109563121D01*
X134192608Y-109521441D01*
X134176136Y-109453543D01*
X134198988Y-109387516D01*
X134212310Y-109371767D01*
X134278884Y-109305194D01*
X134366489Y-109174084D01*
X134426832Y-109028402D01*
X134457595Y-108873747D01*
X134457595Y-108716063D01*
X134457595Y-108716060D01*
X134457594Y-108716058D01*
X134439171Y-108623441D01*
X134426832Y-108561408D01*
X134426827Y-108561397D01*
X134425064Y-108555581D01*
X134427815Y-108554746D01*
X134421592Y-108497546D01*
X134452786Y-108435027D01*
X134512829Y-108399297D01*
X134543650Y-108395405D01*
X135296981Y-108395405D01*
X135364020Y-108415090D01*
G37*
%TD.AperFunction*%
%TA.AperFunction,Conductor*%
G36*
X184371170Y-114527898D02*
G01*
X184436996Y-114641912D01*
X184530088Y-114735004D01*
X184644102Y-114800830D01*
X184707685Y-114817867D01*
X184075377Y-115450174D01*
X184075377Y-115450175D01*
X184129547Y-115489531D01*
X184129546Y-115489531D01*
X184138590Y-115494139D01*
X184189387Y-115542113D01*
X184206182Y-115609934D01*
X184183645Y-115676069D01*
X184138594Y-115715107D01*
X184129277Y-115719854D01*
X183957308Y-115844795D01*
X183806985Y-115995118D01*
X183682044Y-116167087D01*
X183677579Y-116175851D01*
X183629604Y-116226647D01*
X183561783Y-116243441D01*
X183495648Y-116220903D01*
X183456611Y-116175851D01*
X183452145Y-116167087D01*
X183327204Y-115995118D01*
X183176881Y-115844795D01*
X183004915Y-115719856D01*
X183004210Y-115719496D01*
X182996149Y-115715390D01*
X182945354Y-115667417D01*
X182928558Y-115599597D01*
X182951094Y-115533461D01*
X182996149Y-115494420D01*
X183004911Y-115489956D01*
X183059667Y-115450174D01*
X183176881Y-115365014D01*
X183176883Y-115365011D01*
X183176887Y-115365009D01*
X183327199Y-115214697D01*
X183327201Y-115214693D01*
X183327204Y-115214691D01*
X183412985Y-115096622D01*
X183452146Y-115042721D01*
X183456888Y-115033413D01*
X183504858Y-114982616D01*
X183572678Y-114965816D01*
X183638814Y-114988350D01*
X183677858Y-115033405D01*
X183682468Y-115042452D01*
X183721823Y-115096621D01*
X184354131Y-114464312D01*
X184371170Y-114527898D01*
G37*
%TD.AperFunction*%
%TA.AperFunction,Conductor*%
G36*
X185952365Y-115096622D02*
G01*
X185952365Y-115096621D01*
X185991717Y-115042460D01*
X185996327Y-115033412D01*
X186044300Y-114982614D01*
X186112120Y-114965817D01*
X186178256Y-114988352D01*
X186217299Y-115033409D01*
X186222044Y-115042722D01*
X186346985Y-115214691D01*
X186497308Y-115365014D01*
X186669277Y-115489955D01*
X186678041Y-115494421D01*
X186728837Y-115542396D01*
X186745631Y-115610217D01*
X186723093Y-115676352D01*
X186678041Y-115715389D01*
X186669277Y-115719854D01*
X186497308Y-115844795D01*
X186346985Y-115995118D01*
X186222044Y-116167087D01*
X186217579Y-116175851D01*
X186169604Y-116226647D01*
X186101783Y-116243441D01*
X186035648Y-116220903D01*
X185996611Y-116175851D01*
X185992145Y-116167087D01*
X185867204Y-115995118D01*
X185716881Y-115844795D01*
X185544912Y-115719854D01*
X185535599Y-115715109D01*
X185484802Y-115667135D01*
X185468007Y-115599314D01*
X185490544Y-115533179D01*
X185535602Y-115494137D01*
X185544650Y-115489527D01*
X185598811Y-115450175D01*
X185598812Y-115450175D01*
X184966503Y-114817867D01*
X185030088Y-114800830D01*
X185144102Y-114735004D01*
X185237194Y-114641912D01*
X185303020Y-114527898D01*
X185320057Y-114464314D01*
X185952365Y-115096622D01*
G37*
%TD.AperFunction*%
%TA.AperFunction,Conductor*%
G36*
X137918539Y-109908904D02*
G01*
X137957581Y-109953961D01*
X137962046Y-109962725D01*
X138086985Y-110134691D01*
X138237308Y-110285014D01*
X138409277Y-110409955D01*
X138418041Y-110414421D01*
X138468837Y-110462396D01*
X138485631Y-110530217D01*
X138463093Y-110596352D01*
X138418041Y-110635389D01*
X138409277Y-110639854D01*
X138237308Y-110764795D01*
X138086985Y-110915118D01*
X137962044Y-111087087D01*
X137957579Y-111095851D01*
X137909604Y-111146647D01*
X137841783Y-111163441D01*
X137775648Y-111140903D01*
X137736611Y-111095851D01*
X137732145Y-111087087D01*
X137607204Y-110915118D01*
X137456881Y-110764795D01*
X137284915Y-110639856D01*
X137284210Y-110639496D01*
X137276149Y-110635390D01*
X137225354Y-110587417D01*
X137208558Y-110519597D01*
X137231094Y-110453461D01*
X137276149Y-110414420D01*
X137284911Y-110409956D01*
X137369668Y-110348377D01*
X137456881Y-110285014D01*
X137456883Y-110285011D01*
X137456887Y-110285009D01*
X137607199Y-110134697D01*
X137607201Y-110134693D01*
X137607204Y-110134691D01*
X137732143Y-109962725D01*
X137732142Y-109962725D01*
X137732146Y-109962721D01*
X137736609Y-109953959D01*
X137784583Y-109903164D01*
X137852403Y-109886368D01*
X137918539Y-109908904D01*
G37*
%TD.AperFunction*%
%TA.AperFunction,Conductor*%
G36*
X140458539Y-109908904D02*
G01*
X140497581Y-109953961D01*
X140502046Y-109962725D01*
X140626985Y-110134691D01*
X140777308Y-110285014D01*
X140949277Y-110409955D01*
X140958041Y-110414421D01*
X141008837Y-110462396D01*
X141025631Y-110530217D01*
X141003093Y-110596352D01*
X140958041Y-110635389D01*
X140949277Y-110639854D01*
X140777308Y-110764795D01*
X140626985Y-110915118D01*
X140502044Y-111087087D01*
X140497579Y-111095851D01*
X140449604Y-111146647D01*
X140381783Y-111163441D01*
X140315648Y-111140903D01*
X140276611Y-111095851D01*
X140272145Y-111087087D01*
X140147204Y-110915118D01*
X139996881Y-110764795D01*
X139824915Y-110639856D01*
X139824210Y-110639496D01*
X139816149Y-110635390D01*
X139765354Y-110587417D01*
X139748558Y-110519597D01*
X139771094Y-110453461D01*
X139816149Y-110414420D01*
X139824911Y-110409956D01*
X139909668Y-110348377D01*
X139996881Y-110285014D01*
X139996883Y-110285011D01*
X139996887Y-110285009D01*
X140147199Y-110134697D01*
X140147201Y-110134693D01*
X140147204Y-110134691D01*
X140272143Y-109962725D01*
X140272142Y-109962725D01*
X140272146Y-109962721D01*
X140276609Y-109953959D01*
X140324583Y-109903164D01*
X140392403Y-109886368D01*
X140458539Y-109908904D01*
G37*
%TD.AperFunction*%
%TA.AperFunction,Conductor*%
G36*
X142998539Y-109908904D02*
G01*
X143037581Y-109953961D01*
X143042046Y-109962725D01*
X143166985Y-110134691D01*
X143317308Y-110285014D01*
X143489277Y-110409955D01*
X143498041Y-110414421D01*
X143548837Y-110462396D01*
X143565631Y-110530217D01*
X143543093Y-110596352D01*
X143498041Y-110635389D01*
X143489277Y-110639854D01*
X143317308Y-110764795D01*
X143166985Y-110915118D01*
X143042044Y-111087087D01*
X143037579Y-111095851D01*
X142989604Y-111146647D01*
X142921783Y-111163441D01*
X142855648Y-111140903D01*
X142816611Y-111095851D01*
X142812145Y-111087087D01*
X142687204Y-110915118D01*
X142536881Y-110764795D01*
X142364915Y-110639856D01*
X142364210Y-110639496D01*
X142356149Y-110635390D01*
X142305354Y-110587417D01*
X142288558Y-110519597D01*
X142311094Y-110453461D01*
X142356149Y-110414420D01*
X142364911Y-110409956D01*
X142449668Y-110348377D01*
X142536881Y-110285014D01*
X142536883Y-110285011D01*
X142536887Y-110285009D01*
X142687199Y-110134697D01*
X142687201Y-110134693D01*
X142687204Y-110134691D01*
X142812143Y-109962725D01*
X142812142Y-109962725D01*
X142812146Y-109962721D01*
X142816609Y-109953959D01*
X142864583Y-109903164D01*
X142932403Y-109886368D01*
X142998539Y-109908904D01*
G37*
%TD.AperFunction*%
%TA.AperFunction,Conductor*%
G36*
X145538539Y-109908904D02*
G01*
X145577581Y-109953961D01*
X145582046Y-109962725D01*
X145706985Y-110134691D01*
X145857308Y-110285014D01*
X146029277Y-110409955D01*
X146038041Y-110414421D01*
X146088837Y-110462396D01*
X146105631Y-110530217D01*
X146083093Y-110596352D01*
X146038041Y-110635389D01*
X146029277Y-110639854D01*
X145857308Y-110764795D01*
X145706985Y-110915118D01*
X145582044Y-111087087D01*
X145577579Y-111095851D01*
X145529604Y-111146647D01*
X145461783Y-111163441D01*
X145395648Y-111140903D01*
X145356611Y-111095851D01*
X145352145Y-111087087D01*
X145227204Y-110915118D01*
X145076881Y-110764795D01*
X144904915Y-110639856D01*
X144904210Y-110639496D01*
X144896149Y-110635390D01*
X144845354Y-110587417D01*
X144828558Y-110519597D01*
X144851094Y-110453461D01*
X144896149Y-110414420D01*
X144904911Y-110409956D01*
X144989668Y-110348377D01*
X145076881Y-110285014D01*
X145076883Y-110285011D01*
X145076887Y-110285009D01*
X145227199Y-110134697D01*
X145227201Y-110134693D01*
X145227204Y-110134691D01*
X145352143Y-109962725D01*
X145352142Y-109962725D01*
X145352146Y-109962721D01*
X145356609Y-109953959D01*
X145404583Y-109903164D01*
X145472403Y-109886368D01*
X145538539Y-109908904D01*
G37*
%TD.AperFunction*%
%TA.AperFunction,Conductor*%
G36*
X148078539Y-109908904D02*
G01*
X148117581Y-109953961D01*
X148122046Y-109962725D01*
X148246985Y-110134691D01*
X148397308Y-110285014D01*
X148569277Y-110409955D01*
X148578041Y-110414421D01*
X148628837Y-110462396D01*
X148645631Y-110530217D01*
X148623093Y-110596352D01*
X148578041Y-110635389D01*
X148569277Y-110639854D01*
X148397308Y-110764795D01*
X148246985Y-110915118D01*
X148122044Y-111087087D01*
X148117579Y-111095851D01*
X148069604Y-111146647D01*
X148001783Y-111163441D01*
X147935648Y-111140903D01*
X147896611Y-111095851D01*
X147892145Y-111087087D01*
X147767204Y-110915118D01*
X147616881Y-110764795D01*
X147444915Y-110639856D01*
X147444210Y-110639496D01*
X147436149Y-110635390D01*
X147385354Y-110587417D01*
X147368558Y-110519597D01*
X147391094Y-110453461D01*
X147436149Y-110414420D01*
X147444911Y-110409956D01*
X147529668Y-110348377D01*
X147616881Y-110285014D01*
X147616883Y-110285011D01*
X147616887Y-110285009D01*
X147767199Y-110134697D01*
X147767201Y-110134693D01*
X147767204Y-110134691D01*
X147892143Y-109962725D01*
X147892142Y-109962725D01*
X147892146Y-109962721D01*
X147896609Y-109953959D01*
X147944583Y-109903164D01*
X148012403Y-109886368D01*
X148078539Y-109908904D01*
G37*
%TD.AperFunction*%
%TA.AperFunction,Conductor*%
G36*
X148811170Y-106907898D02*
G01*
X148876996Y-107021912D01*
X148970088Y-107115004D01*
X149084102Y-107180830D01*
X149147685Y-107197867D01*
X148515377Y-107830174D01*
X148515377Y-107830175D01*
X148569547Y-107869531D01*
X148569546Y-107869531D01*
X148578590Y-107874139D01*
X148629387Y-107922113D01*
X148646182Y-107989934D01*
X148623645Y-108056069D01*
X148578594Y-108095107D01*
X148569277Y-108099854D01*
X148397308Y-108224795D01*
X148246985Y-108375118D01*
X148122044Y-108547087D01*
X148117579Y-108555851D01*
X148069604Y-108606647D01*
X148001783Y-108623441D01*
X147935648Y-108600903D01*
X147896611Y-108555851D01*
X147892145Y-108547087D01*
X147767204Y-108375118D01*
X147616881Y-108224795D01*
X147444915Y-108099856D01*
X147444210Y-108099496D01*
X147436149Y-108095390D01*
X147385354Y-108047417D01*
X147368558Y-107979597D01*
X147391094Y-107913461D01*
X147436149Y-107874420D01*
X147444911Y-107869956D01*
X147509962Y-107822694D01*
X147616881Y-107745014D01*
X147616883Y-107745011D01*
X147616887Y-107745009D01*
X147767199Y-107594697D01*
X147767201Y-107594693D01*
X147767204Y-107594691D01*
X147852985Y-107476622D01*
X147892146Y-107422721D01*
X147896888Y-107413413D01*
X147944858Y-107362616D01*
X148012678Y-107345816D01*
X148078814Y-107368350D01*
X148117858Y-107413405D01*
X148122468Y-107422452D01*
X148161823Y-107476621D01*
X148794132Y-106844313D01*
X148811170Y-106907898D01*
G37*
%TD.AperFunction*%
%TA.AperFunction,Conductor*%
G36*
X150392365Y-107476622D02*
G01*
X150392365Y-107476621D01*
X150431717Y-107422460D01*
X150436327Y-107413412D01*
X150484300Y-107362614D01*
X150552120Y-107345817D01*
X150618256Y-107368352D01*
X150657299Y-107413409D01*
X150662044Y-107422722D01*
X150786985Y-107594691D01*
X150937308Y-107745014D01*
X151109277Y-107869955D01*
X151118041Y-107874421D01*
X151168837Y-107922396D01*
X151185631Y-107990217D01*
X151163093Y-108056352D01*
X151118041Y-108095389D01*
X151109277Y-108099854D01*
X150937308Y-108224795D01*
X150786985Y-108375118D01*
X150662044Y-108547087D01*
X150657579Y-108555851D01*
X150609604Y-108606647D01*
X150541783Y-108623441D01*
X150475648Y-108600903D01*
X150436611Y-108555851D01*
X150432145Y-108547087D01*
X150307204Y-108375118D01*
X150156881Y-108224795D01*
X149984912Y-108099854D01*
X149975599Y-108095109D01*
X149924802Y-108047135D01*
X149908007Y-107979314D01*
X149930544Y-107913179D01*
X149975602Y-107874137D01*
X149984650Y-107869527D01*
X150038811Y-107830175D01*
X150038812Y-107830175D01*
X149406503Y-107197867D01*
X149470088Y-107180830D01*
X149584102Y-107115004D01*
X149677194Y-107021912D01*
X149743020Y-106907898D01*
X149760057Y-106844313D01*
X150392365Y-107476622D01*
G37*
%TD.AperFunction*%
%TA.AperFunction,Conductor*%
G36*
X148078539Y-104828904D02*
G01*
X148117581Y-104873961D01*
X148122046Y-104882725D01*
X148246985Y-105054691D01*
X148397308Y-105205014D01*
X148569274Y-105329953D01*
X148569276Y-105329954D01*
X148569279Y-105329956D01*
X148578588Y-105334699D01*
X148629385Y-105382671D01*
X148646182Y-105450492D01*
X148623647Y-105516627D01*
X148578600Y-105555665D01*
X148569541Y-105560281D01*
X148569535Y-105560285D01*
X148515377Y-105599632D01*
X148515377Y-105599633D01*
X149147686Y-106231942D01*
X149084102Y-106248980D01*
X148970088Y-106314806D01*
X148876996Y-106407898D01*
X148811170Y-106521912D01*
X148794132Y-106585496D01*
X148161823Y-105953187D01*
X148161822Y-105953187D01*
X148122475Y-106007345D01*
X148122471Y-106007351D01*
X148117855Y-106016410D01*
X148069876Y-106067202D01*
X148002054Y-106083992D01*
X147935921Y-106061448D01*
X147896889Y-106016398D01*
X147892146Y-106007089D01*
X147892144Y-106007086D01*
X147892143Y-106007084D01*
X147767204Y-105835118D01*
X147616881Y-105684795D01*
X147444915Y-105559856D01*
X147444210Y-105559496D01*
X147436149Y-105555390D01*
X147385354Y-105507417D01*
X147368558Y-105439597D01*
X147391094Y-105373461D01*
X147436149Y-105334420D01*
X147444911Y-105329956D01*
X147523063Y-105273176D01*
X147616881Y-105205014D01*
X147616883Y-105205011D01*
X147616887Y-105205009D01*
X147767199Y-105054697D01*
X147767201Y-105054693D01*
X147767204Y-105054691D01*
X147892143Y-104882725D01*
X147892142Y-104882725D01*
X147892146Y-104882721D01*
X147896609Y-104873959D01*
X147944583Y-104823164D01*
X148012403Y-104806368D01*
X148078539Y-104828904D01*
G37*
%TD.AperFunction*%
%TA.AperFunction,Conductor*%
G36*
X138593039Y-68315090D02*
G01*
X138638794Y-68367894D01*
X138650000Y-68419405D01*
X138650000Y-75917005D01*
X138630315Y-75984044D01*
X138577511Y-76029799D01*
X138526000Y-76041005D01*
X133121497Y-76041005D01*
X133013084Y-76062570D01*
X133013083Y-76062570D01*
X132986165Y-76067925D01*
X132858684Y-76120729D01*
X132743948Y-76197392D01*
X127988281Y-80953059D01*
X127911621Y-81067790D01*
X127911618Y-81067796D01*
X127911595Y-81067853D01*
X127911574Y-81067878D01*
X127908749Y-81073165D01*
X127907746Y-81072629D01*
X127899051Y-81083420D01*
X127890745Y-81101608D01*
X127877576Y-81110071D01*
X127867756Y-81122258D01*
X127848787Y-81128572D01*
X127831967Y-81139382D01*
X127804414Y-81143343D01*
X127801463Y-81144326D01*
X127797032Y-81144405D01*
X127662030Y-81144405D01*
X127594991Y-81124720D01*
X127593185Y-81123538D01*
X127536274Y-81085511D01*
X127536267Y-81085507D01*
X127390596Y-81025169D01*
X127390584Y-81025166D01*
X127235940Y-80994405D01*
X127235937Y-80994405D01*
X127078253Y-80994405D01*
X127078250Y-80994405D01*
X126923605Y-81025166D01*
X126923593Y-81025169D01*
X126777922Y-81085507D01*
X126777909Y-81085514D01*
X126646806Y-81173115D01*
X126646802Y-81173118D01*
X126561335Y-81258586D01*
X126500012Y-81292071D01*
X126473654Y-81294905D01*
X126157095Y-81294905D01*
X126157095Y-83810152D01*
X126137410Y-83877191D01*
X126084606Y-83922946D01*
X126015448Y-83932890D01*
X125967998Y-83915691D01*
X125915581Y-83883359D01*
X125915576Y-83883357D01*
X125754701Y-83830049D01*
X125655417Y-83819905D01*
X125632095Y-83819905D01*
X125632095Y-85769904D01*
X125655403Y-85769904D01*
X125655415Y-85769903D01*
X125694992Y-85765860D01*
X125763685Y-85778629D01*
X125814570Y-85826509D01*
X125831595Y-85889218D01*
X125831595Y-89983294D01*
X125831595Y-90156516D01*
X125836338Y-90186462D01*
X125857465Y-90319856D01*
X125858693Y-90327606D01*
X125908584Y-90481154D01*
X125912223Y-90492352D01*
X125937762Y-90542476D01*
X125990863Y-90646693D01*
X126092681Y-90786833D01*
X126092683Y-90786835D01*
X126120776Y-90814928D01*
X126154261Y-90876251D01*
X126157095Y-90902609D01*
X126157095Y-91492459D01*
X126137410Y-91559498D01*
X126084606Y-91605253D01*
X126015448Y-91615197D01*
X125967999Y-91597998D01*
X125826223Y-91510550D01*
X125826214Y-91510546D01*
X125659792Y-91455399D01*
X125659785Y-91455398D01*
X125557081Y-91444905D01*
X125432095Y-91444905D01*
X125432095Y-93170905D01*
X125412410Y-93237944D01*
X125359606Y-93283699D01*
X125308095Y-93294905D01*
X125182095Y-93294905D01*
X125182095Y-93420905D01*
X125162410Y-93487944D01*
X125109606Y-93533699D01*
X125058095Y-93544905D01*
X124107096Y-93544905D01*
X124107096Y-94173805D01*
X124087411Y-94240844D01*
X124034607Y-94286599D01*
X123983096Y-94297805D01*
X119777966Y-94297805D01*
X119710927Y-94278120D01*
X119690285Y-94261486D01*
X117573717Y-92144918D01*
X124107095Y-92144918D01*
X124107095Y-93044905D01*
X124932095Y-93044905D01*
X124932095Y-91444905D01*
X124807122Y-91444905D01*
X124807107Y-91444906D01*
X124704397Y-91455399D01*
X124537975Y-91510546D01*
X124537970Y-91510548D01*
X124388749Y-91602589D01*
X124264779Y-91726559D01*
X124172738Y-91875780D01*
X124172736Y-91875785D01*
X124117589Y-92042207D01*
X124117588Y-92042214D01*
X124107095Y-92144918D01*
X117573717Y-92144918D01*
X117436914Y-92008115D01*
X117403429Y-91946792D01*
X117400595Y-91920434D01*
X117400595Y-90781553D01*
X117410035Y-90734097D01*
X117411244Y-90731176D01*
X117411252Y-90731161D01*
X117469572Y-90551672D01*
X117484915Y-90454797D01*
X117499095Y-90365273D01*
X117499095Y-90176581D01*
X120181595Y-90176581D01*
X120181595Y-90365228D01*
X120211106Y-90551555D01*
X120269399Y-90730966D01*
X120269400Y-90730968D01*
X120355047Y-90899058D01*
X120373284Y-90924160D01*
X120373285Y-90924160D01*
X120942447Y-90354998D01*
X120965887Y-90442476D01*
X121024406Y-90543835D01*
X121107165Y-90626594D01*
X121208524Y-90685113D01*
X121296000Y-90708552D01*
X120726838Y-91277713D01*
X120726838Y-91277714D01*
X120751939Y-91295951D01*
X120920030Y-91381599D01*
X120920033Y-91381600D01*
X121099444Y-91439893D01*
X121285772Y-91469405D01*
X121474418Y-91469405D01*
X121660745Y-91439893D01*
X121840156Y-91381600D01*
X121840159Y-91381599D01*
X122008246Y-91295953D01*
X122033350Y-91277713D01*
X122033351Y-91277713D01*
X121464190Y-90708552D01*
X121551666Y-90685113D01*
X121653025Y-90626594D01*
X121735784Y-90543835D01*
X121794303Y-90442476D01*
X121817742Y-90354999D01*
X122386903Y-90924161D01*
X122386903Y-90924160D01*
X122405143Y-90899056D01*
X122490789Y-90730969D01*
X122490790Y-90730966D01*
X122549083Y-90551555D01*
X122578595Y-90365228D01*
X122578595Y-90176581D01*
X122549083Y-89990254D01*
X122490790Y-89810843D01*
X122490789Y-89810840D01*
X122405141Y-89642749D01*
X122386904Y-89617648D01*
X122386903Y-89617648D01*
X121817742Y-90186809D01*
X121794303Y-90099334D01*
X121735784Y-89997975D01*
X121653025Y-89915216D01*
X121551666Y-89856697D01*
X121464189Y-89833257D01*
X122033350Y-89264095D01*
X122033350Y-89264094D01*
X122008248Y-89245857D01*
X121840158Y-89160210D01*
X121840156Y-89160209D01*
X121660745Y-89101916D01*
X121474418Y-89072405D01*
X121285772Y-89072405D01*
X121099444Y-89101916D01*
X120920033Y-89160209D01*
X120920031Y-89160210D01*
X120751939Y-89245858D01*
X120751934Y-89245862D01*
X120726838Y-89264093D01*
X120726838Y-89264096D01*
X121296001Y-89833257D01*
X121208524Y-89856697D01*
X121107165Y-89915216D01*
X121024406Y-89997975D01*
X120965887Y-90099334D01*
X120942447Y-90186810D01*
X120373286Y-89617648D01*
X120373283Y-89617648D01*
X120355052Y-89642744D01*
X120355048Y-89642749D01*
X120269400Y-89810841D01*
X120269399Y-89810843D01*
X120211106Y-89990254D01*
X120181595Y-90176581D01*
X117499095Y-90176581D01*
X117499095Y-90176536D01*
X117476442Y-90033514D01*
X117469572Y-89990138D01*
X117411252Y-89810649D01*
X117325572Y-89642492D01*
X117214641Y-89489809D01*
X117081191Y-89356359D01*
X116928508Y-89245428D01*
X116760351Y-89159748D01*
X116580862Y-89101428D01*
X116580860Y-89101427D01*
X116580858Y-89101427D01*
X116394463Y-89071905D01*
X116394458Y-89071905D01*
X116205732Y-89071905D01*
X116205727Y-89071905D01*
X116019331Y-89101427D01*
X115839836Y-89159749D01*
X115671681Y-89245428D01*
X115617744Y-89284616D01*
X115518999Y-89356359D01*
X115518997Y-89356361D01*
X115518996Y-89356361D01*
X115385551Y-89489806D01*
X115385551Y-89489807D01*
X115385549Y-89489809D01*
X115381411Y-89495505D01*
X115326079Y-89538169D01*
X115256466Y-89544145D01*
X115194672Y-89511537D01*
X115160317Y-89450698D01*
X115157095Y-89422616D01*
X115157095Y-85093227D01*
X124432096Y-85093227D01*
X124442239Y-85192512D01*
X124495547Y-85353386D01*
X124495552Y-85353397D01*
X124584519Y-85497633D01*
X124584522Y-85497637D01*
X124704362Y-85617477D01*
X124704366Y-85617480D01*
X124848602Y-85706447D01*
X124848613Y-85706452D01*
X125009488Y-85759760D01*
X125108778Y-85769904D01*
X125132095Y-85769903D01*
X125132095Y-85044905D01*
X124432096Y-85044905D01*
X124432096Y-85093227D01*
X115157095Y-85093227D01*
X115157095Y-84496582D01*
X124432095Y-84496582D01*
X124432095Y-84544905D01*
X125132095Y-84544905D01*
X125132095Y-83819904D01*
X125108788Y-83819905D01*
X125108769Y-83819906D01*
X125009487Y-83830049D01*
X124848613Y-83883357D01*
X124848602Y-83883362D01*
X124704366Y-83972329D01*
X124704362Y-83972332D01*
X124584522Y-84092172D01*
X124584519Y-84092176D01*
X124495552Y-84236412D01*
X124495547Y-84236423D01*
X124442239Y-84397298D01*
X124432095Y-84496582D01*
X115157095Y-84496582D01*
X115157095Y-68419405D01*
X115176780Y-68352366D01*
X115229584Y-68306611D01*
X115281095Y-68295405D01*
X138526000Y-68295405D01*
X138593039Y-68315090D01*
G37*
%TD.AperFunction*%
%TA.AperFunction,Conductor*%
G36*
X134209575Y-83897065D02*
G01*
X134295444Y-83982934D01*
X134295450Y-83982939D01*
X135635190Y-85322679D01*
X135635200Y-85322690D01*
X135639530Y-85327020D01*
X135639531Y-85327021D01*
X135751335Y-85438825D01*
X135751337Y-85438826D01*
X135751341Y-85438829D01*
X135806031Y-85470404D01*
X135806036Y-85470406D01*
X135888260Y-85517879D01*
X135888261Y-85517879D01*
X135888266Y-85517882D01*
X136040993Y-85558805D01*
X136040994Y-85558805D01*
X136043187Y-85558805D01*
X136044969Y-85559328D01*
X136049053Y-85559866D01*
X136048969Y-85560502D01*
X136110226Y-85578490D01*
X136130868Y-85595124D01*
X136447686Y-85911942D01*
X136384102Y-85928980D01*
X136270088Y-85994806D01*
X136176996Y-86087898D01*
X136111170Y-86201912D01*
X136094132Y-86265496D01*
X135461823Y-85633187D01*
X135461822Y-85633187D01*
X135422475Y-85687344D01*
X135325999Y-85876687D01*
X135260337Y-86078774D01*
X135260337Y-86078777D01*
X135227095Y-86288658D01*
X135227095Y-86501151D01*
X135260337Y-86711032D01*
X135260337Y-86711035D01*
X135325999Y-86913122D01*
X135422470Y-87102455D01*
X135461823Y-87156621D01*
X136094132Y-86524313D01*
X136111170Y-86587898D01*
X136176996Y-86701912D01*
X136270088Y-86795004D01*
X136384102Y-86860830D01*
X136447685Y-86877867D01*
X135815377Y-87510174D01*
X135815377Y-87510175D01*
X135869547Y-87549531D01*
X135869546Y-87549531D01*
X135878590Y-87554139D01*
X135929387Y-87602113D01*
X135946182Y-87669934D01*
X135923645Y-87736069D01*
X135878594Y-87775107D01*
X135869277Y-87779854D01*
X135697308Y-87904795D01*
X135546985Y-88055118D01*
X135422046Y-88227084D01*
X135325539Y-88416490D01*
X135259848Y-88618665D01*
X135226595Y-88828618D01*
X135226595Y-89041192D01*
X135234303Y-89089862D01*
X135259848Y-89251145D01*
X135259849Y-89251148D01*
X135264055Y-89264094D01*
X135267757Y-89275485D01*
X135269754Y-89345326D01*
X135233674Y-89405160D01*
X135170973Y-89435989D01*
X135149827Y-89437805D01*
X133447521Y-89437805D01*
X133380482Y-89418120D01*
X133344419Y-89382696D01*
X133278884Y-89284615D01*
X133167387Y-89173118D01*
X133167379Y-89173112D01*
X133129807Y-89148007D01*
X133085001Y-89094395D01*
X133076294Y-89025070D01*
X133106448Y-88962043D01*
X133129807Y-88941803D01*
X133156374Y-88924050D01*
X133167384Y-88916694D01*
X133278884Y-88805194D01*
X133366489Y-88674084D01*
X133426832Y-88528402D01*
X133457595Y-88373747D01*
X133457595Y-88216063D01*
X133457595Y-88216060D01*
X133457594Y-88216058D01*
X133426832Y-88061408D01*
X133386871Y-87964932D01*
X133366492Y-87915732D01*
X133366485Y-87915719D01*
X133278884Y-87784616D01*
X133278881Y-87784612D01*
X133167387Y-87673118D01*
X133167383Y-87673115D01*
X133036280Y-87585514D01*
X133036267Y-87585507D01*
X132890596Y-87525169D01*
X132890584Y-87525166D01*
X132735940Y-87494405D01*
X132735937Y-87494405D01*
X132578253Y-87494405D01*
X132578250Y-87494405D01*
X132423605Y-87525166D01*
X132423593Y-87525169D01*
X132326491Y-87565390D01*
X132257022Y-87572859D01*
X132194543Y-87541583D01*
X132191358Y-87538510D01*
X132117283Y-87464435D01*
X131971701Y-87376427D01*
X131968181Y-87375330D01*
X131809291Y-87325819D01*
X131809289Y-87325818D01*
X131809287Y-87325818D01*
X131759873Y-87321328D01*
X131738711Y-87319405D01*
X131225479Y-87319405D01*
X131154899Y-87325819D01*
X130993307Y-87376172D01*
X130923448Y-87377322D01*
X130864056Y-87340521D01*
X130833988Y-87277452D01*
X130832420Y-87257267D01*
X130835217Y-86602606D01*
X130855188Y-86535654D01*
X130867190Y-86520826D01*
X130870238Y-86516754D01*
X130870241Y-86516752D01*
X130956491Y-86401537D01*
X130978239Y-86343227D01*
X131382895Y-86343227D01*
X131393038Y-86442512D01*
X131446346Y-86603386D01*
X131446351Y-86603397D01*
X131535318Y-86747633D01*
X131535321Y-86747637D01*
X131655161Y-86867477D01*
X131655165Y-86867480D01*
X131799401Y-86956447D01*
X131799412Y-86956452D01*
X131960287Y-87009760D01*
X132059577Y-87019904D01*
X132607894Y-87019904D01*
X132656202Y-87019904D01*
X132656216Y-87019903D01*
X132755501Y-87009760D01*
X132916375Y-86956452D01*
X132916386Y-86956447D01*
X133060622Y-86867480D01*
X133060626Y-86867477D01*
X133180466Y-86747637D01*
X133180469Y-86747633D01*
X133269436Y-86603397D01*
X133269441Y-86603386D01*
X133322749Y-86442511D01*
X133332893Y-86343227D01*
X133332894Y-86343214D01*
X133332894Y-86319905D01*
X132607894Y-86319905D01*
X132607894Y-87019904D01*
X132059577Y-87019904D01*
X132107893Y-87019903D01*
X132107894Y-87019903D01*
X132107894Y-86319905D01*
X131382895Y-86319905D01*
X131382895Y-86343227D01*
X130978239Y-86343227D01*
X131006786Y-86266689D01*
X131013195Y-86207079D01*
X131013194Y-85882734D01*
X131006786Y-85823123D01*
X130996892Y-85796597D01*
X130956492Y-85688277D01*
X130956488Y-85688270D01*
X130904794Y-85619216D01*
X130880376Y-85553752D01*
X130895227Y-85485479D01*
X130904788Y-85470601D01*
X130956491Y-85401536D01*
X131006786Y-85266688D01*
X131010607Y-85231147D01*
X131037345Y-85166599D01*
X131094737Y-85126751D01*
X131133896Y-85120405D01*
X131417890Y-85120405D01*
X131421576Y-85121487D01*
X131425322Y-85120628D01*
X131454838Y-85131254D01*
X131484929Y-85140090D01*
X131488493Y-85143370D01*
X131491061Y-85144295D01*
X131499979Y-85153942D01*
X131516301Y-85168965D01*
X131520126Y-85173954D01*
X131534926Y-85197949D01*
X131550321Y-85213344D01*
X131555284Y-85219818D01*
X131565047Y-85245108D01*
X131578039Y-85268900D01*
X131577444Y-85277218D01*
X131580448Y-85284999D01*
X131574988Y-85311551D01*
X131573055Y-85338592D01*
X131567723Y-85346888D01*
X131566377Y-85353437D01*
X131558019Y-85361987D01*
X131544557Y-85382936D01*
X131535322Y-85392170D01*
X131535318Y-85392176D01*
X131446351Y-85536412D01*
X131446346Y-85536423D01*
X131393038Y-85697298D01*
X131382894Y-85796582D01*
X131382894Y-85819905D01*
X133332893Y-85819905D01*
X133332893Y-85796597D01*
X133332892Y-85796582D01*
X133322749Y-85697297D01*
X133269441Y-85536423D01*
X133269436Y-85536412D01*
X133180469Y-85392176D01*
X133180466Y-85392172D01*
X133171233Y-85382939D01*
X133137748Y-85321616D01*
X133142732Y-85251924D01*
X133171237Y-85207573D01*
X133180862Y-85197949D01*
X133269897Y-85053602D01*
X133323243Y-84892613D01*
X133333394Y-84793250D01*
X133333393Y-84667447D01*
X133353077Y-84600409D01*
X133405881Y-84554654D01*
X133439736Y-84544712D01*
X133499455Y-84536126D01*
X133637504Y-84495591D01*
X133758543Y-84417803D01*
X133811347Y-84372048D01*
X133905567Y-84263314D01*
X133965338Y-84132437D01*
X133985023Y-84065398D01*
X133985024Y-84065394D01*
X133999156Y-83967098D01*
X134028181Y-83903544D01*
X134086959Y-83865769D01*
X134156828Y-83865769D01*
X134209575Y-83897065D01*
G37*
%TD.AperFunction*%
%TA.AperFunction,Conductor*%
G36*
X137692365Y-87156622D02*
G01*
X137692365Y-87156621D01*
X137731717Y-87102460D01*
X137736327Y-87093412D01*
X137784300Y-87042614D01*
X137852120Y-87025817D01*
X137918256Y-87048352D01*
X137957299Y-87093409D01*
X137962044Y-87102722D01*
X138086985Y-87274691D01*
X138237308Y-87425014D01*
X138409277Y-87549955D01*
X138418041Y-87554421D01*
X138468837Y-87602396D01*
X138485631Y-87670217D01*
X138463093Y-87736352D01*
X138418041Y-87775389D01*
X138409277Y-87779854D01*
X138237308Y-87904795D01*
X138086985Y-88055118D01*
X137962044Y-88227087D01*
X137957579Y-88235851D01*
X137909604Y-88286647D01*
X137841783Y-88303441D01*
X137775648Y-88280903D01*
X137736611Y-88235851D01*
X137732145Y-88227087D01*
X137607204Y-88055118D01*
X137456881Y-87904795D01*
X137284912Y-87779854D01*
X137275599Y-87775109D01*
X137224802Y-87727135D01*
X137208007Y-87659314D01*
X137230544Y-87593179D01*
X137275602Y-87554137D01*
X137284650Y-87549527D01*
X137338811Y-87510175D01*
X137338812Y-87510175D01*
X136706503Y-86877867D01*
X136770088Y-86860830D01*
X136884102Y-86795004D01*
X136977194Y-86701912D01*
X137043020Y-86587898D01*
X137060057Y-86524313D01*
X137692365Y-87156622D01*
G37*
%TD.AperFunction*%
%TA.AperFunction,Conductor*%
G36*
X183638539Y-79428904D02*
G01*
X183677581Y-79473961D01*
X183682046Y-79482725D01*
X183806985Y-79654691D01*
X183957308Y-79805014D01*
X184129274Y-79929953D01*
X184129276Y-79929954D01*
X184129279Y-79929956D01*
X184138588Y-79934699D01*
X184189385Y-79982671D01*
X184206182Y-80050492D01*
X184183647Y-80116627D01*
X184138600Y-80155665D01*
X184129541Y-80160281D01*
X184129535Y-80160285D01*
X184075377Y-80199632D01*
X184075377Y-80199633D01*
X184707686Y-80831942D01*
X184644102Y-80848980D01*
X184530088Y-80914806D01*
X184436996Y-81007898D01*
X184371170Y-81121912D01*
X184354132Y-81185496D01*
X183721823Y-80553187D01*
X183721822Y-80553187D01*
X183682475Y-80607345D01*
X183682471Y-80607351D01*
X183677855Y-80616410D01*
X183629876Y-80667202D01*
X183562054Y-80683992D01*
X183495921Y-80661448D01*
X183456889Y-80616398D01*
X183452146Y-80607089D01*
X183452144Y-80607086D01*
X183452143Y-80607084D01*
X183327204Y-80435118D01*
X183176881Y-80284795D01*
X183004915Y-80159856D01*
X182996695Y-80155668D01*
X182996149Y-80155390D01*
X182945354Y-80107417D01*
X182928558Y-80039597D01*
X182951094Y-79973461D01*
X182996149Y-79934420D01*
X183004911Y-79929956D01*
X183026884Y-79913991D01*
X183176881Y-79805014D01*
X183176883Y-79805011D01*
X183176887Y-79805009D01*
X183327199Y-79654697D01*
X183327201Y-79654693D01*
X183327204Y-79654691D01*
X183452143Y-79482725D01*
X183452142Y-79482725D01*
X183452146Y-79482721D01*
X183456609Y-79473959D01*
X183504583Y-79423164D01*
X183572403Y-79406368D01*
X183638539Y-79428904D01*
G37*
%TD.AperFunction*%
%TA.AperFunction,Conductor*%
G36*
X186178539Y-79428904D02*
G01*
X186217581Y-79473961D01*
X186222046Y-79482725D01*
X186346985Y-79654691D01*
X186497308Y-79805014D01*
X186669277Y-79929955D01*
X186678041Y-79934421D01*
X186728837Y-79982396D01*
X186745631Y-80050217D01*
X186723093Y-80116352D01*
X186678041Y-80155389D01*
X186669277Y-80159854D01*
X186497308Y-80284795D01*
X186346985Y-80435118D01*
X186222044Y-80607087D01*
X186217297Y-80616404D01*
X186169322Y-80667198D01*
X186101500Y-80683992D01*
X186035366Y-80661453D01*
X185996329Y-80616400D01*
X185991721Y-80607357D01*
X185952365Y-80553187D01*
X185952364Y-80553187D01*
X185320057Y-81185494D01*
X185303020Y-81121912D01*
X185237194Y-81007898D01*
X185144102Y-80914806D01*
X185030088Y-80848980D01*
X184966504Y-80831942D01*
X185598811Y-80199633D01*
X185544642Y-80160278D01*
X185544642Y-80160277D01*
X185535595Y-80155668D01*
X185484801Y-80107693D01*
X185468007Y-80039871D01*
X185490546Y-79973737D01*
X185535603Y-79934698D01*
X185544911Y-79929956D01*
X185651035Y-79852853D01*
X185716881Y-79805014D01*
X185716883Y-79805011D01*
X185716887Y-79805009D01*
X185867199Y-79654697D01*
X185867201Y-79654693D01*
X185867204Y-79654691D01*
X185992143Y-79482725D01*
X185992142Y-79482725D01*
X185992146Y-79482721D01*
X185996609Y-79473959D01*
X186044583Y-79423164D01*
X186112403Y-79406368D01*
X186178539Y-79428904D01*
G37*
%TD.AperFunction*%
%TD*%
%TA.AperFunction,Conductor*%
%TO.N,RF_GND*%
G36*
X128327909Y-109330802D02*
G01*
X128372258Y-109359303D01*
X128820276Y-109807321D01*
X128853761Y-109868644D01*
X128856595Y-109895002D01*
X128856595Y-111170905D01*
X128836910Y-111237944D01*
X128784106Y-111283699D01*
X128732595Y-111294905D01*
X128657095Y-111294905D01*
X128657095Y-114294905D01*
X129033095Y-114294905D01*
X129100134Y-114314590D01*
X129145889Y-114367394D01*
X129157095Y-114418905D01*
X129157095Y-115293917D01*
X129137410Y-115360956D01*
X129092527Y-115402746D01*
X129088324Y-115405041D01*
X128973109Y-115491291D01*
X128973106Y-115491294D01*
X128886860Y-115606503D01*
X128886856Y-115606510D01*
X128836564Y-115741352D01*
X128836563Y-115741356D01*
X128830154Y-115800966D01*
X128830154Y-115800973D01*
X128830154Y-115800974D01*
X128830154Y-116518841D01*
X128830155Y-116518847D01*
X128836562Y-116578454D01*
X128886856Y-116713299D01*
X128886861Y-116713308D01*
X128892318Y-116720598D01*
X128916733Y-116786063D01*
X128901879Y-116854335D01*
X128892318Y-116869212D01*
X128886861Y-116876501D01*
X128886856Y-116876510D01*
X128836564Y-117011352D01*
X128836563Y-117011356D01*
X128830154Y-117070966D01*
X128830154Y-117070973D01*
X128830154Y-117070974D01*
X128830154Y-117788841D01*
X128830155Y-117788847D01*
X128836562Y-117848454D01*
X128886856Y-117983299D01*
X128886861Y-117983308D01*
X128892318Y-117990598D01*
X128916733Y-118056063D01*
X128901879Y-118124335D01*
X128892318Y-118139212D01*
X128886861Y-118146501D01*
X128886856Y-118146510D01*
X128836564Y-118281352D01*
X128836563Y-118281356D01*
X128830154Y-118340966D01*
X128830154Y-118340973D01*
X128830154Y-118340974D01*
X128830154Y-119058841D01*
X128830155Y-119058847D01*
X128836562Y-119118454D01*
X128886856Y-119253299D01*
X128886860Y-119253306D01*
X128973106Y-119368515D01*
X128973107Y-119368515D01*
X128973108Y-119368517D01*
X128976611Y-119371139D01*
X128979233Y-119374642D01*
X128979379Y-119374788D01*
X128979358Y-119374808D01*
X129018481Y-119427073D01*
X129023465Y-119496764D01*
X128989979Y-119558087D01*
X128928656Y-119591572D01*
X128902299Y-119594405D01*
X127998614Y-119594405D01*
X127931575Y-119574720D01*
X127910933Y-119558086D01*
X126687714Y-118334867D01*
X126654229Y-118273544D01*
X126651395Y-118247186D01*
X126651395Y-110508305D01*
X126671080Y-110441266D01*
X126723884Y-110395511D01*
X126746511Y-110390588D01*
X126752795Y-110384305D01*
X127252795Y-110384305D01*
X127749123Y-110384305D01*
X127749139Y-110384304D01*
X127808667Y-110377903D01*
X127808674Y-110377901D01*
X127943381Y-110327659D01*
X127943388Y-110327655D01*
X128058482Y-110241495D01*
X128058485Y-110241492D01*
X128144645Y-110126398D01*
X128144649Y-110126391D01*
X128194891Y-109991684D01*
X128194893Y-109991677D01*
X128201294Y-109932149D01*
X128201295Y-109932132D01*
X128201295Y-109854905D01*
X127252795Y-109854905D01*
X127252795Y-110384305D01*
X126752795Y-110384305D01*
X126752795Y-109728905D01*
X126772480Y-109661866D01*
X126825284Y-109616111D01*
X126876795Y-109604905D01*
X127002795Y-109604905D01*
X127002795Y-109478905D01*
X127022480Y-109411866D01*
X127075284Y-109366111D01*
X127126795Y-109354905D01*
X128204950Y-109354905D01*
X128258217Y-109325818D01*
X128327909Y-109330802D01*
G37*
%TD.AperFunction*%
%TD*%
%TA.AperFunction,Conductor*%
%TO.N,GND_5VCAN*%
G36*
X93399273Y-105814590D02*
G01*
X93419914Y-105831223D01*
X93457631Y-105868940D01*
X93583060Y-105994369D01*
X93730548Y-106092918D01*
X93778547Y-106112800D01*
X93894429Y-106160800D01*
X94068399Y-106195404D01*
X94068403Y-106195405D01*
X94068404Y-106195405D01*
X94245787Y-106195405D01*
X97889156Y-106195405D01*
X97956195Y-106215090D01*
X98001950Y-106267894D01*
X98011894Y-106337052D01*
X97987531Y-106394893D01*
X97979831Y-106404926D01*
X97921896Y-106544796D01*
X97921895Y-106544800D01*
X97907095Y-106657207D01*
X97907095Y-106984905D01*
X98583095Y-106984905D01*
X98650134Y-107004590D01*
X98695889Y-107057394D01*
X98707095Y-107108905D01*
X98707095Y-107234905D01*
X98833095Y-107234905D01*
X98900134Y-107254590D01*
X98945889Y-107307394D01*
X98957095Y-107358905D01*
X98957095Y-108363778D01*
X98973892Y-108394540D01*
X98968908Y-108464232D01*
X98951103Y-108496382D01*
X98929399Y-108524667D01*
X98929395Y-108524674D01*
X98871408Y-108664668D01*
X98871408Y-108664669D01*
X98856595Y-108777177D01*
X98856595Y-109932632D01*
X98869556Y-110031076D01*
X98871408Y-110045141D01*
X98929397Y-110185138D01*
X99021644Y-110305356D01*
X99141862Y-110397603D01*
X99281859Y-110455592D01*
X99394375Y-110470405D01*
X99394382Y-110470405D01*
X99533095Y-110470405D01*
X99541780Y-110472955D01*
X99550742Y-110471667D01*
X99574782Y-110482645D01*
X99600134Y-110490090D01*
X99606061Y-110496930D01*
X99614298Y-110500692D01*
X99628587Y-110522926D01*
X99645889Y-110542894D01*
X99648176Y-110553408D01*
X99652072Y-110559470D01*
X99657095Y-110594405D01*
X99657095Y-110743543D01*
X99637410Y-110810582D01*
X99632095Y-110817177D01*
X99632095Y-114769904D01*
X99655403Y-114769904D01*
X99655417Y-114769903D01*
X99657095Y-114769731D01*
X99657095Y-120294905D01*
X98696487Y-119398337D01*
X98660909Y-119338204D01*
X98657095Y-119307686D01*
X98657095Y-117794905D01*
X97027400Y-117794905D01*
X96960361Y-117775220D01*
X96942793Y-117761556D01*
X96261141Y-117125348D01*
X96258067Y-117122378D01*
X93228917Y-114093227D01*
X98432096Y-114093227D01*
X98442239Y-114192512D01*
X98495547Y-114353386D01*
X98495552Y-114353397D01*
X98584519Y-114497633D01*
X98584522Y-114497637D01*
X98704362Y-114617477D01*
X98704366Y-114617480D01*
X98848602Y-114706447D01*
X98848613Y-114706452D01*
X99009488Y-114759760D01*
X99108778Y-114769904D01*
X99132095Y-114769903D01*
X99132095Y-114044905D01*
X98432096Y-114044905D01*
X98432096Y-114093227D01*
X93228917Y-114093227D01*
X93216914Y-114081224D01*
X92632272Y-113496582D01*
X98432095Y-113496582D01*
X98432095Y-113544905D01*
X99132095Y-113544905D01*
X99132095Y-112044905D01*
X98432096Y-112044905D01*
X98432096Y-112093227D01*
X98442239Y-112192512D01*
X98495547Y-112353386D01*
X98495552Y-112353397D01*
X98584519Y-112497633D01*
X98584522Y-112497637D01*
X98704362Y-112617477D01*
X98704366Y-112617480D01*
X98820911Y-112689367D01*
X98867636Y-112741315D01*
X98878857Y-112810278D01*
X98851014Y-112874360D01*
X98820911Y-112900443D01*
X98704366Y-112972329D01*
X98704362Y-112972332D01*
X98584522Y-113092172D01*
X98584519Y-113092176D01*
X98495552Y-113236412D01*
X98495547Y-113236423D01*
X98442239Y-113397298D01*
X98432095Y-113496582D01*
X92632272Y-113496582D01*
X92318914Y-113183224D01*
X92285429Y-113121901D01*
X92282595Y-113095543D01*
X92282595Y-112839727D01*
X92302280Y-112772688D01*
X92355084Y-112726933D01*
X92424242Y-112716989D01*
X92445600Y-112722021D01*
X92559489Y-112759761D01*
X92658778Y-112769904D01*
X93182095Y-112769904D01*
X93205403Y-112769904D01*
X93205417Y-112769903D01*
X93304702Y-112759760D01*
X93465576Y-112706452D01*
X93465587Y-112706447D01*
X93609823Y-112617480D01*
X93609827Y-112617477D01*
X93729667Y-112497637D01*
X93729670Y-112497633D01*
X93818637Y-112353397D01*
X93818642Y-112353386D01*
X93871950Y-112192511D01*
X93882094Y-112093227D01*
X93882095Y-112093214D01*
X93882095Y-112044905D01*
X93182095Y-112044905D01*
X93182095Y-112769904D01*
X92658778Y-112769904D01*
X92682095Y-112769903D01*
X92682095Y-111544905D01*
X93182095Y-111544905D01*
X93882094Y-111544905D01*
X93882094Y-111496598D01*
X93882093Y-111496582D01*
X98432095Y-111496582D01*
X98432095Y-111544905D01*
X99132095Y-111544905D01*
X99132095Y-110819904D01*
X99108788Y-110819905D01*
X99108769Y-110819906D01*
X99009487Y-110830049D01*
X98848613Y-110883357D01*
X98848602Y-110883362D01*
X98704366Y-110972329D01*
X98704362Y-110972332D01*
X98584522Y-111092172D01*
X98584519Y-111092176D01*
X98495552Y-111236412D01*
X98495547Y-111236423D01*
X98442239Y-111397298D01*
X98432095Y-111496582D01*
X93882093Y-111496582D01*
X93882093Y-111496581D01*
X93871950Y-111397297D01*
X93818642Y-111236423D01*
X93818637Y-111236412D01*
X93729670Y-111092176D01*
X93729667Y-111092172D01*
X93609827Y-110972332D01*
X93609823Y-110972329D01*
X93465587Y-110883362D01*
X93465576Y-110883357D01*
X93304701Y-110830049D01*
X93205417Y-110819905D01*
X93182095Y-110819905D01*
X93182095Y-111544905D01*
X92682095Y-111544905D01*
X92682095Y-110819904D01*
X92658788Y-110819905D01*
X92658769Y-110819906D01*
X92559487Y-110830049D01*
X92398613Y-110883357D01*
X92398608Y-110883359D01*
X92346192Y-110915691D01*
X92278800Y-110934131D01*
X92212136Y-110913209D01*
X92167366Y-110859567D01*
X92157095Y-110810152D01*
X92157095Y-109759900D01*
X92176780Y-109692861D01*
X92229584Y-109647106D01*
X92298742Y-109637162D01*
X92362298Y-109666187D01*
X92379471Y-109684413D01*
X92472000Y-109804999D01*
X92592116Y-109897168D01*
X92731986Y-109955103D01*
X92731990Y-109955104D01*
X92844397Y-109969904D01*
X92844412Y-109969905D01*
X92857095Y-109969905D01*
X93357095Y-109969905D01*
X93369778Y-109969905D01*
X93369792Y-109969904D01*
X93482199Y-109955104D01*
X93482203Y-109955103D01*
X93622073Y-109897168D01*
X93742189Y-109804999D01*
X93834358Y-109684883D01*
X93892293Y-109545013D01*
X93892294Y-109545009D01*
X93907094Y-109432602D01*
X93907095Y-109432588D01*
X93907095Y-109104905D01*
X93357095Y-109104905D01*
X93357095Y-109969905D01*
X92857095Y-109969905D01*
X92857095Y-108604905D01*
X93357095Y-108604905D01*
X93907095Y-108604905D01*
X93907095Y-108277221D01*
X93907094Y-108277207D01*
X93892294Y-108164800D01*
X93892293Y-108164796D01*
X93834358Y-108024926D01*
X93742189Y-107904810D01*
X93622073Y-107812641D01*
X93621979Y-107812602D01*
X97907095Y-107812602D01*
X97921895Y-107925009D01*
X97921896Y-107925013D01*
X97979831Y-108064883D01*
X98072000Y-108184999D01*
X98192116Y-108277168D01*
X98331986Y-108335103D01*
X98331990Y-108335104D01*
X98444397Y-108349904D01*
X98444412Y-108349905D01*
X98457095Y-108349905D01*
X98457095Y-107484905D01*
X97907095Y-107484905D01*
X97907095Y-107812602D01*
X93621979Y-107812602D01*
X93482203Y-107754706D01*
X93482199Y-107754705D01*
X93369792Y-107739905D01*
X93357095Y-107739905D01*
X93357095Y-108604905D01*
X92857095Y-108604905D01*
X92857095Y-107726032D01*
X92840297Y-107695269D01*
X92845281Y-107625577D01*
X92863085Y-107593427D01*
X92884793Y-107565138D01*
X92942782Y-107425141D01*
X92957595Y-107312625D01*
X92957595Y-106157185D01*
X92942782Y-106044669D01*
X92910343Y-105966356D01*
X92902875Y-105896889D01*
X92934150Y-105834409D01*
X92994239Y-105798757D01*
X93024905Y-105794905D01*
X93332234Y-105794905D01*
X93399273Y-105814590D01*
G37*
%TD.AperFunction*%
%TD*%
%TA.AperFunction,Conductor*%
%TO.N,GND_5VCAN*%
G36*
X115695307Y-105808419D02*
G01*
X115839839Y-105882062D01*
X116019328Y-105940382D01*
X116089229Y-105951453D01*
X116205727Y-105969905D01*
X116205732Y-105969905D01*
X116394463Y-105969905D01*
X116498015Y-105953503D01*
X116580862Y-105940382D01*
X116760351Y-105882062D01*
X116904882Y-105808419D01*
X116961176Y-105794905D01*
X117157095Y-105794905D01*
X122356595Y-105794905D01*
X122356595Y-111170905D01*
X122336910Y-111237944D01*
X122284106Y-111283699D01*
X122232595Y-111294905D01*
X121157095Y-111294905D01*
X121157095Y-111310152D01*
X121137410Y-111377191D01*
X121084606Y-111422946D01*
X121015448Y-111432890D01*
X120967998Y-111415691D01*
X120915581Y-111383359D01*
X120915576Y-111383357D01*
X120754701Y-111330049D01*
X120655417Y-111319905D01*
X120632095Y-111319905D01*
X120632095Y-113269904D01*
X120655403Y-113269904D01*
X120655417Y-113269903D01*
X120754702Y-113259760D01*
X120915576Y-113206452D01*
X120915582Y-113206449D01*
X120942497Y-113189848D01*
X121009889Y-113171407D01*
X121076553Y-113192328D01*
X121121323Y-113245970D01*
X121131595Y-113295386D01*
X121131595Y-113954839D01*
X121111910Y-114021878D01*
X121059106Y-114067633D01*
X121007595Y-114078839D01*
X120106572Y-114078839D01*
X120106572Y-114765905D01*
X120086887Y-114832944D01*
X120034083Y-114878699D01*
X119982572Y-114889905D01*
X119856572Y-114889905D01*
X119856572Y-115015905D01*
X119836887Y-115082944D01*
X119784083Y-115128699D01*
X119732572Y-115139905D01*
X118229608Y-115139905D01*
X118229608Y-115170905D01*
X118209923Y-115237944D01*
X118157119Y-115283699D01*
X118105608Y-115294905D01*
X113208457Y-115294905D01*
X113141418Y-115275220D01*
X113120776Y-115258586D01*
X112393184Y-114530994D01*
X118229608Y-114530994D01*
X118229608Y-114639905D01*
X119606572Y-114639905D01*
X119606572Y-114078839D01*
X118681763Y-114078839D01*
X118622235Y-114085240D01*
X118622228Y-114085242D01*
X118487521Y-114135484D01*
X118487514Y-114135488D01*
X118372420Y-114221648D01*
X118372417Y-114221651D01*
X118286257Y-114336745D01*
X118286253Y-114336752D01*
X118236011Y-114471459D01*
X118236009Y-114471466D01*
X118229608Y-114530994D01*
X112393184Y-114530994D01*
X111967801Y-114105611D01*
X111934316Y-114044288D01*
X111933015Y-114037368D01*
X111925572Y-113990371D01*
X111862315Y-113795686D01*
X111862313Y-113795683D01*
X111862313Y-113795681D01*
X111828598Y-113729512D01*
X111769382Y-113613295D01*
X111761651Y-113602654D01*
X111649066Y-113447691D01*
X111504308Y-113302933D01*
X111338708Y-113182620D01*
X111338707Y-113182619D01*
X111338705Y-113182618D01*
X111156314Y-113089685D01*
X110961629Y-113026428D01*
X110961626Y-113026427D01*
X110914668Y-113018989D01*
X110851533Y-112989058D01*
X110846387Y-112984197D01*
X110455417Y-112593227D01*
X119432096Y-112593227D01*
X119442239Y-112692512D01*
X119495547Y-112853386D01*
X119495552Y-112853397D01*
X119584519Y-112997633D01*
X119584522Y-112997637D01*
X119704362Y-113117477D01*
X119704366Y-113117480D01*
X119848602Y-113206447D01*
X119848613Y-113206452D01*
X120009488Y-113259760D01*
X120108778Y-113269904D01*
X120132095Y-113269903D01*
X120132095Y-112544905D01*
X119432096Y-112544905D01*
X119432096Y-112593227D01*
X110455417Y-112593227D01*
X109858772Y-111996582D01*
X119432095Y-111996582D01*
X119432095Y-112044905D01*
X120132095Y-112044905D01*
X120132095Y-111319904D01*
X120108788Y-111319905D01*
X120108769Y-111319906D01*
X120009487Y-111330049D01*
X119848613Y-111383357D01*
X119848602Y-111383362D01*
X119704366Y-111472329D01*
X119704362Y-111472332D01*
X119584522Y-111592172D01*
X119584519Y-111592176D01*
X119495552Y-111736412D01*
X119495547Y-111736423D01*
X119442239Y-111897298D01*
X119432095Y-111996582D01*
X109858772Y-111996582D01*
X109157095Y-111294905D01*
X108981957Y-111294905D01*
X108914918Y-111275220D01*
X108894276Y-111258586D01*
X108731130Y-111095440D01*
X108731125Y-111095436D01*
X108676717Y-111059083D01*
X108676711Y-111059080D01*
X108672054Y-111055968D01*
X108583642Y-110996892D01*
X108501701Y-110962951D01*
X108419761Y-110929010D01*
X108419753Y-110929008D01*
X108245791Y-110894405D01*
X108245787Y-110894405D01*
X108245786Y-110894405D01*
X101781095Y-110894405D01*
X101714056Y-110874720D01*
X101668301Y-110821916D01*
X101657095Y-110770405D01*
X101657095Y-108918905D01*
X101676780Y-108851866D01*
X101729584Y-108806111D01*
X101781095Y-108794905D01*
X114657095Y-108794905D01*
X114657095Y-105918905D01*
X114676780Y-105851866D01*
X114729584Y-105806111D01*
X114781095Y-105794905D01*
X115639014Y-105794905D01*
X115695307Y-105808419D01*
G37*
%TD.AperFunction*%
%TD*%
%TA.AperFunction,Conductor*%
%TO.N,+5VD*%
G36*
X133443039Y-80519685D02*
G01*
X133488794Y-80572489D01*
X133500000Y-80624000D01*
X133500000Y-83922978D01*
X133480315Y-83990017D01*
X133427511Y-84035772D01*
X133358353Y-84045716D01*
X133294797Y-84016691D01*
X133270462Y-83988075D01*
X133180469Y-83842176D01*
X133180466Y-83842172D01*
X133060626Y-83722332D01*
X133060622Y-83722329D01*
X132916386Y-83633362D01*
X132916375Y-83633357D01*
X132755500Y-83580049D01*
X132656216Y-83569905D01*
X132607894Y-83569905D01*
X132607894Y-84395905D01*
X132588209Y-84462944D01*
X132545444Y-84500000D01*
X132164664Y-84500000D01*
X132119100Y-84447416D01*
X132107894Y-84395905D01*
X132107894Y-83569905D01*
X132107893Y-83569904D01*
X132059587Y-83569905D01*
X132059569Y-83569906D01*
X131960286Y-83580049D01*
X131799412Y-83633357D01*
X131799401Y-83633362D01*
X131655165Y-83722329D01*
X131655161Y-83722332D01*
X131535321Y-83842172D01*
X131535318Y-83842176D01*
X131446351Y-83986412D01*
X131446346Y-83986423D01*
X131393038Y-84147298D01*
X131382894Y-84246582D01*
X131382894Y-84376000D01*
X131380343Y-84384685D01*
X131381632Y-84393647D01*
X131370653Y-84417687D01*
X131363209Y-84443039D01*
X131356368Y-84448966D01*
X131352607Y-84457203D01*
X131330372Y-84471492D01*
X131310405Y-84488794D01*
X131299890Y-84491081D01*
X131293829Y-84494977D01*
X131258894Y-84500000D01*
X131124000Y-84500000D01*
X131056961Y-84480315D01*
X131011206Y-84427511D01*
X131000000Y-84376000D01*
X131000000Y-80624000D01*
X131019685Y-80556961D01*
X131072489Y-80511206D01*
X131124000Y-80500000D01*
X133376000Y-80500000D01*
X133443039Y-80519685D01*
G37*
%TD.AperFunction*%
%TD*%
%TA.AperFunction,Conductor*%
%TO.N,+5VD*%
G36*
X186443039Y-118019685D02*
G01*
X186488794Y-118072489D01*
X186500000Y-118124000D01*
X186500000Y-119876000D01*
X186480315Y-119943039D01*
X186427511Y-119988794D01*
X186376000Y-120000000D01*
X184624000Y-120000000D01*
X184556961Y-119980315D01*
X184511206Y-119927511D01*
X184500000Y-119876000D01*
X184500000Y-118124000D01*
X184519685Y-118056961D01*
X184572489Y-118011206D01*
X184624000Y-118000000D01*
X186376000Y-118000000D01*
X186443039Y-118019685D01*
G37*
%TD.AperFunction*%
%TD*%
M02*
