%TF.GenerationSoftware,KiCad,Pcbnew,9.0.4*%
%TF.CreationDate,2025-09-17T23:10:01+09:00*%
%TF.ProjectId,CAN_Isolation_mini,43414e5f-4973-46f6-9c61-74696f6e5f6d,Ver.1.0*%
%TF.SameCoordinates,Original*%
%TF.FileFunction,Soldermask,Top*%
%TF.FilePolarity,Negative*%
%FSLAX46Y46*%
G04 Gerber Fmt 4.6, Leading zero omitted, Abs format (unit mm)*
G04 Created by KiCad (PCBNEW 9.0.4) date 2025-09-17 23:10:01*
%MOMM*%
%LPD*%
G01*
G04 APERTURE LIST*
G04 Aperture macros list*
%AMRoundRect*
0 Rectangle with rounded corners*
0 $1 Rounding radius*
0 $2 $3 $4 $5 $6 $7 $8 $9 X,Y pos of 4 corners*
0 Add a 4 corners polygon primitive as box body*
4,1,4,$2,$3,$4,$5,$6,$7,$8,$9,$2,$3,0*
0 Add four circle primitives for the rounded corners*
1,1,$1+$1,$2,$3*
1,1,$1+$1,$4,$5*
1,1,$1+$1,$6,$7*
1,1,$1+$1,$8,$9*
0 Add four rect primitives between the rounded corners*
20,1,$1+$1,$2,$3,$4,$5,0*
20,1,$1+$1,$4,$5,$6,$7,0*
20,1,$1+$1,$6,$7,$8,$9,0*
20,1,$1+$1,$8,$9,$2,$3,0*%
G04 Aperture macros list end*
%ADD10C,3.200000*%
%ADD11C,3.920000*%
%ADD12O,1.504000X2.804000*%
%ADD13RoundRect,0.225000X-0.225000X-0.250000X0.225000X-0.250000X0.225000X0.250000X-0.225000X0.250000X0*%
%ADD14RoundRect,0.200000X-0.200000X-0.275000X0.200000X-0.275000X0.200000X0.275000X-0.200000X0.275000X0*%
%ADD15R,2.253927X0.622132*%
%ADD16R,1.700000X1.700000*%
%ADD17C,1.700000*%
%ADD18RoundRect,0.102000X-0.754000X0.754000X-0.754000X-0.754000X0.754000X-0.754000X0.754000X0.754000X0*%
%ADD19C,1.712000*%
%ADD20RoundRect,0.102000X0.345000X0.160000X-0.345000X0.160000X-0.345000X-0.160000X0.345000X-0.160000X0*%
%ADD21RoundRect,0.102000X0.500000X0.800000X-0.500000X0.800000X-0.500000X-0.800000X0.500000X-0.800000X0*%
%ADD22RoundRect,0.250000X-0.325000X-1.100000X0.325000X-1.100000X0.325000X1.100000X-0.325000X1.100000X0*%
%ADD23C,1.600000*%
%ADD24R,1.016000X0.558800*%
%ADD25RoundRect,0.100500X0.301500X-0.616500X0.301500X0.616500X-0.301500X0.616500X-0.301500X-0.616500X0*%
%ADD26R,0.393700X0.812800*%
%ADD27R,1.397000X1.397000*%
%ADD28C,1.397000*%
%ADD29R,1.397000X0.558800*%
%ADD30RoundRect,0.225000X0.225000X0.250000X-0.225000X0.250000X-0.225000X-0.250000X0.225000X-0.250000X0*%
%ADD31RoundRect,0.250000X0.325000X1.100000X-0.325000X1.100000X-0.325000X-1.100000X0.325000X-1.100000X0*%
%ADD32RoundRect,0.102000X0.200000X0.950000X-0.200000X0.950000X-0.200000X-0.950000X0.200000X-0.950000X0*%
%ADD33RoundRect,0.250000X-1.100000X0.325000X-1.100000X-0.325000X1.100000X-0.325000X1.100000X0.325000X0*%
%ADD34RoundRect,0.100500X-0.301500X0.616500X-0.301500X-0.616500X0.301500X-0.616500X0.301500X0.616500X0*%
G04 APERTURE END LIST*
D10*
%TO.C,REF\u002A\u002A*%
X93657095Y-62794905D03*
%TD*%
D11*
%TO.C,J22*%
X131762000Y-67087000D03*
X124562000Y-67087000D03*
D12*
X134912000Y-61087000D03*
X121412000Y-61087000D03*
%TD*%
D11*
%TO.C,J21*%
X112801000Y-67214000D03*
X105601000Y-67214000D03*
D12*
X115951000Y-61214000D03*
X102451000Y-61214000D03*
%TD*%
D13*
%TO.C,C7*%
X129882095Y-100294905D03*
X131432095Y-100294905D03*
%TD*%
D14*
%TO.C,R9*%
X95332095Y-89294905D03*
X96982095Y-89294905D03*
%TD*%
D10*
%TO.C,REF\u002A\u002A*%
X143657095Y-62785000D03*
%TD*%
D15*
%TO.C,U2*%
X130457618Y-118699905D03*
X130457618Y-117429905D03*
X130457618Y-116159905D03*
X130457618Y-114889905D03*
X119856572Y-114889905D03*
X119856572Y-116159905D03*
X119856572Y-117429905D03*
X119856572Y-118699905D03*
%TD*%
D16*
%TO.C,J6*%
X144810000Y-89500000D03*
D17*
X142270000Y-89500000D03*
X139730000Y-89500000D03*
X137190000Y-89500000D03*
%TD*%
D10*
%TO.C,REF\u002A\u002A*%
X93657095Y-122794905D03*
%TD*%
D16*
%TO.C,J3*%
X144810000Y-81880000D03*
D17*
X142270000Y-81880000D03*
X139730000Y-81880000D03*
X137190000Y-81880000D03*
%TD*%
D18*
%TO.C,J1*%
X97857095Y-93544905D03*
D19*
X97857095Y-96044905D03*
X97857095Y-98544905D03*
X97857095Y-101044905D03*
%TD*%
D13*
%TO.C,C10*%
X91382095Y-111794905D03*
X92932095Y-111794905D03*
%TD*%
D16*
%TO.C,J8*%
X144810000Y-94580000D03*
D17*
X142270000Y-94580000D03*
X139730000Y-94580000D03*
X137190000Y-94580000D03*
%TD*%
D16*
%TO.C,J11*%
X144810000Y-102200000D03*
D17*
X142270000Y-102200000D03*
X139730000Y-102200000D03*
X137190000Y-102200000D03*
%TD*%
D16*
%TO.C,J17*%
X144810000Y-117440000D03*
D17*
X142270000Y-117440000D03*
X139730000Y-117440000D03*
X137190000Y-117440000D03*
%TD*%
D20*
%TO.C,U5*%
X104677095Y-95444905D03*
X104677095Y-94794905D03*
X104677095Y-94144905D03*
X102637095Y-94144905D03*
X102637095Y-94794905D03*
X102637095Y-95444905D03*
D21*
X103657095Y-94794905D03*
%TD*%
D16*
%TO.C,J15*%
X144810000Y-112360000D03*
D17*
X142270000Y-112360000D03*
X139730000Y-112360000D03*
X137190000Y-112360000D03*
%TD*%
D16*
%TO.C,J13*%
X144810000Y-107280000D03*
D17*
X142270000Y-107280000D03*
X139730000Y-107280000D03*
X137190000Y-107280000D03*
%TD*%
D22*
%TO.C,C2*%
X102182095Y-99794905D03*
X105132095Y-99794905D03*
%TD*%
D23*
%TO.C,R12*%
X103037095Y-114294905D03*
X110657095Y-114294905D03*
%TD*%
D13*
%TO.C,C5*%
X129882095Y-120294905D03*
X131432095Y-120294905D03*
%TD*%
D24*
%TO.C,U6*%
X99300095Y-83744906D03*
X99300095Y-81844904D03*
X97014095Y-82794905D03*
%TD*%
D16*
%TO.C,J16*%
X144810000Y-114900000D03*
D17*
X142270000Y-114900000D03*
X139730000Y-114900000D03*
X137190000Y-114900000D03*
%TD*%
D16*
%TO.C,J7*%
X144810000Y-92040000D03*
D17*
X142270000Y-92040000D03*
X139730000Y-92040000D03*
X137190000Y-92040000D03*
%TD*%
D13*
%TO.C,C11*%
X99382095Y-111794905D03*
X100932095Y-111794905D03*
%TD*%
D25*
%TO.C,D1*%
X91207095Y-108854905D03*
X93107095Y-108854905D03*
X92157095Y-106734905D03*
%TD*%
D26*
%TO.C,LED2*%
X91760345Y-85794905D03*
X90553845Y-85794905D03*
%TD*%
D16*
%TO.C,J10*%
X144810000Y-99660000D03*
D17*
X142270000Y-99660000D03*
X139730000Y-99660000D03*
X137190000Y-99660000D03*
%TD*%
D10*
%TO.C,REF\u002A\u002A*%
X143657095Y-122794905D03*
%TD*%
D22*
%TO.C,C8*%
X102525000Y-84500000D03*
X105475000Y-84500000D03*
%TD*%
D27*
%TO.C,U3*%
X108680095Y-90270905D03*
D28*
X111220095Y-90270905D03*
X116300095Y-90270905D03*
X121380095Y-90270905D03*
%TD*%
D27*
%TO.C,U4*%
X108680095Y-104770905D03*
D28*
X111220095Y-104770905D03*
X116300095Y-104770905D03*
X121380095Y-104770905D03*
%TD*%
D16*
%TO.C,J9*%
X144810000Y-97120000D03*
D17*
X142270000Y-97120000D03*
X139730000Y-97120000D03*
X137190000Y-97120000D03*
%TD*%
D14*
%TO.C,R5*%
X129832095Y-92794905D03*
X131482095Y-92794905D03*
%TD*%
%TO.C,R3*%
X129832095Y-95794905D03*
X131482095Y-95794905D03*
%TD*%
D29*
%TO.C,U1*%
X127002795Y-101984905D03*
X127002795Y-103254905D03*
X127002795Y-104524905D03*
X127002795Y-105794905D03*
X127002795Y-107064905D03*
X127002795Y-108334905D03*
X127002795Y-109604905D03*
X132311395Y-109604905D03*
X132311395Y-108334905D03*
X132311395Y-107064905D03*
X132311395Y-105794905D03*
X132311395Y-104524905D03*
X132311395Y-103254905D03*
X132311395Y-101984905D03*
%TD*%
D26*
%TO.C,LED1*%
X91760345Y-89294905D03*
X90553845Y-89294905D03*
%TD*%
D27*
%TO.C,U7*%
X105610000Y-75500000D03*
D28*
X108150000Y-75500000D03*
X110690000Y-75500000D03*
X115770000Y-75500000D03*
X118310000Y-75500000D03*
X120850000Y-75500000D03*
X123390000Y-75500000D03*
%TD*%
D14*
%TO.C,R2*%
X129832095Y-97294905D03*
X131482095Y-97294905D03*
%TD*%
D22*
%TO.C,C1*%
X102182095Y-90294905D03*
X105132095Y-90294905D03*
%TD*%
D30*
%TO.C,C6*%
X121932095Y-112294905D03*
X120382095Y-112294905D03*
%TD*%
%TO.C,C12*%
X100932095Y-113794905D03*
X99382095Y-113794905D03*
%TD*%
D23*
%TO.C,R11*%
X110657095Y-119294905D03*
X103037095Y-119294905D03*
%TD*%
D31*
%TO.C,C3*%
X128132095Y-93294905D03*
X125182095Y-93294905D03*
%TD*%
D16*
%TO.C,J2*%
X144810000Y-79340000D03*
D17*
X142270000Y-79340000D03*
X139730000Y-79340000D03*
X137190000Y-79340000D03*
%TD*%
D16*
%TO.C,J5*%
X144810000Y-86960000D03*
D17*
X142270000Y-86960000D03*
X139730000Y-86960000D03*
X137190000Y-86960000D03*
%TD*%
D32*
%TO.C,Y1*%
X131857095Y-112794905D03*
X130657095Y-112794905D03*
X129457095Y-112794905D03*
%TD*%
D33*
%TO.C,C4*%
X120657095Y-97819905D03*
X120657095Y-100769905D03*
%TD*%
D31*
%TO.C,C9*%
X124975000Y-84500000D03*
X122025000Y-84500000D03*
%TD*%
D34*
%TO.C,D2*%
X100607095Y-107234905D03*
X98707095Y-107234905D03*
X99657095Y-109354905D03*
%TD*%
D16*
%TO.C,J14*%
X144810000Y-109820000D03*
D17*
X142270000Y-109820000D03*
X139730000Y-109820000D03*
X137190000Y-109820000D03*
%TD*%
D16*
%TO.C,J4*%
X144810000Y-84420000D03*
D17*
X142270000Y-84420000D03*
X139730000Y-84420000D03*
X137190000Y-84420000D03*
%TD*%
D16*
%TO.C,J12*%
X144810000Y-104740000D03*
D17*
X142270000Y-104740000D03*
X139730000Y-104740000D03*
X137190000Y-104740000D03*
%TD*%
D14*
%TO.C,R10*%
X95332095Y-85794905D03*
X96982095Y-85794905D03*
%TD*%
%TO.C,R6*%
X129832095Y-91294905D03*
X131482095Y-91294905D03*
%TD*%
%TO.C,R1*%
X129832095Y-98794905D03*
X131482095Y-98794905D03*
%TD*%
%TO.C,R7*%
X129832095Y-88294905D03*
X131482095Y-88294905D03*
%TD*%
%TO.C,R8*%
X129832095Y-89794905D03*
X131482095Y-89794905D03*
%TD*%
%TO.C,R4*%
X129832095Y-94294905D03*
X131482095Y-94294905D03*
%TD*%
M02*
