%TF.GenerationSoftware,KiCad,Pcbnew,9.0.4*%
%TF.CreationDate,2025-09-17T23:57:15+09:00*%
%TF.ProjectId,CAN_Isolation_mini,43414e5f-4973-46f6-9c61-74696f6e5f6d,Ver.1.0*%
%TF.SameCoordinates,Original*%
%TF.FileFunction,Copper,L4,Bot*%
%TF.FilePolarity,Positive*%
%FSLAX46Y46*%
G04 Gerber Fmt 4.6, Leading zero omitted, Abs format (unit mm)*
G04 Created by KiCad (PCBNEW 9.0.4) date 2025-09-17 23:57:15*
%MOMM*%
%LPD*%
G01*
G04 APERTURE LIST*
%TA.AperFunction,ComponentPad*%
%ADD10R,1.700000X1.700000*%
%TD*%
%TA.AperFunction,ComponentPad*%
%ADD11C,1.700000*%
%TD*%
%TA.AperFunction,ComponentPad*%
%ADD12R,1.508000X1.508000*%
%TD*%
%TA.AperFunction,ComponentPad*%
%ADD13C,1.508000*%
%TD*%
%TA.AperFunction,ComponentPad*%
%ADD14C,1.600000*%
%TD*%
%TA.AperFunction,ComponentPad*%
%ADD15C,3.716000*%
%TD*%
%TA.AperFunction,ComponentPad*%
%ADD16O,1.300000X2.600000*%
%TD*%
%TA.AperFunction,ComponentPad*%
%ADD17R,1.397000X1.397000*%
%TD*%
%TA.AperFunction,ComponentPad*%
%ADD18C,1.397000*%
%TD*%
%TA.AperFunction,ViaPad*%
%ADD19C,0.600000*%
%TD*%
%TA.AperFunction,Conductor*%
%ADD20C,3.000000*%
%TD*%
%TA.AperFunction,Conductor*%
%ADD21C,0.400000*%
%TD*%
%TA.AperFunction,Conductor*%
%ADD22C,1.200000*%
%TD*%
%TA.AperFunction,Conductor*%
%ADD23C,2.000000*%
%TD*%
G04 APERTURE END LIST*
D10*
%TO.P,J6,1,Pin_1*%
%TO.N,unconnected-(J6-Pin_1-Pad1)*%
X144810000Y-89500000D03*
D11*
%TO.P,J6,2,Pin_2*%
%TO.N,unconnected-(J6-Pin_2-Pad2)*%
X142270000Y-89500000D03*
%TO.P,J6,3,Pin_3*%
%TO.N,unconnected-(J6-Pin_3-Pad3)*%
X139730000Y-89500000D03*
%TO.P,J6,4,Pin_4*%
%TO.N,unconnected-(J6-Pin_4-Pad4)*%
X137190000Y-89500000D03*
%TD*%
D10*
%TO.P,J3,1,Pin_1*%
%TO.N,GND_VP*%
X144810000Y-81880000D03*
D11*
%TO.P,J3,2,Pin_2*%
X142270000Y-81880000D03*
%TO.P,J3,3,Pin_3*%
X139730000Y-81880000D03*
%TO.P,J3,4,Pin_4*%
X137190000Y-81880000D03*
%TD*%
D12*
%TO.P,J1,1,1*%
%TO.N,BAT_12V*%
X97857095Y-93544905D03*
D13*
%TO.P,J1,2,2*%
%TO.N,CAN_H*%
X97857095Y-96044905D03*
%TO.P,J1,3,3*%
%TO.N,CAN_L*%
X97857095Y-98544905D03*
%TO.P,J1,4,4*%
%TO.N,BAT_GND*%
X97857095Y-101044905D03*
%TD*%
D10*
%TO.P,J8,1,Pin_1*%
%TO.N,+3.3VP*%
X144810000Y-94580000D03*
D11*
%TO.P,J8,2,Pin_2*%
X142270000Y-94580000D03*
%TO.P,J8,3,Pin_3*%
X139730000Y-94580000D03*
%TO.P,J8,4,Pin_4*%
X137190000Y-94580000D03*
%TD*%
D10*
%TO.P,J11,1,Pin_1*%
%TO.N,CAN_LED*%
X144810000Y-102200000D03*
D11*
%TO.P,J11,2,Pin_2*%
X142270000Y-102200000D03*
%TO.P,J11,3,Pin_3*%
X139730000Y-102200000D03*
%TO.P,J11,4,Pin_4*%
X137190000Y-102200000D03*
%TD*%
D10*
%TO.P,J17,1,Pin_1*%
%TO.N,unconnected-(J17-Pin_1-Pad1)*%
X144810000Y-117440000D03*
D11*
%TO.P,J17,2,Pin_2*%
%TO.N,unconnected-(J17-Pin_2-Pad2)*%
X142270000Y-117440000D03*
%TO.P,J17,3,Pin_3*%
%TO.N,unconnected-(J17-Pin_3-Pad3)*%
X139730000Y-117440000D03*
%TO.P,J17,4,Pin_4*%
%TO.N,unconnected-(J17-Pin_4-Pad4)*%
X137190000Y-117440000D03*
%TD*%
D10*
%TO.P,J15,1,Pin_1*%
%TO.N,CAN_SCK*%
X144810000Y-112360000D03*
D11*
%TO.P,J15,2,Pin_2*%
X142270000Y-112360000D03*
%TO.P,J15,3,Pin_3*%
X139730000Y-112360000D03*
%TO.P,J15,4,Pin_4*%
X137190000Y-112360000D03*
%TD*%
D10*
%TO.P,J13,1,Pin_1*%
%TO.N,CAN_SDO*%
X144810000Y-107280000D03*
D11*
%TO.P,J13,2,Pin_2*%
X142270000Y-107280000D03*
%TO.P,J13,3,Pin_3*%
X139730000Y-107280000D03*
%TO.P,J13,4,Pin_4*%
X137190000Y-107280000D03*
%TD*%
D14*
%TO.P,R12,1*%
%TO.N,Net-(C12-Pad1)*%
X103037095Y-114294905D03*
%TO.P,R12,2*%
%TO.N,CAN_L*%
X110657095Y-114294905D03*
%TD*%
D15*
%TO.P,J21,1,1*%
%TO.N,Net-(D3-PadC)*%
X112801000Y-67214000D03*
%TO.P,J21,2,2*%
%TO.N,BAT_GND*%
X105601000Y-67214000D03*
D16*
%TO.P,J21,S1,SHIELD*%
X115951000Y-61214000D03*
%TO.P,J21,S2,SHIELD*%
X102451000Y-61214000D03*
%TD*%
D10*
%TO.P,J16,1,Pin_1*%
%TO.N,unconnected-(J16-Pin_1-Pad1)*%
X144810000Y-114900000D03*
D11*
%TO.P,J16,2,Pin_2*%
%TO.N,unconnected-(J16-Pin_2-Pad2)*%
X142270000Y-114900000D03*
%TO.P,J16,3,Pin_3*%
%TO.N,unconnected-(J16-Pin_3-Pad3)*%
X139730000Y-114900000D03*
%TO.P,J16,4,Pin_4*%
%TO.N,unconnected-(J16-Pin_4-Pad4)*%
X137190000Y-114900000D03*
%TD*%
D10*
%TO.P,J7,1,Pin_1*%
%TO.N,GND_VP*%
X144810000Y-92040000D03*
D11*
%TO.P,J7,2,Pin_2*%
X142270000Y-92040000D03*
%TO.P,J7,3,Pin_3*%
X139730000Y-92040000D03*
%TO.P,J7,4,Pin_4*%
X137190000Y-92040000D03*
%TD*%
D10*
%TO.P,J10,1,Pin_1*%
%TO.N,unconnected-(J10-Pin_1-Pad1)*%
X144810000Y-99660000D03*
D11*
%TO.P,J10,2,Pin_2*%
%TO.N,unconnected-(J10-Pin_2-Pad2)*%
X142270000Y-99660000D03*
%TO.P,J10,3,Pin_3*%
%TO.N,unconnected-(J10-Pin_3-Pad3)*%
X139730000Y-99660000D03*
%TO.P,J10,4,Pin_4*%
%TO.N,unconnected-(J10-Pin_4-Pad4)*%
X137190000Y-99660000D03*
%TD*%
D17*
%TO.P,U3,1,-VIN*%
%TO.N,BAT_GND*%
X108680095Y-90270905D03*
D18*
%TO.P,U3,2,+VIN*%
%TO.N,BAT_12V*%
X111220095Y-90270905D03*
%TO.P,U3,3,+VOUT*%
%TO.N,+3.3VP*%
X116300095Y-90270905D03*
%TO.P,U3,4,-VOUT*%
%TO.N,GND_VP*%
X121380095Y-90270905D03*
%TD*%
D17*
%TO.P,U4,1,-VIN*%
%TO.N,BAT_GND*%
X108680095Y-104770905D03*
D18*
%TO.P,U4,2,+VIN*%
%TO.N,BAT_12V*%
X111220095Y-104770905D03*
%TO.P,U4,3,+VOUT*%
%TO.N,+5VCAN*%
X116300095Y-104770905D03*
%TO.P,U4,4,-VOUT*%
%TO.N,GND_5VCAN*%
X121380095Y-104770905D03*
%TD*%
D10*
%TO.P,J9,1,Pin_1*%
%TO.N,unconnected-(J9-Pin_1-Pad1)*%
X144810000Y-97120000D03*
D11*
%TO.P,J9,2,Pin_2*%
%TO.N,unconnected-(J9-Pin_2-Pad2)*%
X142270000Y-97120000D03*
%TO.P,J9,3,Pin_3*%
%TO.N,unconnected-(J9-Pin_3-Pad3)*%
X139730000Y-97120000D03*
%TO.P,J9,4,Pin_4*%
%TO.N,unconnected-(J9-Pin_4-Pad4)*%
X137190000Y-97120000D03*
%TD*%
D17*
%TO.P,U7,1,-VIN*%
%TO.N,BAT_GND*%
X105610000Y-75500000D03*
D18*
%TO.P,U7,2,+VIN*%
%TO.N,BAT_12V*%
X108150000Y-75500000D03*
%TO.P,U7,3,RC*%
%TO.N,BAT_GND*%
X110690000Y-75500000D03*
%TO.P,U7,5,NC*%
%TO.N,unconnected-(U7-NC-Pad5)*%
X115770000Y-75500000D03*
%TO.P,U7,6,+VOUT*%
%TO.N,+5VP*%
X118310000Y-75500000D03*
%TO.P,U7,7,-VOUT*%
%TO.N,GND_VP*%
X120850000Y-75500000D03*
%TO.P,U7,8,NC*%
%TO.N,unconnected-(U7-NC-Pad8)*%
X123390000Y-75500000D03*
%TD*%
D14*
%TO.P,R11,1*%
%TO.N,CAN_H*%
X110657095Y-119294905D03*
%TO.P,R11,2*%
%TO.N,Net-(C12-Pad1)*%
X103037095Y-119294905D03*
%TD*%
D10*
%TO.P,J2,1,Pin_1*%
%TO.N,unconnected-(J2-Pin_1-Pad1)*%
X144810000Y-79340000D03*
D11*
%TO.P,J2,2,Pin_2*%
%TO.N,unconnected-(J2-Pin_2-Pad2)*%
X142270000Y-79340000D03*
%TO.P,J2,3,Pin_3*%
%TO.N,unconnected-(J2-Pin_3-Pad3)*%
X139730000Y-79340000D03*
%TO.P,J2,4,Pin_4*%
%TO.N,unconnected-(J2-Pin_4-Pad4)*%
X137190000Y-79340000D03*
%TD*%
D10*
%TO.P,J5,1,Pin_1*%
%TO.N,unconnected-(J5-Pin_1-Pad1)*%
X144810000Y-86960000D03*
D11*
%TO.P,J5,2,Pin_2*%
%TO.N,unconnected-(J5-Pin_2-Pad2)*%
X142270000Y-86960000D03*
%TO.P,J5,3,Pin_3*%
%TO.N,unconnected-(J5-Pin_3-Pad3)*%
X139730000Y-86960000D03*
%TO.P,J5,4,Pin_4*%
%TO.N,unconnected-(J5-Pin_4-Pad4)*%
X137190000Y-86960000D03*
%TD*%
D10*
%TO.P,J14,1,Pin_1*%
%TO.N,CAN_SDI*%
X144810000Y-109820000D03*
D11*
%TO.P,J14,2,Pin_2*%
X142270000Y-109820000D03*
%TO.P,J14,3,Pin_3*%
X139730000Y-109820000D03*
%TO.P,J14,4,Pin_4*%
X137190000Y-109820000D03*
%TD*%
D10*
%TO.P,J4,1,Pin_1*%
%TO.N,+5VP*%
X144810000Y-84420000D03*
D11*
%TO.P,J4,2,Pin_2*%
X142270000Y-84420000D03*
%TO.P,J4,3,Pin_3*%
X139730000Y-84420000D03*
%TO.P,J4,4,Pin_4*%
X137190000Y-84420000D03*
%TD*%
D10*
%TO.P,J12,1,Pin_1*%
%TO.N,CAN_CS*%
X144810000Y-104740000D03*
D11*
%TO.P,J12,2,Pin_2*%
X142270000Y-104740000D03*
%TO.P,J12,3,Pin_3*%
X139730000Y-104740000D03*
%TO.P,J12,4,Pin_4*%
X137190000Y-104740000D03*
%TD*%
D15*
%TO.P,J22,1,1*%
%TO.N,Net-(D3-PadC)*%
X131762000Y-67087000D03*
%TO.P,J22,2,2*%
%TO.N,BAT_GND*%
X124562000Y-67087000D03*
D16*
%TO.P,J22,S1,SHIELD*%
X134912000Y-61087000D03*
%TO.P,J22,S2,SHIELD*%
X121412000Y-61087000D03*
%TD*%
D19*
%TO.N,Net-(D3-PadC)*%
X97663000Y-67564000D03*
X98298000Y-68072000D03*
X98806000Y-68580000D03*
X96647000Y-70739000D03*
X95250000Y-69723000D03*
X96139000Y-68961000D03*
X97409000Y-69977000D03*
X96901000Y-68199000D03*
X98044000Y-69215000D03*
X97536000Y-68707000D03*
X96774000Y-69469000D03*
X95885000Y-70231000D03*
%TO.N,BAT_12V*%
X92456000Y-82550000D03*
X91821000Y-82550000D03*
X91186000Y-82550000D03*
X97282000Y-91948000D03*
%TO.N,Net-(D3-PadC)*%
X128984500Y-64309500D03*
%TO.N,BAT_12V*%
X91821000Y-81788000D03*
X91186000Y-80264000D03*
%TO.N,Net-(D3-PadC)*%
X130937000Y-65024000D03*
%TO.N,BAT_12V*%
X97282000Y-91059000D03*
%TO.N,Net-(D3-PadC)*%
X110363000Y-66294000D03*
%TO.N,BAT_12V*%
X91186000Y-81026000D03*
X91821000Y-81026000D03*
%TO.N,Net-(D3-PadC)*%
X111379000Y-64262000D03*
%TO.N,BAT_12V*%
X91821000Y-80264000D03*
%TO.N,Net-(D3-PadC)*%
X129619500Y-64944500D03*
X110363000Y-64897000D03*
X128397000Y-64897000D03*
%TO.N,BAT_12V*%
X96647000Y-90297000D03*
X92456000Y-81788000D03*
X91186000Y-81788000D03*
%TO.N,Net-(D3-PadC)*%
X111887000Y-65024000D03*
%TO.N,BAT_12V*%
X96266000Y-91948000D03*
X94615000Y-90297000D03*
%TO.N,Net-(D3-PadC)*%
X130302000Y-64516000D03*
X128905000Y-65532000D03*
%TO.N,BAT_12V*%
X95250000Y-91059000D03*
%TO.N,Net-(D3-PadC)*%
X110998000Y-65659000D03*
X129667000Y-66167000D03*
%TO.N,BAT_12V*%
X95631000Y-90297000D03*
X98298000Y-91948000D03*
X96266000Y-91059000D03*
X92456000Y-80264000D03*
X92456000Y-81026000D03*
%TO.N,Net-(D3-PadC)*%
X130254500Y-65579500D03*
X129794000Y-63754000D03*
%TO.N,BAT_GND*%
X110657095Y-94270905D03*
X109657095Y-99294905D03*
X107657095Y-92294905D03*
X111657095Y-94294905D03*
X106657095Y-98294905D03*
X108000000Y-84500000D03*
X99157095Y-101294905D03*
X108657095Y-95294905D03*
X110000000Y-76500000D03*
X107657095Y-90294905D03*
X106657095Y-95294905D03*
X106657095Y-94294905D03*
X107000000Y-80500000D03*
X111000000Y-83500000D03*
X109657095Y-95294905D03*
X107657095Y-97294905D03*
X108657095Y-100294905D03*
X111000000Y-80500000D03*
X103500000Y-79500000D03*
X103500000Y-77500000D03*
X99157095Y-102294905D03*
X108657095Y-92294905D03*
X95657095Y-100294905D03*
X109657095Y-102294905D03*
X108657095Y-93294905D03*
X107657095Y-103294905D03*
X100157095Y-100294905D03*
X106657095Y-90294905D03*
X109657095Y-101294905D03*
X107657095Y-93294905D03*
X96657095Y-103294905D03*
X97657095Y-102294905D03*
X106657095Y-97294905D03*
X110000000Y-84500000D03*
X108657095Y-102294905D03*
X107000000Y-79500000D03*
X108657095Y-103294905D03*
X107000000Y-84500000D03*
X103500000Y-80500000D03*
X110657095Y-97294905D03*
X109000000Y-84500000D03*
X110657095Y-93294905D03*
X108000000Y-79500000D03*
X95657095Y-103294905D03*
X107000000Y-85500000D03*
X108000000Y-85500000D03*
X110000000Y-85500000D03*
X108657095Y-96294905D03*
X104000000Y-84500000D03*
X111657095Y-99294905D03*
X95657095Y-101294905D03*
X109000000Y-78500000D03*
X110657095Y-100294905D03*
X96657095Y-102294905D03*
X108000000Y-78500000D03*
X104500000Y-80500000D03*
X111657095Y-100294905D03*
X110000000Y-81500000D03*
X109657095Y-100294905D03*
X110000000Y-78500000D03*
X111657095Y-93294905D03*
X107657095Y-99294905D03*
X108657095Y-98294905D03*
X104500000Y-77500000D03*
X108657095Y-97294905D03*
X110000000Y-77500000D03*
X109657095Y-98294905D03*
X110657095Y-95294905D03*
X107657095Y-95294905D03*
X109000000Y-85500000D03*
X108000000Y-82500000D03*
X111000000Y-85500000D03*
X111000000Y-84500000D03*
X103500000Y-78500000D03*
X99157095Y-100294905D03*
X110000000Y-83500000D03*
X104500000Y-75500000D03*
X107000000Y-74500000D03*
X106657095Y-100294905D03*
X111657095Y-95294905D03*
X109000000Y-83500000D03*
X96657095Y-100294905D03*
X104000000Y-85500000D03*
X103500000Y-74500000D03*
X108657095Y-94294905D03*
X111657095Y-102294905D03*
X108657095Y-101294905D03*
X109000000Y-77500000D03*
X107657095Y-100294905D03*
X106657095Y-92294905D03*
X109657095Y-93294905D03*
X109657095Y-92294905D03*
X100157095Y-101294905D03*
X109657095Y-103294905D03*
X107657095Y-101294905D03*
X111657095Y-92294905D03*
X104000000Y-83500000D03*
X111000000Y-82500000D03*
X107657095Y-102294905D03*
X107000000Y-78500000D03*
X109000000Y-80500000D03*
X103500000Y-75500000D03*
X109657095Y-97294905D03*
X109000000Y-81500000D03*
X104500000Y-79500000D03*
X110657095Y-101294905D03*
X109000000Y-76500000D03*
X110657095Y-99294905D03*
X110000000Y-80500000D03*
X104500000Y-81500000D03*
X96657095Y-101294905D03*
X104500000Y-76500000D03*
X107000000Y-77500000D03*
X104500000Y-78500000D03*
X110657095Y-92294905D03*
X111000000Y-79500000D03*
X99157095Y-103294905D03*
X110657095Y-96294905D03*
X107657095Y-98294905D03*
X109657095Y-94294905D03*
X110000000Y-79500000D03*
X95657095Y-102294905D03*
X111657095Y-103294905D03*
X111000000Y-77500000D03*
X106657095Y-102294905D03*
X110657095Y-102294905D03*
X109000000Y-79500000D03*
X111657095Y-98294905D03*
X110657095Y-98294905D03*
X106657095Y-99294905D03*
X107657095Y-94294905D03*
X108000000Y-81500000D03*
X107000000Y-82500000D03*
X104500000Y-82500000D03*
X111657095Y-101294905D03*
X104500000Y-74500000D03*
X107000000Y-83500000D03*
X108657095Y-99294905D03*
X111657095Y-97294905D03*
X106657095Y-101294905D03*
X108000000Y-77500000D03*
X106657095Y-103294905D03*
X109657095Y-96294905D03*
X110000000Y-82500000D03*
X100157095Y-103294905D03*
X111000000Y-81500000D03*
X107657095Y-91294905D03*
X110657095Y-103294905D03*
X106657095Y-96294905D03*
X97657095Y-103294905D03*
X103500000Y-81500000D03*
X111657095Y-96294905D03*
X108000000Y-80500000D03*
X106657095Y-93294905D03*
X103500000Y-76500000D03*
X111000000Y-78500000D03*
X108000000Y-83500000D03*
X107000000Y-76500000D03*
X107657095Y-96294905D03*
X100157095Y-102294905D03*
X107000000Y-81500000D03*
X106657095Y-91294905D03*
X109000000Y-82500000D03*
%TO.N,GND_5VCAN*%
X120157095Y-107294905D03*
X113157095Y-114294905D03*
X111157095Y-109294905D03*
X118157095Y-114294905D03*
X97657095Y-114294905D03*
X115157095Y-109294905D03*
X96657095Y-109294905D03*
X107157095Y-110294905D03*
X116157095Y-108294905D03*
X95657095Y-111294905D03*
X122157095Y-106294905D03*
X97657095Y-113294905D03*
X122157095Y-111294905D03*
X97657095Y-117294905D03*
X120157095Y-109294905D03*
X93657095Y-113294905D03*
X95657095Y-112294905D03*
X97657095Y-108294905D03*
X121157095Y-106294905D03*
X117157095Y-109294905D03*
X108157095Y-109294905D03*
X118157095Y-111294905D03*
X94657095Y-110294905D03*
X122157095Y-107294905D03*
X118157095Y-112294905D03*
X108157095Y-110294905D03*
X118157095Y-102294905D03*
X120157095Y-102294905D03*
X97657095Y-109294905D03*
X106157095Y-109294905D03*
X113157095Y-112294905D03*
X122157095Y-110294905D03*
X95657095Y-114294905D03*
X113157095Y-109294905D03*
X96657095Y-110294905D03*
X97657095Y-106294905D03*
X96657095Y-115294905D03*
X96657095Y-113294905D03*
X103157095Y-109294905D03*
X119157095Y-113294905D03*
X119157095Y-102294905D03*
X96657095Y-117294905D03*
X117157095Y-114294905D03*
X102157095Y-109294905D03*
X114157095Y-109294905D03*
X99657095Y-116294905D03*
X94657095Y-114294905D03*
X100657095Y-115294905D03*
X114157095Y-114294905D03*
X100657095Y-117294905D03*
X93657095Y-110294905D03*
X115157095Y-112294905D03*
X94657095Y-109294905D03*
X121157095Y-108294905D03*
X114157095Y-111294905D03*
X95657095Y-113294905D03*
X98657095Y-117294905D03*
X120157095Y-106294905D03*
X119157095Y-108294905D03*
X114157095Y-110294905D03*
X99657095Y-115294905D03*
X112157095Y-110294905D03*
X111157095Y-112294905D03*
X96657095Y-111294905D03*
X99657095Y-113294905D03*
X109157095Y-109294905D03*
X121157095Y-109294905D03*
X100657095Y-119294905D03*
X96657095Y-114294905D03*
X120157095Y-105294905D03*
X96657095Y-107294905D03*
X115157095Y-107294905D03*
X121157095Y-111294905D03*
X117157095Y-111294905D03*
X96657095Y-116294905D03*
X94657095Y-108294905D03*
X111157095Y-111294905D03*
X117157095Y-113294905D03*
X116157095Y-111294905D03*
X95657095Y-115294905D03*
X112157095Y-112294905D03*
X115157095Y-106294905D03*
X100657095Y-120294905D03*
X97657095Y-111294905D03*
X97657095Y-110294905D03*
X105157095Y-109294905D03*
X114157095Y-113294905D03*
X114157095Y-112294905D03*
X94657095Y-113294905D03*
X122157095Y-109294905D03*
X99657095Y-114294905D03*
X93657095Y-106294905D03*
X121157095Y-110294905D03*
X120157095Y-108294905D03*
X120157095Y-110294905D03*
X118157095Y-103294905D03*
X112157095Y-109294905D03*
X119157095Y-104294905D03*
X95657095Y-109294905D03*
X118157095Y-107294905D03*
X93657095Y-107294905D03*
X104157095Y-109294905D03*
X122157095Y-108294905D03*
X113157095Y-111294905D03*
X118157095Y-104294905D03*
X113157095Y-110294905D03*
X117157095Y-108294905D03*
X105157095Y-110294905D03*
X100657095Y-118294905D03*
X119157095Y-110294905D03*
X119157095Y-109294905D03*
X102157095Y-110294905D03*
X95657095Y-106294905D03*
X120157095Y-104294905D03*
X97657095Y-112294905D03*
X117157095Y-107294905D03*
X98657095Y-109294905D03*
X95657095Y-107294905D03*
X98657095Y-110294905D03*
X94657095Y-106294905D03*
X99657095Y-118294905D03*
X115157095Y-114294905D03*
X100657095Y-116294905D03*
X103157095Y-110294905D03*
X94657095Y-112294905D03*
X116157095Y-113294905D03*
X92657095Y-110294905D03*
X99657095Y-119294905D03*
X96657095Y-112294905D03*
X118157095Y-113294905D03*
X116157095Y-109294905D03*
X116157095Y-110294905D03*
X119157095Y-106294905D03*
X121157095Y-107294905D03*
X107157095Y-109294905D03*
X92657095Y-113294905D03*
X111157095Y-110294905D03*
X96657095Y-108294905D03*
X97657095Y-107294905D03*
X98657095Y-114294905D03*
X119157095Y-107294905D03*
X118157095Y-106294905D03*
X94657095Y-115294905D03*
X110157095Y-109294905D03*
X110157095Y-111294905D03*
X120157095Y-111294905D03*
X118157095Y-109294905D03*
X99657095Y-117294905D03*
X109157095Y-110294905D03*
X115157095Y-108294905D03*
X95657095Y-116294905D03*
X115157095Y-113294905D03*
X119157095Y-111294905D03*
X93657095Y-114294905D03*
X116157095Y-106294905D03*
X94657095Y-111294905D03*
X117157095Y-112294905D03*
X116157095Y-107294905D03*
X116157095Y-114294905D03*
X120157095Y-103294905D03*
X118157095Y-105294905D03*
X99657095Y-120294905D03*
X119157095Y-112294905D03*
X117157095Y-110294905D03*
X98657095Y-115294905D03*
X118157095Y-110294905D03*
X97657095Y-115294905D03*
X117157095Y-106294905D03*
X113157095Y-113294905D03*
X94657095Y-107294905D03*
X115157095Y-111294905D03*
X104157095Y-110294905D03*
X98657095Y-116294905D03*
X119157095Y-103294905D03*
X118157095Y-108294905D03*
X98657095Y-113294905D03*
X112157095Y-111294905D03*
X106157095Y-110294905D03*
X116157095Y-112294905D03*
X115157095Y-110294905D03*
X95657095Y-110294905D03*
X119157095Y-105294905D03*
X110157095Y-110294905D03*
X95657095Y-108294905D03*
X96657095Y-106294905D03*
X97657095Y-116294905D03*
%TO.N,CAN_CS*%
X133657095Y-103294905D03*
X132657095Y-98794905D03*
%TO.N,CAN_SDO*%
X133657095Y-104794905D03*
X132657095Y-97294905D03*
%TO.N,CAN_SDI*%
X133657095Y-106294905D03*
X132657095Y-95794905D03*
%TO.N,CAN_SCK*%
X132657095Y-94294905D03*
X133657095Y-107794905D03*
%TO.N,CAN_GPIO0*%
X132657095Y-92794905D03*
X133657095Y-108794905D03*
%TO.N,CAN_GPIO1*%
X133657095Y-110294905D03*
X132657095Y-91294905D03*
%TO.N,CAN_CLK*%
X130157095Y-104794905D03*
X132657095Y-88294905D03*
%TO.N,CAN_INT*%
X132657095Y-89794905D03*
X130157095Y-106294905D03*
%TO.N,Net-(U1-RXCAN)*%
X128657095Y-103294905D03*
X132657095Y-116294905D03*
%TO.N,Net-(U1-TXCAN)*%
X128657095Y-102294905D03*
X132657095Y-117294905D03*
%TO.N,CAN_LED*%
X98157095Y-79294905D03*
%TO.N,GND_VP*%
X122157095Y-92794905D03*
X125500000Y-79000000D03*
X119157095Y-93794905D03*
X121157095Y-87794905D03*
X133000000Y-77000000D03*
X123157095Y-93794905D03*
X127657095Y-115794905D03*
X122157095Y-88794905D03*
X125500000Y-75500000D03*
X118157095Y-91794905D03*
X126657095Y-116794905D03*
X120157095Y-92794905D03*
X130157095Y-101294905D03*
X134000000Y-120000000D03*
X128657095Y-115794905D03*
X128657095Y-100294905D03*
X122500000Y-79000000D03*
X120500000Y-73500000D03*
X122157095Y-93794905D03*
X121157095Y-91794905D03*
X128157095Y-100794905D03*
X124500000Y-78000000D03*
X121500000Y-79000000D03*
X123157095Y-89794905D03*
X127657095Y-114794905D03*
X126657095Y-115794905D03*
X121500000Y-73500000D03*
X124500000Y-80000000D03*
X125500000Y-74500000D03*
X128157095Y-99794905D03*
X127657095Y-112794905D03*
X120157095Y-87794905D03*
X126657095Y-110794905D03*
X127657095Y-100294905D03*
X100500000Y-77500000D03*
X134000000Y-121000000D03*
X123500000Y-73500000D03*
X120157095Y-88794905D03*
X119157095Y-89794905D03*
X123500000Y-77000000D03*
X122500000Y-74500000D03*
X120500000Y-78000000D03*
X123157095Y-88794905D03*
X127657095Y-116794905D03*
X119157095Y-90794905D03*
X124500000Y-79000000D03*
X127657095Y-110794905D03*
X120500000Y-77000000D03*
X119157095Y-92794905D03*
X118157095Y-88794905D03*
X122157095Y-87794905D03*
X125500000Y-73500000D03*
X121157095Y-93794905D03*
X118157095Y-89794905D03*
X127657095Y-111794905D03*
X125500000Y-80000000D03*
X133000000Y-121000000D03*
X132000000Y-122000000D03*
X122500000Y-77000000D03*
X127657095Y-113794905D03*
X137000000Y-77000000D03*
X118157095Y-92794905D03*
X124500000Y-74500000D03*
X122157095Y-91794905D03*
X122500000Y-73500000D03*
X133000000Y-120000000D03*
X119157095Y-91794905D03*
X121157095Y-88794905D03*
X134000000Y-122000000D03*
X131000000Y-77000000D03*
X123157095Y-92794905D03*
X121500000Y-77000000D03*
X121500000Y-78000000D03*
X126657095Y-112794905D03*
X118157095Y-90794905D03*
X134000000Y-77000000D03*
X133000000Y-122000000D03*
X126657095Y-113794905D03*
X130000000Y-77000000D03*
X124500000Y-77000000D03*
X123157095Y-91794905D03*
X121500000Y-74500000D03*
X120157095Y-90794905D03*
X127657095Y-117794905D03*
X120157095Y-91794905D03*
X121157095Y-92794905D03*
X126657095Y-111794905D03*
X118157095Y-87794905D03*
X136000000Y-77000000D03*
X128657095Y-117794905D03*
X132000000Y-77000000D03*
X120157095Y-93794905D03*
X119157095Y-88794905D03*
X129157095Y-101294905D03*
X135000000Y-77000000D03*
X124500000Y-73500000D03*
X123500000Y-79000000D03*
X123157095Y-87794905D03*
X126657095Y-117794905D03*
X125500000Y-78000000D03*
X119157095Y-87794905D03*
X128657095Y-116794905D03*
X125500000Y-77000000D03*
X126657095Y-114794905D03*
X123157095Y-90794905D03*
X120157095Y-89794905D03*
X123500000Y-78000000D03*
X122500000Y-78000000D03*
X138000000Y-77000000D03*
%TO.N,+3.3VP*%
X122000000Y-95398305D03*
X125500000Y-88500000D03*
X123000000Y-95398305D03*
X93657095Y-84294905D03*
X124000000Y-95398305D03*
%TO.N,+5VP*%
X124162500Y-82337500D03*
X123662500Y-81837500D03*
X122500000Y-80810000D03*
X121500000Y-80810000D03*
X123162500Y-81337500D03*
%TD*%
D20*
%TO.N,Net-(D3-PadC)*%
X104146530Y-63702600D02*
X109289600Y-63702600D01*
X111693500Y-66106500D02*
X112801000Y-67214000D01*
X101727000Y-64389000D02*
X96139000Y-69977000D01*
%TO.N,BAT_12V*%
X91703695Y-81143305D02*
X91821000Y-81026000D01*
X91703695Y-86242695D02*
X91703695Y-81143305D01*
%TO.N,Net-(D3-PadC)*%
X110360000Y-64773000D02*
X121910130Y-64773000D01*
%TO.N,BAT_12V*%
X97595905Y-92134905D02*
X91703695Y-86242695D01*
%TO.N,Net-(D3-PadC)*%
X110360000Y-64773000D02*
X111693500Y-66106500D01*
X101727000Y-64389000D02*
X103460130Y-64389000D01*
X103460130Y-64389000D02*
X104146530Y-63702600D01*
X121910130Y-64773000D02*
X123107530Y-63575600D01*
%TO.N,BAT_12V*%
X97857095Y-93544905D02*
X97857095Y-92134905D01*
%TO.N,Net-(D3-PadC)*%
X123107530Y-63575600D02*
X128250600Y-63575600D01*
%TO.N,BAT_12V*%
X97857095Y-92134905D02*
X97595905Y-92134905D01*
%TO.N,Net-(D3-PadC)*%
X128250600Y-63575600D02*
X131762000Y-67087000D01*
X109289600Y-63702600D02*
X110360000Y-64773000D01*
D21*
%TO.N,BAT_GND*%
X97857095Y-101044905D02*
X98907095Y-101044905D01*
D22*
X108680095Y-104770905D02*
X108680095Y-104817905D01*
D23*
X105610000Y-70430000D02*
X121219000Y-70430000D01*
D21*
X98907095Y-101044905D02*
X99157095Y-101294905D01*
D23*
X105601000Y-67214000D02*
X105601000Y-70421000D01*
D21*
X97857095Y-101044905D02*
X98407095Y-101044905D01*
D23*
X105610000Y-70430000D02*
X105610000Y-75500000D01*
X121219000Y-70430000D02*
X124562000Y-67087000D01*
D21*
X97857095Y-101044905D02*
X97407095Y-101044905D01*
X97857095Y-101044905D02*
X96907095Y-101044905D01*
D22*
X108680095Y-104770905D02*
X108681095Y-104770905D01*
D21*
X97407095Y-101044905D02*
X96657095Y-100294905D01*
D23*
X105601000Y-70421000D02*
X105610000Y-70430000D01*
D21*
X96907095Y-101044905D02*
X96657095Y-101294905D01*
X98407095Y-101044905D02*
X99157095Y-100294905D01*
%TD*%
%TA.AperFunction,Conductor*%
%TO.N,BAT_GND*%
G36*
X112100134Y-71814590D02*
G01*
X112145889Y-71867394D01*
X112157095Y-71918905D01*
X112157095Y-89226266D01*
X112137410Y-89293305D01*
X112084606Y-89339060D01*
X112015448Y-89349004D01*
X111960209Y-89326584D01*
X111848508Y-89245428D01*
X111680353Y-89159749D01*
X111680352Y-89159748D01*
X111680351Y-89159748D01*
X111500862Y-89101428D01*
X111500860Y-89101427D01*
X111500858Y-89101427D01*
X111314463Y-89071905D01*
X111314458Y-89071905D01*
X111125732Y-89071905D01*
X111125727Y-89071905D01*
X110939331Y-89101427D01*
X110759836Y-89159749D01*
X110591681Y-89245428D01*
X110525785Y-89293305D01*
X110438999Y-89356359D01*
X110438997Y-89356361D01*
X110438996Y-89356361D01*
X110305551Y-89489806D01*
X110305551Y-89489807D01*
X110305549Y-89489809D01*
X110257908Y-89555380D01*
X110194618Y-89642491D01*
X110113080Y-89802519D01*
X110065105Y-89853315D01*
X109997284Y-89870110D01*
X109931149Y-89847573D01*
X109887698Y-89792857D01*
X109878595Y-89746224D01*
X109878595Y-89524577D01*
X109878594Y-89524560D01*
X109872193Y-89465032D01*
X109872191Y-89465025D01*
X109821949Y-89330318D01*
X109821945Y-89330311D01*
X109735785Y-89215217D01*
X109735782Y-89215214D01*
X109620688Y-89129054D01*
X109620681Y-89129050D01*
X109485974Y-89078808D01*
X109485967Y-89078806D01*
X109426439Y-89072405D01*
X108930095Y-89072405D01*
X108930095Y-89901977D01*
X108851666Y-89856697D01*
X108738615Y-89826405D01*
X108621575Y-89826405D01*
X108508524Y-89856697D01*
X108430095Y-89901977D01*
X108430095Y-89072405D01*
X107933750Y-89072405D01*
X107874222Y-89078806D01*
X107874215Y-89078808D01*
X107739508Y-89129050D01*
X107739501Y-89129054D01*
X107624407Y-89215214D01*
X107624404Y-89215217D01*
X107538244Y-89330311D01*
X107538240Y-89330318D01*
X107487998Y-89465025D01*
X107487996Y-89465032D01*
X107481595Y-89524560D01*
X107481595Y-90020905D01*
X108311168Y-90020905D01*
X108265887Y-90099334D01*
X108235595Y-90212385D01*
X108235595Y-90329425D01*
X108265887Y-90442476D01*
X108311168Y-90520905D01*
X107481595Y-90520905D01*
X107481595Y-91017249D01*
X107487996Y-91076777D01*
X107487998Y-91076784D01*
X107538240Y-91211491D01*
X107538244Y-91211498D01*
X107624404Y-91326592D01*
X107624407Y-91326595D01*
X107739501Y-91412755D01*
X107739508Y-91412759D01*
X107874215Y-91463001D01*
X107874222Y-91463003D01*
X107933750Y-91469404D01*
X107933767Y-91469405D01*
X108430095Y-91469405D01*
X108430095Y-90639832D01*
X108508524Y-90685113D01*
X108621575Y-90715405D01*
X108738615Y-90715405D01*
X108851666Y-90685113D01*
X108930095Y-90639832D01*
X108930095Y-91469405D01*
X109426423Y-91469405D01*
X109426439Y-91469404D01*
X109485967Y-91463003D01*
X109485974Y-91463001D01*
X109620681Y-91412759D01*
X109620688Y-91412755D01*
X109735782Y-91326595D01*
X109735785Y-91326592D01*
X109821945Y-91211498D01*
X109821949Y-91211491D01*
X109872191Y-91076784D01*
X109872193Y-91076777D01*
X109878594Y-91017249D01*
X109878595Y-91017232D01*
X109878595Y-90795585D01*
X109898280Y-90728546D01*
X109951084Y-90682791D01*
X110020242Y-90672847D01*
X110083798Y-90701872D01*
X110113079Y-90739289D01*
X110194618Y-90899318D01*
X110305549Y-91052001D01*
X110438999Y-91185451D01*
X110591682Y-91296382D01*
X110759839Y-91382062D01*
X110939328Y-91440382D01*
X111009229Y-91451453D01*
X111125727Y-91469905D01*
X111125732Y-91469905D01*
X111314463Y-91469905D01*
X111418015Y-91453503D01*
X111500862Y-91440382D01*
X111680351Y-91382062D01*
X111848508Y-91296382D01*
X111960212Y-91215223D01*
X112026015Y-91191745D01*
X112094069Y-91207570D01*
X112142764Y-91257675D01*
X112157095Y-91315543D01*
X112157095Y-103726266D01*
X112137410Y-103793305D01*
X112084606Y-103839060D01*
X112015448Y-103849004D01*
X111960209Y-103826584D01*
X111848508Y-103745428D01*
X111680353Y-103659749D01*
X111680352Y-103659748D01*
X111680351Y-103659748D01*
X111500862Y-103601428D01*
X111500860Y-103601427D01*
X111500858Y-103601427D01*
X111314463Y-103571905D01*
X111314458Y-103571905D01*
X111125732Y-103571905D01*
X111125727Y-103571905D01*
X110939331Y-103601427D01*
X110759836Y-103659749D01*
X110591681Y-103745428D01*
X110525785Y-103793305D01*
X110438999Y-103856359D01*
X110438997Y-103856361D01*
X110438996Y-103856361D01*
X110305551Y-103989806D01*
X110305551Y-103989807D01*
X110305549Y-103989809D01*
X110257908Y-104055380D01*
X110194618Y-104142491D01*
X110113080Y-104302519D01*
X110065105Y-104353315D01*
X109997284Y-104370110D01*
X109931149Y-104347573D01*
X109887698Y-104292857D01*
X109878595Y-104246224D01*
X109878595Y-104024577D01*
X109878594Y-104024560D01*
X109872193Y-103965032D01*
X109872191Y-103965025D01*
X109821949Y-103830318D01*
X109821945Y-103830311D01*
X109735785Y-103715217D01*
X109735782Y-103715214D01*
X109620688Y-103629054D01*
X109620681Y-103629050D01*
X109485974Y-103578808D01*
X109485967Y-103578806D01*
X109426439Y-103572405D01*
X108930095Y-103572405D01*
X108930095Y-104401977D01*
X108851666Y-104356697D01*
X108738615Y-104326405D01*
X108621575Y-104326405D01*
X108508524Y-104356697D01*
X108430095Y-104401977D01*
X108430095Y-103572405D01*
X107933750Y-103572405D01*
X107874222Y-103578806D01*
X107874215Y-103578808D01*
X107739508Y-103629050D01*
X107739501Y-103629054D01*
X107624407Y-103715214D01*
X107624404Y-103715217D01*
X107538244Y-103830311D01*
X107538240Y-103830318D01*
X107487998Y-103965025D01*
X107487996Y-103965032D01*
X107481595Y-104024560D01*
X107481595Y-104520905D01*
X108311168Y-104520905D01*
X108265887Y-104599334D01*
X108235595Y-104712385D01*
X108235595Y-104829425D01*
X108265887Y-104942476D01*
X108311168Y-105020905D01*
X107481595Y-105020905D01*
X107481595Y-105517249D01*
X107487996Y-105576777D01*
X107487998Y-105576784D01*
X107538240Y-105711491D01*
X107538244Y-105711498D01*
X107624404Y-105826592D01*
X107624407Y-105826595D01*
X107739501Y-105912755D01*
X107739508Y-105912759D01*
X107874215Y-105963001D01*
X107874222Y-105963003D01*
X107933750Y-105969404D01*
X107933767Y-105969405D01*
X108430095Y-105969405D01*
X108430095Y-105139832D01*
X108508524Y-105185113D01*
X108621575Y-105215405D01*
X108738615Y-105215405D01*
X108851666Y-105185113D01*
X108930095Y-105139832D01*
X108930095Y-105969405D01*
X109426423Y-105969405D01*
X109426439Y-105969404D01*
X109485967Y-105963003D01*
X109485974Y-105963001D01*
X109620681Y-105912759D01*
X109620688Y-105912755D01*
X109735782Y-105826595D01*
X109735785Y-105826592D01*
X109821945Y-105711498D01*
X109821949Y-105711491D01*
X109872191Y-105576784D01*
X109872193Y-105576777D01*
X109878594Y-105517249D01*
X109878595Y-105517232D01*
X109878595Y-105295585D01*
X109898280Y-105228546D01*
X109951084Y-105182791D01*
X110020242Y-105172847D01*
X110083798Y-105201872D01*
X110113079Y-105239289D01*
X110194618Y-105399318D01*
X110305549Y-105552001D01*
X110438999Y-105685451D01*
X110591682Y-105796382D01*
X110759839Y-105882062D01*
X110939328Y-105940382D01*
X111009229Y-105951453D01*
X111125727Y-105969905D01*
X111125732Y-105969905D01*
X111314463Y-105969905D01*
X111418015Y-105953503D01*
X111500862Y-105940382D01*
X111680351Y-105882062D01*
X111848508Y-105796382D01*
X111960212Y-105715223D01*
X112026015Y-105691745D01*
X112094069Y-105707570D01*
X112142764Y-105757675D01*
X112157095Y-105815543D01*
X112157095Y-107170905D01*
X112137410Y-107237944D01*
X112084606Y-107283699D01*
X112033095Y-107294905D01*
X106204240Y-107294905D01*
X106137201Y-107275220D01*
X106121859Y-107263584D01*
X104658703Y-105963001D01*
X101657095Y-103294905D01*
X101657094Y-103294905D01*
X95781095Y-103294905D01*
X95714056Y-103275220D01*
X95668301Y-103222416D01*
X95657095Y-103170905D01*
X95657095Y-100418905D01*
X95676780Y-100351866D01*
X95729584Y-100306111D01*
X95781095Y-100294905D01*
X96629492Y-100294905D01*
X96696531Y-100314590D01*
X96742286Y-100367394D01*
X96752230Y-100436552D01*
X96739976Y-100475200D01*
X96694970Y-100563526D01*
X96633971Y-100751258D01*
X96603095Y-100946207D01*
X96603095Y-101143602D01*
X96633971Y-101338551D01*
X96694968Y-101526278D01*
X96784578Y-101702144D01*
X96810552Y-101737893D01*
X96810552Y-101737894D01*
X97374132Y-101174313D01*
X97391170Y-101237898D01*
X97456996Y-101351912D01*
X97550088Y-101445004D01*
X97664102Y-101510830D01*
X97727685Y-101527867D01*
X97164104Y-102091446D01*
X97164105Y-102091447D01*
X97199850Y-102117417D01*
X97199863Y-102117425D01*
X97375721Y-102207031D01*
X97563448Y-102268028D01*
X97758398Y-102298905D01*
X97955792Y-102298905D01*
X98150741Y-102268028D01*
X98338468Y-102207031D01*
X98514336Y-102117421D01*
X98550083Y-102091448D01*
X98550083Y-102091446D01*
X97986505Y-101527867D01*
X98050088Y-101510830D01*
X98164102Y-101445004D01*
X98257194Y-101351912D01*
X98323020Y-101237898D01*
X98340057Y-101174314D01*
X98903636Y-101737893D01*
X98903638Y-101737893D01*
X98929611Y-101702146D01*
X99019221Y-101526278D01*
X99080218Y-101338551D01*
X99111095Y-101143602D01*
X99111095Y-100946207D01*
X99080218Y-100751258D01*
X99019219Y-100563526D01*
X98974214Y-100475200D01*
X98961317Y-100406531D01*
X98987593Y-100341791D01*
X99044699Y-100301533D01*
X99084698Y-100294905D01*
X100657095Y-100294905D01*
X100657095Y-95794905D01*
X99590156Y-94727966D01*
X99556671Y-94666643D01*
X99561655Y-94596951D01*
X99570445Y-94578294D01*
X99655138Y-94431602D01*
X99755493Y-94189324D01*
X99823365Y-93936021D01*
X99857595Y-93676025D01*
X99857595Y-92918905D01*
X99877280Y-92851866D01*
X99930084Y-92806111D01*
X99981595Y-92794905D01*
X101157095Y-92794905D01*
X101157095Y-85418905D01*
X101176780Y-85351866D01*
X101229584Y-85306111D01*
X101281095Y-85294905D01*
X102157095Y-85294905D01*
X102157095Y-74753655D01*
X104411500Y-74753655D01*
X104411500Y-75250000D01*
X105241073Y-75250000D01*
X105195792Y-75328429D01*
X105165500Y-75441480D01*
X105165500Y-75558520D01*
X105195792Y-75671571D01*
X105241073Y-75750000D01*
X104411500Y-75750000D01*
X104411500Y-76246344D01*
X104417901Y-76305872D01*
X104417903Y-76305879D01*
X104468145Y-76440586D01*
X104468149Y-76440593D01*
X104554309Y-76555687D01*
X104554312Y-76555690D01*
X104669406Y-76641850D01*
X104669413Y-76641854D01*
X104804120Y-76692096D01*
X104804127Y-76692098D01*
X104863655Y-76698499D01*
X104863672Y-76698500D01*
X105360000Y-76698500D01*
X105360000Y-75868927D01*
X105438429Y-75914208D01*
X105551480Y-75944500D01*
X105668520Y-75944500D01*
X105781571Y-75914208D01*
X105860000Y-75868927D01*
X105860000Y-76698500D01*
X106356328Y-76698500D01*
X106356344Y-76698499D01*
X106415872Y-76692098D01*
X106415879Y-76692096D01*
X106550586Y-76641854D01*
X106550593Y-76641850D01*
X106665687Y-76555690D01*
X106665690Y-76555687D01*
X106751850Y-76440593D01*
X106751854Y-76440586D01*
X106802096Y-76305879D01*
X106802098Y-76305872D01*
X106808499Y-76246344D01*
X106808500Y-76246327D01*
X106808500Y-76024680D01*
X106828185Y-75957641D01*
X106880989Y-75911886D01*
X106950147Y-75901942D01*
X107013703Y-75930967D01*
X107042984Y-75968384D01*
X107124523Y-76128413D01*
X107235454Y-76281096D01*
X107368904Y-76414546D01*
X107521587Y-76525477D01*
X107689744Y-76611157D01*
X107869233Y-76669477D01*
X107939134Y-76680548D01*
X108055632Y-76699000D01*
X108055637Y-76699000D01*
X108244368Y-76699000D01*
X108347920Y-76682598D01*
X108430767Y-76669477D01*
X108610256Y-76611157D01*
X108778413Y-76525477D01*
X108931096Y-76414546D01*
X109064546Y-76281096D01*
X109175477Y-76128413D01*
X109261157Y-75960256D01*
X109302333Y-75833529D01*
X109341768Y-75775858D01*
X109406127Y-75748659D01*
X109474973Y-75760573D01*
X109526449Y-75807817D01*
X109538193Y-75833533D01*
X109579304Y-75960061D01*
X109579305Y-75960063D01*
X109664952Y-76128153D01*
X109683189Y-76153255D01*
X109683190Y-76153255D01*
X110252352Y-75584093D01*
X110275792Y-75671571D01*
X110334311Y-75772930D01*
X110417070Y-75855689D01*
X110518429Y-75914208D01*
X110605905Y-75937647D01*
X110036743Y-76506808D01*
X110036743Y-76506809D01*
X110061844Y-76525046D01*
X110229935Y-76610694D01*
X110229938Y-76610695D01*
X110409349Y-76668988D01*
X110595677Y-76698500D01*
X110784323Y-76698500D01*
X110970650Y-76668988D01*
X111150061Y-76610695D01*
X111150064Y-76610694D01*
X111318151Y-76525048D01*
X111343255Y-76506808D01*
X111343256Y-76506808D01*
X110774095Y-75937647D01*
X110861571Y-75914208D01*
X110962930Y-75855689D01*
X111045689Y-75772930D01*
X111104208Y-75671571D01*
X111127647Y-75584094D01*
X111696808Y-76153256D01*
X111696808Y-76153255D01*
X111715048Y-76128151D01*
X111800694Y-75960064D01*
X111800695Y-75960061D01*
X111858988Y-75780650D01*
X111888500Y-75594323D01*
X111888500Y-75405676D01*
X111858988Y-75219349D01*
X111800695Y-75039938D01*
X111800694Y-75039935D01*
X111715046Y-74871844D01*
X111696809Y-74846743D01*
X111696808Y-74846743D01*
X111127647Y-75415904D01*
X111104208Y-75328429D01*
X111045689Y-75227070D01*
X110962930Y-75144311D01*
X110861571Y-75085792D01*
X110774094Y-75062352D01*
X111343255Y-74493190D01*
X111343255Y-74493189D01*
X111318153Y-74474952D01*
X111150063Y-74389305D01*
X111150061Y-74389304D01*
X110970650Y-74331011D01*
X110784323Y-74301500D01*
X110595677Y-74301500D01*
X110409349Y-74331011D01*
X110229938Y-74389304D01*
X110229936Y-74389305D01*
X110061844Y-74474953D01*
X110061839Y-74474957D01*
X110036743Y-74493188D01*
X110036743Y-74493191D01*
X110605906Y-75062352D01*
X110518429Y-75085792D01*
X110417070Y-75144311D01*
X110334311Y-75227070D01*
X110275792Y-75328429D01*
X110252352Y-75415905D01*
X109683191Y-74846743D01*
X109683188Y-74846743D01*
X109664957Y-74871839D01*
X109664953Y-74871844D01*
X109579306Y-75039935D01*
X109538193Y-75166467D01*
X109498755Y-75224142D01*
X109434396Y-75251340D01*
X109365550Y-75239425D01*
X109314074Y-75192181D01*
X109302333Y-75166472D01*
X109261157Y-75039744D01*
X109175477Y-74871587D01*
X109064546Y-74718904D01*
X108931096Y-74585454D01*
X108778413Y-74474523D01*
X108719120Y-74444312D01*
X108610258Y-74388844D01*
X108610257Y-74388843D01*
X108610256Y-74388843D01*
X108430767Y-74330523D01*
X108430765Y-74330522D01*
X108430763Y-74330522D01*
X108244368Y-74301000D01*
X108244363Y-74301000D01*
X108055637Y-74301000D01*
X108055632Y-74301000D01*
X107869236Y-74330522D01*
X107689741Y-74388844D01*
X107521586Y-74474523D01*
X107434475Y-74537813D01*
X107368904Y-74585454D01*
X107368902Y-74585456D01*
X107368901Y-74585456D01*
X107235456Y-74718901D01*
X107235456Y-74718902D01*
X107235454Y-74718904D01*
X107187813Y-74784475D01*
X107124523Y-74871586D01*
X107042985Y-75031614D01*
X106995010Y-75082410D01*
X106927189Y-75099205D01*
X106861054Y-75076668D01*
X106817603Y-75021952D01*
X106808500Y-74975319D01*
X106808500Y-74753672D01*
X106808499Y-74753655D01*
X106802098Y-74694127D01*
X106802096Y-74694120D01*
X106751854Y-74559413D01*
X106751850Y-74559406D01*
X106665690Y-74444312D01*
X106665687Y-74444309D01*
X106550593Y-74358149D01*
X106550586Y-74358145D01*
X106415879Y-74307903D01*
X106415872Y-74307901D01*
X106356344Y-74301500D01*
X105860000Y-74301500D01*
X105860000Y-75131072D01*
X105781571Y-75085792D01*
X105668520Y-75055500D01*
X105551480Y-75055500D01*
X105438429Y-75085792D01*
X105360000Y-75131072D01*
X105360000Y-74301500D01*
X104863655Y-74301500D01*
X104804127Y-74307901D01*
X104804120Y-74307903D01*
X104669413Y-74358145D01*
X104669406Y-74358149D01*
X104554312Y-74444309D01*
X104554309Y-74444312D01*
X104468149Y-74559406D01*
X104468145Y-74559413D01*
X104417903Y-74694120D01*
X104417901Y-74694127D01*
X104411500Y-74753655D01*
X102157095Y-74753655D01*
X102157095Y-71918905D01*
X102176780Y-71851866D01*
X102229584Y-71806111D01*
X102281095Y-71794905D01*
X112033095Y-71794905D01*
X112100134Y-71814590D01*
G37*
%TD.AperFunction*%
%TD*%
%TA.AperFunction,Conductor*%
%TO.N,GND_5VCAN*%
G36*
X96695971Y-95314590D02*
G01*
X96741726Y-95367394D01*
X96751670Y-95436552D01*
X96739418Y-95475195D01*
X96694504Y-95563344D01*
X96694503Y-95563346D01*
X96694503Y-95563347D01*
X96633484Y-95751141D01*
X96602595Y-95946168D01*
X96602595Y-96143641D01*
X96633484Y-96338668D01*
X96694503Y-96526463D01*
X96694504Y-96526466D01*
X96784151Y-96702406D01*
X96784153Y-96702409D01*
X96900210Y-96862151D01*
X97039848Y-97001789D01*
X97189329Y-97110391D01*
X97199594Y-97117849D01*
X97330246Y-97184420D01*
X97381042Y-97232395D01*
X97397837Y-97300216D01*
X97375299Y-97366351D01*
X97330246Y-97405389D01*
X97213112Y-97465072D01*
X97199590Y-97471963D01*
X97039848Y-97588020D01*
X96900210Y-97727658D01*
X96784153Y-97887400D01*
X96694503Y-98063346D01*
X96633484Y-98251141D01*
X96602595Y-98446168D01*
X96602595Y-98643641D01*
X96633484Y-98838668D01*
X96680433Y-98983161D01*
X96694504Y-99026466D01*
X96739417Y-99114612D01*
X96752313Y-99183279D01*
X96726037Y-99248019D01*
X96668931Y-99288277D01*
X96628932Y-99294905D01*
X93657095Y-99294905D01*
X93657095Y-104794905D01*
X100533095Y-104794905D01*
X100600134Y-104814590D01*
X100645889Y-104867394D01*
X100657095Y-104918905D01*
X100657095Y-108794905D01*
X114657095Y-108794905D01*
X114657095Y-105918905D01*
X114676780Y-105851866D01*
X114729584Y-105806111D01*
X114781095Y-105794905D01*
X115639014Y-105794905D01*
X115695307Y-105808419D01*
X115839839Y-105882062D01*
X116019328Y-105940382D01*
X116089229Y-105951453D01*
X116205727Y-105969905D01*
X116205732Y-105969905D01*
X116394463Y-105969905D01*
X116498015Y-105953503D01*
X116580862Y-105940382D01*
X116760351Y-105882062D01*
X116904882Y-105808419D01*
X116961176Y-105794905D01*
X117157095Y-105794905D01*
X117157095Y-105660909D01*
X117176780Y-105593870D01*
X117193414Y-105573228D01*
X117214641Y-105552001D01*
X117325572Y-105399318D01*
X117411252Y-105231161D01*
X117469572Y-105051672D01*
X117490600Y-104918905D01*
X117499095Y-104865273D01*
X117499095Y-104676536D01*
X117469572Y-104490141D01*
X117469572Y-104490138D01*
X117411252Y-104310649D01*
X117325572Y-104142492D01*
X117214641Y-103989809D01*
X117193414Y-103968582D01*
X117178710Y-103941654D01*
X117162118Y-103915836D01*
X117161226Y-103909635D01*
X117159929Y-103907259D01*
X117157095Y-103880901D01*
X117157095Y-99418905D01*
X117176780Y-99351866D01*
X117229584Y-99306111D01*
X117281095Y-99294905D01*
X122533095Y-99294905D01*
X122600134Y-99314590D01*
X122645889Y-99367394D01*
X122657095Y-99418905D01*
X122657095Y-104120737D01*
X122637410Y-104187776D01*
X122584606Y-104233531D01*
X122515448Y-104243475D01*
X122451892Y-104214450D01*
X122422611Y-104177033D01*
X122405143Y-104142752D01*
X122386904Y-104117648D01*
X122386903Y-104117648D01*
X121817742Y-104686809D01*
X121794303Y-104599334D01*
X121735784Y-104497975D01*
X121653025Y-104415216D01*
X121551666Y-104356697D01*
X121464189Y-104333257D01*
X122033350Y-103764095D01*
X122033350Y-103764094D01*
X122008248Y-103745857D01*
X121840158Y-103660210D01*
X121840156Y-103660209D01*
X121660745Y-103601916D01*
X121474418Y-103572405D01*
X121285772Y-103572405D01*
X121099444Y-103601916D01*
X120920033Y-103660209D01*
X120920031Y-103660210D01*
X120751939Y-103745858D01*
X120751934Y-103745862D01*
X120726838Y-103764093D01*
X120726838Y-103764096D01*
X121296001Y-104333257D01*
X121208524Y-104356697D01*
X121107165Y-104415216D01*
X121024406Y-104497975D01*
X120965887Y-104599334D01*
X120942447Y-104686810D01*
X120373286Y-104117648D01*
X120373283Y-104117648D01*
X120355052Y-104142744D01*
X120355048Y-104142749D01*
X120269400Y-104310841D01*
X120269399Y-104310843D01*
X120211106Y-104490254D01*
X120181595Y-104676581D01*
X120181595Y-104865228D01*
X120211106Y-105051555D01*
X120269399Y-105230966D01*
X120269400Y-105230968D01*
X120355047Y-105399058D01*
X120373284Y-105424160D01*
X120373285Y-105424160D01*
X120942447Y-104854998D01*
X120965887Y-104942476D01*
X121024406Y-105043835D01*
X121107165Y-105126594D01*
X121208524Y-105185113D01*
X121296000Y-105208552D01*
X120726838Y-105777713D01*
X120726838Y-105777714D01*
X120751939Y-105795951D01*
X120920030Y-105881599D01*
X120920033Y-105881600D01*
X121099444Y-105939893D01*
X121285772Y-105969405D01*
X121474418Y-105969405D01*
X121660745Y-105939893D01*
X121840156Y-105881600D01*
X121840159Y-105881599D01*
X122008246Y-105795953D01*
X122033350Y-105777713D01*
X122033351Y-105777713D01*
X121464190Y-105208552D01*
X121551666Y-105185113D01*
X121653025Y-105126594D01*
X121735784Y-105043835D01*
X121794303Y-104942476D01*
X121817742Y-104854999D01*
X122386903Y-105424161D01*
X122386903Y-105424160D01*
X122405143Y-105399056D01*
X122422610Y-105364777D01*
X122470585Y-105313981D01*
X122538406Y-105297186D01*
X122604541Y-105319724D01*
X122647992Y-105374439D01*
X122657095Y-105421072D01*
X122657095Y-127203405D01*
X122637410Y-127270444D01*
X122584606Y-127316199D01*
X122533095Y-127327405D01*
X98781095Y-127327405D01*
X98714056Y-127307720D01*
X98668301Y-127254916D01*
X98657095Y-127203405D01*
X98657095Y-119192553D01*
X101736595Y-119192553D01*
X101736595Y-119397256D01*
X101768617Y-119599439D01*
X101831876Y-119794128D01*
X101924810Y-119976518D01*
X102045123Y-120142118D01*
X102189881Y-120286876D01*
X102344844Y-120399461D01*
X102355485Y-120407192D01*
X102471702Y-120466408D01*
X102537871Y-120500123D01*
X102537873Y-120500123D01*
X102537876Y-120500125D01*
X102642232Y-120534032D01*
X102732560Y-120563382D01*
X102833652Y-120579393D01*
X102934743Y-120595405D01*
X102934744Y-120595405D01*
X103139446Y-120595405D01*
X103139447Y-120595405D01*
X103341629Y-120563382D01*
X103536314Y-120500125D01*
X103718705Y-120407192D01*
X103811685Y-120339637D01*
X103884308Y-120286876D01*
X103884310Y-120286873D01*
X103884314Y-120286871D01*
X104029061Y-120142124D01*
X104029063Y-120142120D01*
X104029066Y-120142118D01*
X104081827Y-120069495D01*
X104149382Y-119976515D01*
X104242315Y-119794124D01*
X104305572Y-119599439D01*
X104337595Y-119397257D01*
X104337595Y-119192553D01*
X109356595Y-119192553D01*
X109356595Y-119397256D01*
X109388617Y-119599439D01*
X109451876Y-119794128D01*
X109544810Y-119976518D01*
X109665123Y-120142118D01*
X109809881Y-120286876D01*
X109964844Y-120399461D01*
X109975485Y-120407192D01*
X110091702Y-120466408D01*
X110157871Y-120500123D01*
X110157873Y-120500123D01*
X110157876Y-120500125D01*
X110262232Y-120534032D01*
X110352560Y-120563382D01*
X110453652Y-120579393D01*
X110554743Y-120595405D01*
X110554744Y-120595405D01*
X110759446Y-120595405D01*
X110759447Y-120595405D01*
X110961629Y-120563382D01*
X111156314Y-120500125D01*
X111338705Y-120407192D01*
X111431685Y-120339637D01*
X111504308Y-120286876D01*
X111504310Y-120286873D01*
X111504314Y-120286871D01*
X111649061Y-120142124D01*
X111649063Y-120142120D01*
X111649066Y-120142118D01*
X111701827Y-120069495D01*
X111769382Y-119976515D01*
X111862315Y-119794124D01*
X111925572Y-119599439D01*
X111957595Y-119397257D01*
X111957595Y-119192553D01*
X111925572Y-118990371D01*
X111862315Y-118795686D01*
X111862313Y-118795683D01*
X111862313Y-118795681D01*
X111828598Y-118729512D01*
X111769382Y-118613295D01*
X111761651Y-118602654D01*
X111649066Y-118447691D01*
X111504308Y-118302933D01*
X111338708Y-118182620D01*
X111338707Y-118182619D01*
X111338705Y-118182618D01*
X111281748Y-118153596D01*
X111156318Y-118089686D01*
X110961629Y-118026427D01*
X110787090Y-117998783D01*
X110759447Y-117994405D01*
X110554743Y-117994405D01*
X110530424Y-117998256D01*
X110352560Y-118026427D01*
X110157871Y-118089686D01*
X109975481Y-118182620D01*
X109809881Y-118302933D01*
X109665123Y-118447691D01*
X109544810Y-118613291D01*
X109451876Y-118795681D01*
X109388617Y-118990370D01*
X109356595Y-119192553D01*
X104337595Y-119192553D01*
X104305572Y-118990371D01*
X104242315Y-118795686D01*
X104242313Y-118795683D01*
X104242313Y-118795681D01*
X104208598Y-118729512D01*
X104149382Y-118613295D01*
X104141651Y-118602654D01*
X104029066Y-118447691D01*
X103884308Y-118302933D01*
X103718708Y-118182620D01*
X103718707Y-118182619D01*
X103718705Y-118182618D01*
X103661748Y-118153596D01*
X103536318Y-118089686D01*
X103341629Y-118026427D01*
X103167090Y-117998783D01*
X103139447Y-117994405D01*
X102934743Y-117994405D01*
X102910424Y-117998256D01*
X102732560Y-118026427D01*
X102537871Y-118089686D01*
X102355481Y-118182620D01*
X102189881Y-118302933D01*
X102045123Y-118447691D01*
X101924810Y-118613291D01*
X101831876Y-118795681D01*
X101768617Y-118990370D01*
X101736595Y-119192553D01*
X98657095Y-119192553D01*
X98657095Y-117794905D01*
X89281595Y-117794905D01*
X89214556Y-117775220D01*
X89168801Y-117722416D01*
X89157595Y-117670905D01*
X89157595Y-114192553D01*
X101736595Y-114192553D01*
X101736595Y-114397256D01*
X101768617Y-114599439D01*
X101831876Y-114794128D01*
X101924810Y-114976518D01*
X102045123Y-115142118D01*
X102189881Y-115286876D01*
X102344844Y-115399461D01*
X102355485Y-115407192D01*
X102471702Y-115466408D01*
X102537871Y-115500123D01*
X102537873Y-115500123D01*
X102537876Y-115500125D01*
X102642232Y-115534032D01*
X102732560Y-115563382D01*
X102833652Y-115579393D01*
X102934743Y-115595405D01*
X102934744Y-115595405D01*
X103139446Y-115595405D01*
X103139447Y-115595405D01*
X103341629Y-115563382D01*
X103536314Y-115500125D01*
X103718705Y-115407192D01*
X103811685Y-115339637D01*
X103884308Y-115286876D01*
X103884310Y-115286873D01*
X103884314Y-115286871D01*
X104029061Y-115142124D01*
X104029063Y-115142120D01*
X104029066Y-115142118D01*
X104081827Y-115069495D01*
X104149382Y-114976515D01*
X104242315Y-114794124D01*
X104305572Y-114599439D01*
X104337595Y-114397257D01*
X104337595Y-114192553D01*
X109356595Y-114192553D01*
X109356595Y-114397256D01*
X109388617Y-114599439D01*
X109451876Y-114794128D01*
X109544810Y-114976518D01*
X109665123Y-115142118D01*
X109809881Y-115286876D01*
X109964844Y-115399461D01*
X109975485Y-115407192D01*
X110091702Y-115466408D01*
X110157871Y-115500123D01*
X110157873Y-115500123D01*
X110157876Y-115500125D01*
X110262232Y-115534032D01*
X110352560Y-115563382D01*
X110453652Y-115579393D01*
X110554743Y-115595405D01*
X110554744Y-115595405D01*
X110759446Y-115595405D01*
X110759447Y-115595405D01*
X110961629Y-115563382D01*
X111156314Y-115500125D01*
X111338705Y-115407192D01*
X111431685Y-115339637D01*
X111504308Y-115286876D01*
X111504310Y-115286873D01*
X111504314Y-115286871D01*
X111649061Y-115142124D01*
X111649063Y-115142120D01*
X111649066Y-115142118D01*
X111701827Y-115069495D01*
X111769382Y-114976515D01*
X111862315Y-114794124D01*
X111925572Y-114599439D01*
X111957595Y-114397257D01*
X111957595Y-114192553D01*
X111925572Y-113990371D01*
X111862315Y-113795686D01*
X111862313Y-113795683D01*
X111862313Y-113795681D01*
X111828598Y-113729512D01*
X111769382Y-113613295D01*
X111761651Y-113602654D01*
X111649066Y-113447691D01*
X111504308Y-113302933D01*
X111338708Y-113182620D01*
X111338707Y-113182619D01*
X111338705Y-113182618D01*
X111281748Y-113153596D01*
X111156318Y-113089686D01*
X110961629Y-113026427D01*
X110787090Y-112998783D01*
X110759447Y-112994405D01*
X110554743Y-112994405D01*
X110530424Y-112998256D01*
X110352560Y-113026427D01*
X110157871Y-113089686D01*
X109975481Y-113182620D01*
X109809881Y-113302933D01*
X109665123Y-113447691D01*
X109544810Y-113613291D01*
X109451876Y-113795681D01*
X109388617Y-113990370D01*
X109356595Y-114192553D01*
X104337595Y-114192553D01*
X104305572Y-113990371D01*
X104242315Y-113795686D01*
X104242313Y-113795683D01*
X104242313Y-113795681D01*
X104208598Y-113729512D01*
X104149382Y-113613295D01*
X104141651Y-113602654D01*
X104029066Y-113447691D01*
X103884308Y-113302933D01*
X103718708Y-113182620D01*
X103718707Y-113182619D01*
X103718705Y-113182618D01*
X103661748Y-113153596D01*
X103536318Y-113089686D01*
X103341629Y-113026427D01*
X103167090Y-112998783D01*
X103139447Y-112994405D01*
X102934743Y-112994405D01*
X102910424Y-112998256D01*
X102732560Y-113026427D01*
X102537871Y-113089686D01*
X102355481Y-113182620D01*
X102189881Y-113302933D01*
X102045123Y-113447691D01*
X101924810Y-113613291D01*
X101831876Y-113795681D01*
X101768617Y-113990370D01*
X101736595Y-114192553D01*
X89157595Y-114192553D01*
X89157595Y-95418905D01*
X89177280Y-95351866D01*
X89230084Y-95306111D01*
X89281595Y-95294905D01*
X96628932Y-95294905D01*
X96695971Y-95314590D01*
G37*
%TD.AperFunction*%
%TD*%
%TA.AperFunction,Conductor*%
%TO.N,GND_VP*%
G36*
X148099634Y-69488685D02*
G01*
X148145389Y-69541489D01*
X148156595Y-69593000D01*
X148156595Y-117670905D01*
X148136910Y-117737944D01*
X148084106Y-117783699D01*
X148032595Y-117794905D01*
X146284500Y-117794905D01*
X146217461Y-117775220D01*
X146171706Y-117722416D01*
X146160500Y-117670905D01*
X146160499Y-116542129D01*
X146160498Y-116542123D01*
X146159022Y-116528394D01*
X146154091Y-116482517D01*
X146152810Y-116479083D01*
X146103797Y-116347671D01*
X146103795Y-116347668D01*
X146056845Y-116284951D01*
X146026421Y-116244309D01*
X146002004Y-116178848D01*
X146016855Y-116110575D01*
X146026416Y-116095696D01*
X146103796Y-115992331D01*
X146154091Y-115857483D01*
X146160500Y-115797873D01*
X146160499Y-114002128D01*
X146154091Y-113942517D01*
X146152810Y-113939083D01*
X146103797Y-113807671D01*
X146103795Y-113807668D01*
X146056845Y-113744951D01*
X146026421Y-113704309D01*
X146002004Y-113638848D01*
X146016855Y-113570575D01*
X146026416Y-113555696D01*
X146103796Y-113452331D01*
X146154091Y-113317483D01*
X146160500Y-113257873D01*
X146160499Y-111462128D01*
X146154091Y-111402517D01*
X146152810Y-111399083D01*
X146103797Y-111267671D01*
X146103795Y-111267668D01*
X146026421Y-111164309D01*
X146002004Y-111098848D01*
X146016855Y-111030575D01*
X146026416Y-111015696D01*
X146103796Y-110912331D01*
X146154091Y-110777483D01*
X146160500Y-110717873D01*
X146160499Y-108922128D01*
X146154091Y-108862517D01*
X146152810Y-108859083D01*
X146103797Y-108727671D01*
X146103795Y-108727668D01*
X146026421Y-108624309D01*
X146002004Y-108558848D01*
X146016855Y-108490575D01*
X146026416Y-108475696D01*
X146103796Y-108372331D01*
X146154091Y-108237483D01*
X146160500Y-108177873D01*
X146160499Y-106382128D01*
X146154091Y-106322517D01*
X146152810Y-106319083D01*
X146103797Y-106187671D01*
X146103795Y-106187668D01*
X146056845Y-106124951D01*
X146026421Y-106084309D01*
X146002004Y-106018848D01*
X146016855Y-105950575D01*
X146026416Y-105935696D01*
X146103796Y-105832331D01*
X146154091Y-105697483D01*
X146160500Y-105637873D01*
X146160499Y-103842128D01*
X146154091Y-103782517D01*
X146152810Y-103779083D01*
X146103797Y-103647671D01*
X146103795Y-103647668D01*
X146026421Y-103544309D01*
X146002004Y-103478848D01*
X146016855Y-103410575D01*
X146026416Y-103395696D01*
X146103796Y-103292331D01*
X146154091Y-103157483D01*
X146160500Y-103097873D01*
X146160499Y-101302128D01*
X146154091Y-101242517D01*
X146152810Y-101239083D01*
X146103797Y-101107671D01*
X146103795Y-101107668D01*
X146056845Y-101044951D01*
X146026421Y-101004309D01*
X146002004Y-100938848D01*
X146016855Y-100870575D01*
X146026416Y-100855696D01*
X146103796Y-100752331D01*
X146154091Y-100617483D01*
X146160500Y-100557873D01*
X146160499Y-98762128D01*
X146154091Y-98702517D01*
X146152810Y-98699083D01*
X146103797Y-98567671D01*
X146103795Y-98567668D01*
X146056845Y-98504951D01*
X146026421Y-98464309D01*
X146002004Y-98398848D01*
X146016855Y-98330575D01*
X146026416Y-98315696D01*
X146103796Y-98212331D01*
X146154091Y-98077483D01*
X146160500Y-98017873D01*
X146160499Y-96222128D01*
X146154091Y-96162517D01*
X146152810Y-96159083D01*
X146103797Y-96027671D01*
X146103795Y-96027668D01*
X146056845Y-95964951D01*
X146026421Y-95924309D01*
X146002004Y-95858848D01*
X146016855Y-95790575D01*
X146026416Y-95775696D01*
X146103796Y-95672331D01*
X146154091Y-95537483D01*
X146160500Y-95477873D01*
X146160499Y-93682128D01*
X146155299Y-93633757D01*
X146154091Y-93622516D01*
X146103797Y-93487671D01*
X146103795Y-93487668D01*
X146084612Y-93462043D01*
X146026109Y-93383893D01*
X146001692Y-93318430D01*
X146016543Y-93250157D01*
X146026110Y-93235271D01*
X146103352Y-93132089D01*
X146103354Y-93132086D01*
X146153596Y-92997379D01*
X146153598Y-92997372D01*
X146159999Y-92937844D01*
X146160000Y-92937827D01*
X146160000Y-92290000D01*
X145243012Y-92290000D01*
X145275925Y-92232993D01*
X145310000Y-92105826D01*
X145310000Y-91974174D01*
X145275925Y-91847007D01*
X145243012Y-91790000D01*
X146160000Y-91790000D01*
X146160000Y-91142172D01*
X146159999Y-91142155D01*
X146153598Y-91082627D01*
X146153596Y-91082620D01*
X146103354Y-90947913D01*
X146103352Y-90947910D01*
X146026110Y-90844729D01*
X146001692Y-90779265D01*
X146016543Y-90710992D01*
X146026105Y-90696111D01*
X146103796Y-90592331D01*
X146154091Y-90457483D01*
X146160500Y-90397873D01*
X146160499Y-88602128D01*
X146154091Y-88542517D01*
X146152810Y-88539083D01*
X146103797Y-88407671D01*
X146103795Y-88407668D01*
X146056845Y-88344951D01*
X146026421Y-88304309D01*
X146002004Y-88238848D01*
X146016855Y-88170575D01*
X146026416Y-88155696D01*
X146103796Y-88052331D01*
X146154091Y-87917483D01*
X146160500Y-87857873D01*
X146160499Y-86062128D01*
X146154091Y-86002517D01*
X146152810Y-85999083D01*
X146103797Y-85867671D01*
X146103795Y-85867668D01*
X146056845Y-85804951D01*
X146026421Y-85764309D01*
X146002004Y-85698848D01*
X146016855Y-85630575D01*
X146026416Y-85615696D01*
X146103796Y-85512331D01*
X146154091Y-85377483D01*
X146160500Y-85317873D01*
X146160499Y-83522128D01*
X146154091Y-83462517D01*
X146152810Y-83459083D01*
X146103797Y-83327671D01*
X146103795Y-83327668D01*
X146026109Y-83223893D01*
X146001692Y-83158430D01*
X146016543Y-83090157D01*
X146026110Y-83075271D01*
X146103352Y-82972089D01*
X146103354Y-82972086D01*
X146153596Y-82837379D01*
X146153598Y-82837372D01*
X146159999Y-82777844D01*
X146160000Y-82777827D01*
X146160000Y-82130000D01*
X145243012Y-82130000D01*
X145275925Y-82072993D01*
X145310000Y-81945826D01*
X145310000Y-81814174D01*
X145275925Y-81687007D01*
X145243012Y-81630000D01*
X146160000Y-81630000D01*
X146160000Y-80982172D01*
X146159999Y-80982155D01*
X146153598Y-80922627D01*
X146153596Y-80922620D01*
X146103354Y-80787913D01*
X146103352Y-80787910D01*
X146026110Y-80684729D01*
X146001692Y-80619265D01*
X146016543Y-80550992D01*
X146026105Y-80536111D01*
X146103796Y-80432331D01*
X146154091Y-80297483D01*
X146160500Y-80237873D01*
X146160499Y-78442128D01*
X146154091Y-78382517D01*
X146152810Y-78379083D01*
X146103797Y-78247671D01*
X146103793Y-78247664D01*
X146017547Y-78132455D01*
X146017544Y-78132452D01*
X145902335Y-78046206D01*
X145902328Y-78046202D01*
X145767482Y-77995908D01*
X145767483Y-77995908D01*
X145707883Y-77989501D01*
X145707881Y-77989500D01*
X145707873Y-77989500D01*
X145707864Y-77989500D01*
X143912129Y-77989500D01*
X143912123Y-77989501D01*
X143852516Y-77995908D01*
X143717671Y-78046202D01*
X143717664Y-78046206D01*
X143602455Y-78132452D01*
X143602452Y-78132455D01*
X143516206Y-78247664D01*
X143516203Y-78247669D01*
X143467189Y-78379083D01*
X143425317Y-78435016D01*
X143359853Y-78459433D01*
X143291580Y-78444581D01*
X143263326Y-78423430D01*
X143149786Y-78309890D01*
X142977820Y-78184951D01*
X142788414Y-78088444D01*
X142788413Y-78088443D01*
X142788412Y-78088443D01*
X142586243Y-78022754D01*
X142586241Y-78022753D01*
X142586240Y-78022753D01*
X142424957Y-77997208D01*
X142376287Y-77989500D01*
X142163713Y-77989500D01*
X142115042Y-77997208D01*
X141953760Y-78022753D01*
X141751585Y-78088444D01*
X141562179Y-78184951D01*
X141390213Y-78309890D01*
X141239890Y-78460213D01*
X141114949Y-78632182D01*
X141110484Y-78640946D01*
X141062509Y-78691742D01*
X140994688Y-78708536D01*
X140928553Y-78685998D01*
X140889516Y-78640946D01*
X140885050Y-78632182D01*
X140760109Y-78460213D01*
X140609786Y-78309890D01*
X140437820Y-78184951D01*
X140248414Y-78088444D01*
X140248413Y-78088443D01*
X140248412Y-78088443D01*
X140046243Y-78022754D01*
X140046241Y-78022753D01*
X140046240Y-78022753D01*
X139884957Y-77997208D01*
X139836287Y-77989500D01*
X139623713Y-77989500D01*
X139575042Y-77997208D01*
X139413760Y-78022753D01*
X139211585Y-78088444D01*
X139022179Y-78184951D01*
X138850213Y-78309890D01*
X138699890Y-78460213D01*
X138574949Y-78632182D01*
X138570484Y-78640946D01*
X138522509Y-78691742D01*
X138454688Y-78708536D01*
X138388553Y-78685998D01*
X138349516Y-78640946D01*
X138345050Y-78632182D01*
X138220109Y-78460213D01*
X138069786Y-78309890D01*
X137897820Y-78184951D01*
X137708414Y-78088444D01*
X137708413Y-78088443D01*
X137708412Y-78088443D01*
X137506243Y-78022754D01*
X137506241Y-78022753D01*
X137506240Y-78022753D01*
X137344957Y-77997208D01*
X137296287Y-77989500D01*
X137083713Y-77989500D01*
X137035042Y-77997208D01*
X136873760Y-78022753D01*
X136671585Y-78088444D01*
X136482179Y-78184951D01*
X136310213Y-78309890D01*
X136159890Y-78460213D01*
X136034951Y-78632179D01*
X135938444Y-78821585D01*
X135872753Y-79023760D01*
X135839500Y-79233713D01*
X135839500Y-79446286D01*
X135872753Y-79656239D01*
X135938444Y-79858414D01*
X136034951Y-80047820D01*
X136159890Y-80219786D01*
X136310213Y-80370109D01*
X136482179Y-80495048D01*
X136482181Y-80495049D01*
X136482184Y-80495051D01*
X136491493Y-80499794D01*
X136542290Y-80547766D01*
X136559087Y-80615587D01*
X136536552Y-80681722D01*
X136491505Y-80720760D01*
X136482446Y-80725376D01*
X136482440Y-80725380D01*
X136428282Y-80764727D01*
X136428282Y-80764728D01*
X137060591Y-81397037D01*
X136997007Y-81414075D01*
X136882993Y-81479901D01*
X136789901Y-81572993D01*
X136724075Y-81687007D01*
X136707037Y-81750591D01*
X136074728Y-81118282D01*
X136074727Y-81118282D01*
X136035380Y-81172439D01*
X135938904Y-81361782D01*
X135873242Y-81563869D01*
X135873242Y-81563872D01*
X135840000Y-81773753D01*
X135840000Y-81986246D01*
X135873242Y-82196127D01*
X135873242Y-82196130D01*
X135938904Y-82398217D01*
X136035375Y-82587550D01*
X136074728Y-82641716D01*
X136707037Y-82009408D01*
X136724075Y-82072993D01*
X136789901Y-82187007D01*
X136882993Y-82280099D01*
X136997007Y-82345925D01*
X137060590Y-82362962D01*
X136428282Y-82995269D01*
X136428282Y-82995270D01*
X136482452Y-83034626D01*
X136482451Y-83034626D01*
X136491495Y-83039234D01*
X136542292Y-83087208D01*
X136559087Y-83155029D01*
X136536550Y-83221164D01*
X136491499Y-83260202D01*
X136482182Y-83264949D01*
X136310213Y-83389890D01*
X136159890Y-83540213D01*
X136034951Y-83712179D01*
X135938444Y-83901585D01*
X135872753Y-84103760D01*
X135839500Y-84313713D01*
X135839500Y-84526286D01*
X135872753Y-84736239D01*
X135938444Y-84938414D01*
X136034951Y-85127820D01*
X136159890Y-85299786D01*
X136310213Y-85450109D01*
X136482182Y-85575050D01*
X136490946Y-85579516D01*
X136541742Y-85627491D01*
X136558536Y-85695312D01*
X136535998Y-85761447D01*
X136490946Y-85800484D01*
X136482182Y-85804949D01*
X136310213Y-85929890D01*
X136159890Y-86080213D01*
X136034951Y-86252179D01*
X135938444Y-86441585D01*
X135872753Y-86643760D01*
X135839500Y-86853713D01*
X135839500Y-87066286D01*
X135872753Y-87276239D01*
X135938444Y-87478414D01*
X136034951Y-87667820D01*
X136159890Y-87839786D01*
X136310213Y-87990109D01*
X136482182Y-88115050D01*
X136490946Y-88119516D01*
X136541742Y-88167491D01*
X136558536Y-88235312D01*
X136535998Y-88301447D01*
X136490946Y-88340484D01*
X136482182Y-88344949D01*
X136310213Y-88469890D01*
X136159890Y-88620213D01*
X136034951Y-88792179D01*
X135938444Y-88981585D01*
X135872753Y-89183760D01*
X135845416Y-89356359D01*
X135839500Y-89393713D01*
X135839500Y-89606287D01*
X135845234Y-89642491D01*
X135871898Y-89810843D01*
X135872754Y-89816243D01*
X135929256Y-89990138D01*
X135938444Y-90018414D01*
X136034951Y-90207820D01*
X136159890Y-90379786D01*
X136310213Y-90530109D01*
X136482179Y-90655048D01*
X136482181Y-90655049D01*
X136482184Y-90655051D01*
X136491493Y-90659794D01*
X136542290Y-90707766D01*
X136559087Y-90775587D01*
X136536552Y-90841722D01*
X136491505Y-90880760D01*
X136482446Y-90885376D01*
X136482440Y-90885380D01*
X136428282Y-90924727D01*
X136428282Y-90924728D01*
X137060591Y-91557037D01*
X136997007Y-91574075D01*
X136882993Y-91639901D01*
X136789901Y-91732993D01*
X136724075Y-91847007D01*
X136707037Y-91910591D01*
X136074728Y-91278282D01*
X136074727Y-91278282D01*
X136035380Y-91332439D01*
X135938904Y-91521782D01*
X135873242Y-91723869D01*
X135873242Y-91723872D01*
X135840000Y-91933753D01*
X135840000Y-92146246D01*
X135873242Y-92356127D01*
X135873242Y-92356130D01*
X135938904Y-92558217D01*
X136035375Y-92747550D01*
X136074728Y-92801716D01*
X136707037Y-92169408D01*
X136724075Y-92232993D01*
X136789901Y-92347007D01*
X136882993Y-92440099D01*
X136997007Y-92505925D01*
X137060590Y-92522962D01*
X136428282Y-93155269D01*
X136428282Y-93155270D01*
X136482452Y-93194626D01*
X136482451Y-93194626D01*
X136491495Y-93199234D01*
X136542292Y-93247208D01*
X136559087Y-93315029D01*
X136536550Y-93381164D01*
X136491499Y-93420202D01*
X136482182Y-93424949D01*
X136310213Y-93549890D01*
X136159890Y-93700213D01*
X136034951Y-93872179D01*
X135938444Y-94061585D01*
X135872753Y-94263760D01*
X135839500Y-94473713D01*
X135839500Y-94686287D01*
X135848718Y-94744487D01*
X135858333Y-94805197D01*
X135872754Y-94896243D01*
X135934251Y-95085511D01*
X135938444Y-95098414D01*
X136034951Y-95287820D01*
X136159890Y-95459786D01*
X136310213Y-95610109D01*
X136482182Y-95735050D01*
X136490946Y-95739516D01*
X136541742Y-95787491D01*
X136558536Y-95855312D01*
X136535998Y-95921447D01*
X136490946Y-95960484D01*
X136482182Y-95964949D01*
X136310213Y-96089890D01*
X136159890Y-96240213D01*
X136034951Y-96412179D01*
X135938444Y-96601585D01*
X135872753Y-96803760D01*
X135839500Y-97013713D01*
X135839500Y-97226286D01*
X135862855Y-97373747D01*
X135872754Y-97436243D01*
X135902698Y-97528402D01*
X135938444Y-97638414D01*
X136034951Y-97827820D01*
X136159890Y-97999786D01*
X136310213Y-98150109D01*
X136482182Y-98275050D01*
X136490946Y-98279516D01*
X136541742Y-98327491D01*
X136558536Y-98395312D01*
X136535998Y-98461447D01*
X136490946Y-98500484D01*
X136482182Y-98504949D01*
X136310213Y-98629890D01*
X136159890Y-98780213D01*
X136034951Y-98952179D01*
X135938444Y-99141585D01*
X135872753Y-99343760D01*
X135839500Y-99553713D01*
X135839500Y-99766286D01*
X135872753Y-99976239D01*
X135938444Y-100178414D01*
X136034951Y-100367820D01*
X136159890Y-100539786D01*
X136310213Y-100690109D01*
X136482182Y-100815050D01*
X136490946Y-100819516D01*
X136541742Y-100867491D01*
X136558536Y-100935312D01*
X136535998Y-101001447D01*
X136490946Y-101040484D01*
X136482182Y-101044949D01*
X136310213Y-101169890D01*
X136159890Y-101320213D01*
X136034951Y-101492179D01*
X135938444Y-101681585D01*
X135872753Y-101883760D01*
X135839500Y-102093713D01*
X135839500Y-102306287D01*
X135872754Y-102516243D01*
X135924039Y-102674082D01*
X135938444Y-102718414D01*
X136034951Y-102907820D01*
X136159890Y-103079786D01*
X136310213Y-103230109D01*
X136482182Y-103355050D01*
X136490946Y-103359516D01*
X136541742Y-103407491D01*
X136558536Y-103475312D01*
X136535998Y-103541447D01*
X136490946Y-103580484D01*
X136482182Y-103584949D01*
X136310213Y-103709890D01*
X136159890Y-103860213D01*
X136034951Y-104032179D01*
X135938444Y-104221585D01*
X135872753Y-104423760D01*
X135839500Y-104633713D01*
X135839500Y-104846286D01*
X135872753Y-105056239D01*
X135938444Y-105258414D01*
X136034951Y-105447820D01*
X136159890Y-105619786D01*
X136310213Y-105770109D01*
X136482182Y-105895050D01*
X136490946Y-105899516D01*
X136541742Y-105947491D01*
X136558536Y-106015312D01*
X136535998Y-106081447D01*
X136490946Y-106120484D01*
X136482182Y-106124949D01*
X136310213Y-106249890D01*
X136159890Y-106400213D01*
X136034951Y-106572179D01*
X135938444Y-106761585D01*
X135872753Y-106963760D01*
X135839500Y-107173713D01*
X135839500Y-107386286D01*
X135867237Y-107561415D01*
X135872754Y-107596243D01*
X135911684Y-107716058D01*
X135938444Y-107798414D01*
X136034951Y-107987820D01*
X136159890Y-108159786D01*
X136310213Y-108310109D01*
X136482182Y-108435050D01*
X136490946Y-108439516D01*
X136541742Y-108487491D01*
X136558536Y-108555312D01*
X136535998Y-108621447D01*
X136490946Y-108660484D01*
X136482182Y-108664949D01*
X136310213Y-108789890D01*
X136159890Y-108940213D01*
X136034951Y-109112179D01*
X135938444Y-109301585D01*
X135872753Y-109503760D01*
X135863095Y-109564741D01*
X135839500Y-109713713D01*
X135839500Y-109926287D01*
X135872754Y-110136243D01*
X135898689Y-110216063D01*
X135938444Y-110338414D01*
X136034951Y-110527820D01*
X136159890Y-110699786D01*
X136310213Y-110850109D01*
X136482182Y-110975050D01*
X136490946Y-110979516D01*
X136541742Y-111027491D01*
X136558536Y-111095312D01*
X136535998Y-111161447D01*
X136490946Y-111200484D01*
X136482182Y-111204949D01*
X136310213Y-111329890D01*
X136159890Y-111480213D01*
X136034951Y-111652179D01*
X135938444Y-111841585D01*
X135872753Y-112043760D01*
X135839500Y-112253713D01*
X135839500Y-112466286D01*
X135872753Y-112676239D01*
X135938444Y-112878414D01*
X136034951Y-113067820D01*
X136159890Y-113239786D01*
X136310213Y-113390109D01*
X136482182Y-113515050D01*
X136490946Y-113519516D01*
X136541742Y-113567491D01*
X136558536Y-113635312D01*
X136535998Y-113701447D01*
X136490946Y-113740484D01*
X136482182Y-113744949D01*
X136310213Y-113869890D01*
X136159890Y-114020213D01*
X136034951Y-114192179D01*
X135938444Y-114381585D01*
X135872753Y-114583760D01*
X135839500Y-114793713D01*
X135839500Y-115006286D01*
X135872753Y-115216239D01*
X135938444Y-115418414D01*
X136034951Y-115607820D01*
X136159890Y-115779786D01*
X136310213Y-115930109D01*
X136482182Y-116055050D01*
X136490946Y-116059516D01*
X136541742Y-116107491D01*
X136558536Y-116175312D01*
X136535998Y-116241447D01*
X136490946Y-116280484D01*
X136482182Y-116284949D01*
X136310213Y-116409890D01*
X136159890Y-116560213D01*
X136034951Y-116732179D01*
X135938444Y-116921585D01*
X135872753Y-117123760D01*
X135839500Y-117333713D01*
X135839500Y-117546286D01*
X135869855Y-117737944D01*
X135872754Y-117756243D01*
X135888660Y-117805197D01*
X135938444Y-117958414D01*
X136034951Y-118147820D01*
X136159890Y-118319786D01*
X136310213Y-118470109D01*
X136482179Y-118595048D01*
X136482181Y-118595049D01*
X136482184Y-118595051D01*
X136671588Y-118691557D01*
X136873757Y-118757246D01*
X137083713Y-118790500D01*
X137083714Y-118790500D01*
X137296286Y-118790500D01*
X137296287Y-118790500D01*
X137506243Y-118757246D01*
X137708412Y-118691557D01*
X137897816Y-118595051D01*
X137934473Y-118568417D01*
X137960210Y-118549720D01*
X138026016Y-118526240D01*
X138094070Y-118542066D01*
X138142765Y-118592171D01*
X138157095Y-118650038D01*
X138157095Y-127203405D01*
X138137410Y-127270444D01*
X138084606Y-127316199D01*
X138033095Y-127327405D01*
X126228362Y-127327405D01*
X126161323Y-127307720D01*
X126115568Y-127254916D01*
X126104362Y-127203405D01*
X126104362Y-116216058D01*
X131856595Y-116216058D01*
X131856595Y-116373751D01*
X131887356Y-116528394D01*
X131887359Y-116528406D01*
X131947697Y-116674077D01*
X131947704Y-116674090D01*
X131982399Y-116726014D01*
X132003277Y-116792691D01*
X131984793Y-116860072D01*
X131982399Y-116863796D01*
X131947704Y-116915719D01*
X131947697Y-116915732D01*
X131887359Y-117061403D01*
X131887356Y-117061415D01*
X131856595Y-117216058D01*
X131856595Y-117373751D01*
X131887356Y-117528394D01*
X131887359Y-117528406D01*
X131947697Y-117674077D01*
X131947704Y-117674090D01*
X132035305Y-117805193D01*
X132035308Y-117805197D01*
X132146802Y-117916691D01*
X132146806Y-117916694D01*
X132277909Y-118004295D01*
X132277922Y-118004302D01*
X132423593Y-118064640D01*
X132423598Y-118064642D01*
X132578248Y-118095404D01*
X132578251Y-118095405D01*
X132578253Y-118095405D01*
X132735939Y-118095405D01*
X132735940Y-118095404D01*
X132890592Y-118064642D01*
X133036274Y-118004299D01*
X133167384Y-117916694D01*
X133278884Y-117805194D01*
X133366489Y-117674084D01*
X133426832Y-117528402D01*
X133457595Y-117373747D01*
X133457595Y-117216063D01*
X133457595Y-117216060D01*
X133457594Y-117216058D01*
X133426832Y-117061408D01*
X133368916Y-116921585D01*
X133366491Y-116915730D01*
X133366489Y-116915727D01*
X133366489Y-116915726D01*
X133331789Y-116863794D01*
X133310911Y-116797120D01*
X133329395Y-116729740D01*
X133331771Y-116726041D01*
X133366489Y-116674084D01*
X133426832Y-116528402D01*
X133457595Y-116373747D01*
X133457595Y-116216063D01*
X133457595Y-116216060D01*
X133457594Y-116216058D01*
X133448432Y-116170000D01*
X133426832Y-116061408D01*
X133426048Y-116059516D01*
X133366492Y-115915732D01*
X133366485Y-115915719D01*
X133278884Y-115784616D01*
X133278881Y-115784612D01*
X133167387Y-115673118D01*
X133167383Y-115673115D01*
X133036280Y-115585514D01*
X133036267Y-115585507D01*
X132890596Y-115525169D01*
X132890584Y-115525166D01*
X132735940Y-115494405D01*
X132735937Y-115494405D01*
X132578253Y-115494405D01*
X132578250Y-115494405D01*
X132423605Y-115525166D01*
X132423593Y-115525169D01*
X132277922Y-115585507D01*
X132277909Y-115585514D01*
X132146806Y-115673115D01*
X132146802Y-115673118D01*
X132035308Y-115784612D01*
X132035305Y-115784616D01*
X131947704Y-115915719D01*
X131947697Y-115915732D01*
X131887359Y-116061403D01*
X131887356Y-116061415D01*
X131856595Y-116216058D01*
X126104362Y-116216058D01*
X126104362Y-114294905D01*
X128657095Y-114294905D01*
X132657095Y-114294905D01*
X132657095Y-111294905D01*
X128657095Y-111294905D01*
X128657095Y-114294905D01*
X126104362Y-114294905D01*
X126104362Y-104716058D01*
X129356595Y-104716058D01*
X129356595Y-104873751D01*
X129387356Y-105028394D01*
X129387359Y-105028406D01*
X129447697Y-105174077D01*
X129447704Y-105174090D01*
X129535305Y-105305193D01*
X129535308Y-105305197D01*
X129646802Y-105416691D01*
X129646805Y-105416693D01*
X129646806Y-105416694D01*
X129672314Y-105433738D01*
X129684384Y-105441803D01*
X129729188Y-105495416D01*
X129737895Y-105564741D01*
X129707740Y-105627768D01*
X129684384Y-105648007D01*
X129646802Y-105673118D01*
X129535308Y-105784612D01*
X129535305Y-105784616D01*
X129447704Y-105915719D01*
X129447697Y-105915732D01*
X129387359Y-106061403D01*
X129387356Y-106061415D01*
X129356595Y-106216058D01*
X129356595Y-106373751D01*
X129387356Y-106528394D01*
X129387359Y-106528406D01*
X129447697Y-106674077D01*
X129447704Y-106674090D01*
X129535305Y-106805193D01*
X129535308Y-106805197D01*
X129646802Y-106916691D01*
X129646806Y-106916694D01*
X129777909Y-107004295D01*
X129777922Y-107004302D01*
X129875948Y-107044905D01*
X129923598Y-107064642D01*
X130078248Y-107095404D01*
X130078251Y-107095405D01*
X130078253Y-107095405D01*
X130235939Y-107095405D01*
X130235940Y-107095404D01*
X130390592Y-107064642D01*
X130536274Y-107004299D01*
X130667384Y-106916694D01*
X130778884Y-106805194D01*
X130866489Y-106674084D01*
X130926832Y-106528402D01*
X130957595Y-106373747D01*
X130957595Y-106216063D01*
X130957595Y-106216060D01*
X130957594Y-106216058D01*
X130951947Y-106187668D01*
X130926832Y-106061408D01*
X130880924Y-105950575D01*
X130866492Y-105915732D01*
X130866485Y-105915719D01*
X130778884Y-105784616D01*
X130778881Y-105784612D01*
X130667387Y-105673118D01*
X130667379Y-105673112D01*
X130629807Y-105648007D01*
X130585001Y-105594395D01*
X130576294Y-105525070D01*
X130606448Y-105462043D01*
X130629807Y-105441803D01*
X130656374Y-105424050D01*
X130667384Y-105416694D01*
X130778884Y-105305194D01*
X130866489Y-105174084D01*
X130926832Y-105028402D01*
X130957595Y-104873747D01*
X130957595Y-104716063D01*
X130957595Y-104716060D01*
X130957594Y-104716058D01*
X130926833Y-104561415D01*
X130926832Y-104561408D01*
X130926830Y-104561403D01*
X130866492Y-104415732D01*
X130866485Y-104415719D01*
X130778884Y-104284616D01*
X130778881Y-104284612D01*
X130667387Y-104173118D01*
X130667383Y-104173115D01*
X130536280Y-104085514D01*
X130536267Y-104085507D01*
X130390596Y-104025169D01*
X130390584Y-104025166D01*
X130235940Y-103994405D01*
X130235937Y-103994405D01*
X130078253Y-103994405D01*
X130078250Y-103994405D01*
X129923605Y-104025166D01*
X129923593Y-104025169D01*
X129777922Y-104085507D01*
X129777909Y-104085514D01*
X129646806Y-104173115D01*
X129646802Y-104173118D01*
X129535308Y-104284612D01*
X129535305Y-104284616D01*
X129447704Y-104415719D01*
X129447697Y-104415732D01*
X129387359Y-104561403D01*
X129387356Y-104561415D01*
X129356595Y-104716058D01*
X126104362Y-104716058D01*
X126104362Y-102216058D01*
X127856595Y-102216058D01*
X127856595Y-102373751D01*
X127887356Y-102528394D01*
X127887359Y-102528406D01*
X127947697Y-102674077D01*
X127947704Y-102674090D01*
X127982399Y-102726014D01*
X128003277Y-102792691D01*
X127984793Y-102860072D01*
X127982399Y-102863796D01*
X127947704Y-102915719D01*
X127947697Y-102915732D01*
X127887359Y-103061403D01*
X127887356Y-103061415D01*
X127856595Y-103216058D01*
X127856595Y-103373751D01*
X127887356Y-103528394D01*
X127887359Y-103528406D01*
X127947697Y-103674077D01*
X127947704Y-103674090D01*
X128035305Y-103805193D01*
X128035308Y-103805197D01*
X128146802Y-103916691D01*
X128146806Y-103916694D01*
X128277909Y-104004295D01*
X128277922Y-104004302D01*
X128366390Y-104040946D01*
X128423598Y-104064642D01*
X128578248Y-104095404D01*
X128578251Y-104095405D01*
X128578253Y-104095405D01*
X128735939Y-104095405D01*
X128735940Y-104095404D01*
X128890592Y-104064642D01*
X129036274Y-104004299D01*
X129167384Y-103916694D01*
X129278884Y-103805194D01*
X129366489Y-103674084D01*
X129426832Y-103528402D01*
X129457595Y-103373747D01*
X129457595Y-103216063D01*
X129457595Y-103216060D01*
X129457594Y-103216058D01*
X132856595Y-103216058D01*
X132856595Y-103373751D01*
X132887356Y-103528394D01*
X132887359Y-103528406D01*
X132947697Y-103674077D01*
X132947704Y-103674090D01*
X133035305Y-103805193D01*
X133035308Y-103805197D01*
X133146802Y-103916691D01*
X133146805Y-103916693D01*
X133146806Y-103916694D01*
X133172314Y-103933738D01*
X133184384Y-103941803D01*
X133229188Y-103995416D01*
X133237895Y-104064741D01*
X133207740Y-104127768D01*
X133184384Y-104148007D01*
X133146802Y-104173118D01*
X133035308Y-104284612D01*
X133035305Y-104284616D01*
X132947704Y-104415719D01*
X132947697Y-104415732D01*
X132887359Y-104561403D01*
X132887356Y-104561415D01*
X132856595Y-104716058D01*
X132856595Y-104873751D01*
X132887356Y-105028394D01*
X132887359Y-105028406D01*
X132947697Y-105174077D01*
X132947704Y-105174090D01*
X133035305Y-105305193D01*
X133035308Y-105305197D01*
X133146802Y-105416691D01*
X133146805Y-105416693D01*
X133146806Y-105416694D01*
X133172314Y-105433738D01*
X133184384Y-105441803D01*
X133229188Y-105495416D01*
X133237895Y-105564741D01*
X133207740Y-105627768D01*
X133184384Y-105648007D01*
X133146802Y-105673118D01*
X133035308Y-105784612D01*
X133035305Y-105784616D01*
X132947704Y-105915719D01*
X132947697Y-105915732D01*
X132887359Y-106061403D01*
X132887356Y-106061415D01*
X132856595Y-106216058D01*
X132856595Y-106373751D01*
X132887356Y-106528394D01*
X132887359Y-106528406D01*
X132947697Y-106674077D01*
X132947704Y-106674090D01*
X133035305Y-106805193D01*
X133035308Y-106805197D01*
X133146802Y-106916691D01*
X133146805Y-106916693D01*
X133146806Y-106916694D01*
X133172314Y-106933738D01*
X133184384Y-106941803D01*
X133229188Y-106995416D01*
X133237895Y-107064741D01*
X133207740Y-107127768D01*
X133184384Y-107148007D01*
X133146802Y-107173118D01*
X133035308Y-107284612D01*
X133035305Y-107284616D01*
X132947704Y-107415719D01*
X132947697Y-107415732D01*
X132887359Y-107561403D01*
X132887356Y-107561415D01*
X132856595Y-107716058D01*
X132856595Y-107873751D01*
X132887356Y-108028394D01*
X132887359Y-108028406D01*
X132947697Y-108174077D01*
X132947704Y-108174090D01*
X132982399Y-108226014D01*
X133003277Y-108292691D01*
X132984793Y-108360072D01*
X132982399Y-108363796D01*
X132947704Y-108415719D01*
X132947697Y-108415732D01*
X132887359Y-108561403D01*
X132887356Y-108561415D01*
X132856595Y-108716058D01*
X132856595Y-108873751D01*
X132887356Y-109028394D01*
X132887359Y-109028406D01*
X132947697Y-109174077D01*
X132947704Y-109174090D01*
X133035305Y-109305193D01*
X133035308Y-109305197D01*
X133146802Y-109416691D01*
X133146805Y-109416693D01*
X133146806Y-109416694D01*
X133172314Y-109433738D01*
X133184384Y-109441803D01*
X133229188Y-109495416D01*
X133237895Y-109564741D01*
X133207740Y-109627768D01*
X133184384Y-109648007D01*
X133146802Y-109673118D01*
X133035308Y-109784612D01*
X133035305Y-109784616D01*
X132947704Y-109915719D01*
X132947697Y-109915732D01*
X132887359Y-110061403D01*
X132887356Y-110061415D01*
X132856595Y-110216058D01*
X132856595Y-110373751D01*
X132887356Y-110528394D01*
X132887359Y-110528406D01*
X132947697Y-110674077D01*
X132947704Y-110674090D01*
X133035305Y-110805193D01*
X133035308Y-110805197D01*
X133146802Y-110916691D01*
X133146806Y-110916694D01*
X133277909Y-111004295D01*
X133277922Y-111004302D01*
X133341352Y-111030575D01*
X133423598Y-111064642D01*
X133577785Y-111095312D01*
X133578248Y-111095404D01*
X133578251Y-111095405D01*
X133578253Y-111095405D01*
X133735939Y-111095405D01*
X133735940Y-111095404D01*
X133890592Y-111064642D01*
X134036274Y-111004299D01*
X134167384Y-110916694D01*
X134278884Y-110805194D01*
X134366489Y-110674084D01*
X134426832Y-110528402D01*
X134457595Y-110373747D01*
X134457595Y-110216063D01*
X134457595Y-110216060D01*
X134457594Y-110216058D01*
X134426833Y-110061415D01*
X134426832Y-110061408D01*
X134426830Y-110061403D01*
X134366492Y-109915732D01*
X134366485Y-109915719D01*
X134278884Y-109784616D01*
X134278881Y-109784612D01*
X134167387Y-109673118D01*
X134167379Y-109673112D01*
X134129807Y-109648007D01*
X134085001Y-109594395D01*
X134076294Y-109525070D01*
X134106448Y-109462043D01*
X134129807Y-109441803D01*
X134156374Y-109424050D01*
X134167384Y-109416694D01*
X134278884Y-109305194D01*
X134366489Y-109174084D01*
X134426832Y-109028402D01*
X134457595Y-108873747D01*
X134457595Y-108716063D01*
X134457595Y-108716060D01*
X134457594Y-108716058D01*
X134446540Y-108660486D01*
X134426832Y-108561408D01*
X134418442Y-108541153D01*
X134366491Y-108415730D01*
X134366489Y-108415727D01*
X134366489Y-108415726D01*
X134331789Y-108363794D01*
X134310911Y-108297120D01*
X134329395Y-108229740D01*
X134331771Y-108226041D01*
X134366489Y-108174084D01*
X134426832Y-108028402D01*
X134457595Y-107873747D01*
X134457595Y-107716063D01*
X134457595Y-107716060D01*
X134457594Y-107716058D01*
X134426833Y-107561415D01*
X134426832Y-107561408D01*
X134413161Y-107528402D01*
X134366492Y-107415732D01*
X134366485Y-107415719D01*
X134278884Y-107284616D01*
X134278881Y-107284612D01*
X134167387Y-107173118D01*
X134167379Y-107173112D01*
X134129807Y-107148007D01*
X134085001Y-107094395D01*
X134076294Y-107025070D01*
X134106448Y-106962043D01*
X134129807Y-106941803D01*
X134156374Y-106924050D01*
X134167384Y-106916694D01*
X134278884Y-106805194D01*
X134366489Y-106674084D01*
X134426832Y-106528402D01*
X134457595Y-106373747D01*
X134457595Y-106216063D01*
X134457595Y-106216060D01*
X134457594Y-106216058D01*
X134451947Y-106187668D01*
X134426832Y-106061408D01*
X134380924Y-105950575D01*
X134366492Y-105915732D01*
X134366485Y-105915719D01*
X134278884Y-105784616D01*
X134278881Y-105784612D01*
X134167387Y-105673118D01*
X134167379Y-105673112D01*
X134129807Y-105648007D01*
X134085001Y-105594395D01*
X134076294Y-105525070D01*
X134106448Y-105462043D01*
X134129807Y-105441803D01*
X134156374Y-105424050D01*
X134167384Y-105416694D01*
X134278884Y-105305194D01*
X134366489Y-105174084D01*
X134426832Y-105028402D01*
X134457595Y-104873747D01*
X134457595Y-104716063D01*
X134457595Y-104716060D01*
X134457594Y-104716058D01*
X134426833Y-104561415D01*
X134426832Y-104561408D01*
X134426830Y-104561403D01*
X134366492Y-104415732D01*
X134366485Y-104415719D01*
X134278884Y-104284616D01*
X134278881Y-104284612D01*
X134167387Y-104173118D01*
X134167379Y-104173112D01*
X134129807Y-104148007D01*
X134085001Y-104094395D01*
X134076294Y-104025070D01*
X134106448Y-103962043D01*
X134129807Y-103941803D01*
X134156374Y-103924050D01*
X134167384Y-103916694D01*
X134278884Y-103805194D01*
X134366489Y-103674084D01*
X134426832Y-103528402D01*
X134457595Y-103373747D01*
X134457595Y-103216063D01*
X134457595Y-103216060D01*
X134457594Y-103216058D01*
X134446626Y-103160917D01*
X134426832Y-103061408D01*
X134426830Y-103061403D01*
X134366492Y-102915732D01*
X134366485Y-102915719D01*
X134278884Y-102784616D01*
X134278881Y-102784612D01*
X134167387Y-102673118D01*
X134167383Y-102673115D01*
X134036280Y-102585514D01*
X134036267Y-102585507D01*
X133890596Y-102525169D01*
X133890584Y-102525166D01*
X133735940Y-102494405D01*
X133735937Y-102494405D01*
X133578253Y-102494405D01*
X133578250Y-102494405D01*
X133423605Y-102525166D01*
X133423593Y-102525169D01*
X133277922Y-102585507D01*
X133277909Y-102585514D01*
X133146806Y-102673115D01*
X133146802Y-102673118D01*
X133035308Y-102784612D01*
X133035305Y-102784616D01*
X132947704Y-102915719D01*
X132947697Y-102915732D01*
X132887359Y-103061403D01*
X132887356Y-103061415D01*
X132856595Y-103216058D01*
X129457594Y-103216058D01*
X129446626Y-103160917D01*
X129426832Y-103061408D01*
X129426830Y-103061403D01*
X129366491Y-102915730D01*
X129366489Y-102915727D01*
X129366489Y-102915726D01*
X129331789Y-102863794D01*
X129310911Y-102797120D01*
X129329395Y-102729740D01*
X129331771Y-102726041D01*
X129366489Y-102674084D01*
X129426832Y-102528402D01*
X129457595Y-102373747D01*
X129457595Y-102216063D01*
X129457595Y-102216060D01*
X129457594Y-102216058D01*
X129426833Y-102061415D01*
X129426832Y-102061408D01*
X129426830Y-102061403D01*
X129366492Y-101915732D01*
X129366485Y-101915719D01*
X129278884Y-101784616D01*
X129278881Y-101784612D01*
X129167387Y-101673118D01*
X129167383Y-101673115D01*
X129036280Y-101585514D01*
X129036267Y-101585507D01*
X128890596Y-101525169D01*
X128890584Y-101525166D01*
X128735940Y-101494405D01*
X128735937Y-101494405D01*
X128578253Y-101494405D01*
X128578250Y-101494405D01*
X128423605Y-101525166D01*
X128423593Y-101525169D01*
X128277922Y-101585507D01*
X128277909Y-101585514D01*
X128146806Y-101673115D01*
X128146802Y-101673118D01*
X128035308Y-101784612D01*
X128035305Y-101784616D01*
X127947704Y-101915719D01*
X127947697Y-101915732D01*
X127887359Y-102061403D01*
X127887356Y-102061415D01*
X127856595Y-102216058D01*
X126104362Y-102216058D01*
X126104362Y-97469000D01*
X115228362Y-97469000D01*
X115161323Y-97449315D01*
X115115568Y-97396511D01*
X115104362Y-97345000D01*
X115104362Y-95319458D01*
X121199500Y-95319458D01*
X121199500Y-95477151D01*
X121230261Y-95631794D01*
X121230264Y-95631806D01*
X121290602Y-95777477D01*
X121290609Y-95777490D01*
X121378210Y-95908593D01*
X121378213Y-95908597D01*
X121489707Y-96020091D01*
X121489711Y-96020094D01*
X121620814Y-96107695D01*
X121620827Y-96107702D01*
X121744874Y-96159083D01*
X121766503Y-96168042D01*
X121921153Y-96198804D01*
X121921156Y-96198805D01*
X121921158Y-96198805D01*
X122078844Y-96198805D01*
X122078845Y-96198804D01*
X122233497Y-96168042D01*
X122379179Y-96107699D01*
X122431110Y-96072999D01*
X122497785Y-96052121D01*
X122565165Y-96070605D01*
X122568863Y-96072981D01*
X122620821Y-96107699D01*
X122620823Y-96107700D01*
X122620825Y-96107701D01*
X122744874Y-96159083D01*
X122766503Y-96168042D01*
X122921153Y-96198804D01*
X122921156Y-96198805D01*
X122921158Y-96198805D01*
X123078844Y-96198805D01*
X123078845Y-96198804D01*
X123233497Y-96168042D01*
X123379179Y-96107699D01*
X123431110Y-96072999D01*
X123497785Y-96052121D01*
X123565165Y-96070605D01*
X123568863Y-96072981D01*
X123620821Y-96107699D01*
X123620823Y-96107700D01*
X123620825Y-96107701D01*
X123744874Y-96159083D01*
X123766503Y-96168042D01*
X123921153Y-96198804D01*
X123921156Y-96198805D01*
X123921158Y-96198805D01*
X124078844Y-96198805D01*
X124078845Y-96198804D01*
X124233497Y-96168042D01*
X124379179Y-96107699D01*
X124510289Y-96020094D01*
X124621789Y-95908594D01*
X124709394Y-95777484D01*
X124769737Y-95631802D01*
X124800500Y-95477147D01*
X124800500Y-95319463D01*
X124800500Y-95319460D01*
X124800499Y-95319458D01*
X124771390Y-95173118D01*
X124769737Y-95164808D01*
X124740571Y-95094395D01*
X124709397Y-95019132D01*
X124709390Y-95019119D01*
X124621789Y-94888016D01*
X124621786Y-94888012D01*
X124510292Y-94776518D01*
X124510288Y-94776515D01*
X124379185Y-94688914D01*
X124379172Y-94688907D01*
X124233501Y-94628569D01*
X124233489Y-94628566D01*
X124078845Y-94597805D01*
X124078842Y-94597805D01*
X123921158Y-94597805D01*
X123921155Y-94597805D01*
X123766510Y-94628566D01*
X123766498Y-94628569D01*
X123620827Y-94688907D01*
X123620814Y-94688914D01*
X123568891Y-94723609D01*
X123502214Y-94744487D01*
X123434833Y-94726003D01*
X123431109Y-94723609D01*
X123379185Y-94688914D01*
X123379172Y-94688907D01*
X123233501Y-94628569D01*
X123233489Y-94628566D01*
X123078845Y-94597805D01*
X123078842Y-94597805D01*
X122921158Y-94597805D01*
X122921155Y-94597805D01*
X122766510Y-94628566D01*
X122766498Y-94628569D01*
X122620827Y-94688907D01*
X122620814Y-94688914D01*
X122568891Y-94723609D01*
X122502214Y-94744487D01*
X122434833Y-94726003D01*
X122431109Y-94723609D01*
X122379185Y-94688914D01*
X122379172Y-94688907D01*
X122233501Y-94628569D01*
X122233489Y-94628566D01*
X122078845Y-94597805D01*
X122078842Y-94597805D01*
X121921158Y-94597805D01*
X121921155Y-94597805D01*
X121766510Y-94628566D01*
X121766498Y-94628569D01*
X121620827Y-94688907D01*
X121620814Y-94688914D01*
X121489711Y-94776515D01*
X121489707Y-94776518D01*
X121378213Y-94888012D01*
X121378210Y-94888016D01*
X121290609Y-95019119D01*
X121290602Y-95019132D01*
X121230264Y-95164803D01*
X121230261Y-95164815D01*
X121199500Y-95319458D01*
X115104362Y-95319458D01*
X115104362Y-91046613D01*
X115124047Y-90979574D01*
X115176851Y-90933819D01*
X115246009Y-90923875D01*
X115309565Y-90952900D01*
X115328677Y-90973724D01*
X115385549Y-91052001D01*
X115518999Y-91185451D01*
X115671682Y-91296382D01*
X115839839Y-91382062D01*
X116019328Y-91440382D01*
X116089229Y-91451453D01*
X116205727Y-91469905D01*
X116205732Y-91469905D01*
X116394463Y-91469905D01*
X116498015Y-91453503D01*
X116580862Y-91440382D01*
X116760351Y-91382062D01*
X116928508Y-91296382D01*
X117081191Y-91185451D01*
X117214641Y-91052001D01*
X117325572Y-90899318D01*
X117411252Y-90731161D01*
X117469572Y-90551672D01*
X117486973Y-90441803D01*
X117499095Y-90365273D01*
X117499095Y-90176581D01*
X120181595Y-90176581D01*
X120181595Y-90365228D01*
X120211106Y-90551555D01*
X120269399Y-90730966D01*
X120269400Y-90730968D01*
X120355047Y-90899058D01*
X120373284Y-90924160D01*
X120373285Y-90924160D01*
X120942447Y-90354998D01*
X120965887Y-90442476D01*
X121024406Y-90543835D01*
X121107165Y-90626594D01*
X121208524Y-90685113D01*
X121296000Y-90708552D01*
X120726838Y-91277713D01*
X120726838Y-91277714D01*
X120751939Y-91295951D01*
X120920030Y-91381599D01*
X120920033Y-91381600D01*
X121099444Y-91439893D01*
X121285772Y-91469405D01*
X121474418Y-91469405D01*
X121660745Y-91439893D01*
X121840156Y-91381600D01*
X121840159Y-91381599D01*
X122008246Y-91295953D01*
X122033350Y-91277713D01*
X122033351Y-91277713D01*
X121464190Y-90708552D01*
X121551666Y-90685113D01*
X121653025Y-90626594D01*
X121735784Y-90543835D01*
X121794303Y-90442476D01*
X121817742Y-90354999D01*
X122386903Y-90924161D01*
X122386903Y-90924160D01*
X122405143Y-90899056D01*
X122490789Y-90730969D01*
X122490790Y-90730966D01*
X122549083Y-90551555D01*
X122578595Y-90365228D01*
X122578595Y-90176581D01*
X122549083Y-89990254D01*
X122490790Y-89810843D01*
X122490789Y-89810840D01*
X122405141Y-89642749D01*
X122386904Y-89617648D01*
X122386903Y-89617648D01*
X121817742Y-90186809D01*
X121794303Y-90099334D01*
X121735784Y-89997975D01*
X121653025Y-89915216D01*
X121551666Y-89856697D01*
X121464189Y-89833257D01*
X122033350Y-89264095D01*
X122033350Y-89264094D01*
X122008248Y-89245857D01*
X121840158Y-89160210D01*
X121840156Y-89160209D01*
X121660745Y-89101916D01*
X121474418Y-89072405D01*
X121285772Y-89072405D01*
X121099444Y-89101916D01*
X120920033Y-89160209D01*
X120920031Y-89160210D01*
X120751939Y-89245858D01*
X120751934Y-89245862D01*
X120726838Y-89264093D01*
X120726838Y-89264096D01*
X121296001Y-89833257D01*
X121208524Y-89856697D01*
X121107165Y-89915216D01*
X121024406Y-89997975D01*
X120965887Y-90099334D01*
X120942447Y-90186810D01*
X120373286Y-89617648D01*
X120373283Y-89617648D01*
X120355052Y-89642744D01*
X120355048Y-89642749D01*
X120269400Y-89810841D01*
X120269399Y-89810843D01*
X120211106Y-89990254D01*
X120181595Y-90176581D01*
X117499095Y-90176581D01*
X117499095Y-90176536D01*
X117469572Y-89990141D01*
X117469572Y-89990138D01*
X117411252Y-89810649D01*
X117325572Y-89642492D01*
X117214641Y-89489809D01*
X117081191Y-89356359D01*
X116928508Y-89245428D01*
X116760351Y-89159748D01*
X116580862Y-89101428D01*
X116580860Y-89101427D01*
X116580858Y-89101427D01*
X116394463Y-89071905D01*
X116394458Y-89071905D01*
X116205732Y-89071905D01*
X116205727Y-89071905D01*
X116019331Y-89101427D01*
X115839836Y-89159749D01*
X115671681Y-89245428D01*
X115638222Y-89269738D01*
X115518999Y-89356359D01*
X115518997Y-89356361D01*
X115518996Y-89356361D01*
X115385550Y-89489807D01*
X115328680Y-89568082D01*
X115273349Y-89610748D01*
X115203736Y-89616726D01*
X115141941Y-89584120D01*
X115107584Y-89523281D01*
X115104362Y-89495196D01*
X115104362Y-88421153D01*
X124699500Y-88421153D01*
X124699500Y-88578846D01*
X124730261Y-88733489D01*
X124730264Y-88733501D01*
X124790602Y-88879172D01*
X124790609Y-88879185D01*
X124878210Y-89010288D01*
X124878213Y-89010292D01*
X124989707Y-89121786D01*
X124989711Y-89121789D01*
X125120814Y-89209390D01*
X125120827Y-89209397D01*
X125208863Y-89245862D01*
X125266503Y-89269737D01*
X125421153Y-89300499D01*
X125421156Y-89300500D01*
X125421158Y-89300500D01*
X125578844Y-89300500D01*
X125578845Y-89300499D01*
X125733497Y-89269737D01*
X125879179Y-89209394D01*
X126010289Y-89121789D01*
X126121789Y-89010289D01*
X126209394Y-88879179D01*
X126213803Y-88868536D01*
X126269735Y-88733501D01*
X126269737Y-88733497D01*
X126300500Y-88578842D01*
X126300500Y-88421158D01*
X126300500Y-88421155D01*
X126300499Y-88421153D01*
X126284453Y-88340484D01*
X126269737Y-88266503D01*
X126248842Y-88216058D01*
X131856595Y-88216058D01*
X131856595Y-88373751D01*
X131887356Y-88528394D01*
X131887359Y-88528406D01*
X131947697Y-88674077D01*
X131947704Y-88674090D01*
X132035305Y-88805193D01*
X132035308Y-88805197D01*
X132146802Y-88916691D01*
X132146805Y-88916693D01*
X132146806Y-88916694D01*
X132172314Y-88933738D01*
X132184384Y-88941803D01*
X132229188Y-88995416D01*
X132237895Y-89064741D01*
X132207740Y-89127768D01*
X132184384Y-89148007D01*
X132146802Y-89173118D01*
X132035308Y-89284612D01*
X132035305Y-89284616D01*
X131947704Y-89415719D01*
X131947697Y-89415732D01*
X131887359Y-89561403D01*
X131887356Y-89561415D01*
X131856595Y-89716058D01*
X131856595Y-89873751D01*
X131887356Y-90028394D01*
X131887359Y-90028406D01*
X131947697Y-90174077D01*
X131947704Y-90174090D01*
X132035305Y-90305193D01*
X132035308Y-90305197D01*
X132146802Y-90416691D01*
X132146805Y-90416693D01*
X132146806Y-90416694D01*
X132166629Y-90429939D01*
X132184384Y-90441803D01*
X132229188Y-90495416D01*
X132237895Y-90564741D01*
X132207740Y-90627768D01*
X132184384Y-90648007D01*
X132146802Y-90673118D01*
X132035308Y-90784612D01*
X132035305Y-90784616D01*
X131947704Y-90915719D01*
X131947697Y-90915732D01*
X131887359Y-91061403D01*
X131887356Y-91061415D01*
X131856595Y-91216058D01*
X131856595Y-91373751D01*
X131887356Y-91528394D01*
X131887359Y-91528406D01*
X131947697Y-91674077D01*
X131947704Y-91674090D01*
X132035305Y-91805193D01*
X132035308Y-91805197D01*
X132146802Y-91916691D01*
X132184384Y-91941803D01*
X132229188Y-91995416D01*
X132237895Y-92064741D01*
X132207740Y-92127768D01*
X132184384Y-92148007D01*
X132146802Y-92173118D01*
X132035308Y-92284612D01*
X132035305Y-92284616D01*
X131947704Y-92415719D01*
X131947697Y-92415732D01*
X131887359Y-92561403D01*
X131887356Y-92561415D01*
X131856595Y-92716058D01*
X131856595Y-92873751D01*
X131887356Y-93028394D01*
X131887359Y-93028406D01*
X131947697Y-93174077D01*
X131947704Y-93174090D01*
X132035305Y-93305193D01*
X132035308Y-93305197D01*
X132146802Y-93416691D01*
X132146805Y-93416693D01*
X132146806Y-93416694D01*
X132172314Y-93433738D01*
X132184384Y-93441803D01*
X132229188Y-93495416D01*
X132237895Y-93564741D01*
X132207740Y-93627768D01*
X132184384Y-93648007D01*
X132146802Y-93673118D01*
X132035308Y-93784612D01*
X132035305Y-93784616D01*
X131947704Y-93915719D01*
X131947697Y-93915732D01*
X131887359Y-94061403D01*
X131887356Y-94061415D01*
X131856595Y-94216058D01*
X131856595Y-94373751D01*
X131887356Y-94528394D01*
X131887359Y-94528406D01*
X131947697Y-94674077D01*
X131947704Y-94674090D01*
X132035305Y-94805193D01*
X132035308Y-94805197D01*
X132146802Y-94916691D01*
X132146805Y-94916693D01*
X132146806Y-94916694D01*
X132172314Y-94933738D01*
X132184384Y-94941803D01*
X132229188Y-94995416D01*
X132237895Y-95064741D01*
X132207740Y-95127768D01*
X132184384Y-95148007D01*
X132146802Y-95173118D01*
X132035308Y-95284612D01*
X132035305Y-95284616D01*
X131947704Y-95415719D01*
X131947697Y-95415732D01*
X131887359Y-95561403D01*
X131887356Y-95561415D01*
X131856595Y-95716058D01*
X131856595Y-95873751D01*
X131887356Y-96028394D01*
X131887359Y-96028406D01*
X131947697Y-96174077D01*
X131947704Y-96174090D01*
X132035305Y-96305193D01*
X132035308Y-96305197D01*
X132146802Y-96416691D01*
X132146805Y-96416693D01*
X132146806Y-96416694D01*
X132153170Y-96420946D01*
X132184384Y-96441803D01*
X132229188Y-96495416D01*
X132237895Y-96564741D01*
X132207740Y-96627768D01*
X132184384Y-96648007D01*
X132146802Y-96673118D01*
X132035308Y-96784612D01*
X132035305Y-96784616D01*
X131947704Y-96915719D01*
X131947697Y-96915732D01*
X131887359Y-97061403D01*
X131887356Y-97061415D01*
X131856595Y-97216058D01*
X131856595Y-97373751D01*
X131887356Y-97528394D01*
X131887359Y-97528406D01*
X131947697Y-97674077D01*
X131947704Y-97674090D01*
X132035305Y-97805193D01*
X132035308Y-97805197D01*
X132146802Y-97916691D01*
X132146805Y-97916693D01*
X132146806Y-97916694D01*
X132172314Y-97933738D01*
X132184384Y-97941803D01*
X132229188Y-97995416D01*
X132237895Y-98064741D01*
X132207740Y-98127768D01*
X132184384Y-98148007D01*
X132146802Y-98173118D01*
X132035308Y-98284612D01*
X132035305Y-98284616D01*
X131947704Y-98415719D01*
X131947697Y-98415732D01*
X131887359Y-98561403D01*
X131887356Y-98561415D01*
X131856595Y-98716058D01*
X131856595Y-98873751D01*
X131887356Y-99028394D01*
X131887359Y-99028406D01*
X131947697Y-99174077D01*
X131947704Y-99174090D01*
X132035305Y-99305193D01*
X132035308Y-99305197D01*
X132146802Y-99416691D01*
X132146806Y-99416694D01*
X132277909Y-99504295D01*
X132277922Y-99504302D01*
X132423593Y-99564640D01*
X132423598Y-99564642D01*
X132578248Y-99595404D01*
X132578251Y-99595405D01*
X132578253Y-99595405D01*
X132735939Y-99595405D01*
X132735940Y-99595404D01*
X132890592Y-99564642D01*
X133036274Y-99504299D01*
X133167384Y-99416694D01*
X133278884Y-99305194D01*
X133366489Y-99174084D01*
X133426832Y-99028402D01*
X133457595Y-98873747D01*
X133457595Y-98716063D01*
X133457595Y-98716060D01*
X133457594Y-98716058D01*
X133426832Y-98561408D01*
X133403446Y-98504949D01*
X133366492Y-98415732D01*
X133366485Y-98415719D01*
X133278884Y-98284616D01*
X133278881Y-98284612D01*
X133167387Y-98173118D01*
X133167379Y-98173112D01*
X133129807Y-98148007D01*
X133085001Y-98094395D01*
X133076294Y-98025070D01*
X133106448Y-97962043D01*
X133129807Y-97941803D01*
X133156374Y-97924050D01*
X133167384Y-97916694D01*
X133278884Y-97805194D01*
X133366489Y-97674084D01*
X133426832Y-97528402D01*
X133457595Y-97373747D01*
X133457595Y-97216063D01*
X133457595Y-97216060D01*
X133457594Y-97216058D01*
X133426833Y-97061415D01*
X133426832Y-97061408D01*
X133407076Y-97013713D01*
X133366492Y-96915732D01*
X133366485Y-96915719D01*
X133278884Y-96784616D01*
X133278881Y-96784612D01*
X133167387Y-96673118D01*
X133167379Y-96673112D01*
X133129807Y-96648007D01*
X133085001Y-96594395D01*
X133076294Y-96525070D01*
X133106448Y-96462043D01*
X133129807Y-96441803D01*
X133161020Y-96420946D01*
X133167384Y-96416694D01*
X133278884Y-96305194D01*
X133366489Y-96174084D01*
X133368993Y-96168040D01*
X133393985Y-96107702D01*
X133426832Y-96028402D01*
X133457595Y-95873747D01*
X133457595Y-95716063D01*
X133457595Y-95716060D01*
X133457594Y-95716058D01*
X133448896Y-95672330D01*
X133426832Y-95561408D01*
X133426830Y-95561403D01*
X133366492Y-95415732D01*
X133366485Y-95415719D01*
X133278884Y-95284616D01*
X133278881Y-95284612D01*
X133167387Y-95173118D01*
X133167379Y-95173112D01*
X133129807Y-95148007D01*
X133085001Y-95094395D01*
X133076294Y-95025070D01*
X133106448Y-94962043D01*
X133129807Y-94941803D01*
X133156374Y-94924050D01*
X133167384Y-94916694D01*
X133278884Y-94805194D01*
X133366489Y-94674084D01*
X133426832Y-94528402D01*
X133457595Y-94373747D01*
X133457595Y-94216063D01*
X133457595Y-94216060D01*
X133457594Y-94216058D01*
X133438158Y-94118349D01*
X133426832Y-94061408D01*
X133426830Y-94061403D01*
X133366492Y-93915732D01*
X133366485Y-93915719D01*
X133278884Y-93784616D01*
X133278881Y-93784612D01*
X133167387Y-93673118D01*
X133167379Y-93673112D01*
X133129807Y-93648007D01*
X133085001Y-93594395D01*
X133076294Y-93525070D01*
X133106448Y-93462043D01*
X133129807Y-93441803D01*
X133162134Y-93420202D01*
X133167384Y-93416694D01*
X133278884Y-93305194D01*
X133366489Y-93174084D01*
X133426832Y-93028402D01*
X133457595Y-92873747D01*
X133457595Y-92716063D01*
X133457595Y-92716060D01*
X133457594Y-92716058D01*
X133426833Y-92561415D01*
X133426832Y-92561408D01*
X133417965Y-92540000D01*
X133366492Y-92415732D01*
X133366485Y-92415719D01*
X133278884Y-92284616D01*
X133278881Y-92284612D01*
X133167387Y-92173118D01*
X133167379Y-92173112D01*
X133129807Y-92148007D01*
X133113838Y-92128900D01*
X133094893Y-92112734D01*
X133091819Y-92102554D01*
X133085001Y-92094395D01*
X133081897Y-92069685D01*
X133074701Y-92045846D01*
X133077619Y-92035621D01*
X133076294Y-92025070D01*
X133087041Y-92002605D01*
X133093876Y-91978659D01*
X133102952Y-91969348D01*
X133106448Y-91962043D01*
X133116785Y-91951811D01*
X133122962Y-91946375D01*
X133167384Y-91916694D01*
X133278884Y-91805194D01*
X133366489Y-91674084D01*
X133426832Y-91528402D01*
X133457595Y-91373747D01*
X133457595Y-91216063D01*
X133457595Y-91216060D01*
X133457594Y-91216058D01*
X133447526Y-91165444D01*
X133426832Y-91061408D01*
X133381887Y-90952900D01*
X133366492Y-90915732D01*
X133366485Y-90915719D01*
X133278884Y-90784616D01*
X133278881Y-90784612D01*
X133167387Y-90673118D01*
X133167379Y-90673112D01*
X133129807Y-90648007D01*
X133085001Y-90594395D01*
X133076294Y-90525070D01*
X133106448Y-90462043D01*
X133129807Y-90441803D01*
X133156374Y-90424050D01*
X133167384Y-90416694D01*
X133278884Y-90305194D01*
X133366489Y-90174084D01*
X133426832Y-90028402D01*
X133457595Y-89873747D01*
X133457595Y-89716063D01*
X133457595Y-89716060D01*
X133457594Y-89716058D01*
X133442961Y-89642492D01*
X133426832Y-89561408D01*
X133426830Y-89561403D01*
X133366492Y-89415732D01*
X133366485Y-89415719D01*
X133278884Y-89284616D01*
X133278881Y-89284612D01*
X133167387Y-89173118D01*
X133167379Y-89173112D01*
X133129807Y-89148007D01*
X133085001Y-89094395D01*
X133076294Y-89025070D01*
X133106448Y-88962043D01*
X133129807Y-88941803D01*
X133156374Y-88924050D01*
X133167384Y-88916694D01*
X133278884Y-88805194D01*
X133366489Y-88674084D01*
X133426832Y-88528402D01*
X133457595Y-88373747D01*
X133457595Y-88216063D01*
X133457595Y-88216060D01*
X133457594Y-88216058D01*
X133445586Y-88155689D01*
X133426832Y-88061408D01*
X133397300Y-87990110D01*
X133366492Y-87915732D01*
X133366485Y-87915719D01*
X133278884Y-87784616D01*
X133278881Y-87784612D01*
X133167387Y-87673118D01*
X133167383Y-87673115D01*
X133036280Y-87585514D01*
X133036267Y-87585507D01*
X132890596Y-87525169D01*
X132890584Y-87525166D01*
X132735940Y-87494405D01*
X132735937Y-87494405D01*
X132578253Y-87494405D01*
X132578250Y-87494405D01*
X132423605Y-87525166D01*
X132423593Y-87525169D01*
X132277922Y-87585507D01*
X132277909Y-87585514D01*
X132146806Y-87673115D01*
X132146802Y-87673118D01*
X132035308Y-87784612D01*
X132035305Y-87784616D01*
X131947704Y-87915719D01*
X131947697Y-87915732D01*
X131887359Y-88061403D01*
X131887356Y-88061415D01*
X131856595Y-88216058D01*
X126248842Y-88216058D01*
X126223837Y-88155689D01*
X126209397Y-88120827D01*
X126209390Y-88120814D01*
X126121789Y-87989711D01*
X126121786Y-87989707D01*
X126010292Y-87878213D01*
X126010288Y-87878210D01*
X125879185Y-87790609D01*
X125879172Y-87790602D01*
X125733501Y-87730264D01*
X125733489Y-87730261D01*
X125578845Y-87699500D01*
X125578842Y-87699500D01*
X125421158Y-87699500D01*
X125421155Y-87699500D01*
X125266510Y-87730261D01*
X125266498Y-87730264D01*
X125120827Y-87790602D01*
X125120814Y-87790609D01*
X124989711Y-87878210D01*
X124989707Y-87878213D01*
X124878213Y-87989707D01*
X124878210Y-87989711D01*
X124790609Y-88120814D01*
X124790602Y-88120827D01*
X124730264Y-88266498D01*
X124730261Y-88266510D01*
X124699500Y-88421153D01*
X115104362Y-88421153D01*
X115104362Y-80731153D01*
X120699500Y-80731153D01*
X120699500Y-80888846D01*
X120730261Y-81043489D01*
X120730264Y-81043501D01*
X120790602Y-81189172D01*
X120790609Y-81189185D01*
X120878210Y-81320288D01*
X120878213Y-81320292D01*
X120989707Y-81431786D01*
X120989711Y-81431789D01*
X121120814Y-81519390D01*
X121120827Y-81519397D01*
X121266498Y-81579735D01*
X121266503Y-81579737D01*
X121358478Y-81598032D01*
X121421153Y-81610499D01*
X121421156Y-81610500D01*
X121421158Y-81610500D01*
X121578844Y-81610500D01*
X121578845Y-81610499D01*
X121733497Y-81579737D01*
X121879179Y-81519394D01*
X121931110Y-81484694D01*
X121997785Y-81463816D01*
X122065165Y-81482300D01*
X122068863Y-81484676D01*
X122120821Y-81519394D01*
X122120823Y-81519395D01*
X122120825Y-81519396D01*
X122204829Y-81554191D01*
X122266503Y-81579737D01*
X122343039Y-81594960D01*
X122404948Y-81627343D01*
X122433408Y-81669124D01*
X122453107Y-81716682D01*
X122540710Y-81847788D01*
X122540713Y-81847792D01*
X122652207Y-81959286D01*
X122652211Y-81959289D01*
X122783314Y-82046890D01*
X122783316Y-82046891D01*
X122783321Y-82046894D01*
X122855926Y-82076967D01*
X122910326Y-82120806D01*
X122923032Y-82144074D01*
X122953104Y-82216676D01*
X122953109Y-82216685D01*
X123040710Y-82347788D01*
X123040713Y-82347792D01*
X123152207Y-82459286D01*
X123152211Y-82459289D01*
X123283314Y-82546890D01*
X123283316Y-82546891D01*
X123283321Y-82546894D01*
X123355926Y-82576967D01*
X123410326Y-82620806D01*
X123423032Y-82644074D01*
X123453104Y-82716676D01*
X123453109Y-82716685D01*
X123540710Y-82847788D01*
X123540713Y-82847792D01*
X123652207Y-82959286D01*
X123652211Y-82959289D01*
X123783314Y-83046890D01*
X123783327Y-83046897D01*
X123918180Y-83102754D01*
X123929003Y-83107237D01*
X124083653Y-83137999D01*
X124083656Y-83138000D01*
X124083658Y-83138000D01*
X124241344Y-83138000D01*
X124241345Y-83137999D01*
X124395997Y-83107237D01*
X124541679Y-83046894D01*
X124672789Y-82959289D01*
X124784289Y-82847789D01*
X124871894Y-82716679D01*
X124932237Y-82570997D01*
X124963000Y-82416342D01*
X124963000Y-82258658D01*
X124963000Y-82258655D01*
X124962999Y-82258653D01*
X124950562Y-82196127D01*
X124932237Y-82104003D01*
X124921038Y-82076965D01*
X124871897Y-81958327D01*
X124871890Y-81958314D01*
X124791346Y-81837772D01*
X124784289Y-81827211D01*
X124784286Y-81827207D01*
X124672792Y-81715713D01*
X124672788Y-81715710D01*
X124541685Y-81628109D01*
X124541676Y-81628104D01*
X124469074Y-81598032D01*
X124414671Y-81554191D01*
X124401970Y-81530932D01*
X124371894Y-81458321D01*
X124371891Y-81458316D01*
X124371890Y-81458314D01*
X124284289Y-81327211D01*
X124284286Y-81327207D01*
X124172792Y-81215713D01*
X124172788Y-81215710D01*
X124041685Y-81128109D01*
X124041676Y-81128104D01*
X123969074Y-81098032D01*
X123914671Y-81054191D01*
X123901970Y-81030932D01*
X123871894Y-80958321D01*
X123871891Y-80958316D01*
X123871890Y-80958314D01*
X123784289Y-80827211D01*
X123784286Y-80827207D01*
X123672792Y-80715713D01*
X123672788Y-80715710D01*
X123541685Y-80628109D01*
X123541672Y-80628102D01*
X123396001Y-80567764D01*
X123395991Y-80567761D01*
X123319459Y-80552538D01*
X123257548Y-80520153D01*
X123229091Y-80478375D01*
X123209394Y-80430821D01*
X123168828Y-80370110D01*
X123121789Y-80299710D01*
X123010292Y-80188213D01*
X123010288Y-80188210D01*
X122879185Y-80100609D01*
X122879172Y-80100602D01*
X122733501Y-80040264D01*
X122733489Y-80040261D01*
X122578845Y-80009500D01*
X122578842Y-80009500D01*
X122421158Y-80009500D01*
X122421155Y-80009500D01*
X122266510Y-80040261D01*
X122266498Y-80040264D01*
X122120827Y-80100602D01*
X122120814Y-80100609D01*
X122068891Y-80135304D01*
X122002214Y-80156182D01*
X121934833Y-80137698D01*
X121931109Y-80135304D01*
X121879185Y-80100609D01*
X121879172Y-80100602D01*
X121733501Y-80040264D01*
X121733489Y-80040261D01*
X121578845Y-80009500D01*
X121578842Y-80009500D01*
X121421158Y-80009500D01*
X121421155Y-80009500D01*
X121266510Y-80040261D01*
X121266498Y-80040264D01*
X121120827Y-80100602D01*
X121120814Y-80100609D01*
X120989711Y-80188210D01*
X120989707Y-80188213D01*
X120878213Y-80299707D01*
X120878210Y-80299711D01*
X120790609Y-80430814D01*
X120790602Y-80430827D01*
X120730264Y-80576498D01*
X120730261Y-80576510D01*
X120699500Y-80731153D01*
X115104362Y-80731153D01*
X115104362Y-76708859D01*
X115124047Y-76641820D01*
X115176851Y-76596065D01*
X115246009Y-76586121D01*
X115284655Y-76598374D01*
X115309744Y-76611157D01*
X115489233Y-76669477D01*
X115559134Y-76680548D01*
X115675632Y-76699000D01*
X115675637Y-76699000D01*
X115864368Y-76699000D01*
X115967920Y-76682598D01*
X116050767Y-76669477D01*
X116230256Y-76611157D01*
X116398413Y-76525477D01*
X116551096Y-76414546D01*
X116684546Y-76281096D01*
X116795477Y-76128413D01*
X116881157Y-75960256D01*
X116922070Y-75834339D01*
X116961506Y-75776665D01*
X117025865Y-75749467D01*
X117094711Y-75761382D01*
X117146187Y-75808626D01*
X117157928Y-75834336D01*
X117198843Y-75960256D01*
X117284523Y-76128413D01*
X117395454Y-76281096D01*
X117528904Y-76414546D01*
X117681587Y-76525477D01*
X117849744Y-76611157D01*
X118029233Y-76669477D01*
X118099134Y-76680548D01*
X118215632Y-76699000D01*
X118215637Y-76699000D01*
X118404368Y-76699000D01*
X118507920Y-76682598D01*
X118590767Y-76669477D01*
X118770256Y-76611157D01*
X118938413Y-76525477D01*
X119091096Y-76414546D01*
X119224546Y-76281096D01*
X119335477Y-76128413D01*
X119421157Y-75960256D01*
X119462333Y-75833529D01*
X119501768Y-75775858D01*
X119566127Y-75748659D01*
X119634973Y-75760573D01*
X119686449Y-75807817D01*
X119698193Y-75833533D01*
X119739304Y-75960061D01*
X119739305Y-75960063D01*
X119824952Y-76128153D01*
X119843189Y-76153255D01*
X119843190Y-76153255D01*
X120412352Y-75584093D01*
X120435792Y-75671571D01*
X120494311Y-75772930D01*
X120577070Y-75855689D01*
X120678429Y-75914208D01*
X120765905Y-75937647D01*
X120196743Y-76506808D01*
X120196743Y-76506809D01*
X120221844Y-76525046D01*
X120389935Y-76610694D01*
X120389938Y-76610695D01*
X120569349Y-76668988D01*
X120755677Y-76698500D01*
X120944323Y-76698500D01*
X121130650Y-76668988D01*
X121310061Y-76610695D01*
X121310064Y-76610694D01*
X121478151Y-76525048D01*
X121503255Y-76506808D01*
X121503256Y-76506808D01*
X120934095Y-75937647D01*
X121021571Y-75914208D01*
X121122930Y-75855689D01*
X121205689Y-75772930D01*
X121264208Y-75671571D01*
X121287647Y-75584094D01*
X121856808Y-76153256D01*
X121856808Y-76153255D01*
X121875048Y-76128151D01*
X121960694Y-75960064D01*
X121960696Y-75960058D01*
X122001806Y-75833534D01*
X122041243Y-75775858D01*
X122105601Y-75748659D01*
X122174448Y-75760573D01*
X122225924Y-75807817D01*
X122237666Y-75833528D01*
X122244173Y-75853553D01*
X122278844Y-75960260D01*
X122364390Y-76128151D01*
X122364523Y-76128413D01*
X122475454Y-76281096D01*
X122608904Y-76414546D01*
X122761587Y-76525477D01*
X122929744Y-76611157D01*
X123109233Y-76669477D01*
X123179134Y-76680548D01*
X123295632Y-76699000D01*
X123295637Y-76699000D01*
X123484368Y-76699000D01*
X123587920Y-76682598D01*
X123670767Y-76669477D01*
X123850256Y-76611157D01*
X124018413Y-76525477D01*
X124171096Y-76414546D01*
X124304546Y-76281096D01*
X124415477Y-76128413D01*
X124501157Y-75960256D01*
X124559477Y-75780767D01*
X124576772Y-75671571D01*
X124589000Y-75594368D01*
X124589000Y-75405631D01*
X124560254Y-75224142D01*
X124559477Y-75219233D01*
X124501157Y-75039744D01*
X124415477Y-74871587D01*
X124304546Y-74718904D01*
X124171096Y-74585454D01*
X124018413Y-74474523D01*
X123850256Y-74388843D01*
X123670767Y-74330523D01*
X123670765Y-74330522D01*
X123670763Y-74330522D01*
X123484368Y-74301000D01*
X123484363Y-74301000D01*
X123295637Y-74301000D01*
X123295632Y-74301000D01*
X123109236Y-74330522D01*
X122929741Y-74388844D01*
X122761586Y-74474523D01*
X122674475Y-74537813D01*
X122608904Y-74585454D01*
X122608902Y-74585456D01*
X122608901Y-74585456D01*
X122475456Y-74718901D01*
X122475456Y-74718902D01*
X122475454Y-74718904D01*
X122427813Y-74784475D01*
X122364523Y-74871586D01*
X122278844Y-75039739D01*
X122237668Y-75166467D01*
X122198230Y-75224142D01*
X122133871Y-75251340D01*
X122065025Y-75239425D01*
X122013549Y-75192181D01*
X122001806Y-75166466D01*
X121960695Y-75039938D01*
X121960694Y-75039935D01*
X121875046Y-74871844D01*
X121856809Y-74846743D01*
X121856808Y-74846743D01*
X121287647Y-75415904D01*
X121264208Y-75328429D01*
X121205689Y-75227070D01*
X121122930Y-75144311D01*
X121021571Y-75085792D01*
X120934094Y-75062352D01*
X121503255Y-74493190D01*
X121503255Y-74493189D01*
X121478153Y-74474952D01*
X121310063Y-74389305D01*
X121310061Y-74389304D01*
X121130650Y-74331011D01*
X120944323Y-74301500D01*
X120755677Y-74301500D01*
X120569349Y-74331011D01*
X120389938Y-74389304D01*
X120389936Y-74389305D01*
X120221844Y-74474953D01*
X120221839Y-74474957D01*
X120196743Y-74493188D01*
X120196743Y-74493191D01*
X120765906Y-75062352D01*
X120678429Y-75085792D01*
X120577070Y-75144311D01*
X120494311Y-75227070D01*
X120435792Y-75328429D01*
X120412352Y-75415905D01*
X119843191Y-74846743D01*
X119843188Y-74846743D01*
X119824957Y-74871839D01*
X119824953Y-74871844D01*
X119739306Y-75039935D01*
X119698193Y-75166467D01*
X119658755Y-75224142D01*
X119594396Y-75251340D01*
X119525550Y-75239425D01*
X119474074Y-75192181D01*
X119462333Y-75166472D01*
X119421157Y-75039744D01*
X119335477Y-74871587D01*
X119224546Y-74718904D01*
X119091096Y-74585454D01*
X118938413Y-74474523D01*
X118770256Y-74388843D01*
X118590767Y-74330523D01*
X118590765Y-74330522D01*
X118590763Y-74330522D01*
X118404368Y-74301000D01*
X118404363Y-74301000D01*
X118215637Y-74301000D01*
X118215632Y-74301000D01*
X118029236Y-74330522D01*
X117849741Y-74388844D01*
X117681586Y-74474523D01*
X117594475Y-74537813D01*
X117528904Y-74585454D01*
X117528902Y-74585456D01*
X117528901Y-74585456D01*
X117395456Y-74718901D01*
X117395456Y-74718902D01*
X117395454Y-74718904D01*
X117347813Y-74784475D01*
X117284523Y-74871586D01*
X117198844Y-75039741D01*
X117157931Y-75165658D01*
X117118493Y-75223334D01*
X117054135Y-75250532D01*
X116985288Y-75238617D01*
X116933813Y-75191373D01*
X116922069Y-75165658D01*
X116881157Y-75039744D01*
X116795477Y-74871587D01*
X116684546Y-74718904D01*
X116551096Y-74585454D01*
X116398413Y-74474523D01*
X116230256Y-74388843D01*
X116050767Y-74330523D01*
X116050765Y-74330522D01*
X116050763Y-74330522D01*
X115864368Y-74301000D01*
X115864363Y-74301000D01*
X115675637Y-74301000D01*
X115675632Y-74301000D01*
X115489236Y-74330522D01*
X115309738Y-74388845D01*
X115284656Y-74401625D01*
X115215987Y-74414521D01*
X115151246Y-74388244D01*
X115110990Y-74331137D01*
X115104362Y-74291140D01*
X115104362Y-72054500D01*
X115124047Y-71987461D01*
X115176851Y-71941706D01*
X115228362Y-71930500D01*
X121337097Y-71930500D01*
X121570368Y-71893553D01*
X121794992Y-71820568D01*
X122005434Y-71713343D01*
X122196510Y-71574517D01*
X124265708Y-69505319D01*
X124327031Y-69471834D01*
X124353389Y-69469000D01*
X148032595Y-69469000D01*
X148099634Y-69488685D01*
G37*
%TD.AperFunction*%
%TA.AperFunction,Conductor*%
G36*
X139264075Y-92232993D02*
G01*
X139329901Y-92347007D01*
X139422993Y-92440099D01*
X139537007Y-92505925D01*
X139600590Y-92522962D01*
X138968282Y-93155269D01*
X138968282Y-93155270D01*
X139022452Y-93194626D01*
X139022451Y-93194626D01*
X139031495Y-93199234D01*
X139082292Y-93247208D01*
X139099087Y-93315029D01*
X139076550Y-93381164D01*
X139031499Y-93420202D01*
X139022182Y-93424949D01*
X138850213Y-93549890D01*
X138699890Y-93700213D01*
X138574949Y-93872182D01*
X138570484Y-93880946D01*
X138522509Y-93931742D01*
X138454688Y-93948536D01*
X138388553Y-93925998D01*
X138349516Y-93880946D01*
X138345050Y-93872182D01*
X138220109Y-93700213D01*
X138069786Y-93549890D01*
X137897817Y-93424949D01*
X137888504Y-93420204D01*
X137837707Y-93372230D01*
X137820912Y-93304409D01*
X137843449Y-93238274D01*
X137888507Y-93199232D01*
X137897555Y-93194622D01*
X137951716Y-93155270D01*
X137951717Y-93155270D01*
X137319408Y-92522962D01*
X137382993Y-92505925D01*
X137497007Y-92440099D01*
X137590099Y-92347007D01*
X137655925Y-92232993D01*
X137672962Y-92169408D01*
X138305270Y-92801717D01*
X138305270Y-92801716D01*
X138344622Y-92747554D01*
X138349514Y-92737954D01*
X138397488Y-92687157D01*
X138465308Y-92670361D01*
X138531444Y-92692897D01*
X138570486Y-92737954D01*
X138575375Y-92747550D01*
X138614728Y-92801716D01*
X139247037Y-92169408D01*
X139264075Y-92232993D01*
G37*
%TD.AperFunction*%
%TA.AperFunction,Conductor*%
G36*
X141804075Y-92232993D02*
G01*
X141869901Y-92347007D01*
X141962993Y-92440099D01*
X142077007Y-92505925D01*
X142140590Y-92522962D01*
X141508282Y-93155269D01*
X141508282Y-93155270D01*
X141562452Y-93194626D01*
X141562451Y-93194626D01*
X141571495Y-93199234D01*
X141622292Y-93247208D01*
X141639087Y-93315029D01*
X141616550Y-93381164D01*
X141571499Y-93420202D01*
X141562182Y-93424949D01*
X141390213Y-93549890D01*
X141239890Y-93700213D01*
X141114949Y-93872182D01*
X141110484Y-93880946D01*
X141062509Y-93931742D01*
X140994688Y-93948536D01*
X140928553Y-93925998D01*
X140889516Y-93880946D01*
X140885050Y-93872182D01*
X140760109Y-93700213D01*
X140609786Y-93549890D01*
X140437817Y-93424949D01*
X140428504Y-93420204D01*
X140377707Y-93372230D01*
X140360912Y-93304409D01*
X140383449Y-93238274D01*
X140428507Y-93199232D01*
X140437555Y-93194622D01*
X140491716Y-93155270D01*
X140491717Y-93155270D01*
X139859408Y-92522962D01*
X139922993Y-92505925D01*
X140037007Y-92440099D01*
X140130099Y-92347007D01*
X140195925Y-92232993D01*
X140212962Y-92169409D01*
X140845270Y-92801717D01*
X140845270Y-92801716D01*
X140884622Y-92747554D01*
X140889514Y-92737954D01*
X140937488Y-92687157D01*
X141005308Y-92670361D01*
X141071444Y-92692897D01*
X141110486Y-92737954D01*
X141115375Y-92747550D01*
X141154728Y-92801716D01*
X141787037Y-92169408D01*
X141804075Y-92232993D01*
G37*
%TD.AperFunction*%
%TA.AperFunction,Conductor*%
G36*
X143422356Y-92838803D02*
G01*
X143455841Y-92900126D01*
X143454926Y-92914831D01*
X143457497Y-92914555D01*
X143466401Y-92997373D01*
X143466403Y-92997380D01*
X143516645Y-93132086D01*
X143516646Y-93132088D01*
X143593890Y-93235272D01*
X143618307Y-93300736D01*
X143603456Y-93369009D01*
X143593890Y-93383894D01*
X143516204Y-93487669D01*
X143516203Y-93487669D01*
X143467189Y-93619083D01*
X143425317Y-93675016D01*
X143359853Y-93699433D01*
X143291580Y-93684581D01*
X143263326Y-93663430D01*
X143149786Y-93549890D01*
X142977817Y-93424949D01*
X142968504Y-93420204D01*
X142917707Y-93372230D01*
X142900912Y-93304409D01*
X142923449Y-93238274D01*
X142968507Y-93199232D01*
X142977555Y-93194622D01*
X143031716Y-93155270D01*
X143031717Y-93155270D01*
X142399408Y-92522962D01*
X142462993Y-92505925D01*
X142577007Y-92440099D01*
X142670099Y-92347007D01*
X142735925Y-92232993D01*
X142752962Y-92169409D01*
X143422356Y-92838803D01*
G37*
%TD.AperFunction*%
%TA.AperFunction,Conductor*%
G36*
X138531444Y-90153999D02*
G01*
X138570486Y-90199056D01*
X138574951Y-90207820D01*
X138699890Y-90379786D01*
X138850213Y-90530109D01*
X139022179Y-90655048D01*
X139022181Y-90655049D01*
X139022184Y-90655051D01*
X139031493Y-90659794D01*
X139082290Y-90707766D01*
X139099087Y-90775587D01*
X139076552Y-90841722D01*
X139031505Y-90880760D01*
X139022446Y-90885376D01*
X139022440Y-90885380D01*
X138968282Y-90924727D01*
X138968282Y-90924728D01*
X139600591Y-91557037D01*
X139537007Y-91574075D01*
X139422993Y-91639901D01*
X139329901Y-91732993D01*
X139264075Y-91847007D01*
X139247037Y-91910591D01*
X138614728Y-91278282D01*
X138614727Y-91278282D01*
X138575380Y-91332440D01*
X138570483Y-91342051D01*
X138522506Y-91392845D01*
X138454684Y-91409638D01*
X138388550Y-91387098D01*
X138349516Y-91342048D01*
X138344626Y-91332452D01*
X138305270Y-91278282D01*
X138305269Y-91278282D01*
X137672962Y-91910590D01*
X137655925Y-91847007D01*
X137590099Y-91732993D01*
X137497007Y-91639901D01*
X137382993Y-91574075D01*
X137319409Y-91557037D01*
X137951716Y-90924728D01*
X137897547Y-90885373D01*
X137897547Y-90885372D01*
X137888500Y-90880763D01*
X137837706Y-90832788D01*
X137820912Y-90764966D01*
X137843451Y-90698832D01*
X137888508Y-90659793D01*
X137897816Y-90655051D01*
X138022118Y-90564741D01*
X138069786Y-90530109D01*
X138069788Y-90530106D01*
X138069792Y-90530104D01*
X138220104Y-90379792D01*
X138220106Y-90379788D01*
X138220109Y-90379786D01*
X138345048Y-90207820D01*
X138345047Y-90207820D01*
X138345051Y-90207816D01*
X138349514Y-90199054D01*
X138397488Y-90148259D01*
X138465308Y-90131463D01*
X138531444Y-90153999D01*
G37*
%TD.AperFunction*%
%TA.AperFunction,Conductor*%
G36*
X141071444Y-90153999D02*
G01*
X141110486Y-90199056D01*
X141114951Y-90207820D01*
X141239890Y-90379786D01*
X141390213Y-90530109D01*
X141562179Y-90655048D01*
X141562181Y-90655049D01*
X141562184Y-90655051D01*
X141571493Y-90659794D01*
X141622290Y-90707766D01*
X141639087Y-90775587D01*
X141616552Y-90841722D01*
X141571505Y-90880760D01*
X141562446Y-90885376D01*
X141562440Y-90885380D01*
X141508282Y-90924727D01*
X141508282Y-90924728D01*
X142140591Y-91557037D01*
X142077007Y-91574075D01*
X141962993Y-91639901D01*
X141869901Y-91732993D01*
X141804075Y-91847007D01*
X141787037Y-91910591D01*
X141154728Y-91278282D01*
X141154727Y-91278282D01*
X141115380Y-91332440D01*
X141110483Y-91342051D01*
X141062506Y-91392845D01*
X140994684Y-91409638D01*
X140928550Y-91387098D01*
X140889516Y-91342048D01*
X140884626Y-91332452D01*
X140845270Y-91278282D01*
X140845269Y-91278282D01*
X140212962Y-91910590D01*
X140195925Y-91847007D01*
X140130099Y-91732993D01*
X140037007Y-91639901D01*
X139922993Y-91574075D01*
X139859409Y-91557037D01*
X140491716Y-90924728D01*
X140437547Y-90885373D01*
X140437547Y-90885372D01*
X140428500Y-90880763D01*
X140377706Y-90832788D01*
X140360912Y-90764966D01*
X140383451Y-90698832D01*
X140428508Y-90659793D01*
X140437816Y-90655051D01*
X140562118Y-90564741D01*
X140609786Y-90530109D01*
X140609788Y-90530106D01*
X140609792Y-90530104D01*
X140760104Y-90379792D01*
X140760106Y-90379788D01*
X140760109Y-90379786D01*
X140885048Y-90207820D01*
X140885047Y-90207820D01*
X140885051Y-90207816D01*
X140889514Y-90199054D01*
X140937488Y-90148259D01*
X141005308Y-90131463D01*
X141071444Y-90153999D01*
G37*
%TD.AperFunction*%
%TA.AperFunction,Conductor*%
G36*
X143394340Y-90388068D02*
G01*
X143450274Y-90429939D01*
X143467189Y-90460917D01*
X143516202Y-90592328D01*
X143516206Y-90592335D01*
X143593889Y-90696105D01*
X143618307Y-90761569D01*
X143603456Y-90829842D01*
X143593890Y-90844727D01*
X143516647Y-90947910D01*
X143516645Y-90947913D01*
X143466403Y-91082619D01*
X143466401Y-91082626D01*
X143457497Y-91165444D01*
X143454434Y-91165114D01*
X143455336Y-91182094D01*
X143422356Y-91241195D01*
X142752962Y-91910590D01*
X142735925Y-91847007D01*
X142670099Y-91732993D01*
X142577007Y-91639901D01*
X142462993Y-91574075D01*
X142399409Y-91557037D01*
X143031716Y-90924728D01*
X142977547Y-90885373D01*
X142977547Y-90885372D01*
X142968500Y-90880763D01*
X142917706Y-90832788D01*
X142900912Y-90764966D01*
X142923451Y-90698832D01*
X142968508Y-90659793D01*
X142977816Y-90655051D01*
X143120106Y-90551672D01*
X143149784Y-90530110D01*
X143149784Y-90530109D01*
X143149792Y-90530104D01*
X143263329Y-90416566D01*
X143324648Y-90383084D01*
X143394340Y-90388068D01*
G37*
%TD.AperFunction*%
%TA.AperFunction,Conductor*%
G36*
X139264075Y-82072993D02*
G01*
X139329901Y-82187007D01*
X139422993Y-82280099D01*
X139537007Y-82345925D01*
X139600590Y-82362962D01*
X138968282Y-82995269D01*
X138968282Y-82995270D01*
X139022452Y-83034626D01*
X139022451Y-83034626D01*
X139031495Y-83039234D01*
X139082292Y-83087208D01*
X139099087Y-83155029D01*
X139076550Y-83221164D01*
X139031499Y-83260202D01*
X139022182Y-83264949D01*
X138850213Y-83389890D01*
X138699890Y-83540213D01*
X138574949Y-83712182D01*
X138570484Y-83720946D01*
X138522509Y-83771742D01*
X138454688Y-83788536D01*
X138388553Y-83765998D01*
X138349516Y-83720946D01*
X138345050Y-83712182D01*
X138220109Y-83540213D01*
X138069786Y-83389890D01*
X137897817Y-83264949D01*
X137888504Y-83260204D01*
X137837707Y-83212230D01*
X137820912Y-83144409D01*
X137843449Y-83078274D01*
X137888507Y-83039232D01*
X137897555Y-83034622D01*
X137951716Y-82995270D01*
X137951717Y-82995270D01*
X137319408Y-82362962D01*
X137382993Y-82345925D01*
X137497007Y-82280099D01*
X137590099Y-82187007D01*
X137655925Y-82072993D01*
X137672962Y-82009408D01*
X138305270Y-82641717D01*
X138305270Y-82641716D01*
X138344622Y-82587554D01*
X138349514Y-82577954D01*
X138397488Y-82527157D01*
X138465308Y-82510361D01*
X138531444Y-82532897D01*
X138570486Y-82577954D01*
X138575375Y-82587550D01*
X138614728Y-82641716D01*
X139247037Y-82009408D01*
X139264075Y-82072993D01*
G37*
%TD.AperFunction*%
%TA.AperFunction,Conductor*%
G36*
X141804075Y-82072993D02*
G01*
X141869901Y-82187007D01*
X141962993Y-82280099D01*
X142077007Y-82345925D01*
X142140590Y-82362962D01*
X141508282Y-82995269D01*
X141508282Y-82995270D01*
X141562452Y-83034626D01*
X141562451Y-83034626D01*
X141571495Y-83039234D01*
X141622292Y-83087208D01*
X141639087Y-83155029D01*
X141616550Y-83221164D01*
X141571499Y-83260202D01*
X141562182Y-83264949D01*
X141390213Y-83389890D01*
X141239890Y-83540213D01*
X141114949Y-83712182D01*
X141110484Y-83720946D01*
X141062509Y-83771742D01*
X140994688Y-83788536D01*
X140928553Y-83765998D01*
X140889516Y-83720946D01*
X140885050Y-83712182D01*
X140760109Y-83540213D01*
X140609786Y-83389890D01*
X140437817Y-83264949D01*
X140428504Y-83260204D01*
X140377707Y-83212230D01*
X140360912Y-83144409D01*
X140383449Y-83078274D01*
X140428507Y-83039232D01*
X140437555Y-83034622D01*
X140491716Y-82995270D01*
X140491717Y-82995270D01*
X139859408Y-82362962D01*
X139922993Y-82345925D01*
X140037007Y-82280099D01*
X140130099Y-82187007D01*
X140195925Y-82072993D01*
X140212962Y-82009409D01*
X140845270Y-82641717D01*
X140845270Y-82641716D01*
X140884622Y-82587554D01*
X140889514Y-82577954D01*
X140937488Y-82527157D01*
X141005308Y-82510361D01*
X141071444Y-82532897D01*
X141110486Y-82577954D01*
X141115375Y-82587550D01*
X141154728Y-82641716D01*
X141787037Y-82009408D01*
X141804075Y-82072993D01*
G37*
%TD.AperFunction*%
%TA.AperFunction,Conductor*%
G36*
X143422356Y-82678803D02*
G01*
X143455841Y-82740126D01*
X143454926Y-82754831D01*
X143457497Y-82754555D01*
X143466401Y-82837373D01*
X143466403Y-82837380D01*
X143516645Y-82972086D01*
X143516646Y-82972088D01*
X143593890Y-83075272D01*
X143618307Y-83140736D01*
X143603456Y-83209009D01*
X143593890Y-83223894D01*
X143516204Y-83327669D01*
X143516203Y-83327669D01*
X143467189Y-83459083D01*
X143425317Y-83515016D01*
X143359853Y-83539433D01*
X143291580Y-83524581D01*
X143263326Y-83503430D01*
X143149786Y-83389890D01*
X142977817Y-83264949D01*
X142968504Y-83260204D01*
X142917707Y-83212230D01*
X142900912Y-83144409D01*
X142923449Y-83078274D01*
X142968507Y-83039232D01*
X142977555Y-83034622D01*
X143031716Y-82995270D01*
X143031717Y-82995270D01*
X142399408Y-82362962D01*
X142462993Y-82345925D01*
X142577007Y-82280099D01*
X142670099Y-82187007D01*
X142735925Y-82072993D01*
X142752962Y-82009409D01*
X143422356Y-82678803D01*
G37*
%TD.AperFunction*%
%TA.AperFunction,Conductor*%
G36*
X138531444Y-79993999D02*
G01*
X138570486Y-80039056D01*
X138574951Y-80047820D01*
X138699890Y-80219786D01*
X138850213Y-80370109D01*
X139022179Y-80495048D01*
X139022181Y-80495049D01*
X139022184Y-80495051D01*
X139031493Y-80499794D01*
X139082290Y-80547766D01*
X139099087Y-80615587D01*
X139076552Y-80681722D01*
X139031505Y-80720760D01*
X139022446Y-80725376D01*
X139022440Y-80725380D01*
X138968282Y-80764727D01*
X138968282Y-80764728D01*
X139600591Y-81397037D01*
X139537007Y-81414075D01*
X139422993Y-81479901D01*
X139329901Y-81572993D01*
X139264075Y-81687007D01*
X139247037Y-81750591D01*
X138614728Y-81118282D01*
X138614727Y-81118282D01*
X138575380Y-81172440D01*
X138570483Y-81182051D01*
X138522506Y-81232845D01*
X138454684Y-81249638D01*
X138388550Y-81227098D01*
X138349516Y-81182048D01*
X138344626Y-81172452D01*
X138305270Y-81118282D01*
X138305269Y-81118282D01*
X137672962Y-81750590D01*
X137655925Y-81687007D01*
X137590099Y-81572993D01*
X137497007Y-81479901D01*
X137382993Y-81414075D01*
X137319409Y-81397037D01*
X137951716Y-80764728D01*
X137897547Y-80725373D01*
X137897547Y-80725372D01*
X137888500Y-80720763D01*
X137837706Y-80672788D01*
X137820912Y-80604966D01*
X137843451Y-80538832D01*
X137888508Y-80499793D01*
X137897816Y-80495051D01*
X137986231Y-80430814D01*
X138069786Y-80370109D01*
X138069788Y-80370106D01*
X138069792Y-80370104D01*
X138220104Y-80219792D01*
X138220106Y-80219788D01*
X138220109Y-80219786D01*
X138345048Y-80047820D01*
X138345047Y-80047820D01*
X138345051Y-80047816D01*
X138349514Y-80039054D01*
X138397488Y-79988259D01*
X138465308Y-79971463D01*
X138531444Y-79993999D01*
G37*
%TD.AperFunction*%
%TA.AperFunction,Conductor*%
G36*
X141071444Y-79993999D02*
G01*
X141110486Y-80039056D01*
X141114951Y-80047820D01*
X141239890Y-80219786D01*
X141390213Y-80370109D01*
X141562179Y-80495048D01*
X141562181Y-80495049D01*
X141562184Y-80495051D01*
X141571493Y-80499794D01*
X141622290Y-80547766D01*
X141639087Y-80615587D01*
X141616552Y-80681722D01*
X141571505Y-80720760D01*
X141562446Y-80725376D01*
X141562440Y-80725380D01*
X141508282Y-80764727D01*
X141508282Y-80764728D01*
X142140591Y-81397037D01*
X142077007Y-81414075D01*
X141962993Y-81479901D01*
X141869901Y-81572993D01*
X141804075Y-81687007D01*
X141787037Y-81750591D01*
X141154728Y-81118282D01*
X141154727Y-81118282D01*
X141115380Y-81172440D01*
X141110483Y-81182051D01*
X141062506Y-81232845D01*
X140994684Y-81249638D01*
X140928550Y-81227098D01*
X140889516Y-81182048D01*
X140884626Y-81172452D01*
X140845270Y-81118282D01*
X140845269Y-81118282D01*
X140212962Y-81750590D01*
X140195925Y-81687007D01*
X140130099Y-81572993D01*
X140037007Y-81479901D01*
X139922993Y-81414075D01*
X139859409Y-81397037D01*
X140491716Y-80764728D01*
X140437547Y-80725373D01*
X140437547Y-80725372D01*
X140428500Y-80720763D01*
X140377706Y-80672788D01*
X140360912Y-80604966D01*
X140383451Y-80538832D01*
X140428508Y-80499793D01*
X140437816Y-80495051D01*
X140526231Y-80430814D01*
X140609786Y-80370109D01*
X140609788Y-80370106D01*
X140609792Y-80370104D01*
X140760104Y-80219792D01*
X140760106Y-80219788D01*
X140760109Y-80219786D01*
X140885048Y-80047820D01*
X140885047Y-80047820D01*
X140885051Y-80047816D01*
X140889514Y-80039054D01*
X140937488Y-79988259D01*
X141005308Y-79971463D01*
X141071444Y-79993999D01*
G37*
%TD.AperFunction*%
%TA.AperFunction,Conductor*%
G36*
X143394340Y-80228068D02*
G01*
X143450274Y-80269939D01*
X143467189Y-80300917D01*
X143516202Y-80432328D01*
X143516206Y-80432335D01*
X143593889Y-80536105D01*
X143618307Y-80601569D01*
X143603456Y-80669842D01*
X143593890Y-80684727D01*
X143516647Y-80787910D01*
X143516645Y-80787913D01*
X143466403Y-80922619D01*
X143466401Y-80922626D01*
X143457497Y-81005444D01*
X143454434Y-81005114D01*
X143455336Y-81022094D01*
X143422356Y-81081195D01*
X142752962Y-81750590D01*
X142735925Y-81687007D01*
X142670099Y-81572993D01*
X142577007Y-81479901D01*
X142462993Y-81414075D01*
X142399409Y-81397037D01*
X143031716Y-80764728D01*
X142977547Y-80725373D01*
X142977547Y-80725372D01*
X142968500Y-80720763D01*
X142917706Y-80672788D01*
X142900912Y-80604966D01*
X142923451Y-80538832D01*
X142968508Y-80499793D01*
X142977816Y-80495051D01*
X143149792Y-80370104D01*
X143263329Y-80256566D01*
X143324648Y-80223084D01*
X143394340Y-80228068D01*
G37*
%TD.AperFunction*%
%TD*%
M02*
