%TF.GenerationSoftware,KiCad,Pcbnew,9.0.4*%
%TF.CreationDate,2025-09-18T03:28:02+09:00*%
%TF.ProjectId,CAN_Isolation_mini,43414e5f-4973-46f6-9c61-74696f6e5f6d,Ver.1.0*%
%TF.SameCoordinates,Original*%
%TF.FileFunction,Copper,L2,Inr*%
%TF.FilePolarity,Positive*%
%FSLAX46Y46*%
G04 Gerber Fmt 4.6, Leading zero omitted, Abs format (unit mm)*
G04 Created by KiCad (PCBNEW 9.0.4) date 2025-09-18 03:28:02*
%MOMM*%
%LPD*%
G01*
G04 APERTURE LIST*
%TA.AperFunction,ComponentPad*%
%ADD10O,1.300000X2.600000*%
%TD*%
%TA.AperFunction,ComponentPad*%
%ADD11C,3.716000*%
%TD*%
%TA.AperFunction,ComponentPad*%
%ADD12R,1.700000X1.700000*%
%TD*%
%TA.AperFunction,ComponentPad*%
%ADD13C,1.700000*%
%TD*%
%TA.AperFunction,ComponentPad*%
%ADD14R,1.508000X1.508000*%
%TD*%
%TA.AperFunction,ComponentPad*%
%ADD15C,1.508000*%
%TD*%
%TA.AperFunction,ComponentPad*%
%ADD16C,1.600000*%
%TD*%
%TA.AperFunction,ComponentPad*%
%ADD17R,1.397000X1.397000*%
%TD*%
%TA.AperFunction,ComponentPad*%
%ADD18C,1.397000*%
%TD*%
%TA.AperFunction,ViaPad*%
%ADD19C,0.600000*%
%TD*%
%TA.AperFunction,Conductor*%
%ADD20C,2.400000*%
%TD*%
%TA.AperFunction,Conductor*%
%ADD21C,1.200000*%
%TD*%
%TA.AperFunction,Conductor*%
%ADD22C,1.000000*%
%TD*%
%TA.AperFunction,Conductor*%
%ADD23C,0.600000*%
%TD*%
%TA.AperFunction,Conductor*%
%ADD24C,0.200000*%
%TD*%
%TA.AperFunction,Conductor*%
%ADD25C,0.300000*%
%TD*%
%TA.AperFunction,Conductor*%
%ADD26C,2.000000*%
%TD*%
G04 APERTURE END LIST*
D10*
%TO.N,BAT_GND*%
%TO.C,J22*%
X120485000Y-70358000D03*
X133985000Y-70358000D03*
D11*
X123635000Y-76358000D03*
%TO.N,BAT_12V*%
X130835000Y-76358000D03*
%TD*%
D12*
%TO.N,unconnected-(J6-Pin_1-Pad1)*%
%TO.C,J6*%
X144810000Y-89500000D03*
D13*
%TO.N,unconnected-(J6-Pin_2-Pad2)*%
X142270000Y-89500000D03*
%TO.N,unconnected-(J6-Pin_3-Pad3)*%
X139730000Y-89500000D03*
%TO.N,unconnected-(J6-Pin_4-Pad4)*%
X137190000Y-89500000D03*
%TD*%
D12*
%TO.N,GND_VP*%
%TO.C,J3*%
X144810000Y-81880000D03*
D13*
X142270000Y-81880000D03*
X139730000Y-81880000D03*
X137190000Y-81880000D03*
%TD*%
D14*
%TO.N,BAT_12V*%
%TO.C,J1*%
X97857095Y-93544905D03*
D15*
%TO.N,CAN_H*%
X97857095Y-96044905D03*
%TO.N,CAN_L*%
X97857095Y-98544905D03*
%TO.N,BAT_GND*%
X97857095Y-101044905D03*
%TD*%
D12*
%TO.N,+3.3VP*%
%TO.C,J8*%
X144810000Y-94580000D03*
D13*
X142270000Y-94580000D03*
X139730000Y-94580000D03*
X137190000Y-94580000D03*
%TD*%
D12*
%TO.N,CAN_LED*%
%TO.C,J11*%
X144810000Y-102200000D03*
D13*
X142270000Y-102200000D03*
X139730000Y-102200000D03*
X137190000Y-102200000D03*
%TD*%
D12*
%TO.N,unconnected-(J17-Pin_1-Pad1)*%
%TO.C,J17*%
X144810000Y-117440000D03*
D13*
%TO.N,unconnected-(J17-Pin_2-Pad2)*%
X142270000Y-117440000D03*
%TO.N,unconnected-(J17-Pin_3-Pad3)*%
X139730000Y-117440000D03*
%TO.N,unconnected-(J17-Pin_4-Pad4)*%
X137190000Y-117440000D03*
%TD*%
D12*
%TO.N,CAN_SCK*%
%TO.C,J15*%
X144810000Y-112360000D03*
D13*
X142270000Y-112360000D03*
X139730000Y-112360000D03*
X137190000Y-112360000D03*
%TD*%
D12*
%TO.N,CAN_SDO*%
%TO.C,J13*%
X144810000Y-107280000D03*
D13*
X142270000Y-107280000D03*
X139730000Y-107280000D03*
X137190000Y-107280000D03*
%TD*%
D16*
%TO.N,Net-(C12-Pad1)*%
%TO.C,R12*%
X103037095Y-117809000D03*
%TO.N,CAN_L*%
X110657095Y-117809000D03*
%TD*%
D11*
%TO.N,Net-(D3-PadC)*%
%TO.C,J21*%
X112801000Y-76327000D03*
%TO.N,BAT_GND*%
X105601000Y-76327000D03*
D10*
X115951000Y-70327000D03*
X102451000Y-70327000D03*
%TD*%
D12*
%TO.N,unconnected-(J16-Pin_1-Pad1)*%
%TO.C,J16*%
X144810000Y-114900000D03*
D13*
%TO.N,unconnected-(J16-Pin_2-Pad2)*%
X142270000Y-114900000D03*
%TO.N,unconnected-(J16-Pin_3-Pad3)*%
X139730000Y-114900000D03*
%TO.N,unconnected-(J16-Pin_4-Pad4)*%
X137190000Y-114900000D03*
%TD*%
D12*
%TO.N,GND_VP*%
%TO.C,J7*%
X144810000Y-92040000D03*
D13*
X142270000Y-92040000D03*
X139730000Y-92040000D03*
X137190000Y-92040000D03*
%TD*%
D12*
%TO.N,unconnected-(J10-Pin_1-Pad1)*%
%TO.C,J10*%
X144810000Y-99660000D03*
D13*
%TO.N,unconnected-(J10-Pin_2-Pad2)*%
X142270000Y-99660000D03*
%TO.N,unconnected-(J10-Pin_3-Pad3)*%
X139730000Y-99660000D03*
%TO.N,unconnected-(J10-Pin_4-Pad4)*%
X137190000Y-99660000D03*
%TD*%
D17*
%TO.N,BAT_GND*%
%TO.C,U3*%
X108680095Y-93785000D03*
D18*
%TO.N,BAT_12V*%
X111220095Y-93785000D03*
%TO.N,+3.3VP*%
X116300095Y-93785000D03*
%TO.N,GND_VP*%
X121380095Y-93785000D03*
%TD*%
D17*
%TO.N,BAT_GND*%
%TO.C,U4*%
X108680095Y-108285000D03*
D18*
%TO.N,BAT_12V*%
X111220095Y-108285000D03*
%TO.N,+5VCAN*%
X116300095Y-108285000D03*
%TO.N,GND_5VCAN*%
X121380095Y-108285000D03*
%TD*%
D12*
%TO.N,unconnected-(J9-Pin_1-Pad1)*%
%TO.C,J9*%
X144810000Y-97120000D03*
D13*
%TO.N,unconnected-(J9-Pin_2-Pad2)*%
X142270000Y-97120000D03*
%TO.N,unconnected-(J9-Pin_3-Pad3)*%
X139730000Y-97120000D03*
%TO.N,unconnected-(J9-Pin_4-Pad4)*%
X137190000Y-97120000D03*
%TD*%
D17*
%TO.N,BAT_GND*%
%TO.C,U7*%
X105608000Y-81741000D03*
D18*
%TO.N,BAT_12V*%
X108148000Y-81741000D03*
%TO.N,BAT_GND*%
X110688000Y-81741000D03*
%TO.N,unconnected-(U7-NC-Pad5)*%
X115768000Y-81741000D03*
%TO.N,+5VP*%
X118308000Y-81741000D03*
%TO.N,GND_VP*%
X120848000Y-81741000D03*
%TO.N,unconnected-(U7-NC-Pad8)*%
X123388000Y-81741000D03*
%TD*%
D16*
%TO.N,CAN_H*%
%TO.C,R11*%
X110657095Y-122809000D03*
%TO.N,Net-(C12-Pad1)*%
X103037095Y-122809000D03*
%TD*%
D12*
%TO.N,unconnected-(J2-Pin_1-Pad1)*%
%TO.C,J2*%
X144810000Y-79340000D03*
D13*
%TO.N,unconnected-(J2-Pin_2-Pad2)*%
X142270000Y-79340000D03*
%TO.N,unconnected-(J2-Pin_3-Pad3)*%
X139730000Y-79340000D03*
%TO.N,unconnected-(J2-Pin_4-Pad4)*%
X137190000Y-79340000D03*
%TD*%
D12*
%TO.N,unconnected-(J5-Pin_1-Pad1)*%
%TO.C,J5*%
X144810000Y-86960000D03*
D13*
%TO.N,unconnected-(J5-Pin_2-Pad2)*%
X142270000Y-86960000D03*
%TO.N,unconnected-(J5-Pin_3-Pad3)*%
X139730000Y-86960000D03*
%TO.N,unconnected-(J5-Pin_4-Pad4)*%
X137190000Y-86960000D03*
%TD*%
D12*
%TO.N,CAN_SDI*%
%TO.C,J14*%
X144810000Y-109820000D03*
D13*
X142270000Y-109820000D03*
X139730000Y-109820000D03*
X137190000Y-109820000D03*
%TD*%
D12*
%TO.N,+5VP*%
%TO.C,J4*%
X144810000Y-84420000D03*
D13*
X142270000Y-84420000D03*
X139730000Y-84420000D03*
X137190000Y-84420000D03*
%TD*%
D12*
%TO.N,CAN_CS*%
%TO.C,J12*%
X144810000Y-104740000D03*
D13*
X142270000Y-104740000D03*
X139730000Y-104740000D03*
X137190000Y-104740000D03*
%TD*%
D19*
%TO.N,BAT_12V*%
X93091000Y-81788000D03*
X97282000Y-91948000D03*
X91821000Y-81788000D03*
X93091000Y-82550000D03*
X91186000Y-80264000D03*
X97282000Y-91059000D03*
X91186000Y-81026000D03*
X91821000Y-81026000D03*
X91821000Y-80264000D03*
X93091000Y-80264000D03*
X92456000Y-82550000D03*
X91186000Y-82550000D03*
X96647000Y-90297000D03*
X92456000Y-81788000D03*
X91186000Y-81788000D03*
X93091000Y-81026000D03*
X91821000Y-82550000D03*
X96266000Y-91948000D03*
X94615000Y-90297000D03*
X95250000Y-91059000D03*
X95631000Y-90297000D03*
X98298000Y-91948000D03*
X96266000Y-91059000D03*
X92456000Y-80264000D03*
X92456000Y-81026000D03*
%TO.N,BAT_GND*%
X110657095Y-97785000D03*
X109657095Y-102809000D03*
X107657095Y-95809000D03*
X110000000Y-89700000D03*
X110000000Y-91500000D03*
X108000000Y-77100000D03*
X111657095Y-97809000D03*
X106657095Y-101809000D03*
X99157095Y-101294905D03*
X108657095Y-98809000D03*
X109998000Y-82741000D03*
X106657095Y-98809000D03*
X106657095Y-97809000D03*
X106998000Y-86741000D03*
X109657095Y-98809000D03*
X107657095Y-100809000D03*
X108657095Y-103809000D03*
X110998000Y-86741000D03*
X103498000Y-85741000D03*
X108000000Y-76100000D03*
X103498000Y-83741000D03*
X99157095Y-102294905D03*
X108657095Y-95809000D03*
X95657095Y-100294905D03*
X109657095Y-105809000D03*
X108657095Y-96809000D03*
X107657095Y-106809000D03*
X100157095Y-100294905D03*
X109200000Y-77100000D03*
X109657095Y-104809000D03*
X107657095Y-96809000D03*
X96657095Y-103294905D03*
X108000000Y-75100000D03*
X97657095Y-102294905D03*
X106657095Y-100809000D03*
X108657095Y-105809000D03*
X106998000Y-85741000D03*
X109200000Y-78000000D03*
X108657095Y-106809000D03*
X103498000Y-86741000D03*
X109200000Y-78900000D03*
X110657095Y-100809000D03*
X108000000Y-91500000D03*
X110657095Y-96809000D03*
X107998000Y-85741000D03*
X95657095Y-103294905D03*
X108657095Y-99809000D03*
X111657095Y-102809000D03*
X95657095Y-101294905D03*
X108998000Y-84741000D03*
X110657095Y-103809000D03*
X96657095Y-102294905D03*
X107998000Y-84741000D03*
X104498000Y-86741000D03*
X111657095Y-103809000D03*
X109998000Y-87741000D03*
X109657095Y-103809000D03*
X109998000Y-84741000D03*
X111657095Y-96809000D03*
X107000000Y-91500000D03*
X109000000Y-89700000D03*
X107657095Y-102809000D03*
X108657095Y-101809000D03*
X104498000Y-83741000D03*
X108657095Y-100809000D03*
X109998000Y-83741000D03*
X109657095Y-101809000D03*
X110657095Y-98809000D03*
X107657095Y-98809000D03*
X107998000Y-88741000D03*
X109000000Y-91500000D03*
X103498000Y-84741000D03*
X99157095Y-100294905D03*
X104498000Y-81741000D03*
X106998000Y-80741000D03*
X111000000Y-91500000D03*
X111000000Y-89700000D03*
X106657095Y-103809000D03*
X111657095Y-98809000D03*
X96657095Y-100294905D03*
X108000000Y-89700000D03*
X103498000Y-80741000D03*
X108657095Y-97809000D03*
X111657095Y-105809000D03*
X108657095Y-104809000D03*
X109201000Y-76100000D03*
X108998000Y-83741000D03*
X107657095Y-103809000D03*
X106657095Y-95809000D03*
X109657095Y-96809000D03*
X109657095Y-95809000D03*
X100157095Y-101294905D03*
X109657095Y-106809000D03*
X107657095Y-104809000D03*
X111657095Y-95809000D03*
X110998000Y-88741000D03*
X107657095Y-105809000D03*
X108000000Y-78000000D03*
X106998000Y-84741000D03*
X108998000Y-86741000D03*
X103498000Y-81741000D03*
X109657095Y-100809000D03*
X108998000Y-87741000D03*
X104498000Y-85741000D03*
X110657095Y-104809000D03*
X108998000Y-82741000D03*
X110657095Y-102809000D03*
X109998000Y-86741000D03*
X104498000Y-87741000D03*
X96657095Y-101294905D03*
X104498000Y-82741000D03*
X106998000Y-83741000D03*
X104498000Y-84741000D03*
X110657095Y-95809000D03*
X110000000Y-90600000D03*
X110998000Y-85741000D03*
X99157095Y-103294905D03*
X110657095Y-99809000D03*
X107657095Y-101809000D03*
X109657095Y-97809000D03*
X109998000Y-85741000D03*
X95657095Y-102294905D03*
X111657095Y-106809000D03*
X110998000Y-83741000D03*
X106657095Y-105809000D03*
X110657095Y-105809000D03*
X108998000Y-85741000D03*
X111657095Y-101809000D03*
X107000000Y-90600000D03*
X110657095Y-101809000D03*
X106657095Y-102809000D03*
X107657095Y-97809000D03*
X107998000Y-87741000D03*
X106998000Y-88741000D03*
X104498000Y-88741000D03*
X111657095Y-104809000D03*
X111000000Y-90600000D03*
X104498000Y-80741000D03*
X108657095Y-102809000D03*
X111657095Y-100809000D03*
X106657095Y-104809000D03*
X107000000Y-89700000D03*
X107998000Y-83741000D03*
X106657095Y-106809000D03*
X109657095Y-99809000D03*
X109998000Y-88741000D03*
X100157095Y-103294905D03*
X109000000Y-90600000D03*
X110998000Y-87741000D03*
X107657095Y-94809000D03*
X110657095Y-106809000D03*
X106657095Y-99809000D03*
X97657095Y-103294905D03*
X108000000Y-90600000D03*
X103498000Y-87741000D03*
X111657095Y-99809000D03*
X107998000Y-86741000D03*
X106657095Y-96809000D03*
X103498000Y-82741000D03*
X110998000Y-84741000D03*
X106998000Y-82741000D03*
X107657095Y-99809000D03*
X100157095Y-102294905D03*
X106998000Y-87741000D03*
X106657095Y-94809000D03*
X108998000Y-88741000D03*
%TO.N,GND_5VCAN*%
X120157095Y-110809000D03*
X98600000Y-106300000D03*
X113157095Y-117809000D03*
X111157095Y-112809000D03*
X118157095Y-117809000D03*
X97657095Y-114294905D03*
X115157095Y-112809000D03*
X99600000Y-109300000D03*
X96657095Y-109294905D03*
X98600000Y-107300000D03*
X107157095Y-113809000D03*
X116157095Y-111809000D03*
X95657095Y-111294905D03*
X122157095Y-109809000D03*
X97657095Y-113294905D03*
X122157095Y-114809000D03*
X97657095Y-117294905D03*
X120157095Y-112809000D03*
X93657095Y-113294905D03*
X95657095Y-112294905D03*
X97657095Y-108294905D03*
X121157095Y-109809000D03*
X117157095Y-112809000D03*
X108157095Y-112809000D03*
X118157095Y-114809000D03*
X94657095Y-110294905D03*
X122157095Y-110809000D03*
X118157095Y-115809000D03*
X108157095Y-113809000D03*
X118157095Y-105809000D03*
X120157095Y-105809000D03*
X97657095Y-109294905D03*
X106157095Y-112809000D03*
X113157095Y-115809000D03*
X122157095Y-113809000D03*
X95657095Y-114294905D03*
X113157095Y-112809000D03*
X96657095Y-110294905D03*
X97657095Y-106294905D03*
X96657095Y-115294905D03*
X96657095Y-113294905D03*
X103157095Y-112809000D03*
X119157095Y-116809000D03*
X119157095Y-105809000D03*
X96657095Y-117294905D03*
X117157095Y-117809000D03*
X102157095Y-112809000D03*
X114157095Y-112809000D03*
X99657095Y-116294905D03*
X94657095Y-114294905D03*
X114157095Y-117809000D03*
X99600000Y-107300000D03*
X93657095Y-110294905D03*
X115157095Y-115809000D03*
X94657095Y-109294905D03*
X121157095Y-111809000D03*
X114157095Y-114809000D03*
X95657095Y-113294905D03*
X98600000Y-109300000D03*
X120157095Y-109809000D03*
X119157095Y-111809000D03*
X114157095Y-113809000D03*
X112157095Y-113809000D03*
X111157095Y-115809000D03*
X96657095Y-111294905D03*
X109157095Y-112809000D03*
X121157095Y-112809000D03*
X100657095Y-119294905D03*
X96657095Y-114294905D03*
X120157095Y-108809000D03*
X98600000Y-108300000D03*
X96657095Y-107294905D03*
X115157095Y-110809000D03*
X121157095Y-114809000D03*
X117157095Y-114809000D03*
X96657095Y-116294905D03*
X94657095Y-108294905D03*
X111157095Y-114809000D03*
X117157095Y-116809000D03*
X116157095Y-114809000D03*
X95657095Y-115294905D03*
X112157095Y-115809000D03*
X115157095Y-109809000D03*
X100657095Y-120294905D03*
X97657095Y-111294905D03*
X97657095Y-110294905D03*
X105157095Y-112809000D03*
X114157095Y-116809000D03*
X114157095Y-115809000D03*
X94657095Y-113294905D03*
X122157095Y-112809000D03*
X99657095Y-114294905D03*
X93657095Y-106294905D03*
X121157095Y-113809000D03*
X120157095Y-111809000D03*
X120157095Y-113809000D03*
X118157095Y-106809000D03*
X112157095Y-112809000D03*
X119157095Y-107809000D03*
X95657095Y-109294905D03*
X118157095Y-110809000D03*
X93657095Y-107294905D03*
X104157095Y-112809000D03*
X122157095Y-111809000D03*
X113157095Y-114809000D03*
X118157095Y-107809000D03*
X113157095Y-113809000D03*
X117157095Y-111809000D03*
X105157095Y-113809000D03*
X119157095Y-113809000D03*
X119157095Y-112809000D03*
X102157095Y-113809000D03*
X95657095Y-106294905D03*
X120157095Y-107809000D03*
X97657095Y-112294905D03*
X117157095Y-110809000D03*
X99600000Y-108300000D03*
X95657095Y-107294905D03*
X94657095Y-106294905D03*
X99657095Y-118294905D03*
X115157095Y-117809000D03*
X103157095Y-113809000D03*
X94657095Y-112294905D03*
X116157095Y-116809000D03*
X92657095Y-110294905D03*
X99657095Y-119294905D03*
X96657095Y-112294905D03*
X118157095Y-116809000D03*
X116157095Y-112809000D03*
X116157095Y-113809000D03*
X119157095Y-109809000D03*
X121157095Y-110809000D03*
X107157095Y-112809000D03*
X92657095Y-113294905D03*
X111157095Y-113809000D03*
X96657095Y-108294905D03*
X97657095Y-107294905D03*
X98657095Y-114294905D03*
X119157095Y-110809000D03*
X118157095Y-109809000D03*
X94657095Y-115294905D03*
X110157095Y-112809000D03*
X110157095Y-114809000D03*
X120157095Y-114809000D03*
X118157095Y-112809000D03*
X109157095Y-113809000D03*
X115157095Y-111809000D03*
X95657095Y-116294905D03*
X115157095Y-116809000D03*
X119157095Y-114809000D03*
X93657095Y-114294905D03*
X116157095Y-109809000D03*
X94657095Y-111294905D03*
X117157095Y-115809000D03*
X116157095Y-110809000D03*
X116157095Y-117809000D03*
X120157095Y-106809000D03*
X118157095Y-108809000D03*
X99657095Y-120294905D03*
X119157095Y-115809000D03*
X117157095Y-113809000D03*
X98657095Y-115294905D03*
X118157095Y-113809000D03*
X97657095Y-115294905D03*
X117157095Y-109809000D03*
X113157095Y-116809000D03*
X94657095Y-107294905D03*
X115157095Y-114809000D03*
X104157095Y-113809000D03*
X98657095Y-116294905D03*
X119157095Y-106809000D03*
X118157095Y-111809000D03*
X98657095Y-113294905D03*
X112157095Y-114809000D03*
X106157095Y-113809000D03*
X116157095Y-115809000D03*
X115157095Y-113809000D03*
X95657095Y-110294905D03*
X119157095Y-108809000D03*
X110157095Y-113809000D03*
X95657095Y-108294905D03*
X96657095Y-106294905D03*
X97657095Y-116294905D03*
%TO.N,CAN_CS*%
X133657095Y-106809000D03*
X132657095Y-102309000D03*
%TO.N,CAN_SDO*%
X133657095Y-108309000D03*
X132657095Y-100809000D03*
%TO.N,CAN_SDI*%
X133657095Y-109809000D03*
X132657095Y-99309000D03*
%TO.N,CAN_SCK*%
X132657095Y-97809000D03*
X133657095Y-111309000D03*
%TO.N,CAN_GPIO0*%
X132657095Y-96309000D03*
X133657095Y-112309000D03*
%TO.N,CAN_GPIO1*%
X133657095Y-113809000D03*
X132657095Y-94809000D03*
%TO.N,CAN_CLK*%
X130157095Y-108309000D03*
X132657095Y-91809000D03*
%TO.N,CAN_INT*%
X132657095Y-93309000D03*
X130157095Y-109809000D03*
%TO.N,Net-(U1-RXCAN)*%
X128657095Y-106809000D03*
X132657095Y-119809000D03*
%TO.N,Net-(U1-TXCAN)*%
X128657095Y-105809000D03*
X132657095Y-120809000D03*
%TO.N,CAN_LED*%
X94996000Y-79502000D03*
%TO.N,GND_VP*%
X122157095Y-96309000D03*
X119157095Y-97309000D03*
X121157095Y-91309000D03*
X133000000Y-80514095D03*
X125492000Y-84239000D03*
X123157095Y-97309000D03*
X127657095Y-119309000D03*
X122157095Y-92309000D03*
X125498000Y-81741000D03*
X118157095Y-95309000D03*
X126657095Y-120309000D03*
X120157095Y-96309000D03*
X130157095Y-104809000D03*
X134000000Y-123514095D03*
X128657095Y-119309000D03*
X128657095Y-103809000D03*
X122498000Y-85241000D03*
X120498000Y-79741000D03*
X122157095Y-97309000D03*
X121157095Y-95309000D03*
X128157095Y-104309000D03*
X124500000Y-84250000D03*
X121498000Y-85241000D03*
X123157095Y-93309000D03*
X127657095Y-118309000D03*
X126657095Y-119309000D03*
X121498000Y-79741000D03*
X125498000Y-80741000D03*
X128157095Y-103309000D03*
X127657095Y-116309000D03*
X120157095Y-91309000D03*
X126657095Y-114309000D03*
X127657095Y-103809000D03*
X134000000Y-124514095D03*
X123498000Y-79741000D03*
X120157095Y-92309000D03*
X124500000Y-85250000D03*
X119157095Y-93309000D03*
X123498000Y-83241000D03*
X122498000Y-80741000D03*
X120498000Y-84241000D03*
X123157095Y-92309000D03*
X127657095Y-120309000D03*
X119157095Y-94309000D03*
X127657095Y-114309000D03*
X120498000Y-83241000D03*
X119157095Y-96309000D03*
X125492000Y-85239000D03*
X118157095Y-92309000D03*
X122157095Y-91309000D03*
X125498000Y-79741000D03*
X121157095Y-97309000D03*
X118157095Y-93309000D03*
X127657095Y-115309000D03*
X133000000Y-124514095D03*
X132000000Y-125514095D03*
X122498000Y-83241000D03*
X127657095Y-117309000D03*
X137000000Y-77000000D03*
X118157095Y-96309000D03*
X124498000Y-80741000D03*
X122157095Y-95309000D03*
X122498000Y-79741000D03*
X133000000Y-123514095D03*
X119157095Y-95309000D03*
X121157095Y-92309000D03*
X134000000Y-125514095D03*
X131000000Y-80514095D03*
X123157095Y-96309000D03*
X121498000Y-83241000D03*
X121498000Y-84241000D03*
X126657095Y-116309000D03*
X118157095Y-94309000D03*
X134000000Y-80514095D03*
X133000000Y-125514095D03*
X126657095Y-117309000D03*
X130000000Y-80514095D03*
X124498000Y-83241000D03*
X123157095Y-95309000D03*
X121498000Y-80741000D03*
X120157095Y-94309000D03*
X127657095Y-121309000D03*
X120157095Y-95309000D03*
X121157095Y-96309000D03*
X126657095Y-115309000D03*
X118157095Y-91309000D03*
X136000000Y-77000000D03*
X128657095Y-121309000D03*
X132000000Y-80514095D03*
X120157095Y-97309000D03*
X119157095Y-92309000D03*
X129157095Y-104809000D03*
X135000000Y-80514095D03*
X124498000Y-79741000D03*
X123498000Y-85241000D03*
X123157095Y-91309000D03*
X126657095Y-121309000D03*
X119157095Y-91309000D03*
X128657095Y-120309000D03*
X125490000Y-83230000D03*
X126657095Y-118309000D03*
X123157095Y-94309000D03*
X120157095Y-93309000D03*
X98171000Y-88138000D03*
X123498000Y-84241000D03*
X122498000Y-84241000D03*
X138000000Y-77000000D03*
%TO.N,+3.3VP*%
X122000000Y-98912400D03*
X125500000Y-92014095D03*
X123000000Y-98912400D03*
X97028000Y-84455000D03*
X124000000Y-98912400D03*
%TO.N,+5VP*%
X124160500Y-88578500D03*
X123660500Y-88078500D03*
X122498000Y-87051000D03*
X121498000Y-87051000D03*
X123160500Y-87578500D03*
%TO.N,Net-(D3-PadC)*%
X100457000Y-81661000D03*
X99822000Y-81661000D03*
X98552000Y-82423000D03*
X99822000Y-80137000D03*
X98552000Y-80137000D03*
X99187000Y-82423000D03*
X98552000Y-80899000D03*
X99187000Y-81661000D03*
X99187000Y-80137000D03*
X99822000Y-82423000D03*
X100457000Y-80137000D03*
X98552000Y-81661000D03*
X100457000Y-82423000D03*
X99187000Y-80899000D03*
X99822000Y-80899000D03*
X100457000Y-80899000D03*
%TD*%
D20*
%TO.N,BAT_12V*%
X92075000Y-82042000D02*
X92075000Y-80391000D01*
X97857095Y-93544905D02*
X97857095Y-92396095D01*
X92075000Y-86614000D02*
X92075000Y-82042000D01*
X97857095Y-92396095D02*
X92075000Y-86614000D01*
D21*
%TO.N,BAT_GND*%
X108633095Y-108285000D02*
X108680095Y-108285000D01*
D22*
X120485000Y-73208000D02*
X123635000Y-76358000D01*
X120485000Y-70358000D02*
X120485000Y-73208000D01*
X115951000Y-70327000D02*
X115951000Y-71882000D01*
D21*
X108680095Y-108285000D02*
X108681095Y-108285000D01*
D22*
X120427000Y-76358000D02*
X123635000Y-76358000D01*
X115951000Y-71882000D02*
X120427000Y-76358000D01*
D23*
X97857095Y-101044905D02*
X97857095Y-100594905D01*
D24*
%TO.N,CAN_CS*%
X142270000Y-104740000D02*
X144810000Y-104740000D01*
X139730000Y-104740000D02*
X142270000Y-104740000D01*
X133657095Y-103809217D02*
X133657095Y-106809000D01*
X137190000Y-104740000D02*
X135121000Y-106809000D01*
X135121000Y-106809000D02*
X133657095Y-106809000D01*
X137190000Y-104740000D02*
X139730000Y-104740000D01*
X132657095Y-102809216D02*
X133657095Y-103809217D01*
X132657095Y-102309000D02*
X132657095Y-102809216D01*
%TO.N,CAN_SDO*%
X136161000Y-108309000D02*
X133657095Y-108309000D01*
X139730000Y-107280000D02*
X142270000Y-107280000D01*
X137190000Y-107280000D02*
X136161000Y-108309000D01*
X133657095Y-108309000D02*
X133657095Y-107809000D01*
X132103695Y-102755600D02*
X132103695Y-101362400D01*
X137190000Y-107280000D02*
X139730000Y-107280000D01*
X142270000Y-107280000D02*
X144810000Y-107280000D01*
X133103695Y-107255600D02*
X133103695Y-103755600D01*
X133657095Y-107809000D02*
X133103695Y-107255600D01*
X133103695Y-103755600D02*
X132103695Y-102755600D01*
X132103695Y-101362400D02*
X132657095Y-100809000D01*
%TO.N,CAN_SDI*%
X133668095Y-109820000D02*
X133657095Y-109809000D01*
X131750295Y-100215800D02*
X132657095Y-99309000D01*
X132907203Y-107558892D02*
X132750295Y-107401983D01*
X139730000Y-109820000D02*
X142270000Y-109820000D01*
X132750295Y-103901984D02*
X131750295Y-102901983D01*
X132750295Y-107401983D02*
X132750295Y-103901984D01*
X142270000Y-109820000D02*
X144810000Y-109820000D01*
X137190000Y-109820000D02*
X139730000Y-109820000D01*
X133657095Y-109809000D02*
X133664905Y-109809000D01*
X133657095Y-109809000D02*
X132907203Y-109059108D01*
X132907203Y-109059108D02*
X132907203Y-107558892D01*
X137190000Y-109820000D02*
X133668095Y-109820000D01*
X131750295Y-102901983D02*
X131750295Y-100215800D01*
%TO.N,CAN_SCK*%
X142270000Y-112360000D02*
X144810000Y-112360000D01*
X133657095Y-111309000D02*
X132553803Y-110205708D01*
X137190000Y-112360000D02*
X139730000Y-112360000D01*
X131396895Y-103048366D02*
X131396895Y-99069200D01*
X132396895Y-108152092D02*
X132396895Y-104048367D01*
X132553803Y-108309000D02*
X132396895Y-108152092D01*
X132553803Y-110205708D02*
X132553803Y-108309000D01*
X136139000Y-111309000D02*
X133657095Y-111309000D01*
X131396895Y-99069200D02*
X132657095Y-97809000D01*
X132396895Y-104048367D02*
X131396895Y-103048366D01*
X139730000Y-112360000D02*
X142270000Y-112360000D01*
X137190000Y-112360000D02*
X136139000Y-111309000D01*
%TO.N,CAN_GPIO0*%
X132200403Y-110852308D02*
X132200403Y-109309000D01*
X132043495Y-109152092D02*
X132043495Y-104194750D01*
X131043495Y-103194749D02*
X131043495Y-97922600D01*
X132043495Y-104194750D02*
X131043495Y-103194749D01*
X131043495Y-97922600D02*
X132657095Y-96309000D01*
X133657095Y-112309000D02*
X132200403Y-110852308D01*
X132200403Y-109309000D02*
X132043495Y-109152092D01*
%TO.N,CAN_GPIO1*%
X130690095Y-103341132D02*
X130690095Y-96776000D01*
X131847003Y-109809000D02*
X131690095Y-109652092D01*
X130690095Y-96776000D02*
X132657095Y-94809000D01*
X133657095Y-113809000D02*
X131847003Y-111998908D01*
X131690095Y-104341133D02*
X130690095Y-103341132D01*
X131690095Y-109652092D02*
X131690095Y-104341133D01*
X131847003Y-111998908D02*
X131847003Y-109809000D01*
%TO.N,CAN_CLK*%
X130983295Y-107482800D02*
X130983295Y-104633899D01*
X129983295Y-94482800D02*
X132657095Y-91809000D01*
X129983295Y-103633898D02*
X129983295Y-94482800D01*
X130983295Y-104633899D02*
X129983295Y-103633898D01*
X130157095Y-108309000D02*
X130983295Y-107482800D01*
%TO.N,CAN_INT*%
X130336695Y-95629400D02*
X132657095Y-93309000D01*
X131336695Y-109028400D02*
X131336695Y-104487516D01*
X130556095Y-109809000D02*
X131336695Y-109028400D01*
X130157095Y-109809000D02*
X130556095Y-109809000D01*
X131336695Y-104487516D02*
X130336695Y-103487515D01*
X130336695Y-103487515D02*
X130336695Y-95629400D01*
%TO.N,Net-(U1-RXCAN)*%
X133303695Y-114955384D02*
X133303695Y-119162400D01*
X133303695Y-119162400D02*
X132657095Y-119809000D01*
X128657095Y-111309000D02*
X128657311Y-111309000D01*
X132010712Y-114662400D02*
X133010711Y-114662400D01*
X128657311Y-111309000D02*
X132010712Y-114662400D01*
X133010711Y-114662400D02*
X133303695Y-114955384D01*
X128657095Y-106809000D02*
X128657095Y-111309000D01*
%TO.N,Net-(U1-TXCAN)*%
X133657095Y-119809000D02*
X132657095Y-120809000D01*
X129258095Y-111410000D02*
X132157095Y-114309000D01*
X132157095Y-114309000D02*
X133157095Y-114309000D01*
X129258095Y-106410000D02*
X129258095Y-111410000D01*
X128657095Y-105809000D02*
X129258095Y-106410000D01*
X133657095Y-114809000D02*
X133657095Y-119809000D01*
X133157095Y-114309000D02*
X133657095Y-114809000D01*
%TO.N,CAN_LED*%
X145500000Y-77023095D02*
X146500000Y-78023095D01*
X146500000Y-78000000D02*
X146500000Y-100510000D01*
X142270000Y-102200000D02*
X144810000Y-102200000D01*
X142113000Y-77023095D02*
X145500000Y-77023095D01*
X139730000Y-102200000D02*
X142270000Y-102200000D01*
X97033200Y-77152800D02*
X97033200Y-73727522D01*
X137102905Y-68395905D02*
X138049000Y-69342000D01*
X138049000Y-72959095D02*
X142113000Y-77023095D01*
X94996000Y-79190000D02*
X97033200Y-77152800D01*
X138049000Y-69342000D02*
X138049000Y-72959095D01*
X146500000Y-100510000D02*
X144810000Y-102200000D01*
X102364817Y-68395905D02*
X137102905Y-68395905D01*
X137190000Y-102200000D02*
X139730000Y-102200000D01*
X97033200Y-73727522D02*
X102364817Y-68395905D01*
X94996000Y-79502000D02*
X94996000Y-79190000D01*
%TO.N,GND_VP*%
X97386600Y-73873906D02*
X98765906Y-72494600D01*
X98765906Y-72494600D02*
X114213094Y-72494600D01*
X117736400Y-79741000D02*
X120498000Y-79741000D01*
X114213094Y-72494600D02*
X115846400Y-74127906D01*
X115846400Y-77851000D02*
X117736400Y-79741000D01*
X96393000Y-86360000D02*
X96393000Y-80988506D01*
X115846400Y-74127906D02*
X115846400Y-77851000D01*
X96393000Y-80988506D02*
X97386600Y-79994906D01*
X98171000Y-88138000D02*
X96393000Y-86360000D01*
X97386600Y-79994906D02*
X97386600Y-73873906D01*
D25*
%TO.N,+3.3VP*%
X98933000Y-72898000D02*
X114046000Y-72898000D01*
X115443000Y-78186000D02*
X116769900Y-79512900D01*
X114046000Y-72898000D02*
X115443000Y-74295000D01*
X123000000Y-89514095D02*
X125500000Y-92014095D01*
X97028000Y-84455000D02*
X97028000Y-80924000D01*
D21*
X116300095Y-96314190D02*
X119000000Y-99014095D01*
D25*
X116769900Y-79512900D02*
X116769900Y-87783995D01*
D21*
X119000000Y-99014095D02*
X127500000Y-99014095D01*
D26*
X135080000Y-92094095D02*
X134500000Y-91514095D01*
D21*
X127500000Y-93014095D02*
X129758495Y-90755600D01*
D26*
X144810000Y-94580000D02*
X135080000Y-94580000D01*
D21*
X127500000Y-99014095D02*
X127500000Y-93014095D01*
D25*
X97790000Y-74041000D02*
X98933000Y-72898000D01*
D26*
X135080000Y-94580000D02*
X135080000Y-92094095D01*
D25*
X115443000Y-74295000D02*
X115443000Y-78186000D01*
X118500000Y-89514095D02*
X123000000Y-89514095D01*
X97028000Y-80924000D02*
X97790000Y-80162000D01*
X116769900Y-87783995D02*
X118500000Y-89514095D01*
D21*
X116300095Y-93785000D02*
X116300095Y-96314190D01*
D25*
X97790000Y-80162000D02*
X97790000Y-74041000D01*
D21*
X129758495Y-90755600D02*
X133741505Y-90755600D01*
X133741505Y-90755600D02*
X134500000Y-91514095D01*
D26*
%TO.N,+5VP*%
X127900000Y-88900000D02*
X130500000Y-86300000D01*
X131300000Y-83500000D02*
X133200000Y-83500000D01*
X133200000Y-83500000D02*
X134300000Y-84600000D01*
X130500000Y-86300000D02*
X130500000Y-84300000D01*
X118308000Y-85475700D02*
X120535650Y-87703350D01*
X123403350Y-87703350D02*
X124600000Y-88900000D01*
X120535650Y-87703350D02*
X123403350Y-87703350D01*
X137190000Y-84420000D02*
X144810000Y-84420000D01*
X134480000Y-84420000D02*
X137190000Y-84420000D01*
X118308000Y-81741000D02*
X118308000Y-85475700D01*
X124600000Y-88900000D02*
X127900000Y-88900000D01*
X134300000Y-84600000D02*
X134480000Y-84420000D01*
X130500000Y-84300000D02*
X131300000Y-83500000D01*
%TD*%
%TA.AperFunction,Conductor*%
%TO.N,BAT_GND*%
G36*
X112100134Y-73568185D02*
G01*
X112145889Y-73620989D01*
X112157095Y-73672500D01*
X112157095Y-73962685D01*
X112137410Y-74029724D01*
X112084606Y-74075479D01*
X112065193Y-74082459D01*
X112041258Y-74088873D01*
X111755630Y-74207184D01*
X111755620Y-74207188D01*
X111487876Y-74361770D01*
X111242597Y-74549979D01*
X111242590Y-74549985D01*
X111023985Y-74768590D01*
X111023979Y-74768597D01*
X110835770Y-75013876D01*
X110681188Y-75281620D01*
X110681184Y-75281630D01*
X110562873Y-75567257D01*
X110482853Y-75865895D01*
X110442500Y-76172415D01*
X110442500Y-76481584D01*
X110482853Y-76788104D01*
X110562873Y-77086742D01*
X110681184Y-77372369D01*
X110681188Y-77372379D01*
X110835770Y-77640123D01*
X111023979Y-77885402D01*
X111023985Y-77885409D01*
X111242590Y-78104014D01*
X111242597Y-78104020D01*
X111487876Y-78292229D01*
X111755620Y-78446811D01*
X111755621Y-78446811D01*
X111755624Y-78446813D01*
X112041258Y-78565127D01*
X112065190Y-78571539D01*
X112124847Y-78607901D01*
X112155378Y-78670747D01*
X112157095Y-78691313D01*
X112157095Y-92740361D01*
X112137410Y-92807400D01*
X112084606Y-92853155D01*
X112015448Y-92863099D01*
X111960209Y-92840679D01*
X111848508Y-92759523D01*
X111680353Y-92673844D01*
X111680352Y-92673843D01*
X111680351Y-92673843D01*
X111500862Y-92615523D01*
X111500860Y-92615522D01*
X111500858Y-92615522D01*
X111314463Y-92586000D01*
X111314458Y-92586000D01*
X111125732Y-92586000D01*
X111125727Y-92586000D01*
X110939331Y-92615522D01*
X110759836Y-92673844D01*
X110591681Y-92759523D01*
X110542983Y-92794905D01*
X110438999Y-92870454D01*
X110438997Y-92870456D01*
X110438996Y-92870456D01*
X110305551Y-93003901D01*
X110305551Y-93003902D01*
X110305549Y-93003904D01*
X110257908Y-93069475D01*
X110194618Y-93156586D01*
X110113080Y-93316614D01*
X110065105Y-93367410D01*
X109997284Y-93384205D01*
X109931149Y-93361668D01*
X109887698Y-93306952D01*
X109878595Y-93260319D01*
X109878595Y-93038672D01*
X109878594Y-93038655D01*
X109872193Y-92979127D01*
X109872191Y-92979120D01*
X109821949Y-92844413D01*
X109821945Y-92844406D01*
X109735785Y-92729312D01*
X109735782Y-92729309D01*
X109620688Y-92643149D01*
X109620681Y-92643145D01*
X109485974Y-92592903D01*
X109485967Y-92592901D01*
X109426439Y-92586500D01*
X108930095Y-92586500D01*
X108930095Y-93416072D01*
X108851666Y-93370792D01*
X108738615Y-93340500D01*
X108621575Y-93340500D01*
X108508524Y-93370792D01*
X108430095Y-93416072D01*
X108430095Y-92586500D01*
X107933750Y-92586500D01*
X107874222Y-92592901D01*
X107874215Y-92592903D01*
X107739508Y-92643145D01*
X107739501Y-92643149D01*
X107624407Y-92729309D01*
X107624404Y-92729312D01*
X107538244Y-92844406D01*
X107538240Y-92844413D01*
X107487998Y-92979120D01*
X107487996Y-92979127D01*
X107481595Y-93038655D01*
X107481595Y-93535000D01*
X108311168Y-93535000D01*
X108265887Y-93613429D01*
X108235595Y-93726480D01*
X108235595Y-93843520D01*
X108265887Y-93956571D01*
X108311168Y-94035000D01*
X107481595Y-94035000D01*
X107481595Y-94531344D01*
X107487996Y-94590872D01*
X107487998Y-94590879D01*
X107538240Y-94725586D01*
X107538244Y-94725593D01*
X107624404Y-94840687D01*
X107624407Y-94840690D01*
X107739501Y-94926850D01*
X107739508Y-94926854D01*
X107874215Y-94977096D01*
X107874222Y-94977098D01*
X107933750Y-94983499D01*
X107933767Y-94983500D01*
X108430095Y-94983500D01*
X108430095Y-94153927D01*
X108508524Y-94199208D01*
X108621575Y-94229500D01*
X108738615Y-94229500D01*
X108851666Y-94199208D01*
X108930095Y-94153927D01*
X108930095Y-94983500D01*
X109426423Y-94983500D01*
X109426439Y-94983499D01*
X109485967Y-94977098D01*
X109485974Y-94977096D01*
X109620681Y-94926854D01*
X109620688Y-94926850D01*
X109735782Y-94840690D01*
X109735785Y-94840687D01*
X109821945Y-94725593D01*
X109821949Y-94725586D01*
X109872191Y-94590879D01*
X109872193Y-94590872D01*
X109878594Y-94531344D01*
X109878595Y-94531327D01*
X109878595Y-94309680D01*
X109898280Y-94242641D01*
X109951084Y-94196886D01*
X110020242Y-94186942D01*
X110083798Y-94215967D01*
X110113079Y-94253384D01*
X110194618Y-94413413D01*
X110305549Y-94566096D01*
X110438999Y-94699546D01*
X110591682Y-94810477D01*
X110759839Y-94896157D01*
X110939328Y-94954477D01*
X111009229Y-94965548D01*
X111125727Y-94984000D01*
X111125732Y-94984000D01*
X111314463Y-94984000D01*
X111418015Y-94967598D01*
X111500862Y-94954477D01*
X111680351Y-94896157D01*
X111848508Y-94810477D01*
X111960212Y-94729318D01*
X112026015Y-94705840D01*
X112094069Y-94721665D01*
X112142764Y-94771770D01*
X112157095Y-94829638D01*
X112157095Y-107170905D01*
X112154544Y-107179590D01*
X112155833Y-107188552D01*
X112144854Y-107212592D01*
X112137410Y-107237944D01*
X112130569Y-107243871D01*
X112126808Y-107252108D01*
X112104573Y-107266397D01*
X112084606Y-107283699D01*
X112074091Y-107285986D01*
X112068030Y-107289882D01*
X112033095Y-107294905D01*
X111937498Y-107294905D01*
X111870459Y-107275220D01*
X111864614Y-107271224D01*
X111848510Y-107259524D01*
X111680353Y-107173844D01*
X111680352Y-107173843D01*
X111680351Y-107173843D01*
X111500862Y-107115523D01*
X111500860Y-107115522D01*
X111500858Y-107115522D01*
X111314463Y-107086000D01*
X111314458Y-107086000D01*
X111125732Y-107086000D01*
X111125727Y-107086000D01*
X110939331Y-107115522D01*
X110759836Y-107173844D01*
X110591679Y-107259524D01*
X110575576Y-107271224D01*
X110509770Y-107294703D01*
X110502692Y-107294905D01*
X106204240Y-107294905D01*
X106137201Y-107275220D01*
X106121859Y-107263584D01*
X101657095Y-103294905D01*
X95781095Y-103294905D01*
X95714056Y-103275220D01*
X95668301Y-103222416D01*
X95657095Y-103170905D01*
X95657095Y-100418905D01*
X95676780Y-100351866D01*
X95729584Y-100306111D01*
X95781095Y-100294905D01*
X96629492Y-100294905D01*
X96696531Y-100314590D01*
X96742286Y-100367394D01*
X96752230Y-100436552D01*
X96739976Y-100475200D01*
X96694970Y-100563526D01*
X96633971Y-100751258D01*
X96603095Y-100946207D01*
X96603095Y-101143602D01*
X96633971Y-101338551D01*
X96694968Y-101526278D01*
X96784578Y-101702144D01*
X96810552Y-101737893D01*
X96810552Y-101737894D01*
X97374132Y-101174313D01*
X97391170Y-101237898D01*
X97456996Y-101351912D01*
X97550088Y-101445004D01*
X97664102Y-101510830D01*
X97727685Y-101527867D01*
X97164104Y-102091446D01*
X97164105Y-102091447D01*
X97199850Y-102117417D01*
X97199863Y-102117425D01*
X97375721Y-102207031D01*
X97563448Y-102268028D01*
X97758398Y-102298905D01*
X97955792Y-102298905D01*
X98150741Y-102268028D01*
X98338468Y-102207031D01*
X98514336Y-102117421D01*
X98550083Y-102091448D01*
X98550083Y-102091446D01*
X97986505Y-101527867D01*
X98050088Y-101510830D01*
X98164102Y-101445004D01*
X98257194Y-101351912D01*
X98323020Y-101237898D01*
X98340057Y-101174314D01*
X98903636Y-101737893D01*
X98903638Y-101737893D01*
X98929611Y-101702146D01*
X99019221Y-101526278D01*
X99080218Y-101338551D01*
X99111095Y-101143602D01*
X99111095Y-100946207D01*
X99080218Y-100751258D01*
X99019219Y-100563526D01*
X98974214Y-100475200D01*
X98961317Y-100406531D01*
X98987593Y-100341791D01*
X99044699Y-100301533D01*
X99084698Y-100294905D01*
X100657095Y-100294905D01*
X100657095Y-95794905D01*
X99370541Y-94508351D01*
X99337056Y-94447028D01*
X99342040Y-94377336D01*
X99350827Y-94358685D01*
X99385500Y-94298631D01*
X99470805Y-94092686D01*
X99528499Y-93877368D01*
X99557595Y-93656362D01*
X99557595Y-92918905D01*
X99577280Y-92851866D01*
X99630084Y-92806111D01*
X99681595Y-92794905D01*
X101157095Y-92794905D01*
X101157095Y-85418905D01*
X101176780Y-85351866D01*
X101229584Y-85306111D01*
X101281095Y-85294905D01*
X102157095Y-85294905D01*
X102157095Y-80994655D01*
X104409500Y-80994655D01*
X104409500Y-81491000D01*
X105239073Y-81491000D01*
X105193792Y-81569429D01*
X105163500Y-81682480D01*
X105163500Y-81799520D01*
X105193792Y-81912571D01*
X105239073Y-81991000D01*
X104409500Y-81991000D01*
X104409500Y-82487344D01*
X104415901Y-82546872D01*
X104415903Y-82546879D01*
X104466145Y-82681586D01*
X104466149Y-82681593D01*
X104552309Y-82796687D01*
X104552312Y-82796690D01*
X104667406Y-82882850D01*
X104667413Y-82882854D01*
X104802120Y-82933096D01*
X104802127Y-82933098D01*
X104861655Y-82939499D01*
X104861672Y-82939500D01*
X105358000Y-82939500D01*
X105358000Y-82109927D01*
X105436429Y-82155208D01*
X105549480Y-82185500D01*
X105666520Y-82185500D01*
X105779571Y-82155208D01*
X105858000Y-82109927D01*
X105858000Y-82939500D01*
X106354328Y-82939500D01*
X106354344Y-82939499D01*
X106413872Y-82933098D01*
X106413879Y-82933096D01*
X106548586Y-82882854D01*
X106548593Y-82882850D01*
X106663687Y-82796690D01*
X106663690Y-82796687D01*
X106749850Y-82681593D01*
X106749854Y-82681586D01*
X106800096Y-82546879D01*
X106800098Y-82546872D01*
X106806499Y-82487344D01*
X106806500Y-82487327D01*
X106806500Y-82265680D01*
X106826185Y-82198641D01*
X106878989Y-82152886D01*
X106948147Y-82142942D01*
X107011703Y-82171967D01*
X107040984Y-82209384D01*
X107122523Y-82369413D01*
X107233454Y-82522096D01*
X107366904Y-82655546D01*
X107519587Y-82766477D01*
X107687744Y-82852157D01*
X107867233Y-82910477D01*
X107937134Y-82921548D01*
X108053632Y-82940000D01*
X108053637Y-82940000D01*
X108242368Y-82940000D01*
X108345920Y-82923598D01*
X108428767Y-82910477D01*
X108608256Y-82852157D01*
X108776413Y-82766477D01*
X108929096Y-82655546D01*
X109062546Y-82522096D01*
X109173477Y-82369413D01*
X109259157Y-82201256D01*
X109300333Y-82074529D01*
X109339768Y-82016858D01*
X109404127Y-81989659D01*
X109472973Y-82001573D01*
X109524449Y-82048817D01*
X109536193Y-82074533D01*
X109577304Y-82201061D01*
X109577305Y-82201063D01*
X109662952Y-82369153D01*
X109681189Y-82394255D01*
X109681190Y-82394255D01*
X110250352Y-81825093D01*
X110273792Y-81912571D01*
X110332311Y-82013930D01*
X110415070Y-82096689D01*
X110516429Y-82155208D01*
X110603905Y-82178647D01*
X110034743Y-82747808D01*
X110034743Y-82747809D01*
X110059844Y-82766046D01*
X110227935Y-82851694D01*
X110227938Y-82851695D01*
X110407349Y-82909988D01*
X110593677Y-82939500D01*
X110782323Y-82939500D01*
X110968650Y-82909988D01*
X111148061Y-82851695D01*
X111148064Y-82851694D01*
X111316151Y-82766048D01*
X111341255Y-82747808D01*
X111341256Y-82747808D01*
X110772095Y-82178647D01*
X110859571Y-82155208D01*
X110960930Y-82096689D01*
X111043689Y-82013930D01*
X111102208Y-81912571D01*
X111125647Y-81825094D01*
X111694808Y-82394256D01*
X111694808Y-82394255D01*
X111713048Y-82369151D01*
X111798694Y-82201064D01*
X111798695Y-82201061D01*
X111856988Y-82021650D01*
X111886500Y-81835323D01*
X111886500Y-81646676D01*
X111856988Y-81460349D01*
X111798695Y-81280938D01*
X111798694Y-81280935D01*
X111713046Y-81112844D01*
X111694809Y-81087743D01*
X111694808Y-81087743D01*
X111125647Y-81656904D01*
X111102208Y-81569429D01*
X111043689Y-81468070D01*
X110960930Y-81385311D01*
X110859571Y-81326792D01*
X110772094Y-81303352D01*
X111341255Y-80734190D01*
X111341255Y-80734189D01*
X111316153Y-80715952D01*
X111148063Y-80630305D01*
X111148061Y-80630304D01*
X110968650Y-80572011D01*
X110782323Y-80542500D01*
X110593677Y-80542500D01*
X110407349Y-80572011D01*
X110227938Y-80630304D01*
X110227936Y-80630305D01*
X110059844Y-80715953D01*
X110059839Y-80715957D01*
X110034743Y-80734188D01*
X110034743Y-80734191D01*
X110603906Y-81303352D01*
X110516429Y-81326792D01*
X110415070Y-81385311D01*
X110332311Y-81468070D01*
X110273792Y-81569429D01*
X110250352Y-81656905D01*
X109681191Y-81087743D01*
X109681188Y-81087743D01*
X109662957Y-81112839D01*
X109662953Y-81112844D01*
X109577306Y-81280935D01*
X109536193Y-81407467D01*
X109496755Y-81465142D01*
X109432396Y-81492340D01*
X109363550Y-81480425D01*
X109312074Y-81433181D01*
X109300333Y-81407472D01*
X109259157Y-81280744D01*
X109173477Y-81112587D01*
X109062546Y-80959904D01*
X108929096Y-80826454D01*
X108776413Y-80715523D01*
X108717120Y-80685312D01*
X108608258Y-80629844D01*
X108608257Y-80629843D01*
X108608256Y-80629843D01*
X108428767Y-80571523D01*
X108428765Y-80571522D01*
X108428763Y-80571522D01*
X108242368Y-80542000D01*
X108242363Y-80542000D01*
X108053637Y-80542000D01*
X108053632Y-80542000D01*
X107867236Y-80571522D01*
X107687741Y-80629844D01*
X107519586Y-80715523D01*
X107462883Y-80756721D01*
X107366904Y-80826454D01*
X107366902Y-80826456D01*
X107366901Y-80826456D01*
X107233456Y-80959901D01*
X107233456Y-80959902D01*
X107233454Y-80959904D01*
X107185813Y-81025475D01*
X107122523Y-81112586D01*
X107040985Y-81272614D01*
X106993010Y-81323410D01*
X106925189Y-81340205D01*
X106859054Y-81317668D01*
X106815603Y-81262952D01*
X106806500Y-81216319D01*
X106806500Y-80994672D01*
X106806499Y-80994655D01*
X106800098Y-80935127D01*
X106800096Y-80935120D01*
X106749854Y-80800413D01*
X106749850Y-80800406D01*
X106663690Y-80685312D01*
X106663687Y-80685309D01*
X106548593Y-80599149D01*
X106548586Y-80599145D01*
X106413879Y-80548903D01*
X106413872Y-80548901D01*
X106354344Y-80542500D01*
X105858000Y-80542500D01*
X105858000Y-81372072D01*
X105779571Y-81326792D01*
X105666520Y-81296500D01*
X105549480Y-81296500D01*
X105436429Y-81326792D01*
X105358000Y-81372072D01*
X105358000Y-80542500D01*
X104861655Y-80542500D01*
X104802127Y-80548901D01*
X104802120Y-80548903D01*
X104667413Y-80599145D01*
X104667406Y-80599149D01*
X104552312Y-80685309D01*
X104552309Y-80685312D01*
X104466149Y-80800406D01*
X104466145Y-80800413D01*
X104415903Y-80935120D01*
X104415901Y-80935127D01*
X104409500Y-80994655D01*
X102157095Y-80994655D01*
X102157095Y-76172441D01*
X103243000Y-76172441D01*
X103243000Y-76481558D01*
X103283346Y-76788001D01*
X103283348Y-76788012D01*
X103363347Y-77086577D01*
X103481634Y-77372147D01*
X103481638Y-77372157D01*
X103636187Y-77639844D01*
X103765751Y-77808694D01*
X104485728Y-77088716D01*
X104571278Y-77206466D01*
X104721534Y-77356722D01*
X104839281Y-77442270D01*
X104119304Y-78162247D01*
X104288159Y-78291815D01*
X104555842Y-78446361D01*
X104555852Y-78446365D01*
X104841422Y-78564652D01*
X105139987Y-78644651D01*
X105139998Y-78644653D01*
X105446441Y-78684999D01*
X105446456Y-78685000D01*
X105755544Y-78685000D01*
X105755558Y-78684999D01*
X106062001Y-78644653D01*
X106062012Y-78644651D01*
X106360577Y-78564652D01*
X106646147Y-78446365D01*
X106646156Y-78446361D01*
X106913845Y-78291811D01*
X107082694Y-78162247D01*
X106362717Y-77442270D01*
X106480466Y-77356722D01*
X106630722Y-77206466D01*
X106716270Y-77088717D01*
X107436247Y-77808694D01*
X107565811Y-77639845D01*
X107720361Y-77372156D01*
X107720365Y-77372147D01*
X107838652Y-77086577D01*
X107918651Y-76788012D01*
X107918653Y-76788001D01*
X107958999Y-76481558D01*
X107959000Y-76481544D01*
X107959000Y-76172455D01*
X107958999Y-76172441D01*
X107918653Y-75865998D01*
X107918651Y-75865987D01*
X107838652Y-75567422D01*
X107720365Y-75281852D01*
X107720361Y-75281842D01*
X107565815Y-75014159D01*
X107436247Y-74845304D01*
X106716270Y-75565281D01*
X106630722Y-75447534D01*
X106480466Y-75297278D01*
X106362716Y-75211728D01*
X107082694Y-74491751D01*
X107082694Y-74491750D01*
X106913844Y-74362187D01*
X106646157Y-74207638D01*
X106646147Y-74207634D01*
X106360577Y-74089347D01*
X106062012Y-74009348D01*
X106062001Y-74009346D01*
X105755558Y-73969000D01*
X105446441Y-73969000D01*
X105139998Y-74009346D01*
X105139987Y-74009348D01*
X104841422Y-74089347D01*
X104555852Y-74207634D01*
X104555842Y-74207638D01*
X104288155Y-74362187D01*
X104119304Y-74491750D01*
X104119304Y-74491751D01*
X104839282Y-75211729D01*
X104721534Y-75297278D01*
X104571278Y-75447534D01*
X104485729Y-75565282D01*
X103765751Y-74845304D01*
X103765750Y-74845304D01*
X103636187Y-75014155D01*
X103481638Y-75281842D01*
X103481634Y-75281852D01*
X103363347Y-75567422D01*
X103283348Y-75865987D01*
X103283346Y-75865998D01*
X103243000Y-76172441D01*
X102157095Y-76172441D01*
X102157095Y-73672500D01*
X102176780Y-73605461D01*
X102229584Y-73559706D01*
X102281095Y-73548500D01*
X112033095Y-73548500D01*
X112100134Y-73568185D01*
G37*
%TD.AperFunction*%
%TA.AperFunction,Conductor*%
G36*
X112100134Y-69016090D02*
G01*
X112145889Y-69068894D01*
X112157095Y-69120405D01*
X112157095Y-71770100D01*
X112137410Y-71837139D01*
X112084606Y-71882894D01*
X112033095Y-71894100D01*
X103449530Y-71894100D01*
X103382491Y-71874415D01*
X103336736Y-71821611D01*
X103326792Y-71752453D01*
X103349212Y-71697215D01*
X103434565Y-71579734D01*
X103516747Y-71418447D01*
X103516748Y-71418444D01*
X103572682Y-71246293D01*
X103601000Y-71067506D01*
X103601000Y-70577000D01*
X102751000Y-70577000D01*
X102751000Y-70077000D01*
X103601000Y-70077000D01*
X103601000Y-69586493D01*
X103572682Y-69407706D01*
X103516748Y-69235555D01*
X103516747Y-69235552D01*
X103486760Y-69176700D01*
X103473864Y-69108031D01*
X103500140Y-69043290D01*
X103557247Y-69003033D01*
X103597245Y-68996405D01*
X112033095Y-68996405D01*
X112100134Y-69016090D01*
G37*
%TD.AperFunction*%
%TD*%
%TA.AperFunction,Conductor*%
%TO.N,GND_5VCAN*%
G36*
X96695971Y-95314590D02*
G01*
X96741726Y-95367394D01*
X96751670Y-95436552D01*
X96739418Y-95475195D01*
X96694504Y-95563344D01*
X96694503Y-95563346D01*
X96694503Y-95563347D01*
X96633484Y-95751141D01*
X96602595Y-95946168D01*
X96602595Y-96143641D01*
X96633484Y-96338668D01*
X96663102Y-96429821D01*
X96694504Y-96526466D01*
X96719490Y-96575503D01*
X96784153Y-96702409D01*
X96900210Y-96862151D01*
X97039848Y-97001789D01*
X97141309Y-97075503D01*
X97199594Y-97117849D01*
X97330246Y-97184420D01*
X97381042Y-97232395D01*
X97397837Y-97300216D01*
X97375299Y-97366351D01*
X97330246Y-97405389D01*
X97213112Y-97465072D01*
X97199590Y-97471963D01*
X97039848Y-97588020D01*
X96900210Y-97727658D01*
X96784153Y-97887400D01*
X96694503Y-98063346D01*
X96633484Y-98251141D01*
X96602595Y-98446168D01*
X96602595Y-98643641D01*
X96633484Y-98838668D01*
X96662343Y-98927484D01*
X96694504Y-99026466D01*
X96739417Y-99114612D01*
X96752313Y-99183279D01*
X96726037Y-99248019D01*
X96668931Y-99288277D01*
X96628932Y-99294905D01*
X93657095Y-99294905D01*
X93657095Y-104794905D01*
X100533095Y-104794905D01*
X100600134Y-104814590D01*
X100645889Y-104867394D01*
X100657095Y-104918905D01*
X100657095Y-112096905D01*
X114657095Y-112096905D01*
X114657095Y-108190631D01*
X115101095Y-108190631D01*
X115101095Y-108379368D01*
X115130599Y-108565650D01*
X115130618Y-108565767D01*
X115188938Y-108745256D01*
X115274618Y-108913413D01*
X115385549Y-109066096D01*
X115518999Y-109199546D01*
X115671682Y-109310477D01*
X115839839Y-109396157D01*
X116019328Y-109454477D01*
X116089229Y-109465548D01*
X116205727Y-109484000D01*
X116205732Y-109484000D01*
X116394463Y-109484000D01*
X116498015Y-109467598D01*
X116580862Y-109454477D01*
X116760351Y-109396157D01*
X116928508Y-109310477D01*
X117081191Y-109199546D01*
X117214641Y-109066096D01*
X117325572Y-108913413D01*
X117411252Y-108745256D01*
X117469572Y-108565767D01*
X117486867Y-108456571D01*
X117499095Y-108379368D01*
X117499095Y-108190631D01*
X117469572Y-108004236D01*
X117469572Y-108004233D01*
X117411252Y-107824744D01*
X117325572Y-107656587D01*
X117214641Y-107503904D01*
X117081191Y-107370454D01*
X116928508Y-107259523D01*
X116760351Y-107173843D01*
X116580862Y-107115523D01*
X116580860Y-107115522D01*
X116580858Y-107115522D01*
X116394463Y-107086000D01*
X116394458Y-107086000D01*
X116205732Y-107086000D01*
X116205727Y-107086000D01*
X116019331Y-107115522D01*
X115839836Y-107173844D01*
X115671681Y-107259523D01*
X115589421Y-107319289D01*
X115518999Y-107370454D01*
X115518997Y-107370456D01*
X115518996Y-107370456D01*
X115385551Y-107503901D01*
X115385551Y-107503902D01*
X115385549Y-107503904D01*
X115371065Y-107523840D01*
X115274618Y-107656586D01*
X115188939Y-107824741D01*
X115130617Y-108004236D01*
X115101095Y-108190631D01*
X114657095Y-108190631D01*
X114657095Y-105918905D01*
X114676780Y-105851866D01*
X114729584Y-105806111D01*
X114781095Y-105794905D01*
X117157095Y-105794905D01*
X117157095Y-100561905D01*
X117176780Y-100494866D01*
X117229584Y-100449111D01*
X117281095Y-100437905D01*
X122533095Y-100437905D01*
X122600134Y-100457590D01*
X122645889Y-100510394D01*
X122657095Y-100561905D01*
X122657095Y-107634832D01*
X122637410Y-107701871D01*
X122584606Y-107747626D01*
X122515448Y-107757570D01*
X122451892Y-107728545D01*
X122422611Y-107691128D01*
X122405143Y-107656847D01*
X122386904Y-107631743D01*
X122386903Y-107631743D01*
X121817742Y-108200904D01*
X121794303Y-108113429D01*
X121735784Y-108012070D01*
X121653025Y-107929311D01*
X121551666Y-107870792D01*
X121464189Y-107847352D01*
X122033350Y-107278190D01*
X122033350Y-107278189D01*
X122008248Y-107259952D01*
X121840158Y-107174305D01*
X121840156Y-107174304D01*
X121660745Y-107116011D01*
X121474418Y-107086500D01*
X121285772Y-107086500D01*
X121099444Y-107116011D01*
X120920033Y-107174304D01*
X120920031Y-107174305D01*
X120751939Y-107259953D01*
X120751934Y-107259957D01*
X120726838Y-107278188D01*
X120726838Y-107278191D01*
X121296001Y-107847352D01*
X121208524Y-107870792D01*
X121107165Y-107929311D01*
X121024406Y-108012070D01*
X120965887Y-108113429D01*
X120942447Y-108200905D01*
X120373286Y-107631743D01*
X120373283Y-107631743D01*
X120355052Y-107656839D01*
X120355048Y-107656844D01*
X120269400Y-107824936D01*
X120269399Y-107824938D01*
X120211106Y-108004349D01*
X120181595Y-108190676D01*
X120181595Y-108379323D01*
X120211106Y-108565650D01*
X120269399Y-108745061D01*
X120269400Y-108745063D01*
X120355047Y-108913153D01*
X120373284Y-108938255D01*
X120373285Y-108938255D01*
X120942447Y-108369093D01*
X120965887Y-108456571D01*
X121024406Y-108557930D01*
X121107165Y-108640689D01*
X121208524Y-108699208D01*
X121296000Y-108722647D01*
X120726838Y-109291808D01*
X120726838Y-109291809D01*
X120751939Y-109310046D01*
X120920030Y-109395694D01*
X120920033Y-109395695D01*
X121099444Y-109453988D01*
X121285772Y-109483500D01*
X121474418Y-109483500D01*
X121660745Y-109453988D01*
X121840156Y-109395695D01*
X121840159Y-109395694D01*
X122008246Y-109310048D01*
X122033350Y-109291808D01*
X122033351Y-109291808D01*
X121464190Y-108722647D01*
X121551666Y-108699208D01*
X121653025Y-108640689D01*
X121735784Y-108557930D01*
X121794303Y-108456571D01*
X121817742Y-108369094D01*
X122386903Y-108938256D01*
X122386903Y-108938255D01*
X122405143Y-108913151D01*
X122422610Y-108878872D01*
X122470585Y-108828076D01*
X122538406Y-108811281D01*
X122604541Y-108833819D01*
X122647992Y-108888534D01*
X122657095Y-108935167D01*
X122657095Y-127203405D01*
X122637410Y-127270444D01*
X122584606Y-127316199D01*
X122533095Y-127327405D01*
X98781095Y-127327405D01*
X98714056Y-127307720D01*
X98668301Y-127254916D01*
X98657095Y-127203405D01*
X98657095Y-122706648D01*
X101736595Y-122706648D01*
X101736595Y-122911351D01*
X101768617Y-123113534D01*
X101831876Y-123308223D01*
X101924810Y-123490613D01*
X102045123Y-123656213D01*
X102189881Y-123800971D01*
X102344844Y-123913556D01*
X102355485Y-123921287D01*
X102471702Y-123980503D01*
X102537871Y-124014218D01*
X102537873Y-124014218D01*
X102537876Y-124014220D01*
X102642232Y-124048127D01*
X102732560Y-124077477D01*
X102833652Y-124093488D01*
X102934743Y-124109500D01*
X102934744Y-124109500D01*
X103139446Y-124109500D01*
X103139447Y-124109500D01*
X103341629Y-124077477D01*
X103536314Y-124014220D01*
X103718705Y-123921287D01*
X103811685Y-123853732D01*
X103884308Y-123800971D01*
X103884310Y-123800968D01*
X103884314Y-123800966D01*
X104029061Y-123656219D01*
X104029063Y-123656215D01*
X104029066Y-123656213D01*
X104081827Y-123583590D01*
X104149382Y-123490610D01*
X104242315Y-123308219D01*
X104305572Y-123113534D01*
X104337595Y-122911352D01*
X104337595Y-122706648D01*
X109356595Y-122706648D01*
X109356595Y-122911351D01*
X109388617Y-123113534D01*
X109451876Y-123308223D01*
X109544810Y-123490613D01*
X109665123Y-123656213D01*
X109809881Y-123800971D01*
X109964844Y-123913556D01*
X109975485Y-123921287D01*
X110091702Y-123980503D01*
X110157871Y-124014218D01*
X110157873Y-124014218D01*
X110157876Y-124014220D01*
X110262232Y-124048127D01*
X110352560Y-124077477D01*
X110453652Y-124093488D01*
X110554743Y-124109500D01*
X110554744Y-124109500D01*
X110759446Y-124109500D01*
X110759447Y-124109500D01*
X110961629Y-124077477D01*
X111156314Y-124014220D01*
X111338705Y-123921287D01*
X111431685Y-123853732D01*
X111504308Y-123800971D01*
X111504310Y-123800968D01*
X111504314Y-123800966D01*
X111649061Y-123656219D01*
X111649063Y-123656215D01*
X111649066Y-123656213D01*
X111701827Y-123583590D01*
X111769382Y-123490610D01*
X111862315Y-123308219D01*
X111925572Y-123113534D01*
X111957595Y-122911352D01*
X111957595Y-122706648D01*
X111925572Y-122504466D01*
X111862315Y-122309781D01*
X111862313Y-122309778D01*
X111862313Y-122309776D01*
X111828598Y-122243607D01*
X111769382Y-122127390D01*
X111761651Y-122116749D01*
X111649066Y-121961786D01*
X111504308Y-121817028D01*
X111338708Y-121696715D01*
X111338707Y-121696714D01*
X111338705Y-121696713D01*
X111281748Y-121667691D01*
X111156318Y-121603781D01*
X110961629Y-121540522D01*
X110787090Y-121512878D01*
X110759447Y-121508500D01*
X110554743Y-121508500D01*
X110530424Y-121512351D01*
X110352560Y-121540522D01*
X110157871Y-121603781D01*
X109975481Y-121696715D01*
X109809881Y-121817028D01*
X109665123Y-121961786D01*
X109544810Y-122127386D01*
X109451876Y-122309776D01*
X109388617Y-122504465D01*
X109356595Y-122706648D01*
X104337595Y-122706648D01*
X104305572Y-122504466D01*
X104242315Y-122309781D01*
X104242313Y-122309778D01*
X104242313Y-122309776D01*
X104208598Y-122243607D01*
X104149382Y-122127390D01*
X104141651Y-122116749D01*
X104029066Y-121961786D01*
X103884308Y-121817028D01*
X103718708Y-121696715D01*
X103718707Y-121696714D01*
X103718705Y-121696713D01*
X103661748Y-121667691D01*
X103536318Y-121603781D01*
X103341629Y-121540522D01*
X103167090Y-121512878D01*
X103139447Y-121508500D01*
X102934743Y-121508500D01*
X102910424Y-121512351D01*
X102732560Y-121540522D01*
X102537871Y-121603781D01*
X102355481Y-121696715D01*
X102189881Y-121817028D01*
X102045123Y-121961786D01*
X101924810Y-122127386D01*
X101831876Y-122309776D01*
X101768617Y-122504465D01*
X101736595Y-122706648D01*
X98657095Y-122706648D01*
X98657095Y-117794905D01*
X89281595Y-117794905D01*
X89214556Y-117775220D01*
X89168801Y-117722416D01*
X89165371Y-117706648D01*
X101736595Y-117706648D01*
X101736595Y-117911351D01*
X101768617Y-118113534D01*
X101831876Y-118308223D01*
X101924810Y-118490613D01*
X102045123Y-118656213D01*
X102189881Y-118800971D01*
X102344844Y-118913556D01*
X102355485Y-118921287D01*
X102471702Y-118980503D01*
X102537871Y-119014218D01*
X102537873Y-119014218D01*
X102537876Y-119014220D01*
X102642232Y-119048127D01*
X102732560Y-119077477D01*
X102833652Y-119093488D01*
X102934743Y-119109500D01*
X102934744Y-119109500D01*
X103139446Y-119109500D01*
X103139447Y-119109500D01*
X103341629Y-119077477D01*
X103536314Y-119014220D01*
X103718705Y-118921287D01*
X103811685Y-118853732D01*
X103884308Y-118800971D01*
X103884310Y-118800968D01*
X103884314Y-118800966D01*
X104029061Y-118656219D01*
X104029063Y-118656215D01*
X104029066Y-118656213D01*
X104081827Y-118583590D01*
X104149382Y-118490610D01*
X104242315Y-118308219D01*
X104305572Y-118113534D01*
X104337595Y-117911352D01*
X104337595Y-117706648D01*
X109356595Y-117706648D01*
X109356595Y-117911351D01*
X109388617Y-118113534D01*
X109451876Y-118308223D01*
X109544810Y-118490613D01*
X109665123Y-118656213D01*
X109809881Y-118800971D01*
X109964844Y-118913556D01*
X109975485Y-118921287D01*
X110091702Y-118980503D01*
X110157871Y-119014218D01*
X110157873Y-119014218D01*
X110157876Y-119014220D01*
X110262232Y-119048127D01*
X110352560Y-119077477D01*
X110453652Y-119093488D01*
X110554743Y-119109500D01*
X110554744Y-119109500D01*
X110759446Y-119109500D01*
X110759447Y-119109500D01*
X110961629Y-119077477D01*
X111156314Y-119014220D01*
X111338705Y-118921287D01*
X111431685Y-118853732D01*
X111504308Y-118800971D01*
X111504310Y-118800968D01*
X111504314Y-118800966D01*
X111649061Y-118656219D01*
X111649063Y-118656215D01*
X111649066Y-118656213D01*
X111701827Y-118583590D01*
X111769382Y-118490610D01*
X111862315Y-118308219D01*
X111925572Y-118113534D01*
X111957595Y-117911352D01*
X111957595Y-117706648D01*
X111925572Y-117504466D01*
X111862315Y-117309781D01*
X111862313Y-117309778D01*
X111862313Y-117309776D01*
X111828598Y-117243607D01*
X111769382Y-117127390D01*
X111761651Y-117116749D01*
X111649066Y-116961786D01*
X111504308Y-116817028D01*
X111338708Y-116696715D01*
X111338707Y-116696714D01*
X111338705Y-116696713D01*
X111281748Y-116667691D01*
X111156318Y-116603781D01*
X110961629Y-116540522D01*
X110787090Y-116512878D01*
X110759447Y-116508500D01*
X110554743Y-116508500D01*
X110530424Y-116512351D01*
X110352560Y-116540522D01*
X110157871Y-116603781D01*
X109975481Y-116696715D01*
X109809881Y-116817028D01*
X109665123Y-116961786D01*
X109544810Y-117127386D01*
X109451876Y-117309776D01*
X109388617Y-117504465D01*
X109356595Y-117706648D01*
X104337595Y-117706648D01*
X104305572Y-117504466D01*
X104242315Y-117309781D01*
X104242313Y-117309778D01*
X104242313Y-117309776D01*
X104208598Y-117243607D01*
X104149382Y-117127390D01*
X104141651Y-117116749D01*
X104029066Y-116961786D01*
X103884308Y-116817028D01*
X103718708Y-116696715D01*
X103718707Y-116696714D01*
X103718705Y-116696713D01*
X103661748Y-116667691D01*
X103536318Y-116603781D01*
X103341629Y-116540522D01*
X103167090Y-116512878D01*
X103139447Y-116508500D01*
X102934743Y-116508500D01*
X102910424Y-116512351D01*
X102732560Y-116540522D01*
X102537871Y-116603781D01*
X102355481Y-116696715D01*
X102189881Y-116817028D01*
X102045123Y-116961786D01*
X101924810Y-117127386D01*
X101831876Y-117309776D01*
X101768617Y-117504465D01*
X101736595Y-117706648D01*
X89165371Y-117706648D01*
X89157595Y-117670905D01*
X89157595Y-95418905D01*
X89177280Y-95351866D01*
X89230084Y-95306111D01*
X89281595Y-95294905D01*
X96628932Y-95294905D01*
X96695971Y-95314590D01*
G37*
%TD.AperFunction*%
%TD*%
%TA.AperFunction,Conductor*%
%TO.N,GND_VP*%
G36*
X148099634Y-69488685D02*
G01*
X148145389Y-69541489D01*
X148156595Y-69593000D01*
X148156595Y-127203405D01*
X148136910Y-127270444D01*
X148084106Y-127316199D01*
X148032595Y-127327405D01*
X126228362Y-127327405D01*
X126161323Y-127307720D01*
X126115568Y-127254916D01*
X126104362Y-127203405D01*
X126104362Y-122673616D01*
X141806595Y-122673616D01*
X141806595Y-122916193D01*
X141838256Y-123156690D01*
X141901042Y-123391009D01*
X141993868Y-123615110D01*
X141993871Y-123615117D01*
X142115159Y-123825194D01*
X142115161Y-123825197D01*
X142115162Y-123825198D01*
X142262828Y-124017641D01*
X142262834Y-124017648D01*
X142434351Y-124189165D01*
X142434357Y-124189170D01*
X142626806Y-124336841D01*
X142836883Y-124458129D01*
X143060995Y-124550959D01*
X143295306Y-124613743D01*
X143475681Y-124637489D01*
X143535806Y-124645405D01*
X143535807Y-124645405D01*
X143778384Y-124645405D01*
X143826483Y-124639072D01*
X144018884Y-124613743D01*
X144253195Y-124550959D01*
X144477307Y-124458129D01*
X144687384Y-124336841D01*
X144879833Y-124189170D01*
X145051360Y-124017643D01*
X145199031Y-123825194D01*
X145320319Y-123615117D01*
X145413149Y-123391005D01*
X145475933Y-123156694D01*
X145507595Y-122916193D01*
X145507595Y-122673617D01*
X145475933Y-122433116D01*
X145413149Y-122198805D01*
X145320319Y-121974693D01*
X145199031Y-121764616D01*
X145056402Y-121578738D01*
X145051361Y-121572168D01*
X145051355Y-121572161D01*
X144879838Y-121400644D01*
X144879831Y-121400638D01*
X144687388Y-121252972D01*
X144687387Y-121252971D01*
X144687384Y-121252969D01*
X144477307Y-121131681D01*
X144477300Y-121131678D01*
X144253199Y-121038852D01*
X144018880Y-120976066D01*
X143778384Y-120944405D01*
X143778383Y-120944405D01*
X143535807Y-120944405D01*
X143535806Y-120944405D01*
X143295309Y-120976066D01*
X143060990Y-121038852D01*
X142836889Y-121131678D01*
X142836880Y-121131682D01*
X142626801Y-121252972D01*
X142434358Y-121400638D01*
X142434351Y-121400644D01*
X142262834Y-121572161D01*
X142262828Y-121572168D01*
X142115162Y-121764611D01*
X141993872Y-121974690D01*
X141993868Y-121974699D01*
X141901042Y-122198800D01*
X141838256Y-122433119D01*
X141806595Y-122673616D01*
X126104362Y-122673616D01*
X126104362Y-100238595D01*
X126124047Y-100171556D01*
X126176851Y-100125801D01*
X126228362Y-100114595D01*
X127586610Y-100114595D01*
X127586611Y-100114595D01*
X127757701Y-100087497D01*
X127922445Y-100033968D01*
X128076788Y-99955327D01*
X128216928Y-99853509D01*
X128339414Y-99731023D01*
X128441232Y-99590883D01*
X128519873Y-99436540D01*
X128573402Y-99271796D01*
X128600500Y-99100706D01*
X128600500Y-93521299D01*
X128620185Y-93454260D01*
X128636819Y-93433618D01*
X130178018Y-91892419D01*
X130239341Y-91858934D01*
X130265699Y-91856100D01*
X131461398Y-91856100D01*
X131528437Y-91875785D01*
X131574192Y-91928589D01*
X131584136Y-91997747D01*
X131555111Y-92061303D01*
X131549080Y-92067779D01*
X130579483Y-93037376D01*
X129614581Y-94002278D01*
X129502776Y-94114082D01*
X129502775Y-94114084D01*
X129460555Y-94187213D01*
X129452656Y-94200894D01*
X129452654Y-94200896D01*
X129423720Y-94251009D01*
X129423719Y-94251010D01*
X129423718Y-94251015D01*
X129382794Y-94403743D01*
X129382794Y-94403745D01*
X129382794Y-94571846D01*
X129382795Y-94571859D01*
X129382795Y-103554840D01*
X129382794Y-103712955D01*
X129401434Y-103782517D01*
X129423718Y-103865683D01*
X129423721Y-103865688D01*
X129502770Y-104002607D01*
X129502776Y-104002615D01*
X130346476Y-104846315D01*
X130379961Y-104907638D01*
X130382795Y-104933996D01*
X130382795Y-107182703D01*
X130363110Y-107249742D01*
X130346476Y-107270384D01*
X130142434Y-107474425D01*
X130125838Y-107483487D01*
X130112229Y-107496619D01*
X130082729Y-107507026D01*
X130081111Y-107507910D01*
X130078946Y-107508361D01*
X130006788Y-107522715D01*
X129937196Y-107516488D01*
X129882018Y-107473626D01*
X129858773Y-107407736D01*
X129858595Y-107401098D01*
X129858595Y-106330942D01*
X129855472Y-106319288D01*
X129855471Y-106319285D01*
X129844811Y-106279501D01*
X129844811Y-106279500D01*
X129817672Y-106178216D01*
X129763457Y-106084312D01*
X129738619Y-106041290D01*
X129738616Y-106041286D01*
X129738615Y-106041284D01*
X129626811Y-105929480D01*
X129626810Y-105929479D01*
X129622480Y-105925149D01*
X129622469Y-105925139D01*
X129491669Y-105794339D01*
X129458184Y-105733016D01*
X129457733Y-105730849D01*
X129437288Y-105628068D01*
X129426832Y-105575503D01*
X129426830Y-105575498D01*
X129366492Y-105429827D01*
X129366485Y-105429814D01*
X129278884Y-105298711D01*
X129278881Y-105298707D01*
X129167387Y-105187213D01*
X129167383Y-105187210D01*
X129036280Y-105099609D01*
X129036267Y-105099602D01*
X128890596Y-105039264D01*
X128890584Y-105039261D01*
X128735940Y-105008500D01*
X128735937Y-105008500D01*
X128578253Y-105008500D01*
X128578250Y-105008500D01*
X128423605Y-105039261D01*
X128423593Y-105039264D01*
X128277922Y-105099602D01*
X128277909Y-105099609D01*
X128146806Y-105187210D01*
X128146802Y-105187213D01*
X128035308Y-105298707D01*
X128035305Y-105298711D01*
X127947704Y-105429814D01*
X127947697Y-105429827D01*
X127887359Y-105575498D01*
X127887356Y-105575510D01*
X127856595Y-105730153D01*
X127856595Y-105887846D01*
X127887356Y-106042489D01*
X127887359Y-106042501D01*
X127947697Y-106188172D01*
X127947704Y-106188185D01*
X127982399Y-106240109D01*
X128003277Y-106306786D01*
X127984793Y-106374167D01*
X127982399Y-106377891D01*
X127947704Y-106429814D01*
X127947697Y-106429827D01*
X127887359Y-106575498D01*
X127887356Y-106575510D01*
X127856595Y-106730153D01*
X127856595Y-106887846D01*
X127887356Y-107042489D01*
X127887359Y-107042501D01*
X127947697Y-107188172D01*
X127947704Y-107188185D01*
X128035697Y-107319874D01*
X128056575Y-107386551D01*
X128056595Y-107388765D01*
X128056595Y-111388057D01*
X128076443Y-111462129D01*
X128097518Y-111540783D01*
X128097521Y-111540790D01*
X128176570Y-111677709D01*
X128176576Y-111677717D01*
X128293302Y-111794443D01*
X128295063Y-111795987D01*
X129797787Y-113298711D01*
X131096396Y-114597319D01*
X131129881Y-114658642D01*
X131124897Y-114728334D01*
X131083025Y-114784267D01*
X131017561Y-114808684D01*
X131008715Y-114809000D01*
X128657095Y-114809000D01*
X128657095Y-117809000D01*
X132579195Y-117809000D01*
X132646234Y-117828685D01*
X132691989Y-117881489D01*
X132703195Y-117933000D01*
X132703195Y-118862303D01*
X132694549Y-118891745D01*
X132688026Y-118921732D01*
X132684272Y-118926746D01*
X132683510Y-118929342D01*
X132666874Y-118949986D01*
X132642432Y-118974427D01*
X132581109Y-119007911D01*
X132578945Y-119008361D01*
X132423603Y-119039261D01*
X132423593Y-119039264D01*
X132277922Y-119099602D01*
X132277909Y-119099609D01*
X132146806Y-119187210D01*
X132146802Y-119187213D01*
X132035308Y-119298707D01*
X132035305Y-119298711D01*
X131947704Y-119429814D01*
X131947697Y-119429827D01*
X131887359Y-119575498D01*
X131887356Y-119575510D01*
X131856595Y-119730153D01*
X131856595Y-119887846D01*
X131887356Y-120042489D01*
X131887359Y-120042501D01*
X131947697Y-120188172D01*
X131947704Y-120188185D01*
X131982399Y-120240109D01*
X132003277Y-120306786D01*
X131984793Y-120374167D01*
X131982399Y-120377891D01*
X131947704Y-120429814D01*
X131947697Y-120429827D01*
X131887359Y-120575498D01*
X131887356Y-120575510D01*
X131856595Y-120730153D01*
X131856595Y-120887846D01*
X131887356Y-121042489D01*
X131887359Y-121042501D01*
X131947697Y-121188172D01*
X131947704Y-121188185D01*
X132035305Y-121319288D01*
X132035308Y-121319292D01*
X132146802Y-121430786D01*
X132146806Y-121430789D01*
X132277909Y-121518390D01*
X132277922Y-121518397D01*
X132407722Y-121572161D01*
X132423598Y-121578737D01*
X132578248Y-121609499D01*
X132578251Y-121609500D01*
X132578253Y-121609500D01*
X132735939Y-121609500D01*
X132735940Y-121609499D01*
X132890592Y-121578737D01*
X133036274Y-121518394D01*
X133167384Y-121430789D01*
X133278884Y-121319289D01*
X133366489Y-121188179D01*
X133426832Y-121042497D01*
X133446344Y-120944405D01*
X133457733Y-120887150D01*
X133490118Y-120825239D01*
X133491610Y-120823719D01*
X134137615Y-120177716D01*
X134216672Y-120040784D01*
X134257596Y-119888057D01*
X134257596Y-119729942D01*
X134257596Y-119722347D01*
X134257595Y-119722329D01*
X134257595Y-114898060D01*
X134257596Y-114898047D01*
X134257596Y-114729944D01*
X134257165Y-114728334D01*
X134216672Y-114577216D01*
X134192608Y-114535536D01*
X134176136Y-114467638D01*
X134198988Y-114401611D01*
X134212310Y-114385862D01*
X134278884Y-114319289D01*
X134366489Y-114188179D01*
X134426832Y-114042497D01*
X134457595Y-113887842D01*
X134457595Y-113730158D01*
X134457595Y-113730155D01*
X134457594Y-113730153D01*
X134435912Y-113621153D01*
X134426832Y-113575503D01*
X134418625Y-113555689D01*
X134366492Y-113429827D01*
X134366485Y-113429814D01*
X134278884Y-113298711D01*
X134278881Y-113298707D01*
X134167387Y-113187213D01*
X134167379Y-113187207D01*
X134129807Y-113162102D01*
X134085001Y-113108490D01*
X134076294Y-113039165D01*
X134106448Y-112976138D01*
X134129807Y-112955898D01*
X134156374Y-112938145D01*
X134167384Y-112930789D01*
X134278884Y-112819289D01*
X134366489Y-112688179D01*
X134426832Y-112542497D01*
X134457595Y-112387842D01*
X134457595Y-112230158D01*
X134457595Y-112230155D01*
X134457594Y-112230153D01*
X134449245Y-112188179D01*
X134426832Y-112075503D01*
X134426827Y-112075492D01*
X134425064Y-112069676D01*
X134427815Y-112068841D01*
X134421592Y-112011641D01*
X134452786Y-111949122D01*
X134512829Y-111913392D01*
X134543650Y-111909500D01*
X135748833Y-111909500D01*
X135815872Y-111929185D01*
X135861627Y-111981989D01*
X135871571Y-112051147D01*
X135871306Y-112052898D01*
X135839500Y-112253713D01*
X135839500Y-112466287D01*
X135872754Y-112676243D01*
X135919232Y-112819288D01*
X135938444Y-112878414D01*
X136034951Y-113067820D01*
X136159890Y-113239786D01*
X136310213Y-113390109D01*
X136482182Y-113515050D01*
X136490946Y-113519516D01*
X136541742Y-113567491D01*
X136558536Y-113635312D01*
X136535998Y-113701447D01*
X136490946Y-113740484D01*
X136482182Y-113744949D01*
X136310213Y-113869890D01*
X136159890Y-114020213D01*
X136034951Y-114192179D01*
X135938444Y-114381585D01*
X135872753Y-114583760D01*
X135839500Y-114793713D01*
X135839500Y-115006286D01*
X135872753Y-115216239D01*
X135938444Y-115418414D01*
X136034951Y-115607820D01*
X136159890Y-115779786D01*
X136310213Y-115930109D01*
X136482182Y-116055050D01*
X136490946Y-116059516D01*
X136541742Y-116107491D01*
X136558536Y-116175312D01*
X136535998Y-116241447D01*
X136490946Y-116280484D01*
X136482182Y-116284949D01*
X136310213Y-116409890D01*
X136159890Y-116560213D01*
X136034951Y-116732179D01*
X135938444Y-116921585D01*
X135872753Y-117123760D01*
X135839500Y-117333713D01*
X135839500Y-117546286D01*
X135868622Y-117730158D01*
X135872754Y-117756243D01*
X135915513Y-117887842D01*
X135938444Y-117958414D01*
X136034951Y-118147820D01*
X136159890Y-118319786D01*
X136310213Y-118470109D01*
X136482179Y-118595048D01*
X136482181Y-118595049D01*
X136482184Y-118595051D01*
X136671588Y-118691557D01*
X136873757Y-118757246D01*
X137083713Y-118790500D01*
X137083714Y-118790500D01*
X137296286Y-118790500D01*
X137296287Y-118790500D01*
X137506243Y-118757246D01*
X137708412Y-118691557D01*
X137897816Y-118595051D01*
X137984138Y-118532335D01*
X138069786Y-118470109D01*
X138069788Y-118470106D01*
X138069792Y-118470104D01*
X138220104Y-118319792D01*
X138220106Y-118319788D01*
X138220109Y-118319786D01*
X138345048Y-118147820D01*
X138345047Y-118147820D01*
X138345051Y-118147816D01*
X138349514Y-118139054D01*
X138397488Y-118088259D01*
X138465308Y-118071463D01*
X138531444Y-118093999D01*
X138570486Y-118139056D01*
X138574951Y-118147820D01*
X138699890Y-118319786D01*
X138850213Y-118470109D01*
X139022179Y-118595048D01*
X139022181Y-118595049D01*
X139022184Y-118595051D01*
X139211588Y-118691557D01*
X139413757Y-118757246D01*
X139623713Y-118790500D01*
X139623714Y-118790500D01*
X139836286Y-118790500D01*
X139836287Y-118790500D01*
X140046243Y-118757246D01*
X140248412Y-118691557D01*
X140437816Y-118595051D01*
X140524138Y-118532335D01*
X140609786Y-118470109D01*
X140609788Y-118470106D01*
X140609792Y-118470104D01*
X140760104Y-118319792D01*
X140760106Y-118319788D01*
X140760109Y-118319786D01*
X140885048Y-118147820D01*
X140885047Y-118147820D01*
X140885051Y-118147816D01*
X140889514Y-118139054D01*
X140937488Y-118088259D01*
X141005308Y-118071463D01*
X141071444Y-118093999D01*
X141110486Y-118139056D01*
X141114951Y-118147820D01*
X141239890Y-118319786D01*
X141390213Y-118470109D01*
X141562179Y-118595048D01*
X141562181Y-118595049D01*
X141562184Y-118595051D01*
X141751588Y-118691557D01*
X141953757Y-118757246D01*
X142163713Y-118790500D01*
X142163714Y-118790500D01*
X142376286Y-118790500D01*
X142376287Y-118790500D01*
X142586243Y-118757246D01*
X142788412Y-118691557D01*
X142977816Y-118595051D01*
X143149792Y-118470104D01*
X143263329Y-118356566D01*
X143324648Y-118323084D01*
X143394340Y-118328068D01*
X143450274Y-118369939D01*
X143467189Y-118400917D01*
X143516202Y-118532328D01*
X143516206Y-118532335D01*
X143602452Y-118647544D01*
X143602455Y-118647547D01*
X143717664Y-118733793D01*
X143717671Y-118733797D01*
X143852517Y-118784091D01*
X143852516Y-118784091D01*
X143859444Y-118784835D01*
X143912127Y-118790500D01*
X145707872Y-118790499D01*
X145767483Y-118784091D01*
X145902331Y-118733796D01*
X146017546Y-118647546D01*
X146103796Y-118532331D01*
X146154091Y-118397483D01*
X146160500Y-118337873D01*
X146160499Y-116542128D01*
X146154091Y-116482517D01*
X146152810Y-116479083D01*
X146103797Y-116347671D01*
X146103795Y-116347668D01*
X146056845Y-116284951D01*
X146026421Y-116244309D01*
X146002004Y-116178848D01*
X146016855Y-116110575D01*
X146026416Y-116095696D01*
X146103796Y-115992331D01*
X146154091Y-115857483D01*
X146160500Y-115797873D01*
X146160499Y-114002128D01*
X146154091Y-113942517D01*
X146152810Y-113939083D01*
X146103797Y-113807671D01*
X146103795Y-113807668D01*
X146056845Y-113744951D01*
X146026421Y-113704309D01*
X146002004Y-113638848D01*
X146016855Y-113570575D01*
X146026416Y-113555696D01*
X146103796Y-113452331D01*
X146154091Y-113317483D01*
X146160500Y-113257873D01*
X146160499Y-111462128D01*
X146154091Y-111402517D01*
X146152810Y-111399083D01*
X146103797Y-111267671D01*
X146103795Y-111267668D01*
X146056845Y-111204951D01*
X146026421Y-111164309D01*
X146002004Y-111098848D01*
X146016855Y-111030575D01*
X146026416Y-111015696D01*
X146103796Y-110912331D01*
X146154091Y-110777483D01*
X146160500Y-110717873D01*
X146160499Y-108922128D01*
X146154091Y-108862517D01*
X146152810Y-108859083D01*
X146103797Y-108727671D01*
X146103795Y-108727668D01*
X146056845Y-108664951D01*
X146026421Y-108624309D01*
X146002004Y-108558848D01*
X146016855Y-108490575D01*
X146026416Y-108475696D01*
X146103796Y-108372331D01*
X146154091Y-108237483D01*
X146160500Y-108177873D01*
X146160499Y-106382128D01*
X146154091Y-106322517D01*
X146152810Y-106319083D01*
X146103797Y-106187671D01*
X146103795Y-106187668D01*
X146096714Y-106178209D01*
X146026421Y-106084309D01*
X146002004Y-106018848D01*
X146016855Y-105950575D01*
X146026416Y-105935696D01*
X146103796Y-105832331D01*
X146154091Y-105697483D01*
X146160500Y-105637873D01*
X146160499Y-103842128D01*
X146154091Y-103782517D01*
X146152810Y-103779083D01*
X146103797Y-103647671D01*
X146103795Y-103647668D01*
X146056845Y-103584951D01*
X146026421Y-103544309D01*
X146002004Y-103478848D01*
X146016855Y-103410575D01*
X146026416Y-103395696D01*
X146103796Y-103292331D01*
X146154091Y-103157483D01*
X146160500Y-103097873D01*
X146160499Y-101750095D01*
X146180184Y-101683057D01*
X146196813Y-101662420D01*
X146858506Y-101000728D01*
X146858511Y-101000724D01*
X146868714Y-100990520D01*
X146868716Y-100990520D01*
X146980520Y-100878716D01*
X147053487Y-100752333D01*
X147053488Y-100752332D01*
X147055958Y-100748052D01*
X147059577Y-100741785D01*
X147100501Y-100589057D01*
X147100501Y-100430943D01*
X147100501Y-100423348D01*
X147100500Y-100423330D01*
X147100500Y-78102156D01*
X147100501Y-78102153D01*
X147100501Y-77944038D01*
X147100500Y-77944034D01*
X147100500Y-77920943D01*
X147059577Y-77768216D01*
X147058073Y-77765611D01*
X146980524Y-77631290D01*
X146980518Y-77631282D01*
X146868717Y-77519481D01*
X146868712Y-77519477D01*
X146828207Y-77496092D01*
X146802526Y-77476386D01*
X145987590Y-76661450D01*
X145987588Y-76661447D01*
X145868717Y-76542576D01*
X145868709Y-76542570D01*
X145759100Y-76479288D01*
X145759099Y-76479287D01*
X145759099Y-76479288D01*
X145731785Y-76463518D01*
X145579057Y-76422594D01*
X145420943Y-76422594D01*
X145413347Y-76422594D01*
X145413331Y-76422595D01*
X142413097Y-76422595D01*
X142346058Y-76402910D01*
X142325416Y-76386276D01*
X138685819Y-72746679D01*
X138658534Y-72696711D01*
X141806595Y-72696711D01*
X141806595Y-72939288D01*
X141838256Y-73179785D01*
X141901042Y-73414104D01*
X141936555Y-73499839D01*
X141993871Y-73638212D01*
X142115159Y-73848289D01*
X142115161Y-73848292D01*
X142115162Y-73848293D01*
X142262828Y-74040736D01*
X142262834Y-74040743D01*
X142434351Y-74212260D01*
X142434358Y-74212266D01*
X142527401Y-74283660D01*
X142626806Y-74359936D01*
X142836883Y-74481224D01*
X143060995Y-74574054D01*
X143295306Y-74636838D01*
X143475681Y-74660584D01*
X143535806Y-74668500D01*
X143535807Y-74668500D01*
X143778384Y-74668500D01*
X143826483Y-74662167D01*
X144018884Y-74636838D01*
X144253195Y-74574054D01*
X144477307Y-74481224D01*
X144687384Y-74359936D01*
X144879833Y-74212265D01*
X145051360Y-74040738D01*
X145199031Y-73848289D01*
X145320319Y-73638212D01*
X145413149Y-73414100D01*
X145475933Y-73179789D01*
X145507595Y-72939288D01*
X145507595Y-72696712D01*
X145502128Y-72655189D01*
X145475933Y-72456214D01*
X145475933Y-72456211D01*
X145413149Y-72221900D01*
X145320319Y-71997788D01*
X145199031Y-71787711D01*
X145063432Y-71610994D01*
X145051361Y-71595263D01*
X145051355Y-71595256D01*
X144879838Y-71423739D01*
X144879831Y-71423733D01*
X144687388Y-71276067D01*
X144687387Y-71276066D01*
X144687384Y-71276064D01*
X144477307Y-71154776D01*
X144477300Y-71154773D01*
X144253199Y-71061947D01*
X144018880Y-70999161D01*
X143778384Y-70967500D01*
X143778383Y-70967500D01*
X143535807Y-70967500D01*
X143535806Y-70967500D01*
X143295309Y-70999161D01*
X143060990Y-71061947D01*
X142836889Y-71154773D01*
X142836880Y-71154777D01*
X142626801Y-71276067D01*
X142434358Y-71423733D01*
X142434351Y-71423739D01*
X142262834Y-71595256D01*
X142262828Y-71595263D01*
X142115162Y-71787706D01*
X141993872Y-71997785D01*
X141993868Y-71997794D01*
X141901042Y-72221895D01*
X141838256Y-72456214D01*
X141806595Y-72696711D01*
X138658534Y-72696711D01*
X138652334Y-72685356D01*
X138649500Y-72658998D01*
X138649500Y-69593000D01*
X138669185Y-69525961D01*
X138721989Y-69480206D01*
X138773500Y-69469000D01*
X148032595Y-69469000D01*
X148099634Y-69488685D01*
G37*
%TD.AperFunction*%
%TA.AperFunction,Conductor*%
G36*
X115249351Y-82829199D02*
G01*
X115251252Y-82829009D01*
X115284655Y-82840392D01*
X115307744Y-82852157D01*
X115487233Y-82910477D01*
X115544203Y-82919500D01*
X115673632Y-82940000D01*
X115673637Y-82940000D01*
X115862368Y-82940000D01*
X115976002Y-82922002D01*
X116045295Y-82930956D01*
X116098747Y-82975953D01*
X116119387Y-83042704D01*
X116119400Y-83044475D01*
X116119400Y-87848064D01*
X116139401Y-87948613D01*
X116141765Y-87960494D01*
X116141766Y-87960502D01*
X116144397Y-87973732D01*
X116144400Y-87973742D01*
X116193433Y-88092120D01*
X116264626Y-88198668D01*
X118085326Y-90019368D01*
X118085329Y-90019370D01*
X118085331Y-90019372D01*
X118191873Y-90090560D01*
X118310256Y-90139596D01*
X118310260Y-90139596D01*
X118310261Y-90139597D01*
X118435928Y-90164595D01*
X118435931Y-90164595D01*
X122679192Y-90164595D01*
X122746231Y-90184280D01*
X122766873Y-90200914D01*
X124682984Y-92117025D01*
X124716469Y-92178348D01*
X124716920Y-92180515D01*
X124730261Y-92247584D01*
X124730264Y-92247596D01*
X124790602Y-92393267D01*
X124790609Y-92393280D01*
X124878210Y-92524383D01*
X124878213Y-92524387D01*
X124989707Y-92635881D01*
X124989711Y-92635884D01*
X125120814Y-92723485D01*
X125120827Y-92723492D01*
X125208863Y-92759957D01*
X125266503Y-92783832D01*
X125421153Y-92814594D01*
X125421156Y-92814595D01*
X125421158Y-92814595D01*
X125578844Y-92814595D01*
X125578845Y-92814594D01*
X125733497Y-92783832D01*
X125879179Y-92723489D01*
X126010289Y-92635884D01*
X126121789Y-92524384D01*
X126209394Y-92393274D01*
X126269737Y-92247592D01*
X126300500Y-92092937D01*
X126300500Y-91935253D01*
X126300500Y-91935250D01*
X126300499Y-91935248D01*
X126284755Y-91856100D01*
X126269737Y-91780598D01*
X126265457Y-91770265D01*
X126209397Y-91634922D01*
X126209390Y-91634909D01*
X126121789Y-91503806D01*
X126121786Y-91503802D01*
X126010292Y-91392308D01*
X126010288Y-91392305D01*
X125879185Y-91304704D01*
X125879172Y-91304697D01*
X125733501Y-91244359D01*
X125733489Y-91244356D01*
X125666420Y-91231015D01*
X125604509Y-91198630D01*
X125602930Y-91197079D01*
X125018032Y-90612181D01*
X124984547Y-90550858D01*
X124989531Y-90481166D01*
X125031403Y-90425233D01*
X125096867Y-90400816D01*
X125105713Y-90400500D01*
X128018097Y-90400500D01*
X128131184Y-90382588D01*
X128251368Y-90363553D01*
X128251371Y-90363552D01*
X128267985Y-90358154D01*
X128337827Y-90356157D01*
X128397660Y-90392236D01*
X128428489Y-90454937D01*
X128420526Y-90524351D01*
X128393987Y-90563765D01*
X126783072Y-92174681D01*
X126660588Y-92297164D01*
X126660588Y-92297165D01*
X126660586Y-92297167D01*
X126624375Y-92347007D01*
X126558768Y-92437306D01*
X126480128Y-92591647D01*
X126426597Y-92756397D01*
X126399500Y-92927484D01*
X126399500Y-97789595D01*
X126396949Y-97798280D01*
X126398238Y-97807242D01*
X126387259Y-97831282D01*
X126379815Y-97856634D01*
X126372974Y-97862561D01*
X126369213Y-97870798D01*
X126346978Y-97885087D01*
X126327011Y-97902389D01*
X126316496Y-97904676D01*
X126310435Y-97908572D01*
X126275500Y-97913595D01*
X126228362Y-97913595D01*
X126161323Y-97893910D01*
X126115568Y-97841106D01*
X126104362Y-97789595D01*
X126104362Y-97469000D01*
X119062609Y-97469000D01*
X118995570Y-97449315D01*
X118974928Y-97432681D01*
X117436914Y-95894667D01*
X117403429Y-95833344D01*
X117400595Y-95806986D01*
X117400595Y-94295648D01*
X117410035Y-94248192D01*
X117411244Y-94245271D01*
X117411252Y-94245256D01*
X117469572Y-94065767D01*
X117490951Y-93930786D01*
X117499095Y-93879368D01*
X117499095Y-93690676D01*
X120181595Y-93690676D01*
X120181595Y-93879323D01*
X120211106Y-94065650D01*
X120269399Y-94245061D01*
X120269400Y-94245063D01*
X120355047Y-94413153D01*
X120373284Y-94438255D01*
X120373285Y-94438255D01*
X120942447Y-93869093D01*
X120965887Y-93956571D01*
X121024406Y-94057930D01*
X121107165Y-94140689D01*
X121208524Y-94199208D01*
X121296000Y-94222647D01*
X120726838Y-94791808D01*
X120726838Y-94791809D01*
X120751939Y-94810046D01*
X120920030Y-94895694D01*
X120920033Y-94895695D01*
X121099444Y-94953988D01*
X121285772Y-94983500D01*
X121474418Y-94983500D01*
X121660745Y-94953988D01*
X121840156Y-94895695D01*
X121840159Y-94895694D01*
X122008246Y-94810048D01*
X122033350Y-94791808D01*
X122033351Y-94791808D01*
X121464190Y-94222647D01*
X121551666Y-94199208D01*
X121653025Y-94140689D01*
X121735784Y-94057930D01*
X121794303Y-93956571D01*
X121817742Y-93869094D01*
X122386903Y-94438256D01*
X122386903Y-94438255D01*
X122405143Y-94413151D01*
X122490789Y-94245064D01*
X122490790Y-94245061D01*
X122549083Y-94065650D01*
X122578595Y-93879323D01*
X122578595Y-93690676D01*
X122549083Y-93504349D01*
X122490790Y-93324938D01*
X122490789Y-93324935D01*
X122405141Y-93156844D01*
X122386904Y-93131743D01*
X122386903Y-93131743D01*
X121817742Y-93700904D01*
X121794303Y-93613429D01*
X121735784Y-93512070D01*
X121653025Y-93429311D01*
X121551666Y-93370792D01*
X121464189Y-93347352D01*
X122033350Y-92778190D01*
X122033350Y-92778189D01*
X122008248Y-92759952D01*
X121840158Y-92674305D01*
X121840156Y-92674304D01*
X121660745Y-92616011D01*
X121474418Y-92586500D01*
X121285772Y-92586500D01*
X121099444Y-92616011D01*
X120920033Y-92674304D01*
X120920031Y-92674305D01*
X120751939Y-92759953D01*
X120751934Y-92759957D01*
X120726838Y-92778188D01*
X120726838Y-92778191D01*
X121296001Y-93347352D01*
X121208524Y-93370792D01*
X121107165Y-93429311D01*
X121024406Y-93512070D01*
X120965887Y-93613429D01*
X120942447Y-93700905D01*
X120373286Y-93131743D01*
X120373283Y-93131743D01*
X120355052Y-93156839D01*
X120355048Y-93156844D01*
X120269400Y-93324936D01*
X120269399Y-93324938D01*
X120211106Y-93504349D01*
X120181595Y-93690676D01*
X117499095Y-93690676D01*
X117499095Y-93690631D01*
X117469572Y-93504236D01*
X117469572Y-93504233D01*
X117411252Y-93324744D01*
X117325572Y-93156587D01*
X117214641Y-93003904D01*
X117081191Y-92870454D01*
X116928508Y-92759523D01*
X116760351Y-92673843D01*
X116580862Y-92615523D01*
X116580860Y-92615522D01*
X116580858Y-92615522D01*
X116394463Y-92586000D01*
X116394458Y-92586000D01*
X116205732Y-92586000D01*
X116205727Y-92586000D01*
X116019331Y-92615522D01*
X115839836Y-92673844D01*
X115671681Y-92759523D01*
X115638222Y-92783833D01*
X115518999Y-92870454D01*
X115518997Y-92870456D01*
X115518996Y-92870456D01*
X115385550Y-93003902D01*
X115328680Y-93082177D01*
X115273349Y-93124843D01*
X115203736Y-93130821D01*
X115141941Y-93098215D01*
X115107584Y-93037376D01*
X115104362Y-93009291D01*
X115104362Y-82950878D01*
X115105137Y-82948236D01*
X115104476Y-82945565D01*
X115114924Y-82914906D01*
X115124047Y-82883839D01*
X115126126Y-82882037D01*
X115127015Y-82879430D01*
X115152388Y-82859280D01*
X115176851Y-82838084D01*
X115179574Y-82837692D01*
X115181731Y-82835980D01*
X115213957Y-82832748D01*
X115246009Y-82828140D01*
X115249351Y-82829199D01*
G37*
%TD.AperFunction*%
%TA.AperFunction,Conductor*%
G36*
X136080290Y-87730997D02*
G01*
X136086894Y-87739314D01*
X136159890Y-87839785D01*
X136159894Y-87839790D01*
X136310213Y-87990109D01*
X136482182Y-88115050D01*
X136490946Y-88119516D01*
X136541742Y-88167491D01*
X136558536Y-88235312D01*
X136535998Y-88301447D01*
X136490946Y-88340484D01*
X136482182Y-88344949D01*
X136310213Y-88469890D01*
X136159890Y-88620213D01*
X136034951Y-88792179D01*
X135938444Y-88981585D01*
X135872753Y-89183760D01*
X135839500Y-89393713D01*
X135839500Y-89606286D01*
X135860001Y-89735728D01*
X135872754Y-89816243D01*
X135905228Y-89916188D01*
X135938444Y-90018414D01*
X136034951Y-90207820D01*
X136159890Y-90379786D01*
X136310213Y-90530109D01*
X136482179Y-90655048D01*
X136482181Y-90655049D01*
X136482184Y-90655051D01*
X136491493Y-90659794D01*
X136542290Y-90707766D01*
X136559087Y-90775587D01*
X136536552Y-90841722D01*
X136491505Y-90880760D01*
X136482446Y-90885376D01*
X136482440Y-90885380D01*
X136428282Y-90924727D01*
X136428282Y-90924728D01*
X137060591Y-91557037D01*
X136997007Y-91574075D01*
X136882993Y-91639901D01*
X136789901Y-91732993D01*
X136724075Y-91847007D01*
X136707037Y-91910591D01*
X136566711Y-91770265D01*
X136536462Y-91720904D01*
X136470568Y-91518103D01*
X136363343Y-91307662D01*
X136224517Y-91116585D01*
X136057510Y-90949578D01*
X135477510Y-90369578D01*
X135286434Y-90230752D01*
X135075996Y-90123528D01*
X134851368Y-90050541D01*
X134618097Y-90013595D01*
X134618092Y-90013595D01*
X134607204Y-90013595D01*
X134540165Y-89993910D01*
X134519523Y-89977276D01*
X134458435Y-89916188D01*
X134458433Y-89916186D01*
X134318293Y-89814368D01*
X134163950Y-89735727D01*
X133999206Y-89682198D01*
X133999204Y-89682197D01*
X133999203Y-89682197D01*
X133867776Y-89661381D01*
X133828116Y-89655100D01*
X129845105Y-89655100D01*
X129671884Y-89655100D01*
X129567650Y-89671609D01*
X129498356Y-89662653D01*
X129444905Y-89617656D01*
X129424266Y-89550905D01*
X129442992Y-89483591D01*
X129460568Y-89461458D01*
X130880208Y-88041819D01*
X130941531Y-88008334D01*
X130967889Y-88005500D01*
X135375990Y-88005500D01*
X135376000Y-88005500D01*
X135483456Y-87993947D01*
X135534967Y-87982741D01*
X135569197Y-87971347D01*
X135637497Y-87948616D01*
X135637501Y-87948613D01*
X135637504Y-87948613D01*
X135758543Y-87870825D01*
X135811347Y-87825070D01*
X135892864Y-87730996D01*
X135951642Y-87693222D01*
X136021512Y-87693222D01*
X136080290Y-87730997D01*
G37*
%TD.AperFunction*%
%TA.AperFunction,Conductor*%
G36*
X138531444Y-90153999D02*
G01*
X138570484Y-90199054D01*
X138574591Y-90207115D01*
X138574951Y-90207820D01*
X138699890Y-90379786D01*
X138850213Y-90530109D01*
X139022179Y-90655048D01*
X139022181Y-90655049D01*
X139022184Y-90655051D01*
X139031493Y-90659794D01*
X139082290Y-90707766D01*
X139099087Y-90775587D01*
X139076552Y-90841722D01*
X139031505Y-90880760D01*
X139022446Y-90885376D01*
X139022440Y-90885380D01*
X138968282Y-90924727D01*
X138968282Y-90924728D01*
X139600591Y-91557037D01*
X139537007Y-91574075D01*
X139422993Y-91639901D01*
X139329901Y-91732993D01*
X139264075Y-91847007D01*
X139247037Y-91910591D01*
X138614728Y-91278282D01*
X138614727Y-91278282D01*
X138575380Y-91332440D01*
X138570483Y-91342051D01*
X138522506Y-91392845D01*
X138454684Y-91409638D01*
X138388550Y-91387098D01*
X138349516Y-91342048D01*
X138344626Y-91332452D01*
X138305270Y-91278282D01*
X138305269Y-91278282D01*
X137672962Y-91910589D01*
X137655925Y-91847007D01*
X137590099Y-91732993D01*
X137497007Y-91639901D01*
X137382993Y-91574075D01*
X137319409Y-91557037D01*
X137951716Y-90924728D01*
X137897547Y-90885373D01*
X137897547Y-90885372D01*
X137888500Y-90880763D01*
X137837706Y-90832788D01*
X137820912Y-90764966D01*
X137843451Y-90698832D01*
X137888508Y-90659793D01*
X137897816Y-90655051D01*
X137984147Y-90592328D01*
X138069786Y-90530109D01*
X138069788Y-90530106D01*
X138069792Y-90530104D01*
X138220104Y-90379792D01*
X138220106Y-90379788D01*
X138220109Y-90379786D01*
X138345048Y-90207820D01*
X138345047Y-90207820D01*
X138345051Y-90207816D01*
X138349514Y-90199054D01*
X138397488Y-90148259D01*
X138465308Y-90131463D01*
X138531444Y-90153999D01*
G37*
%TD.AperFunction*%
%TA.AperFunction,Conductor*%
G36*
X141071444Y-90153999D02*
G01*
X141110484Y-90199054D01*
X141114591Y-90207115D01*
X141114951Y-90207820D01*
X141239890Y-90379786D01*
X141390213Y-90530109D01*
X141562179Y-90655048D01*
X141562181Y-90655049D01*
X141562184Y-90655051D01*
X141571493Y-90659794D01*
X141622290Y-90707766D01*
X141639087Y-90775587D01*
X141616552Y-90841722D01*
X141571505Y-90880760D01*
X141562446Y-90885376D01*
X141562440Y-90885380D01*
X141508282Y-90924727D01*
X141508282Y-90924728D01*
X142140591Y-91557037D01*
X142077007Y-91574075D01*
X141962993Y-91639901D01*
X141869901Y-91732993D01*
X141804075Y-91847007D01*
X141787037Y-91910591D01*
X141154728Y-91278282D01*
X141154727Y-91278282D01*
X141115380Y-91332440D01*
X141110483Y-91342051D01*
X141062506Y-91392845D01*
X140994684Y-91409638D01*
X140928550Y-91387098D01*
X140889516Y-91342048D01*
X140884626Y-91332452D01*
X140845270Y-91278282D01*
X140845269Y-91278282D01*
X140212962Y-91910589D01*
X140195925Y-91847007D01*
X140130099Y-91732993D01*
X140037007Y-91639901D01*
X139922993Y-91574075D01*
X139859409Y-91557037D01*
X140491716Y-90924728D01*
X140437547Y-90885373D01*
X140437547Y-90885372D01*
X140428500Y-90880763D01*
X140377706Y-90832788D01*
X140360912Y-90764966D01*
X140383451Y-90698832D01*
X140428508Y-90659793D01*
X140437816Y-90655051D01*
X140524147Y-90592328D01*
X140609786Y-90530109D01*
X140609788Y-90530106D01*
X140609792Y-90530104D01*
X140760104Y-90379792D01*
X140760106Y-90379788D01*
X140760109Y-90379786D01*
X140885048Y-90207820D01*
X140885047Y-90207820D01*
X140885051Y-90207816D01*
X140889514Y-90199054D01*
X140937488Y-90148259D01*
X141005308Y-90131463D01*
X141071444Y-90153999D01*
G37*
%TD.AperFunction*%
%TA.AperFunction,Conductor*%
G36*
X143394340Y-90388068D02*
G01*
X143450274Y-90429939D01*
X143467189Y-90460917D01*
X143516202Y-90592328D01*
X143516206Y-90592335D01*
X143593889Y-90696105D01*
X143618307Y-90761569D01*
X143603456Y-90829842D01*
X143593890Y-90844727D01*
X143516647Y-90947910D01*
X143516645Y-90947913D01*
X143466403Y-91082619D01*
X143466401Y-91082626D01*
X143457497Y-91165444D01*
X143454434Y-91165114D01*
X143455336Y-91182094D01*
X143422356Y-91241195D01*
X142752962Y-91910589D01*
X142735925Y-91847007D01*
X142670099Y-91732993D01*
X142577007Y-91639901D01*
X142462993Y-91574075D01*
X142399409Y-91557037D01*
X143031716Y-90924728D01*
X142977547Y-90885373D01*
X142977547Y-90885372D01*
X142968500Y-90880763D01*
X142917706Y-90832788D01*
X142900912Y-90764966D01*
X142923451Y-90698832D01*
X142968508Y-90659793D01*
X142977816Y-90655051D01*
X143149792Y-90530104D01*
X143263329Y-90416566D01*
X143324648Y-90383084D01*
X143394340Y-90388068D01*
G37*
%TD.AperFunction*%
%TA.AperFunction,Conductor*%
G36*
X132779867Y-69488685D02*
G01*
X132825622Y-69541489D01*
X132835566Y-69610647D01*
X132835301Y-69612399D01*
X132834500Y-69617456D01*
X132834500Y-71098551D01*
X132862829Y-71277410D01*
X132918787Y-71449636D01*
X132918788Y-71449639D01*
X133001006Y-71610997D01*
X133107441Y-71757494D01*
X133107445Y-71757499D01*
X133235500Y-71885554D01*
X133235505Y-71885558D01*
X133363287Y-71978396D01*
X133382006Y-71991996D01*
X133487484Y-72045740D01*
X133543360Y-72074211D01*
X133543363Y-72074212D01*
X133629476Y-72102191D01*
X133715591Y-72130171D01*
X133798429Y-72143291D01*
X133894449Y-72158500D01*
X133894454Y-72158500D01*
X134075551Y-72158500D01*
X134162259Y-72144765D01*
X134254409Y-72130171D01*
X134426639Y-72074211D01*
X134587994Y-71991996D01*
X134734501Y-71885553D01*
X134862553Y-71757501D01*
X134968996Y-71610994D01*
X135051211Y-71449639D01*
X135107171Y-71277409D01*
X135126595Y-71154773D01*
X135135500Y-71098551D01*
X135135500Y-69617456D01*
X135134699Y-69612399D01*
X135143653Y-69543105D01*
X135188649Y-69489653D01*
X135255401Y-69469013D01*
X135257172Y-69469000D01*
X137275403Y-69469000D01*
X137304843Y-69477644D01*
X137334830Y-69484168D01*
X137339845Y-69487922D01*
X137342442Y-69488685D01*
X137363084Y-69505319D01*
X137412181Y-69554416D01*
X137445666Y-69615739D01*
X137448500Y-69642097D01*
X137448500Y-72872425D01*
X137448499Y-72872443D01*
X137448499Y-73038149D01*
X137448498Y-73038149D01*
X137489423Y-73190880D01*
X137498226Y-73206127D01*
X137568477Y-73327807D01*
X137568481Y-73327812D01*
X137687349Y-73446680D01*
X137687355Y-73446685D01*
X141628139Y-77387469D01*
X141628149Y-77387480D01*
X141632479Y-77391810D01*
X141632480Y-77391811D01*
X141744284Y-77503615D01*
X141744286Y-77503616D01*
X141744290Y-77503619D01*
X141799510Y-77535500D01*
X141799515Y-77535502D01*
X141881209Y-77582669D01*
X141881210Y-77582670D01*
X141881212Y-77582670D01*
X141881215Y-77582672D01*
X142033943Y-77623596D01*
X142033946Y-77623596D01*
X142199653Y-77623596D01*
X142199669Y-77623595D01*
X145199903Y-77623595D01*
X145229343Y-77632239D01*
X145259330Y-77638763D01*
X145264345Y-77642517D01*
X145266942Y-77643280D01*
X145287579Y-77659909D01*
X145366923Y-77739253D01*
X145405489Y-77777819D01*
X145438973Y-77839142D01*
X145433989Y-77908834D01*
X145392117Y-77964767D01*
X145326653Y-77989184D01*
X145317807Y-77989500D01*
X143912129Y-77989500D01*
X143912123Y-77989501D01*
X143852516Y-77995908D01*
X143717671Y-78046202D01*
X143717664Y-78046206D01*
X143602455Y-78132452D01*
X143602452Y-78132455D01*
X143516206Y-78247664D01*
X143516203Y-78247669D01*
X143467189Y-78379083D01*
X143425317Y-78435016D01*
X143359853Y-78459433D01*
X143291580Y-78444581D01*
X143263326Y-78423430D01*
X143149786Y-78309890D01*
X142977820Y-78184951D01*
X142788414Y-78088444D01*
X142788413Y-78088443D01*
X142788412Y-78088443D01*
X142586243Y-78022754D01*
X142586241Y-78022753D01*
X142586240Y-78022753D01*
X142424957Y-77997208D01*
X142376287Y-77989500D01*
X142163713Y-77989500D01*
X142115042Y-77997208D01*
X141953760Y-78022753D01*
X141852672Y-78055598D01*
X141761474Y-78085231D01*
X141751585Y-78088444D01*
X141562179Y-78184951D01*
X141390213Y-78309890D01*
X141239890Y-78460213D01*
X141114949Y-78632182D01*
X141110484Y-78640946D01*
X141062509Y-78691742D01*
X140994688Y-78708536D01*
X140928553Y-78685998D01*
X140889516Y-78640946D01*
X140885050Y-78632182D01*
X140760109Y-78460213D01*
X140609786Y-78309890D01*
X140437820Y-78184951D01*
X140248414Y-78088444D01*
X140248413Y-78088443D01*
X140248412Y-78088443D01*
X140046243Y-78022754D01*
X140046241Y-78022753D01*
X140046240Y-78022753D01*
X139884957Y-77997208D01*
X139836287Y-77989500D01*
X139623713Y-77989500D01*
X139575042Y-77997208D01*
X139413760Y-78022753D01*
X139312672Y-78055598D01*
X139221474Y-78085231D01*
X139211585Y-78088444D01*
X139022179Y-78184951D01*
X138850213Y-78309890D01*
X138699890Y-78460213D01*
X138574949Y-78632182D01*
X138570484Y-78640946D01*
X138522509Y-78691742D01*
X138454688Y-78708536D01*
X138388553Y-78685998D01*
X138349516Y-78640946D01*
X138345050Y-78632182D01*
X138220109Y-78460213D01*
X138069786Y-78309890D01*
X137897820Y-78184951D01*
X137708414Y-78088444D01*
X137708413Y-78088443D01*
X137708412Y-78088443D01*
X137506243Y-78022754D01*
X137506241Y-78022753D01*
X137506240Y-78022753D01*
X137344957Y-77997208D01*
X137296287Y-77989500D01*
X137083713Y-77989500D01*
X137035042Y-77997208D01*
X136873760Y-78022753D01*
X136772672Y-78055598D01*
X136681474Y-78085231D01*
X136671585Y-78088444D01*
X136482179Y-78184951D01*
X136310213Y-78309890D01*
X136159890Y-78460213D01*
X136034951Y-78632179D01*
X135938444Y-78821585D01*
X135872753Y-79023760D01*
X135839500Y-79233713D01*
X135839500Y-79446286D01*
X135872358Y-79653746D01*
X135872754Y-79656243D01*
X135902906Y-79749042D01*
X135938444Y-79858414D01*
X136034951Y-80047820D01*
X136159890Y-80219786D01*
X136310213Y-80370109D01*
X136482179Y-80495048D01*
X136482181Y-80495049D01*
X136482184Y-80495051D01*
X136491493Y-80499794D01*
X136542290Y-80547766D01*
X136559087Y-80615587D01*
X136536552Y-80681722D01*
X136491505Y-80720760D01*
X136482446Y-80725376D01*
X136482440Y-80725380D01*
X136428282Y-80764727D01*
X136428282Y-80764728D01*
X137060591Y-81397037D01*
X136997007Y-81414075D01*
X136882993Y-81479901D01*
X136789901Y-81572993D01*
X136724075Y-81687007D01*
X136707037Y-81750591D01*
X136074728Y-81118282D01*
X136074727Y-81118282D01*
X136035380Y-81172439D01*
X135938904Y-81361782D01*
X135873242Y-81563869D01*
X135873242Y-81563872D01*
X135840000Y-81773753D01*
X135840000Y-81986246D01*
X135873242Y-82196127D01*
X135873242Y-82196130D01*
X135917449Y-82332182D01*
X135919444Y-82402023D01*
X135883364Y-82461856D01*
X135820663Y-82492684D01*
X135799518Y-82494500D01*
X134367889Y-82494500D01*
X134300850Y-82474815D01*
X134280208Y-82458181D01*
X134177511Y-82355484D01*
X134164354Y-82345925D01*
X133986434Y-82216657D01*
X133956208Y-82201256D01*
X133775996Y-82109433D01*
X133551368Y-82036446D01*
X133318097Y-81999500D01*
X133318092Y-81999500D01*
X131418092Y-81999500D01*
X131181908Y-81999500D01*
X131181903Y-81999500D01*
X130948631Y-82036446D01*
X130724003Y-82109433D01*
X130513566Y-82216657D01*
X130426247Y-82280099D01*
X130322490Y-82355483D01*
X130322488Y-82355485D01*
X130322487Y-82355485D01*
X130219792Y-82458181D01*
X130158469Y-82491666D01*
X130132111Y-82494500D01*
X127236524Y-82494500D01*
X127169485Y-82474815D01*
X127154869Y-82463819D01*
X126289253Y-81706404D01*
X126289243Y-81706396D01*
X126289241Y-81706394D01*
X126215343Y-81652699D01*
X126215339Y-81652696D01*
X126177021Y-81629838D01*
X126177018Y-81629836D01*
X126094680Y-81590325D01*
X126094674Y-81590323D01*
X125954089Y-81559747D01*
X125954075Y-81559745D01*
X125884402Y-81554765D01*
X125884397Y-81554765D01*
X125770694Y-81562899D01*
X125702421Y-81548048D01*
X125653015Y-81498644D01*
X125637847Y-81438618D01*
X125638060Y-81394590D01*
X125618272Y-81252081D01*
X125559135Y-81120916D01*
X125559133Y-81120912D01*
X125521650Y-81061963D01*
X125521645Y-81061956D01*
X125427951Y-80952765D01*
X125427950Y-80952764D01*
X125209721Y-80761814D01*
X125209709Y-80761804D01*
X125190294Y-80745654D01*
X125180553Y-80737956D01*
X125160333Y-80722782D01*
X125040391Y-80660949D01*
X125032451Y-80656856D01*
X125032450Y-80656855D01*
X125032447Y-80656854D01*
X124969201Y-80634965D01*
X124967338Y-80634270D01*
X124966419Y-80634000D01*
X124825133Y-80606774D01*
X124725830Y-80616258D01*
X124657223Y-80603037D01*
X124606655Y-80554822D01*
X124590042Y-80492222D01*
X124590113Y-80477636D01*
X124570325Y-80335127D01*
X124511188Y-80203962D01*
X124511186Y-80203958D01*
X124480770Y-80156123D01*
X124477383Y-80149296D01*
X124473698Y-80145001D01*
X124380003Y-80035810D01*
X124120527Y-79808769D01*
X124036237Y-79749042D01*
X124036235Y-79749041D01*
X124036231Y-79749038D01*
X123992336Y-79724248D01*
X123897675Y-79682908D01*
X123755796Y-79659049D01*
X123755792Y-79659048D01*
X123705894Y-79657860D01*
X123685937Y-79657385D01*
X123685936Y-79657385D01*
X123685935Y-79657385D01*
X123685934Y-79657385D01*
X123588343Y-79669031D01*
X123519443Y-79657429D01*
X123479938Y-79627109D01*
X123456681Y-79600269D01*
X123387132Y-79533955D01*
X123387130Y-79533953D01*
X123262531Y-79462016D01*
X123197671Y-79436050D01*
X123197669Y-79436049D01*
X123197663Y-79436047D01*
X123057845Y-79402127D01*
X123057844Y-79402127D01*
X122914121Y-79408971D01*
X122845526Y-79422192D01*
X122845517Y-79422194D01*
X122709560Y-79469246D01*
X122709559Y-79469246D01*
X122592354Y-79552702D01*
X122585137Y-79559583D01*
X122523032Y-79591595D01*
X122453479Y-79584948D01*
X122414005Y-79559578D01*
X122387130Y-79533953D01*
X122262531Y-79462016D01*
X122197671Y-79436050D01*
X122197669Y-79436049D01*
X122197663Y-79436047D01*
X122057845Y-79402127D01*
X122057844Y-79402127D01*
X121914121Y-79408971D01*
X121845526Y-79422192D01*
X121845517Y-79422194D01*
X121709560Y-79469246D01*
X121709559Y-79469246D01*
X121592354Y-79552702D01*
X121585137Y-79559583D01*
X121523032Y-79591595D01*
X121453479Y-79584948D01*
X121414005Y-79559578D01*
X121387130Y-79533953D01*
X121262529Y-79462015D01*
X121197664Y-79436047D01*
X121197649Y-79436043D01*
X121191443Y-79434537D01*
X121130936Y-79399598D01*
X121098925Y-79337493D01*
X121099519Y-79287680D01*
X121109132Y-79243493D01*
X121114116Y-79173801D01*
X121103852Y-79030290D01*
X121053570Y-78895481D01*
X121020085Y-78834158D01*
X120933861Y-78718977D01*
X120933856Y-78718972D01*
X120933851Y-78718966D01*
X120041819Y-77826934D01*
X120008334Y-77765611D01*
X120005500Y-77739253D01*
X120005500Y-77445353D01*
X120011435Y-77425138D01*
X120012563Y-77404102D01*
X120021081Y-77392287D01*
X120025185Y-77378314D01*
X120041104Y-77364519D01*
X120053428Y-77347429D01*
X120066983Y-77342095D01*
X120077989Y-77332559D01*
X120098841Y-77329560D01*
X120118446Y-77321847D01*
X120143247Y-77323175D01*
X120147147Y-77322615D01*
X120153655Y-77323729D01*
X120231812Y-77339275D01*
X120296243Y-77352091D01*
X120328458Y-77358500D01*
X120328459Y-77358500D01*
X120328460Y-77358500D01*
X120525540Y-77358500D01*
X121417686Y-77358500D01*
X121484725Y-77378185D01*
X121525073Y-77420500D01*
X121669770Y-77671123D01*
X121857979Y-77916402D01*
X121857985Y-77916409D01*
X122076590Y-78135014D01*
X122076597Y-78135020D01*
X122321876Y-78323229D01*
X122589620Y-78477811D01*
X122589621Y-78477811D01*
X122589624Y-78477813D01*
X122875258Y-78596127D01*
X123173892Y-78676146D01*
X123403785Y-78706411D01*
X123480415Y-78716500D01*
X123480416Y-78716500D01*
X123789585Y-78716500D01*
X123850888Y-78708429D01*
X124096108Y-78676146D01*
X124394742Y-78596127D01*
X124680376Y-78477813D01*
X124948124Y-78323229D01*
X125193404Y-78135019D01*
X125412019Y-77916404D01*
X125600229Y-77671124D01*
X125754813Y-77403376D01*
X125873127Y-77117742D01*
X125953146Y-76819108D01*
X125993500Y-76512584D01*
X125993500Y-76203416D01*
X125993500Y-76203415D01*
X128476500Y-76203415D01*
X128476500Y-76512584D01*
X128516853Y-76819104D01*
X128596873Y-77117742D01*
X128715184Y-77403369D01*
X128715188Y-77403379D01*
X128869770Y-77671123D01*
X129057979Y-77916402D01*
X129057985Y-77916409D01*
X129276590Y-78135014D01*
X129276597Y-78135020D01*
X129521876Y-78323229D01*
X129789620Y-78477811D01*
X129789621Y-78477811D01*
X129789624Y-78477813D01*
X130075258Y-78596127D01*
X130373892Y-78676146D01*
X130603785Y-78706411D01*
X130680415Y-78716500D01*
X130680416Y-78716500D01*
X130989585Y-78716500D01*
X131050888Y-78708429D01*
X131296108Y-78676146D01*
X131594742Y-78596127D01*
X131880376Y-78477813D01*
X132148124Y-78323229D01*
X132393404Y-78135019D01*
X132612019Y-77916404D01*
X132800229Y-77671124D01*
X132954813Y-77403376D01*
X133073127Y-77117742D01*
X133153146Y-76819108D01*
X133193500Y-76512584D01*
X133193500Y-76203416D01*
X133153146Y-75896892D01*
X133073127Y-75598258D01*
X132954813Y-75312624D01*
X132926392Y-75263398D01*
X132800229Y-75044876D01*
X132612020Y-74799597D01*
X132612014Y-74799590D01*
X132393409Y-74580985D01*
X132393402Y-74580979D01*
X132148123Y-74392770D01*
X131880379Y-74238188D01*
X131880369Y-74238184D01*
X131594742Y-74119873D01*
X131455869Y-74082662D01*
X131296108Y-74039854D01*
X131296107Y-74039853D01*
X131296104Y-74039853D01*
X130989585Y-73999500D01*
X130989584Y-73999500D01*
X130680416Y-73999500D01*
X130680415Y-73999500D01*
X130373895Y-74039853D01*
X130075257Y-74119873D01*
X129789630Y-74238184D01*
X129789620Y-74238188D01*
X129521876Y-74392770D01*
X129276597Y-74580979D01*
X129276590Y-74580985D01*
X129057985Y-74799590D01*
X129057979Y-74799597D01*
X128869770Y-75044876D01*
X128715188Y-75312620D01*
X128715184Y-75312630D01*
X128596873Y-75598257D01*
X128516853Y-75896895D01*
X128476500Y-76203415D01*
X125993500Y-76203415D01*
X125953146Y-75896892D01*
X125873127Y-75598258D01*
X125754813Y-75312624D01*
X125726392Y-75263398D01*
X125600229Y-75044876D01*
X125412020Y-74799597D01*
X125412014Y-74799590D01*
X125193409Y-74580985D01*
X125193402Y-74580979D01*
X124948123Y-74392770D01*
X124680379Y-74238188D01*
X124680369Y-74238184D01*
X124394742Y-74119873D01*
X124255869Y-74082662D01*
X124096108Y-74039854D01*
X124096107Y-74039853D01*
X124096104Y-74039853D01*
X123789585Y-73999500D01*
X123789584Y-73999500D01*
X123480416Y-73999500D01*
X123480415Y-73999500D01*
X123173895Y-74039853D01*
X123170574Y-74040743D01*
X122894355Y-74114755D01*
X122824507Y-74113093D01*
X122774582Y-74082662D01*
X121521819Y-72829898D01*
X121488334Y-72768575D01*
X121485500Y-72742217D01*
X121485500Y-71608373D01*
X121499016Y-71552077D01*
X121551209Y-71449644D01*
X121551212Y-71449636D01*
X121561284Y-71418636D01*
X121607171Y-71277409D01*
X121626595Y-71154773D01*
X121635500Y-71098551D01*
X121635500Y-69617456D01*
X121634699Y-69612399D01*
X121643653Y-69543105D01*
X121688649Y-69489653D01*
X121755401Y-69469013D01*
X121757172Y-69469000D01*
X132712828Y-69469000D01*
X132779867Y-69488685D01*
G37*
%TD.AperFunction*%
%TA.AperFunction,Conductor*%
G36*
X138531444Y-79993999D02*
G01*
X138570486Y-80039056D01*
X138574951Y-80047820D01*
X138699890Y-80219786D01*
X138850213Y-80370109D01*
X139022179Y-80495048D01*
X139022181Y-80495049D01*
X139022184Y-80495051D01*
X139031493Y-80499794D01*
X139082290Y-80547766D01*
X139099087Y-80615587D01*
X139076552Y-80681722D01*
X139031505Y-80720760D01*
X139022446Y-80725376D01*
X139022440Y-80725380D01*
X138968282Y-80764727D01*
X138968282Y-80764728D01*
X139600591Y-81397037D01*
X139537007Y-81414075D01*
X139422993Y-81479901D01*
X139329901Y-81572993D01*
X139264075Y-81687007D01*
X139247037Y-81750591D01*
X138614728Y-81118282D01*
X138614727Y-81118282D01*
X138575380Y-81172440D01*
X138570483Y-81182051D01*
X138522506Y-81232845D01*
X138454684Y-81249638D01*
X138388550Y-81227098D01*
X138349516Y-81182048D01*
X138344626Y-81172452D01*
X138305270Y-81118282D01*
X138305269Y-81118282D01*
X137672962Y-81750589D01*
X137655925Y-81687007D01*
X137590099Y-81572993D01*
X137497007Y-81479901D01*
X137382993Y-81414075D01*
X137319409Y-81397037D01*
X137951716Y-80764728D01*
X137897547Y-80725373D01*
X137897547Y-80725372D01*
X137888500Y-80720763D01*
X137837706Y-80672788D01*
X137820912Y-80604966D01*
X137843451Y-80538832D01*
X137888508Y-80499793D01*
X137897816Y-80495051D01*
X137984147Y-80432328D01*
X138069786Y-80370109D01*
X138069788Y-80370106D01*
X138069792Y-80370104D01*
X138220104Y-80219792D01*
X138220106Y-80219788D01*
X138220109Y-80219786D01*
X138345048Y-80047820D01*
X138345047Y-80047820D01*
X138345051Y-80047816D01*
X138349514Y-80039054D01*
X138397488Y-79988259D01*
X138465308Y-79971463D01*
X138531444Y-79993999D01*
G37*
%TD.AperFunction*%
%TA.AperFunction,Conductor*%
G36*
X141071444Y-79993999D02*
G01*
X141110486Y-80039056D01*
X141114951Y-80047820D01*
X141239890Y-80219786D01*
X141390213Y-80370109D01*
X141562179Y-80495048D01*
X141562181Y-80495049D01*
X141562184Y-80495051D01*
X141571493Y-80499794D01*
X141622290Y-80547766D01*
X141639087Y-80615587D01*
X141616552Y-80681722D01*
X141571505Y-80720760D01*
X141562446Y-80725376D01*
X141562440Y-80725380D01*
X141508282Y-80764727D01*
X141508282Y-80764728D01*
X142140591Y-81397037D01*
X142077007Y-81414075D01*
X141962993Y-81479901D01*
X141869901Y-81572993D01*
X141804075Y-81687007D01*
X141787037Y-81750591D01*
X141154728Y-81118282D01*
X141154727Y-81118282D01*
X141115380Y-81172440D01*
X141110483Y-81182051D01*
X141062506Y-81232845D01*
X140994684Y-81249638D01*
X140928550Y-81227098D01*
X140889516Y-81182048D01*
X140884626Y-81172452D01*
X140845270Y-81118282D01*
X140845269Y-81118282D01*
X140212962Y-81750589D01*
X140195925Y-81687007D01*
X140130099Y-81572993D01*
X140037007Y-81479901D01*
X139922993Y-81414075D01*
X139859409Y-81397037D01*
X140491716Y-80764728D01*
X140437547Y-80725373D01*
X140437547Y-80725372D01*
X140428500Y-80720763D01*
X140377706Y-80672788D01*
X140360912Y-80604966D01*
X140383451Y-80538832D01*
X140428508Y-80499793D01*
X140437816Y-80495051D01*
X140524147Y-80432328D01*
X140609786Y-80370109D01*
X140609788Y-80370106D01*
X140609792Y-80370104D01*
X140760104Y-80219792D01*
X140760106Y-80219788D01*
X140760109Y-80219786D01*
X140885048Y-80047820D01*
X140885047Y-80047820D01*
X140885051Y-80047816D01*
X140889514Y-80039054D01*
X140937488Y-79988259D01*
X141005308Y-79971463D01*
X141071444Y-79993999D01*
G37*
%TD.AperFunction*%
%TA.AperFunction,Conductor*%
G36*
X143394340Y-80228068D02*
G01*
X143450274Y-80269939D01*
X143467189Y-80300917D01*
X143516202Y-80432328D01*
X143516206Y-80432335D01*
X143593889Y-80536105D01*
X143618307Y-80601569D01*
X143603456Y-80669842D01*
X143593890Y-80684727D01*
X143516647Y-80787910D01*
X143516645Y-80787913D01*
X143466403Y-80922619D01*
X143466401Y-80922626D01*
X143457497Y-81005444D01*
X143454434Y-81005114D01*
X143455336Y-81022094D01*
X143422356Y-81081195D01*
X142752962Y-81750589D01*
X142735925Y-81687007D01*
X142670099Y-81572993D01*
X142577007Y-81479901D01*
X142462993Y-81414075D01*
X142399409Y-81397037D01*
X143031716Y-80764728D01*
X142977547Y-80725373D01*
X142977547Y-80725372D01*
X142968500Y-80720763D01*
X142917706Y-80672788D01*
X142900912Y-80604966D01*
X142923451Y-80538832D01*
X142968508Y-80499793D01*
X142977816Y-80495051D01*
X143149792Y-80370104D01*
X143263329Y-80256566D01*
X143324648Y-80223084D01*
X143394340Y-80228068D01*
G37*
%TD.AperFunction*%
%TD*%
%TA.AperFunction,Conductor*%
%TO.N,+5VP*%
G36*
X117278003Y-79640704D02*
G01*
X117284481Y-79646736D01*
X117522000Y-79884255D01*
X117522001Y-79884257D01*
X117593143Y-79955399D01*
X117620368Y-79966675D01*
X117686095Y-79993901D01*
X117686096Y-79993901D01*
X117801139Y-79993901D01*
X117801147Y-79993900D01*
X120059041Y-79993900D01*
X120126080Y-80013585D01*
X120146722Y-80030219D01*
X120219913Y-80103410D01*
X120323187Y-80163036D01*
X120438375Y-80193900D01*
X120438377Y-80193900D01*
X120557623Y-80193900D01*
X120557625Y-80193900D01*
X120672813Y-80163036D01*
X120776087Y-80103410D01*
X120860410Y-80019087D01*
X120890613Y-79966773D01*
X120941181Y-79918559D01*
X121009788Y-79905337D01*
X121074653Y-79931305D01*
X121105386Y-79966772D01*
X121135590Y-80019087D01*
X121219913Y-80103410D01*
X121246536Y-80118781D01*
X121272226Y-80133614D01*
X121320441Y-80184182D01*
X121333662Y-80252789D01*
X121307693Y-80317653D01*
X121272226Y-80348386D01*
X121219916Y-80378588D01*
X121219910Y-80378592D01*
X121135592Y-80462910D01*
X121135590Y-80462913D01*
X121075964Y-80566185D01*
X121045100Y-80681375D01*
X121045100Y-80765600D01*
X121025415Y-80832639D01*
X120972611Y-80878394D01*
X120921100Y-80889600D01*
X120764139Y-80889600D01*
X120599663Y-80922316D01*
X120599655Y-80922318D01*
X120444714Y-80986497D01*
X120444704Y-80986502D01*
X120305263Y-81079673D01*
X120186673Y-81198263D01*
X120093502Y-81337704D01*
X120093497Y-81337714D01*
X120029318Y-81492655D01*
X120029316Y-81492663D01*
X119996600Y-81657139D01*
X119996600Y-81824860D01*
X120029316Y-81989336D01*
X120029318Y-81989344D01*
X120093497Y-82144285D01*
X120093502Y-82144295D01*
X120186673Y-82283736D01*
X120305263Y-82402326D01*
X120444704Y-82495497D01*
X120444708Y-82495499D01*
X120444711Y-82495501D01*
X120599656Y-82559682D01*
X120764144Y-82592400D01*
X120764260Y-82592400D01*
X120931857Y-82592400D01*
X120931858Y-82592399D01*
X121096344Y-82559682D01*
X121251289Y-82495501D01*
X121390736Y-82402326D01*
X121509326Y-82283736D01*
X121602501Y-82144289D01*
X121666682Y-81989344D01*
X121699400Y-81824856D01*
X121699400Y-81657144D01*
X121666682Y-81492656D01*
X121602501Y-81337711D01*
X121600170Y-81332083D01*
X121601681Y-81331456D01*
X121589049Y-81270787D01*
X121614048Y-81205543D01*
X121665859Y-81167473D01*
X121665309Y-81166144D01*
X121672810Y-81163036D01*
X121672813Y-81163036D01*
X121776087Y-81103410D01*
X121860410Y-81019087D01*
X121890613Y-80966773D01*
X121941181Y-80918559D01*
X122009788Y-80905337D01*
X122074653Y-80931305D01*
X122105386Y-80966772D01*
X122135590Y-81019087D01*
X122219913Y-81103410D01*
X122299562Y-81149396D01*
X122323183Y-81163034D01*
X122323187Y-81163036D01*
X122438375Y-81193900D01*
X122438377Y-81193900D01*
X122507488Y-81193900D01*
X122574527Y-81213585D01*
X122620282Y-81266389D01*
X122630226Y-81335547D01*
X122622049Y-81365353D01*
X122569318Y-81492655D01*
X122569316Y-81492663D01*
X122536600Y-81657139D01*
X122536600Y-81824860D01*
X122569316Y-81989336D01*
X122569318Y-81989344D01*
X122633497Y-82144285D01*
X122633502Y-82144295D01*
X122726673Y-82283736D01*
X122845263Y-82402326D01*
X122984704Y-82495497D01*
X122984708Y-82495499D01*
X122984711Y-82495501D01*
X123139656Y-82559682D01*
X123287042Y-82588998D01*
X123348952Y-82621382D01*
X123383526Y-82682097D01*
X123379787Y-82751867D01*
X123338921Y-82808539D01*
X123324852Y-82818001D01*
X123219916Y-82878588D01*
X123219910Y-82878592D01*
X123135592Y-82962910D01*
X123135588Y-82962916D01*
X123105386Y-83015226D01*
X123054818Y-83063441D01*
X122986211Y-83076662D01*
X122921347Y-83050693D01*
X122890614Y-83015226D01*
X122875781Y-82989536D01*
X122860410Y-82962913D01*
X122776087Y-82878590D01*
X122716798Y-82844359D01*
X122672814Y-82818964D01*
X122615219Y-82803532D01*
X122557625Y-82788100D01*
X122438375Y-82788100D01*
X122323185Y-82818964D01*
X122219913Y-82878590D01*
X122219910Y-82878592D01*
X122135592Y-82962910D01*
X122135588Y-82962916D01*
X122105386Y-83015226D01*
X122054818Y-83063441D01*
X121986211Y-83076662D01*
X121921347Y-83050693D01*
X121890614Y-83015226D01*
X121875781Y-82989536D01*
X121860410Y-82962913D01*
X121776087Y-82878590D01*
X121716798Y-82844359D01*
X121672814Y-82818964D01*
X121615219Y-82803532D01*
X121557625Y-82788100D01*
X121438375Y-82788100D01*
X121323185Y-82818964D01*
X121219913Y-82878590D01*
X121219910Y-82878592D01*
X121135592Y-82962910D01*
X121135588Y-82962916D01*
X121105386Y-83015226D01*
X121054818Y-83063441D01*
X120986211Y-83076662D01*
X120921347Y-83050693D01*
X120890614Y-83015226D01*
X120875781Y-82989536D01*
X120860410Y-82962913D01*
X120776087Y-82878590D01*
X120776084Y-82878588D01*
X120776080Y-82878585D01*
X120692373Y-82830256D01*
X120692369Y-82830255D01*
X120672813Y-82818964D01*
X120557625Y-82788100D01*
X120438375Y-82788100D01*
X120323185Y-82818964D01*
X120219913Y-82878590D01*
X120219910Y-82878592D01*
X120135592Y-82962910D01*
X120135590Y-82962913D01*
X120075964Y-83066185D01*
X120074275Y-83072489D01*
X120045100Y-83181375D01*
X120045100Y-83300625D01*
X120052410Y-83327906D01*
X120075964Y-83415814D01*
X120100481Y-83458278D01*
X120135590Y-83519087D01*
X120219913Y-83603410D01*
X120246536Y-83618781D01*
X120272226Y-83633614D01*
X120320441Y-83684182D01*
X120333662Y-83752789D01*
X120307693Y-83817653D01*
X120272226Y-83848386D01*
X120219916Y-83878588D01*
X120219910Y-83878592D01*
X120135592Y-83962910D01*
X120135590Y-83962913D01*
X120075964Y-84066185D01*
X120045100Y-84181375D01*
X120045100Y-84300624D01*
X120075964Y-84415814D01*
X120095390Y-84449459D01*
X120135590Y-84519087D01*
X120219913Y-84603410D01*
X120309348Y-84655046D01*
X120321993Y-84662347D01*
X120323187Y-84663036D01*
X120438375Y-84693900D01*
X120438377Y-84693900D01*
X120557623Y-84693900D01*
X120557625Y-84693900D01*
X120672813Y-84663036D01*
X120776087Y-84603410D01*
X120860410Y-84519087D01*
X120890613Y-84466773D01*
X120941181Y-84418559D01*
X121009788Y-84405337D01*
X121074653Y-84431305D01*
X121105386Y-84466772D01*
X121135590Y-84519087D01*
X121219913Y-84603410D01*
X121246536Y-84618781D01*
X121272226Y-84633614D01*
X121320441Y-84684182D01*
X121333662Y-84752789D01*
X121307693Y-84817653D01*
X121272226Y-84848386D01*
X121219916Y-84878588D01*
X121219910Y-84878592D01*
X121135592Y-84962910D01*
X121135590Y-84962913D01*
X121075964Y-85066185D01*
X121045100Y-85181375D01*
X121045100Y-85300624D01*
X121075964Y-85415814D01*
X121081160Y-85424813D01*
X121135590Y-85519087D01*
X121219913Y-85603410D01*
X121323187Y-85663036D01*
X121438375Y-85693900D01*
X121438377Y-85693900D01*
X121557623Y-85693900D01*
X121557625Y-85693900D01*
X121672813Y-85663036D01*
X121776087Y-85603410D01*
X121860410Y-85519087D01*
X121890613Y-85466773D01*
X121941181Y-85418559D01*
X122009788Y-85405337D01*
X122074653Y-85431305D01*
X122105386Y-85466772D01*
X122135590Y-85519087D01*
X122219913Y-85603410D01*
X122323187Y-85663036D01*
X122438375Y-85693900D01*
X122438377Y-85693900D01*
X122557623Y-85693900D01*
X122557625Y-85693900D01*
X122672813Y-85663036D01*
X122776087Y-85603410D01*
X122860410Y-85519087D01*
X122890613Y-85466773D01*
X122941181Y-85418559D01*
X123009788Y-85405337D01*
X123074653Y-85431305D01*
X123105386Y-85466772D01*
X123135590Y-85519087D01*
X123219913Y-85603410D01*
X123323187Y-85663036D01*
X123438375Y-85693900D01*
X123438377Y-85693900D01*
X123557623Y-85693900D01*
X123557625Y-85693900D01*
X123672813Y-85663036D01*
X123776087Y-85603410D01*
X123860410Y-85519087D01*
X123889016Y-85469539D01*
X123939580Y-85421327D01*
X124008187Y-85408103D01*
X124073052Y-85434071D01*
X124103787Y-85469541D01*
X124137585Y-85528080D01*
X124137588Y-85528084D01*
X124137590Y-85528087D01*
X124221913Y-85612410D01*
X124325187Y-85672036D01*
X124440375Y-85702900D01*
X124440377Y-85702900D01*
X124559623Y-85702900D01*
X124559625Y-85702900D01*
X124674813Y-85672036D01*
X124778087Y-85612410D01*
X124862410Y-85528087D01*
X124891788Y-85477202D01*
X124942355Y-85428987D01*
X125010962Y-85415765D01*
X125075827Y-85441733D01*
X125106561Y-85477201D01*
X125121057Y-85502309D01*
X125129590Y-85517087D01*
X125213913Y-85601410D01*
X125317187Y-85661036D01*
X125432375Y-85691900D01*
X125432377Y-85691900D01*
X125551623Y-85691900D01*
X125551625Y-85691900D01*
X125666813Y-85661036D01*
X125770087Y-85601410D01*
X125854410Y-85517087D01*
X125914036Y-85413813D01*
X125944900Y-85298625D01*
X125944900Y-85179375D01*
X125914036Y-85064187D01*
X125854410Y-84960913D01*
X125770087Y-84876590D01*
X125717773Y-84846386D01*
X125669559Y-84795819D01*
X125656337Y-84727212D01*
X125682305Y-84662347D01*
X125717772Y-84631613D01*
X125770087Y-84601410D01*
X125854410Y-84517087D01*
X125914036Y-84413813D01*
X125944900Y-84298625D01*
X125944900Y-84179375D01*
X125914036Y-84064187D01*
X125854410Y-83960913D01*
X125770087Y-83876590D01*
X125708978Y-83841308D01*
X125660764Y-83790741D01*
X125647542Y-83722134D01*
X125673510Y-83657269D01*
X125708981Y-83626535D01*
X125718231Y-83621195D01*
X125768087Y-83592410D01*
X125852410Y-83508087D01*
X125912036Y-83404813D01*
X125942900Y-83289625D01*
X125942900Y-83170375D01*
X125912036Y-83055187D01*
X125852410Y-82951913D01*
X125768087Y-82867590D01*
X125716450Y-82837777D01*
X125664814Y-82807964D01*
X125590678Y-82788100D01*
X125549625Y-82777100D01*
X125430375Y-82777100D01*
X125315185Y-82807964D01*
X125211913Y-82867590D01*
X125211910Y-82867592D01*
X125127592Y-82951910D01*
X125127587Y-82951916D01*
X125098210Y-83002798D01*
X125047642Y-83051013D01*
X124979034Y-83064234D01*
X124914170Y-83038265D01*
X124883437Y-83002797D01*
X124881822Y-83000000D01*
X124860410Y-82962913D01*
X124776087Y-82878590D01*
X124716798Y-82844359D01*
X124672814Y-82818964D01*
X124615219Y-82803532D01*
X124557625Y-82788100D01*
X124438375Y-82788100D01*
X124323185Y-82818964D01*
X124219913Y-82878590D01*
X124219910Y-82878592D01*
X124135592Y-82962910D01*
X124135588Y-82962916D01*
X124105386Y-83015226D01*
X124054818Y-83063441D01*
X123986211Y-83076662D01*
X123921347Y-83050693D01*
X123890614Y-83015226D01*
X123875781Y-82989536D01*
X123860410Y-82962913D01*
X123776087Y-82878590D01*
X123672813Y-82818964D01*
X123615587Y-82803630D01*
X123555927Y-82767266D01*
X123525398Y-82704419D01*
X123533693Y-82635043D01*
X123578178Y-82581166D01*
X123623490Y-82562238D01*
X123636344Y-82559682D01*
X123791289Y-82495501D01*
X123930736Y-82402326D01*
X124049326Y-82283736D01*
X124142501Y-82144289D01*
X124206682Y-81989344D01*
X124239400Y-81824856D01*
X124239400Y-81657144D01*
X124206682Y-81492656D01*
X124142501Y-81337711D01*
X124138322Y-81331456D01*
X124134458Y-81325673D01*
X124113580Y-81258996D01*
X124132064Y-81191616D01*
X124184043Y-81144925D01*
X124253013Y-81133749D01*
X124299561Y-81149396D01*
X124323181Y-81163033D01*
X124323182Y-81163033D01*
X124323187Y-81163036D01*
X124438375Y-81193900D01*
X124438377Y-81193900D01*
X124557623Y-81193900D01*
X124557625Y-81193900D01*
X124672813Y-81163036D01*
X124714945Y-81138711D01*
X124733192Y-81128176D01*
X124801092Y-81111702D01*
X124867119Y-81134554D01*
X124876847Y-81142242D01*
X125095076Y-81333192D01*
X125132566Y-81392152D01*
X125132229Y-81462021D01*
X125120809Y-81488512D01*
X125075965Y-81566183D01*
X125075965Y-81566184D01*
X125075964Y-81566186D01*
X125075964Y-81566187D01*
X125070263Y-81587465D01*
X125045100Y-81681375D01*
X125045100Y-81800624D01*
X125075964Y-81915814D01*
X125105777Y-81967450D01*
X125135590Y-82019087D01*
X125219913Y-82103410D01*
X125323187Y-82163036D01*
X125438375Y-82193900D01*
X125438377Y-82193900D01*
X125557623Y-82193900D01*
X125557625Y-82193900D01*
X125672813Y-82163036D01*
X125776087Y-82103410D01*
X125787035Y-82092461D01*
X125848353Y-82058978D01*
X125918045Y-82063960D01*
X125956367Y-82086821D01*
X127000000Y-83000000D01*
X136486780Y-83000000D01*
X136553819Y-83019685D01*
X136599574Y-83072489D01*
X136609518Y-83141647D01*
X136580493Y-83205203D01*
X136543076Y-83234484D01*
X136482443Y-83265378D01*
X136482440Y-83265380D01*
X136428282Y-83304727D01*
X136428282Y-83304728D01*
X137060591Y-83937037D01*
X136997007Y-83954075D01*
X136882993Y-84019901D01*
X136789901Y-84112993D01*
X136724075Y-84227007D01*
X136707037Y-84290591D01*
X136074728Y-83658282D01*
X136074727Y-83658282D01*
X136035380Y-83712439D01*
X135938904Y-83901782D01*
X135873242Y-84103869D01*
X135873242Y-84103872D01*
X135840000Y-84313753D01*
X135840000Y-84526246D01*
X135873242Y-84736127D01*
X135873242Y-84736130D01*
X135938904Y-84938217D01*
X136035375Y-85127550D01*
X136074728Y-85181716D01*
X136707037Y-84549408D01*
X136724075Y-84612993D01*
X136789901Y-84727007D01*
X136882993Y-84820099D01*
X136997007Y-84885925D01*
X137060590Y-84902962D01*
X136428282Y-85535269D01*
X136428282Y-85535270D01*
X136482449Y-85574624D01*
X136671782Y-85671095D01*
X136873866Y-85736756D01*
X136925738Y-85744971D01*
X136937759Y-85750669D01*
X136951017Y-85751772D01*
X136968718Y-85765345D01*
X136988873Y-85774900D01*
X136995904Y-85786192D01*
X137006462Y-85794288D01*
X137014015Y-85815277D01*
X137025805Y-85834211D01*
X137025615Y-85847512D01*
X137030120Y-85860030D01*
X137025126Y-85881768D01*
X137024809Y-85904073D01*
X137017456Y-85915162D01*
X137014479Y-85928127D01*
X136998527Y-85943714D01*
X136986200Y-85962307D01*
X136972908Y-85968747D01*
X136964506Y-85976957D01*
X136932211Y-85988465D01*
X136931297Y-85988908D01*
X136930781Y-85989013D01*
X136897465Y-85995641D01*
X136896421Y-85996073D01*
X136889657Y-85997463D01*
X136884627Y-85997044D01*
X136864702Y-86000000D01*
X135500000Y-86000000D01*
X135500000Y-87376000D01*
X135480315Y-87443039D01*
X135427511Y-87488794D01*
X135376000Y-87500000D01*
X133000000Y-87500000D01*
X125051362Y-87500000D01*
X124984323Y-87480315D01*
X124963681Y-87463681D01*
X123500000Y-86000000D01*
X117196800Y-86000000D01*
X117129761Y-85980315D01*
X117084006Y-85927511D01*
X117072800Y-85876000D01*
X117072800Y-82461536D01*
X117092485Y-82394497D01*
X117145289Y-82348742D01*
X117214447Y-82338798D01*
X117278003Y-82367823D01*
X117297121Y-82388654D01*
X117301190Y-82394255D01*
X117870352Y-81825093D01*
X117893792Y-81912571D01*
X117952311Y-82013930D01*
X118035070Y-82096689D01*
X118136429Y-82155208D01*
X118223905Y-82178647D01*
X117654743Y-82747808D01*
X117654743Y-82747809D01*
X117679844Y-82766046D01*
X117847935Y-82851694D01*
X117847938Y-82851695D01*
X118027349Y-82909988D01*
X118213677Y-82939500D01*
X118402323Y-82939500D01*
X118588650Y-82909988D01*
X118768061Y-82851695D01*
X118768064Y-82851694D01*
X118936151Y-82766048D01*
X118961255Y-82747808D01*
X118961256Y-82747808D01*
X118392095Y-82178647D01*
X118479571Y-82155208D01*
X118580930Y-82096689D01*
X118663689Y-82013930D01*
X118722208Y-81912571D01*
X118745647Y-81825095D01*
X119314808Y-82394256D01*
X119314808Y-82394255D01*
X119333048Y-82369151D01*
X119418694Y-82201064D01*
X119418695Y-82201061D01*
X119476988Y-82021650D01*
X119506500Y-81835323D01*
X119506500Y-81646676D01*
X119476988Y-81460349D01*
X119418695Y-81280938D01*
X119418694Y-81280935D01*
X119333046Y-81112844D01*
X119314809Y-81087743D01*
X119314808Y-81087743D01*
X118745647Y-81656904D01*
X118722208Y-81569429D01*
X118663689Y-81468070D01*
X118580930Y-81385311D01*
X118479571Y-81326792D01*
X118392094Y-81303352D01*
X118961255Y-80734190D01*
X118961255Y-80734189D01*
X118936153Y-80715952D01*
X118768063Y-80630305D01*
X118768061Y-80630304D01*
X118588650Y-80572011D01*
X118402323Y-80542500D01*
X118213677Y-80542500D01*
X118027349Y-80572011D01*
X117847938Y-80630304D01*
X117847936Y-80630305D01*
X117679844Y-80715953D01*
X117679839Y-80715957D01*
X117654743Y-80734188D01*
X117654743Y-80734191D01*
X118223906Y-81303352D01*
X118136429Y-81326792D01*
X118035070Y-81385311D01*
X117952311Y-81468070D01*
X117893792Y-81569429D01*
X117870352Y-81656905D01*
X117301191Y-81087743D01*
X117301189Y-81087743D01*
X117297120Y-81093345D01*
X117272136Y-81112610D01*
X117248311Y-81133256D01*
X117244689Y-81133776D01*
X117241791Y-81136012D01*
X117210366Y-81138711D01*
X117179153Y-81143200D01*
X117175824Y-81141679D01*
X117172178Y-81141993D01*
X117144283Y-81127275D01*
X117115597Y-81114175D01*
X117113618Y-81111096D01*
X117110382Y-81109389D01*
X117094871Y-81081925D01*
X117077823Y-81055397D01*
X117077117Y-81050488D01*
X117076023Y-81048551D01*
X117072800Y-81020462D01*
X117072800Y-79734417D01*
X117092485Y-79667378D01*
X117145289Y-79621623D01*
X117214447Y-79611679D01*
X117278003Y-79640704D01*
G37*
%TD.AperFunction*%
%TA.AperFunction,Conductor*%
G36*
X139264075Y-84612993D02*
G01*
X139329901Y-84727007D01*
X139422993Y-84820099D01*
X139537007Y-84885925D01*
X139600590Y-84902962D01*
X138968282Y-85535269D01*
X138968282Y-85535270D01*
X139022449Y-85574624D01*
X139211782Y-85671095D01*
X139413866Y-85736756D01*
X139465738Y-85744971D01*
X139477759Y-85750669D01*
X139491017Y-85751772D01*
X139508718Y-85765345D01*
X139528873Y-85774900D01*
X139535904Y-85786192D01*
X139546462Y-85794288D01*
X139554015Y-85815277D01*
X139565805Y-85834211D01*
X139565615Y-85847512D01*
X139570120Y-85860030D01*
X139565126Y-85881768D01*
X139564809Y-85904073D01*
X139557456Y-85915162D01*
X139554479Y-85928127D01*
X139538527Y-85943714D01*
X139526200Y-85962307D01*
X139512908Y-85968747D01*
X139504506Y-85976957D01*
X139472211Y-85988465D01*
X139471297Y-85988908D01*
X139470781Y-85989013D01*
X139437465Y-85995641D01*
X139436421Y-85996073D01*
X139429657Y-85997463D01*
X139424627Y-85997044D01*
X139404702Y-86000000D01*
X137515298Y-86000000D01*
X137488661Y-85996049D01*
X137488506Y-85996829D01*
X137482535Y-85995641D01*
X137474973Y-85994136D01*
X137449463Y-85989062D01*
X137387553Y-85956675D01*
X137352980Y-85895959D01*
X137356721Y-85826190D01*
X137397589Y-85769518D01*
X137454261Y-85744971D01*
X137506133Y-85736756D01*
X137708217Y-85671095D01*
X137897554Y-85574622D01*
X137951716Y-85535270D01*
X137951717Y-85535270D01*
X137319408Y-84902962D01*
X137382993Y-84885925D01*
X137497007Y-84820099D01*
X137590099Y-84727007D01*
X137655925Y-84612993D01*
X137672962Y-84549408D01*
X138305270Y-85181717D01*
X138305270Y-85181716D01*
X138344622Y-85127554D01*
X138349514Y-85117954D01*
X138397488Y-85067157D01*
X138465308Y-85050361D01*
X138531444Y-85072897D01*
X138570486Y-85117954D01*
X138575375Y-85127550D01*
X138614728Y-85181716D01*
X139247037Y-84549408D01*
X139264075Y-84612993D01*
G37*
%TD.AperFunction*%
%TA.AperFunction,Conductor*%
G36*
X141804075Y-84612993D02*
G01*
X141869901Y-84727007D01*
X141962993Y-84820099D01*
X142077007Y-84885925D01*
X142140590Y-84902962D01*
X141508282Y-85535269D01*
X141508282Y-85535270D01*
X141562449Y-85574624D01*
X141751782Y-85671095D01*
X141953866Y-85736756D01*
X142005738Y-85744971D01*
X142017759Y-85750669D01*
X142031017Y-85751772D01*
X142048718Y-85765345D01*
X142068873Y-85774900D01*
X142075904Y-85786192D01*
X142086462Y-85794288D01*
X142094015Y-85815277D01*
X142105805Y-85834211D01*
X142105615Y-85847512D01*
X142110120Y-85860030D01*
X142105126Y-85881768D01*
X142104809Y-85904073D01*
X142097456Y-85915162D01*
X142094479Y-85928127D01*
X142078527Y-85943714D01*
X142066200Y-85962307D01*
X142052908Y-85968747D01*
X142044506Y-85976957D01*
X142012211Y-85988465D01*
X142011297Y-85988908D01*
X142010781Y-85989013D01*
X141977465Y-85995641D01*
X141976421Y-85996073D01*
X141969657Y-85997463D01*
X141964627Y-85997044D01*
X141944702Y-86000000D01*
X140055298Y-86000000D01*
X140028661Y-85996049D01*
X140028506Y-85996829D01*
X140022535Y-85995641D01*
X140014973Y-85994136D01*
X139989463Y-85989062D01*
X139927553Y-85956675D01*
X139892980Y-85895959D01*
X139896721Y-85826190D01*
X139937589Y-85769518D01*
X139994261Y-85744971D01*
X140046133Y-85736756D01*
X140248217Y-85671095D01*
X140437554Y-85574622D01*
X140491716Y-85535270D01*
X140491717Y-85535270D01*
X139859408Y-84902962D01*
X139922993Y-84885925D01*
X140037007Y-84820099D01*
X140130099Y-84727007D01*
X140195925Y-84612993D01*
X140212962Y-84549409D01*
X140845270Y-85181717D01*
X140845270Y-85181716D01*
X140884622Y-85127554D01*
X140889514Y-85117954D01*
X140937488Y-85067157D01*
X141005308Y-85050361D01*
X141071444Y-85072897D01*
X141110486Y-85117954D01*
X141115375Y-85127550D01*
X141154728Y-85181716D01*
X141787037Y-84549408D01*
X141804075Y-84612993D01*
G37*
%TD.AperFunction*%
%TA.AperFunction,Conductor*%
G36*
X143422356Y-85218803D02*
G01*
X143455841Y-85280126D01*
X143454926Y-85294831D01*
X143457497Y-85294555D01*
X143466401Y-85377373D01*
X143466403Y-85377380D01*
X143516645Y-85512086D01*
X143516649Y-85512093D01*
X143602809Y-85627187D01*
X143602812Y-85627190D01*
X143717906Y-85713350D01*
X143717913Y-85713354D01*
X143842489Y-85759818D01*
X143898423Y-85801689D01*
X143922840Y-85867153D01*
X143907988Y-85935426D01*
X143858583Y-85984832D01*
X143799156Y-86000000D01*
X142595298Y-86000000D01*
X142570344Y-85997463D01*
X142563577Y-85996072D01*
X142562535Y-85995641D01*
X142529219Y-85989014D01*
X142528703Y-85988908D01*
X142498165Y-85972689D01*
X142467553Y-85956675D01*
X142467353Y-85956324D01*
X142466996Y-85956135D01*
X142450068Y-85925969D01*
X142432980Y-85895959D01*
X142433001Y-85895555D01*
X142432804Y-85895203D01*
X142434867Y-85860750D01*
X142436721Y-85826190D01*
X142436957Y-85825861D01*
X142436982Y-85825459D01*
X142457361Y-85797567D01*
X142477589Y-85769518D01*
X142477980Y-85769348D01*
X142478203Y-85769044D01*
X142482636Y-85767331D01*
X142534261Y-85744971D01*
X142586133Y-85736756D01*
X142788217Y-85671095D01*
X142977554Y-85574622D01*
X143031716Y-85535270D01*
X143031717Y-85535270D01*
X142399408Y-84902962D01*
X142462993Y-84885925D01*
X142577007Y-84820099D01*
X142670099Y-84727007D01*
X142735925Y-84612993D01*
X142752962Y-84549409D01*
X143422356Y-85218803D01*
G37*
%TD.AperFunction*%
%TA.AperFunction,Conductor*%
G36*
X139093819Y-83019685D02*
G01*
X139139574Y-83072489D01*
X139149518Y-83141647D01*
X139120493Y-83205203D01*
X139083076Y-83234484D01*
X139022443Y-83265378D01*
X139022440Y-83265380D01*
X138968282Y-83304727D01*
X138968282Y-83304728D01*
X139600591Y-83937037D01*
X139537007Y-83954075D01*
X139422993Y-84019901D01*
X139329901Y-84112993D01*
X139264075Y-84227007D01*
X139247037Y-84290591D01*
X138614728Y-83658282D01*
X138614727Y-83658282D01*
X138575380Y-83712440D01*
X138570483Y-83722051D01*
X138522506Y-83772845D01*
X138454684Y-83789638D01*
X138388550Y-83767098D01*
X138349516Y-83722048D01*
X138344626Y-83712452D01*
X138305270Y-83658282D01*
X138305269Y-83658282D01*
X137672962Y-84290590D01*
X137655925Y-84227007D01*
X137590099Y-84112993D01*
X137497007Y-84019901D01*
X137382993Y-83954075D01*
X137319409Y-83937037D01*
X137951716Y-83304728D01*
X137897550Y-83265375D01*
X137836925Y-83234485D01*
X137786129Y-83186510D01*
X137769334Y-83118689D01*
X137791871Y-83052554D01*
X137846587Y-83009103D01*
X137893220Y-83000000D01*
X139026780Y-83000000D01*
X139093819Y-83019685D01*
G37*
%TD.AperFunction*%
%TA.AperFunction,Conductor*%
G36*
X141633819Y-83019685D02*
G01*
X141679574Y-83072489D01*
X141689518Y-83141647D01*
X141660493Y-83205203D01*
X141623076Y-83234484D01*
X141562443Y-83265378D01*
X141562440Y-83265380D01*
X141508282Y-83304727D01*
X141508282Y-83304728D01*
X142140591Y-83937037D01*
X142077007Y-83954075D01*
X141962993Y-84019901D01*
X141869901Y-84112993D01*
X141804075Y-84227007D01*
X141787037Y-84290591D01*
X141154728Y-83658282D01*
X141154727Y-83658282D01*
X141115380Y-83712440D01*
X141110483Y-83722051D01*
X141062506Y-83772845D01*
X140994684Y-83789638D01*
X140928550Y-83767098D01*
X140889516Y-83722048D01*
X140884626Y-83712452D01*
X140845270Y-83658282D01*
X140845269Y-83658282D01*
X140212962Y-84290590D01*
X140195925Y-84227007D01*
X140130099Y-84112993D01*
X140037007Y-84019901D01*
X139922993Y-83954075D01*
X139859409Y-83937037D01*
X140491716Y-83304728D01*
X140437550Y-83265375D01*
X140376925Y-83234485D01*
X140326129Y-83186510D01*
X140309334Y-83118689D01*
X140331871Y-83052554D01*
X140386587Y-83009103D01*
X140433220Y-83000000D01*
X141566780Y-83000000D01*
X141633819Y-83019685D01*
G37*
%TD.AperFunction*%
%TA.AperFunction,Conductor*%
G36*
X143583299Y-83019685D02*
G01*
X143629054Y-83072489D01*
X143638998Y-83141647D01*
X143609973Y-83205203D01*
X143603941Y-83211681D01*
X143602809Y-83212812D01*
X143516649Y-83327906D01*
X143516645Y-83327913D01*
X143466403Y-83462619D01*
X143466401Y-83462626D01*
X143457497Y-83545444D01*
X143454434Y-83545114D01*
X143455336Y-83562094D01*
X143422356Y-83621195D01*
X142752962Y-84290590D01*
X142735925Y-84227007D01*
X142670099Y-84112993D01*
X142577007Y-84019901D01*
X142462993Y-83954075D01*
X142399409Y-83937037D01*
X143031716Y-83304728D01*
X142977550Y-83265375D01*
X142916925Y-83234485D01*
X142866129Y-83186510D01*
X142849334Y-83118689D01*
X142871871Y-83052554D01*
X142926587Y-83009103D01*
X142973220Y-83000000D01*
X143516260Y-83000000D01*
X143583299Y-83019685D01*
G37*
%TD.AperFunction*%
%TD*%
M02*
